<?xml version="1.0" encoding="utf-8" standalone="no"?>
<!DOCTYPE svg PUBLIC "-//W3C//DTD SVG 1.1//EN"
  "http://www.w3.org/Graphics/SVG/1.1/DTD/svg11.dtd">
<svg xmlns:xlink="http://www.w3.org/1999/xlink" width="460.8pt" height="345.6pt" viewBox="0 0 460.8 345.6" xmlns="http://www.w3.org/2000/svg" version="1.1">
 <metadata>
  <rdf:RDF xmlns:dc="http://purl.org/dc/elements/1.1/" xmlns:cc="http://creativecommons.org/ns#" xmlns:rdf="http://www.w3.org/1999/02/22-rdf-syntax-ns#">
   <cc:Work>
    <dc:type rdf:resource="http://purl.org/dc/dcmitype/StillImage"/>
    <dc:date>2022-06-19T17:22:28.499545</dc:date>
    <dc:format>image/svg+xml</dc:format>
    <dc:creator>
     <cc:Agent>
      <dc:title>Matplotlib v3.5.2, https://matplotlib.org/</dc:title>
     </cc:Agent>
    </dc:creator>
   </cc:Work>
  </rdf:RDF>
 </metadata>
 <defs>
  <style type="text/css">*{stroke-linejoin: round; stroke-linecap: butt}</style>
 </defs>
 <g id="figure_1">
  <g id="patch_1">
   <path d="M 0 345.6 
L 460.8 345.6 
L 460.8 0 
L 0 0 
z
" style="fill: #ffffff"/>
  </g>
  <g id="axes_1">
   <g id="patch_2">
    <path d="M 57.6 298.944 
L 360.8064 298.944 
L 360.8064 6.912 
L 57.6 6.912 
z
" style="fill: #ffffff"/>
   </g>
   <g id="matplotlib.axis_1">
    <g id="xtick_1">
     <g id="line2d_1">
      <path d="M 57.6 298.944 
L 57.6 6.912 
" clip-path="url(#pb47bff31a2)" style="fill: none; stroke: #b0b0b0; stroke-width: 0.8; stroke-linecap: square"/>
     </g>
     <g id="line2d_2">
      <defs>
       <path id="mc17fbbcad6" d="M 0 0 
L 0 3.5 
" style="stroke: #000000; stroke-width: 0.8"/>
      </defs>
      <g>
       <use xlink:href="#mc17fbbcad6" x="57.6" y="298.944" style="stroke: #000000; stroke-width: 0.8"/>
      </g>
     </g>
     <g id="text_1">
      <!-- 0 -->
      <g transform="translate(52.191875 318.861344)scale(0.17 -0.17)">
       <defs>
        <path id="DejaVuSans-30" d="M 2034 4250 
Q 1547 4250 1301 3770 
Q 1056 3291 1056 2328 
Q 1056 1369 1301 889 
Q 1547 409 2034 409 
Q 2525 409 2770 889 
Q 3016 1369 3016 2328 
Q 3016 3291 2770 3770 
Q 2525 4250 2034 4250 
z
M 2034 4750 
Q 2819 4750 3233 4129 
Q 3647 3509 3647 2328 
Q 3647 1150 3233 529 
Q 2819 -91 2034 -91 
Q 1250 -91 836 529 
Q 422 1150 422 2328 
Q 422 3509 836 4129 
Q 1250 4750 2034 4750 
z
" transform="scale(0.015625)"/>
       </defs>
       <use xlink:href="#DejaVuSans-30"/>
      </g>
     </g>
    </g>
    <g id="xtick_2">
     <g id="line2d_3">
      <path d="M 144.2304 298.944 
L 144.2304 6.912 
" clip-path="url(#pb47bff31a2)" style="fill: none; stroke: #b0b0b0; stroke-width: 0.8; stroke-linecap: square"/>
     </g>
     <g id="line2d_4">
      <g>
       <use xlink:href="#mc17fbbcad6" x="144.2304" y="298.944" style="stroke: #000000; stroke-width: 0.8"/>
      </g>
     </g>
     <g id="text_2">
      <!-- 2 -->
      <g transform="translate(138.822275 318.861344)scale(0.17 -0.17)">
       <defs>
        <path id="DejaVuSans-32" d="M 1228 531 
L 3431 531 
L 3431 0 
L 469 0 
L 469 531 
Q 828 903 1448 1529 
Q 2069 2156 2228 2338 
Q 2531 2678 2651 2914 
Q 2772 3150 2772 3378 
Q 2772 3750 2511 3984 
Q 2250 4219 1831 4219 
Q 1534 4219 1204 4116 
Q 875 4013 500 3803 
L 500 4441 
Q 881 4594 1212 4672 
Q 1544 4750 1819 4750 
Q 2544 4750 2975 4387 
Q 3406 4025 3406 3419 
Q 3406 3131 3298 2873 
Q 3191 2616 2906 2266 
Q 2828 2175 2409 1742 
Q 1991 1309 1228 531 
z
" transform="scale(0.015625)"/>
       </defs>
       <use xlink:href="#DejaVuSans-32"/>
      </g>
     </g>
    </g>
    <g id="xtick_3">
     <g id="line2d_5">
      <path d="M 230.8608 298.944 
L 230.8608 6.912 
" clip-path="url(#pb47bff31a2)" style="fill: none; stroke: #b0b0b0; stroke-width: 0.8; stroke-linecap: square"/>
     </g>
     <g id="line2d_6">
      <g>
       <use xlink:href="#mc17fbbcad6" x="230.8608" y="298.944" style="stroke: #000000; stroke-width: 0.8"/>
      </g>
     </g>
     <g id="text_3">
      <!-- 4 -->
      <g transform="translate(225.452675 318.861344)scale(0.17 -0.17)">
       <defs>
        <path id="DejaVuSans-34" d="M 2419 4116 
L 825 1625 
L 2419 1625 
L 2419 4116 
z
M 2253 4666 
L 3047 4666 
L 3047 1625 
L 3713 1625 
L 3713 1100 
L 3047 1100 
L 3047 0 
L 2419 0 
L 2419 1100 
L 313 1100 
L 313 1709 
L 2253 4666 
z
" transform="scale(0.015625)"/>
       </defs>
       <use xlink:href="#DejaVuSans-34"/>
      </g>
     </g>
    </g>
    <g id="xtick_4">
     <g id="line2d_7">
      <path d="M 317.4912 298.944 
L 317.4912 6.912 
" clip-path="url(#pb47bff31a2)" style="fill: none; stroke: #b0b0b0; stroke-width: 0.8; stroke-linecap: square"/>
     </g>
     <g id="line2d_8">
      <g>
       <use xlink:href="#mc17fbbcad6" x="317.4912" y="298.944" style="stroke: #000000; stroke-width: 0.8"/>
      </g>
     </g>
     <g id="text_4">
      <!-- 6 -->
      <g transform="translate(312.083075 318.861344)scale(0.17 -0.17)">
       <defs>
        <path id="DejaVuSans-36" d="M 2113 2584 
Q 1688 2584 1439 2293 
Q 1191 2003 1191 1497 
Q 1191 994 1439 701 
Q 1688 409 2113 409 
Q 2538 409 2786 701 
Q 3034 994 3034 1497 
Q 3034 2003 2786 2293 
Q 2538 2584 2113 2584 
z
M 3366 4563 
L 3366 3988 
Q 3128 4100 2886 4159 
Q 2644 4219 2406 4219 
Q 1781 4219 1451 3797 
Q 1122 3375 1075 2522 
Q 1259 2794 1537 2939 
Q 1816 3084 2150 3084 
Q 2853 3084 3261 2657 
Q 3669 2231 3669 1497 
Q 3669 778 3244 343 
Q 2819 -91 2113 -91 
Q 1303 -91 875 529 
Q 447 1150 447 2328 
Q 447 3434 972 4092 
Q 1497 4750 2381 4750 
Q 2619 4750 2861 4703 
Q 3103 4656 3366 4563 
z
" transform="scale(0.015625)"/>
       </defs>
       <use xlink:href="#DejaVuSans-36"/>
      </g>
     </g>
    </g>
    <g id="xtick_5">
     <g id="line2d_9">
      <path d="M 100.9152 298.944 
L 100.9152 6.912 
" clip-path="url(#pb47bff31a2)" style="fill: none; stroke: #b0b0b0; stroke-width: 0.8; stroke-linecap: square"/>
     </g>
     <g id="line2d_10">
      <defs>
       <path id="m8934fb62ff" d="M 0 0 
L 0 2 
" style="stroke: #000000; stroke-width: 0.6"/>
      </defs>
      <g>
       <use xlink:href="#m8934fb62ff" x="100.9152" y="298.944" style="stroke: #000000; stroke-width: 0.6"/>
      </g>
     </g>
    </g>
    <g id="xtick_6">
     <g id="line2d_11">
      <path d="M 187.5456 298.944 
L 187.5456 6.912 
" clip-path="url(#pb47bff31a2)" style="fill: none; stroke: #b0b0b0; stroke-width: 0.8; stroke-linecap: square"/>
     </g>
     <g id="line2d_12">
      <g>
       <use xlink:href="#m8934fb62ff" x="187.5456" y="298.944" style="stroke: #000000; stroke-width: 0.6"/>
      </g>
     </g>
    </g>
    <g id="xtick_7">
     <g id="line2d_13">
      <path d="M 274.176 298.944 
L 274.176 6.912 
" clip-path="url(#pb47bff31a2)" style="fill: none; stroke: #b0b0b0; stroke-width: 0.8; stroke-linecap: square"/>
     </g>
     <g id="line2d_14">
      <g>
       <use xlink:href="#m8934fb62ff" x="274.176" y="298.944" style="stroke: #000000; stroke-width: 0.6"/>
      </g>
     </g>
    </g>
    <g id="xtick_8">
     <g id="line2d_15">
      <path d="M 360.8064 298.944 
L 360.8064 6.912 
" clip-path="url(#pb47bff31a2)" style="fill: none; stroke: #b0b0b0; stroke-width: 0.8; stroke-linecap: square"/>
     </g>
     <g id="line2d_16">
      <g>
       <use xlink:href="#m8934fb62ff" x="360.8064" y="298.944" style="stroke: #000000; stroke-width: 0.6"/>
      </g>
     </g>
    </g>
    <g id="text_5">
     <!-- log10(# f-evals / dimension) -->
     <g transform="translate(88.823278 339.314156)scale(0.17 -0.17)">
      <defs>
       <path id="DejaVuSans-6c" d="M 603 4863 
L 1178 4863 
L 1178 0 
L 603 0 
L 603 4863 
z
" transform="scale(0.015625)"/>
       <path id="DejaVuSans-6f" d="M 1959 3097 
Q 1497 3097 1228 2736 
Q 959 2375 959 1747 
Q 959 1119 1226 758 
Q 1494 397 1959 397 
Q 2419 397 2687 759 
Q 2956 1122 2956 1747 
Q 2956 2369 2687 2733 
Q 2419 3097 1959 3097 
z
M 1959 3584 
Q 2709 3584 3137 3096 
Q 3566 2609 3566 1747 
Q 3566 888 3137 398 
Q 2709 -91 1959 -91 
Q 1206 -91 779 398 
Q 353 888 353 1747 
Q 353 2609 779 3096 
Q 1206 3584 1959 3584 
z
" transform="scale(0.015625)"/>
       <path id="DejaVuSans-67" d="M 2906 1791 
Q 2906 2416 2648 2759 
Q 2391 3103 1925 3103 
Q 1463 3103 1205 2759 
Q 947 2416 947 1791 
Q 947 1169 1205 825 
Q 1463 481 1925 481 
Q 2391 481 2648 825 
Q 2906 1169 2906 1791 
z
M 3481 434 
Q 3481 -459 3084 -895 
Q 2688 -1331 1869 -1331 
Q 1566 -1331 1297 -1286 
Q 1028 -1241 775 -1147 
L 775 -588 
Q 1028 -725 1275 -790 
Q 1522 -856 1778 -856 
Q 2344 -856 2625 -561 
Q 2906 -266 2906 331 
L 2906 616 
Q 2728 306 2450 153 
Q 2172 0 1784 0 
Q 1141 0 747 490 
Q 353 981 353 1791 
Q 353 2603 747 3093 
Q 1141 3584 1784 3584 
Q 2172 3584 2450 3431 
Q 2728 3278 2906 2969 
L 2906 3500 
L 3481 3500 
L 3481 434 
z
" transform="scale(0.015625)"/>
       <path id="DejaVuSans-31" d="M 794 531 
L 1825 531 
L 1825 4091 
L 703 3866 
L 703 4441 
L 1819 4666 
L 2450 4666 
L 2450 531 
L 3481 531 
L 3481 0 
L 794 0 
L 794 531 
z
" transform="scale(0.015625)"/>
       <path id="DejaVuSans-28" d="M 1984 4856 
Q 1566 4138 1362 3434 
Q 1159 2731 1159 2009 
Q 1159 1288 1364 580 
Q 1569 -128 1984 -844 
L 1484 -844 
Q 1016 -109 783 600 
Q 550 1309 550 2009 
Q 550 2706 781 3412 
Q 1013 4119 1484 4856 
L 1984 4856 
z
" transform="scale(0.015625)"/>
       <path id="DejaVuSans-23" d="M 3272 2816 
L 2363 2816 
L 2100 1772 
L 3016 1772 
L 3272 2816 
z
M 2803 4594 
L 2478 3297 
L 3391 3297 
L 3719 4594 
L 4219 4594 
L 3897 3297 
L 4872 3297 
L 4872 2816 
L 3775 2816 
L 3519 1772 
L 4513 1772 
L 4513 1294 
L 3397 1294 
L 3072 0 
L 2572 0 
L 2894 1294 
L 1978 1294 
L 1656 0 
L 1153 0 
L 1478 1294 
L 494 1294 
L 494 1772 
L 1594 1772 
L 1856 2816 
L 850 2816 
L 850 3297 
L 1978 3297 
L 2297 4594 
L 2803 4594 
z
" transform="scale(0.015625)"/>
       <path id="DejaVuSans-20" transform="scale(0.015625)"/>
       <path id="DejaVuSans-66" d="M 2375 4863 
L 2375 4384 
L 1825 4384 
Q 1516 4384 1395 4259 
Q 1275 4134 1275 3809 
L 1275 3500 
L 2222 3500 
L 2222 3053 
L 1275 3053 
L 1275 0 
L 697 0 
L 697 3053 
L 147 3053 
L 147 3500 
L 697 3500 
L 697 3744 
Q 697 4328 969 4595 
Q 1241 4863 1831 4863 
L 2375 4863 
z
" transform="scale(0.015625)"/>
       <path id="DejaVuSans-2d" d="M 313 2009 
L 1997 2009 
L 1997 1497 
L 313 1497 
L 313 2009 
z
" transform="scale(0.015625)"/>
       <path id="DejaVuSans-65" d="M 3597 1894 
L 3597 1613 
L 953 1613 
Q 991 1019 1311 708 
Q 1631 397 2203 397 
Q 2534 397 2845 478 
Q 3156 559 3463 722 
L 3463 178 
Q 3153 47 2828 -22 
Q 2503 -91 2169 -91 
Q 1331 -91 842 396 
Q 353 884 353 1716 
Q 353 2575 817 3079 
Q 1281 3584 2069 3584 
Q 2775 3584 3186 3129 
Q 3597 2675 3597 1894 
z
M 3022 2063 
Q 3016 2534 2758 2815 
Q 2500 3097 2075 3097 
Q 1594 3097 1305 2825 
Q 1016 2553 972 2059 
L 3022 2063 
z
" transform="scale(0.015625)"/>
       <path id="DejaVuSans-76" d="M 191 3500 
L 800 3500 
L 1894 563 
L 2988 3500 
L 3597 3500 
L 2284 0 
L 1503 0 
L 191 3500 
z
" transform="scale(0.015625)"/>
       <path id="DejaVuSans-61" d="M 2194 1759 
Q 1497 1759 1228 1600 
Q 959 1441 959 1056 
Q 959 750 1161 570 
Q 1363 391 1709 391 
Q 2188 391 2477 730 
Q 2766 1069 2766 1631 
L 2766 1759 
L 2194 1759 
z
M 3341 1997 
L 3341 0 
L 2766 0 
L 2766 531 
Q 2569 213 2275 61 
Q 1981 -91 1556 -91 
Q 1019 -91 701 211 
Q 384 513 384 1019 
Q 384 1609 779 1909 
Q 1175 2209 1959 2209 
L 2766 2209 
L 2766 2266 
Q 2766 2663 2505 2880 
Q 2244 3097 1772 3097 
Q 1472 3097 1187 3025 
Q 903 2953 641 2809 
L 641 3341 
Q 956 3463 1253 3523 
Q 1550 3584 1831 3584 
Q 2591 3584 2966 3190 
Q 3341 2797 3341 1997 
z
" transform="scale(0.015625)"/>
       <path id="DejaVuSans-73" d="M 2834 3397 
L 2834 2853 
Q 2591 2978 2328 3040 
Q 2066 3103 1784 3103 
Q 1356 3103 1142 2972 
Q 928 2841 928 2578 
Q 928 2378 1081 2264 
Q 1234 2150 1697 2047 
L 1894 2003 
Q 2506 1872 2764 1633 
Q 3022 1394 3022 966 
Q 3022 478 2636 193 
Q 2250 -91 1575 -91 
Q 1294 -91 989 -36 
Q 684 19 347 128 
L 347 722 
Q 666 556 975 473 
Q 1284 391 1588 391 
Q 1994 391 2212 530 
Q 2431 669 2431 922 
Q 2431 1156 2273 1281 
Q 2116 1406 1581 1522 
L 1381 1569 
Q 847 1681 609 1914 
Q 372 2147 372 2553 
Q 372 3047 722 3315 
Q 1072 3584 1716 3584 
Q 2034 3584 2315 3537 
Q 2597 3491 2834 3397 
z
" transform="scale(0.015625)"/>
       <path id="DejaVuSans-2f" d="M 1625 4666 
L 2156 4666 
L 531 -594 
L 0 -594 
L 1625 4666 
z
" transform="scale(0.015625)"/>
       <path id="DejaVuSans-64" d="M 2906 2969 
L 2906 4863 
L 3481 4863 
L 3481 0 
L 2906 0 
L 2906 525 
Q 2725 213 2448 61 
Q 2172 -91 1784 -91 
Q 1150 -91 751 415 
Q 353 922 353 1747 
Q 353 2572 751 3078 
Q 1150 3584 1784 3584 
Q 2172 3584 2448 3432 
Q 2725 3281 2906 2969 
z
M 947 1747 
Q 947 1113 1208 752 
Q 1469 391 1925 391 
Q 2381 391 2643 752 
Q 2906 1113 2906 1747 
Q 2906 2381 2643 2742 
Q 2381 3103 1925 3103 
Q 1469 3103 1208 2742 
Q 947 2381 947 1747 
z
" transform="scale(0.015625)"/>
       <path id="DejaVuSans-69" d="M 603 3500 
L 1178 3500 
L 1178 0 
L 603 0 
L 603 3500 
z
M 603 4863 
L 1178 4863 
L 1178 4134 
L 603 4134 
L 603 4863 
z
" transform="scale(0.015625)"/>
       <path id="DejaVuSans-6d" d="M 3328 2828 
Q 3544 3216 3844 3400 
Q 4144 3584 4550 3584 
Q 5097 3584 5394 3201 
Q 5691 2819 5691 2113 
L 5691 0 
L 5113 0 
L 5113 2094 
Q 5113 2597 4934 2840 
Q 4756 3084 4391 3084 
Q 3944 3084 3684 2787 
Q 3425 2491 3425 1978 
L 3425 0 
L 2847 0 
L 2847 2094 
Q 2847 2600 2669 2842 
Q 2491 3084 2119 3084 
Q 1678 3084 1418 2786 
Q 1159 2488 1159 1978 
L 1159 0 
L 581 0 
L 581 3500 
L 1159 3500 
L 1159 2956 
Q 1356 3278 1631 3431 
Q 1906 3584 2284 3584 
Q 2666 3584 2933 3390 
Q 3200 3197 3328 2828 
z
" transform="scale(0.015625)"/>
       <path id="DejaVuSans-6e" d="M 3513 2113 
L 3513 0 
L 2938 0 
L 2938 2094 
Q 2938 2591 2744 2837 
Q 2550 3084 2163 3084 
Q 1697 3084 1428 2787 
Q 1159 2491 1159 1978 
L 1159 0 
L 581 0 
L 581 3500 
L 1159 3500 
L 1159 2956 
Q 1366 3272 1645 3428 
Q 1925 3584 2291 3584 
Q 2894 3584 3203 3211 
Q 3513 2838 3513 2113 
z
" transform="scale(0.015625)"/>
       <path id="DejaVuSans-29" d="M 513 4856 
L 1013 4856 
Q 1481 4119 1714 3412 
Q 1947 2706 1947 2009 
Q 1947 1309 1714 600 
Q 1481 -109 1013 -844 
L 513 -844 
Q 928 -128 1133 580 
Q 1338 1288 1338 2009 
Q 1338 2731 1133 3434 
Q 928 4138 513 4856 
z
" transform="scale(0.015625)"/>
      </defs>
      <use xlink:href="#DejaVuSans-6c"/>
      <use xlink:href="#DejaVuSans-6f" x="27.783203"/>
      <use xlink:href="#DejaVuSans-67" x="88.964844"/>
      <use xlink:href="#DejaVuSans-31" x="152.441406"/>
      <use xlink:href="#DejaVuSans-30" x="216.064453"/>
      <use xlink:href="#DejaVuSans-28" x="279.6875"/>
      <use xlink:href="#DejaVuSans-23" x="318.701172"/>
      <use xlink:href="#DejaVuSans-20" x="402.490234"/>
      <use xlink:href="#DejaVuSans-66" x="434.277344"/>
      <use xlink:href="#DejaVuSans-2d" x="463.982422"/>
      <use xlink:href="#DejaVuSans-65" x="500.066406"/>
      <use xlink:href="#DejaVuSans-76" x="561.589844"/>
      <use xlink:href="#DejaVuSans-61" x="620.769531"/>
      <use xlink:href="#DejaVuSans-6c" x="682.048828"/>
      <use xlink:href="#DejaVuSans-73" x="709.832031"/>
      <use xlink:href="#DejaVuSans-20" x="761.931641"/>
      <use xlink:href="#DejaVuSans-2f" x="793.71875"/>
      <use xlink:href="#DejaVuSans-20" x="827.410156"/>
      <use xlink:href="#DejaVuSans-64" x="859.197266"/>
      <use xlink:href="#DejaVuSans-69" x="922.673828"/>
      <use xlink:href="#DejaVuSans-6d" x="950.457031"/>
      <use xlink:href="#DejaVuSans-65" x="1047.869141"/>
      <use xlink:href="#DejaVuSans-6e" x="1109.392578"/>
      <use xlink:href="#DejaVuSans-73" x="1172.771484"/>
      <use xlink:href="#DejaVuSans-69" x="1224.871094"/>
      <use xlink:href="#DejaVuSans-6f" x="1252.654297"/>
      <use xlink:href="#DejaVuSans-6e" x="1313.835938"/>
      <use xlink:href="#DejaVuSans-29" x="1377.214844"/>
     </g>
    </g>
   </g>
   <g id="matplotlib.axis_2">
    <g id="ytick_1">
     <g id="line2d_17">
      <path d="M 57.6 298.944 
L 360.8064 298.944 
" clip-path="url(#pb47bff31a2)" style="fill: none; stroke: #b0b0b0; stroke-width: 0.8; stroke-linecap: square"/>
     </g>
     <g id="line2d_18">
      <defs>
       <path id="m146d661a18" d="M 0 0 
L -3.5 0 
" style="stroke: #000000; stroke-width: 0.8"/>
      </defs>
      <g>
       <use xlink:href="#m146d661a18" x="57.6" y="298.944" style="stroke: #000000; stroke-width: 0.8"/>
      </g>
     </g>
     <g id="text_6">
      <!-- 0.0 -->
      <g transform="translate(25.155 305.02275)scale(0.16 -0.16)">
       <defs>
        <path id="DejaVuSans-2e" d="M 684 794 
L 1344 794 
L 1344 0 
L 684 0 
L 684 794 
z
" transform="scale(0.015625)"/>
       </defs>
       <use xlink:href="#DejaVuSans-30"/>
       <use xlink:href="#DejaVuSans-2e" x="63.623047"/>
       <use xlink:href="#DejaVuSans-30" x="95.410156"/>
      </g>
     </g>
    </g>
    <g id="ytick_2">
     <g id="line2d_19">
      <path d="M 57.6 240.5376 
L 360.8064 240.5376 
" clip-path="url(#pb47bff31a2)" style="fill: none; stroke: #b0b0b0; stroke-width: 0.8; stroke-linecap: square"/>
     </g>
     <g id="line2d_20">
      <g>
       <use xlink:href="#m146d661a18" x="57.6" y="240.5376" style="stroke: #000000; stroke-width: 0.8"/>
      </g>
     </g>
     <g id="text_7">
      <!-- 0.2 -->
      <g transform="translate(25.155 246.61635)scale(0.16 -0.16)">
       <use xlink:href="#DejaVuSans-30"/>
       <use xlink:href="#DejaVuSans-2e" x="63.623047"/>
       <use xlink:href="#DejaVuSans-32" x="95.410156"/>
      </g>
     </g>
    </g>
    <g id="ytick_3">
     <g id="line2d_21">
      <path d="M 57.6 182.1312 
L 360.8064 182.1312 
" clip-path="url(#pb47bff31a2)" style="fill: none; stroke: #b0b0b0; stroke-width: 0.8; stroke-linecap: square"/>
     </g>
     <g id="line2d_22">
      <g>
       <use xlink:href="#m146d661a18" x="57.6" y="182.1312" style="stroke: #000000; stroke-width: 0.8"/>
      </g>
     </g>
     <g id="text_8">
      <!-- 0.4 -->
      <g transform="translate(25.155 188.20995)scale(0.16 -0.16)">
       <use xlink:href="#DejaVuSans-30"/>
       <use xlink:href="#DejaVuSans-2e" x="63.623047"/>
       <use xlink:href="#DejaVuSans-34" x="95.410156"/>
      </g>
     </g>
    </g>
    <g id="ytick_4">
     <g id="line2d_23">
      <path d="M 57.6 123.7248 
L 360.8064 123.7248 
" clip-path="url(#pb47bff31a2)" style="fill: none; stroke: #b0b0b0; stroke-width: 0.8; stroke-linecap: square"/>
     </g>
     <g id="line2d_24">
      <g>
       <use xlink:href="#m146d661a18" x="57.6" y="123.7248" style="stroke: #000000; stroke-width: 0.8"/>
      </g>
     </g>
     <g id="text_9">
      <!-- 0.6 -->
      <g transform="translate(25.155 129.80355)scale(0.16 -0.16)">
       <use xlink:href="#DejaVuSans-30"/>
       <use xlink:href="#DejaVuSans-2e" x="63.623047"/>
       <use xlink:href="#DejaVuSans-36" x="95.410156"/>
      </g>
     </g>
    </g>
    <g id="ytick_5">
     <g id="line2d_25">
      <path d="M 57.6 65.3184 
L 360.8064 65.3184 
" clip-path="url(#pb47bff31a2)" style="fill: none; stroke: #b0b0b0; stroke-width: 0.8; stroke-linecap: square"/>
     </g>
     <g id="line2d_26">
      <g>
       <use xlink:href="#m146d661a18" x="57.6" y="65.3184" style="stroke: #000000; stroke-width: 0.8"/>
      </g>
     </g>
     <g id="text_10">
      <!-- 0.8 -->
      <g transform="translate(25.155 71.39715)scale(0.16 -0.16)">
       <defs>
        <path id="DejaVuSans-38" d="M 2034 2216 
Q 1584 2216 1326 1975 
Q 1069 1734 1069 1313 
Q 1069 891 1326 650 
Q 1584 409 2034 409 
Q 2484 409 2743 651 
Q 3003 894 3003 1313 
Q 3003 1734 2745 1975 
Q 2488 2216 2034 2216 
z
M 1403 2484 
Q 997 2584 770 2862 
Q 544 3141 544 3541 
Q 544 4100 942 4425 
Q 1341 4750 2034 4750 
Q 2731 4750 3128 4425 
Q 3525 4100 3525 3541 
Q 3525 3141 3298 2862 
Q 3072 2584 2669 2484 
Q 3125 2378 3379 2068 
Q 3634 1759 3634 1313 
Q 3634 634 3220 271 
Q 2806 -91 2034 -91 
Q 1263 -91 848 271 
Q 434 634 434 1313 
Q 434 1759 690 2068 
Q 947 2378 1403 2484 
z
M 1172 3481 
Q 1172 3119 1398 2916 
Q 1625 2713 2034 2713 
Q 2441 2713 2670 2916 
Q 2900 3119 2900 3481 
Q 2900 3844 2670 4047 
Q 2441 4250 2034 4250 
Q 1625 4250 1398 4047 
Q 1172 3844 1172 3481 
z
" transform="scale(0.015625)"/>
       </defs>
       <use xlink:href="#DejaVuSans-30"/>
       <use xlink:href="#DejaVuSans-2e" x="63.623047"/>
       <use xlink:href="#DejaVuSans-38" x="95.410156"/>
      </g>
     </g>
    </g>
    <g id="ytick_6">
     <g id="line2d_27">
      <path d="M 57.6 6.912 
L 360.8064 6.912 
" clip-path="url(#pb47bff31a2)" style="fill: none; stroke: #b0b0b0; stroke-width: 0.8; stroke-linecap: square"/>
     </g>
     <g id="line2d_28">
      <g>
       <use xlink:href="#m146d661a18" x="57.6" y="6.912" style="stroke: #000000; stroke-width: 0.8"/>
      </g>
     </g>
     <g id="text_11">
      <!-- 1.0 -->
      <g transform="translate(25.155 12.99075)scale(0.16 -0.16)">
       <use xlink:href="#DejaVuSans-31"/>
       <use xlink:href="#DejaVuSans-2e" x="63.623047"/>
       <use xlink:href="#DejaVuSans-30" x="95.410156"/>
      </g>
     </g>
    </g>
    <g id="text_12">
     <!-- Fraction of function,target pairs -->
     <g transform="translate(17.619531 287.313)rotate(-90)scale(0.17 -0.17)">
      <defs>
       <path id="DejaVuSans-46" d="M 628 4666 
L 3309 4666 
L 3309 4134 
L 1259 4134 
L 1259 2759 
L 3109 2759 
L 3109 2228 
L 1259 2228 
L 1259 0 
L 628 0 
L 628 4666 
z
" transform="scale(0.015625)"/>
       <path id="DejaVuSans-72" d="M 2631 2963 
Q 2534 3019 2420 3045 
Q 2306 3072 2169 3072 
Q 1681 3072 1420 2755 
Q 1159 2438 1159 1844 
L 1159 0 
L 581 0 
L 581 3500 
L 1159 3500 
L 1159 2956 
Q 1341 3275 1631 3429 
Q 1922 3584 2338 3584 
Q 2397 3584 2469 3576 
Q 2541 3569 2628 3553 
L 2631 2963 
z
" transform="scale(0.015625)"/>
       <path id="DejaVuSans-63" d="M 3122 3366 
L 3122 2828 
Q 2878 2963 2633 3030 
Q 2388 3097 2138 3097 
Q 1578 3097 1268 2742 
Q 959 2388 959 1747 
Q 959 1106 1268 751 
Q 1578 397 2138 397 
Q 2388 397 2633 464 
Q 2878 531 3122 666 
L 3122 134 
Q 2881 22 2623 -34 
Q 2366 -91 2075 -91 
Q 1284 -91 818 406 
Q 353 903 353 1747 
Q 353 2603 823 3093 
Q 1294 3584 2113 3584 
Q 2378 3584 2631 3529 
Q 2884 3475 3122 3366 
z
" transform="scale(0.015625)"/>
       <path id="DejaVuSans-74" d="M 1172 4494 
L 1172 3500 
L 2356 3500 
L 2356 3053 
L 1172 3053 
L 1172 1153 
Q 1172 725 1289 603 
Q 1406 481 1766 481 
L 2356 481 
L 2356 0 
L 1766 0 
Q 1100 0 847 248 
Q 594 497 594 1153 
L 594 3053 
L 172 3053 
L 172 3500 
L 594 3500 
L 594 4494 
L 1172 4494 
z
" transform="scale(0.015625)"/>
       <path id="DejaVuSans-75" d="M 544 1381 
L 544 3500 
L 1119 3500 
L 1119 1403 
Q 1119 906 1312 657 
Q 1506 409 1894 409 
Q 2359 409 2629 706 
Q 2900 1003 2900 1516 
L 2900 3500 
L 3475 3500 
L 3475 0 
L 2900 0 
L 2900 538 
Q 2691 219 2414 64 
Q 2138 -91 1772 -91 
Q 1169 -91 856 284 
Q 544 659 544 1381 
z
M 1991 3584 
L 1991 3584 
z
" transform="scale(0.015625)"/>
       <path id="DejaVuSans-2c" d="M 750 794 
L 1409 794 
L 1409 256 
L 897 -744 
L 494 -744 
L 750 256 
L 750 794 
z
" transform="scale(0.015625)"/>
       <path id="DejaVuSans-70" d="M 1159 525 
L 1159 -1331 
L 581 -1331 
L 581 3500 
L 1159 3500 
L 1159 2969 
Q 1341 3281 1617 3432 
Q 1894 3584 2278 3584 
Q 2916 3584 3314 3078 
Q 3713 2572 3713 1747 
Q 3713 922 3314 415 
Q 2916 -91 2278 -91 
Q 1894 -91 1617 61 
Q 1341 213 1159 525 
z
M 3116 1747 
Q 3116 2381 2855 2742 
Q 2594 3103 2138 3103 
Q 1681 3103 1420 2742 
Q 1159 2381 1159 1747 
Q 1159 1113 1420 752 
Q 1681 391 2138 391 
Q 2594 391 2855 752 
Q 3116 1113 3116 1747 
z
" transform="scale(0.015625)"/>
      </defs>
      <use xlink:href="#DejaVuSans-46"/>
      <use xlink:href="#DejaVuSans-72" x="50.269531"/>
      <use xlink:href="#DejaVuSans-61" x="91.382812"/>
      <use xlink:href="#DejaVuSans-63" x="152.662109"/>
      <use xlink:href="#DejaVuSans-74" x="207.642578"/>
      <use xlink:href="#DejaVuSans-69" x="246.851562"/>
      <use xlink:href="#DejaVuSans-6f" x="274.634766"/>
      <use xlink:href="#DejaVuSans-6e" x="335.816406"/>
      <use xlink:href="#DejaVuSans-20" x="399.195312"/>
      <use xlink:href="#DejaVuSans-6f" x="430.982422"/>
      <use xlink:href="#DejaVuSans-66" x="492.164062"/>
      <use xlink:href="#DejaVuSans-20" x="527.369141"/>
      <use xlink:href="#DejaVuSans-66" x="559.15625"/>
      <use xlink:href="#DejaVuSans-75" x="594.361328"/>
      <use xlink:href="#DejaVuSans-6e" x="657.740234"/>
      <use xlink:href="#DejaVuSans-63" x="721.119141"/>
      <use xlink:href="#DejaVuSans-74" x="776.099609"/>
      <use xlink:href="#DejaVuSans-69" x="815.308594"/>
      <use xlink:href="#DejaVuSans-6f" x="843.091797"/>
      <use xlink:href="#DejaVuSans-6e" x="904.273438"/>
      <use xlink:href="#DejaVuSans-2c" x="967.652344"/>
      <use xlink:href="#DejaVuSans-74" x="999.439453"/>
      <use xlink:href="#DejaVuSans-61" x="1038.648438"/>
      <use xlink:href="#DejaVuSans-72" x="1099.927734"/>
      <use xlink:href="#DejaVuSans-67" x="1139.291016"/>
      <use xlink:href="#DejaVuSans-65" x="1202.767578"/>
      <use xlink:href="#DejaVuSans-74" x="1264.291016"/>
      <use xlink:href="#DejaVuSans-20" x="1303.5"/>
      <use xlink:href="#DejaVuSans-70" x="1335.287109"/>
      <use xlink:href="#DejaVuSans-61" x="1398.763672"/>
      <use xlink:href="#DejaVuSans-69" x="1460.042969"/>
      <use xlink:href="#DejaVuSans-72" x="1487.826172"/>
      <use xlink:href="#DejaVuSans-73" x="1528.939453"/>
     </g>
    </g>
   </g>
   <g id="line2d_29">
    <defs>
     <path id="mc919b5f78d" d="M 0 1.5 
C 0.397805 1.5 0.77937 1.341951 1.06066 1.06066 
C 1.341951 0.77937 1.5 0.397805 1.5 0 
C 1.5 -0.397805 1.341951 -0.77937 1.06066 -1.06066 
C 0.77937 -1.341951 0.397805 -1.5 0 -1.5 
C -0.397805 -1.5 -0.77937 -1.341951 -1.06066 -1.06066 
C -1.341951 -0.77937 -1.5 -0.397805 -1.5 0 
C -1.5 0.397805 -1.341951 0.77937 -1.06066 1.06066 
C -0.77937 1.341951 -0.397805 1.5 0 1.5 
z
" style="stroke: #00bfbf"/>
    </defs>
    <g>
     <use xlink:href="#mc919b5f78d" x="204.891243" y="175.082152" style="fill: #00bfbf; stroke: #00bfbf"/>
     <use xlink:href="#mc919b5f78d" x="204.891243" y="175.082152" style="fill: #00bfbf; stroke: #00bfbf"/>
    </g>
   </g>
   <g id="line2d_30">
    <path d="M 44.560826 298.944 
L 44.560826 285.517241 
L 57.6 285.517241 
L 57.6 285.349407 
L 65.227428 285.349407 
L 65.227428 284.845903 
L 70.639174 284.845903 
L 70.639174 284.006731 
L 74.836851 284.006731 
L 74.836851 283.838897 
L 81.166416 283.838897 
L 81.166416 283.503228 
L 83.678349 283.503228 
L 83.678349 281.657048 
L 85.894031 281.657048 
L 85.894031 279.810869 
L 87.876026 279.810869 
L 87.876026 278.803862 
L 89.668958 278.803862 
L 89.668958 278.300359 
L 91.305777 278.300359 
L 91.305777 277.293352 
L 92.811505 277.293352 
L 92.811505 276.957683 
L 94.205591 276.957683 
L 94.205591 276.789848 
L 96.717523 276.789848 
L 96.717523 276.622014 
L 97.857967 276.622014 
L 97.857967 275.447172 
L 100.9152 275.447172 
L 100.9152 274.943669 
L 101.833019 274.943669 
L 101.833019 274.104497 
L 102.708132 274.104497 
L 102.708132 273.600993 
L 103.544339 273.600993 
L 103.544339 272.929655 
L 104.344952 272.929655 
L 104.344952 272.090483 
L 105.112877 272.090483 
L 105.112877 271.419145 
L 106.560633 271.419145 
L 106.560633 271.25131 
L 107.244765 271.25131 
L 107.244765 270.579972 
L 107.904887 270.579972 
L 107.904887 269.7408 
L 109.159456 269.7408 
L 109.159456 269.405131 
L 110.335561 269.405131 
L 110.335561 269.069462 
L 111.442442 269.069462 
L 111.442442 267.894621 
L 112.487797 267.894621 
L 112.487797 267.726786 
L 112.989468 267.726786 
L 112.989468 267.558952 
L 113.478107 267.558952 
L 113.478107 267.391117 
L 115.314838 267.391117 
L 115.314838 266.887614 
L 115.747307 266.887614 
L 115.747307 266.38411 
L 116.170056 266.38411 
L 116.170056 265.880607 
L 116.988079 265.880607 
L 116.988079 265.544938 
L 118.889854 265.544938 
L 118.889854 265.209269 
L 119.24818 265.209269 
L 119.24818 264.705766 
L 119.944983 264.705766 
L 119.944983 264.370097 
L 120.28394 264.370097 
L 120.28394 264.034428 
L 121.581803 264.034428 
L 121.581803 263.698759 
L 121.892744 263.698759 
L 121.892744 263.195255 
L 122.19863 263.195255 
L 122.19863 262.859586 
L 123.08753 262.859586 
L 123.08753 262.188248 
L 123.374735 262.188248 
L 123.374735 262.020414 
L 123.936316 262.020414 
L 123.936316 260.845572 
L 124.481616 260.845572 
L 124.481616 260.677738 
L 125.011554 260.677738 
L 125.011554 260.509903 
L 125.779479 260.509903 
L 125.779479 260.0064 
L 126.028642 260.0064 
L 126.028642 259.670731 
L 126.274549 259.670731 
L 126.274549 259.335062 
L 127.227236 259.335062 
L 127.227236 258.831559 
L 127.686077 258.831559 
L 127.686077 258.49589 
L 128.133992 258.49589 
L 128.133992 258.328055 
L 128.354013 258.328055 
L 128.354013 257.488883 
L 128.57149 257.488883 
L 128.57149 257.321048 
L 129.209231 257.321048 
L 129.209231 257.153214 
L 129.622688 257.153214 
L 129.622688 256.817545 
L 129.826058 256.817545 
L 129.826058 256.481876 
L 131.002163 256.481876 
L 131.002163 255.1392 
L 131.191226 255.1392 
L 131.191226 254.971366 
L 131.929028 254.971366 
L 131.929028 254.803531 
L 132.109044 254.803531 
L 132.109044 253.796524 
L 132.638982 253.796524 
L 132.638982 253.460855 
L 133.490329 253.460855 
L 133.490329 253.125186 
L 133.656071 253.125186 
L 133.656071 252.957352 
L 133.820365 252.957352 
L 133.820365 252.789517 
L 134.304809 252.789517 
L 134.304809 252.621683 
L 134.463557 252.621683 
L 134.463557 252.286014 
L 134.931919 252.286014 
L 134.931919 251.78251 
L 135.085483 251.78251 
L 135.085483 251.446841 
L 135.981441 251.446841 
L 135.981441 251.111172 
L 136.555884 251.111172 
L 136.555884 250.943338 
L 137.520791 250.943338 
L 137.520791 250.607669 
L 137.654681 250.607669 
L 137.654681 250.272 
L 138.566146 250.272 
L 138.566146 250.104166 
L 138.943648 250.104166 
L 138.943648 249.936331 
L 139.067817 249.936331 
L 139.067817 249.768497 
L 139.191172 249.768497 
L 139.191172 249.600662 
L 139.313723 249.600662 
L 139.313723 249.097159 
L 139.435481 249.097159 
L 139.435481 248.593655 
L 139.914782 248.593655 
L 139.914782 247.922317 
L 140.032723 247.922317 
L 140.032723 247.754483 
L 142.45627 247.754483 
L 142.45627 246.747476 
L 142.966099 246.747476 
L 142.966099 246.579641 
L 143.166224 246.579641 
L 143.166224 246.076138 
L 143.462475 246.076138 
L 143.560197 245.572634 
L 143.754133 245.572634 
L 143.754133 245.4048 
L 144.2304 245.4048 
L 144.324223 244.901297 
L 144.510478 244.901297 
L 144.602918 243.726455 
L 144.694906 243.726455 
L 144.694906 243.558621 
L 144.968202 243.558621 
L 144.968202 242.887283 
L 145.148219 242.887283 
L 145.148219 242.719448 
L 145.326529 242.719448 
L 145.326529 242.215945 
L 145.503164 242.215945 
L 145.503164 242.04811 
L 146.023332 242.04811 
L 146.108646 241.041103 
L 146.193574 241.041103 
L 146.27812 240.5376 
L 146.362288 240.5376 
L 146.446082 240.034097 
L 146.612557 240.034097 
L 146.612557 239.866262 
L 146.777571 239.866262 
L 146.859539 239.194924 
L 146.941151 239.194924 
L 146.941151 239.02709 
L 147.103321 239.02709 
L 147.103321 238.859255 
L 147.264104 238.859255 
L 147.264104 238.355752 
L 147.502732 238.355752 
L 147.502732 237.852248 
L 147.971093 237.852248 
L 147.971093 237.684414 
L 148.428077 237.684414 
L 148.428077 237.516579 
L 148.800595 237.516579 
L 148.874221 236.845241 
L 149.020615 236.845241 
L 149.093387 236.509572 
L 149.381693 236.509572 
L 149.381693 236.341738 
L 149.595059 236.341738 
L 149.665646 235.6704 
L 149.73597 235.6704 
L 149.73597 235.334731 
L 150.425115 235.334731 
L 150.425115 235.166897 
L 150.559965 235.166897 
L 150.559965 234.831228 
L 151.220087 234.831228 
L 151.220087 234.495559 
L 151.349377 234.495559 
L 151.349377 234.327724 
L 151.982822 234.327724 
L 151.982822 234.15989 
L 152.16877 234.15989 
L 152.16877 233.992055 
L 152.413875 233.992055 
L 152.413875 233.824221 
L 152.595631 233.824221 
L 152.655828 233.320717 
L 152.715833 233.320717 
L 152.775647 232.817214 
L 153.071898 232.817214 
L 153.071898 232.481545 
L 153.536404 232.481545 
L 153.536404 231.306703 
L 153.707679 231.306703 
L 153.707679 231.138869 
L 153.821002 231.138869 
L 153.877408 230.467531 
L 154.267588 230.467531 
L 154.267588 230.299697 
L 154.486967 230.299697 
L 154.541415 229.964028 
L 154.971412 229.964028 
L 155.077392 229.460524 
L 155.18278 229.460524 
L 155.18278 229.29269 
L 155.495444 229.29269 
L 155.495444 229.124855 
L 155.649849 229.124855 
L 155.649849 228.957021 
L 156.255099 228.957021 
L 156.255099 228.789186 
L 157.080512 228.789186 
L 157.080512 228.453517 
L 157.269574 228.453517 
L 157.316545 227.950014 
L 157.410135 227.950014 
L 157.410135 227.782179 
L 157.595929 227.782179 
L 157.688143 227.278676 
L 157.825621 227.278676 
L 157.825621 226.943007 
L 158.321284 226.943007 
L 158.321284 226.607338 
L 158.58624 226.607338 
L 158.58624 226.439503 
L 158.760826 226.439503 
L 158.760826 226.271669 
L 159.190332 226.271669 
L 159.190332 226.103834 
L 159.401463 226.103834 
L 159.401463 225.936 
L 159.61025 225.936 
L 159.651731 225.432497 
L 160.061585 225.432497 
L 160.061585 225.096828 
L 160.4627 225.096828 
L 160.4627 224.928993 
L 160.738476 224.928993 
L 160.738476 224.42549 
L 160.855439 224.42549 
L 160.933013 224.089821 
L 161.087207 224.089821 
L 161.125559 223.418483 
L 161.316153 223.418483 
L 161.316153 223.250648 
L 161.579783 223.250648 
L 161.579783 222.914979 
L 161.691646 222.914979 
L 161.765853 222.411476 
L 162.096211 222.411476 
L 162.096211 222.243641 
L 162.59884 222.243641 
L 162.66956 221.236634 
L 162.880139 221.236634 
L 162.880139 220.900966 
L 163.019227 220.900966 
L 163.122872 220.565297 
L 163.3965 220.565297 
L 163.3965 220.229628 
L 163.73303 220.229628 
L 163.766354 219.222621 
L 163.96507 219.222621 
L 163.997986 218.551283 
L 164.09639 218.551283 
L 164.09639 218.215614 
L 164.324018 218.215614 
L 164.324018 218.047779 
L 164.548924 218.047779 
L 164.548924 217.71211 
L 164.739583 217.71211 
L 164.802709 217.376441 
L 165.330896 217.376441 
L 165.330896 217.208607 
L 166.257466 217.208607 
L 166.257466 217.040772 
L 166.373767 217.040772 
L 166.431649 216.369434 
L 166.546881 216.369434 
L 166.546881 216.033766 
L 167.196106 216.033766 
L 167.196106 215.865931 
L 167.526142 215.865931 
L 167.526142 215.530262 
L 167.661966 215.530262 
L 167.661966 215.362428 
L 167.957371 215.362428 
L 168.010586 214.858924 
L 168.142969 214.858924 
L 168.142969 214.69109 
L 168.842171 214.69109 
L 168.842171 214.355421 
L 169.119745 214.355421 
L 169.119745 214.019752 
L 169.244573 214.019752 
L 169.269439 213.348414 
L 169.491772 213.348414 
L 169.491772 213.180579 
L 170.167131 213.180579 
L 170.190808 212.84491 
L 170.542436 212.84491 
L 170.635104 212.173572 
L 170.727317 212.173572 
L 170.819081 211.166566 
L 170.9104 211.166566 
L 170.9104 210.998731 
L 171.136775 210.998731 
L 171.136775 210.830897 
L 171.315934 210.830897 
L 171.315934 210.663062 
L 171.427048 210.663062 
L 171.427048 210.495228 
L 172.85592 210.495228 
L 172.85592 210.159559 
L 173.161475 210.159559 
L 173.201843 209.656055 
L 173.462145 209.656055 
L 173.48202 209.320386 
L 173.952824 209.320386 
L 173.952824 209.152552 
L 174.087951 209.152552 
L 174.164733 207.97771 
L 174.222115 207.97771 
L 174.222115 207.809876 
L 174.674972 207.809876 
L 174.674972 207.642041 
L 174.786503 207.642041 
L 174.786503 207.306372 
L 174.915793 207.306372 
L 174.934191 206.802869 
L 175.062472 206.802869 
L 175.062472 206.131531 
L 175.988986 206.131531 
L 176.041072 205.795862 
L 176.162047 205.795862 
L 176.265124 205.460193 
L 177.249723 205.460193 
L 177.282212 204.788855 
L 177.363192 204.788855 
L 177.363192 204.285352 
L 177.60406 204.285352 
L 177.60406 203.949683 
L 178.076737 203.949683 
L 178.076737 203.781848 
L 178.262532 203.781848 
L 178.262532 203.446179 
L 178.583321 203.446179 
L 178.6589 202.774841 
L 178.749196 202.774841 
L 178.794182 202.271338 
L 179.23822 202.271338 
L 179.23822 202.103503 
L 179.557313 202.103503 
L 179.557313 201.767834 
L 179.814423 201.767834 
L 179.814423 201.432166 
L 180.096038 201.432166 
L 180.096038 201.264331 
L 180.221402 201.264331 
L 180.249148 200.760828 
L 180.660496 200.760828 
L 180.660496 200.425159 
L 181.102826 200.425159 
L 181.195331 199.753821 
L 181.234837 199.753821 
L 181.234837 199.418152 
L 181.881346 199.418152 
L 181.881346 199.250317 
L 182.333448 199.250317 
L 182.333448 199.082483 
L 182.919829 199.082483 
L 182.991858 198.578979 
L 183.24181 198.578979 
L 183.336163 197.907641 
L 183.50015 197.907641 
L 183.546742 197.404138 
L 184.175949 197.404138 
L 184.175949 197.068469 
L 184.642651 197.068469 
L 184.697447 196.397131 
L 184.95827 196.397131 
L 184.95827 195.557959 
L 185.183561 195.557959 
L 185.289901 195.22229 
L 185.563605 195.22229 
L 185.563605 195.054455 
L 186.068851 195.054455 
L 186.068851 194.718786 
L 186.261169 194.718786 
L 186.261169 194.550952 
L 186.748259 194.550952 
L 186.748259 194.383117 
L 186.875397 194.383117 
L 186.943502 193.879614 
L 187.318496 193.879614 
L 187.318496 193.711779 
L 187.555003 193.711779 
L 187.555003 193.208276 
L 187.676822 193.208276 
L 187.676822 193.040441 
L 187.825678 193.040441 
L 187.825678 192.704772 
L 187.991745 192.704772 
L 187.991745 192.369103 
L 188.183654 192.369103 
L 188.183654 192.201269 
L 188.391619 192.201269 
L 188.391619 191.8656 
L 189.0629 191.8656 
L 189.0629 191.697766 
L 189.192606 191.697766 
L 189.25283 191.362097 
L 189.457863 191.362097 
L 189.508774 190.690759 
L 189.652278 190.690759 
L 189.652278 190.35509 
L 190.491043 190.35509 
L 190.491043 190.019421 
L 190.603304 190.019421 
L 190.691041 189.515917 
L 191.193549 189.515917 
L 191.193549 189.348083 
L 191.370909 189.348083 
L 191.470421 188.844579 
L 191.508555 188.844579 
L 191.531398 188.341076 
L 192.437618 188.341076 
L 192.437618 188.173241 
L 192.682582 188.173241 
L 192.682582 187.501903 
L 192.846503 187.501903 
L 192.846503 187.334069 
L 193.30218 187.334069 
L 193.385111 186.830566 
L 193.481405 186.830566 
L 193.577208 186.327062 
L 193.888597 186.327062 
L 193.968988 185.655724 
L 194.300303 185.655724 
L 194.300303 185.320055 
L 195.185565 185.320055 
L 195.185565 185.152221 
L 195.625295 185.152221 
L 195.643651 184.816552 
L 196.054981 184.816552 
L 196.102787 184.313048 
L 196.180213 184.313048 
L 196.180213 183.977379 
L 196.32822 183.977379 
L 196.32822 183.64171 
L 196.562635 183.64171 
L 196.562635 183.138207 
L 196.782655 183.138207 
L 196.782655 182.802538 
L 196.926015 182.802538 
L 196.926015 182.634703 
L 197.410992 182.634703 
L 197.410992 182.466869 
L 197.7202 182.466869 
L 197.7202 182.299034 
L 197.954224 182.299034 
L 197.954224 182.1312 
L 198.067466 182.1312 
L 198.078216 181.459862 
L 198.476949 181.459862 
L 198.476949 181.292028 
L 198.789961 181.292028 
L 198.805475 180.956359 
L 199.163899 180.956359 
L 199.244874 180.62069 
L 199.330531 180.62069 
L 199.330531 180.285021 
L 199.545465 180.285021 
L 199.545465 180.117186 
L 199.767797 180.117186 
L 199.767797 179.949352 
L 200.252658 179.949352 
L 200.252658 179.781517 
L 200.428935 179.781517 
L 200.438417 179.278014 
L 200.957293 179.278014 
L 200.957293 179.110179 
L 201.327098 179.110179 
L 201.327098 178.942345 
L 201.632036 178.942345 
L 201.685339 178.103172 
L 202.145409 178.103172 
L 202.149737 177.599669 
L 202.867223 177.599669 
L 202.867223 177.431834 
L 203.049619 177.431834 
L 203.049619 177.096166 
L 203.185265 177.096166 
L 203.185265 176.928331 
L 203.364619 176.928331 
L 203.469802 176.592662 
L 203.754072 176.592662 
L 203.853154 176.256993 
L 204.135627 176.256993 
L 204.135627 175.921324 
L 204.501959 175.921324 
L 204.532485 175.249986 
L 204.891243 175.249986 
L 204.891243 175.082152 
L 360.8064 175.082152 
L 360.8064 175.082152 
" style="fill: none; stroke: #00bfbf; stroke-width: 1.5; stroke-linecap: square"/>
   </g>
   <g id="line2d_31">
    <defs>
     <path id="m6d5d9b6356" d="M -6 0 
L 6 0 
M 0 6 
L 0 -6 
" style="stroke: #00bfbf; stroke-width: 1.5"/>
    </defs>
    <g>
     <use xlink:href="#m6d5d9b6356" x="132.109044" y="254.803531" style="fill-opacity: 0; stroke: #00bfbf; stroke-width: 1.5"/>
     <use xlink:href="#m6d5d9b6356" x="176.162047" y="205.795862" style="fill-opacity: 0; stroke: #00bfbf; stroke-width: 1.5"/>
     <use xlink:href="#m6d5d9b6356" x="204.891243" y="175.249986" style="fill-opacity: 0; stroke: #00bfbf; stroke-width: 1.5"/>
     <use xlink:href="#m6d5d9b6356" x="204.891243" y="175.082152" style="fill-opacity: 0; stroke: #00bfbf; stroke-width: 1.5"/>
     <use xlink:href="#m6d5d9b6356" x="204.891243" y="175.082152" style="fill-opacity: 0; stroke: #00bfbf; stroke-width: 1.5"/>
     <use xlink:href="#m6d5d9b6356" x="360.8064" y="175.082152" style="fill-opacity: 0; stroke: #00bfbf; stroke-width: 1.5"/>
    </g>
   </g>
   <g id="line2d_32">
    <path style="fill: none; stroke: #00bfbf; stroke-width: 1.5; stroke-linecap: square"/>
    <g/>
   </g>
   <g id="line2d_33">
    <path d="M 205.158657 175.082152 
" clip-path="url(#pb47bff31a2)" style="fill: none; stroke: #00bfbf; stroke-width: 1.5; stroke-linecap: square"/>
    <defs>
     <path id="m9f02b88644" d="M -12 12 
L 12 -12 
M -12 -12 
L 12 12 
" style="stroke: #00bfbf"/>
    </defs>
    <g clip-path="url(#pb47bff31a2)">
     <use xlink:href="#m9f02b88644" x="205.158657" y="175.082152" style="fill: #00bfbf; stroke: #00bfbf"/>
    </g>
   </g>
   <g id="line2d_34">
    <defs>
     <path id="m06513c38f7" d="M 0 1.5 
C 0.397805 1.5 0.77937 1.341951 1.06066 1.06066 
C 1.341951 0.77937 1.5 0.397805 1.5 0 
C 1.5 -0.397805 1.341951 -0.77937 1.06066 -1.06066 
C 0.77937 -1.341951 0.397805 -1.5 0 -1.5 
C -0.397805 -1.5 -0.77937 -1.341951 -1.06066 -1.06066 
C -1.341951 -0.77937 -1.5 -0.397805 -1.5 0 
C -1.5 0.397805 -1.341951 0.77937 -1.06066 1.06066 
C -0.77937 1.341951 -0.397805 1.5 0 1.5 
z
" style="stroke: #008000"/>
    </defs>
    <g>
     <use xlink:href="#m06513c38f7" x="197.316111" y="212.173572" style="fill: #008000; stroke: #008000"/>
     <use xlink:href="#m06513c38f7" x="197.316111" y="212.173572" style="fill: #008000; stroke: #008000"/>
    </g>
   </g>
   <g id="line2d_35">
    <path d="M 36.933397 298.944 
L 36.933397 289.041766 
L 57.6 289.041766 
L 57.6 288.538262 
L 63.011746 288.538262 
L 63.011746 288.034759 
L 67.209423 288.034759 
L 67.209423 287.531255 
L 70.639174 287.531255 
L 70.639174 285.517241 
L 73.538988 285.517241 
L 73.538988 285.013738 
L 76.050921 285.013738 
L 76.050921 284.678069 
L 78.266603 284.678069 
L 78.266603 284.510234 
L 80.248597 284.510234 
L 80.248597 284.3424 
L 82.04153 284.3424 
L 82.04153 283.838897 
L 83.678349 283.838897 
L 83.678349 283.503228 
L 86.578163 283.503228 
L 86.578163 282.83189 
L 87.876026 282.83189 
L 87.876026 282.496221 
L 91.305777 282.496221 
L 91.305777 282.160552 
L 93.287772 282.160552 
L 93.287772 281.489214 
L 94.205591 281.489214 
L 94.205591 281.321379 
L 96.717523 281.321379 
L 96.717523 280.98571 
L 97.485448 280.98571 
L 97.485448 280.650041 
L 98.223251 280.650041 
L 98.223251 279.643034 
L 101.532027 279.643034 
L 101.532027 279.139531 
L 102.12927 279.139531 
L 102.12927 278.971697 
L 102.708132 278.971697 
L 102.708132 278.803862 
L 103.269713 278.803862 
L 103.269713 278.636028 
L 104.344952 278.636028 
L 104.344952 277.96469 
L 104.860369 277.96469 
L 104.860369 277.796855 
L 105.36204 277.796855 
L 105.36204 277.629021 
L 106.326946 277.629021 
L 106.326946 277.293352 
L 106.791453 277.293352 
L 106.791453 277.125517 
L 108.119879 277.125517 
L 108.119879 276.789848 
L 108.542628 276.789848 
L 108.542628 276.454179 
L 109.756698 276.454179 
L 109.756698 276.286345 
L 111.262425 276.286345 
L 111.262425 275.111503 
L 111.97238 275.111503 
L 111.97238 274.943669 
L 112.317555 274.943669 
L 112.317555 274.608 
L 113.316634 274.608 
L 113.316634 273.936662 
L 113.954374 273.936662 
L 113.954374 273.600993 
L 114.571202 273.600993 
L 114.571202 273.265324 
L 114.872193 273.265324 
L 114.872193 272.426152 
L 115.168444 272.426152 
L 115.168444 272.090483 
L 118.889854 272.090483 
L 118.889854 271.922648 
L 120.058649 271.922648 
L 120.058649 271.586979 
L 120.506564 271.586979 
L 120.506564 271.25131 
L 121.159053 271.25131 
L 121.159053 271.083476 
L 121.371615 271.083476 
L 121.371615 270.915641 
L 121.581803 270.915641 
L 121.581803 269.908634 
L 123.374735 269.908634 
L 123.374735 269.572966 
L 123.563797 269.572966 
L 123.563797 269.405131 
L 124.659926 269.405131 
L 124.659926 269.069462 
L 125.011554 269.069462 
L 125.011554 268.901628 
L 126.677381 268.901628 
L 126.677381 268.565959 
L 126.993549 268.565959 
L 126.993549 268.23029 
L 127.149662 268.23029 
L 127.149662 267.894621 
L 131.563744 267.894621 
L 131.563744 267.391117 
L 132.522502 267.391117 
L 132.522502 266.887614 
L 132.754746 266.887614 
L 132.754746 266.719779 
L 133.323114 266.719779 
L 133.323114 266.551945 
L 134.091039 266.551945 
L 134.091039 266.048441 
L 135.638065 266.048441 
L 135.638065 265.880607 
L 135.835047 265.880607 
L 135.835047 265.712772 
L 136.318661 265.712772 
L 136.318661 265.377103 
L 136.88305 265.377103 
L 136.88305 265.041434 
L 137.159019 265.041434 
L 137.250116 264.537931 
L 137.340774 264.537931 
L 137.340774 264.034428 
L 137.699101 264.034428 
L 137.787626 263.698759 
L 138.310202 263.698759 
L 138.395904 263.195255 
L 138.985129 263.195255 
L 138.985129 263.027421 
L 139.556456 263.027421 
L 139.556456 262.691752 
L 139.875304 262.691752 
L 139.875304 262.356083 
L 140.032723 262.356083 
L 140.032723 262.020414 
L 140.420604 262.020414 
L 140.420604 261.684745 
L 141.320133 261.684745 
L 141.393187 260.845572 
L 142.108542 260.845572 
L 142.108542 260.677738 
L 142.248405 260.677738 
L 142.248405 260.509903 
L 142.387236 260.509903 
L 142.387236 260.174234 
L 142.593581 260.174234 
L 142.593581 260.0064 
L 142.999601 260.0064 
L 142.999601 259.670731 
L 143.199372 259.670731 
L 143.199372 259.502897 
L 143.977892 259.502897 
L 144.041338 258.831559 
L 144.417581 258.831559 
L 144.479563 258.49589 
L 144.541342 258.49589 
L 144.602918 258.160221 
L 144.907812 258.160221 
L 144.907812 257.824552 
L 145.503164 257.824552 
L 145.503164 255.978372 
L 145.79392 255.978372 
L 145.79392 255.810538 
L 147.076389 255.810538 
L 147.076389 255.642703 
L 147.607824 255.642703 
L 147.607824 255.474869 
L 147.764371 255.474869 
L 147.868016 255.1392 
L 148.022421 255.1392 
L 148.022421 254.803531 
L 148.226342 254.803531 
L 148.226342 254.635697 
L 148.377845 254.635697 
L 148.377845 254.467862 
L 148.57797 254.467862 
L 148.57797 254.300028 
L 149.069161 254.300028 
L 149.069161 253.964359 
L 149.829328 253.964359 
L 149.829328 253.62869 
L 150.014665 253.62869 
L 150.014665 253.460855 
L 150.470172 253.460855 
L 150.470172 253.125186 
L 150.693856 253.125186 
L 150.78259 252.453848 
L 151.133398 252.453848 
L 151.220087 251.78251 
L 151.60532 251.78251 
L 151.60532 251.446841 
L 152.106991 251.446841 
L 152.1482 251.111172 
L 152.230346 251.111172 
L 152.230346 250.943338 
L 152.434157 250.943338 
L 152.434157 250.775503 
L 153.111048 250.775503 
L 153.111048 250.439834 
L 153.38284 250.439834 
L 153.38284 250.272 
L 153.49813 250.272 
L 153.49813 249.936331 
L 153.650761 249.936331 
L 153.650761 249.768497 
L 153.839823 249.768497 
L 153.839823 249.600662 
L 154.027004 249.600662 
L 154.027004 249.432828 
L 154.613767 249.432828 
L 154.613767 249.264993 
L 155.042132 249.264993 
L 155.042132 248.929324 
L 155.252711 248.929324 
L 155.322384 247.754483 
L 155.391799 247.754483 
L 155.391799 247.586648 
L 155.769072 247.586648 
L 155.769072 247.250979 
L 156.005274 247.250979 
L 156.005274 247.083145 
L 156.403417 247.083145 
L 156.403417 246.747476 
L 157.080512 246.747476 
L 157.080512 246.579641 
L 157.487772 246.579641 
L 157.487772 246.411807 
L 157.642093 246.411807 
L 157.642093 246.243972 
L 158.336102 246.243972 
L 158.424766 245.908303 
L 158.948151 245.908303 
L 158.948151 245.740469 
L 159.679334 245.740469 
L 159.679334 245.4048 
L 159.844108 245.4048 
L 159.953161 245.069131 
L 160.061585 245.069131 
L 160.061585 244.901297 
L 160.329943 244.901297 
L 160.409709 244.565628 
L 160.489139 244.565628 
L 160.489139 244.062124 
L 160.725435 244.062124 
L 160.803545 243.055117 
L 162.728291 243.055117 
L 162.728291 242.551614 
L 162.868502 242.551614 
L 162.868502 242.383779 
L 163.030771 242.383779 
L 163.030771 242.215945 
L 163.145827 242.215945 
L 163.145827 242.04811 
L 164.041785 242.04811 
L 164.129077 241.712441 
L 164.367065 241.712441 
L 164.410013 241.376772 
L 164.917893 241.376772 
L 164.917893 241.208938 
L 165.249018 241.208938 
L 165.290001 240.369766 
L 165.45305 240.369766 
L 165.45305 240.201931 
L 166.130658 240.201931 
L 166.130658 239.866262 
L 166.594686 239.866262 
L 166.632844 239.194924 
L 166.935348 239.194924 
L 166.991529 238.859255 
L 167.325142 238.859255 
L 167.343504 238.523586 
L 167.453299 238.523586 
L 167.489756 238.187917 
L 168.028291 238.187917 
L 168.098945 237.852248 
L 168.396298 237.852248 
L 168.396298 237.684414 
L 168.6034 237.684414 
L 168.689024 237.18091 
L 168.825216 237.18091 
L 168.825216 237.013076 
L 169.010886 237.013076 
L 169.010886 236.845241 
L 169.442591 236.845241 
L 169.442591 236.677407 
L 169.928705 236.677407 
L 169.928705 236.173903 
L 170.072123 236.173903 
L 170.072123 236.006069 
L 170.340075 236.006069 
L 170.340075 235.838234 
L 171.375276 235.838234 
L 171.375276 235.6704 
L 172.1586 235.6704 
L 172.1586 235.334731 
L 172.496541 235.334731 
L 172.524431 234.663393 
L 172.663262 234.663393 
L 172.663262 234.15989 
L 173.462145 234.15989 
L 173.462145 233.824221 
L 173.686173 233.824221 
L 173.686173 233.488552 
L 173.985085 233.488552 
L 173.985085 233.320717 
L 174.151958 233.320717 
L 174.151958 233.152883 
L 174.456194 233.152883 
L 174.456194 232.649379 
L 174.878944 232.649379 
L 174.878944 232.31371 
L 175.062472 232.31371 
L 175.062472 232.145876 
L 176.860939 232.145876 
L 176.860939 231.978041 
L 176.99326 231.978041 
L 177.059073 231.474538 
L 177.168252 231.474538 
L 177.244302 230.971034 
L 177.556133 230.971034 
L 177.556133 230.8032 
L 177.894327 230.8032 
L 177.977934 230.467531 
L 178.329176 230.467531 
L 178.339408 230.131862 
L 178.563116 230.131862 
L 178.563116 229.796193 
L 178.684026 229.796193 
L 178.684026 229.628359 
L 179.566899 229.628359 
L 179.566899 229.29269 
L 179.993268 229.29269 
L 179.993268 228.957021 
L 180.6107 228.957021 
L 180.6107 228.621352 
L 181.085154 228.621352 
L 181.085154 228.285683 
L 181.269884 228.285683 
L 181.269884 228.117848 
L 181.719653 228.117848 
L 181.830435 227.614345 
L 181.889818 227.614345 
L 181.889818 227.44651 
L 182.05006 227.44651 
L 182.05006 227.278676 
L 182.24223 227.278676 
L 182.24223 226.943007 
L 182.407753 226.943007 
L 182.407753 226.439503 
L 182.677721 226.439503 
L 182.726392 225.600331 
L 183.111297 225.600331 
L 183.111297 225.432497 
L 183.418335 225.432497 
L 183.418335 225.264662 
L 183.542864 225.264662 
L 183.542864 225.096828 
L 184.175949 225.096828 
L 184.175949 224.761159 
L 184.347677 224.761159 
L 184.347677 224.089821 
L 185.360462 224.089821 
L 185.360462 223.921986 
L 185.556637 223.921986 
L 185.612313 223.586317 
L 186.079022 223.586317 
L 186.14669 223.082814 
L 186.361605 223.082814 
L 186.361605 222.914979 
L 186.991998 222.914979 
L 187.088617 222.411476 
L 187.451306 222.411476 
L 187.451306 222.075807 
L 187.626941 222.075807 
L 187.645662 221.572303 
L 187.794763 221.572303 
L 187.850373 220.900966 
L 188.058983 220.900966 
L 188.083374 220.565297 
L 188.204857 220.565297 
L 188.204857 220.229628 
L 188.409595 220.229628 
L 188.421569 219.55829 
L 188.946851 219.55829 
L 188.946851 219.390455 
L 189.440862 219.390455 
L 189.440862 219.222621 
L 189.649474 219.222621 
L 189.649474 218.886952 
L 189.971902 218.886952 
L 189.977413 218.551283 
L 191.358113 218.551283 
L 191.358113 218.215614 
L 192.345535 218.215614 
L 192.379512 217.376441 
L 192.630016 217.376441 
L 192.630016 217.208607 
L 192.947938 217.208607 
L 192.947938 217.040772 
L 193.074553 217.040772 
L 193.074553 216.705103 
L 193.549885 216.705103 
L 193.549885 216.537269 
L 193.964531 216.537269 
L 194.03572 216.033766 
L 194.093363 216.033766 
L 194.093363 215.865931 
L 194.234505 215.865931 
L 194.300303 214.858924 
L 194.85686 214.858924 
L 194.85686 214.523255 
L 195.030357 214.523255 
L 195.030357 214.355421 
L 195.90279 214.355421 
L 195.954994 214.019752 
L 196.01505 214.019752 
L 196.01505 213.851917 
L 196.465316 213.851917 
L 196.473121 213.516248 
L 196.613042 213.516248 
L 196.613042 213.348414 
L 197.158785 213.348414 
L 197.211373 212.509241 
L 197.316111 212.509241 
L 197.316111 212.173572 
L 360.8064 212.173572 
L 360.8064 212.173572 
" style="fill: none; stroke: #008000; stroke-width: 1.5; stroke-linecap: square"/>
   </g>
   <g id="line2d_36">
    <defs>
     <path id="m1da611eeae" d="M -0 6 
L 6 -6 
L -6 -6 
z
" style="stroke: #008000; stroke-width: 1.5; stroke-linejoin: miter"/>
    </defs>
    <g>
     <use xlink:href="#m1da611eeae" x="94.205591" y="281.321379" style="fill-opacity: 0; stroke: #008000; stroke-width: 1.5; stroke-linejoin: miter"/>
     <use xlink:href="#m1da611eeae" x="154.027004" y="249.432828" style="fill-opacity: 0; stroke: #008000; stroke-width: 1.5; stroke-linejoin: miter"/>
     <use xlink:href="#m1da611eeae" x="197.316111" y="212.509241" style="fill-opacity: 0; stroke: #008000; stroke-width: 1.5; stroke-linejoin: miter"/>
     <use xlink:href="#m1da611eeae" x="197.316111" y="212.173572" style="fill-opacity: 0; stroke: #008000; stroke-width: 1.5; stroke-linejoin: miter"/>
     <use xlink:href="#m1da611eeae" x="197.316111" y="212.173572" style="fill-opacity: 0; stroke: #008000; stroke-width: 1.5; stroke-linejoin: miter"/>
     <use xlink:href="#m1da611eeae" x="360.8064" y="212.173572" style="fill-opacity: 0; stroke: #008000; stroke-width: 1.5; stroke-linejoin: miter"/>
    </g>
   </g>
   <g id="line2d_37">
    <path style="fill: none; stroke: #008000; stroke-width: 1.5; stroke-linecap: square"/>
    <g/>
   </g>
   <g id="line2d_38">
    <path d="M 197.531229 212.173572 
" clip-path="url(#pb47bff31a2)" style="fill: none; stroke: #008000; stroke-width: 1.5; stroke-linecap: square"/>
    <defs>
     <path id="maf5ee76073" d="M -12 12 
L 12 -12 
M -12 -12 
L 12 12 
" style="stroke: #008000"/>
    </defs>
    <g clip-path="url(#pb47bff31a2)">
     <use xlink:href="#maf5ee76073" x="197.531229" y="212.173572" style="fill: #008000; stroke: #008000"/>
    </g>
   </g>
   <g id="line2d_39">
    <defs>
     <path id="m6f3ba4ce9f" d="M 0 1.5 
C 0.397805 1.5 0.77937 1.341951 1.06066 1.06066 
C 1.341951 0.77937 1.5 0.397805 1.5 0 
C 1.5 -0.397805 1.341951 -0.77937 1.06066 -1.06066 
C 0.77937 -1.341951 0.397805 -1.5 0 -1.5 
C -0.397805 -1.5 -0.77937 -1.341951 -1.06066 -1.06066 
C -1.341951 -0.77937 -1.5 -0.397805 -1.5 0 
C -1.5 0.397805 -1.341951 0.77937 -1.06066 1.06066 
C -0.77937 1.341951 -0.397805 1.5 0 1.5 
z
" style="stroke: #0000ff"/>
    </defs>
    <g>
     <use xlink:href="#m6f3ba4ce9f" x="186.781594" y="240.5376" style="fill: #0000ff; stroke: #0000ff"/>
     <use xlink:href="#m6f3ba4ce9f" x="186.781594" y="240.5376" style="fill: #0000ff; stroke: #0000ff"/>
    </g>
   </g>
   <g id="line2d_40">
    <path d="M 27.323974 298.944 
L 27.323974 286.524248 
L 40.363149 286.524248 
L 40.363149 286.188579 
L 47.990577 286.188579 
L 47.990577 285.349407 
L 53.402323 285.349407 
L 53.402323 284.845903 
L 57.6 284.845903 
L 57.6 284.006731 
L 61.029752 284.006731 
L 61.029752 283.503228 
L 63.929565 283.503228 
L 63.929565 283.335393 
L 66.441498 283.335393 
L 66.441498 282.999724 
L 72.432107 282.999724 
L 72.432107 282.328386 
L 83.678349 282.328386 
L 83.678349 281.657048 
L 84.596168 281.657048 
L 84.596168 281.321379 
L 85.471281 281.321379 
L 85.471281 280.98571 
L 87.1081 280.98571 
L 87.1081 280.817876 
L 87.876026 280.817876 
L 87.876026 280.482207 
L 88.613828 280.482207 
L 88.613828 280.146538 
L 91.305777 280.146538 
L 91.305777 279.810869 
L 93.098709 279.810869 
L 93.098709 279.139531 
L 93.66029 279.139531 
L 93.66029 278.971697 
L 94.735529 278.971697 
L 94.735529 278.803862 
L 96.241256 278.803862 
L 96.241256 278.468193 
L 99.751228 278.468193 
L 99.751228 278.300359 
L 100.147275 278.300359 
L 100.147275 278.132524 
L 100.535156 278.132524 
L 100.535156 277.96469 
L 100.9152 277.96469 
L 100.9152 277.796855 
L 102.011329 277.796855 
L 102.011329 277.293352 
L 104.655893 277.293352 
L 104.655893 277.125517 
L 105.559021 277.125517 
L 105.559021 276.789848 
L 107.5116 276.789848 
L 107.5116 276.622014 
L 108.034177 276.622014 
L 108.034177 276.454179 
L 108.29012 276.454179 
L 108.29012 276.11851 
L 109.520071 276.11851 
L 109.520071 275.279338 
L 109.990385 275.279338 
L 109.990385 274.943669 
L 110.674517 274.943669 
L 110.674517 274.440166 
L 110.897141 274.440166 
L 110.897141 273.936662 
L 111.54963 273.936662 
L 111.54963 273.600993 
L 112.790402 273.600993 
L 112.790402 273.265324 
L 122.677931 273.265324 
L 122.677931 272.929655 
L 123.374735 272.929655 
L 123.374735 272.258317 
L 125.628382 272.258317 
L 125.628382 271.922648 
L 127.366067 271.922648 
L 127.366067 271.586979 
L 127.549596 271.586979 
L 127.549596 271.419145 
L 128.354013 271.419145 
L 128.354013 271.083476 
L 128.786481 271.083476 
L 128.786481 270.747807 
L 129.7043 270.747807 
L 129.7043 270.579972 
L 130.027253 270.579972 
L 130.027253 270.244303 
L 130.4233 270.244303 
L 130.4233 270.076469 
L 132.144842 270.076469 
L 132.144842 269.908634 
L 132.499119 269.908634 
L 132.499119 269.572966 
L 132.638982 269.572966 
L 132.638982 269.405131 
L 134.112526 269.405131 
L 134.112526 269.237297 
L 135.298389 269.237297 
L 135.35878 268.565959 
L 135.418977 268.565959 
L 135.418977 268.398124 
L 136.068734 268.398124 
L 136.068734 268.23029 
L 136.356818 268.23029 
L 136.356818 268.062455 
L 137.304564 268.062455 
L 137.304564 267.894621 
L 139.93843 267.894621 
L 139.93843 267.726786 
L 140.173284 267.726786 
L 140.26641 267.391117 
L 140.679868 267.391117 
L 140.679868 266.887614 
L 140.815692 266.887614 
L 140.860749 266.38411 
L 141.56737 266.38411 
L 141.56737 266.048441 
L 141.696956 266.048441 
L 141.696956 265.712772 
L 142.164612 265.712772 
L 142.164612 265.377103 
L 142.331827 265.377103 
L 142.373399 265.041434 
L 142.824734 265.041434 
L 142.824734 264.8736 
L 143.423243 264.8736 
L 143.462475 264.202262 
L 144.305496 264.202262 
L 144.305496 263.698759 
L 144.71325 263.698759 
L 144.71325 263.195255 
L 145.040416 263.195255 
L 145.040416 263.027421 
L 145.255407 263.027421 
L 145.255407 262.523917 
L 147.722752 262.523917 
L 147.722752 262.356083 
L 147.847333 262.356083 
L 147.940229 261.852579 
L 149.679732 261.852579 
L 149.764026 261.51691 
L 150.343738 261.51691 
L 150.343738 261.181241 
L 151.656094 261.181241 
L 151.731998 260.509903 
L 152.426047 260.509903 
L 152.426047 260.174234 
L 152.930279 260.174234 
L 152.930279 259.838566 
L 153.259079 259.838566 
L 153.259079 259.670731 
L 153.398253 259.670731 
L 153.398253 259.502897 
L 153.605101 259.502897 
L 153.605101 259.335062 
L 153.787077 259.335062 
L 153.787077 259.167228 
L 154.86483 259.167228 
L 154.86483 258.831559 
L 155.474761 258.831559 
L 155.474761 258.663724 
L 155.843627 258.663724 
L 155.843627 258.49589 
L 156.657763 258.49589 
L 156.657763 258.328055 
L 157.678942 258.328055 
L 157.678942 257.992386 
L 158.804221 257.992386 
L 158.804221 257.656717 
L 159.198823 257.656717 
L 159.198823 257.321048 
L 159.518669 257.321048 
L 159.518669 257.153214 
L 159.783859 257.153214 
L 159.783859 256.985379 
L 160.142495 256.985379 
L 160.142495 256.64971 
L 160.287262 256.64971 
L 160.367209 256.314041 
L 160.793149 256.314041 
L 160.793149 256.146207 
L 160.917524 256.146207 
L 160.948489 255.642703 
L 161.437128 255.642703 
L 161.437128 255.307034 
L 161.810238 255.307034 
L 161.810238 254.803531 
L 162.420867 254.803531 
L 162.420867 254.635697 
L 163.136649 254.635697 
L 163.136649 254.467862 
L 163.625994 254.467862 
L 163.73303 253.796524 
L 163.95848 253.796524 
L 163.95848 253.62869 
L 164.194282 253.62869 
L 164.194282 253.293021 
L 164.55531 253.293021 
L 164.55531 253.125186 
L 165.071763 253.125186 
L 165.071763 252.957352 
L 165.195605 252.957352 
L 165.195605 252.621683 
L 166.087543 252.621683 
L 166.087543 252.453848 
L 166.448979 252.453848 
L 166.495114 252.118179 
L 167.328816 252.118179 
L 167.328816 251.78251 
L 167.44965 251.78251 
L 167.44965 251.614676 
L 168.137692 251.614676 
L 168.137692 251.446841 
L 168.430973 251.446841 
L 168.4725 250.943338 
L 169.254523 250.943338 
L 169.254523 250.607669 
L 170.672043 250.607669 
L 170.672043 250.439834 
L 171.181725 250.439834 
L 171.181725 250.272 
L 172.11023 250.272 
L 172.127316 249.768497 
L 172.373333 249.768497 
L 172.373333 249.264993 
L 172.632807 249.264993 
L 172.632807 249.097159 
L 173.683553 249.097159 
L 173.683553 248.929324 
L 173.886839 248.929324 
L 173.886839 248.593655 
L 175.011265 248.593655 
L 175.011265 248.257986 
L 175.638014 248.257986 
L 175.673408 247.922317 
L 176.10684 247.922317 
L 176.10684 247.586648 
L 176.530511 247.586648 
L 176.530511 247.250979 
L 177.389032 247.250979 
L 177.389032 246.91531 
L 177.690023 246.91531 
L 177.690023 246.579641 
L 178.680008 246.579641 
L 178.680008 246.411807 
L 178.836071 246.411807 
L 178.937417 245.908303 
L 179.279134 245.908303 
L 179.354881 245.4048 
L 179.545804 245.4048 
L 179.545804 245.236966 
L 180.516178 245.236966 
L 180.543493 244.901297 
L 181.102826 244.901297 
L 181.102826 244.733462 
L 181.911826 244.733462 
L 181.921976 244.397793 
L 182.496533 244.397793 
L 182.496533 244.229959 
L 183.044505 244.229959 
L 183.120819 243.558621 
L 183.399584 243.558621 
L 183.399584 243.390786 
L 184.184948 243.390786 
L 184.288124 242.887283 
L 184.457357 242.887283 
L 184.457357 242.719448 
L 184.886904 242.719448 
L 184.934511 242.215945 
L 185.247437 242.215945 
L 185.247437 242.04811 
L 185.471412 242.04811 
L 185.471412 241.712441 
L 185.688599 241.712441 
L 185.779737 241.376772 
L 185.841624 241.376772 
L 185.841624 241.041103 
L 186.313462 241.041103 
L 186.313462 240.873269 
L 186.433588 240.873269 
L 186.433588 240.705434 
L 186.781594 240.705434 
L 186.781594 240.5376 
L 360.8064 240.5376 
L 360.8064 240.5376 
" style="fill: none; stroke: #0000ff; stroke-width: 1.5; stroke-linecap: square"/>
   </g>
   <g id="line2d_41">
    <defs>
     <path id="m8853ced479" d="M 0 -6 
L -1.347084 -1.854102 
L -5.706339 -1.854102 
L -2.179628 0.708204 
L -3.526712 4.854102 
L -0 2.291796 
L 3.526712 4.854102 
L 2.179628 0.708204 
L 5.706339 -1.854102 
L 1.347084 -1.854102 
z
" style="stroke: #0000ff; stroke-width: 1.5; stroke-linejoin: bevel"/>
    </defs>
    <g>
     <use xlink:href="#m8853ced479" x="128.786481" y="271.083476" style="fill-opacity: 0; stroke: #0000ff; stroke-width: 1.5; stroke-linejoin: bevel"/>
     <use xlink:href="#m8853ced479" x="186.781594" y="240.705434" style="fill-opacity: 0; stroke: #0000ff; stroke-width: 1.5; stroke-linejoin: bevel"/>
     <use xlink:href="#m8853ced479" x="186.781594" y="240.5376" style="fill-opacity: 0; stroke: #0000ff; stroke-width: 1.5; stroke-linejoin: bevel"/>
     <use xlink:href="#m8853ced479" x="186.781594" y="240.5376" style="fill-opacity: 0; stroke: #0000ff; stroke-width: 1.5; stroke-linejoin: bevel"/>
     <use xlink:href="#m8853ced479" x="360.8064" y="240.5376" style="fill-opacity: 0; stroke: #0000ff; stroke-width: 1.5; stroke-linejoin: bevel"/>
    </g>
   </g>
   <g id="line2d_42">
    <path style="fill: none; stroke: #0000ff; stroke-width: 1.5; stroke-linecap: square"/>
    <g/>
   </g>
   <g id="line2d_43">
    <path d="M 187.921806 240.5376 
" clip-path="url(#pb47bff31a2)" style="fill: none; stroke: #0000ff; stroke-width: 1.5; stroke-linecap: square"/>
    <defs>
     <path id="m19b05e2494" d="M -12 12 
L 12 -12 
M -12 -12 
L 12 12 
" style="stroke: #0000ff"/>
    </defs>
    <g clip-path="url(#pb47bff31a2)">
     <use xlink:href="#m19b05e2494" x="187.921806" y="240.5376" style="fill: #0000ff; stroke: #0000ff"/>
    </g>
   </g>
   <g id="line2d_44">
    <defs>
     <path id="m5c3f5d53d0" d="M 0 1.5 
C 0.397805 1.5 0.77937 1.341951 1.06066 1.06066 
C 1.341951 0.77937 1.5 0.397805 1.5 0 
C 1.5 -0.397805 1.341951 -0.77937 1.06066 -1.06066 
C 0.77937 -1.341951 0.397805 -1.5 0 -1.5 
C -0.397805 -1.5 -0.77937 -1.341951 -1.06066 -1.06066 
C -1.341951 -0.77937 -1.5 -0.397805 -1.5 0 
C -1.5 0.397805 -1.341951 0.77937 -1.06066 1.06066 
C -0.77937 1.341951 -0.397805 1.5 0 1.5 
z
" style="stroke: #000000"/>
    </defs>
    <g>
     <use xlink:href="#m5c3f5d53d0" x="174.389431" y="268.23029" style="stroke: #000000"/>
     <use xlink:href="#m5c3f5d53d0" x="174.389431" y="268.23029" style="stroke: #000000"/>
    </g>
   </g>
   <g id="line2d_45">
    <path d="M 14.2848 298.944 
L 14.2848 285.685076 
L 34.951403 285.685076 
L 34.951403 285.181572 
L 50.890391 285.181572 
L 50.890391 284.678069 
L 53.402323 284.678069 
L 53.402323 284.3424 
L 61.029752 284.3424 
L 61.029752 283.671062 
L 73.268314 283.671062 
L 73.268314 283.335393 
L 76.284608 283.335393 
L 76.284608 282.83189 
L 85.894031 282.83189 
L 85.894031 282.664055 
L 87.1081 282.664055 
L 87.1081 282.160552 
L 87.495981 282.160552 
L 87.495981 281.992717 
L 89.323782 281.992717 
L 89.323782 281.824883 
L 91.922605 281.824883 
L 91.922605 281.657048 
L 96.95121 281.657048 
L 96.95121 281.321379 
L 97.857967 281.321379 
L 97.857967 281.153545 
L 98.295464 281.153545 
L 98.295464 280.98571 
L 109.280431 280.98571 
L 109.280431 280.817876 
L 110.562208 280.817876 
L 110.562208 280.650041 
L 111.656212 280.650041 
L 111.656212 280.482207 
L 114.418881 280.482207 
L 114.418881 280.314372 
L 115.83262 280.314372 
L 115.83262 280.146538 
L 116.253478 280.146538 
L 116.253478 279.978703 
L 120.41783 279.978703 
L 120.41783 279.810869 
L 121.518993 279.810869 
L 121.518993 279.643034 
L 122.259215 279.643034 
L 122.259215 279.4752 
L 126.709238 279.4752 
L 126.709238 279.307366 
L 129.041269 279.307366 
L 129.041269 279.139531 
L 130.384069 279.139531 
L 130.384069 278.971697 
L 131.191226 278.971697 
L 131.191226 278.803862 
L 131.600593 278.803862 
L 131.600593 278.636028 
L 132.743202 278.636028 
L 132.743202 278.300359 
L 134.683578 278.300359 
L 134.683578 278.132524 
L 135.085483 278.132524 
L 135.085483 277.96469 
L 139.411192 277.96469 
L 139.411192 277.629021 
L 140.219905 277.629021 
L 140.219905 277.293352 
L 141.974701 277.293352 
L 141.974701 276.957683 
L 142.394151 276.957683 
L 142.435586 276.286345 
L 144.267986 276.286345 
L 144.342932 275.782841 
L 147.022411 275.782841 
L 147.022411 275.615007 
L 147.707122 275.615007 
L 147.707122 275.447172 
L 147.986506 275.447172 
L 148.07872 274.943669 
L 148.785835 274.943669 
L 148.785835 274.775834 
L 149.2669 274.775834 
L 149.2669 274.440166 
L 149.566749 274.440166 
L 149.566749 274.272331 
L 150.985103 274.272331 
L 150.985103 274.104497 
L 152.377312 274.104497 
L 152.377312 273.936662 
L 154.04562 273.936662 
L 154.04562 273.768828 
L 156.8511 273.768828 
L 156.8511 273.600993 
L 157.688143 273.600993 
L 157.688143 273.433159 
L 158.471883 273.433159 
L 158.471883 273.09749 
L 159.898714 273.09749 
L 159.915064 272.593986 
L 160.231096 272.593986 
L 160.231096 272.426152 
L 160.707162 272.426152 
L 160.707162 272.258317 
L 161.071844 272.258317 
L 161.071844 272.090483 
L 161.579783 272.090483 
L 161.579783 271.922648 
L 163.33528 271.922648 
L 163.33528 271.754814 
L 163.625994 271.754814 
L 163.625994 271.586979 
L 165.586508 271.586979 
L 165.598594 271.25131 
L 166.028591 271.25131 
L 166.028591 271.083476 
L 166.569843 271.083476 
L 166.569843 270.747807 
L 167.112684 270.747807 
L 167.112684 270.579972 
L 168.363297 270.579972 
L 168.363297 270.412138 
L 168.611979 270.412138 
L 168.683897 269.908634 
L 169.059531 269.908634 
L 169.059531 269.7408 
L 169.486859 269.7408 
L 169.486859 269.572966 
L 169.880655 269.572966 
L 169.880655 269.405131 
L 171.497818 269.405131 
L 171.497818 269.237297 
L 171.834724 269.237297 
L 171.834724 269.069462 
L 172.314244 269.069462 
L 172.314244 268.901628 
L 172.440637 268.901628 
L 172.440637 268.565959 
L 172.954239 268.565959 
L 172.954239 268.398124 
L 174.389431 268.398124 
L 174.389431 268.23029 
L 360.8064 268.23029 
L 360.8064 268.23029 
" style="fill: none; stroke: #000000; stroke-width: 1.5; stroke-linecap: square"/>
   </g>
   <g id="line2d_46">
    <defs>
     <path id="m7a07be52aa" d="M 0 6 
C 1.591219 6 3.117479 5.367802 4.242641 4.242641 
C 5.367802 3.117479 6 1.591219 6 0 
C 6 -1.591219 5.367802 -3.117479 4.242641 -4.242641 
C 3.117479 -5.367802 1.591219 -6 0 -6 
C -1.591219 -6 -3.117479 -5.367802 -4.242641 -4.242641 
C -5.367802 -3.117479 -6 -1.591219 -6 0 
C -6 1.591219 -5.367802 3.117479 -4.242641 4.242641 
C -3.117479 5.367802 -1.591219 6 0 6 
z
" style="stroke: #000000; stroke-width: 1.5"/>
    </defs>
    <g>
     <use xlink:href="#m7a07be52aa" x="91.922605" y="281.657048" style="fill-opacity: 0; stroke: #000000; stroke-width: 1.5"/>
     <use xlink:href="#m7a07be52aa" x="174.389431" y="268.398124" style="fill-opacity: 0; stroke: #000000; stroke-width: 1.5"/>
     <use xlink:href="#m7a07be52aa" x="174.389431" y="268.398124" style="fill-opacity: 0; stroke: #000000; stroke-width: 1.5"/>
     <use xlink:href="#m7a07be52aa" x="174.389431" y="268.23029" style="fill-opacity: 0; stroke: #000000; stroke-width: 1.5"/>
     <use xlink:href="#m7a07be52aa" x="174.389431" y="268.23029" style="fill-opacity: 0; stroke: #000000; stroke-width: 1.5"/>
     <use xlink:href="#m7a07be52aa" x="360.8064" y="268.23029" style="fill-opacity: 0; stroke: #000000; stroke-width: 1.5"/>
    </g>
   </g>
   <g id="line2d_47">
    <path style="fill: none; stroke: #000000; stroke-width: 1.5; stroke-linecap: square"/>
    <g/>
   </g>
   <g id="line2d_48">
    <path d="M 174.882632 268.23029 
" clip-path="url(#pb47bff31a2)" style="fill: none; stroke: #000000; stroke-width: 1.5; stroke-linecap: square"/>
    <defs>
     <path id="mfa19e086dd" d="M -12 12 
L 12 -12 
M -12 -12 
L 12 12 
" style="stroke: #000000"/>
    </defs>
    <g clip-path="url(#pb47bff31a2)">
     <use xlink:href="#mfa19e086dd" x="174.882632" y="268.23029" style="stroke: #000000"/>
    </g>
   </g>
   <g id="line2d_49">
    <defs>
     <path id="m77e4eab31c" d="M 0 1.5 
C 0.397805 1.5 0.77937 1.341951 1.06066 1.06066 
C 1.341951 0.77937 1.5 0.397805 1.5 0 
C 1.5 -0.397805 1.341951 -0.77937 1.06066 -1.06066 
C 0.77937 -1.341951 0.397805 -1.5 0 -1.5 
C -0.397805 -1.5 -0.77937 -1.341951 -1.06066 -1.06066 
C -1.341951 -0.77937 -1.5 -0.397805 -1.5 0 
C -1.5 0.397805 -1.341951 0.77937 -1.06066 1.06066 
C -0.77937 1.341951 -0.397805 1.5 0 1.5 
z
" style="stroke: #ff0000"/>
    </defs>
    <g>
     <use xlink:href="#m77e4eab31c" x="158.241064" y="282.83189" style="fill: #ff0000; stroke: #ff0000"/>
     <use xlink:href="#m77e4eab31c" x="158.241064" y="282.83189" style="fill: #ff0000; stroke: #ff0000"/>
    </g>
   </g>
   <g id="line2d_50">
    <path d="M 1.245626 298.944 
L 1.245626 286.859917 
L 97.857967 286.859917 
L 97.857967 286.524248 
L 99.950294 286.524248 
L 99.950294 286.356414 
L 114.961559 286.356414 
L 114.961559 286.188579 
L 118.817362 286.188579 
L 118.817362 286.020745 
L 119.034004 286.020745 
L 119.034004 285.85291 
L 121.644403 285.85291 
L 121.644403 285.685076 
L 127.686077 285.685076 
L 127.686077 285.517241 
L 136.083243 285.517241 
L 136.083243 285.349407 
L 141.195285 285.349407 
L 141.195285 285.013738 
L 141.458695 285.013738 
L 141.458695 284.845903 
L 143.705836 284.845903 
L 143.705836 284.678069 
L 145.564597 284.678069 
L 145.564597 284.3424 
L 147.714939 284.3424 
L 147.714939 284.174566 
L 149.331557 284.174566 
L 149.331557 284.006731 
L 150.221009 284.006731 
L 150.221009 283.838897 
L 153.229954 283.838897 
L 153.229954 283.671062 
L 155.098517 283.671062 
L 155.098517 283.503228 
L 156.725657 283.503228 
L 156.725657 283.335393 
L 157.493969 283.335393 
L 157.493969 283.167559 
L 157.907629 283.167559 
L 157.907629 282.999724 
L 158.241064 282.999724 
L 158.241064 282.83189 
L 360.8064 282.83189 
" style="fill: none; stroke: #ff0000; stroke-width: 1.5; stroke-linecap: square"/>
   </g>
   <g id="line2d_51">
    <defs>
     <path id="m279b472e8f" d="M -6 6 
L 6 6 
L 6 -6 
L -6 -6 
z
" style="stroke: #ff0000; stroke-width: 1.5; stroke-linejoin: miter"/>
    </defs>
    <g>
     <use xlink:href="#m279b472e8f" x="127.686077" y="285.685076" style="fill-opacity: 0; stroke: #ff0000; stroke-width: 1.5; stroke-linejoin: miter"/>
     <use xlink:href="#m279b472e8f" x="158.241064" y="282.999724" style="fill-opacity: 0; stroke: #ff0000; stroke-width: 1.5; stroke-linejoin: miter"/>
     <use xlink:href="#m279b472e8f" x="158.241064" y="282.83189" style="fill-opacity: 0; stroke: #ff0000; stroke-width: 1.5; stroke-linejoin: miter"/>
     <use xlink:href="#m279b472e8f" x="158.241064" y="282.83189" style="fill-opacity: 0; stroke: #ff0000; stroke-width: 1.5; stroke-linejoin: miter"/>
     <use xlink:href="#m279b472e8f" x="360.8064" y="282.83189" style="fill-opacity: 0; stroke: #ff0000; stroke-width: 1.5; stroke-linejoin: miter"/>
    </g>
   </g>
   <g id="line2d_52">
    <path style="fill: none; stroke: #ff0000; stroke-width: 1.5; stroke-linecap: square"/>
    <g/>
   </g>
   <g id="line2d_53">
    <path d="M 161.843457 282.83189 
" clip-path="url(#pb47bff31a2)" style="fill: none; stroke: #ff0000; stroke-width: 1.5; stroke-linecap: square"/>
    <defs>
     <path id="m1291f49a09" d="M -12 12 
L 12 -12 
M -12 -12 
L 12 12 
" style="stroke: #ff0000"/>
    </defs>
    <g clip-path="url(#pb47bff31a2)">
     <use xlink:href="#m1291f49a09" x="161.843457" y="282.83189" style="fill: #ff0000; stroke: #ff0000"/>
    </g>
   </g>
   <g id="line2d_54">
    <defs>
     <path id="m946a2d5b98" d="M 0 1.5 
C 0.397805 1.5 0.77937 1.341951 1.06066 1.06066 
C 1.341951 0.77937 1.5 0.397805 1.5 0 
C 1.5 -0.397805 1.341951 -0.77937 1.06066 -1.06066 
C 0.77937 -1.341951 0.397805 -1.5 0 -1.5 
C -0.397805 -1.5 -0.77937 -1.341951 -1.06066 -1.06066 
C -1.341951 -0.77937 -1.5 -0.397805 -1.5 0 
C -1.5 0.397805 -1.341951 0.77937 -1.06066 1.06066 
C -0.77937 1.341951 -0.397805 1.5 0 1.5 
z
" style="stroke: #bf00bf"/>
    </defs>
    <g>
     <use xlink:href="#m946a2d5b98" x="108.605229" y="287.69909" style="fill: #bf00bf; stroke: #bf00bf"/>
     <use xlink:href="#m946a2d5b98" x="108.605229" y="287.69909" style="fill: #bf00bf; stroke: #bf00bf"/>
    </g>
   </g>
   <g id="line2d_55">
    <path d="M -1 287.866924 
L 108.605229 287.866924 
L 108.605229 287.69909 
L 360.8064 287.69909 
" style="fill: none; stroke: #bf00bf; stroke-width: 1.5; stroke-linecap: square"/>
   </g>
   <g id="line2d_56">
    <defs>
     <path id="m5bb70383de" d="M 0 8.485281 
L 8.485281 0 
L 0 -8.485281 
L -8.485281 0 
z
" style="stroke: #bf00bf; stroke-width: 1.5; stroke-linejoin: miter"/>
    </defs>
    <g>
     <use xlink:href="#m5bb70383de" x="108.605229" y="287.866924" style="fill-opacity: 0; stroke: #bf00bf; stroke-width: 1.5; stroke-linejoin: miter"/>
     <use xlink:href="#m5bb70383de" x="108.605229" y="287.69909" style="fill-opacity: 0; stroke: #bf00bf; stroke-width: 1.5; stroke-linejoin: miter"/>
     <use xlink:href="#m5bb70383de" x="108.605229" y="287.69909" style="fill-opacity: 0; stroke: #bf00bf; stroke-width: 1.5; stroke-linejoin: miter"/>
     <use xlink:href="#m5bb70383de" x="108.605229" y="287.69909" style="fill-opacity: 0; stroke: #bf00bf; stroke-width: 1.5; stroke-linejoin: miter"/>
     <use xlink:href="#m5bb70383de" x="360.8064" y="287.69909" style="fill-opacity: 0; stroke: #bf00bf; stroke-width: 1.5; stroke-linejoin: miter"/>
    </g>
   </g>
   <g id="line2d_57">
    <path style="fill: none; stroke: #bf00bf; stroke-width: 1.5; stroke-linecap: square"/>
    <g/>
   </g>
   <g id="line2d_58">
    <path d="M 148.804283 287.69909 
" clip-path="url(#pb47bff31a2)" style="fill: none; stroke: #bf00bf; stroke-width: 1.5; stroke-linecap: square"/>
    <defs>
     <path id="mb613d3126e" d="M -12 12 
L 12 -12 
M -12 -12 
L 12 12 
" style="stroke: #bf00bf"/>
    </defs>
    <g clip-path="url(#pb47bff31a2)">
     <use xlink:href="#mb613d3126e" x="148.804283" y="287.69909" style="fill: #bf00bf; stroke: #bf00bf"/>
    </g>
   </g>
   <g id="line2d_59">
    <path d="M 360.8064 287.69909 
L 380.514816 293.10336 
" style="fill: none; stroke: #bf00bf; stroke-width: 1.5; stroke-linecap: square"/>
    <g>
     <use xlink:href="#m5bb70383de" x="360.8064" y="287.69909" style="fill-opacity: 0; stroke: #bf00bf; stroke-width: 1.5; stroke-linejoin: miter"/>
     <use xlink:href="#m5bb70383de" x="380.514816" y="293.10336" style="fill-opacity: 0; stroke: #bf00bf; stroke-width: 1.5; stroke-linejoin: miter"/>
    </g>
   </g>
   <g id="line2d_60">
    <path d="M 360.8064 282.83189 
L 380.514816 237.033216 
" style="fill: none; stroke: #ff0000; stroke-width: 1.5; stroke-linecap: square"/>
    <g>
     <use xlink:href="#m279b472e8f" x="360.8064" y="282.83189" style="fill-opacity: 0; stroke: #ff0000; stroke-width: 1.5; stroke-linejoin: miter"/>
     <use xlink:href="#m279b472e8f" x="380.514816" y="237.033216" style="fill-opacity: 0; stroke: #ff0000; stroke-width: 1.5; stroke-linejoin: miter"/>
    </g>
   </g>
   <g id="line2d_61">
    <path d="M 360.8064 268.23029 
L 380.514816 180.963072 
" style="fill: none; stroke: #000000; stroke-width: 1.5; stroke-linecap: square"/>
    <g>
     <use xlink:href="#m7a07be52aa" x="360.8064" y="268.23029" style="fill-opacity: 0; stroke: #000000; stroke-width: 1.5"/>
     <use xlink:href="#m7a07be52aa" x="380.514816" y="180.963072" style="fill-opacity: 0; stroke: #000000; stroke-width: 1.5"/>
    </g>
   </g>
   <g id="line2d_62">
    <path d="M 360.8064 240.5376 
L 380.514816 124.892928 
" style="fill: none; stroke: #0000ff; stroke-width: 1.5; stroke-linecap: square"/>
    <g>
     <use xlink:href="#m8853ced479" x="360.8064" y="240.5376" style="fill-opacity: 0; stroke: #0000ff; stroke-width: 1.5; stroke-linejoin: bevel"/>
     <use xlink:href="#m8853ced479" x="380.514816" y="124.892928" style="fill-opacity: 0; stroke: #0000ff; stroke-width: 1.5; stroke-linejoin: bevel"/>
    </g>
   </g>
   <g id="line2d_63">
    <path d="M 360.8064 212.173572 
L 380.514816 68.822784 
" style="fill: none; stroke: #008000; stroke-width: 1.5; stroke-linecap: square"/>
    <g>
     <use xlink:href="#m1da611eeae" x="360.8064" y="212.173572" style="fill-opacity: 0; stroke: #008000; stroke-width: 1.5; stroke-linejoin: miter"/>
     <use xlink:href="#m1da611eeae" x="380.514816" y="68.822784" style="fill-opacity: 0; stroke: #008000; stroke-width: 1.5; stroke-linejoin: miter"/>
    </g>
   </g>
   <g id="line2d_64">
    <path d="M 360.8064 175.082152 
L 380.514816 12.75264 
" style="fill: none; stroke: #00bfbf; stroke-width: 1.5; stroke-linecap: square"/>
    <g>
     <use xlink:href="#m6d5d9b6356" x="360.8064" y="175.082152" style="fill-opacity: 0; stroke: #00bfbf; stroke-width: 1.5"/>
     <use xlink:href="#m6d5d9b6356" x="380.514816" y="12.75264" style="fill-opacity: 0; stroke: #00bfbf; stroke-width: 1.5"/>
    </g>
   </g>
   <g id="line2d_65">
    <path d="M 360.8064 298.944 
L 360.8064 6.912 
" style="fill: none; stroke: #000000; stroke-width: 1.5; stroke-linecap: square"/>
   </g>
   <g id="patch_3">
    <path d="M 57.6 298.944 
L 360.8064 298.944 
" style="fill: none; stroke: #000000; stroke-width: 0.8; stroke-linejoin: miter; stroke-linecap: square"/>
   </g>
   <g id="patch_4">
    <path d="M 57.6 6.912 
L 360.8064 6.912 
" style="fill: none; stroke: #000000; stroke-width: 0.8; stroke-linejoin: miter; stroke-linecap: square"/>
   </g>
   <g id="text_13">
    <!-- 40-D -->
    <g transform="translate(386.578944 296.966485)scale(0.14 -0.14)">
     <defs>
      <path id="DejaVuSans-44" d="M 1259 4147 
L 1259 519 
L 2022 519 
Q 2988 519 3436 956 
Q 3884 1394 3884 2338 
Q 3884 3275 3436 3711 
Q 2988 4147 2022 4147 
L 1259 4147 
z
M 628 4666 
L 1925 4666 
Q 3281 4666 3915 4102 
Q 4550 3538 4550 2338 
Q 4550 1131 3912 565 
Q 3275 0 1925 0 
L 628 0 
L 628 4666 
z
" transform="scale(0.015625)"/>
     </defs>
     <use xlink:href="#DejaVuSans-34"/>
     <use xlink:href="#DejaVuSans-30" x="63.623047"/>
     <use xlink:href="#DejaVuSans-2d" x="127.246094"/>
     <use xlink:href="#DejaVuSans-44" x="163.330078"/>
    </g>
   </g>
   <g id="text_14">
    <!-- 20-D -->
    <g transform="translate(386.578944 240.896341)scale(0.14 -0.14)">
     <use xlink:href="#DejaVuSans-32"/>
     <use xlink:href="#DejaVuSans-30" x="63.623047"/>
     <use xlink:href="#DejaVuSans-2d" x="127.246094"/>
     <use xlink:href="#DejaVuSans-44" x="163.330078"/>
    </g>
   </g>
   <g id="text_15">
    <!-- 10-D -->
    <g transform="translate(386.578944 184.826197)scale(0.14 -0.14)">
     <use xlink:href="#DejaVuSans-31"/>
     <use xlink:href="#DejaVuSans-30" x="63.623047"/>
     <use xlink:href="#DejaVuSans-2d" x="127.246094"/>
     <use xlink:href="#DejaVuSans-44" x="163.330078"/>
    </g>
   </g>
   <g id="text_16">
    <!-- 5-D -->
    <g transform="translate(386.578944 128.756053)scale(0.14 -0.14)">
     <defs>
      <path id="DejaVuSans-35" d="M 691 4666 
L 3169 4666 
L 3169 4134 
L 1269 4134 
L 1269 2991 
Q 1406 3038 1543 3061 
Q 1681 3084 1819 3084 
Q 2600 3084 3056 2656 
Q 3513 2228 3513 1497 
Q 3513 744 3044 326 
Q 2575 -91 1722 -91 
Q 1428 -91 1123 -41 
Q 819 9 494 109 
L 494 744 
Q 775 591 1075 516 
Q 1375 441 1709 441 
Q 2250 441 2565 725 
Q 2881 1009 2881 1497 
Q 2881 1984 2565 2268 
Q 2250 2553 1709 2553 
Q 1456 2553 1204 2497 
Q 953 2441 691 2322 
L 691 4666 
z
" transform="scale(0.015625)"/>
     </defs>
     <use xlink:href="#DejaVuSans-35"/>
     <use xlink:href="#DejaVuSans-2d" x="63.623047"/>
     <use xlink:href="#DejaVuSans-44" x="99.707031"/>
    </g>
   </g>
   <g id="text_17">
    <!-- 3-D -->
    <g transform="translate(386.578944 72.685909)scale(0.14 -0.14)">
     <defs>
      <path id="DejaVuSans-33" d="M 2597 2516 
Q 3050 2419 3304 2112 
Q 3559 1806 3559 1356 
Q 3559 666 3084 287 
Q 2609 -91 1734 -91 
Q 1441 -91 1130 -33 
Q 819 25 488 141 
L 488 750 
Q 750 597 1062 519 
Q 1375 441 1716 441 
Q 2309 441 2620 675 
Q 2931 909 2931 1356 
Q 2931 1769 2642 2001 
Q 2353 2234 1838 2234 
L 1294 2234 
L 1294 2753 
L 1863 2753 
Q 2328 2753 2575 2939 
Q 2822 3125 2822 3475 
Q 2822 3834 2567 4026 
Q 2313 4219 1838 4219 
Q 1578 4219 1281 4162 
Q 984 4106 628 3988 
L 628 4550 
Q 988 4650 1302 4700 
Q 1616 4750 1894 4750 
Q 2613 4750 3031 4423 
Q 3450 4097 3450 3541 
Q 3450 3153 3228 2886 
Q 3006 2619 2597 2516 
z
" transform="scale(0.015625)"/>
     </defs>
     <use xlink:href="#DejaVuSans-33"/>
     <use xlink:href="#DejaVuSans-2d" x="63.623047"/>
     <use xlink:href="#DejaVuSans-44" x="99.707031"/>
    </g>
   </g>
   <g id="text_18">
    <!-- 2-D -->
    <g transform="translate(386.578944 16.615765)scale(0.14 -0.14)">
     <use xlink:href="#DejaVuSans-32"/>
     <use xlink:href="#DejaVuSans-2d" x="63.623047"/>
     <use xlink:href="#DejaVuSans-44" x="99.707031"/>
    </g>
   </g>
   <g id="text_19">
    <!-- bbob-biobj f1, f2, f11 -->
    <g transform="translate(60.632064 17.582726)scale(0.102 -0.102)">
     <defs>
      <path id="DejaVuSans-62" d="M 3116 1747 
Q 3116 2381 2855 2742 
Q 2594 3103 2138 3103 
Q 1681 3103 1420 2742 
Q 1159 2381 1159 1747 
Q 1159 1113 1420 752 
Q 1681 391 2138 391 
Q 2594 391 2855 752 
Q 3116 1113 3116 1747 
z
M 1159 2969 
Q 1341 3281 1617 3432 
Q 1894 3584 2278 3584 
Q 2916 3584 3314 3078 
Q 3713 2572 3713 1747 
Q 3713 922 3314 415 
Q 2916 -91 2278 -91 
Q 1894 -91 1617 61 
Q 1341 213 1159 525 
L 1159 0 
L 581 0 
L 581 4863 
L 1159 4863 
L 1159 2969 
z
" transform="scale(0.015625)"/>
      <path id="DejaVuSans-6a" d="M 603 3500 
L 1178 3500 
L 1178 -63 
Q 1178 -731 923 -1031 
Q 669 -1331 103 -1331 
L -116 -1331 
L -116 -844 
L 38 -844 
Q 366 -844 484 -692 
Q 603 -541 603 -63 
L 603 3500 
z
M 603 4863 
L 1178 4863 
L 1178 4134 
L 603 4134 
L 603 4863 
z
" transform="scale(0.015625)"/>
     </defs>
     <use xlink:href="#DejaVuSans-62"/>
     <use xlink:href="#DejaVuSans-62" x="63.476562"/>
     <use xlink:href="#DejaVuSans-6f" x="126.953125"/>
     <use xlink:href="#DejaVuSans-62" x="188.134766"/>
     <use xlink:href="#DejaVuSans-2d" x="251.611328"/>
     <use xlink:href="#DejaVuSans-62" x="287.695312"/>
     <use xlink:href="#DejaVuSans-69" x="351.171875"/>
     <use xlink:href="#DejaVuSans-6f" x="378.955078"/>
     <use xlink:href="#DejaVuSans-62" x="440.136719"/>
     <use xlink:href="#DejaVuSans-6a" x="503.613281"/>
     <use xlink:href="#DejaVuSans-20" x="531.396484"/>
     <use xlink:href="#DejaVuSans-66" x="563.183594"/>
     <use xlink:href="#DejaVuSans-31" x="598.388672"/>
     <use xlink:href="#DejaVuSans-2c" x="662.011719"/>
     <use xlink:href="#DejaVuSans-20" x="693.798828"/>
     <use xlink:href="#DejaVuSans-66" x="725.585938"/>
     <use xlink:href="#DejaVuSans-32" x="760.791016"/>
     <use xlink:href="#DejaVuSans-2c" x="824.414062"/>
     <use xlink:href="#DejaVuSans-20" x="856.201172"/>
     <use xlink:href="#DejaVuSans-66" x="887.988281"/>
     <use xlink:href="#DejaVuSans-31" x="923.193359"/>
     <use xlink:href="#DejaVuSans-31" x="986.816406"/>
    </g>
    <!-- 58 targets: 1..-1.0e-4 -->
    <g transform="translate(60.632064 29.004495)scale(0.102 -0.102)">
     <defs>
      <path id="DejaVuSans-3a" d="M 750 794 
L 1409 794 
L 1409 0 
L 750 0 
L 750 794 
z
M 750 3309 
L 1409 3309 
L 1409 2516 
L 750 2516 
L 750 3309 
z
" transform="scale(0.015625)"/>
     </defs>
     <use xlink:href="#DejaVuSans-35"/>
     <use xlink:href="#DejaVuSans-38" x="63.623047"/>
     <use xlink:href="#DejaVuSans-20" x="127.246094"/>
     <use xlink:href="#DejaVuSans-74" x="159.033203"/>
     <use xlink:href="#DejaVuSans-61" x="198.242188"/>
     <use xlink:href="#DejaVuSans-72" x="259.521484"/>
     <use xlink:href="#DejaVuSans-67" x="298.884766"/>
     <use xlink:href="#DejaVuSans-65" x="362.361328"/>
     <use xlink:href="#DejaVuSans-74" x="423.884766"/>
     <use xlink:href="#DejaVuSans-73" x="463.09375"/>
     <use xlink:href="#DejaVuSans-3a" x="515.193359"/>
     <use xlink:href="#DejaVuSans-20" x="548.884766"/>
     <use xlink:href="#DejaVuSans-31" x="580.671875"/>
     <use xlink:href="#DejaVuSans-2e" x="644.294922"/>
     <use xlink:href="#DejaVuSans-2e" x="676.082031"/>
     <use xlink:href="#DejaVuSans-2d" x="707.869141"/>
     <use xlink:href="#DejaVuSans-31" x="743.953125"/>
     <use xlink:href="#DejaVuSans-2e" x="807.576172"/>
     <use xlink:href="#DejaVuSans-30" x="839.363281"/>
     <use xlink:href="#DejaVuSans-65" x="902.986328"/>
     <use xlink:href="#DejaVuSans-2d" x="964.509766"/>
     <use xlink:href="#DejaVuSans-34" x="1000.59375"/>
    </g>
    <!-- 10 instances -->
    <g transform="translate(60.632064 40.426264)scale(0.102 -0.102)">
     <use xlink:href="#DejaVuSans-31"/>
     <use xlink:href="#DejaVuSans-30" x="63.623047"/>
     <use xlink:href="#DejaVuSans-20" x="127.246094"/>
     <use xlink:href="#DejaVuSans-69" x="159.033203"/>
     <use xlink:href="#DejaVuSans-6e" x="186.816406"/>
     <use xlink:href="#DejaVuSans-73" x="250.195312"/>
     <use xlink:href="#DejaVuSans-74" x="302.294922"/>
     <use xlink:href="#DejaVuSans-61" x="341.503906"/>
     <use xlink:href="#DejaVuSans-6e" x="402.783203"/>
     <use xlink:href="#DejaVuSans-63" x="466.162109"/>
     <use xlink:href="#DejaVuSans-65" x="521.142578"/>
     <use xlink:href="#DejaVuSans-73" x="582.666016"/>
    </g>
   </g>
   <g id="text_20">
    <!-- v2.6, hv-hash=ff0e71e8cd978373 -->
    <g style="fill: #808080" transform="translate(123.707887 293.943992)scale(0.1 -0.1)">
     <defs>
      <path id="DejaVuSans-68" d="M 3513 2113 
L 3513 0 
L 2938 0 
L 2938 2094 
Q 2938 2591 2744 2837 
Q 2550 3084 2163 3084 
Q 1697 3084 1428 2787 
Q 1159 2491 1159 1978 
L 1159 0 
L 581 0 
L 581 4863 
L 1159 4863 
L 1159 2956 
Q 1366 3272 1645 3428 
Q 1925 3584 2291 3584 
Q 2894 3584 3203 3211 
Q 3513 2838 3513 2113 
z
" transform="scale(0.015625)"/>
      <path id="DejaVuSans-3d" d="M 678 2906 
L 4684 2906 
L 4684 2381 
L 678 2381 
L 678 2906 
z
M 678 1631 
L 4684 1631 
L 4684 1100 
L 678 1100 
L 678 1631 
z
" transform="scale(0.015625)"/>
      <path id="DejaVuSans-37" d="M 525 4666 
L 3525 4666 
L 3525 4397 
L 1831 0 
L 1172 0 
L 2766 4134 
L 525 4134 
L 525 4666 
z
" transform="scale(0.015625)"/>
      <path id="DejaVuSans-39" d="M 703 97 
L 703 672 
Q 941 559 1184 500 
Q 1428 441 1663 441 
Q 2288 441 2617 861 
Q 2947 1281 2994 2138 
Q 2813 1869 2534 1725 
Q 2256 1581 1919 1581 
Q 1219 1581 811 2004 
Q 403 2428 403 3163 
Q 403 3881 828 4315 
Q 1253 4750 1959 4750 
Q 2769 4750 3195 4129 
Q 3622 3509 3622 2328 
Q 3622 1225 3098 567 
Q 2575 -91 1691 -91 
Q 1453 -91 1209 -44 
Q 966 3 703 97 
z
M 1959 2075 
Q 2384 2075 2632 2365 
Q 2881 2656 2881 3163 
Q 2881 3666 2632 3958 
Q 2384 4250 1959 4250 
Q 1534 4250 1286 3958 
Q 1038 3666 1038 3163 
Q 1038 2656 1286 2365 
Q 1534 2075 1959 2075 
z
" transform="scale(0.015625)"/>
     </defs>
     <use xlink:href="#DejaVuSans-76"/>
     <use xlink:href="#DejaVuSans-32" x="59.179688"/>
     <use xlink:href="#DejaVuSans-2e" x="122.802734"/>
     <use xlink:href="#DejaVuSans-36" x="154.589844"/>
     <use xlink:href="#DejaVuSans-2c" x="218.212891"/>
     <use xlink:href="#DejaVuSans-20" x="250"/>
     <use xlink:href="#DejaVuSans-68" x="281.787109"/>
     <use xlink:href="#DejaVuSans-76" x="345.166016"/>
     <use xlink:href="#DejaVuSans-2d" x="401.720703"/>
     <use xlink:href="#DejaVuSans-68" x="437.804688"/>
     <use xlink:href="#DejaVuSans-61" x="501.183594"/>
     <use xlink:href="#DejaVuSans-73" x="562.462891"/>
     <use xlink:href="#DejaVuSans-68" x="614.5625"/>
     <use xlink:href="#DejaVuSans-3d" x="677.941406"/>
     <use xlink:href="#DejaVuSans-66" x="761.730469"/>
     <use xlink:href="#DejaVuSans-66" x="796.935547"/>
     <use xlink:href="#DejaVuSans-30" x="832.140625"/>
     <use xlink:href="#DejaVuSans-65" x="895.763672"/>
     <use xlink:href="#DejaVuSans-37" x="957.287109"/>
     <use xlink:href="#DejaVuSans-31" x="1020.910156"/>
     <use xlink:href="#DejaVuSans-65" x="1084.533203"/>
     <use xlink:href="#DejaVuSans-38" x="1146.056641"/>
     <use xlink:href="#DejaVuSans-63" x="1209.679688"/>
     <use xlink:href="#DejaVuSans-64" x="1264.660156"/>
     <use xlink:href="#DejaVuSans-39" x="1328.136719"/>
     <use xlink:href="#DejaVuSans-37" x="1391.759766"/>
     <use xlink:href="#DejaVuSans-38" x="1455.382812"/>
     <use xlink:href="#DejaVuSans-33" x="1519.005859"/>
     <use xlink:href="#DejaVuSans-37" x="1582.628906"/>
     <use xlink:href="#DejaVuSans-33" x="1646.251953"/>
    </g>
   </g>
  </g>
 </g>
 <defs>
  <clipPath id="pb47bff31a2">
   <rect x="57.6" y="6.912" width="303.2064" height="292.032"/>
  </clipPath>
 </defs>
</svg>
