<?xml version="1.0" encoding="utf-8" standalone="no"?>
<!DOCTYPE svg PUBLIC "-//W3C//DTD SVG 1.1//EN"
  "http://www.w3.org/Graphics/SVG/1.1/DTD/svg11.dtd">
<svg xmlns:xlink="http://www.w3.org/1999/xlink" width="460.8pt" height="345.6pt" viewBox="0 0 460.8 345.6" xmlns="http://www.w3.org/2000/svg" version="1.1">
 <metadata>
  <rdf:RDF xmlns:dc="http://purl.org/dc/elements/1.1/" xmlns:cc="http://creativecommons.org/ns#" xmlns:rdf="http://www.w3.org/1999/02/22-rdf-syntax-ns#">
   <cc:Work>
    <dc:type rdf:resource="http://purl.org/dc/dcmitype/StillImage"/>
    <dc:date>2022-06-19T17:22:50.915513</dc:date>
    <dc:format>image/svg+xml</dc:format>
    <dc:creator>
     <cc:Agent>
      <dc:title>Matplotlib v3.5.2, https://matplotlib.org/</dc:title>
     </cc:Agent>
    </dc:creator>
   </cc:Work>
  </rdf:RDF>
 </metadata>
 <defs>
  <style type="text/css">*{stroke-linejoin: round; stroke-linecap: butt}</style>
 </defs>
 <g id="figure_1">
  <g id="patch_1">
   <path d="M 0 345.6 
L 460.8 345.6 
L 460.8 0 
L 0 0 
z
" style="fill: #ffffff"/>
  </g>
  <g id="axes_1">
   <g id="patch_2">
    <path d="M 57.6 298.944 
L 360.8064 298.944 
L 360.8064 6.912 
L 57.6 6.912 
z
" style="fill: #ffffff"/>
   </g>
   <g id="matplotlib.axis_1">
    <g id="xtick_1">
     <g id="line2d_1">
      <path d="M 57.6 298.944 
L 57.6 6.912 
" clip-path="url(#p0b6a801006)" style="fill: none; stroke: #b0b0b0; stroke-width: 0.8; stroke-linecap: square"/>
     </g>
     <g id="line2d_2">
      <defs>
       <path id="mccdf99d5d9" d="M 0 0 
L 0 3.5 
" style="stroke: #000000; stroke-width: 0.8"/>
      </defs>
      <g>
       <use xlink:href="#mccdf99d5d9" x="57.6" y="298.944" style="stroke: #000000; stroke-width: 0.8"/>
      </g>
     </g>
     <g id="text_1">
      <!-- 0 -->
      <g transform="translate(52.191875 318.861344)scale(0.17 -0.17)">
       <defs>
        <path id="DejaVuSans-30" d="M 2034 4250 
Q 1547 4250 1301 3770 
Q 1056 3291 1056 2328 
Q 1056 1369 1301 889 
Q 1547 409 2034 409 
Q 2525 409 2770 889 
Q 3016 1369 3016 2328 
Q 3016 3291 2770 3770 
Q 2525 4250 2034 4250 
z
M 2034 4750 
Q 2819 4750 3233 4129 
Q 3647 3509 3647 2328 
Q 3647 1150 3233 529 
Q 2819 -91 2034 -91 
Q 1250 -91 836 529 
Q 422 1150 422 2328 
Q 422 3509 836 4129 
Q 1250 4750 2034 4750 
z
" transform="scale(0.015625)"/>
       </defs>
       <use xlink:href="#DejaVuSans-30"/>
      </g>
     </g>
    </g>
    <g id="xtick_2">
     <g id="line2d_3">
      <path d="M 144.2304 298.944 
L 144.2304 6.912 
" clip-path="url(#p0b6a801006)" style="fill: none; stroke: #b0b0b0; stroke-width: 0.8; stroke-linecap: square"/>
     </g>
     <g id="line2d_4">
      <g>
       <use xlink:href="#mccdf99d5d9" x="144.2304" y="298.944" style="stroke: #000000; stroke-width: 0.8"/>
      </g>
     </g>
     <g id="text_2">
      <!-- 2 -->
      <g transform="translate(138.822275 318.861344)scale(0.17 -0.17)">
       <defs>
        <path id="DejaVuSans-32" d="M 1228 531 
L 3431 531 
L 3431 0 
L 469 0 
L 469 531 
Q 828 903 1448 1529 
Q 2069 2156 2228 2338 
Q 2531 2678 2651 2914 
Q 2772 3150 2772 3378 
Q 2772 3750 2511 3984 
Q 2250 4219 1831 4219 
Q 1534 4219 1204 4116 
Q 875 4013 500 3803 
L 500 4441 
Q 881 4594 1212 4672 
Q 1544 4750 1819 4750 
Q 2544 4750 2975 4387 
Q 3406 4025 3406 3419 
Q 3406 3131 3298 2873 
Q 3191 2616 2906 2266 
Q 2828 2175 2409 1742 
Q 1991 1309 1228 531 
z
" transform="scale(0.015625)"/>
       </defs>
       <use xlink:href="#DejaVuSans-32"/>
      </g>
     </g>
    </g>
    <g id="xtick_3">
     <g id="line2d_5">
      <path d="M 230.8608 298.944 
L 230.8608 6.912 
" clip-path="url(#p0b6a801006)" style="fill: none; stroke: #b0b0b0; stroke-width: 0.8; stroke-linecap: square"/>
     </g>
     <g id="line2d_6">
      <g>
       <use xlink:href="#mccdf99d5d9" x="230.8608" y="298.944" style="stroke: #000000; stroke-width: 0.8"/>
      </g>
     </g>
     <g id="text_3">
      <!-- 4 -->
      <g transform="translate(225.452675 318.861344)scale(0.17 -0.17)">
       <defs>
        <path id="DejaVuSans-34" d="M 2419 4116 
L 825 1625 
L 2419 1625 
L 2419 4116 
z
M 2253 4666 
L 3047 4666 
L 3047 1625 
L 3713 1625 
L 3713 1100 
L 3047 1100 
L 3047 0 
L 2419 0 
L 2419 1100 
L 313 1100 
L 313 1709 
L 2253 4666 
z
" transform="scale(0.015625)"/>
       </defs>
       <use xlink:href="#DejaVuSans-34"/>
      </g>
     </g>
    </g>
    <g id="xtick_4">
     <g id="line2d_7">
      <path d="M 317.4912 298.944 
L 317.4912 6.912 
" clip-path="url(#p0b6a801006)" style="fill: none; stroke: #b0b0b0; stroke-width: 0.8; stroke-linecap: square"/>
     </g>
     <g id="line2d_8">
      <g>
       <use xlink:href="#mccdf99d5d9" x="317.4912" y="298.944" style="stroke: #000000; stroke-width: 0.8"/>
      </g>
     </g>
     <g id="text_4">
      <!-- 6 -->
      <g transform="translate(312.083075 318.861344)scale(0.17 -0.17)">
       <defs>
        <path id="DejaVuSans-36" d="M 2113 2584 
Q 1688 2584 1439 2293 
Q 1191 2003 1191 1497 
Q 1191 994 1439 701 
Q 1688 409 2113 409 
Q 2538 409 2786 701 
Q 3034 994 3034 1497 
Q 3034 2003 2786 2293 
Q 2538 2584 2113 2584 
z
M 3366 4563 
L 3366 3988 
Q 3128 4100 2886 4159 
Q 2644 4219 2406 4219 
Q 1781 4219 1451 3797 
Q 1122 3375 1075 2522 
Q 1259 2794 1537 2939 
Q 1816 3084 2150 3084 
Q 2853 3084 3261 2657 
Q 3669 2231 3669 1497 
Q 3669 778 3244 343 
Q 2819 -91 2113 -91 
Q 1303 -91 875 529 
Q 447 1150 447 2328 
Q 447 3434 972 4092 
Q 1497 4750 2381 4750 
Q 2619 4750 2861 4703 
Q 3103 4656 3366 4563 
z
" transform="scale(0.015625)"/>
       </defs>
       <use xlink:href="#DejaVuSans-36"/>
      </g>
     </g>
    </g>
    <g id="xtick_5">
     <g id="line2d_9">
      <path d="M 100.9152 298.944 
L 100.9152 6.912 
" clip-path="url(#p0b6a801006)" style="fill: none; stroke: #b0b0b0; stroke-width: 0.8; stroke-linecap: square"/>
     </g>
     <g id="line2d_10">
      <defs>
       <path id="mca2b219453" d="M 0 0 
L 0 2 
" style="stroke: #000000; stroke-width: 0.6"/>
      </defs>
      <g>
       <use xlink:href="#mca2b219453" x="100.9152" y="298.944" style="stroke: #000000; stroke-width: 0.6"/>
      </g>
     </g>
    </g>
    <g id="xtick_6">
     <g id="line2d_11">
      <path d="M 187.5456 298.944 
L 187.5456 6.912 
" clip-path="url(#p0b6a801006)" style="fill: none; stroke: #b0b0b0; stroke-width: 0.8; stroke-linecap: square"/>
     </g>
     <g id="line2d_12">
      <g>
       <use xlink:href="#mca2b219453" x="187.5456" y="298.944" style="stroke: #000000; stroke-width: 0.6"/>
      </g>
     </g>
    </g>
    <g id="xtick_7">
     <g id="line2d_13">
      <path d="M 274.176 298.944 
L 274.176 6.912 
" clip-path="url(#p0b6a801006)" style="fill: none; stroke: #b0b0b0; stroke-width: 0.8; stroke-linecap: square"/>
     </g>
     <g id="line2d_14">
      <g>
       <use xlink:href="#mca2b219453" x="274.176" y="298.944" style="stroke: #000000; stroke-width: 0.6"/>
      </g>
     </g>
    </g>
    <g id="xtick_8">
     <g id="line2d_15">
      <path d="M 360.8064 298.944 
L 360.8064 6.912 
" clip-path="url(#p0b6a801006)" style="fill: none; stroke: #b0b0b0; stroke-width: 0.8; stroke-linecap: square"/>
     </g>
     <g id="line2d_16">
      <g>
       <use xlink:href="#mca2b219453" x="360.8064" y="298.944" style="stroke: #000000; stroke-width: 0.6"/>
      </g>
     </g>
    </g>
    <g id="text_5">
     <!-- log10(# f-evals / dimension) -->
     <g transform="translate(88.823278 339.314156)scale(0.17 -0.17)">
      <defs>
       <path id="DejaVuSans-6c" d="M 603 4863 
L 1178 4863 
L 1178 0 
L 603 0 
L 603 4863 
z
" transform="scale(0.015625)"/>
       <path id="DejaVuSans-6f" d="M 1959 3097 
Q 1497 3097 1228 2736 
Q 959 2375 959 1747 
Q 959 1119 1226 758 
Q 1494 397 1959 397 
Q 2419 397 2687 759 
Q 2956 1122 2956 1747 
Q 2956 2369 2687 2733 
Q 2419 3097 1959 3097 
z
M 1959 3584 
Q 2709 3584 3137 3096 
Q 3566 2609 3566 1747 
Q 3566 888 3137 398 
Q 2709 -91 1959 -91 
Q 1206 -91 779 398 
Q 353 888 353 1747 
Q 353 2609 779 3096 
Q 1206 3584 1959 3584 
z
" transform="scale(0.015625)"/>
       <path id="DejaVuSans-67" d="M 2906 1791 
Q 2906 2416 2648 2759 
Q 2391 3103 1925 3103 
Q 1463 3103 1205 2759 
Q 947 2416 947 1791 
Q 947 1169 1205 825 
Q 1463 481 1925 481 
Q 2391 481 2648 825 
Q 2906 1169 2906 1791 
z
M 3481 434 
Q 3481 -459 3084 -895 
Q 2688 -1331 1869 -1331 
Q 1566 -1331 1297 -1286 
Q 1028 -1241 775 -1147 
L 775 -588 
Q 1028 -725 1275 -790 
Q 1522 -856 1778 -856 
Q 2344 -856 2625 -561 
Q 2906 -266 2906 331 
L 2906 616 
Q 2728 306 2450 153 
Q 2172 0 1784 0 
Q 1141 0 747 490 
Q 353 981 353 1791 
Q 353 2603 747 3093 
Q 1141 3584 1784 3584 
Q 2172 3584 2450 3431 
Q 2728 3278 2906 2969 
L 2906 3500 
L 3481 3500 
L 3481 434 
z
" transform="scale(0.015625)"/>
       <path id="DejaVuSans-31" d="M 794 531 
L 1825 531 
L 1825 4091 
L 703 3866 
L 703 4441 
L 1819 4666 
L 2450 4666 
L 2450 531 
L 3481 531 
L 3481 0 
L 794 0 
L 794 531 
z
" transform="scale(0.015625)"/>
       <path id="DejaVuSans-28" d="M 1984 4856 
Q 1566 4138 1362 3434 
Q 1159 2731 1159 2009 
Q 1159 1288 1364 580 
Q 1569 -128 1984 -844 
L 1484 -844 
Q 1016 -109 783 600 
Q 550 1309 550 2009 
Q 550 2706 781 3412 
Q 1013 4119 1484 4856 
L 1984 4856 
z
" transform="scale(0.015625)"/>
       <path id="DejaVuSans-23" d="M 3272 2816 
L 2363 2816 
L 2100 1772 
L 3016 1772 
L 3272 2816 
z
M 2803 4594 
L 2478 3297 
L 3391 3297 
L 3719 4594 
L 4219 4594 
L 3897 3297 
L 4872 3297 
L 4872 2816 
L 3775 2816 
L 3519 1772 
L 4513 1772 
L 4513 1294 
L 3397 1294 
L 3072 0 
L 2572 0 
L 2894 1294 
L 1978 1294 
L 1656 0 
L 1153 0 
L 1478 1294 
L 494 1294 
L 494 1772 
L 1594 1772 
L 1856 2816 
L 850 2816 
L 850 3297 
L 1978 3297 
L 2297 4594 
L 2803 4594 
z
" transform="scale(0.015625)"/>
       <path id="DejaVuSans-20" transform="scale(0.015625)"/>
       <path id="DejaVuSans-66" d="M 2375 4863 
L 2375 4384 
L 1825 4384 
Q 1516 4384 1395 4259 
Q 1275 4134 1275 3809 
L 1275 3500 
L 2222 3500 
L 2222 3053 
L 1275 3053 
L 1275 0 
L 697 0 
L 697 3053 
L 147 3053 
L 147 3500 
L 697 3500 
L 697 3744 
Q 697 4328 969 4595 
Q 1241 4863 1831 4863 
L 2375 4863 
z
" transform="scale(0.015625)"/>
       <path id="DejaVuSans-2d" d="M 313 2009 
L 1997 2009 
L 1997 1497 
L 313 1497 
L 313 2009 
z
" transform="scale(0.015625)"/>
       <path id="DejaVuSans-65" d="M 3597 1894 
L 3597 1613 
L 953 1613 
Q 991 1019 1311 708 
Q 1631 397 2203 397 
Q 2534 397 2845 478 
Q 3156 559 3463 722 
L 3463 178 
Q 3153 47 2828 -22 
Q 2503 -91 2169 -91 
Q 1331 -91 842 396 
Q 353 884 353 1716 
Q 353 2575 817 3079 
Q 1281 3584 2069 3584 
Q 2775 3584 3186 3129 
Q 3597 2675 3597 1894 
z
M 3022 2063 
Q 3016 2534 2758 2815 
Q 2500 3097 2075 3097 
Q 1594 3097 1305 2825 
Q 1016 2553 972 2059 
L 3022 2063 
z
" transform="scale(0.015625)"/>
       <path id="DejaVuSans-76" d="M 191 3500 
L 800 3500 
L 1894 563 
L 2988 3500 
L 3597 3500 
L 2284 0 
L 1503 0 
L 191 3500 
z
" transform="scale(0.015625)"/>
       <path id="DejaVuSans-61" d="M 2194 1759 
Q 1497 1759 1228 1600 
Q 959 1441 959 1056 
Q 959 750 1161 570 
Q 1363 391 1709 391 
Q 2188 391 2477 730 
Q 2766 1069 2766 1631 
L 2766 1759 
L 2194 1759 
z
M 3341 1997 
L 3341 0 
L 2766 0 
L 2766 531 
Q 2569 213 2275 61 
Q 1981 -91 1556 -91 
Q 1019 -91 701 211 
Q 384 513 384 1019 
Q 384 1609 779 1909 
Q 1175 2209 1959 2209 
L 2766 2209 
L 2766 2266 
Q 2766 2663 2505 2880 
Q 2244 3097 1772 3097 
Q 1472 3097 1187 3025 
Q 903 2953 641 2809 
L 641 3341 
Q 956 3463 1253 3523 
Q 1550 3584 1831 3584 
Q 2591 3584 2966 3190 
Q 3341 2797 3341 1997 
z
" transform="scale(0.015625)"/>
       <path id="DejaVuSans-73" d="M 2834 3397 
L 2834 2853 
Q 2591 2978 2328 3040 
Q 2066 3103 1784 3103 
Q 1356 3103 1142 2972 
Q 928 2841 928 2578 
Q 928 2378 1081 2264 
Q 1234 2150 1697 2047 
L 1894 2003 
Q 2506 1872 2764 1633 
Q 3022 1394 3022 966 
Q 3022 478 2636 193 
Q 2250 -91 1575 -91 
Q 1294 -91 989 -36 
Q 684 19 347 128 
L 347 722 
Q 666 556 975 473 
Q 1284 391 1588 391 
Q 1994 391 2212 530 
Q 2431 669 2431 922 
Q 2431 1156 2273 1281 
Q 2116 1406 1581 1522 
L 1381 1569 
Q 847 1681 609 1914 
Q 372 2147 372 2553 
Q 372 3047 722 3315 
Q 1072 3584 1716 3584 
Q 2034 3584 2315 3537 
Q 2597 3491 2834 3397 
z
" transform="scale(0.015625)"/>
       <path id="DejaVuSans-2f" d="M 1625 4666 
L 2156 4666 
L 531 -594 
L 0 -594 
L 1625 4666 
z
" transform="scale(0.015625)"/>
       <path id="DejaVuSans-64" d="M 2906 2969 
L 2906 4863 
L 3481 4863 
L 3481 0 
L 2906 0 
L 2906 525 
Q 2725 213 2448 61 
Q 2172 -91 1784 -91 
Q 1150 -91 751 415 
Q 353 922 353 1747 
Q 353 2572 751 3078 
Q 1150 3584 1784 3584 
Q 2172 3584 2448 3432 
Q 2725 3281 2906 2969 
z
M 947 1747 
Q 947 1113 1208 752 
Q 1469 391 1925 391 
Q 2381 391 2643 752 
Q 2906 1113 2906 1747 
Q 2906 2381 2643 2742 
Q 2381 3103 1925 3103 
Q 1469 3103 1208 2742 
Q 947 2381 947 1747 
z
" transform="scale(0.015625)"/>
       <path id="DejaVuSans-69" d="M 603 3500 
L 1178 3500 
L 1178 0 
L 603 0 
L 603 3500 
z
M 603 4863 
L 1178 4863 
L 1178 4134 
L 603 4134 
L 603 4863 
z
" transform="scale(0.015625)"/>
       <path id="DejaVuSans-6d" d="M 3328 2828 
Q 3544 3216 3844 3400 
Q 4144 3584 4550 3584 
Q 5097 3584 5394 3201 
Q 5691 2819 5691 2113 
L 5691 0 
L 5113 0 
L 5113 2094 
Q 5113 2597 4934 2840 
Q 4756 3084 4391 3084 
Q 3944 3084 3684 2787 
Q 3425 2491 3425 1978 
L 3425 0 
L 2847 0 
L 2847 2094 
Q 2847 2600 2669 2842 
Q 2491 3084 2119 3084 
Q 1678 3084 1418 2786 
Q 1159 2488 1159 1978 
L 1159 0 
L 581 0 
L 581 3500 
L 1159 3500 
L 1159 2956 
Q 1356 3278 1631 3431 
Q 1906 3584 2284 3584 
Q 2666 3584 2933 3390 
Q 3200 3197 3328 2828 
z
" transform="scale(0.015625)"/>
       <path id="DejaVuSans-6e" d="M 3513 2113 
L 3513 0 
L 2938 0 
L 2938 2094 
Q 2938 2591 2744 2837 
Q 2550 3084 2163 3084 
Q 1697 3084 1428 2787 
Q 1159 2491 1159 1978 
L 1159 0 
L 581 0 
L 581 3500 
L 1159 3500 
L 1159 2956 
Q 1366 3272 1645 3428 
Q 1925 3584 2291 3584 
Q 2894 3584 3203 3211 
Q 3513 2838 3513 2113 
z
" transform="scale(0.015625)"/>
       <path id="DejaVuSans-29" d="M 513 4856 
L 1013 4856 
Q 1481 4119 1714 3412 
Q 1947 2706 1947 2009 
Q 1947 1309 1714 600 
Q 1481 -109 1013 -844 
L 513 -844 
Q 928 -128 1133 580 
Q 1338 1288 1338 2009 
Q 1338 2731 1133 3434 
Q 928 4138 513 4856 
z
" transform="scale(0.015625)"/>
      </defs>
      <use xlink:href="#DejaVuSans-6c"/>
      <use xlink:href="#DejaVuSans-6f" x="27.783203"/>
      <use xlink:href="#DejaVuSans-67" x="88.964844"/>
      <use xlink:href="#DejaVuSans-31" x="152.441406"/>
      <use xlink:href="#DejaVuSans-30" x="216.064453"/>
      <use xlink:href="#DejaVuSans-28" x="279.6875"/>
      <use xlink:href="#DejaVuSans-23" x="318.701172"/>
      <use xlink:href="#DejaVuSans-20" x="402.490234"/>
      <use xlink:href="#DejaVuSans-66" x="434.277344"/>
      <use xlink:href="#DejaVuSans-2d" x="463.982422"/>
      <use xlink:href="#DejaVuSans-65" x="500.066406"/>
      <use xlink:href="#DejaVuSans-76" x="561.589844"/>
      <use xlink:href="#DejaVuSans-61" x="620.769531"/>
      <use xlink:href="#DejaVuSans-6c" x="682.048828"/>
      <use xlink:href="#DejaVuSans-73" x="709.832031"/>
      <use xlink:href="#DejaVuSans-20" x="761.931641"/>
      <use xlink:href="#DejaVuSans-2f" x="793.71875"/>
      <use xlink:href="#DejaVuSans-20" x="827.410156"/>
      <use xlink:href="#DejaVuSans-64" x="859.197266"/>
      <use xlink:href="#DejaVuSans-69" x="922.673828"/>
      <use xlink:href="#DejaVuSans-6d" x="950.457031"/>
      <use xlink:href="#DejaVuSans-65" x="1047.869141"/>
      <use xlink:href="#DejaVuSans-6e" x="1109.392578"/>
      <use xlink:href="#DejaVuSans-73" x="1172.771484"/>
      <use xlink:href="#DejaVuSans-69" x="1224.871094"/>
      <use xlink:href="#DejaVuSans-6f" x="1252.654297"/>
      <use xlink:href="#DejaVuSans-6e" x="1313.835938"/>
      <use xlink:href="#DejaVuSans-29" x="1377.214844"/>
     </g>
    </g>
   </g>
   <g id="matplotlib.axis_2">
    <g id="ytick_1">
     <g id="line2d_17">
      <path d="M 57.6 298.944 
L 360.8064 298.944 
" clip-path="url(#p0b6a801006)" style="fill: none; stroke: #b0b0b0; stroke-width: 0.8; stroke-linecap: square"/>
     </g>
     <g id="line2d_18">
      <defs>
       <path id="m2420f740ad" d="M 0 0 
L -3.5 0 
" style="stroke: #000000; stroke-width: 0.8"/>
      </defs>
      <g>
       <use xlink:href="#m2420f740ad" x="57.6" y="298.944" style="stroke: #000000; stroke-width: 0.8"/>
      </g>
     </g>
     <g id="text_6">
      <!-- 0.0 -->
      <g transform="translate(25.155 305.02275)scale(0.16 -0.16)">
       <defs>
        <path id="DejaVuSans-2e" d="M 684 794 
L 1344 794 
L 1344 0 
L 684 0 
L 684 794 
z
" transform="scale(0.015625)"/>
       </defs>
       <use xlink:href="#DejaVuSans-30"/>
       <use xlink:href="#DejaVuSans-2e" x="63.623047"/>
       <use xlink:href="#DejaVuSans-30" x="95.410156"/>
      </g>
     </g>
    </g>
    <g id="ytick_2">
     <g id="line2d_19">
      <path d="M 57.6 240.5376 
L 360.8064 240.5376 
" clip-path="url(#p0b6a801006)" style="fill: none; stroke: #b0b0b0; stroke-width: 0.8; stroke-linecap: square"/>
     </g>
     <g id="line2d_20">
      <g>
       <use xlink:href="#m2420f740ad" x="57.6" y="240.5376" style="stroke: #000000; stroke-width: 0.8"/>
      </g>
     </g>
     <g id="text_7">
      <!-- 0.2 -->
      <g transform="translate(25.155 246.61635)scale(0.16 -0.16)">
       <use xlink:href="#DejaVuSans-30"/>
       <use xlink:href="#DejaVuSans-2e" x="63.623047"/>
       <use xlink:href="#DejaVuSans-32" x="95.410156"/>
      </g>
     </g>
    </g>
    <g id="ytick_3">
     <g id="line2d_21">
      <path d="M 57.6 182.1312 
L 360.8064 182.1312 
" clip-path="url(#p0b6a801006)" style="fill: none; stroke: #b0b0b0; stroke-width: 0.8; stroke-linecap: square"/>
     </g>
     <g id="line2d_22">
      <g>
       <use xlink:href="#m2420f740ad" x="57.6" y="182.1312" style="stroke: #000000; stroke-width: 0.8"/>
      </g>
     </g>
     <g id="text_8">
      <!-- 0.4 -->
      <g transform="translate(25.155 188.20995)scale(0.16 -0.16)">
       <use xlink:href="#DejaVuSans-30"/>
       <use xlink:href="#DejaVuSans-2e" x="63.623047"/>
       <use xlink:href="#DejaVuSans-34" x="95.410156"/>
      </g>
     </g>
    </g>
    <g id="ytick_4">
     <g id="line2d_23">
      <path d="M 57.6 123.7248 
L 360.8064 123.7248 
" clip-path="url(#p0b6a801006)" style="fill: none; stroke: #b0b0b0; stroke-width: 0.8; stroke-linecap: square"/>
     </g>
     <g id="line2d_24">
      <g>
       <use xlink:href="#m2420f740ad" x="57.6" y="123.7248" style="stroke: #000000; stroke-width: 0.8"/>
      </g>
     </g>
     <g id="text_9">
      <!-- 0.6 -->
      <g transform="translate(25.155 129.80355)scale(0.16 -0.16)">
       <use xlink:href="#DejaVuSans-30"/>
       <use xlink:href="#DejaVuSans-2e" x="63.623047"/>
       <use xlink:href="#DejaVuSans-36" x="95.410156"/>
      </g>
     </g>
    </g>
    <g id="ytick_5">
     <g id="line2d_25">
      <path d="M 57.6 65.3184 
L 360.8064 65.3184 
" clip-path="url(#p0b6a801006)" style="fill: none; stroke: #b0b0b0; stroke-width: 0.8; stroke-linecap: square"/>
     </g>
     <g id="line2d_26">
      <g>
       <use xlink:href="#m2420f740ad" x="57.6" y="65.3184" style="stroke: #000000; stroke-width: 0.8"/>
      </g>
     </g>
     <g id="text_10">
      <!-- 0.8 -->
      <g transform="translate(25.155 71.39715)scale(0.16 -0.16)">
       <defs>
        <path id="DejaVuSans-38" d="M 2034 2216 
Q 1584 2216 1326 1975 
Q 1069 1734 1069 1313 
Q 1069 891 1326 650 
Q 1584 409 2034 409 
Q 2484 409 2743 651 
Q 3003 894 3003 1313 
Q 3003 1734 2745 1975 
Q 2488 2216 2034 2216 
z
M 1403 2484 
Q 997 2584 770 2862 
Q 544 3141 544 3541 
Q 544 4100 942 4425 
Q 1341 4750 2034 4750 
Q 2731 4750 3128 4425 
Q 3525 4100 3525 3541 
Q 3525 3141 3298 2862 
Q 3072 2584 2669 2484 
Q 3125 2378 3379 2068 
Q 3634 1759 3634 1313 
Q 3634 634 3220 271 
Q 2806 -91 2034 -91 
Q 1263 -91 848 271 
Q 434 634 434 1313 
Q 434 1759 690 2068 
Q 947 2378 1403 2484 
z
M 1172 3481 
Q 1172 3119 1398 2916 
Q 1625 2713 2034 2713 
Q 2441 2713 2670 2916 
Q 2900 3119 2900 3481 
Q 2900 3844 2670 4047 
Q 2441 4250 2034 4250 
Q 1625 4250 1398 4047 
Q 1172 3844 1172 3481 
z
" transform="scale(0.015625)"/>
       </defs>
       <use xlink:href="#DejaVuSans-30"/>
       <use xlink:href="#DejaVuSans-2e" x="63.623047"/>
       <use xlink:href="#DejaVuSans-38" x="95.410156"/>
      </g>
     </g>
    </g>
    <g id="ytick_6">
     <g id="line2d_27">
      <path d="M 57.6 6.912 
L 360.8064 6.912 
" clip-path="url(#p0b6a801006)" style="fill: none; stroke: #b0b0b0; stroke-width: 0.8; stroke-linecap: square"/>
     </g>
     <g id="line2d_28">
      <g>
       <use xlink:href="#m2420f740ad" x="57.6" y="6.912" style="stroke: #000000; stroke-width: 0.8"/>
      </g>
     </g>
     <g id="text_11">
      <!-- 1.0 -->
      <g transform="translate(25.155 12.99075)scale(0.16 -0.16)">
       <use xlink:href="#DejaVuSans-31"/>
       <use xlink:href="#DejaVuSans-2e" x="63.623047"/>
       <use xlink:href="#DejaVuSans-30" x="95.410156"/>
      </g>
     </g>
    </g>
    <g id="text_12">
     <!-- Fraction of function,target pairs -->
     <g transform="translate(17.619531 287.313)rotate(-90)scale(0.17 -0.17)">
      <defs>
       <path id="DejaVuSans-46" d="M 628 4666 
L 3309 4666 
L 3309 4134 
L 1259 4134 
L 1259 2759 
L 3109 2759 
L 3109 2228 
L 1259 2228 
L 1259 0 
L 628 0 
L 628 4666 
z
" transform="scale(0.015625)"/>
       <path id="DejaVuSans-72" d="M 2631 2963 
Q 2534 3019 2420 3045 
Q 2306 3072 2169 3072 
Q 1681 3072 1420 2755 
Q 1159 2438 1159 1844 
L 1159 0 
L 581 0 
L 581 3500 
L 1159 3500 
L 1159 2956 
Q 1341 3275 1631 3429 
Q 1922 3584 2338 3584 
Q 2397 3584 2469 3576 
Q 2541 3569 2628 3553 
L 2631 2963 
z
" transform="scale(0.015625)"/>
       <path id="DejaVuSans-63" d="M 3122 3366 
L 3122 2828 
Q 2878 2963 2633 3030 
Q 2388 3097 2138 3097 
Q 1578 3097 1268 2742 
Q 959 2388 959 1747 
Q 959 1106 1268 751 
Q 1578 397 2138 397 
Q 2388 397 2633 464 
Q 2878 531 3122 666 
L 3122 134 
Q 2881 22 2623 -34 
Q 2366 -91 2075 -91 
Q 1284 -91 818 406 
Q 353 903 353 1747 
Q 353 2603 823 3093 
Q 1294 3584 2113 3584 
Q 2378 3584 2631 3529 
Q 2884 3475 3122 3366 
z
" transform="scale(0.015625)"/>
       <path id="DejaVuSans-74" d="M 1172 4494 
L 1172 3500 
L 2356 3500 
L 2356 3053 
L 1172 3053 
L 1172 1153 
Q 1172 725 1289 603 
Q 1406 481 1766 481 
L 2356 481 
L 2356 0 
L 1766 0 
Q 1100 0 847 248 
Q 594 497 594 1153 
L 594 3053 
L 172 3053 
L 172 3500 
L 594 3500 
L 594 4494 
L 1172 4494 
z
" transform="scale(0.015625)"/>
       <path id="DejaVuSans-75" d="M 544 1381 
L 544 3500 
L 1119 3500 
L 1119 1403 
Q 1119 906 1312 657 
Q 1506 409 1894 409 
Q 2359 409 2629 706 
Q 2900 1003 2900 1516 
L 2900 3500 
L 3475 3500 
L 3475 0 
L 2900 0 
L 2900 538 
Q 2691 219 2414 64 
Q 2138 -91 1772 -91 
Q 1169 -91 856 284 
Q 544 659 544 1381 
z
M 1991 3584 
L 1991 3584 
z
" transform="scale(0.015625)"/>
       <path id="DejaVuSans-2c" d="M 750 794 
L 1409 794 
L 1409 256 
L 897 -744 
L 494 -744 
L 750 256 
L 750 794 
z
" transform="scale(0.015625)"/>
       <path id="DejaVuSans-70" d="M 1159 525 
L 1159 -1331 
L 581 -1331 
L 581 3500 
L 1159 3500 
L 1159 2969 
Q 1341 3281 1617 3432 
Q 1894 3584 2278 3584 
Q 2916 3584 3314 3078 
Q 3713 2572 3713 1747 
Q 3713 922 3314 415 
Q 2916 -91 2278 -91 
Q 1894 -91 1617 61 
Q 1341 213 1159 525 
z
M 3116 1747 
Q 3116 2381 2855 2742 
Q 2594 3103 2138 3103 
Q 1681 3103 1420 2742 
Q 1159 2381 1159 1747 
Q 1159 1113 1420 752 
Q 1681 391 2138 391 
Q 2594 391 2855 752 
Q 3116 1113 3116 1747 
z
" transform="scale(0.015625)"/>
      </defs>
      <use xlink:href="#DejaVuSans-46"/>
      <use xlink:href="#DejaVuSans-72" x="50.269531"/>
      <use xlink:href="#DejaVuSans-61" x="91.382812"/>
      <use xlink:href="#DejaVuSans-63" x="152.662109"/>
      <use xlink:href="#DejaVuSans-74" x="207.642578"/>
      <use xlink:href="#DejaVuSans-69" x="246.851562"/>
      <use xlink:href="#DejaVuSans-6f" x="274.634766"/>
      <use xlink:href="#DejaVuSans-6e" x="335.816406"/>
      <use xlink:href="#DejaVuSans-20" x="399.195312"/>
      <use xlink:href="#DejaVuSans-6f" x="430.982422"/>
      <use xlink:href="#DejaVuSans-66" x="492.164062"/>
      <use xlink:href="#DejaVuSans-20" x="527.369141"/>
      <use xlink:href="#DejaVuSans-66" x="559.15625"/>
      <use xlink:href="#DejaVuSans-75" x="594.361328"/>
      <use xlink:href="#DejaVuSans-6e" x="657.740234"/>
      <use xlink:href="#DejaVuSans-63" x="721.119141"/>
      <use xlink:href="#DejaVuSans-74" x="776.099609"/>
      <use xlink:href="#DejaVuSans-69" x="815.308594"/>
      <use xlink:href="#DejaVuSans-6f" x="843.091797"/>
      <use xlink:href="#DejaVuSans-6e" x="904.273438"/>
      <use xlink:href="#DejaVuSans-2c" x="967.652344"/>
      <use xlink:href="#DejaVuSans-74" x="999.439453"/>
      <use xlink:href="#DejaVuSans-61" x="1038.648438"/>
      <use xlink:href="#DejaVuSans-72" x="1099.927734"/>
      <use xlink:href="#DejaVuSans-67" x="1139.291016"/>
      <use xlink:href="#DejaVuSans-65" x="1202.767578"/>
      <use xlink:href="#DejaVuSans-74" x="1264.291016"/>
      <use xlink:href="#DejaVuSans-20" x="1303.5"/>
      <use xlink:href="#DejaVuSans-70" x="1335.287109"/>
      <use xlink:href="#DejaVuSans-61" x="1398.763672"/>
      <use xlink:href="#DejaVuSans-69" x="1460.042969"/>
      <use xlink:href="#DejaVuSans-72" x="1487.826172"/>
      <use xlink:href="#DejaVuSans-73" x="1528.939453"/>
     </g>
    </g>
   </g>
   <g id="line2d_29">
    <defs>
     <path id="m00cf55b665" d="M 0 1.5 
C 0.397805 1.5 0.77937 1.341951 1.06066 1.06066 
C 1.341951 0.77937 1.5 0.397805 1.5 0 
C 1.5 -0.397805 1.341951 -0.77937 1.06066 -1.06066 
C 0.77937 -1.341951 0.397805 -1.5 0 -1.5 
C -0.397805 -1.5 -0.77937 -1.341951 -1.06066 -1.06066 
C -1.341951 -0.77937 -1.5 -0.397805 -1.5 0 
C -1.5 0.397805 -1.341951 0.77937 -1.06066 1.06066 
C -0.77937 1.341951 -0.397805 1.5 0 1.5 
z
" style="stroke: #000080"/>
    </defs>
    <g>
     <use xlink:href="#m00cf55b665" x="205.01428" y="201.767834" style="fill: #000080; stroke: #000080"/>
     <use xlink:href="#m00cf55b665" x="205.01428" y="201.767834" style="fill: #000080; stroke: #000080"/>
    </g>
   </g>
   <g id="line2d_30">
    <path d="M 44.560826 298.944 
L 44.560826 287.363421 
L 57.6 287.363421 
L 57.6 286.859917 
L 65.227428 286.859917 
L 65.227428 286.356414 
L 70.639174 286.356414 
L 70.639174 283.838897 
L 81.166416 283.838897 
L 81.166416 281.321379 
L 89.668958 281.321379 
L 89.668958 279.810869 
L 95.503454 279.810869 
L 95.503454 279.307366 
L 98.933205 279.307366 
L 98.933205 278.803862 
L 102.708132 278.803862 
L 102.708132 278.300359 
L 104.344952 278.300359 
L 104.344952 277.796855 
L 113.954374 277.796855 
L 113.954374 275.279338 
L 114.872193 275.279338 
L 114.872193 274.775834 
L 116.583514 274.775834 
L 116.583514 274.272331 
L 116.988079 274.272331 
L 116.988079 273.265324 
L 117.772007 273.265324 
L 117.772007 272.761821 
L 118.152051 272.761821 
L 118.152051 271.754814 
L 120.28394 271.754814 
L 120.28394 270.747807 
L 121.581803 270.747807 
L 121.581803 270.244303 
L 122.19863 270.244303 
L 122.19863 269.237297 
L 122.795872 269.237297 
L 122.795872 268.733793 
L 123.374735 268.733793 
L 123.374735 267.726786 
L 123.657621 267.726786 
L 123.657621 267.223283 
L 123.936316 267.223283 
L 123.936316 266.719779 
L 125.779479 266.719779 
L 125.779479 266.216276 
L 126.517282 266.216276 
L 126.517282 265.209269 
L 130.4233 265.209269 
L 130.4233 264.202262 
L 136.413909 264.202262 
L 136.413909 263.698759 
L 136.836659 263.698759 
L 136.836659 262.691752 
L 136.97549 262.691752 
L 136.97549 261.684745 
L 137.113304 261.684745 
L 137.113304 261.181241 
L 138.943648 261.181241 
L 138.943648 260.677738 
L 140.950542 260.677738 
L 140.950542 260.174234 
L 144.041338 260.174234 
L 144.041338 259.167228 
L 144.324223 259.167228 
L 144.324223 258.663724 
L 144.510478 258.663724 
L 144.510478 258.160221 
L 144.694906 258.160221 
L 144.786447 257.153214 
L 145.058426 257.153214 
L 145.058426 256.146207 
L 145.503164 256.146207 
L 145.503164 254.635697 
L 146.695245 254.635697 
L 146.695245 254.132193 
L 146.859539 254.132193 
L 146.859539 253.62869 
L 147.022411 253.62869 
L 147.022411 253.125186 
L 147.581606 253.125186 
L 147.581606 252.118179 
L 148.048032 252.118179 
L 148.048032 251.614676 
L 150.289291 251.614676 
L 150.289291 251.111172 
L 151.41369 251.111172 
L 151.41369 250.104166 
L 152.413875 250.104166 
L 152.413875 249.600662 
L 153.305585 249.600662 
L 153.305585 249.097159 
L 153.421349 249.097159 
L 153.421349 248.593655 
L 153.593669 248.593655 
L 153.593669 247.586648 
L 154.432362 247.586648 
L 154.432362 247.083145 
L 155.495444 247.083145 
L 155.495444 246.076138 
L 158.976805 246.076138 
L 158.976805 245.572634 
L 159.232748 245.572634 
L 159.232748 245.069131 
L 159.775628 245.069131 
L 159.775628 244.565628 
L 160.660094 244.565628 
L 160.660094 243.558621 
L 163.328465 243.558621 
L 163.328465 243.055117 
L 163.766354 243.055117 
L 163.766354 242.04811 
L 164.420735 242.04811 
L 164.420735 241.041103 
L 164.676244 241.041103 
L 164.739583 239.530593 
L 165.300233 239.530593 
L 165.300233 238.523586 
L 166.315707 238.523586 
L 166.315707 238.020083 
L 168.037137 238.020083 
L 168.037137 237.516579 
L 168.508761 237.516579 
L 168.508761 236.509572 
L 169.144777 236.509572 
L 169.144777 236.006069 
L 170.635104 236.006069 
L 170.635104 234.999062 
L 171.669213 234.999062 
L 171.669213 233.992055 
L 172.835373 233.992055 
L 172.835373 232.985048 
L 173.521707 232.985048 
L 173.521707 231.978041 
L 174.767961 231.978041 
L 174.860492 230.467531 
L 175.334451 230.467531 
L 175.334451 229.460524 
L 176.435674 229.460524 
L 176.435674 228.453517 
L 176.671876 228.453517 
L 176.671876 227.44651 
L 177.233457 227.44651 
L 177.233457 226.439503 
L 178.553005 226.439503 
L 178.553005 225.936 
L 179.470823 225.936 
L 179.470823 225.432497 
L 181.689715 225.432497 
L 181.689715 224.928993 
L 182.457127 224.928993 
L 182.457127 223.921986 
L 182.616704 223.921986 
L 182.616704 222.914979 
L 182.750681 222.914979 
L 182.750681 221.907972 
L 183.881127 221.907972 
L 183.881127 220.900966 
L 184.565667 220.900966 
L 184.565667 219.893959 
L 185.098054 219.893959 
L 185.098054 218.886952 
L 186.321495 218.886952 
L 186.371619 217.879945 
L 187.078977 217.879945 
L 187.078977 217.376441 
L 187.194327 217.376441 
L 187.194327 216.872938 
L 189.902879 216.872938 
L 190.010445 215.362428 
L 190.109194 215.362428 
L 190.109194 214.355421 
L 190.264493 214.355421 
L 190.264493 213.348414 
L 192.056685 213.348414 
L 192.056685 212.341407 
L 193.135213 212.341407 
L 193.135213 211.837903 
L 193.94223 211.837903 
L 193.94223 210.830897 
L 196.55681 210.830897 
L 196.55681 209.82389 
L 197.654367 209.82389 
L 197.709243 207.809876 
L 197.780344 207.809876 
L 197.780344 206.802869 
L 198.056711 206.802869 
L 198.147938 205.292359 
L 198.545212 205.292359 
L 198.545212 204.788855 
L 200.36243 204.788855 
L 200.36243 204.285352 
L 201.857539 204.285352 
L 201.857539 203.781848 
L 203.008321 203.781848 
L 203.008321 202.774841 
L 203.935981 202.774841 
L 203.935981 202.271338 
L 205.01428 202.271338 
L 205.01428 201.767834 
L 360.8064 201.767834 
L 360.8064 201.767834 
" style="fill: none; stroke: #000080; stroke-width: 1.5; stroke-linecap: square"/>
   </g>
   <g id="line2d_31">
    <defs>
     <path id="md30cc4e2e9" d="M 0 6 
C 1.591219 6 3.117479 5.367802 4.242641 4.242641 
C 5.367802 3.117479 6 1.591219 6 0 
C 6 -1.591219 5.367802 -3.117479 4.242641 -4.242641 
C 3.117479 -5.367802 1.591219 -6 0 -6 
C -1.591219 -6 -3.117479 -5.367802 -4.242641 -4.242641 
C -5.367802 -3.117479 -6 -1.591219 -6 0 
C -6 1.591219 -5.367802 3.117479 -4.242641 4.242641 
C -3.117479 5.367802 -1.591219 6 0 6 
z
" style="stroke: #000080; stroke-width: 1.5"/>
    </defs>
    <g>
     <use xlink:href="#md30cc4e2e9" x="104.344952" y="277.796855" style="fill-opacity: 0; stroke: #000080; stroke-width: 1.5"/>
     <use xlink:href="#md30cc4e2e9" x="152.413875" y="249.600662" style="fill-opacity: 0; stroke: #000080; stroke-width: 1.5"/>
     <use xlink:href="#md30cc4e2e9" x="190.264493" y="213.348414" style="fill-opacity: 0; stroke: #000080; stroke-width: 1.5"/>
     <use xlink:href="#md30cc4e2e9" x="205.01428" y="202.271338" style="fill-opacity: 0; stroke: #000080; stroke-width: 1.5"/>
     <use xlink:href="#md30cc4e2e9" x="205.01428" y="201.767834" style="fill-opacity: 0; stroke: #000080; stroke-width: 1.5"/>
     <use xlink:href="#md30cc4e2e9" x="360.8064" y="201.767834" style="fill-opacity: 0; stroke: #000080; stroke-width: 1.5"/>
    </g>
   </g>
   <g id="line2d_32">
    <path style="fill: none; stroke: #000080; stroke-width: 1.5; stroke-linecap: square"/>
    <g/>
   </g>
   <g id="line2d_33">
    <path d="M 205.158657 201.767834 
" clip-path="url(#p0b6a801006)" style="fill: none; stroke: #000080; stroke-width: 1.5; stroke-linecap: square"/>
    <defs>
     <path id="mc1ef2eba3a" d="M -12 12 
L 12 -12 
M -12 -12 
L 12 12 
" style="stroke: #000080"/>
    </defs>
    <g clip-path="url(#p0b6a801006)">
     <use xlink:href="#mc1ef2eba3a" x="205.158657" y="201.767834" style="fill: #000080; stroke: #000080"/>
    </g>
   </g>
   <g id="line2d_34">
    <defs>
     <path id="m7d4653701f" d="M 0 1.5 
C 0.397805 1.5 0.77937 1.341951 1.06066 1.06066 
C 1.341951 0.77937 1.5 0.397805 1.5 0 
C 1.5 -0.397805 1.341951 -0.77937 1.06066 -1.06066 
C 0.77937 -1.341951 0.397805 -1.5 0 -1.5 
C -0.397805 -1.5 -0.77937 -1.341951 -1.06066 -1.06066 
C -1.341951 -0.77937 -1.5 -0.397805 -1.5 0 
C -1.5 0.397805 -1.341951 0.77937 -1.06066 1.06066 
C -0.77937 1.341951 -0.397805 1.5 0 1.5 
z
" style="stroke: #ff00ff"/>
    </defs>
    <g>
     <use xlink:href="#m7d4653701f" x="205.118048" y="189.683752" style="fill: #ff00ff; stroke: #ff00ff"/>
     <use xlink:href="#m7d4653701f" x="205.118048" y="189.683752" style="fill: #ff00ff; stroke: #ff00ff"/>
    </g>
   </g>
   <g id="line2d_35">
    <path d="M 44.560826 298.944 
L 44.560826 290.887945 
L 70.639174 290.887945 
L 70.639174 290.384441 
L 74.836851 290.384441 
L 74.836851 289.377434 
L 83.678349 289.377434 
L 83.678349 288.873931 
L 89.668958 288.873931 
L 89.668958 286.356414 
L 99.950294 286.356414 
L 99.950294 283.335393 
L 100.9152 283.335393 
L 100.9152 282.83189 
L 101.833019 282.83189 
L 101.833019 282.328386 
L 105.850679 282.328386 
L 105.850679 281.824883 
L 106.560633 281.824883 
L 106.560633 279.307366 
L 111.442442 279.307366 
L 111.442442 278.803862 
L 113.954374 278.803862 
L 113.954374 278.300359 
L 116.170056 278.300359 
L 116.170056 277.293352 
L 116.988079 277.293352 
L 116.988079 276.789848 
L 119.24818 276.789848 
L 119.24818 273.768828 
L 120.28394 273.768828 
L 120.28394 273.265324 
L 120.616896 273.265324 
L 120.616896 270.747807 
L 122.795872 270.747807 
L 122.795872 269.237297 
L 123.08753 269.237297 
L 123.08753 268.733793 
L 123.657621 268.733793 
L 123.657621 267.726786 
L 124.210942 267.726786 
L 124.210942 265.712772 
L 125.271028 265.712772 
L 125.271028 265.209269 
L 125.526971 265.209269 
L 125.526971 263.698759 
L 125.779479 263.698759 
L 125.779479 262.188248 
L 126.274549 262.188248 
L 126.274549 261.684745 
L 126.517282 261.684745 
L 126.517282 261.181241 
L 127.686077 261.181241 
L 127.686077 260.174234 
L 129.417095 260.174234 
L 129.417095 259.670731 
L 131.002163 259.670731 
L 131.002163 258.663724 
L 131.747272 258.663724 
L 131.747272 258.160221 
L 132.287354 258.160221 
L 132.287354 256.64971 
L 137.520791 256.64971 
L 137.520791 255.642703 
L 138.438609 255.642703 
L 138.438609 254.635697 
L 140.49723 254.635697 
L 140.49723 253.125186 
L 140.611586 253.125186 
L 140.611586 252.621683 
L 141.393187 252.621683 
L 141.393187 252.118179 
L 142.038218 252.118179 
L 142.038218 251.614676 
L 143.946089 251.614676 
L 143.946089 251.111172 
L 144.694906 251.111172 
L 144.694906 250.104166 
L 145.415054 250.104166 
L 145.415054 249.097159 
L 150.289291 249.097159 
L 150.289291 247.083145 
L 150.492661 247.083145 
L 150.492661 246.076138 
L 152.16877 246.076138 
L 152.16877 245.069131 
L 152.474656 245.069131 
L 152.474656 244.062124 
L 152.715833 244.062124 
L 152.715833 243.558621 
L 153.305585 243.558621 
L 153.305585 243.055117 
L 153.536404 243.055117 
L 153.593669 242.04811 
L 155.077392 242.04811 
L 155.077392 241.544607 
L 157.222487 241.544607 
L 157.222487 240.5376 
L 158.58624 240.5376 
L 158.58624 239.530593 
L 159.359426 239.530593 
L 159.359426 239.02709 
L 159.61025 239.02709 
L 159.61025 238.523586 
L 160.933013 238.523586 
L 161.010268 237.516579 
L 161.316153 237.516579 
L 161.316153 236.509572 
L 161.42959 236.509572 
L 161.42959 236.006069 
L 161.691646 236.006069 
L 161.691646 233.992055 
L 163.122872 233.992055 
L 163.122872 232.985048 
L 164.959603 232.985048 
L 164.959603 231.978041 
L 167.823671 231.978041 
L 167.823671 230.971034 
L 167.957371 230.971034 
L 167.957371 229.964028 
L 169.019282 229.964028 
L 169.019282 228.957021 
L 169.144777 228.957021 
L 169.169775 226.943007 
L 172.165703 226.943007 
L 172.165703 226.439503 
L 172.794209 226.439503 
L 172.794209 225.432497 
L 173.242125 225.432497 
L 173.242125 223.921986 
L 173.77765 223.921986 
L 173.836223 222.411476 
L 175.708734 222.411476 
L 175.708734 221.907972 
L 176.33353 221.907972 
L 176.33353 220.900966 
L 176.921701 220.900966 
L 176.921701 220.397462 
L 177.857632 220.397462 
L 177.857632 219.893959 
L 178.628705 219.893959 
L 178.628705 218.886952 
L 179.179617 218.886952 
L 179.179617 217.879945 
L 181.651154 217.879945 
L 181.651154 216.872938 
L 182.008023 216.872938 
L 182.008023 216.369434 
L 182.457127 216.369434 
L 182.457127 215.362428 
L 183.406618 215.362428 
L 183.406618 214.858924 
L 183.52346 214.858924 
L 183.52346 214.355421 
L 183.881127 214.355421 
L 183.881127 213.348414 
L 184.543614 213.348414 
L 184.543614 212.84491 
L 185.342847 212.84491 
L 185.342847 212.341407 
L 185.977062 212.341407 
L 185.977062 211.3344 
L 186.451541 211.3344 
L 186.481424 209.320386 
L 187.5456 209.320386 
L 187.5456 208.313379 
L 188.606202 208.313379 
L 188.606202 207.809876 
L 189.744553 207.809876 
L 189.819716 206.299366 
L 190.754593 206.299366 
L 190.754593 205.795862 
L 191.967672 205.795862 
L 191.967672 205.292359 
L 192.299324 205.292359 
L 192.299324 204.788855 
L 193.364413 204.788855 
L 193.364413 204.285352 
L 194.122118 204.285352 
L 194.122118 203.278345 
L 194.664577 203.278345 
L 194.664577 202.271338 
L 194.81856 202.271338 
L 194.81856 201.767834 
L 195.097631 201.767834 
L 195.173028 200.257324 
L 195.557837 200.257324 
L 195.557837 199.753821 
L 195.729075 199.753821 
L 195.729075 198.746814 
L 196.713453 198.746814 
L 196.742318 197.236303 
L 197.829411 197.236303 
L 197.829411 196.229297 
L 198.15329 196.229297 
L 198.15329 195.725793 
L 198.918861 195.725793 
L 198.918861 194.215283 
L 199.972963 194.215283 
L 200.060211 192.704772 
L 201.01254 192.704772 
L 201.01254 192.201269 
L 202.15839 192.201269 
L 202.15839 191.697766 
L 204.201707 191.697766 
L 204.201707 191.194262 
L 204.363977 191.194262 
L 204.363977 190.690759 
L 205.006846 190.690759 
L 205.006846 190.187255 
L 205.118048 190.187255 
L 205.118048 189.683752 
L 360.8064 189.683752 
L 360.8064 189.683752 
" style="fill: none; stroke: #ff00ff; stroke-width: 1.5; stroke-linecap: square"/>
   </g>
   <g id="line2d_36">
    <defs>
     <path id="m266600a57d" d="M 0 8.485281 
L 5.091169 0 
L 0 -8.485281 
L -5.091169 0 
z
" style="stroke: #ff00ff; stroke-width: 1.5; stroke-linejoin: miter"/>
    </defs>
    <g>
     <use xlink:href="#m266600a57d" x="106.560633" y="279.307366" style="fill-opacity: 0; stroke: #ff00ff; stroke-width: 1.5; stroke-linejoin: miter"/>
     <use xlink:href="#m266600a57d" x="163.122872" y="233.992055" style="fill-opacity: 0; stroke: #ff00ff; stroke-width: 1.5; stroke-linejoin: miter"/>
     <use xlink:href="#m266600a57d" x="205.118048" y="190.187255" style="fill-opacity: 0; stroke: #ff00ff; stroke-width: 1.5; stroke-linejoin: miter"/>
     <use xlink:href="#m266600a57d" x="205.118048" y="189.683752" style="fill-opacity: 0; stroke: #ff00ff; stroke-width: 1.5; stroke-linejoin: miter"/>
     <use xlink:href="#m266600a57d" x="205.118048" y="189.683752" style="fill-opacity: 0; stroke: #ff00ff; stroke-width: 1.5; stroke-linejoin: miter"/>
     <use xlink:href="#m266600a57d" x="360.8064" y="189.683752" style="fill-opacity: 0; stroke: #ff00ff; stroke-width: 1.5; stroke-linejoin: miter"/>
    </g>
   </g>
   <g id="line2d_37">
    <path style="fill: none; stroke: #ff00ff; stroke-width: 1.5; stroke-linecap: square"/>
    <g/>
   </g>
   <g id="line2d_38">
    <path d="M 205.158657 189.683752 
" clip-path="url(#p0b6a801006)" style="fill: none; stroke: #ff00ff; stroke-width: 1.5; stroke-linecap: square"/>
    <defs>
     <path id="m87827fbd5d" d="M -12 12 
L 12 -12 
M -12 -12 
L 12 12 
" style="stroke: #ff00ff"/>
    </defs>
    <g clip-path="url(#p0b6a801006)">
     <use xlink:href="#m87827fbd5d" x="205.158657" y="189.683752" style="fill: #ff00ff; stroke: #ff00ff"/>
    </g>
   </g>
   <g id="line2d_39">
    <defs>
     <path id="m4ffb8097ec" d="M 0 1.5 
C 0.397805 1.5 0.77937 1.341951 1.06066 1.06066 
C 1.341951 0.77937 1.5 0.397805 1.5 0 
C 1.5 -0.397805 1.341951 -0.77937 1.06066 -1.06066 
C 0.77937 -1.341951 0.397805 -1.5 0 -1.5 
C -0.397805 -1.5 -0.77937 -1.341951 -1.06066 -1.06066 
C -1.341951 -0.77937 -1.5 -0.397805 -1.5 0 
C -1.5 0.397805 -1.341951 0.77937 -1.06066 1.06066 
C -0.77937 1.341951 -0.397805 1.5 0 1.5 
z
" style="stroke: #ff7500"/>
    </defs>
    <g>
     <use xlink:href="#m4ffb8097ec" x="204.906199" y="148.396469" style="fill: #ff7500; stroke: #ff7500"/>
     <use xlink:href="#m4ffb8097ec" x="204.906199" y="148.396469" style="fill: #ff7500; stroke: #ff7500"/>
    </g>
   </g>
   <g id="line2d_40">
    <path d="M 44.560826 298.944 
L 44.560826 285.85291 
L 57.6 285.85291 
L 57.6 279.810869 
L 65.227428 279.810869 
L 65.227428 279.307366 
L 81.166416 279.307366 
L 81.166416 270.747807 
L 85.894031 270.747807 
L 85.894031 266.719779 
L 87.876026 266.719779 
L 87.876026 263.698759 
L 89.668958 263.698759 
L 89.668958 263.195255 
L 105.850679 263.195255 
L 105.850679 262.691752 
L 106.560633 262.691752 
L 106.560633 261.684745 
L 109.159456 261.684745 
L 109.159456 260.677738 
L 113.954374 260.677738 
L 113.954374 253.125186 
L 114.872193 253.125186 
L 114.872193 251.614676 
L 115.747307 251.614676 
L 115.747307 250.104166 
L 118.524569 250.104166 
L 118.524569 247.083145 
L 120.944062 247.083145 
L 120.944062 246.076138 
L 122.795872 246.076138 
L 122.795872 245.572634 
L 125.011554 245.572634 
L 125.011554 245.069131 
L 125.526971 245.069131 
L 125.526971 242.551614 
L 126.517282 242.551614 
L 126.517282 241.544607 
L 128.57149 241.544607 
L 128.57149 240.5376 
L 129.417095 240.5376 
L 129.417095 238.523586 
L 131.929028 238.523586 
L 131.929028 236.006069 
L 133.323114 236.006069 
L 133.323114 231.474538 
L 133.820365 231.474538 
L 133.820365 230.467531 
L 134.620977 230.467531 
L 134.620977 229.964028 
L 135.388902 229.964028 
L 135.388902 228.453517 
L 136.696795 228.453517 
L 136.696795 227.44651 
L 137.38594 227.44651 
L 137.38594 225.936 
L 138.438609 225.936 
L 138.438609 224.928993 
L 140.725251 224.928993 
L 140.725251 224.42549 
L 141.062184 224.42549 
L 141.062184 222.914979 
L 142.143605 222.914979 
L 142.143605 221.907972 
L 144.136106 221.907972 
L 144.136106 221.404469 
L 144.417581 221.404469 
L 144.510478 219.390455 
L 144.694906 219.390455 
L 144.694906 218.886952 
L 145.058426 218.886952 
L 145.058426 218.383448 
L 145.237585 218.383448 
L 145.326529 216.369434 
L 146.023332 216.369434 
L 146.023332 215.865931 
L 148.352679 215.865931 
L 148.352679 215.362428 
L 148.726679 215.362428 
L 148.726679 214.355421 
L 149.31003 214.355421 
L 149.31003 211.837903 
L 149.875833 211.837903 
L 149.875833 211.3344 
L 150.289291 211.3344 
L 150.289291 210.830897 
L 152.595631 210.830897 
L 152.595631 210.327393 
L 153.593669 210.327393 
L 153.593669 209.82389 
L 153.933646 209.82389 
L 153.933646 208.816883 
L 155.13016 208.816883 
L 155.13016 206.802869 
L 155.752086 206.802869 
L 155.752086 205.292359 
L 156.255099 205.292359 
L 156.255099 204.788855 
L 156.501649 204.788855 
L 156.550574 202.774841 
L 157.549652 202.774841 
L 157.549652 202.271338 
L 158.007377 202.271338 
L 158.007377 201.767834 
L 159.14782 201.767834 
L 159.14782 200.257324 
L 161.316153 200.257324 
L 161.316153 199.753821 
L 165.300233 199.753821 
L 165.300233 199.250317 
L 165.874446 199.250317 
L 165.874446 198.746814 
L 166.8036 198.746814 
L 166.8036 197.739807 
L 167.742992 197.739807 
L 167.742992 196.7328 
L 167.930707 196.7328 
L 167.930707 195.725793 
L 168.195663 195.725793 
L 168.195663 194.718786 
L 169.044448 194.718786 
L 169.044448 193.711779 
L 169.540824 193.711779 
L 169.540824 192.704772 
L 170.819081 192.704772 
L 170.819081 192.201269 
L 172.607852 192.201269 
L 172.711612 189.683752 
L 174.107176 189.683752 
L 174.107176 185.152221 
L 174.544011 185.152221 
L 174.544011 184.648717 
L 175.442151 184.648717 
L 175.442151 183.64171 
L 176.023726 183.64171 
L 176.023726 183.138207 
L 177.60406 183.138207 
L 177.60406 182.1312 
L 177.857632 182.1312 
L 177.857632 181.124193 
L 178.014396 181.124193 
L 178.014396 180.62069 
L 178.779198 180.62069 
L 178.779198 177.096166 
L 179.047089 177.096166 
L 179.047089 176.592662 
L 181.023172 176.592662 
L 181.116069 175.585655 
L 181.496113 175.585655 
L 181.522042 173.571641 
L 182.233915 173.571641 
L 182.233915 173.068138 
L 182.407753 173.068138 
L 182.407753 171.557628 
L 182.991858 171.557628 
L 182.991858 171.054124 
L 183.674278 171.054124 
L 183.777987 169.04011 
L 183.892552 169.04011 
L 183.892552 168.033103 
L 185.140856 168.033103 
L 185.140856 167.5296 
L 185.667825 167.5296 
L 185.667825 166.522593 
L 185.823079 166.522593 
L 185.823079 166.01909 
L 187.366036 166.01909 
L 187.366036 165.515586 
L 189.166736 165.515586 
L 189.166736 164.508579 
L 190.117399 164.508579 
L 190.117399 164.005076 
L 190.426593 164.005076 
L 190.426593 163.501572 
L 190.770448 163.501572 
L 190.817932 162.494566 
L 191.810877 162.494566 
L 191.810877 161.487559 
L 192.364958 161.487559 
L 192.364958 160.480552 
L 192.803878 160.480552 
L 192.903185 158.970041 
L 193.343691 158.970041 
L 193.343691 157.963034 
L 195.777715 157.963034 
L 195.777715 157.459531 
L 197.867485 157.459531 
L 197.867485 156.452524 
L 198.185374 156.452524 
L 198.185374 155.445517 
L 200.016637 155.445517 
L 200.118152 153.935007 
L 200.860218 153.935007 
L 200.860218 153.431503 
L 202.062988 153.431503 
L 202.062988 152.424497 
L 202.240396 152.424497 
L 202.240396 151.41749 
L 202.573352 151.41749 
L 202.573352 150.913986 
L 203.315873 150.913986 
L 203.315873 150.410483 
L 203.5744 150.410483 
L 203.5744 149.403476 
L 204.759864 149.403476 
L 204.759864 148.899972 
L 204.906199 148.899972 
L 204.906199 148.396469 
L 360.8064 148.396469 
L 360.8064 148.396469 
" style="fill: none; stroke: #ff7500; stroke-width: 1.5; stroke-linecap: square"/>
   </g>
   <g id="line2d_41">
    <defs>
     <path id="m6695a94ea2" d="M 0 -6 
L -1.347084 -1.854102 
L -5.706339 -1.854102 
L -2.179628 0.708204 
L -3.526712 4.854102 
L -0 2.291796 
L 3.526712 4.854102 
L 2.179628 0.708204 
L 5.706339 -1.854102 
L 1.347084 -1.854102 
z
" style="stroke: #ff7500; stroke-width: 1.5; stroke-linejoin: bevel"/>
    </defs>
    <g>
     <use xlink:href="#m6695a94ea2" x="144.694906" y="218.886952" style="fill-opacity: 0; stroke: #ff7500; stroke-width: 1.5; stroke-linejoin: bevel"/>
     <use xlink:href="#m6695a94ea2" x="192.903185" y="159.473545" style="fill-opacity: 0; stroke: #ff7500; stroke-width: 1.5; stroke-linejoin: bevel"/>
     <use xlink:href="#m6695a94ea2" x="204.906199" y="148.899972" style="fill-opacity: 0; stroke: #ff7500; stroke-width: 1.5; stroke-linejoin: bevel"/>
     <use xlink:href="#m6695a94ea2" x="204.906199" y="148.396469" style="fill-opacity: 0; stroke: #ff7500; stroke-width: 1.5; stroke-linejoin: bevel"/>
     <use xlink:href="#m6695a94ea2" x="204.906199" y="148.396469" style="fill-opacity: 0; stroke: #ff7500; stroke-width: 1.5; stroke-linejoin: bevel"/>
     <use xlink:href="#m6695a94ea2" x="360.8064" y="148.396469" style="fill-opacity: 0; stroke: #ff7500; stroke-width: 1.5; stroke-linejoin: bevel"/>
    </g>
   </g>
   <g id="line2d_42">
    <path style="fill: none; stroke: #ff7500; stroke-width: 1.5; stroke-linecap: square"/>
    <g/>
   </g>
   <g id="line2d_43">
    <path d="M 205.158657 148.396469 
" clip-path="url(#p0b6a801006)" style="fill: none; stroke: #ff7500; stroke-width: 1.5; stroke-linecap: square"/>
    <defs>
     <path id="mc83a76527d" d="M -12 12 
L 12 -12 
M -12 -12 
L 12 12 
" style="stroke: #ff7500"/>
    </defs>
    <g clip-path="url(#p0b6a801006)">
     <use xlink:href="#mc83a76527d" x="205.158657" y="148.396469" style="fill: #ff7500; stroke: #ff7500"/>
    </g>
   </g>
   <g id="line2d_44">
    <defs>
     <path id="m4e17e92c0f" d="M 0 1.5 
C 0.397805 1.5 0.77937 1.341951 1.06066 1.06066 
C 1.341951 0.77937 1.5 0.397805 1.5 0 
C 1.5 -0.397805 1.341951 -0.77937 1.06066 -1.06066 
C 0.77937 -1.341951 0.397805 -1.5 0 -1.5 
C -0.397805 -1.5 -0.77937 -1.341951 -1.06066 -1.06066 
C -1.341951 -0.77937 -1.5 -0.397805 -1.5 0 
C -1.5 0.397805 -1.341951 0.77937 -1.06066 1.06066 
C -0.77937 1.341951 -0.397805 1.5 0 1.5 
z
" style="stroke: #6495ed"/>
    </defs>
    <g>
     <use xlink:href="#m4e17e92c0f" x="204.302325" y="134.801876" style="fill: #6495ed; stroke: #6495ed"/>
     <use xlink:href="#m4e17e92c0f" x="204.302325" y="134.801876" style="fill: #6495ed; stroke: #6495ed"/>
    </g>
   </g>
   <g id="line2d_45">
    <path d="M 44.560826 298.944 
L 44.560826 280.314372 
L 57.6 280.314372 
L 57.6 279.810869 
L 70.639174 279.810869 
L 70.639174 275.782841 
L 78.266603 275.782841 
L 78.266603 271.25131 
L 87.876026 271.25131 
L 87.876026 263.698759 
L 92.811505 263.698759 
L 92.811505 263.195255 
L 95.503454 263.195255 
L 95.503454 262.188248 
L 98.933205 262.188248 
L 98.933205 259.670731 
L 99.950294 259.670731 
L 99.950294 258.160221 
L 102.708132 258.160221 
L 102.708132 254.132193 
L 103.544339 254.132193 
L 103.544339 252.621683 
L 106.560633 252.621683 
L 106.560633 252.118179 
L 107.904887 252.118179 
L 107.904887 248.090152 
L 113.478107 248.090152 
L 113.478107 246.579641 
L 118.889854 246.579641 
L 118.889854 244.565628 
L 121.892744 244.565628 
L 121.892744 242.04811 
L 122.795872 242.04811 
L 122.795872 238.020083 
L 123.08753 238.020083 
L 123.08753 236.509572 
L 123.374735 236.509572 
L 123.374735 235.502566 
L 123.657621 235.502566 
L 123.657621 234.999062 
L 125.271028 234.999062 
L 125.271028 232.481545 
L 126.028642 232.481545 
L 126.028642 230.971034 
L 129.209231 230.971034 
L 129.209231 229.964028 
L 134.14471 229.964028 
L 134.14471 229.460524 
L 136.696795 229.460524 
L 136.696795 227.950014 
L 138.818654 227.950014 
L 138.818654 227.44651 
L 141.393187 227.44651 
L 141.393187 226.439503 
L 145.058426 226.439503 
L 145.058426 225.936 
L 145.415054 225.936 
L 145.503164 222.914979 
L 148.048032 222.914979 
L 148.124658 221.907972 
L 148.800595 221.907972 
L 148.800595 217.376441 
L 151.54166 217.376441 
L 151.54166 206.299366 
L 152.16877 206.299366 
L 152.16877 205.795862 
L 152.53524 205.795862 
L 152.53524 204.788855 
L 154.971412 204.788855 
L 154.971412 203.278345 
L 156.354107 203.278345 
L 156.354107 202.271338 
L 156.985263 202.271338 
L 156.985263 201.264331 
L 157.363398 201.264331 
L 157.363398 200.760828 
L 157.734081 200.760828 
L 157.734081 199.753821 
L 158.187393 199.753821 
L 158.232129 197.236303 
L 159.61025 197.236303 
L 159.61025 196.7328 
L 159.939564 196.7328 
L 159.939564 195.725793 
L 161.913396 195.725793 
L 161.986735 194.718786 
L 163.498092 194.718786 
L 163.498092 194.215283 
L 165.51383 194.215283 
L 165.544147 193.208276 
L 165.725029 193.208276 
L 165.725029 192.704772 
L 166.286609 192.704772 
L 166.286609 191.697766 
L 166.489353 191.697766 
L 166.518139 190.690759 
L 168.063651 190.690759 
L 168.063651 190.187255 
L 168.663377 190.187255 
L 168.663377 189.180248 
L 169.269439 189.180248 
L 169.343842 187.166234 
L 170.190808 187.166234 
L 170.214455 184.648717 
L 170.37916 184.648717 
L 170.37916 180.62069 
L 170.6582 180.62069 
L 170.6582 180.117186 
L 171.691074 180.117186 
L 171.691074 179.110179 
L 172.335368 179.110179 
L 172.335368 178.606676 
L 173.141258 178.606676 
L 173.141258 178.103172 
L 173.87517 178.103172 
L 173.87517 177.599669 
L 174.805028 177.599669 
L 174.805028 177.096166 
L 175.620293 177.096166 
L 175.620293 176.592662 
L 176.655103 176.592662 
L 176.655103 173.068138 
L 177.282212 173.068138 
L 177.347024 171.557628 
L 177.620009 171.557628 
L 177.683669 168.033103 
L 178.169864 168.033103 
L 178.169864 167.026097 
L 179.017511 167.026097 
L 179.091369 164.005076 
L 179.398443 164.005076 
L 179.398443 162.494566 
L 179.941672 162.494566 
L 179.941672 161.991062 
L 180.165788 161.991062 
L 180.165788 160.480552 
L 180.318334 160.480552 
L 180.318334 159.977048 
L 180.606166 159.977048 
L 180.606166 159.473545 
L 182.907797 159.473545 
L 182.907797 158.466538 
L 183.535105 158.466538 
L 183.535105 157.459531 
L 184.187197 157.459531 
L 184.187197 156.956028 
L 185.626206 156.956028 
L 185.626206 156.452524 
L 185.79213 156.452524 
L 185.79213 155.949021 
L 186.550968 155.949021 
L 186.550968 154.942014 
L 187.394502 154.942014 
L 187.498512 153.431503 
L 188.52602 153.431503 
L 188.52602 152.928 
L 189.209833 152.928 
L 189.270002 151.41749 
L 189.635451 151.41749 
L 189.652278 149.906979 
L 190.256351 149.906979 
L 190.256351 149.403476 
L 190.394284 149.403476 
L 190.394284 148.899972 
L 193.079226 148.899972 
L 193.079226 147.389462 
L 193.611305 147.389462 
L 193.611305 146.885959 
L 195.248124 146.885959 
L 195.248124 146.382455 
L 197.215124 146.382455 
L 197.215124 142.857931 
L 197.527541 142.857931 
L 197.527541 141.850924 
L 198.201395 141.850924 
L 198.297237 140.340414 
L 200.584774 140.340414 
L 200.584774 139.83691 
L 201.072208 139.83691 
L 201.136255 138.829903 
L 201.502593 138.829903 
L 201.502593 138.3264 
L 201.658707 138.3264 
L 201.658707 137.822897 
L 201.787083 137.822897 
L 201.787083 136.81589 
L 202.47153 136.81589 
L 202.47153 136.312386 
L 204.030196 136.312386 
L 204.030196 135.808883 
L 204.182296 135.808883 
L 204.182296 135.305379 
L 204.302325 135.305379 
L 204.302325 134.801876 
L 360.8064 134.801876 
L 360.8064 134.801876 
" style="fill: none; stroke: #6495ed; stroke-width: 1.5; stroke-linecap: square"/>
   </g>
   <g id="line2d_46">
    <defs>
     <path id="m1f0ceb2622" d="M -0 6 
L 6 -6 
L -6 -6 
z
" style="stroke: #6495ed; stroke-width: 1.5; stroke-linejoin: miter"/>
    </defs>
    <g>
     <use xlink:href="#m1f0ceb2622" x="107.904887" y="248.090152" style="fill-opacity: 0; stroke: #6495ed; stroke-width: 1.5; stroke-linejoin: miter"/>
     <use xlink:href="#m1f0ceb2622" x="168.063651" y="190.187255" style="fill-opacity: 0; stroke: #6495ed; stroke-width: 1.5; stroke-linejoin: miter"/>
     <use xlink:href="#m1f0ceb2622" x="204.302325" y="135.305379" style="fill-opacity: 0; stroke: #6495ed; stroke-width: 1.5; stroke-linejoin: miter"/>
     <use xlink:href="#m1f0ceb2622" x="204.302325" y="134.801876" style="fill-opacity: 0; stroke: #6495ed; stroke-width: 1.5; stroke-linejoin: miter"/>
     <use xlink:href="#m1f0ceb2622" x="204.302325" y="134.801876" style="fill-opacity: 0; stroke: #6495ed; stroke-width: 1.5; stroke-linejoin: miter"/>
     <use xlink:href="#m1f0ceb2622" x="360.8064" y="134.801876" style="fill-opacity: 0; stroke: #6495ed; stroke-width: 1.5; stroke-linejoin: miter"/>
    </g>
   </g>
   <g id="line2d_47">
    <path style="fill: none; stroke: #6495ed; stroke-width: 1.5; stroke-linecap: square"/>
    <g/>
   </g>
   <g id="line2d_48">
    <path d="M 205.158657 134.801876 
" clip-path="url(#p0b6a801006)" style="fill: none; stroke: #6495ed; stroke-width: 1.5; stroke-linecap: square"/>
    <defs>
     <path id="md7ae9fef89" d="M -12 12 
L 12 -12 
M -12 -12 
L 12 12 
" style="stroke: #6495ed"/>
    </defs>
    <g clip-path="url(#p0b6a801006)">
     <use xlink:href="#md7ae9fef89" x="205.158657" y="134.801876" style="fill: #6495ed; stroke: #6495ed"/>
    </g>
   </g>
   <g id="line2d_49">
    <path d="M 360.8064 201.767834 
L 380.514816 293.10336 
" style="fill: none; stroke: #000080; stroke-width: 1.5; stroke-linecap: square"/>
    <g>
     <use xlink:href="#md30cc4e2e9" x="360.8064" y="201.767834" style="fill-opacity: 0; stroke: #000080; stroke-width: 1.5"/>
     <use xlink:href="#md30cc4e2e9" x="380.514816" y="293.10336" style="fill-opacity: 0; stroke: #000080; stroke-width: 1.5"/>
    </g>
   </g>
   <g id="line2d_50">
    <path d="M 360.8064 189.683752 
L 380.514816 199.65312 
" style="fill: none; stroke: #ff00ff; stroke-width: 1.5; stroke-linecap: square"/>
    <g>
     <use xlink:href="#m266600a57d" x="360.8064" y="189.683752" style="fill-opacity: 0; stroke: #ff00ff; stroke-width: 1.5; stroke-linejoin: miter"/>
     <use xlink:href="#m266600a57d" x="380.514816" y="199.65312" style="fill-opacity: 0; stroke: #ff00ff; stroke-width: 1.5; stroke-linejoin: miter"/>
    </g>
   </g>
   <g id="line2d_51">
    <path d="M 360.8064 148.396469 
L 380.514816 106.20288 
" style="fill: none; stroke: #ff7500; stroke-width: 1.5; stroke-linecap: square"/>
    <g>
     <use xlink:href="#m6695a94ea2" x="360.8064" y="148.396469" style="fill-opacity: 0; stroke: #ff7500; stroke-width: 1.5; stroke-linejoin: bevel"/>
     <use xlink:href="#m6695a94ea2" x="380.514816" y="106.20288" style="fill-opacity: 0; stroke: #ff7500; stroke-width: 1.5; stroke-linejoin: bevel"/>
    </g>
   </g>
   <g id="line2d_52">
    <path d="M 360.8064 134.801876 
L 380.514816 12.75264 
" style="fill: none; stroke: #6495ed; stroke-width: 1.5; stroke-linecap: square"/>
    <g>
     <use xlink:href="#m1f0ceb2622" x="360.8064" y="134.801876" style="fill-opacity: 0; stroke: #6495ed; stroke-width: 1.5; stroke-linejoin: miter"/>
     <use xlink:href="#m1f0ceb2622" x="380.514816" y="12.75264" style="fill-opacity: 0; stroke: #6495ed; stroke-width: 1.5; stroke-linejoin: miter"/>
    </g>
   </g>
   <g id="line2d_53">
    <path d="M 360.8064 298.944 
L 360.8064 6.912 
" style="fill: none; stroke: #000000; stroke-width: 1.5; stroke-linecap: square"/>
   </g>
   <g id="patch_3">
    <path d="M 57.6 298.944 
L 360.8064 298.944 
" style="fill: none; stroke: #000000; stroke-width: 0.8; stroke-linejoin: miter; stroke-linecap: square"/>
   </g>
   <g id="patch_4">
    <path d="M 57.6 6.912 
L 360.8064 6.912 
" style="fill: none; stroke: #000000; stroke-width: 0.8; stroke-linejoin: miter; stroke-linecap: square"/>
   </g>
   <g id="text_13">
    <!-- f3 -->
    <g transform="translate(386.578944 296.966485)scale(0.14 -0.14)">
     <defs>
      <path id="DejaVuSans-33" d="M 2597 2516 
Q 3050 2419 3304 2112 
Q 3559 1806 3559 1356 
Q 3559 666 3084 287 
Q 2609 -91 1734 -91 
Q 1441 -91 1130 -33 
Q 819 25 488 141 
L 488 750 
Q 750 597 1062 519 
Q 1375 441 1716 441 
Q 2309 441 2620 675 
Q 2931 909 2931 1356 
Q 2931 1769 2642 2001 
Q 2353 2234 1838 2234 
L 1294 2234 
L 1294 2753 
L 1863 2753 
Q 2328 2753 2575 2939 
Q 2822 3125 2822 3475 
Q 2822 3834 2567 4026 
Q 2313 4219 1838 4219 
Q 1578 4219 1281 4162 
Q 984 4106 628 3988 
L 628 4550 
Q 988 4650 1302 4700 
Q 1616 4750 1894 4750 
Q 2613 4750 3031 4423 
Q 3450 4097 3450 3541 
Q 3450 3153 3228 2886 
Q 3006 2619 2597 2516 
z
" transform="scale(0.015625)"/>
     </defs>
     <use xlink:href="#DejaVuSans-66"/>
     <use xlink:href="#DejaVuSans-33" x="35.205078"/>
    </g>
   </g>
   <g id="text_14">
    <!-- f4 -->
    <g transform="translate(386.578944 203.516245)scale(0.14 -0.14)">
     <use xlink:href="#DejaVuSans-66"/>
     <use xlink:href="#DejaVuSans-34" x="35.205078"/>
    </g>
   </g>
   <g id="text_15">
    <!-- f12 -->
    <g transform="translate(386.578944 110.066005)scale(0.14 -0.14)">
     <use xlink:href="#DejaVuSans-66"/>
     <use xlink:href="#DejaVuSans-31" x="35.205078"/>
     <use xlink:href="#DejaVuSans-32" x="98.828125"/>
    </g>
   </g>
   <g id="text_16">
    <!-- f13 -->
    <g transform="translate(386.578944 16.615765)scale(0.14 -0.14)">
     <use xlink:href="#DejaVuSans-66"/>
     <use xlink:href="#DejaVuSans-31" x="35.205078"/>
     <use xlink:href="#DejaVuSans-33" x="98.828125"/>
    </g>
   </g>
   <g id="text_17">
    <!-- bbob-biobj -->
    <g transform="translate(60.632064 17.582726)scale(0.102 -0.102)">
     <defs>
      <path id="DejaVuSans-62" d="M 3116 1747 
Q 3116 2381 2855 2742 
Q 2594 3103 2138 3103 
Q 1681 3103 1420 2742 
Q 1159 2381 1159 1747 
Q 1159 1113 1420 752 
Q 1681 391 2138 391 
Q 2594 391 2855 752 
Q 3116 1113 3116 1747 
z
M 1159 2969 
Q 1341 3281 1617 3432 
Q 1894 3584 2278 3584 
Q 2916 3584 3314 3078 
Q 3713 2572 3713 1747 
Q 3713 922 3314 415 
Q 2916 -91 2278 -91 
Q 1894 -91 1617 61 
Q 1341 213 1159 525 
L 1159 0 
L 581 0 
L 581 4863 
L 1159 4863 
L 1159 2969 
z
" transform="scale(0.015625)"/>
      <path id="DejaVuSans-6a" d="M 603 3500 
L 1178 3500 
L 1178 -63 
Q 1178 -731 923 -1031 
Q 669 -1331 103 -1331 
L -116 -1331 
L -116 -844 
L 38 -844 
Q 366 -844 484 -692 
Q 603 -541 603 -63 
L 603 3500 
z
M 603 4863 
L 1178 4863 
L 1178 4134 
L 603 4134 
L 603 4863 
z
" transform="scale(0.015625)"/>
     </defs>
     <use xlink:href="#DejaVuSans-62"/>
     <use xlink:href="#DejaVuSans-62" x="63.476562"/>
     <use xlink:href="#DejaVuSans-6f" x="126.953125"/>
     <use xlink:href="#DejaVuSans-62" x="188.134766"/>
     <use xlink:href="#DejaVuSans-2d" x="251.611328"/>
     <use xlink:href="#DejaVuSans-62" x="287.695312"/>
     <use xlink:href="#DejaVuSans-69" x="351.171875"/>
     <use xlink:href="#DejaVuSans-6f" x="378.955078"/>
     <use xlink:href="#DejaVuSans-62" x="440.136719"/>
     <use xlink:href="#DejaVuSans-6a" x="503.613281"/>
    </g>
    <!-- 1-separable 2-moderate, 2-D -->
    <g transform="translate(60.632064 29.004495)scale(0.102 -0.102)">
     <defs>
      <path id="DejaVuSans-44" d="M 1259 4147 
L 1259 519 
L 2022 519 
Q 2988 519 3436 956 
Q 3884 1394 3884 2338 
Q 3884 3275 3436 3711 
Q 2988 4147 2022 4147 
L 1259 4147 
z
M 628 4666 
L 1925 4666 
Q 3281 4666 3915 4102 
Q 4550 3538 4550 2338 
Q 4550 1131 3912 565 
Q 3275 0 1925 0 
L 628 0 
L 628 4666 
z
" transform="scale(0.015625)"/>
     </defs>
     <use xlink:href="#DejaVuSans-31"/>
     <use xlink:href="#DejaVuSans-2d" x="63.623047"/>
     <use xlink:href="#DejaVuSans-73" x="99.707031"/>
     <use xlink:href="#DejaVuSans-65" x="151.806641"/>
     <use xlink:href="#DejaVuSans-70" x="213.330078"/>
     <use xlink:href="#DejaVuSans-61" x="276.806641"/>
     <use xlink:href="#DejaVuSans-72" x="338.085938"/>
     <use xlink:href="#DejaVuSans-61" x="379.199219"/>
     <use xlink:href="#DejaVuSans-62" x="440.478516"/>
     <use xlink:href="#DejaVuSans-6c" x="503.955078"/>
     <use xlink:href="#DejaVuSans-65" x="531.738281"/>
     <use xlink:href="#DejaVuSans-20" x="593.261719"/>
     <use xlink:href="#DejaVuSans-32" x="625.048828"/>
     <use xlink:href="#DejaVuSans-2d" x="688.671875"/>
     <use xlink:href="#DejaVuSans-6d" x="724.755859"/>
     <use xlink:href="#DejaVuSans-6f" x="822.167969"/>
     <use xlink:href="#DejaVuSans-64" x="883.349609"/>
     <use xlink:href="#DejaVuSans-65" x="946.826172"/>
     <use xlink:href="#DejaVuSans-72" x="1008.349609"/>
     <use xlink:href="#DejaVuSans-61" x="1049.462891"/>
     <use xlink:href="#DejaVuSans-74" x="1110.742188"/>
     <use xlink:href="#DejaVuSans-65" x="1149.951172"/>
     <use xlink:href="#DejaVuSans-2c" x="1211.474609"/>
     <use xlink:href="#DejaVuSans-20" x="1243.261719"/>
     <use xlink:href="#DejaVuSans-32" x="1275.048828"/>
     <use xlink:href="#DejaVuSans-2d" x="1338.671875"/>
     <use xlink:href="#DejaVuSans-44" x="1374.755859"/>
    </g>
    <!-- 58 targets: 1..-1.0e-4 -->
    <g transform="translate(60.632064 40.426264)scale(0.102 -0.102)">
     <defs>
      <path id="DejaVuSans-35" d="M 691 4666 
L 3169 4666 
L 3169 4134 
L 1269 4134 
L 1269 2991 
Q 1406 3038 1543 3061 
Q 1681 3084 1819 3084 
Q 2600 3084 3056 2656 
Q 3513 2228 3513 1497 
Q 3513 744 3044 326 
Q 2575 -91 1722 -91 
Q 1428 -91 1123 -41 
Q 819 9 494 109 
L 494 744 
Q 775 591 1075 516 
Q 1375 441 1709 441 
Q 2250 441 2565 725 
Q 2881 1009 2881 1497 
Q 2881 1984 2565 2268 
Q 2250 2553 1709 2553 
Q 1456 2553 1204 2497 
Q 953 2441 691 2322 
L 691 4666 
z
" transform="scale(0.015625)"/>
      <path id="DejaVuSans-3a" d="M 750 794 
L 1409 794 
L 1409 0 
L 750 0 
L 750 794 
z
M 750 3309 
L 1409 3309 
L 1409 2516 
L 750 2516 
L 750 3309 
z
" transform="scale(0.015625)"/>
     </defs>
     <use xlink:href="#DejaVuSans-35"/>
     <use xlink:href="#DejaVuSans-38" x="63.623047"/>
     <use xlink:href="#DejaVuSans-20" x="127.246094"/>
     <use xlink:href="#DejaVuSans-74" x="159.033203"/>
     <use xlink:href="#DejaVuSans-61" x="198.242188"/>
     <use xlink:href="#DejaVuSans-72" x="259.521484"/>
     <use xlink:href="#DejaVuSans-67" x="298.884766"/>
     <use xlink:href="#DejaVuSans-65" x="362.361328"/>
     <use xlink:href="#DejaVuSans-74" x="423.884766"/>
     <use xlink:href="#DejaVuSans-73" x="463.09375"/>
     <use xlink:href="#DejaVuSans-3a" x="515.193359"/>
     <use xlink:href="#DejaVuSans-20" x="548.884766"/>
     <use xlink:href="#DejaVuSans-31" x="580.671875"/>
     <use xlink:href="#DejaVuSans-2e" x="644.294922"/>
     <use xlink:href="#DejaVuSans-2e" x="676.082031"/>
     <use xlink:href="#DejaVuSans-2d" x="707.869141"/>
     <use xlink:href="#DejaVuSans-31" x="743.953125"/>
     <use xlink:href="#DejaVuSans-2e" x="807.576172"/>
     <use xlink:href="#DejaVuSans-30" x="839.363281"/>
     <use xlink:href="#DejaVuSans-65" x="902.986328"/>
     <use xlink:href="#DejaVuSans-2d" x="964.509766"/>
     <use xlink:href="#DejaVuSans-34" x="1000.59375"/>
    </g>
    <!-- 10 instances -->
    <g transform="translate(60.632064 51.848032)scale(0.102 -0.102)">
     <use xlink:href="#DejaVuSans-31"/>
     <use xlink:href="#DejaVuSans-30" x="63.623047"/>
     <use xlink:href="#DejaVuSans-20" x="127.246094"/>
     <use xlink:href="#DejaVuSans-69" x="159.033203"/>
     <use xlink:href="#DejaVuSans-6e" x="186.816406"/>
     <use xlink:href="#DejaVuSans-73" x="250.195312"/>
     <use xlink:href="#DejaVuSans-74" x="302.294922"/>
     <use xlink:href="#DejaVuSans-61" x="341.503906"/>
     <use xlink:href="#DejaVuSans-6e" x="402.783203"/>
     <use xlink:href="#DejaVuSans-63" x="466.162109"/>
     <use xlink:href="#DejaVuSans-65" x="521.142578"/>
     <use xlink:href="#DejaVuSans-73" x="582.666016"/>
    </g>
   </g>
   <g id="text_18">
    <!-- v2.6, hv-hash=ff0e71e8cd978373 -->
    <g style="fill: #808080" transform="translate(123.707887 293.943992)scale(0.1 -0.1)">
     <defs>
      <path id="DejaVuSans-68" d="M 3513 2113 
L 3513 0 
L 2938 0 
L 2938 2094 
Q 2938 2591 2744 2837 
Q 2550 3084 2163 3084 
Q 1697 3084 1428 2787 
Q 1159 2491 1159 1978 
L 1159 0 
L 581 0 
L 581 4863 
L 1159 4863 
L 1159 2956 
Q 1366 3272 1645 3428 
Q 1925 3584 2291 3584 
Q 2894 3584 3203 3211 
Q 3513 2838 3513 2113 
z
" transform="scale(0.015625)"/>
      <path id="DejaVuSans-3d" d="M 678 2906 
L 4684 2906 
L 4684 2381 
L 678 2381 
L 678 2906 
z
M 678 1631 
L 4684 1631 
L 4684 1100 
L 678 1100 
L 678 1631 
z
" transform="scale(0.015625)"/>
      <path id="DejaVuSans-37" d="M 525 4666 
L 3525 4666 
L 3525 4397 
L 1831 0 
L 1172 0 
L 2766 4134 
L 525 4134 
L 525 4666 
z
" transform="scale(0.015625)"/>
      <path id="DejaVuSans-39" d="M 703 97 
L 703 672 
Q 941 559 1184 500 
Q 1428 441 1663 441 
Q 2288 441 2617 861 
Q 2947 1281 2994 2138 
Q 2813 1869 2534 1725 
Q 2256 1581 1919 1581 
Q 1219 1581 811 2004 
Q 403 2428 403 3163 
Q 403 3881 828 4315 
Q 1253 4750 1959 4750 
Q 2769 4750 3195 4129 
Q 3622 3509 3622 2328 
Q 3622 1225 3098 567 
Q 2575 -91 1691 -91 
Q 1453 -91 1209 -44 
Q 966 3 703 97 
z
M 1959 2075 
Q 2384 2075 2632 2365 
Q 2881 2656 2881 3163 
Q 2881 3666 2632 3958 
Q 2384 4250 1959 4250 
Q 1534 4250 1286 3958 
Q 1038 3666 1038 3163 
Q 1038 2656 1286 2365 
Q 1534 2075 1959 2075 
z
" transform="scale(0.015625)"/>
     </defs>
     <use xlink:href="#DejaVuSans-76"/>
     <use xlink:href="#DejaVuSans-32" x="59.179688"/>
     <use xlink:href="#DejaVuSans-2e" x="122.802734"/>
     <use xlink:href="#DejaVuSans-36" x="154.589844"/>
     <use xlink:href="#DejaVuSans-2c" x="218.212891"/>
     <use xlink:href="#DejaVuSans-20" x="250"/>
     <use xlink:href="#DejaVuSans-68" x="281.787109"/>
     <use xlink:href="#DejaVuSans-76" x="345.166016"/>
     <use xlink:href="#DejaVuSans-2d" x="401.720703"/>
     <use xlink:href="#DejaVuSans-68" x="437.804688"/>
     <use xlink:href="#DejaVuSans-61" x="501.183594"/>
     <use xlink:href="#DejaVuSans-73" x="562.462891"/>
     <use xlink:href="#DejaVuSans-68" x="614.5625"/>
     <use xlink:href="#DejaVuSans-3d" x="677.941406"/>
     <use xlink:href="#DejaVuSans-66" x="761.730469"/>
     <use xlink:href="#DejaVuSans-66" x="796.935547"/>
     <use xlink:href="#DejaVuSans-30" x="832.140625"/>
     <use xlink:href="#DejaVuSans-65" x="895.763672"/>
     <use xlink:href="#DejaVuSans-37" x="957.287109"/>
     <use xlink:href="#DejaVuSans-31" x="1020.910156"/>
     <use xlink:href="#DejaVuSans-65" x="1084.533203"/>
     <use xlink:href="#DejaVuSans-38" x="1146.056641"/>
     <use xlink:href="#DejaVuSans-63" x="1209.679688"/>
     <use xlink:href="#DejaVuSans-64" x="1264.660156"/>
     <use xlink:href="#DejaVuSans-39" x="1328.136719"/>
     <use xlink:href="#DejaVuSans-37" x="1391.759766"/>
     <use xlink:href="#DejaVuSans-38" x="1455.382812"/>
     <use xlink:href="#DejaVuSans-33" x="1519.005859"/>
     <use xlink:href="#DejaVuSans-37" x="1582.628906"/>
     <use xlink:href="#DejaVuSans-33" x="1646.251953"/>
    </g>
   </g>
  </g>
 </g>
 <defs>
  <clipPath id="p0b6a801006">
   <rect x="57.6" y="6.912" width="303.2064" height="292.032"/>
  </clipPath>
 </defs>
</svg>
