<?xml version="1.0" encoding="utf-8" standalone="no"?>
<!DOCTYPE svg PUBLIC "-//W3C//DTD SVG 1.1//EN"
  "http://www.w3.org/Graphics/SVG/1.1/DTD/svg11.dtd">
<svg xmlns:xlink="http://www.w3.org/1999/xlink" width="460.8pt" height="345.6pt" viewBox="0 0 460.8 345.6" xmlns="http://www.w3.org/2000/svg" version="1.1">
 <metadata>
  <rdf:RDF xmlns:dc="http://purl.org/dc/elements/1.1/" xmlns:cc="http://creativecommons.org/ns#" xmlns:rdf="http://www.w3.org/1999/02/22-rdf-syntax-ns#">
   <cc:Work>
    <dc:type rdf:resource="http://purl.org/dc/dcmitype/StillImage"/>
    <dc:date>2022-06-19T17:22:32.044909</dc:date>
    <dc:format>image/svg+xml</dc:format>
    <dc:creator>
     <cc:Agent>
      <dc:title>Matplotlib v3.5.2, https://matplotlib.org/</dc:title>
     </cc:Agent>
    </dc:creator>
   </cc:Work>
  </rdf:RDF>
 </metadata>
 <defs>
  <style type="text/css">*{stroke-linejoin: round; stroke-linecap: butt}</style>
 </defs>
 <g id="figure_1">
  <g id="patch_1">
   <path d="M 0 345.6 
L 460.8 345.6 
L 460.8 0 
L 0 0 
z
" style="fill: #ffffff"/>
  </g>
  <g id="axes_1">
   <g id="patch_2">
    <path d="M 57.6 298.944 
L 360.8064 298.944 
L 360.8064 6.912 
L 57.6 6.912 
z
" style="fill: #ffffff"/>
   </g>
   <g id="matplotlib.axis_1">
    <g id="xtick_1">
     <g id="line2d_1">
      <path d="M 57.6 298.944 
L 57.6 6.912 
" clip-path="url(#p8dcd72cec6)" style="fill: none; stroke: #b0b0b0; stroke-width: 0.8; stroke-linecap: square"/>
     </g>
     <g id="line2d_2">
      <defs>
       <path id="m13be0a2368" d="M 0 0 
L 0 3.5 
" style="stroke: #000000; stroke-width: 0.8"/>
      </defs>
      <g>
       <use xlink:href="#m13be0a2368" x="57.6" y="298.944" style="stroke: #000000; stroke-width: 0.8"/>
      </g>
     </g>
     <g id="text_1">
      <!-- 0 -->
      <g transform="translate(52.191875 318.861344)scale(0.17 -0.17)">
       <defs>
        <path id="DejaVuSans-30" d="M 2034 4250 
Q 1547 4250 1301 3770 
Q 1056 3291 1056 2328 
Q 1056 1369 1301 889 
Q 1547 409 2034 409 
Q 2525 409 2770 889 
Q 3016 1369 3016 2328 
Q 3016 3291 2770 3770 
Q 2525 4250 2034 4250 
z
M 2034 4750 
Q 2819 4750 3233 4129 
Q 3647 3509 3647 2328 
Q 3647 1150 3233 529 
Q 2819 -91 2034 -91 
Q 1250 -91 836 529 
Q 422 1150 422 2328 
Q 422 3509 836 4129 
Q 1250 4750 2034 4750 
z
" transform="scale(0.015625)"/>
       </defs>
       <use xlink:href="#DejaVuSans-30"/>
      </g>
     </g>
    </g>
    <g id="xtick_2">
     <g id="line2d_3">
      <path d="M 144.2304 298.944 
L 144.2304 6.912 
" clip-path="url(#p8dcd72cec6)" style="fill: none; stroke: #b0b0b0; stroke-width: 0.8; stroke-linecap: square"/>
     </g>
     <g id="line2d_4">
      <g>
       <use xlink:href="#m13be0a2368" x="144.2304" y="298.944" style="stroke: #000000; stroke-width: 0.8"/>
      </g>
     </g>
     <g id="text_2">
      <!-- 2 -->
      <g transform="translate(138.822275 318.861344)scale(0.17 -0.17)">
       <defs>
        <path id="DejaVuSans-32" d="M 1228 531 
L 3431 531 
L 3431 0 
L 469 0 
L 469 531 
Q 828 903 1448 1529 
Q 2069 2156 2228 2338 
Q 2531 2678 2651 2914 
Q 2772 3150 2772 3378 
Q 2772 3750 2511 3984 
Q 2250 4219 1831 4219 
Q 1534 4219 1204 4116 
Q 875 4013 500 3803 
L 500 4441 
Q 881 4594 1212 4672 
Q 1544 4750 1819 4750 
Q 2544 4750 2975 4387 
Q 3406 4025 3406 3419 
Q 3406 3131 3298 2873 
Q 3191 2616 2906 2266 
Q 2828 2175 2409 1742 
Q 1991 1309 1228 531 
z
" transform="scale(0.015625)"/>
       </defs>
       <use xlink:href="#DejaVuSans-32"/>
      </g>
     </g>
    </g>
    <g id="xtick_3">
     <g id="line2d_5">
      <path d="M 230.8608 298.944 
L 230.8608 6.912 
" clip-path="url(#p8dcd72cec6)" style="fill: none; stroke: #b0b0b0; stroke-width: 0.8; stroke-linecap: square"/>
     </g>
     <g id="line2d_6">
      <g>
       <use xlink:href="#m13be0a2368" x="230.8608" y="298.944" style="stroke: #000000; stroke-width: 0.8"/>
      </g>
     </g>
     <g id="text_3">
      <!-- 4 -->
      <g transform="translate(225.452675 318.861344)scale(0.17 -0.17)">
       <defs>
        <path id="DejaVuSans-34" d="M 2419 4116 
L 825 1625 
L 2419 1625 
L 2419 4116 
z
M 2253 4666 
L 3047 4666 
L 3047 1625 
L 3713 1625 
L 3713 1100 
L 3047 1100 
L 3047 0 
L 2419 0 
L 2419 1100 
L 313 1100 
L 313 1709 
L 2253 4666 
z
" transform="scale(0.015625)"/>
       </defs>
       <use xlink:href="#DejaVuSans-34"/>
      </g>
     </g>
    </g>
    <g id="xtick_4">
     <g id="line2d_7">
      <path d="M 317.4912 298.944 
L 317.4912 6.912 
" clip-path="url(#p8dcd72cec6)" style="fill: none; stroke: #b0b0b0; stroke-width: 0.8; stroke-linecap: square"/>
     </g>
     <g id="line2d_8">
      <g>
       <use xlink:href="#m13be0a2368" x="317.4912" y="298.944" style="stroke: #000000; stroke-width: 0.8"/>
      </g>
     </g>
     <g id="text_4">
      <!-- 6 -->
      <g transform="translate(312.083075 318.861344)scale(0.17 -0.17)">
       <defs>
        <path id="DejaVuSans-36" d="M 2113 2584 
Q 1688 2584 1439 2293 
Q 1191 2003 1191 1497 
Q 1191 994 1439 701 
Q 1688 409 2113 409 
Q 2538 409 2786 701 
Q 3034 994 3034 1497 
Q 3034 2003 2786 2293 
Q 2538 2584 2113 2584 
z
M 3366 4563 
L 3366 3988 
Q 3128 4100 2886 4159 
Q 2644 4219 2406 4219 
Q 1781 4219 1451 3797 
Q 1122 3375 1075 2522 
Q 1259 2794 1537 2939 
Q 1816 3084 2150 3084 
Q 2853 3084 3261 2657 
Q 3669 2231 3669 1497 
Q 3669 778 3244 343 
Q 2819 -91 2113 -91 
Q 1303 -91 875 529 
Q 447 1150 447 2328 
Q 447 3434 972 4092 
Q 1497 4750 2381 4750 
Q 2619 4750 2861 4703 
Q 3103 4656 3366 4563 
z
" transform="scale(0.015625)"/>
       </defs>
       <use xlink:href="#DejaVuSans-36"/>
      </g>
     </g>
    </g>
    <g id="xtick_5">
     <g id="line2d_9">
      <path d="M 100.9152 298.944 
L 100.9152 6.912 
" clip-path="url(#p8dcd72cec6)" style="fill: none; stroke: #b0b0b0; stroke-width: 0.8; stroke-linecap: square"/>
     </g>
     <g id="line2d_10">
      <defs>
       <path id="m433a423ae2" d="M 0 0 
L 0 2 
" style="stroke: #000000; stroke-width: 0.6"/>
      </defs>
      <g>
       <use xlink:href="#m433a423ae2" x="100.9152" y="298.944" style="stroke: #000000; stroke-width: 0.6"/>
      </g>
     </g>
    </g>
    <g id="xtick_6">
     <g id="line2d_11">
      <path d="M 187.5456 298.944 
L 187.5456 6.912 
" clip-path="url(#p8dcd72cec6)" style="fill: none; stroke: #b0b0b0; stroke-width: 0.8; stroke-linecap: square"/>
     </g>
     <g id="line2d_12">
      <g>
       <use xlink:href="#m433a423ae2" x="187.5456" y="298.944" style="stroke: #000000; stroke-width: 0.6"/>
      </g>
     </g>
    </g>
    <g id="xtick_7">
     <g id="line2d_13">
      <path d="M 274.176 298.944 
L 274.176 6.912 
" clip-path="url(#p8dcd72cec6)" style="fill: none; stroke: #b0b0b0; stroke-width: 0.8; stroke-linecap: square"/>
     </g>
     <g id="line2d_14">
      <g>
       <use xlink:href="#m433a423ae2" x="274.176" y="298.944" style="stroke: #000000; stroke-width: 0.6"/>
      </g>
     </g>
    </g>
    <g id="xtick_8">
     <g id="line2d_15">
      <path d="M 360.8064 298.944 
L 360.8064 6.912 
" clip-path="url(#p8dcd72cec6)" style="fill: none; stroke: #b0b0b0; stroke-width: 0.8; stroke-linecap: square"/>
     </g>
     <g id="line2d_16">
      <g>
       <use xlink:href="#m433a423ae2" x="360.8064" y="298.944" style="stroke: #000000; stroke-width: 0.6"/>
      </g>
     </g>
    </g>
    <g id="text_5">
     <!-- log10(# f-evals / dimension) -->
     <g transform="translate(88.823278 339.314156)scale(0.17 -0.17)">
      <defs>
       <path id="DejaVuSans-6c" d="M 603 4863 
L 1178 4863 
L 1178 0 
L 603 0 
L 603 4863 
z
" transform="scale(0.015625)"/>
       <path id="DejaVuSans-6f" d="M 1959 3097 
Q 1497 3097 1228 2736 
Q 959 2375 959 1747 
Q 959 1119 1226 758 
Q 1494 397 1959 397 
Q 2419 397 2687 759 
Q 2956 1122 2956 1747 
Q 2956 2369 2687 2733 
Q 2419 3097 1959 3097 
z
M 1959 3584 
Q 2709 3584 3137 3096 
Q 3566 2609 3566 1747 
Q 3566 888 3137 398 
Q 2709 -91 1959 -91 
Q 1206 -91 779 398 
Q 353 888 353 1747 
Q 353 2609 779 3096 
Q 1206 3584 1959 3584 
z
" transform="scale(0.015625)"/>
       <path id="DejaVuSans-67" d="M 2906 1791 
Q 2906 2416 2648 2759 
Q 2391 3103 1925 3103 
Q 1463 3103 1205 2759 
Q 947 2416 947 1791 
Q 947 1169 1205 825 
Q 1463 481 1925 481 
Q 2391 481 2648 825 
Q 2906 1169 2906 1791 
z
M 3481 434 
Q 3481 -459 3084 -895 
Q 2688 -1331 1869 -1331 
Q 1566 -1331 1297 -1286 
Q 1028 -1241 775 -1147 
L 775 -588 
Q 1028 -725 1275 -790 
Q 1522 -856 1778 -856 
Q 2344 -856 2625 -561 
Q 2906 -266 2906 331 
L 2906 616 
Q 2728 306 2450 153 
Q 2172 0 1784 0 
Q 1141 0 747 490 
Q 353 981 353 1791 
Q 353 2603 747 3093 
Q 1141 3584 1784 3584 
Q 2172 3584 2450 3431 
Q 2728 3278 2906 2969 
L 2906 3500 
L 3481 3500 
L 3481 434 
z
" transform="scale(0.015625)"/>
       <path id="DejaVuSans-31" d="M 794 531 
L 1825 531 
L 1825 4091 
L 703 3866 
L 703 4441 
L 1819 4666 
L 2450 4666 
L 2450 531 
L 3481 531 
L 3481 0 
L 794 0 
L 794 531 
z
" transform="scale(0.015625)"/>
       <path id="DejaVuSans-28" d="M 1984 4856 
Q 1566 4138 1362 3434 
Q 1159 2731 1159 2009 
Q 1159 1288 1364 580 
Q 1569 -128 1984 -844 
L 1484 -844 
Q 1016 -109 783 600 
Q 550 1309 550 2009 
Q 550 2706 781 3412 
Q 1013 4119 1484 4856 
L 1984 4856 
z
" transform="scale(0.015625)"/>
       <path id="DejaVuSans-23" d="M 3272 2816 
L 2363 2816 
L 2100 1772 
L 3016 1772 
L 3272 2816 
z
M 2803 4594 
L 2478 3297 
L 3391 3297 
L 3719 4594 
L 4219 4594 
L 3897 3297 
L 4872 3297 
L 4872 2816 
L 3775 2816 
L 3519 1772 
L 4513 1772 
L 4513 1294 
L 3397 1294 
L 3072 0 
L 2572 0 
L 2894 1294 
L 1978 1294 
L 1656 0 
L 1153 0 
L 1478 1294 
L 494 1294 
L 494 1772 
L 1594 1772 
L 1856 2816 
L 850 2816 
L 850 3297 
L 1978 3297 
L 2297 4594 
L 2803 4594 
z
" transform="scale(0.015625)"/>
       <path id="DejaVuSans-20" transform="scale(0.015625)"/>
       <path id="DejaVuSans-66" d="M 2375 4863 
L 2375 4384 
L 1825 4384 
Q 1516 4384 1395 4259 
Q 1275 4134 1275 3809 
L 1275 3500 
L 2222 3500 
L 2222 3053 
L 1275 3053 
L 1275 0 
L 697 0 
L 697 3053 
L 147 3053 
L 147 3500 
L 697 3500 
L 697 3744 
Q 697 4328 969 4595 
Q 1241 4863 1831 4863 
L 2375 4863 
z
" transform="scale(0.015625)"/>
       <path id="DejaVuSans-2d" d="M 313 2009 
L 1997 2009 
L 1997 1497 
L 313 1497 
L 313 2009 
z
" transform="scale(0.015625)"/>
       <path id="DejaVuSans-65" d="M 3597 1894 
L 3597 1613 
L 953 1613 
Q 991 1019 1311 708 
Q 1631 397 2203 397 
Q 2534 397 2845 478 
Q 3156 559 3463 722 
L 3463 178 
Q 3153 47 2828 -22 
Q 2503 -91 2169 -91 
Q 1331 -91 842 396 
Q 353 884 353 1716 
Q 353 2575 817 3079 
Q 1281 3584 2069 3584 
Q 2775 3584 3186 3129 
Q 3597 2675 3597 1894 
z
M 3022 2063 
Q 3016 2534 2758 2815 
Q 2500 3097 2075 3097 
Q 1594 3097 1305 2825 
Q 1016 2553 972 2059 
L 3022 2063 
z
" transform="scale(0.015625)"/>
       <path id="DejaVuSans-76" d="M 191 3500 
L 800 3500 
L 1894 563 
L 2988 3500 
L 3597 3500 
L 2284 0 
L 1503 0 
L 191 3500 
z
" transform="scale(0.015625)"/>
       <path id="DejaVuSans-61" d="M 2194 1759 
Q 1497 1759 1228 1600 
Q 959 1441 959 1056 
Q 959 750 1161 570 
Q 1363 391 1709 391 
Q 2188 391 2477 730 
Q 2766 1069 2766 1631 
L 2766 1759 
L 2194 1759 
z
M 3341 1997 
L 3341 0 
L 2766 0 
L 2766 531 
Q 2569 213 2275 61 
Q 1981 -91 1556 -91 
Q 1019 -91 701 211 
Q 384 513 384 1019 
Q 384 1609 779 1909 
Q 1175 2209 1959 2209 
L 2766 2209 
L 2766 2266 
Q 2766 2663 2505 2880 
Q 2244 3097 1772 3097 
Q 1472 3097 1187 3025 
Q 903 2953 641 2809 
L 641 3341 
Q 956 3463 1253 3523 
Q 1550 3584 1831 3584 
Q 2591 3584 2966 3190 
Q 3341 2797 3341 1997 
z
" transform="scale(0.015625)"/>
       <path id="DejaVuSans-73" d="M 2834 3397 
L 2834 2853 
Q 2591 2978 2328 3040 
Q 2066 3103 1784 3103 
Q 1356 3103 1142 2972 
Q 928 2841 928 2578 
Q 928 2378 1081 2264 
Q 1234 2150 1697 2047 
L 1894 2003 
Q 2506 1872 2764 1633 
Q 3022 1394 3022 966 
Q 3022 478 2636 193 
Q 2250 -91 1575 -91 
Q 1294 -91 989 -36 
Q 684 19 347 128 
L 347 722 
Q 666 556 975 473 
Q 1284 391 1588 391 
Q 1994 391 2212 530 
Q 2431 669 2431 922 
Q 2431 1156 2273 1281 
Q 2116 1406 1581 1522 
L 1381 1569 
Q 847 1681 609 1914 
Q 372 2147 372 2553 
Q 372 3047 722 3315 
Q 1072 3584 1716 3584 
Q 2034 3584 2315 3537 
Q 2597 3491 2834 3397 
z
" transform="scale(0.015625)"/>
       <path id="DejaVuSans-2f" d="M 1625 4666 
L 2156 4666 
L 531 -594 
L 0 -594 
L 1625 4666 
z
" transform="scale(0.015625)"/>
       <path id="DejaVuSans-64" d="M 2906 2969 
L 2906 4863 
L 3481 4863 
L 3481 0 
L 2906 0 
L 2906 525 
Q 2725 213 2448 61 
Q 2172 -91 1784 -91 
Q 1150 -91 751 415 
Q 353 922 353 1747 
Q 353 2572 751 3078 
Q 1150 3584 1784 3584 
Q 2172 3584 2448 3432 
Q 2725 3281 2906 2969 
z
M 947 1747 
Q 947 1113 1208 752 
Q 1469 391 1925 391 
Q 2381 391 2643 752 
Q 2906 1113 2906 1747 
Q 2906 2381 2643 2742 
Q 2381 3103 1925 3103 
Q 1469 3103 1208 2742 
Q 947 2381 947 1747 
z
" transform="scale(0.015625)"/>
       <path id="DejaVuSans-69" d="M 603 3500 
L 1178 3500 
L 1178 0 
L 603 0 
L 603 3500 
z
M 603 4863 
L 1178 4863 
L 1178 4134 
L 603 4134 
L 603 4863 
z
" transform="scale(0.015625)"/>
       <path id="DejaVuSans-6d" d="M 3328 2828 
Q 3544 3216 3844 3400 
Q 4144 3584 4550 3584 
Q 5097 3584 5394 3201 
Q 5691 2819 5691 2113 
L 5691 0 
L 5113 0 
L 5113 2094 
Q 5113 2597 4934 2840 
Q 4756 3084 4391 3084 
Q 3944 3084 3684 2787 
Q 3425 2491 3425 1978 
L 3425 0 
L 2847 0 
L 2847 2094 
Q 2847 2600 2669 2842 
Q 2491 3084 2119 3084 
Q 1678 3084 1418 2786 
Q 1159 2488 1159 1978 
L 1159 0 
L 581 0 
L 581 3500 
L 1159 3500 
L 1159 2956 
Q 1356 3278 1631 3431 
Q 1906 3584 2284 3584 
Q 2666 3584 2933 3390 
Q 3200 3197 3328 2828 
z
" transform="scale(0.015625)"/>
       <path id="DejaVuSans-6e" d="M 3513 2113 
L 3513 0 
L 2938 0 
L 2938 2094 
Q 2938 2591 2744 2837 
Q 2550 3084 2163 3084 
Q 1697 3084 1428 2787 
Q 1159 2491 1159 1978 
L 1159 0 
L 581 0 
L 581 3500 
L 1159 3500 
L 1159 2956 
Q 1366 3272 1645 3428 
Q 1925 3584 2291 3584 
Q 2894 3584 3203 3211 
Q 3513 2838 3513 2113 
z
" transform="scale(0.015625)"/>
       <path id="DejaVuSans-29" d="M 513 4856 
L 1013 4856 
Q 1481 4119 1714 3412 
Q 1947 2706 1947 2009 
Q 1947 1309 1714 600 
Q 1481 -109 1013 -844 
L 513 -844 
Q 928 -128 1133 580 
Q 1338 1288 1338 2009 
Q 1338 2731 1133 3434 
Q 928 4138 513 4856 
z
" transform="scale(0.015625)"/>
      </defs>
      <use xlink:href="#DejaVuSans-6c"/>
      <use xlink:href="#DejaVuSans-6f" x="27.783203"/>
      <use xlink:href="#DejaVuSans-67" x="88.964844"/>
      <use xlink:href="#DejaVuSans-31" x="152.441406"/>
      <use xlink:href="#DejaVuSans-30" x="216.064453"/>
      <use xlink:href="#DejaVuSans-28" x="279.6875"/>
      <use xlink:href="#DejaVuSans-23" x="318.701172"/>
      <use xlink:href="#DejaVuSans-20" x="402.490234"/>
      <use xlink:href="#DejaVuSans-66" x="434.277344"/>
      <use xlink:href="#DejaVuSans-2d" x="463.982422"/>
      <use xlink:href="#DejaVuSans-65" x="500.066406"/>
      <use xlink:href="#DejaVuSans-76" x="561.589844"/>
      <use xlink:href="#DejaVuSans-61" x="620.769531"/>
      <use xlink:href="#DejaVuSans-6c" x="682.048828"/>
      <use xlink:href="#DejaVuSans-73" x="709.832031"/>
      <use xlink:href="#DejaVuSans-20" x="761.931641"/>
      <use xlink:href="#DejaVuSans-2f" x="793.71875"/>
      <use xlink:href="#DejaVuSans-20" x="827.410156"/>
      <use xlink:href="#DejaVuSans-64" x="859.197266"/>
      <use xlink:href="#DejaVuSans-69" x="922.673828"/>
      <use xlink:href="#DejaVuSans-6d" x="950.457031"/>
      <use xlink:href="#DejaVuSans-65" x="1047.869141"/>
      <use xlink:href="#DejaVuSans-6e" x="1109.392578"/>
      <use xlink:href="#DejaVuSans-73" x="1172.771484"/>
      <use xlink:href="#DejaVuSans-69" x="1224.871094"/>
      <use xlink:href="#DejaVuSans-6f" x="1252.654297"/>
      <use xlink:href="#DejaVuSans-6e" x="1313.835938"/>
      <use xlink:href="#DejaVuSans-29" x="1377.214844"/>
     </g>
    </g>
   </g>
   <g id="matplotlib.axis_2">
    <g id="ytick_1">
     <g id="line2d_17">
      <path d="M 57.6 298.944 
L 360.8064 298.944 
" clip-path="url(#p8dcd72cec6)" style="fill: none; stroke: #b0b0b0; stroke-width: 0.8; stroke-linecap: square"/>
     </g>
     <g id="line2d_18">
      <defs>
       <path id="m4e7c213538" d="M 0 0 
L -3.5 0 
" style="stroke: #000000; stroke-width: 0.8"/>
      </defs>
      <g>
       <use xlink:href="#m4e7c213538" x="57.6" y="298.944" style="stroke: #000000; stroke-width: 0.8"/>
      </g>
     </g>
     <g id="text_6">
      <!-- 0.0 -->
      <g transform="translate(25.155 305.02275)scale(0.16 -0.16)">
       <defs>
        <path id="DejaVuSans-2e" d="M 684 794 
L 1344 794 
L 1344 0 
L 684 0 
L 684 794 
z
" transform="scale(0.015625)"/>
       </defs>
       <use xlink:href="#DejaVuSans-30"/>
       <use xlink:href="#DejaVuSans-2e" x="63.623047"/>
       <use xlink:href="#DejaVuSans-30" x="95.410156"/>
      </g>
     </g>
    </g>
    <g id="ytick_2">
     <g id="line2d_19">
      <path d="M 57.6 240.5376 
L 360.8064 240.5376 
" clip-path="url(#p8dcd72cec6)" style="fill: none; stroke: #b0b0b0; stroke-width: 0.8; stroke-linecap: square"/>
     </g>
     <g id="line2d_20">
      <g>
       <use xlink:href="#m4e7c213538" x="57.6" y="240.5376" style="stroke: #000000; stroke-width: 0.8"/>
      </g>
     </g>
     <g id="text_7">
      <!-- 0.2 -->
      <g transform="translate(25.155 246.61635)scale(0.16 -0.16)">
       <use xlink:href="#DejaVuSans-30"/>
       <use xlink:href="#DejaVuSans-2e" x="63.623047"/>
       <use xlink:href="#DejaVuSans-32" x="95.410156"/>
      </g>
     </g>
    </g>
    <g id="ytick_3">
     <g id="line2d_21">
      <path d="M 57.6 182.1312 
L 360.8064 182.1312 
" clip-path="url(#p8dcd72cec6)" style="fill: none; stroke: #b0b0b0; stroke-width: 0.8; stroke-linecap: square"/>
     </g>
     <g id="line2d_22">
      <g>
       <use xlink:href="#m4e7c213538" x="57.6" y="182.1312" style="stroke: #000000; stroke-width: 0.8"/>
      </g>
     </g>
     <g id="text_8">
      <!-- 0.4 -->
      <g transform="translate(25.155 188.20995)scale(0.16 -0.16)">
       <use xlink:href="#DejaVuSans-30"/>
       <use xlink:href="#DejaVuSans-2e" x="63.623047"/>
       <use xlink:href="#DejaVuSans-34" x="95.410156"/>
      </g>
     </g>
    </g>
    <g id="ytick_4">
     <g id="line2d_23">
      <path d="M 57.6 123.7248 
L 360.8064 123.7248 
" clip-path="url(#p8dcd72cec6)" style="fill: none; stroke: #b0b0b0; stroke-width: 0.8; stroke-linecap: square"/>
     </g>
     <g id="line2d_24">
      <g>
       <use xlink:href="#m4e7c213538" x="57.6" y="123.7248" style="stroke: #000000; stroke-width: 0.8"/>
      </g>
     </g>
     <g id="text_9">
      <!-- 0.6 -->
      <g transform="translate(25.155 129.80355)scale(0.16 -0.16)">
       <use xlink:href="#DejaVuSans-30"/>
       <use xlink:href="#DejaVuSans-2e" x="63.623047"/>
       <use xlink:href="#DejaVuSans-36" x="95.410156"/>
      </g>
     </g>
    </g>
    <g id="ytick_5">
     <g id="line2d_25">
      <path d="M 57.6 65.3184 
L 360.8064 65.3184 
" clip-path="url(#p8dcd72cec6)" style="fill: none; stroke: #b0b0b0; stroke-width: 0.8; stroke-linecap: square"/>
     </g>
     <g id="line2d_26">
      <g>
       <use xlink:href="#m4e7c213538" x="57.6" y="65.3184" style="stroke: #000000; stroke-width: 0.8"/>
      </g>
     </g>
     <g id="text_10">
      <!-- 0.8 -->
      <g transform="translate(25.155 71.39715)scale(0.16 -0.16)">
       <defs>
        <path id="DejaVuSans-38" d="M 2034 2216 
Q 1584 2216 1326 1975 
Q 1069 1734 1069 1313 
Q 1069 891 1326 650 
Q 1584 409 2034 409 
Q 2484 409 2743 651 
Q 3003 894 3003 1313 
Q 3003 1734 2745 1975 
Q 2488 2216 2034 2216 
z
M 1403 2484 
Q 997 2584 770 2862 
Q 544 3141 544 3541 
Q 544 4100 942 4425 
Q 1341 4750 2034 4750 
Q 2731 4750 3128 4425 
Q 3525 4100 3525 3541 
Q 3525 3141 3298 2862 
Q 3072 2584 2669 2484 
Q 3125 2378 3379 2068 
Q 3634 1759 3634 1313 
Q 3634 634 3220 271 
Q 2806 -91 2034 -91 
Q 1263 -91 848 271 
Q 434 634 434 1313 
Q 434 1759 690 2068 
Q 947 2378 1403 2484 
z
M 1172 3481 
Q 1172 3119 1398 2916 
Q 1625 2713 2034 2713 
Q 2441 2713 2670 2916 
Q 2900 3119 2900 3481 
Q 2900 3844 2670 4047 
Q 2441 4250 2034 4250 
Q 1625 4250 1398 4047 
Q 1172 3844 1172 3481 
z
" transform="scale(0.015625)"/>
       </defs>
       <use xlink:href="#DejaVuSans-30"/>
       <use xlink:href="#DejaVuSans-2e" x="63.623047"/>
       <use xlink:href="#DejaVuSans-38" x="95.410156"/>
      </g>
     </g>
    </g>
    <g id="ytick_6">
     <g id="line2d_27">
      <path d="M 57.6 6.912 
L 360.8064 6.912 
" clip-path="url(#p8dcd72cec6)" style="fill: none; stroke: #b0b0b0; stroke-width: 0.8; stroke-linecap: square"/>
     </g>
     <g id="line2d_28">
      <g>
       <use xlink:href="#m4e7c213538" x="57.6" y="6.912" style="stroke: #000000; stroke-width: 0.8"/>
      </g>
     </g>
     <g id="text_11">
      <!-- 1.0 -->
      <g transform="translate(25.155 12.99075)scale(0.16 -0.16)">
       <use xlink:href="#DejaVuSans-31"/>
       <use xlink:href="#DejaVuSans-2e" x="63.623047"/>
       <use xlink:href="#DejaVuSans-30" x="95.410156"/>
      </g>
     </g>
    </g>
    <g id="text_12">
     <!-- Fraction of function,target pairs -->
     <g transform="translate(17.619531 287.313)rotate(-90)scale(0.17 -0.17)">
      <defs>
       <path id="DejaVuSans-46" d="M 628 4666 
L 3309 4666 
L 3309 4134 
L 1259 4134 
L 1259 2759 
L 3109 2759 
L 3109 2228 
L 1259 2228 
L 1259 0 
L 628 0 
L 628 4666 
z
" transform="scale(0.015625)"/>
       <path id="DejaVuSans-72" d="M 2631 2963 
Q 2534 3019 2420 3045 
Q 2306 3072 2169 3072 
Q 1681 3072 1420 2755 
Q 1159 2438 1159 1844 
L 1159 0 
L 581 0 
L 581 3500 
L 1159 3500 
L 1159 2956 
Q 1341 3275 1631 3429 
Q 1922 3584 2338 3584 
Q 2397 3584 2469 3576 
Q 2541 3569 2628 3553 
L 2631 2963 
z
" transform="scale(0.015625)"/>
       <path id="DejaVuSans-63" d="M 3122 3366 
L 3122 2828 
Q 2878 2963 2633 3030 
Q 2388 3097 2138 3097 
Q 1578 3097 1268 2742 
Q 959 2388 959 1747 
Q 959 1106 1268 751 
Q 1578 397 2138 397 
Q 2388 397 2633 464 
Q 2878 531 3122 666 
L 3122 134 
Q 2881 22 2623 -34 
Q 2366 -91 2075 -91 
Q 1284 -91 818 406 
Q 353 903 353 1747 
Q 353 2603 823 3093 
Q 1294 3584 2113 3584 
Q 2378 3584 2631 3529 
Q 2884 3475 3122 3366 
z
" transform="scale(0.015625)"/>
       <path id="DejaVuSans-74" d="M 1172 4494 
L 1172 3500 
L 2356 3500 
L 2356 3053 
L 1172 3053 
L 1172 1153 
Q 1172 725 1289 603 
Q 1406 481 1766 481 
L 2356 481 
L 2356 0 
L 1766 0 
Q 1100 0 847 248 
Q 594 497 594 1153 
L 594 3053 
L 172 3053 
L 172 3500 
L 594 3500 
L 594 4494 
L 1172 4494 
z
" transform="scale(0.015625)"/>
       <path id="DejaVuSans-75" d="M 544 1381 
L 544 3500 
L 1119 3500 
L 1119 1403 
Q 1119 906 1312 657 
Q 1506 409 1894 409 
Q 2359 409 2629 706 
Q 2900 1003 2900 1516 
L 2900 3500 
L 3475 3500 
L 3475 0 
L 2900 0 
L 2900 538 
Q 2691 219 2414 64 
Q 2138 -91 1772 -91 
Q 1169 -91 856 284 
Q 544 659 544 1381 
z
M 1991 3584 
L 1991 3584 
z
" transform="scale(0.015625)"/>
       <path id="DejaVuSans-2c" d="M 750 794 
L 1409 794 
L 1409 256 
L 897 -744 
L 494 -744 
L 750 256 
L 750 794 
z
" transform="scale(0.015625)"/>
       <path id="DejaVuSans-70" d="M 1159 525 
L 1159 -1331 
L 581 -1331 
L 581 3500 
L 1159 3500 
L 1159 2969 
Q 1341 3281 1617 3432 
Q 1894 3584 2278 3584 
Q 2916 3584 3314 3078 
Q 3713 2572 3713 1747 
Q 3713 922 3314 415 
Q 2916 -91 2278 -91 
Q 1894 -91 1617 61 
Q 1341 213 1159 525 
z
M 3116 1747 
Q 3116 2381 2855 2742 
Q 2594 3103 2138 3103 
Q 1681 3103 1420 2742 
Q 1159 2381 1159 1747 
Q 1159 1113 1420 752 
Q 1681 391 2138 391 
Q 2594 391 2855 752 
Q 3116 1113 3116 1747 
z
" transform="scale(0.015625)"/>
      </defs>
      <use xlink:href="#DejaVuSans-46"/>
      <use xlink:href="#DejaVuSans-72" x="50.269531"/>
      <use xlink:href="#DejaVuSans-61" x="91.382812"/>
      <use xlink:href="#DejaVuSans-63" x="152.662109"/>
      <use xlink:href="#DejaVuSans-74" x="207.642578"/>
      <use xlink:href="#DejaVuSans-69" x="246.851562"/>
      <use xlink:href="#DejaVuSans-6f" x="274.634766"/>
      <use xlink:href="#DejaVuSans-6e" x="335.816406"/>
      <use xlink:href="#DejaVuSans-20" x="399.195312"/>
      <use xlink:href="#DejaVuSans-6f" x="430.982422"/>
      <use xlink:href="#DejaVuSans-66" x="492.164062"/>
      <use xlink:href="#DejaVuSans-20" x="527.369141"/>
      <use xlink:href="#DejaVuSans-66" x="559.15625"/>
      <use xlink:href="#DejaVuSans-75" x="594.361328"/>
      <use xlink:href="#DejaVuSans-6e" x="657.740234"/>
      <use xlink:href="#DejaVuSans-63" x="721.119141"/>
      <use xlink:href="#DejaVuSans-74" x="776.099609"/>
      <use xlink:href="#DejaVuSans-69" x="815.308594"/>
      <use xlink:href="#DejaVuSans-6f" x="843.091797"/>
      <use xlink:href="#DejaVuSans-6e" x="904.273438"/>
      <use xlink:href="#DejaVuSans-2c" x="967.652344"/>
      <use xlink:href="#DejaVuSans-74" x="999.439453"/>
      <use xlink:href="#DejaVuSans-61" x="1038.648438"/>
      <use xlink:href="#DejaVuSans-72" x="1099.927734"/>
      <use xlink:href="#DejaVuSans-67" x="1139.291016"/>
      <use xlink:href="#DejaVuSans-65" x="1202.767578"/>
      <use xlink:href="#DejaVuSans-74" x="1264.291016"/>
      <use xlink:href="#DejaVuSans-20" x="1303.5"/>
      <use xlink:href="#DejaVuSans-70" x="1335.287109"/>
      <use xlink:href="#DejaVuSans-61" x="1398.763672"/>
      <use xlink:href="#DejaVuSans-69" x="1460.042969"/>
      <use xlink:href="#DejaVuSans-72" x="1487.826172"/>
      <use xlink:href="#DejaVuSans-73" x="1528.939453"/>
     </g>
    </g>
   </g>
   <g id="line2d_29">
    <defs>
     <path id="m407e04ff16" d="M 0 1.5 
C 0.397805 1.5 0.77937 1.341951 1.06066 1.06066 
C 1.341951 0.77937 1.5 0.397805 1.5 0 
C 1.5 -0.397805 1.341951 -0.77937 1.06066 -1.06066 
C 0.77937 -1.341951 0.397805 -1.5 0 -1.5 
C -0.397805 -1.5 -0.77937 -1.341951 -1.06066 -1.06066 
C -1.341951 -0.77937 -1.5 -0.397805 -1.5 0 
C -1.5 0.397805 -1.341951 0.77937 -1.06066 1.06066 
C -0.77937 1.341951 -0.397805 1.5 0 1.5 
z
" style="stroke: #00bfbf"/>
    </defs>
    <g>
     <use xlink:href="#m407e04ff16" x="204.642728" y="221.278593" style="fill: #00bfbf; stroke: #00bfbf"/>
     <use xlink:href="#m407e04ff16" x="204.642728" y="221.278593" style="fill: #00bfbf; stroke: #00bfbf"/>
    </g>
   </g>
   <g id="line2d_30">
    <path d="M 44.560826 298.944 
L 44.560826 288.748055 
L 57.6 288.748055 
L 57.6 288.622179 
L 70.639174 288.622179 
L 70.639174 287.237545 
L 81.166416 287.237545 
L 81.166416 286.985793 
L 83.678349 286.985793 
L 83.678349 286.230538 
L 89.668958 286.230538 
L 89.668958 285.978786 
L 91.305777 285.978786 
L 91.305777 285.85291 
L 92.811505 285.85291 
L 92.811505 285.727034 
L 95.503454 285.727034 
L 95.503454 284.468276 
L 96.717523 284.468276 
L 96.717523 284.3424 
L 97.857967 284.3424 
L 97.857967 284.216524 
L 99.950294 284.216524 
L 99.950294 283.964772 
L 100.9152 283.964772 
L 100.9152 283.335393 
L 103.544339 283.335393 
L 103.544339 283.209517 
L 105.850679 283.209517 
L 105.850679 281.699007 
L 106.560633 281.699007 
L 106.560633 281.195503 
L 107.244765 281.195503 
L 107.244765 281.069628 
L 107.904887 281.069628 
L 107.904887 280.692 
L 108.542628 280.692 
L 108.542628 280.566124 
L 109.159456 280.566124 
L 109.159456 280.062621 
L 109.756698 280.062621 
L 109.756698 279.936745 
L 110.335561 279.936745 
L 110.335561 279.307366 
L 111.442442 279.307366 
L 111.442442 279.18149 
L 112.487797 279.18149 
L 112.487797 279.055614 
L 112.989468 279.055614 
L 112.989468 278.55211 
L 113.954374 278.55211 
L 113.954374 278.174483 
L 114.418881 278.174483 
L 114.418881 277.796855 
L 115.314838 277.796855 
L 115.314838 277.670979 
L 115.747307 277.670979 
L 115.747307 277.419228 
L 116.583514 277.419228 
L 116.583514 277.0416 
L 117.384126 277.0416 
L 117.384126 276.915724 
L 118.524569 276.915724 
L 118.524569 276.789848 
L 119.24818 276.789848 
L 119.24818 276.412221 
L 119.599808 276.412221 
L 119.599808 276.286345 
L 120.28394 276.286345 
L 120.28394 276.160469 
L 120.944062 276.160469 
L 120.944062 275.782841 
L 122.499621 275.782841 
L 122.499621 275.656966 
L 122.795872 275.656966 
L 122.795872 275.279338 
L 123.08753 275.279338 
L 123.08753 275.027586 
L 123.936316 275.027586 
L 123.936316 274.90171 
L 124.481616 274.90171 
L 124.481616 274.398207 
L 124.748451 274.398207 
L 124.748451 274.146455 
L 125.011554 274.146455 
L 125.011554 273.768828 
L 125.271028 273.768828 
L 125.271028 273.517076 
L 126.028642 273.517076 
L 126.028642 273.3912 
L 126.274549 273.3912 
L 126.274549 273.265324 
L 126.756923 273.265324 
L 126.756923 273.013572 
L 127.686077 273.013572 
L 127.686077 272.887697 
L 128.354013 272.887697 
L 128.354013 272.761821 
L 128.999044 272.761821 
L 128.999044 272.510069 
L 129.209231 272.510069 
L 129.209231 272.258317 
L 130.226319 272.258317 
L 130.226319 272.132441 
L 130.618241 272.132441 
L 130.618241 272.006566 
L 131.002163 272.006566 
L 131.002163 271.754814 
L 131.378407 271.754814 
L 131.378407 271.628938 
L 131.563744 271.628938 
L 131.563744 271.377186 
L 131.929028 271.377186 
L 131.929028 271.25131 
L 133.656071 271.25131 
L 133.656071 270.999559 
L 134.14471 270.999559 
L 134.14471 270.496055 
L 134.304809 270.496055 
L 134.304809 270.370179 
L 134.620977 270.370179 
L 134.620977 270.244303 
L 134.931919 270.244303 
L 134.931919 269.992552 
L 135.237805 269.992552 
L 135.237805 269.614924 
L 136.555884 269.614924 
L 136.555884 269.489048 
L 136.97549 269.489048 
L 136.97549 269.111421 
L 137.250116 269.111421 
L 137.250116 268.607917 
L 137.38594 268.607917 
L 137.38594 268.482041 
L 137.520791 268.482041 
L 137.520791 268.356166 
L 137.654681 268.356166 
L 137.654681 268.23029 
L 138.050729 268.23029 
L 138.050729 268.104414 
L 138.566146 268.104414 
L 138.566146 267.852662 
L 138.692823 267.852662 
L 138.692823 267.726786 
L 138.818654 267.726786 
L 138.818654 267.60091 
L 139.796097 267.60091 
L 139.796097 267.349159 
L 139.914782 267.349159 
L 139.914782 267.223283 
L 140.950542 267.223283 
L 140.950542 266.845655 
L 141.173167 266.845655 
L 141.173167 266.719779 
L 141.610664 266.719779 
L 141.610664 266.593903 
L 143.364242 266.593903 
L 143.462475 266.216276 
L 143.560197 266.216276 
L 143.560197 266.0904 
L 144.041338 266.0904 
L 144.041338 265.964524 
L 144.602918 265.964524 
L 144.694906 265.209269 
L 144.877544 265.209269 
L 144.877544 264.454014 
L 145.148219 264.454014 
L 145.237585 264.202262 
L 145.415054 264.202262 
L 145.415054 264.076386 
L 145.590864 264.076386 
L 145.678157 263.572883 
L 145.765046 263.572883 
L 145.765046 263.447007 
L 145.93763 263.447007 
L 145.93763 263.321131 
L 146.695245 263.321131 
L 146.695245 263.195255 
L 146.941151 263.195255 
L 146.941151 262.943503 
L 147.73837 262.943503 
L 147.73837 262.691752 
L 147.893838 262.691752 
L 147.971093 262.44 
L 148.352679 262.44 
L 148.352679 262.188248 
L 149.238092 262.188248 
L 149.31003 261.810621 
L 149.665646 261.810621 
L 149.665646 261.684745 
L 150.221009 261.684745 
L 150.221009 261.558869 
L 150.559965 261.558869 
L 150.559965 261.432993 
L 150.760445 261.432993 
L 150.760445 261.181241 
L 151.60532 261.181241 
L 151.60532 261.055366 
L 151.857828 261.055366 
L 151.857828 260.92949 
L 152.106991 260.92949 
L 152.106991 260.677738 
L 152.53524 260.677738 
L 152.595631 260.174234 
L 152.715833 260.174234 
L 152.715833 260.048359 
L 153.421349 260.048359 
L 153.478964 259.544855 
L 154.595705 259.544855 
L 154.595705 259.418979 
L 154.811312 259.418979 
L 154.811312 259.167228 
L 154.971412 259.167228 
L 154.971412 259.041352 
L 155.85377 259.041352 
L 155.85377 258.915476 
L 156.452597 258.915476 
L 156.550574 258.663724 
L 156.599372 258.663724 
L 156.599372 258.537848 
L 156.793307 258.537848 
L 156.793307 258.411972 
L 157.080512 258.411972 
L 157.080512 258.286097 
L 157.269574 258.286097 
L 157.269574 258.160221 
L 157.734081 258.160221 
L 157.734081 258.034345 
L 158.187393 258.034345 
L 158.276759 257.530841 
L 158.454228 257.530841 
L 158.542339 256.901462 
L 158.630038 256.901462 
L 158.630038 256.775586 
L 158.847515 256.775586 
L 158.847515 256.523834 
L 160.142495 256.523834 
L 160.142495 256.397959 
L 160.343261 256.397959 
L 160.343261 256.272083 
L 160.660094 256.272083 
L 160.738476 255.768579 
L 160.816532 255.768579 
L 160.816532 255.516828 
L 160.97168 255.516828 
L 160.97168 255.390952 
L 161.617145 255.390952 
L 161.617145 255.1392 
L 161.986735 255.1392 
L 162.096211 254.887448 
L 162.634233 254.887448 
L 162.634233 254.761572 
L 162.810208 254.761572 
L 162.845206 253.880441 
L 163.053839 253.880441 
L 163.053839 253.754566 
L 163.632702 253.754566 
L 163.632702 253.376938 
L 163.865975 253.376938 
L 163.865975 253.251062 
L 164.063646 253.251062 
L 164.161708 252.873434 
L 164.516958 252.873434 
L 164.516958 252.747559 
L 165.1152 252.747559 
L 165.207944 252.495807 
L 165.574415 252.495807 
L 165.634805 252.118179 
L 165.904188 252.118179 
L 165.933882 251.740552 
L 166.081656 251.740552 
L 166.081656 251.614676 
L 166.40273 251.614676 
L 166.40273 251.4888 
L 167.140533 251.4888 
L 167.140533 251.362924 
L 167.607754 251.362924 
L 167.607754 251.237048 
L 168.326754 251.237048 
L 168.326754 251.111172 
L 168.456938 251.111172 
L 168.456938 250.985297 
L 168.611979 250.985297 
L 168.663377 250.733545 
L 169.442591 250.733545 
L 169.442591 250.607669 
L 169.662898 250.607669 
L 169.662898 250.355917 
L 170.355719 250.355917 
L 170.355719 250.104166 
L 170.49593 250.104166 
L 170.49593 249.97829 
L 170.704306 249.97829 
L 170.704306 249.726538 
L 170.819081 249.726538 
L 170.887612 249.097159 
L 171.226568 249.097159 
L 171.293632 248.719531 
L 171.427048 248.719531 
L 171.515469 248.216028 
L 171.669213 248.216028 
L 171.756506 247.8384 
L 171.82171 247.8384 
L 171.865055 247.460772 
L 172.123046 247.460772 
L 172.123046 247.209021 
L 172.314244 247.209021 
L 172.377547 246.705517 
L 172.752956 246.705517 
L 172.752956 246.32789 
L 172.978738 246.32789 
L 172.978738 246.076138 
L 173.262233 246.076138 
L 173.262233 245.950262 
L 173.541519 245.950262 
L 173.541519 245.824386 
L 173.914037 245.824386 
L 173.914037 245.69851 
L 174.203007 245.69851 
L 174.203007 245.572634 
L 174.562776 245.572634 
L 174.562776 245.446759 
L 174.767961 245.446759 
L 174.805028 245.195007 
L 174.95257 245.195007 
L 174.95257 244.943255 
L 175.171736 244.943255 
L 175.171736 244.817379 
L 175.477915 244.817379 
L 175.477915 244.691503 
L 175.954182 244.691503 
L 175.954182 244.188 
L 176.299358 244.188 
L 176.316452 243.810372 
L 176.503464 243.810372 
L 176.57101 243.432745 
L 177.330842 243.432745 
L 177.330842 243.306869 
L 177.54013 243.306869 
L 177.54013 243.055117 
L 177.731273 243.055117 
L 177.762943 242.803366 
L 178.138873 242.803366 
L 178.138873 242.67749 
L 178.749196 242.67749 
L 178.749196 242.425738 
L 178.943362 242.425738 
L 178.958215 242.04811 
L 179.07662 242.04811 
L 179.07662 241.796359 
L 179.456369 241.796359 
L 179.456369 241.670483 
L 179.955757 241.670483 
L 179.955757 241.418731 
L 180.193616 241.418731 
L 180.193616 241.166979 
L 180.510711 241.166979 
L 180.606166 240.789352 
L 180.835991 240.789352 
L 180.876258 240.411724 
L 181.560869 240.411724 
L 181.638283 239.782345 
L 182.133854 239.782345 
L 182.233915 239.530593 
L 182.358249 239.530593 
L 182.444795 239.152966 
L 182.604477 239.152966 
L 182.604477 239.02709 
L 182.787055 239.02709 
L 182.787055 238.775338 
L 183.674278 238.775338 
L 183.674278 238.649462 
L 183.823897 238.649462 
L 183.823897 238.39771 
L 184.085726 238.39771 
L 184.175949 238.020083 
L 184.806563 238.020083 
L 184.91505 237.642455 
L 185.140856 237.642455 
L 185.140856 237.516579 
L 185.374543 237.516579 
L 185.374543 237.390703 
L 185.584495 237.390703 
L 185.584495 237.264828 
L 185.719719 237.264828 
L 185.719719 237.013076 
L 185.987283 237.013076 
L 185.987283 236.8872 
L 186.180433 236.8872 
L 186.251096 236.509572 
L 186.321495 236.509572 
L 186.321495 236.383697 
L 186.610373 236.383697 
L 186.610373 236.131945 
L 187.194327 236.131945 
L 187.203908 235.628441 
L 187.37553 235.628441 
L 187.37553 235.37669 
L 188.427553 235.37669 
L 188.427553 235.250814 
L 188.606202 235.250814 
L 188.606202 235.124938 
L 188.747909 235.124938 
L 188.791974 234.74731 
L 188.862265 234.74731 
L 188.897312 234.117931 
L 189.088913 234.117931 
L 189.088913 233.866179 
L 189.440862 233.866179 
L 189.440862 233.614428 
L 189.794695 233.614428 
L 189.794695 233.362676 
L 190.215589 233.362676 
L 190.215589 233.110924 
L 190.410445 233.110924 
L 190.410445 232.859172 
L 190.93612 232.859172 
L 190.93612 232.733297 
L 192.086263 232.733297 
L 192.152644 232.103917 
L 192.350392 232.103917 
L 192.350392 231.978041 
L 192.596488 231.978041 
L 192.596488 231.852166 
L 192.881949 231.852166 
L 192.917329 230.971034 
L 192.994932 230.971034 
L 192.994932 230.845159 
L 193.10724 230.845159 
L 193.10724 230.719283 
L 193.336779 230.719283 
L 193.336779 230.593407 
L 193.645341 230.593407 
L 193.645341 230.341655 
L 194.135375 230.341655 
L 194.135375 230.089903 
L 194.541773 230.089903 
L 194.541773 229.838152 
L 195.072431 229.838152 
L 195.072431 229.5864 
L 195.223125 229.5864 
L 195.223125 229.334648 
L 195.446927 229.334648 
L 195.446927 229.082897 
L 195.576259 229.082897 
L 195.576259 228.831145 
L 196.138562 228.831145 
L 196.221772 228.327641 
L 196.416468 228.327641 
L 196.422337 227.950014 
L 196.550983 227.950014 
L 196.550983 227.824138 
L 197.175704 227.824138 
L 197.282509 227.194759 
L 197.38871 227.194759 
L 197.38871 227.068883 
L 197.665355 227.068883 
L 197.665355 226.817131 
L 198.185374 226.817131 
L 198.185374 226.691255 
L 198.566166 226.691255 
L 198.581866 226.313628 
L 198.939403 226.313628 
L 198.939403 226.187752 
L 199.113112 226.187752 
L 199.17404 225.936 
L 199.234772 225.936 
L 199.234772 225.684248 
L 199.415798 225.684248 
L 199.490715 225.054869 
L 200.026329 225.054869 
L 200.026329 224.803117 
L 200.238292 224.803117 
L 200.324321 224.42549 
L 200.523537 224.42549 
L 200.523537 224.299614 
L 200.975726 224.299614 
L 201.081371 223.79611 
L 201.444277 223.79611 
L 201.444277 223.670234 
L 201.632036 223.670234 
L 201.738492 223.292607 
L 201.773844 223.292607 
L 201.773844 223.040855 
L 202.505532 223.040855 
L 202.505532 222.914979 
L 202.846384 222.914979 
L 202.846384 222.663228 
L 202.979358 222.663228 
L 202.979358 222.411476 
L 203.164776 222.411476 
L 203.164776 222.2856 
L 203.51815 222.2856 
L 203.51815 222.159724 
L 203.666447 222.159724 
L 203.750098 221.782097 
L 204.166752 221.782097 
L 204.236597 221.404469 
L 204.642728 221.404469 
L 204.642728 221.278593 
L 360.8064 221.278593 
L 360.8064 221.278593 
" style="fill: none; stroke: #00bfbf; stroke-width: 1.5; stroke-linecap: square"/>
   </g>
   <g id="line2d_31">
    <defs>
     <path id="m73d16e7170" d="M -6 0 
L 6 0 
M 0 6 
L 0 -6 
" style="stroke: #00bfbf; stroke-width: 1.5"/>
    </defs>
    <g>
     <use xlink:href="#m73d16e7170" x="100.9152" y="283.964772" style="fill-opacity: 0; stroke: #00bfbf; stroke-width: 1.5"/>
     <use xlink:href="#m73d16e7170" x="154.971412" y="259.167228" style="fill-opacity: 0; stroke: #00bfbf; stroke-width: 1.5"/>
     <use xlink:href="#m73d16e7170" x="198.185374" y="226.691255" style="fill-opacity: 0; stroke: #00bfbf; stroke-width: 1.5"/>
     <use xlink:href="#m73d16e7170" x="204.642728" y="221.404469" style="fill-opacity: 0; stroke: #00bfbf; stroke-width: 1.5"/>
     <use xlink:href="#m73d16e7170" x="204.642728" y="221.278593" style="fill-opacity: 0; stroke: #00bfbf; stroke-width: 1.5"/>
     <use xlink:href="#m73d16e7170" x="360.8064" y="221.278593" style="fill-opacity: 0; stroke: #00bfbf; stroke-width: 1.5"/>
    </g>
   </g>
   <g id="line2d_32">
    <path style="fill: none; stroke: #00bfbf; stroke-width: 1.5; stroke-linecap: square"/>
    <g/>
   </g>
   <g id="line2d_33">
    <path d="M 205.158657 221.278593 
" clip-path="url(#p8dcd72cec6)" style="fill: none; stroke: #00bfbf; stroke-width: 1.5; stroke-linecap: square"/>
    <defs>
     <path id="m38dc33c6da" d="M -12 12 
L 12 -12 
M -12 -12 
L 12 12 
" style="stroke: #00bfbf"/>
    </defs>
    <g clip-path="url(#p8dcd72cec6)">
     <use xlink:href="#m38dc33c6da" x="205.158657" y="221.278593" style="fill: #00bfbf; stroke: #00bfbf"/>
    </g>
   </g>
   <g id="line2d_34">
    <defs>
     <path id="me349524856" d="M 0 1.5 
C 0.397805 1.5 0.77937 1.341951 1.06066 1.06066 
C 1.341951 0.77937 1.5 0.397805 1.5 0 
C 1.5 -0.397805 1.341951 -0.77937 1.06066 -1.06066 
C 0.77937 -1.341951 0.397805 -1.5 0 -1.5 
C -0.397805 -1.5 -0.77937 -1.341951 -1.06066 -1.06066 
C -1.341951 -0.77937 -1.5 -0.397805 -1.5 0 
C -1.5 0.397805 -1.341951 0.77937 -1.06066 1.06066 
C -0.77937 1.341951 -0.397805 1.5 0 1.5 
z
" style="stroke: #008000"/>
    </defs>
    <g>
     <use xlink:href="#me349524856" x="197.293716" y="248.719531" style="fill: #008000; stroke: #008000"/>
     <use xlink:href="#me349524856" x="197.293716" y="248.719531" style="fill: #008000; stroke: #008000"/>
    </g>
   </g>
   <g id="line2d_35">
    <path d="M 36.933397 298.944 
L 36.933397 290.006814 
L 49.972572 290.006814 
L 49.972572 289.755062 
L 57.6 289.755062 
L 57.6 289.377434 
L 67.209423 289.377434 
L 67.209423 288.999807 
L 70.639174 288.999807 
L 70.639174 288.622179 
L 80.248597 288.622179 
L 80.248597 288.496303 
L 82.04153 288.496303 
L 82.04153 287.866924 
L 85.184077 287.866924 
L 85.184077 287.615172 
L 86.578163 287.615172 
L 86.578163 286.985793 
L 90.230539 286.985793 
L 90.230539 286.859917 
L 94.205591 286.859917 
L 94.205591 286.734041 
L 95.080704 286.734041 
L 95.080704 286.48229 
L 95.916911 286.48229 
L 95.916911 286.356414 
L 96.717523 286.356414 
L 96.717523 286.104662 
L 97.485448 286.104662 
L 97.485448 285.978786 
L 98.223251 285.978786 
L 98.223251 285.85291 
L 99.617337 285.85291 
L 99.617337 285.727034 
L 101.532027 285.727034 
L 101.532027 285.601159 
L 102.12927 285.601159 
L 102.12927 285.223531 
L 102.708132 285.223531 
L 102.708132 285.097655 
L 103.269713 285.097655 
L 103.269713 284.971779 
L 103.815014 284.971779 
L 103.815014 284.594152 
L 104.344952 284.594152 
L 104.344952 284.468276 
L 104.860369 284.468276 
L 104.860369 284.090648 
L 105.850679 284.090648 
L 105.850679 283.838897 
L 107.68741 283.838897 
L 107.68741 283.713021 
L 108.956085 283.713021 
L 108.956085 283.587145 
L 110.144579 283.587145 
L 110.144579 283.335393 
L 111.262425 283.335393 
L 111.262425 283.083641 
L 111.620752 283.083641 
L 111.620752 282.957766 
L 113.316634 282.957766 
L 113.316634 282.706014 
L 113.954374 282.706014 
L 113.954374 282.328386 
L 114.872193 282.328386 
L 114.872193 282.20251 
L 115.168444 282.20251 
L 115.168444 282.076634 
L 117.384126 282.076634 
L 117.384126 281.824883 
L 117.899543 281.824883 
L 117.899543 281.573131 
L 118.152051 281.573131 
L 118.152051 281.447255 
L 118.889854 281.447255 
L 118.889854 281.195503 
L 119.366121 281.195503 
L 119.366121 281.069628 
L 119.599808 281.069628 
L 119.599808 280.943752 
L 120.506564 280.943752 
L 120.506564 280.817876 
L 121.159053 280.817876 
L 121.159053 280.566124 
L 121.371615 280.566124 
L 121.371615 280.440248 
L 122.990812 280.440248 
L 122.990812 280.314372 
L 123.183753 280.314372 
L 123.183753 280.188497 
L 123.563797 280.188497 
L 123.563797 280.062621 
L 126.355808 280.062621 
L 126.355808 279.936745 
L 127.911368 279.936745 
L 127.911368 279.810869 
L 129.348062 279.810869 
L 129.348062 279.684993 
L 129.485876 279.684993 
L 129.485876 279.559117 
L 129.622688 279.559117 
L 129.622688 279.433241 
L 130.292209 279.433241 
L 130.292209 279.055614 
L 132.754746 279.055614 
L 132.754746 278.803862 
L 133.097823 278.803862 
L 133.097823 278.677986 
L 133.765759 278.677986 
L 133.765759 278.55211 
L 134.304809 278.55211 
L 134.41079 278.300359 
L 134.828842 278.300359 
L 134.828842 278.174483 
L 135.538796 278.174483 
L 135.538796 278.048607 
L 137.067478 278.048607 
L 137.159019 277.796855 
L 137.520791 277.796855 
L 137.520791 277.545103 
L 137.875736 277.545103 
L 137.875736 277.419228 
L 138.395904 277.419228 
L 138.395904 277.167476 
L 138.650692 277.167476 
L 138.650692 276.915724 
L 139.796097 276.915724 
L 139.796097 276.789848 
L 140.573544 276.789848 
L 140.573544 276.663972 
L 141.896777 276.663972 
L 141.896777 276.538097 
L 142.865233 276.538097 
L 142.865233 276.286345 
L 143.977892 276.286345 
L 143.977892 276.160469 
L 144.2304 276.160469 
L 144.2304 276.034593 
L 144.847227 276.034593 
L 144.847227 275.908717 
L 145.088405 275.908717 
L 145.088405 275.782841 
L 146.080251 275.782841 
L 146.080251 275.405214 
L 146.804934 275.405214 
L 146.804934 275.153462 
L 147.022411 275.153462 
L 147.076389 274.775834 
L 147.183884 274.775834 
L 147.183884 274.649959 
L 147.502732 274.649959 
L 147.607824 274.272331 
L 148.022421 274.272331 
L 148.124658 273.768828 
L 149.689117 273.768828 
L 149.689117 273.3912 
L 150.106653 273.3912 
L 150.152479 273.139448 
L 150.870907 273.139448 
L 150.870907 273.013572 
L 151.60532 273.013572 
L 151.60532 272.887697 
L 151.731998 272.887697 
L 151.731998 272.510069 
L 151.857828 272.510069 
L 151.857828 272.384193 
L 151.982822 272.384193 
L 151.982822 272.258317 
L 152.555392 272.258317 
L 152.635783 271.754814 
L 154.24919 271.754814 
L 154.24919 271.628938 
L 154.432362 271.628938 
L 154.432362 271.503062 
L 154.613767 271.503062 
L 154.613767 271.377186 
L 154.829169 271.377186 
L 154.829169 271.25131 
L 155.147716 271.25131 
L 155.252711 270.999559 
L 156.005274 270.999559 
L 156.005274 270.873683 
L 156.172192 270.873683 
L 156.172192 270.747807 
L 156.501649 270.747807 
L 156.599372 270.496055 
L 157.363398 270.496055 
L 157.363398 270.244303 
L 157.764644 270.244303 
L 157.764644 269.992552 
L 157.946987 269.992552 
L 157.946987 269.866676 
L 158.365703 269.866676 
L 158.365703 269.7408 
L 158.542339 269.7408 
L 158.542339 269.489048 
L 158.688279 269.489048 
L 158.688279 269.237297 
L 159.289155 269.237297 
L 159.289155 268.985545 
L 160.276577 268.985545 
L 160.276577 268.859669 
L 161.035949 268.859669 
L 161.035949 268.607917 
L 161.265517 268.607917 
L 161.265517 268.482041 
L 162.132562 268.482041 
L 162.132562 268.23029 
L 162.325256 268.23029 
L 162.420867 267.852662 
L 162.515995 267.852662 
L 162.539702 267.60091 
L 162.681321 267.60091 
L 162.704821 267.349159 
L 163.030771 267.349159 
L 163.030771 267.223283 
L 163.305732 267.223283 
L 163.305732 267.097407 
L 163.554297 267.097407 
L 163.554297 266.971531 
L 163.666204 266.971531 
L 163.666204 266.719779 
L 163.777449 266.719779 
L 163.843882 266.342152 
L 164.474253 266.342152 
L 164.559567 265.964524 
L 164.665667 265.964524 
L 164.665667 265.712772 
L 164.959603 265.712772 
L 164.959603 265.586897 
L 165.674958 265.586897 
L 165.674958 265.461021 
L 165.854592 265.461021 
L 165.854592 265.335145 
L 166.267186 265.335145 
L 166.267186 265.209269 
L 166.498953 265.209269 
L 166.556452 264.831641 
L 167.233064 264.831641 
L 167.233064 264.705766 
L 167.435044 264.705766 
L 167.453299 264.328138 
L 167.652941 264.328138 
L 167.652941 264.076386 
L 167.868343 264.076386 
L 167.868343 263.95051 
L 168.274427 263.95051 
L 168.274427 263.698759 
L 169.07795 263.698759 
L 169.07795 263.572883 
L 169.622295 263.572883 
L 169.622295 263.447007 
L 170.449309 263.447007 
L 170.49593 263.069379 
L 171.136775 263.069379 
L 171.136775 262.817628 
L 171.301069 262.817628 
L 171.301069 262.565876 
L 171.537509 262.565876 
L 171.552189 262.314124 
L 171.814477 262.314124 
L 171.814477 262.188248 
L 172.087425 262.188248 
L 172.087425 262.062372 
L 172.524431 262.062372 
L 172.524431 261.810621 
L 172.690906 261.810621 
L 172.690906 261.684745 
L 173.275627 261.684745 
L 173.275627 261.558869 
L 173.620559 261.558869 
L 173.620559 261.432993 
L 174.010854 261.432993 
L 174.087951 261.181241 
L 174.215747 261.181241 
L 174.215747 261.055366 
L 174.49388 261.055366 
L 174.49388 260.92949 
L 174.668757 260.92949 
L 174.668757 260.551862 
L 174.79268 260.551862 
L 174.854337 260.30011 
L 175.244228 260.30011 
L 175.340451 259.670731 
L 175.36443 259.670731 
L 175.36443 259.544855 
L 176.883057 259.544855 
L 176.894106 258.915476 
L 177.534792 258.915476 
L 177.534792 258.7896 
L 178.754199 258.7896 
L 178.754199 258.537848 
L 178.923539 258.537848 
L 178.923539 258.411972 
L 179.179617 258.411972 
L 179.179617 258.286097 
L 179.595626 258.286097 
L 179.595626 258.160221 
L 179.795498 258.160221 
L 179.899351 257.908469 
L 180.538033 257.908469 
L 180.538033 257.782593 
L 181.058615 257.782593 
L 181.058615 257.656717 
L 181.269884 257.656717 
L 181.269884 257.530841 
L 181.889818 257.530841 
L 181.889818 257.404966 
L 182.142212 257.404966 
L 182.175611 257.153214 
L 183.25363 257.153214 
L 183.25363 257.027338 
L 183.58935 257.027338 
L 183.628001 256.64971 
L 183.964751 256.64971 
L 183.964751 256.523834 
L 184.138409 256.523834 
L 184.138409 256.397959 
L 184.664589 256.397959 
L 184.766627 255.894455 
L 185.247437 255.894455 
L 185.247437 255.642703 
L 185.647027 255.642703 
L 185.723173 255.265076 
L 186.03151 255.265076 
L 186.03151 255.1392 
L 186.527815 255.1392 
L 186.527815 255.013324 
L 186.75153 255.013324 
L 186.75153 254.887448 
L 186.966149 254.887448 
L 186.966149 254.635697 
L 187.261289 254.635697 
L 187.261289 254.383945 
L 187.551869 254.383945 
L 187.589442 254.006317 
L 188.853493 254.006317 
L 188.882717 253.754566 
L 189.155227 253.754566 
L 189.155227 253.62869 
L 189.666288 253.62869 
L 189.666288 253.502814 
L 189.861343 253.502814 
L 189.861343 253.376938 
L 190.659184 253.376938 
L 190.659184 253.251062 
L 191.286293 253.251062 
L 191.286293 253.125186 
L 191.450051 253.125186 
L 191.485684 252.621683 
L 191.607343 252.621683 
L 191.698075 252.369931 
L 192.5629 252.369931 
L 192.5629 252.118179 
L 192.768284 252.118179 
L 192.768284 251.992303 
L 192.929108 251.992303 
L 192.929108 251.866428 
L 193.726776 251.866428 
L 193.785372 251.4888 
L 194.172886 251.4888 
L 194.172886 251.362924 
L 194.707477 251.362924 
L 194.707477 251.111172 
L 195.206441 251.111172 
L 195.28556 250.607669 
L 195.492192 250.607669 
L 195.492192 250.355917 
L 195.643651 250.355917 
L 195.716895 249.97829 
L 195.862534 249.97829 
L 195.898768 249.600662 
L 196.086865 249.600662 
L 196.162374 249.223034 
L 196.249428 249.223034 
L 196.249428 249.097159 
L 196.477021 249.097159 
L 196.477021 248.971283 
L 196.740395 248.971283 
L 196.740395 248.845407 
L 197.293716 248.845407 
L 197.293716 248.719531 
L 360.8064 248.719531 
L 360.8064 248.719531 
" style="fill: none; stroke: #008000; stroke-width: 1.5; stroke-linecap: square"/>
   </g>
   <g id="line2d_36">
    <defs>
     <path id="m050dfd8b05" d="M -0 6 
L 6 -6 
L -6 -6 
z
" style="stroke: #008000; stroke-width: 1.5; stroke-linejoin: miter"/>
    </defs>
    <g>
     <use xlink:href="#m050dfd8b05" x="94.205591" y="286.859917" style="fill-opacity: 0; stroke: #008000; stroke-width: 1.5; stroke-linejoin: miter"/>
     <use xlink:href="#m050dfd8b05" x="154.24919" y="271.754814" style="fill-opacity: 0; stroke: #008000; stroke-width: 1.5; stroke-linejoin: miter"/>
     <use xlink:href="#m050dfd8b05" x="197.293716" y="248.845407" style="fill-opacity: 0; stroke: #008000; stroke-width: 1.5; stroke-linejoin: miter"/>
     <use xlink:href="#m050dfd8b05" x="197.293716" y="248.719531" style="fill-opacity: 0; stroke: #008000; stroke-width: 1.5; stroke-linejoin: miter"/>
     <use xlink:href="#m050dfd8b05" x="197.293716" y="248.719531" style="fill-opacity: 0; stroke: #008000; stroke-width: 1.5; stroke-linejoin: miter"/>
     <use xlink:href="#m050dfd8b05" x="360.8064" y="248.719531" style="fill-opacity: 0; stroke: #008000; stroke-width: 1.5; stroke-linejoin: miter"/>
    </g>
   </g>
   <g id="line2d_37">
    <path style="fill: none; stroke: #008000; stroke-width: 1.5; stroke-linecap: square"/>
    <g/>
   </g>
   <g id="line2d_38">
    <path d="M 197.531229 248.719531 
" clip-path="url(#p8dcd72cec6)" style="fill: none; stroke: #008000; stroke-width: 1.5; stroke-linecap: square"/>
    <defs>
     <path id="m117b59ec5c" d="M -12 12 
L 12 -12 
M -12 -12 
L 12 12 
" style="stroke: #008000"/>
    </defs>
    <g clip-path="url(#p8dcd72cec6)">
     <use xlink:href="#m117b59ec5c" x="197.531229" y="248.719531" style="fill: #008000; stroke: #008000"/>
    </g>
   </g>
   <g id="line2d_39">
    <defs>
     <path id="m3c782745ab" d="M 0 1.5 
C 0.397805 1.5 0.77937 1.341951 1.06066 1.06066 
C 1.341951 0.77937 1.5 0.397805 1.5 0 
C 1.5 -0.397805 1.341951 -0.77937 1.06066 -1.06066 
C 0.77937 -1.341951 0.397805 -1.5 0 -1.5 
C -0.397805 -1.5 -0.77937 -1.341951 -1.06066 -1.06066 
C -1.341951 -0.77937 -1.5 -0.397805 -1.5 0 
C -1.5 0.397805 -1.341951 0.77937 -1.06066 1.06066 
C -0.77937 1.341951 -0.397805 1.5 0 1.5 
z
" style="stroke: #0000ff"/>
    </defs>
    <g>
     <use xlink:href="#m3c782745ab" x="187.903358" y="270.370179" style="fill: #0000ff; stroke: #0000ff"/>
     <use xlink:href="#m3c782745ab" x="187.903358" y="270.370179" style="fill: #0000ff; stroke: #0000ff"/>
    </g>
   </g>
   <g id="line2d_40">
    <path d="M 27.323974 298.944 
L 27.323974 290.13269 
L 47.990577 290.13269 
L 47.990577 290.006814 
L 57.6 290.006814 
L 57.6 289.755062 
L 78.266603 289.755062 
L 78.266603 289.629186 
L 87.1081 289.629186 
L 87.1081 289.50331 
L 90.007914 289.50331 
L 90.007914 289.377434 
L 92.519847 289.377434 
L 92.519847 289.251559 
L 93.66029 289.251559 
L 93.66029 288.999807 
L 101.653002 288.999807 
L 101.653002 288.873931 
L 103.707211 288.873931 
L 103.707211 288.748055 
L 104.655893 288.748055 
L 104.655893 288.496303 
L 106.699465 288.496303 
L 106.699465 288.244552 
L 107.244765 288.244552 
L 107.244765 288.118676 
L 107.774703 288.118676 
L 107.774703 287.9928 
L 108.542628 287.9928 
L 108.542628 287.866924 
L 110.897141 287.866924 
L 110.897141 287.741048 
L 111.762192 287.741048 
L 111.762192 287.615172 
L 111.97238 287.615172 
L 111.97238 287.489297 
L 117.848632 287.489297 
L 117.848632 287.237545 
L 121.455972 287.237545 
L 121.455972 287.111669 
L 127.087372 287.111669 
L 127.087372 286.985793 
L 127.458055 286.985793 
L 127.458055 286.859917 
L 128.266313 286.859917 
L 128.266313 286.734041 
L 128.528195 286.734041 
L 128.528195 286.608166 
L 129.7043 286.608166 
L 129.7043 286.48229 
L 129.86647 286.48229 
L 129.86647 286.356414 
L 134.808158 286.356414 
L 134.808158 286.230538 
L 134.931919 286.230538 
L 134.931919 286.104662 
L 135.116046 286.104662 
L 135.116046 285.978786 
L 135.35878 285.978786 
L 135.35878 285.85291 
L 135.59842 285.85291 
L 135.59842 285.727034 
L 135.717106 285.727034 
L 135.717106 285.475283 
L 136.470828 285.475283 
L 136.470828 285.223531 
L 139.891105 285.223531 
L 139.891105 284.971779 
L 140.173284 284.971779 
L 140.173284 284.845903 
L 140.815692 284.845903 
L 140.815692 284.720028 
L 142.290162 284.720028 
L 142.290162 284.594152 
L 144.85936 284.594152 
L 144.85936 284.468276 
L 145.255407 284.468276 
L 145.255407 284.3424 
L 145.678157 284.3424 
L 145.678157 284.216524 
L 147.753975 284.216524 
L 147.753975 284.090648 
L 148.124658 284.090648 
L 148.155221 283.838897 
L 148.607806 283.838897 
L 148.607806 283.713021 
L 148.903591 283.713021 
L 148.903591 283.587145 
L 149.078856 283.587145 
L 149.078856 283.461269 
L 149.395993 283.461269 
L 149.453084 283.209517 
L 149.847944 283.209517 
L 149.847944 283.083641 
L 149.98698 283.083641 
L 149.98698 282.957766 
L 151.037576 282.957766 
L 151.037576 282.83189 
L 151.32359 282.83189 
L 151.32359 282.454262 
L 151.60532 282.454262 
L 151.656094 282.076634 
L 151.857828 282.076634 
L 151.857828 281.950759 
L 152.498913 281.950759 
L 152.498913 281.824883 
L 154.541415 281.824883 
L 154.541415 281.573131 
L 155.619069 281.573131 
L 155.619069 281.447255 
L 155.762279 281.447255 
L 155.762279 281.321379 
L 156.105602 281.321379 
L 156.105602 281.195503 
L 156.265023 281.195503 
L 156.265023 280.943752 
L 156.599372 280.943752 
L 156.599372 280.817876 
L 158.07959 280.817876 
L 158.07959 280.692 
L 158.786875 280.692 
L 158.873444 280.440248 
L 159.130788 280.440248 
L 159.181837 280.188497 
L 159.266613 280.188497 
L 159.266613 280.062621 
L 159.518669 280.062621 
L 159.518669 279.936745 
L 159.833168 279.936745 
L 159.833168 279.810869 
L 160.174762 279.810869 
L 160.255188 279.559117 
L 160.367209 279.559117 
L 160.367209 279.433241 
L 162.248415 279.433241 
L 162.262846 279.18149 
L 163.639407 279.18149 
L 163.73303 278.803862 
L 163.759694 278.803862 
L 163.759694 278.55211 
L 164.669899 278.55211 
L 164.669899 278.300359 
L 164.834193 278.300359 
L 164.909539 277.922731 
L 165.084184 277.922731 
L 165.084184 277.796855 
L 165.195605 277.796855 
L 165.281812 277.545103 
L 166.47206 277.545103 
L 166.47206 277.419228 
L 167.273634 277.419228 
L 167.273634 277.293352 
L 167.493397 277.293352 
L 167.493397 277.167476 
L 167.732209 277.167476 
L 167.796816 276.915724 
L 167.968026 276.915724 
L 167.968026 276.789848 
L 169.264469 276.789848 
L 169.353741 276.538097 
L 169.413021 276.538097 
L 169.413021 276.412221 
L 170.411929 276.412221 
L 170.411929 276.286345 
L 170.570284 276.286345 
L 170.570284 276.160469 
L 170.754894 276.160469 
L 170.855662 275.908717 
L 171.082693 275.908717 
L 171.082693 275.782841 
L 172.246485 275.782841 
L 172.331145 275.53109 
L 172.814802 275.53109 
L 172.814802 275.405214 
L 172.937888 275.405214 
L 173.027642 275.153462 
L 173.230049 275.153462 
L 173.230049 275.027586 
L 174.656319 275.027586 
L 174.656319 274.90171 
L 174.79021 274.90171 
L 174.79021 274.775834 
L 176.251413 274.775834 
L 176.251413 274.649959 
L 177.427726 274.649959 
L 177.427726 274.524083 
L 177.797717 274.524083 
L 177.86078 274.020579 
L 178.154375 274.020579 
L 178.154375 273.894703 
L 178.643809 273.894703 
L 178.643809 273.768828 
L 179.185485 273.768828 
L 179.185485 273.642952 
L 179.6663 273.642952 
L 179.746203 273.3912 
L 180.246375 273.3912 
L 180.246375 273.265324 
L 180.825238 273.265324 
L 180.825238 273.139448 
L 181.355475 273.139448 
L 181.355475 272.887697 
L 181.470148 272.887697 
L 181.470148 272.761821 
L 181.886429 272.761821 
L 181.886429 272.635945 
L 182.643576 272.635945 
L 182.643576 272.510069 
L 183.082701 272.510069 
L 183.163611 272.258317 
L 184.611895 272.258317 
L 184.655817 272.006566 
L 184.908558 272.006566 
L 184.908558 271.754814 
L 185.200616 271.754814 
L 185.200616 271.628938 
L 185.378765 271.628938 
L 185.378765 271.503062 
L 185.517565 271.503062 
L 185.626206 271.25131 
L 185.754925 271.25131 
L 185.754925 271.125434 
L 186.972615 271.125434 
L 186.972615 270.999559 
L 187.14635 270.999559 
L 187.14635 270.873683 
L 187.417245 270.873683 
L 187.417245 270.621931 
L 187.669348 270.621931 
L 187.669348 270.496055 
L 187.903358 270.496055 
L 187.903358 270.370179 
L 360.8064 270.370179 
L 360.8064 270.370179 
" style="fill: none; stroke: #0000ff; stroke-width: 1.5; stroke-linecap: square"/>
   </g>
   <g id="line2d_41">
    <defs>
     <path id="m42add660c0" d="M 0 -6 
L -1.347084 -1.854102 
L -5.706339 -1.854102 
L -2.179628 0.708204 
L -3.526712 4.854102 
L -0 2.291796 
L 3.526712 4.854102 
L 2.179628 0.708204 
L 5.706339 -1.854102 
L 1.347084 -1.854102 
z
" style="stroke: #0000ff; stroke-width: 1.5; stroke-linejoin: bevel"/>
    </defs>
    <g>
     <use xlink:href="#m42add660c0" x="151.857828" y="281.950759" style="fill-opacity: 0; stroke: #0000ff; stroke-width: 1.5; stroke-linejoin: bevel"/>
     <use xlink:href="#m42add660c0" x="187.903358" y="270.496055" style="fill-opacity: 0; stroke: #0000ff; stroke-width: 1.5; stroke-linejoin: bevel"/>
     <use xlink:href="#m42add660c0" x="187.903358" y="270.370179" style="fill-opacity: 0; stroke: #0000ff; stroke-width: 1.5; stroke-linejoin: bevel"/>
     <use xlink:href="#m42add660c0" x="187.903358" y="270.370179" style="fill-opacity: 0; stroke: #0000ff; stroke-width: 1.5; stroke-linejoin: bevel"/>
     <use xlink:href="#m42add660c0" x="360.8064" y="270.370179" style="fill-opacity: 0; stroke: #0000ff; stroke-width: 1.5; stroke-linejoin: bevel"/>
    </g>
   </g>
   <g id="line2d_42">
    <path style="fill: none; stroke: #0000ff; stroke-width: 1.5; stroke-linecap: square"/>
    <g/>
   </g>
   <g id="line2d_43">
    <path d="M 187.921806 270.370179 
" clip-path="url(#p8dcd72cec6)" style="fill: none; stroke: #0000ff; stroke-width: 1.5; stroke-linecap: square"/>
    <defs>
     <path id="mbeb6ab64ea" d="M -12 12 
L 12 -12 
M -12 -12 
L 12 12 
" style="stroke: #0000ff"/>
    </defs>
    <g clip-path="url(#p8dcd72cec6)">
     <use xlink:href="#mbeb6ab64ea" x="187.921806" y="270.370179" style="fill: #0000ff; stroke: #0000ff"/>
    </g>
   </g>
   <g id="line2d_44">
    <defs>
     <path id="mb456e6c2bc" d="M 0 1.5 
C 0.397805 1.5 0.77937 1.341951 1.06066 1.06066 
C 1.341951 0.77937 1.5 0.397805 1.5 0 
C 1.5 -0.397805 1.341951 -0.77937 1.06066 -1.06066 
C 0.77937 -1.341951 0.397805 -1.5 0 -1.5 
C -0.397805 -1.5 -0.77937 -1.341951 -1.06066 -1.06066 
C -1.341951 -0.77937 -1.5 -0.397805 -1.5 0 
C -1.5 0.397805 -1.341951 0.77937 -1.06066 1.06066 
C -0.77937 1.341951 -0.397805 1.5 0 1.5 
z
" style="stroke: #000000"/>
    </defs>
    <g>
     <use xlink:href="#mb456e6c2bc" x="174.693607" y="283.713021" style="stroke: #000000"/>
     <use xlink:href="#mb456e6c2bc" x="174.693607" y="283.713021" style="stroke: #000000"/>
    </g>
   </g>
   <g id="line2d_45">
    <path d="M 14.2848 298.944 
L 14.2848 286.608166 
L 95.503454 286.608166 
L 95.503454 286.48229 
L 138.10291 286.48229 
L 138.10291 286.356414 
L 140.972924 286.356414 
L 140.972924 286.230538 
L 146.091614 286.230538 
L 146.091614 286.104662 
L 147.103321 286.104662 
L 147.103321 285.978786 
L 158.498335 285.978786 
L 158.498335 285.85291 
L 159.283522 285.85291 
L 159.283522 285.727034 
L 160.045361 285.727034 
L 160.045361 285.601159 
L 161.270586 285.601159 
L 161.270586 285.475283 
L 161.278189 285.475283 
L 161.278189 285.349407 
L 162.991492 285.349407 
L 162.991492 285.223531 
L 164.440019 285.223531 
L 164.440019 285.097655 
L 166.140442 285.097655 
L 166.140442 284.971779 
L 166.627125 284.971779 
L 166.627125 284.845903 
L 168.477684 284.845903 
L 168.477684 284.720028 
L 169.019282 284.720028 
L 169.019282 284.594152 
L 169.408088 284.594152 
L 169.408088 284.468276 
L 172.293095 284.468276 
L 172.293095 284.3424 
L 172.974657 284.3424 
L 172.974657 284.216524 
L 173.104813 284.216524 
L 173.104813 284.090648 
L 173.762 284.090648 
L 173.762 283.964772 
L 174.40835 283.964772 
L 174.40835 283.838897 
L 174.693607 283.838897 
L 174.693607 283.713021 
L 360.8064 283.713021 
" style="fill: none; stroke: #000000; stroke-width: 1.5; stroke-linecap: square"/>
   </g>
   <g id="line2d_46">
    <defs>
     <path id="m76df32bd0d" d="M 0 6 
C 1.591219 6 3.117479 5.367802 4.242641 4.242641 
C 5.367802 3.117479 6 1.591219 6 0 
C 6 -1.591219 5.367802 -3.117479 4.242641 -4.242641 
C 3.117479 -5.367802 1.591219 -6 0 -6 
C -1.591219 -6 -3.117479 -5.367802 -4.242641 -4.242641 
C -5.367802 -3.117479 -6 -1.591219 -6 0 
C -6 1.591219 -5.367802 3.117479 -4.242641 4.242641 
C -3.117479 5.367802 -1.591219 6 0 6 
z
" style="stroke: #000000; stroke-width: 1.5"/>
    </defs>
    <g>
     <use xlink:href="#m76df32bd0d" x="169.408088" y="284.468276" style="fill-opacity: 0; stroke: #000000; stroke-width: 1.5"/>
     <use xlink:href="#m76df32bd0d" x="174.693607" y="283.713021" style="fill-opacity: 0; stroke: #000000; stroke-width: 1.5"/>
     <use xlink:href="#m76df32bd0d" x="174.693607" y="283.713021" style="fill-opacity: 0; stroke: #000000; stroke-width: 1.5"/>
     <use xlink:href="#m76df32bd0d" x="174.693607" y="283.713021" style="fill-opacity: 0; stroke: #000000; stroke-width: 1.5"/>
     <use xlink:href="#m76df32bd0d" x="360.8064" y="283.713021" style="fill-opacity: 0; stroke: #000000; stroke-width: 1.5"/>
    </g>
   </g>
   <g id="line2d_47">
    <path style="fill: none; stroke: #000000; stroke-width: 1.5; stroke-linecap: square"/>
    <g/>
   </g>
   <g id="line2d_48">
    <path d="M 174.882632 283.713021 
" clip-path="url(#p8dcd72cec6)" style="fill: none; stroke: #000000; stroke-width: 1.5; stroke-linecap: square"/>
    <defs>
     <path id="m3a8e71fb00" d="M -12 12 
L 12 -12 
M -12 -12 
L 12 12 
" style="stroke: #000000"/>
    </defs>
    <g clip-path="url(#p8dcd72cec6)">
     <use xlink:href="#m3a8e71fb00" x="174.882632" y="283.713021" style="stroke: #000000"/>
    </g>
   </g>
   <g id="line2d_49">
    <defs>
     <path id="mde09d28383" d="M 0 1.5 
C 0.397805 1.5 0.77937 1.341951 1.06066 1.06066 
C 1.341951 0.77937 1.5 0.397805 1.5 0 
C 1.5 -0.397805 1.341951 -0.77937 1.06066 -1.06066 
C 0.77937 -1.341951 0.397805 -1.5 0 -1.5 
C -0.397805 -1.5 -0.77937 -1.341951 -1.06066 -1.06066 
C -1.341951 -0.77937 -1.5 -0.397805 -1.5 0 
C -1.5 0.397805 -1.341951 0.77937 -1.06066 1.06066 
C -0.77937 1.341951 -0.397805 1.5 0 1.5 
z
" style="stroke: #ff0000"/>
    </defs>
    <g>
     <use xlink:href="#mde09d28383" x="1.245626" y="288.873931" style="fill: #ff0000; stroke: #ff0000"/>
     <use xlink:href="#mde09d28383" x="1.245626" y="288.873931" style="fill: #ff0000; stroke: #ff0000"/>
    </g>
   </g>
   <g id="line2d_50">
    <path d="M 1.245626 298.944 
L 1.245626 288.873931 
L 360.8064 288.873931 
" style="fill: none; stroke: #ff0000; stroke-width: 1.5; stroke-linecap: square"/>
   </g>
   <g id="line2d_51">
    <defs>
     <path id="m9e75b2a9f3" d="M -6 6 
L 6 6 
L 6 -6 
L -6 -6 
z
" style="stroke: #ff0000; stroke-width: 1.5; stroke-linejoin: miter"/>
    </defs>
    <g>
     <use xlink:href="#m9e75b2a9f3" x="360.8064" y="288.873931" style="fill-opacity: 0; stroke: #ff0000; stroke-width: 1.5; stroke-linejoin: miter"/>
    </g>
   </g>
   <g id="line2d_52">
    <path style="fill: none; stroke: #ff0000; stroke-width: 1.5; stroke-linecap: square"/>
    <g/>
   </g>
   <g id="line2d_53">
    <path d="M 161.843457 288.873931 
" clip-path="url(#p8dcd72cec6)" style="fill: none; stroke: #ff0000; stroke-width: 1.5; stroke-linecap: square"/>
    <defs>
     <path id="m45e5cb3d92" d="M -12 12 
L 12 -12 
M -12 -12 
L 12 12 
" style="stroke: #ff0000"/>
    </defs>
    <g clip-path="url(#p8dcd72cec6)">
     <use xlink:href="#m45e5cb3d92" x="161.843457" y="288.873931" style="fill: #ff0000; stroke: #ff0000"/>
    </g>
   </g>
   <g id="line2d_54">
    <defs>
     <path id="md565fe99bb" d="M 0 1.5 
C 0.397805 1.5 0.77937 1.341951 1.06066 1.06066 
C 1.341951 0.77937 1.5 0.397805 1.5 0 
C 1.5 -0.397805 1.341951 -0.77937 1.06066 -1.06066 
C 0.77937 -1.341951 0.397805 -1.5 0 -1.5 
C -0.397805 -1.5 -0.77937 -1.341951 -1.06066 -1.06066 
C -1.341951 -0.77937 -1.5 -0.397805 -1.5 0 
C -1.5 0.397805 -1.341951 0.77937 -1.06066 1.06066 
C -0.77937 1.341951 -0.397805 1.5 0 1.5 
z
" style="stroke: #bf00bf"/>
    </defs>
    <g/>
   </g>
   <g id="line2d_55">
    <path d="M -1 286.985793 
L 360.8064 286.985793 
" style="fill: none; stroke: #bf00bf; stroke-width: 1.5; stroke-linecap: square"/>
   </g>
   <g id="line2d_56">
    <defs>
     <path id="m7a52b6757d" d="M 0 8.485281 
L 8.485281 0 
L 0 -8.485281 
L -8.485281 0 
z
" style="stroke: #bf00bf; stroke-width: 1.5; stroke-linejoin: miter"/>
    </defs>
    <g>
     <use xlink:href="#m7a52b6757d" x="360.8064" y="286.985793" style="fill-opacity: 0; stroke: #bf00bf; stroke-width: 1.5; stroke-linejoin: miter"/>
    </g>
   </g>
   <g id="line2d_57">
    <path style="fill: none; stroke: #bf00bf; stroke-width: 1.5; stroke-linecap: square"/>
    <g/>
   </g>
   <g id="line2d_58">
    <path d="M 148.804283 286.985793 
" clip-path="url(#p8dcd72cec6)" style="fill: none; stroke: #bf00bf; stroke-width: 1.5; stroke-linecap: square"/>
    <defs>
     <path id="m8196f4a6f1" d="M -12 12 
L 12 -12 
M -12 -12 
L 12 12 
" style="stroke: #bf00bf"/>
    </defs>
    <g clip-path="url(#p8dcd72cec6)">
     <use xlink:href="#m8196f4a6f1" x="148.804283" y="286.985793" style="fill: #bf00bf; stroke: #bf00bf"/>
    </g>
   </g>
   <g id="line2d_59">
    <path d="M 360.8064 288.873931 
L 380.514816 293.10336 
" style="fill: none; stroke: #ff0000; stroke-width: 1.5; stroke-linecap: square"/>
    <g>
     <use xlink:href="#m9e75b2a9f3" x="360.8064" y="288.873931" style="fill-opacity: 0; stroke: #ff0000; stroke-width: 1.5; stroke-linejoin: miter"/>
     <use xlink:href="#m9e75b2a9f3" x="380.514816" y="293.10336" style="fill-opacity: 0; stroke: #ff0000; stroke-width: 1.5; stroke-linejoin: miter"/>
    </g>
   </g>
   <g id="line2d_60">
    <path d="M 360.8064 286.985793 
L 380.514816 237.033216 
" style="fill: none; stroke: #bf00bf; stroke-width: 1.5; stroke-linecap: square"/>
    <g>
     <use xlink:href="#m7a52b6757d" x="360.8064" y="286.985793" style="fill-opacity: 0; stroke: #bf00bf; stroke-width: 1.5; stroke-linejoin: miter"/>
     <use xlink:href="#m7a52b6757d" x="380.514816" y="237.033216" style="fill-opacity: 0; stroke: #bf00bf; stroke-width: 1.5; stroke-linejoin: miter"/>
    </g>
   </g>
   <g id="line2d_61">
    <path d="M 360.8064 283.713021 
L 380.514816 180.963072 
" style="fill: none; stroke: #000000; stroke-width: 1.5; stroke-linecap: square"/>
    <g>
     <use xlink:href="#m76df32bd0d" x="360.8064" y="283.713021" style="fill-opacity: 0; stroke: #000000; stroke-width: 1.5"/>
     <use xlink:href="#m76df32bd0d" x="380.514816" y="180.963072" style="fill-opacity: 0; stroke: #000000; stroke-width: 1.5"/>
    </g>
   </g>
   <g id="line2d_62">
    <path d="M 360.8064 270.370179 
L 380.514816 124.892928 
" style="fill: none; stroke: #0000ff; stroke-width: 1.5; stroke-linecap: square"/>
    <g>
     <use xlink:href="#m42add660c0" x="360.8064" y="270.370179" style="fill-opacity: 0; stroke: #0000ff; stroke-width: 1.5; stroke-linejoin: bevel"/>
     <use xlink:href="#m42add660c0" x="380.514816" y="124.892928" style="fill-opacity: 0; stroke: #0000ff; stroke-width: 1.5; stroke-linejoin: bevel"/>
    </g>
   </g>
   <g id="line2d_63">
    <path d="M 360.8064 248.719531 
L 380.514816 68.822784 
" style="fill: none; stroke: #008000; stroke-width: 1.5; stroke-linecap: square"/>
    <g>
     <use xlink:href="#m050dfd8b05" x="360.8064" y="248.719531" style="fill-opacity: 0; stroke: #008000; stroke-width: 1.5; stroke-linejoin: miter"/>
     <use xlink:href="#m050dfd8b05" x="380.514816" y="68.822784" style="fill-opacity: 0; stroke: #008000; stroke-width: 1.5; stroke-linejoin: miter"/>
    </g>
   </g>
   <g id="line2d_64">
    <path d="M 360.8064 221.278593 
L 380.514816 12.75264 
" style="fill: none; stroke: #00bfbf; stroke-width: 1.5; stroke-linecap: square"/>
    <g>
     <use xlink:href="#m73d16e7170" x="360.8064" y="221.278593" style="fill-opacity: 0; stroke: #00bfbf; stroke-width: 1.5"/>
     <use xlink:href="#m73d16e7170" x="380.514816" y="12.75264" style="fill-opacity: 0; stroke: #00bfbf; stroke-width: 1.5"/>
    </g>
   </g>
   <g id="line2d_65">
    <path d="M 360.8064 298.944 
L 360.8064 6.912 
" style="fill: none; stroke: #000000; stroke-width: 1.5; stroke-linecap: square"/>
   </g>
   <g id="patch_3">
    <path d="M 57.6 298.944 
L 360.8064 298.944 
" style="fill: none; stroke: #000000; stroke-width: 0.8; stroke-linejoin: miter; stroke-linecap: square"/>
   </g>
   <g id="patch_4">
    <path d="M 57.6 6.912 
L 360.8064 6.912 
" style="fill: none; stroke: #000000; stroke-width: 0.8; stroke-linejoin: miter; stroke-linecap: square"/>
   </g>
   <g id="text_13">
    <!-- 20-D -->
    <g transform="translate(386.578944 296.966485)scale(0.14 -0.14)">
     <defs>
      <path id="DejaVuSans-44" d="M 1259 4147 
L 1259 519 
L 2022 519 
Q 2988 519 3436 956 
Q 3884 1394 3884 2338 
Q 3884 3275 3436 3711 
Q 2988 4147 2022 4147 
L 1259 4147 
z
M 628 4666 
L 1925 4666 
Q 3281 4666 3915 4102 
Q 4550 3538 4550 2338 
Q 4550 1131 3912 565 
Q 3275 0 1925 0 
L 628 0 
L 628 4666 
z
" transform="scale(0.015625)"/>
     </defs>
     <use xlink:href="#DejaVuSans-32"/>
     <use xlink:href="#DejaVuSans-30" x="63.623047"/>
     <use xlink:href="#DejaVuSans-2d" x="127.246094"/>
     <use xlink:href="#DejaVuSans-44" x="163.330078"/>
    </g>
   </g>
   <g id="text_14">
    <!-- 40-D -->
    <g transform="translate(386.578944 240.896341)scale(0.14 -0.14)">
     <use xlink:href="#DejaVuSans-34"/>
     <use xlink:href="#DejaVuSans-30" x="63.623047"/>
     <use xlink:href="#DejaVuSans-2d" x="127.246094"/>
     <use xlink:href="#DejaVuSans-44" x="163.330078"/>
    </g>
   </g>
   <g id="text_15">
    <!-- 10-D -->
    <g transform="translate(386.578944 184.826197)scale(0.14 -0.14)">
     <use xlink:href="#DejaVuSans-31"/>
     <use xlink:href="#DejaVuSans-30" x="63.623047"/>
     <use xlink:href="#DejaVuSans-2d" x="127.246094"/>
     <use xlink:href="#DejaVuSans-44" x="163.330078"/>
    </g>
   </g>
   <g id="text_16">
    <!-- 5-D -->
    <g transform="translate(386.578944 128.756053)scale(0.14 -0.14)">
     <defs>
      <path id="DejaVuSans-35" d="M 691 4666 
L 3169 4666 
L 3169 4134 
L 1269 4134 
L 1269 2991 
Q 1406 3038 1543 3061 
Q 1681 3084 1819 3084 
Q 2600 3084 3056 2656 
Q 3513 2228 3513 1497 
Q 3513 744 3044 326 
Q 2575 -91 1722 -91 
Q 1428 -91 1123 -41 
Q 819 9 494 109 
L 494 744 
Q 775 591 1075 516 
Q 1375 441 1709 441 
Q 2250 441 2565 725 
Q 2881 1009 2881 1497 
Q 2881 1984 2565 2268 
Q 2250 2553 1709 2553 
Q 1456 2553 1204 2497 
Q 953 2441 691 2322 
L 691 4666 
z
" transform="scale(0.015625)"/>
     </defs>
     <use xlink:href="#DejaVuSans-35"/>
     <use xlink:href="#DejaVuSans-2d" x="63.623047"/>
     <use xlink:href="#DejaVuSans-44" x="99.707031"/>
    </g>
   </g>
   <g id="text_17">
    <!-- 3-D -->
    <g transform="translate(386.578944 72.685909)scale(0.14 -0.14)">
     <defs>
      <path id="DejaVuSans-33" d="M 2597 2516 
Q 3050 2419 3304 2112 
Q 3559 1806 3559 1356 
Q 3559 666 3084 287 
Q 2609 -91 1734 -91 
Q 1441 -91 1130 -33 
Q 819 25 488 141 
L 488 750 
Q 750 597 1062 519 
Q 1375 441 1716 441 
Q 2309 441 2620 675 
Q 2931 909 2931 1356 
Q 2931 1769 2642 2001 
Q 2353 2234 1838 2234 
L 1294 2234 
L 1294 2753 
L 1863 2753 
Q 2328 2753 2575 2939 
Q 2822 3125 2822 3475 
Q 2822 3834 2567 4026 
Q 2313 4219 1838 4219 
Q 1578 4219 1281 4162 
Q 984 4106 628 3988 
L 628 4550 
Q 988 4650 1302 4700 
Q 1616 4750 1894 4750 
Q 2613 4750 3031 4423 
Q 3450 4097 3450 3541 
Q 3450 3153 3228 2886 
Q 3006 2619 2597 2516 
z
" transform="scale(0.015625)"/>
     </defs>
     <use xlink:href="#DejaVuSans-33"/>
     <use xlink:href="#DejaVuSans-2d" x="63.623047"/>
     <use xlink:href="#DejaVuSans-44" x="99.707031"/>
    </g>
   </g>
   <g id="text_18">
    <!-- 2-D -->
    <g transform="translate(386.578944 16.615765)scale(0.14 -0.14)">
     <use xlink:href="#DejaVuSans-32"/>
     <use xlink:href="#DejaVuSans-2d" x="63.623047"/>
     <use xlink:href="#DejaVuSans-44" x="99.707031"/>
    </g>
   </g>
   <g id="text_19">
    <!-- bbob-biobj f37, f38, f42, f43 -->
    <g transform="translate(60.632064 17.582726)scale(0.102 -0.102)">
     <defs>
      <path id="DejaVuSans-62" d="M 3116 1747 
Q 3116 2381 2855 2742 
Q 2594 3103 2138 3103 
Q 1681 3103 1420 2742 
Q 1159 2381 1159 1747 
Q 1159 1113 1420 752 
Q 1681 391 2138 391 
Q 2594 391 2855 752 
Q 3116 1113 3116 1747 
z
M 1159 2969 
Q 1341 3281 1617 3432 
Q 1894 3584 2278 3584 
Q 2916 3584 3314 3078 
Q 3713 2572 3713 1747 
Q 3713 922 3314 415 
Q 2916 -91 2278 -91 
Q 1894 -91 1617 61 
Q 1341 213 1159 525 
L 1159 0 
L 581 0 
L 581 4863 
L 1159 4863 
L 1159 2969 
z
" transform="scale(0.015625)"/>
      <path id="DejaVuSans-6a" d="M 603 3500 
L 1178 3500 
L 1178 -63 
Q 1178 -731 923 -1031 
Q 669 -1331 103 -1331 
L -116 -1331 
L -116 -844 
L 38 -844 
Q 366 -844 484 -692 
Q 603 -541 603 -63 
L 603 3500 
z
M 603 4863 
L 1178 4863 
L 1178 4134 
L 603 4134 
L 603 4863 
z
" transform="scale(0.015625)"/>
      <path id="DejaVuSans-37" d="M 525 4666 
L 3525 4666 
L 3525 4397 
L 1831 0 
L 1172 0 
L 2766 4134 
L 525 4134 
L 525 4666 
z
" transform="scale(0.015625)"/>
     </defs>
     <use xlink:href="#DejaVuSans-62"/>
     <use xlink:href="#DejaVuSans-62" x="63.476562"/>
     <use xlink:href="#DejaVuSans-6f" x="126.953125"/>
     <use xlink:href="#DejaVuSans-62" x="188.134766"/>
     <use xlink:href="#DejaVuSans-2d" x="251.611328"/>
     <use xlink:href="#DejaVuSans-62" x="287.695312"/>
     <use xlink:href="#DejaVuSans-69" x="351.171875"/>
     <use xlink:href="#DejaVuSans-6f" x="378.955078"/>
     <use xlink:href="#DejaVuSans-62" x="440.136719"/>
     <use xlink:href="#DejaVuSans-6a" x="503.613281"/>
     <use xlink:href="#DejaVuSans-20" x="531.396484"/>
     <use xlink:href="#DejaVuSans-66" x="563.183594"/>
     <use xlink:href="#DejaVuSans-33" x="598.388672"/>
     <use xlink:href="#DejaVuSans-37" x="662.011719"/>
     <use xlink:href="#DejaVuSans-2c" x="725.634766"/>
     <use xlink:href="#DejaVuSans-20" x="757.421875"/>
     <use xlink:href="#DejaVuSans-66" x="789.208984"/>
     <use xlink:href="#DejaVuSans-33" x="824.414062"/>
     <use xlink:href="#DejaVuSans-38" x="888.037109"/>
     <use xlink:href="#DejaVuSans-2c" x="951.660156"/>
     <use xlink:href="#DejaVuSans-20" x="983.447266"/>
     <use xlink:href="#DejaVuSans-66" x="1015.234375"/>
     <use xlink:href="#DejaVuSans-34" x="1050.439453"/>
     <use xlink:href="#DejaVuSans-32" x="1114.0625"/>
     <use xlink:href="#DejaVuSans-2c" x="1177.685547"/>
     <use xlink:href="#DejaVuSans-20" x="1209.472656"/>
     <use xlink:href="#DejaVuSans-66" x="1241.259766"/>
     <use xlink:href="#DejaVuSans-34" x="1276.464844"/>
     <use xlink:href="#DejaVuSans-33" x="1340.087891"/>
    </g>
    <!-- 58 targets: 1..-1.0e-4 -->
    <g transform="translate(60.632064 29.004495)scale(0.102 -0.102)">
     <defs>
      <path id="DejaVuSans-3a" d="M 750 794 
L 1409 794 
L 1409 0 
L 750 0 
L 750 794 
z
M 750 3309 
L 1409 3309 
L 1409 2516 
L 750 2516 
L 750 3309 
z
" transform="scale(0.015625)"/>
     </defs>
     <use xlink:href="#DejaVuSans-35"/>
     <use xlink:href="#DejaVuSans-38" x="63.623047"/>
     <use xlink:href="#DejaVuSans-20" x="127.246094"/>
     <use xlink:href="#DejaVuSans-74" x="159.033203"/>
     <use xlink:href="#DejaVuSans-61" x="198.242188"/>
     <use xlink:href="#DejaVuSans-72" x="259.521484"/>
     <use xlink:href="#DejaVuSans-67" x="298.884766"/>
     <use xlink:href="#DejaVuSans-65" x="362.361328"/>
     <use xlink:href="#DejaVuSans-74" x="423.884766"/>
     <use xlink:href="#DejaVuSans-73" x="463.09375"/>
     <use xlink:href="#DejaVuSans-3a" x="515.193359"/>
     <use xlink:href="#DejaVuSans-20" x="548.884766"/>
     <use xlink:href="#DejaVuSans-31" x="580.671875"/>
     <use xlink:href="#DejaVuSans-2e" x="644.294922"/>
     <use xlink:href="#DejaVuSans-2e" x="676.082031"/>
     <use xlink:href="#DejaVuSans-2d" x="707.869141"/>
     <use xlink:href="#DejaVuSans-31" x="743.953125"/>
     <use xlink:href="#DejaVuSans-2e" x="807.576172"/>
     <use xlink:href="#DejaVuSans-30" x="839.363281"/>
     <use xlink:href="#DejaVuSans-65" x="902.986328"/>
     <use xlink:href="#DejaVuSans-2d" x="964.509766"/>
     <use xlink:href="#DejaVuSans-34" x="1000.59375"/>
    </g>
    <!-- 10 instances -->
    <g transform="translate(60.632064 40.426264)scale(0.102 -0.102)">
     <use xlink:href="#DejaVuSans-31"/>
     <use xlink:href="#DejaVuSans-30" x="63.623047"/>
     <use xlink:href="#DejaVuSans-20" x="127.246094"/>
     <use xlink:href="#DejaVuSans-69" x="159.033203"/>
     <use xlink:href="#DejaVuSans-6e" x="186.816406"/>
     <use xlink:href="#DejaVuSans-73" x="250.195312"/>
     <use xlink:href="#DejaVuSans-74" x="302.294922"/>
     <use xlink:href="#DejaVuSans-61" x="341.503906"/>
     <use xlink:href="#DejaVuSans-6e" x="402.783203"/>
     <use xlink:href="#DejaVuSans-63" x="466.162109"/>
     <use xlink:href="#DejaVuSans-65" x="521.142578"/>
     <use xlink:href="#DejaVuSans-73" x="582.666016"/>
    </g>
   </g>
   <g id="text_20">
    <!-- v2.6, hv-hash=ff0e71e8cd978373 -->
    <g style="fill: #808080" transform="translate(123.707887 293.943992)scale(0.1 -0.1)">
     <defs>
      <path id="DejaVuSans-68" d="M 3513 2113 
L 3513 0 
L 2938 0 
L 2938 2094 
Q 2938 2591 2744 2837 
Q 2550 3084 2163 3084 
Q 1697 3084 1428 2787 
Q 1159 2491 1159 1978 
L 1159 0 
L 581 0 
L 581 4863 
L 1159 4863 
L 1159 2956 
Q 1366 3272 1645 3428 
Q 1925 3584 2291 3584 
Q 2894 3584 3203 3211 
Q 3513 2838 3513 2113 
z
" transform="scale(0.015625)"/>
      <path id="DejaVuSans-3d" d="M 678 2906 
L 4684 2906 
L 4684 2381 
L 678 2381 
L 678 2906 
z
M 678 1631 
L 4684 1631 
L 4684 1100 
L 678 1100 
L 678 1631 
z
" transform="scale(0.015625)"/>
      <path id="DejaVuSans-39" d="M 703 97 
L 703 672 
Q 941 559 1184 500 
Q 1428 441 1663 441 
Q 2288 441 2617 861 
Q 2947 1281 2994 2138 
Q 2813 1869 2534 1725 
Q 2256 1581 1919 1581 
Q 1219 1581 811 2004 
Q 403 2428 403 3163 
Q 403 3881 828 4315 
Q 1253 4750 1959 4750 
Q 2769 4750 3195 4129 
Q 3622 3509 3622 2328 
Q 3622 1225 3098 567 
Q 2575 -91 1691 -91 
Q 1453 -91 1209 -44 
Q 966 3 703 97 
z
M 1959 2075 
Q 2384 2075 2632 2365 
Q 2881 2656 2881 3163 
Q 2881 3666 2632 3958 
Q 2384 4250 1959 4250 
Q 1534 4250 1286 3958 
Q 1038 3666 1038 3163 
Q 1038 2656 1286 2365 
Q 1534 2075 1959 2075 
z
" transform="scale(0.015625)"/>
     </defs>
     <use xlink:href="#DejaVuSans-76"/>
     <use xlink:href="#DejaVuSans-32" x="59.179688"/>
     <use xlink:href="#DejaVuSans-2e" x="122.802734"/>
     <use xlink:href="#DejaVuSans-36" x="154.589844"/>
     <use xlink:href="#DejaVuSans-2c" x="218.212891"/>
     <use xlink:href="#DejaVuSans-20" x="250"/>
     <use xlink:href="#DejaVuSans-68" x="281.787109"/>
     <use xlink:href="#DejaVuSans-76" x="345.166016"/>
     <use xlink:href="#DejaVuSans-2d" x="401.720703"/>
     <use xlink:href="#DejaVuSans-68" x="437.804688"/>
     <use xlink:href="#DejaVuSans-61" x="501.183594"/>
     <use xlink:href="#DejaVuSans-73" x="562.462891"/>
     <use xlink:href="#DejaVuSans-68" x="614.5625"/>
     <use xlink:href="#DejaVuSans-3d" x="677.941406"/>
     <use xlink:href="#DejaVuSans-66" x="761.730469"/>
     <use xlink:href="#DejaVuSans-66" x="796.935547"/>
     <use xlink:href="#DejaVuSans-30" x="832.140625"/>
     <use xlink:href="#DejaVuSans-65" x="895.763672"/>
     <use xlink:href="#DejaVuSans-37" x="957.287109"/>
     <use xlink:href="#DejaVuSans-31" x="1020.910156"/>
     <use xlink:href="#DejaVuSans-65" x="1084.533203"/>
     <use xlink:href="#DejaVuSans-38" x="1146.056641"/>
     <use xlink:href="#DejaVuSans-63" x="1209.679688"/>
     <use xlink:href="#DejaVuSans-64" x="1264.660156"/>
     <use xlink:href="#DejaVuSans-39" x="1328.136719"/>
     <use xlink:href="#DejaVuSans-37" x="1391.759766"/>
     <use xlink:href="#DejaVuSans-38" x="1455.382812"/>
     <use xlink:href="#DejaVuSans-33" x="1519.005859"/>
     <use xlink:href="#DejaVuSans-37" x="1582.628906"/>
     <use xlink:href="#DejaVuSans-33" x="1646.251953"/>
    </g>
   </g>
  </g>
 </g>
 <defs>
  <clipPath id="p8dcd72cec6">
   <rect x="57.6" y="6.912" width="303.2064" height="292.032"/>
  </clipPath>
 </defs>
</svg>
