<?xml version="1.0" encoding="utf-8" standalone="no"?>
<!DOCTYPE svg PUBLIC "-//W3C//DTD SVG 1.1//EN"
  "http://www.w3.org/Graphics/SVG/1.1/DTD/svg11.dtd">
<svg xmlns:xlink="http://www.w3.org/1999/xlink" width="460.8pt" height="345.6pt" viewBox="0 0 460.8 345.6" xmlns="http://www.w3.org/2000/svg" version="1.1">
 <metadata>
  <rdf:RDF xmlns:dc="http://purl.org/dc/elements/1.1/" xmlns:cc="http://creativecommons.org/ns#" xmlns:rdf="http://www.w3.org/1999/02/22-rdf-syntax-ns#">
   <cc:Work>
    <dc:type rdf:resource="http://purl.org/dc/dcmitype/StillImage"/>
    <dc:date>2022-06-19T17:22:36.726826</dc:date>
    <dc:format>image/svg+xml</dc:format>
    <dc:creator>
     <cc:Agent>
      <dc:title>Matplotlib v3.5.2, https://matplotlib.org/</dc:title>
     </cc:Agent>
    </dc:creator>
   </cc:Work>
  </rdf:RDF>
 </metadata>
 <defs>
  <style type="text/css">*{stroke-linejoin: round; stroke-linecap: butt}</style>
 </defs>
 <g id="figure_1">
  <g id="patch_1">
   <path d="M 0 345.6 
L 460.8 345.6 
L 460.8 0 
L 0 0 
z
" style="fill: #ffffff"/>
  </g>
  <g id="axes_1">
   <g id="patch_2">
    <path d="M 57.6 298.944 
L 360.8064 298.944 
L 360.8064 27.648 
L 57.6 27.648 
z
" style="fill: #ffffff"/>
   </g>
   <g id="matplotlib.axis_1">
    <g id="xtick_1">
     <g id="line2d_1">
      <path d="M 57.6 298.944 
L 57.6 27.648 
" clip-path="url(#p31400532d2)" style="fill: none; stroke: #b0b0b0; stroke-width: 0.8; stroke-linecap: square"/>
     </g>
     <g id="line2d_2">
      <defs>
       <path id="mc64747341f" d="M 0 0 
L 0 3.5 
" style="stroke: #000000; stroke-width: 0.8"/>
      </defs>
      <g>
       <use xlink:href="#mc64747341f" x="57.6" y="298.944" style="stroke: #000000; stroke-width: 0.8"/>
      </g>
     </g>
     <g id="text_1">
      <!-- 0 -->
      <g transform="translate(52.191875 318.861344)scale(0.17 -0.17)">
       <defs>
        <path id="DejaVuSans-30" d="M 2034 4250 
Q 1547 4250 1301 3770 
Q 1056 3291 1056 2328 
Q 1056 1369 1301 889 
Q 1547 409 2034 409 
Q 2525 409 2770 889 
Q 3016 1369 3016 2328 
Q 3016 3291 2770 3770 
Q 2525 4250 2034 4250 
z
M 2034 4750 
Q 2819 4750 3233 4129 
Q 3647 3509 3647 2328 
Q 3647 1150 3233 529 
Q 2819 -91 2034 -91 
Q 1250 -91 836 529 
Q 422 1150 422 2328 
Q 422 3509 836 4129 
Q 1250 4750 2034 4750 
z
" transform="scale(0.015625)"/>
       </defs>
       <use xlink:href="#DejaVuSans-30"/>
      </g>
     </g>
    </g>
    <g id="xtick_2">
     <g id="line2d_3">
      <path d="M 144.2304 298.944 
L 144.2304 27.648 
" clip-path="url(#p31400532d2)" style="fill: none; stroke: #b0b0b0; stroke-width: 0.8; stroke-linecap: square"/>
     </g>
     <g id="line2d_4">
      <g>
       <use xlink:href="#mc64747341f" x="144.2304" y="298.944" style="stroke: #000000; stroke-width: 0.8"/>
      </g>
     </g>
     <g id="text_2">
      <!-- 2 -->
      <g transform="translate(138.822275 318.861344)scale(0.17 -0.17)">
       <defs>
        <path id="DejaVuSans-32" d="M 1228 531 
L 3431 531 
L 3431 0 
L 469 0 
L 469 531 
Q 828 903 1448 1529 
Q 2069 2156 2228 2338 
Q 2531 2678 2651 2914 
Q 2772 3150 2772 3378 
Q 2772 3750 2511 3984 
Q 2250 4219 1831 4219 
Q 1534 4219 1204 4116 
Q 875 4013 500 3803 
L 500 4441 
Q 881 4594 1212 4672 
Q 1544 4750 1819 4750 
Q 2544 4750 2975 4387 
Q 3406 4025 3406 3419 
Q 3406 3131 3298 2873 
Q 3191 2616 2906 2266 
Q 2828 2175 2409 1742 
Q 1991 1309 1228 531 
z
" transform="scale(0.015625)"/>
       </defs>
       <use xlink:href="#DejaVuSans-32"/>
      </g>
     </g>
    </g>
    <g id="xtick_3">
     <g id="line2d_5">
      <path d="M 230.8608 298.944 
L 230.8608 27.648 
" clip-path="url(#p31400532d2)" style="fill: none; stroke: #b0b0b0; stroke-width: 0.8; stroke-linecap: square"/>
     </g>
     <g id="line2d_6">
      <g>
       <use xlink:href="#mc64747341f" x="230.8608" y="298.944" style="stroke: #000000; stroke-width: 0.8"/>
      </g>
     </g>
     <g id="text_3">
      <!-- 4 -->
      <g transform="translate(225.452675 318.861344)scale(0.17 -0.17)">
       <defs>
        <path id="DejaVuSans-34" d="M 2419 4116 
L 825 1625 
L 2419 1625 
L 2419 4116 
z
M 2253 4666 
L 3047 4666 
L 3047 1625 
L 3713 1625 
L 3713 1100 
L 3047 1100 
L 3047 0 
L 2419 0 
L 2419 1100 
L 313 1100 
L 313 1709 
L 2253 4666 
z
" transform="scale(0.015625)"/>
       </defs>
       <use xlink:href="#DejaVuSans-34"/>
      </g>
     </g>
    </g>
    <g id="xtick_4">
     <g id="line2d_7">
      <path d="M 317.4912 298.944 
L 317.4912 27.648 
" clip-path="url(#p31400532d2)" style="fill: none; stroke: #b0b0b0; stroke-width: 0.8; stroke-linecap: square"/>
     </g>
     <g id="line2d_8">
      <g>
       <use xlink:href="#mc64747341f" x="317.4912" y="298.944" style="stroke: #000000; stroke-width: 0.8"/>
      </g>
     </g>
     <g id="text_4">
      <!-- 6 -->
      <g transform="translate(312.083075 318.861344)scale(0.17 -0.17)">
       <defs>
        <path id="DejaVuSans-36" d="M 2113 2584 
Q 1688 2584 1439 2293 
Q 1191 2003 1191 1497 
Q 1191 994 1439 701 
Q 1688 409 2113 409 
Q 2538 409 2786 701 
Q 3034 994 3034 1497 
Q 3034 2003 2786 2293 
Q 2538 2584 2113 2584 
z
M 3366 4563 
L 3366 3988 
Q 3128 4100 2886 4159 
Q 2644 4219 2406 4219 
Q 1781 4219 1451 3797 
Q 1122 3375 1075 2522 
Q 1259 2794 1537 2939 
Q 1816 3084 2150 3084 
Q 2853 3084 3261 2657 
Q 3669 2231 3669 1497 
Q 3669 778 3244 343 
Q 2819 -91 2113 -91 
Q 1303 -91 875 529 
Q 447 1150 447 2328 
Q 447 3434 972 4092 
Q 1497 4750 2381 4750 
Q 2619 4750 2861 4703 
Q 3103 4656 3366 4563 
z
" transform="scale(0.015625)"/>
       </defs>
       <use xlink:href="#DejaVuSans-36"/>
      </g>
     </g>
    </g>
    <g id="xtick_5">
     <g id="line2d_9">
      <path d="M 100.9152 298.944 
L 100.9152 27.648 
" clip-path="url(#p31400532d2)" style="fill: none; stroke: #b0b0b0; stroke-width: 0.8; stroke-linecap: square"/>
     </g>
     <g id="line2d_10">
      <defs>
       <path id="m9bcc0cd159" d="M 0 0 
L 0 2 
" style="stroke: #000000; stroke-width: 0.6"/>
      </defs>
      <g>
       <use xlink:href="#m9bcc0cd159" x="100.9152" y="298.944" style="stroke: #000000; stroke-width: 0.6"/>
      </g>
     </g>
    </g>
    <g id="xtick_6">
     <g id="line2d_11">
      <path d="M 187.5456 298.944 
L 187.5456 27.648 
" clip-path="url(#p31400532d2)" style="fill: none; stroke: #b0b0b0; stroke-width: 0.8; stroke-linecap: square"/>
     </g>
     <g id="line2d_12">
      <g>
       <use xlink:href="#m9bcc0cd159" x="187.5456" y="298.944" style="stroke: #000000; stroke-width: 0.6"/>
      </g>
     </g>
    </g>
    <g id="xtick_7">
     <g id="line2d_13">
      <path d="M 274.176 298.944 
L 274.176 27.648 
" clip-path="url(#p31400532d2)" style="fill: none; stroke: #b0b0b0; stroke-width: 0.8; stroke-linecap: square"/>
     </g>
     <g id="line2d_14">
      <g>
       <use xlink:href="#m9bcc0cd159" x="274.176" y="298.944" style="stroke: #000000; stroke-width: 0.6"/>
      </g>
     </g>
    </g>
    <g id="xtick_8">
     <g id="line2d_15">
      <path d="M 360.8064 298.944 
L 360.8064 27.648 
" clip-path="url(#p31400532d2)" style="fill: none; stroke: #b0b0b0; stroke-width: 0.8; stroke-linecap: square"/>
     </g>
     <g id="line2d_16">
      <g>
       <use xlink:href="#m9bcc0cd159" x="360.8064" y="298.944" style="stroke: #000000; stroke-width: 0.6"/>
      </g>
     </g>
    </g>
    <g id="text_5">
     <!-- log10(# f-evals / dimension) -->
     <g transform="translate(88.823278 339.314156)scale(0.17 -0.17)">
      <defs>
       <path id="DejaVuSans-6c" d="M 603 4863 
L 1178 4863 
L 1178 0 
L 603 0 
L 603 4863 
z
" transform="scale(0.015625)"/>
       <path id="DejaVuSans-6f" d="M 1959 3097 
Q 1497 3097 1228 2736 
Q 959 2375 959 1747 
Q 959 1119 1226 758 
Q 1494 397 1959 397 
Q 2419 397 2687 759 
Q 2956 1122 2956 1747 
Q 2956 2369 2687 2733 
Q 2419 3097 1959 3097 
z
M 1959 3584 
Q 2709 3584 3137 3096 
Q 3566 2609 3566 1747 
Q 3566 888 3137 398 
Q 2709 -91 1959 -91 
Q 1206 -91 779 398 
Q 353 888 353 1747 
Q 353 2609 779 3096 
Q 1206 3584 1959 3584 
z
" transform="scale(0.015625)"/>
       <path id="DejaVuSans-67" d="M 2906 1791 
Q 2906 2416 2648 2759 
Q 2391 3103 1925 3103 
Q 1463 3103 1205 2759 
Q 947 2416 947 1791 
Q 947 1169 1205 825 
Q 1463 481 1925 481 
Q 2391 481 2648 825 
Q 2906 1169 2906 1791 
z
M 3481 434 
Q 3481 -459 3084 -895 
Q 2688 -1331 1869 -1331 
Q 1566 -1331 1297 -1286 
Q 1028 -1241 775 -1147 
L 775 -588 
Q 1028 -725 1275 -790 
Q 1522 -856 1778 -856 
Q 2344 -856 2625 -561 
Q 2906 -266 2906 331 
L 2906 616 
Q 2728 306 2450 153 
Q 2172 0 1784 0 
Q 1141 0 747 490 
Q 353 981 353 1791 
Q 353 2603 747 3093 
Q 1141 3584 1784 3584 
Q 2172 3584 2450 3431 
Q 2728 3278 2906 2969 
L 2906 3500 
L 3481 3500 
L 3481 434 
z
" transform="scale(0.015625)"/>
       <path id="DejaVuSans-31" d="M 794 531 
L 1825 531 
L 1825 4091 
L 703 3866 
L 703 4441 
L 1819 4666 
L 2450 4666 
L 2450 531 
L 3481 531 
L 3481 0 
L 794 0 
L 794 531 
z
" transform="scale(0.015625)"/>
       <path id="DejaVuSans-28" d="M 1984 4856 
Q 1566 4138 1362 3434 
Q 1159 2731 1159 2009 
Q 1159 1288 1364 580 
Q 1569 -128 1984 -844 
L 1484 -844 
Q 1016 -109 783 600 
Q 550 1309 550 2009 
Q 550 2706 781 3412 
Q 1013 4119 1484 4856 
L 1984 4856 
z
" transform="scale(0.015625)"/>
       <path id="DejaVuSans-23" d="M 3272 2816 
L 2363 2816 
L 2100 1772 
L 3016 1772 
L 3272 2816 
z
M 2803 4594 
L 2478 3297 
L 3391 3297 
L 3719 4594 
L 4219 4594 
L 3897 3297 
L 4872 3297 
L 4872 2816 
L 3775 2816 
L 3519 1772 
L 4513 1772 
L 4513 1294 
L 3397 1294 
L 3072 0 
L 2572 0 
L 2894 1294 
L 1978 1294 
L 1656 0 
L 1153 0 
L 1478 1294 
L 494 1294 
L 494 1772 
L 1594 1772 
L 1856 2816 
L 850 2816 
L 850 3297 
L 1978 3297 
L 2297 4594 
L 2803 4594 
z
" transform="scale(0.015625)"/>
       <path id="DejaVuSans-20" transform="scale(0.015625)"/>
       <path id="DejaVuSans-66" d="M 2375 4863 
L 2375 4384 
L 1825 4384 
Q 1516 4384 1395 4259 
Q 1275 4134 1275 3809 
L 1275 3500 
L 2222 3500 
L 2222 3053 
L 1275 3053 
L 1275 0 
L 697 0 
L 697 3053 
L 147 3053 
L 147 3500 
L 697 3500 
L 697 3744 
Q 697 4328 969 4595 
Q 1241 4863 1831 4863 
L 2375 4863 
z
" transform="scale(0.015625)"/>
       <path id="DejaVuSans-2d" d="M 313 2009 
L 1997 2009 
L 1997 1497 
L 313 1497 
L 313 2009 
z
" transform="scale(0.015625)"/>
       <path id="DejaVuSans-65" d="M 3597 1894 
L 3597 1613 
L 953 1613 
Q 991 1019 1311 708 
Q 1631 397 2203 397 
Q 2534 397 2845 478 
Q 3156 559 3463 722 
L 3463 178 
Q 3153 47 2828 -22 
Q 2503 -91 2169 -91 
Q 1331 -91 842 396 
Q 353 884 353 1716 
Q 353 2575 817 3079 
Q 1281 3584 2069 3584 
Q 2775 3584 3186 3129 
Q 3597 2675 3597 1894 
z
M 3022 2063 
Q 3016 2534 2758 2815 
Q 2500 3097 2075 3097 
Q 1594 3097 1305 2825 
Q 1016 2553 972 2059 
L 3022 2063 
z
" transform="scale(0.015625)"/>
       <path id="DejaVuSans-76" d="M 191 3500 
L 800 3500 
L 1894 563 
L 2988 3500 
L 3597 3500 
L 2284 0 
L 1503 0 
L 191 3500 
z
" transform="scale(0.015625)"/>
       <path id="DejaVuSans-61" d="M 2194 1759 
Q 1497 1759 1228 1600 
Q 959 1441 959 1056 
Q 959 750 1161 570 
Q 1363 391 1709 391 
Q 2188 391 2477 730 
Q 2766 1069 2766 1631 
L 2766 1759 
L 2194 1759 
z
M 3341 1997 
L 3341 0 
L 2766 0 
L 2766 531 
Q 2569 213 2275 61 
Q 1981 -91 1556 -91 
Q 1019 -91 701 211 
Q 384 513 384 1019 
Q 384 1609 779 1909 
Q 1175 2209 1959 2209 
L 2766 2209 
L 2766 2266 
Q 2766 2663 2505 2880 
Q 2244 3097 1772 3097 
Q 1472 3097 1187 3025 
Q 903 2953 641 2809 
L 641 3341 
Q 956 3463 1253 3523 
Q 1550 3584 1831 3584 
Q 2591 3584 2966 3190 
Q 3341 2797 3341 1997 
z
" transform="scale(0.015625)"/>
       <path id="DejaVuSans-73" d="M 2834 3397 
L 2834 2853 
Q 2591 2978 2328 3040 
Q 2066 3103 1784 3103 
Q 1356 3103 1142 2972 
Q 928 2841 928 2578 
Q 928 2378 1081 2264 
Q 1234 2150 1697 2047 
L 1894 2003 
Q 2506 1872 2764 1633 
Q 3022 1394 3022 966 
Q 3022 478 2636 193 
Q 2250 -91 1575 -91 
Q 1294 -91 989 -36 
Q 684 19 347 128 
L 347 722 
Q 666 556 975 473 
Q 1284 391 1588 391 
Q 1994 391 2212 530 
Q 2431 669 2431 922 
Q 2431 1156 2273 1281 
Q 2116 1406 1581 1522 
L 1381 1569 
Q 847 1681 609 1914 
Q 372 2147 372 2553 
Q 372 3047 722 3315 
Q 1072 3584 1716 3584 
Q 2034 3584 2315 3537 
Q 2597 3491 2834 3397 
z
" transform="scale(0.015625)"/>
       <path id="DejaVuSans-2f" d="M 1625 4666 
L 2156 4666 
L 531 -594 
L 0 -594 
L 1625 4666 
z
" transform="scale(0.015625)"/>
       <path id="DejaVuSans-64" d="M 2906 2969 
L 2906 4863 
L 3481 4863 
L 3481 0 
L 2906 0 
L 2906 525 
Q 2725 213 2448 61 
Q 2172 -91 1784 -91 
Q 1150 -91 751 415 
Q 353 922 353 1747 
Q 353 2572 751 3078 
Q 1150 3584 1784 3584 
Q 2172 3584 2448 3432 
Q 2725 3281 2906 2969 
z
M 947 1747 
Q 947 1113 1208 752 
Q 1469 391 1925 391 
Q 2381 391 2643 752 
Q 2906 1113 2906 1747 
Q 2906 2381 2643 2742 
Q 2381 3103 1925 3103 
Q 1469 3103 1208 2742 
Q 947 2381 947 1747 
z
" transform="scale(0.015625)"/>
       <path id="DejaVuSans-69" d="M 603 3500 
L 1178 3500 
L 1178 0 
L 603 0 
L 603 3500 
z
M 603 4863 
L 1178 4863 
L 1178 4134 
L 603 4134 
L 603 4863 
z
" transform="scale(0.015625)"/>
       <path id="DejaVuSans-6d" d="M 3328 2828 
Q 3544 3216 3844 3400 
Q 4144 3584 4550 3584 
Q 5097 3584 5394 3201 
Q 5691 2819 5691 2113 
L 5691 0 
L 5113 0 
L 5113 2094 
Q 5113 2597 4934 2840 
Q 4756 3084 4391 3084 
Q 3944 3084 3684 2787 
Q 3425 2491 3425 1978 
L 3425 0 
L 2847 0 
L 2847 2094 
Q 2847 2600 2669 2842 
Q 2491 3084 2119 3084 
Q 1678 3084 1418 2786 
Q 1159 2488 1159 1978 
L 1159 0 
L 581 0 
L 581 3500 
L 1159 3500 
L 1159 2956 
Q 1356 3278 1631 3431 
Q 1906 3584 2284 3584 
Q 2666 3584 2933 3390 
Q 3200 3197 3328 2828 
z
" transform="scale(0.015625)"/>
       <path id="DejaVuSans-6e" d="M 3513 2113 
L 3513 0 
L 2938 0 
L 2938 2094 
Q 2938 2591 2744 2837 
Q 2550 3084 2163 3084 
Q 1697 3084 1428 2787 
Q 1159 2491 1159 1978 
L 1159 0 
L 581 0 
L 581 3500 
L 1159 3500 
L 1159 2956 
Q 1366 3272 1645 3428 
Q 1925 3584 2291 3584 
Q 2894 3584 3203 3211 
Q 3513 2838 3513 2113 
z
" transform="scale(0.015625)"/>
       <path id="DejaVuSans-29" d="M 513 4856 
L 1013 4856 
Q 1481 4119 1714 3412 
Q 1947 2706 1947 2009 
Q 1947 1309 1714 600 
Q 1481 -109 1013 -844 
L 513 -844 
Q 928 -128 1133 580 
Q 1338 1288 1338 2009 
Q 1338 2731 1133 3434 
Q 928 4138 513 4856 
z
" transform="scale(0.015625)"/>
      </defs>
      <use xlink:href="#DejaVuSans-6c"/>
      <use xlink:href="#DejaVuSans-6f" x="27.783203"/>
      <use xlink:href="#DejaVuSans-67" x="88.964844"/>
      <use xlink:href="#DejaVuSans-31" x="152.441406"/>
      <use xlink:href="#DejaVuSans-30" x="216.064453"/>
      <use xlink:href="#DejaVuSans-28" x="279.6875"/>
      <use xlink:href="#DejaVuSans-23" x="318.701172"/>
      <use xlink:href="#DejaVuSans-20" x="402.490234"/>
      <use xlink:href="#DejaVuSans-66" x="434.277344"/>
      <use xlink:href="#DejaVuSans-2d" x="463.982422"/>
      <use xlink:href="#DejaVuSans-65" x="500.066406"/>
      <use xlink:href="#DejaVuSans-76" x="561.589844"/>
      <use xlink:href="#DejaVuSans-61" x="620.769531"/>
      <use xlink:href="#DejaVuSans-6c" x="682.048828"/>
      <use xlink:href="#DejaVuSans-73" x="709.832031"/>
      <use xlink:href="#DejaVuSans-20" x="761.931641"/>
      <use xlink:href="#DejaVuSans-2f" x="793.71875"/>
      <use xlink:href="#DejaVuSans-20" x="827.410156"/>
      <use xlink:href="#DejaVuSans-64" x="859.197266"/>
      <use xlink:href="#DejaVuSans-69" x="922.673828"/>
      <use xlink:href="#DejaVuSans-6d" x="950.457031"/>
      <use xlink:href="#DejaVuSans-65" x="1047.869141"/>
      <use xlink:href="#DejaVuSans-6e" x="1109.392578"/>
      <use xlink:href="#DejaVuSans-73" x="1172.771484"/>
      <use xlink:href="#DejaVuSans-69" x="1224.871094"/>
      <use xlink:href="#DejaVuSans-6f" x="1252.654297"/>
      <use xlink:href="#DejaVuSans-6e" x="1313.835938"/>
      <use xlink:href="#DejaVuSans-29" x="1377.214844"/>
     </g>
    </g>
   </g>
   <g id="matplotlib.axis_2">
    <g id="ytick_1">
     <g id="line2d_17">
      <path d="M 57.6 298.944 
L 360.8064 298.944 
" clip-path="url(#p31400532d2)" style="fill: none; stroke: #b0b0b0; stroke-width: 0.8; stroke-linecap: square"/>
     </g>
     <g id="line2d_18">
      <defs>
       <path id="me29053f96c" d="M 0 0 
L -3.5 0 
" style="stroke: #000000; stroke-width: 0.8"/>
      </defs>
      <g>
       <use xlink:href="#me29053f96c" x="57.6" y="298.944" style="stroke: #000000; stroke-width: 0.8"/>
      </g>
     </g>
     <g id="text_6">
      <!-- 0.0 -->
      <g transform="translate(25.155 305.02275)scale(0.16 -0.16)">
       <defs>
        <path id="DejaVuSans-2e" d="M 684 794 
L 1344 794 
L 1344 0 
L 684 0 
L 684 794 
z
" transform="scale(0.015625)"/>
       </defs>
       <use xlink:href="#DejaVuSans-30"/>
       <use xlink:href="#DejaVuSans-2e" x="63.623047"/>
       <use xlink:href="#DejaVuSans-30" x="95.410156"/>
      </g>
     </g>
    </g>
    <g id="ytick_2">
     <g id="line2d_19">
      <path d="M 57.6 244.6848 
L 360.8064 244.6848 
" clip-path="url(#p31400532d2)" style="fill: none; stroke: #b0b0b0; stroke-width: 0.8; stroke-linecap: square"/>
     </g>
     <g id="line2d_20">
      <g>
       <use xlink:href="#me29053f96c" x="57.6" y="244.6848" style="stroke: #000000; stroke-width: 0.8"/>
      </g>
     </g>
     <g id="text_7">
      <!-- 0.2 -->
      <g transform="translate(25.155 250.76355)scale(0.16 -0.16)">
       <use xlink:href="#DejaVuSans-30"/>
       <use xlink:href="#DejaVuSans-2e" x="63.623047"/>
       <use xlink:href="#DejaVuSans-32" x="95.410156"/>
      </g>
     </g>
    </g>
    <g id="ytick_3">
     <g id="line2d_21">
      <path d="M 57.6 190.4256 
L 360.8064 190.4256 
" clip-path="url(#p31400532d2)" style="fill: none; stroke: #b0b0b0; stroke-width: 0.8; stroke-linecap: square"/>
     </g>
     <g id="line2d_22">
      <g>
       <use xlink:href="#me29053f96c" x="57.6" y="190.4256" style="stroke: #000000; stroke-width: 0.8"/>
      </g>
     </g>
     <g id="text_8">
      <!-- 0.4 -->
      <g transform="translate(25.155 196.50435)scale(0.16 -0.16)">
       <use xlink:href="#DejaVuSans-30"/>
       <use xlink:href="#DejaVuSans-2e" x="63.623047"/>
       <use xlink:href="#DejaVuSans-34" x="95.410156"/>
      </g>
     </g>
    </g>
    <g id="ytick_4">
     <g id="line2d_23">
      <path d="M 57.6 136.1664 
L 360.8064 136.1664 
" clip-path="url(#p31400532d2)" style="fill: none; stroke: #b0b0b0; stroke-width: 0.8; stroke-linecap: square"/>
     </g>
     <g id="line2d_24">
      <g>
       <use xlink:href="#me29053f96c" x="57.6" y="136.1664" style="stroke: #000000; stroke-width: 0.8"/>
      </g>
     </g>
     <g id="text_9">
      <!-- 0.6 -->
      <g transform="translate(25.155 142.24515)scale(0.16 -0.16)">
       <use xlink:href="#DejaVuSans-30"/>
       <use xlink:href="#DejaVuSans-2e" x="63.623047"/>
       <use xlink:href="#DejaVuSans-36" x="95.410156"/>
      </g>
     </g>
    </g>
    <g id="ytick_5">
     <g id="line2d_25">
      <path d="M 57.6 81.9072 
L 360.8064 81.9072 
" clip-path="url(#p31400532d2)" style="fill: none; stroke: #b0b0b0; stroke-width: 0.8; stroke-linecap: square"/>
     </g>
     <g id="line2d_26">
      <g>
       <use xlink:href="#me29053f96c" x="57.6" y="81.9072" style="stroke: #000000; stroke-width: 0.8"/>
      </g>
     </g>
     <g id="text_10">
      <!-- 0.8 -->
      <g transform="translate(25.155 87.98595)scale(0.16 -0.16)">
       <defs>
        <path id="DejaVuSans-38" d="M 2034 2216 
Q 1584 2216 1326 1975 
Q 1069 1734 1069 1313 
Q 1069 891 1326 650 
Q 1584 409 2034 409 
Q 2484 409 2743 651 
Q 3003 894 3003 1313 
Q 3003 1734 2745 1975 
Q 2488 2216 2034 2216 
z
M 1403 2484 
Q 997 2584 770 2862 
Q 544 3141 544 3541 
Q 544 4100 942 4425 
Q 1341 4750 2034 4750 
Q 2731 4750 3128 4425 
Q 3525 4100 3525 3541 
Q 3525 3141 3298 2862 
Q 3072 2584 2669 2484 
Q 3125 2378 3379 2068 
Q 3634 1759 3634 1313 
Q 3634 634 3220 271 
Q 2806 -91 2034 -91 
Q 1263 -91 848 271 
Q 434 634 434 1313 
Q 434 1759 690 2068 
Q 947 2378 1403 2484 
z
M 1172 3481 
Q 1172 3119 1398 2916 
Q 1625 2713 2034 2713 
Q 2441 2713 2670 2916 
Q 2900 3119 2900 3481 
Q 2900 3844 2670 4047 
Q 2441 4250 2034 4250 
Q 1625 4250 1398 4047 
Q 1172 3844 1172 3481 
z
" transform="scale(0.015625)"/>
       </defs>
       <use xlink:href="#DejaVuSans-30"/>
       <use xlink:href="#DejaVuSans-2e" x="63.623047"/>
       <use xlink:href="#DejaVuSans-38" x="95.410156"/>
      </g>
     </g>
    </g>
    <g id="ytick_6">
     <g id="line2d_27">
      <path d="M 57.6 27.648 
L 360.8064 27.648 
" clip-path="url(#p31400532d2)" style="fill: none; stroke: #b0b0b0; stroke-width: 0.8; stroke-linecap: square"/>
     </g>
     <g id="line2d_28">
      <g>
       <use xlink:href="#me29053f96c" x="57.6" y="27.648" style="stroke: #000000; stroke-width: 0.8"/>
      </g>
     </g>
     <g id="text_11">
      <!-- 1.0 -->
      <g transform="translate(25.155 33.72675)scale(0.16 -0.16)">
       <use xlink:href="#DejaVuSans-31"/>
       <use xlink:href="#DejaVuSans-2e" x="63.623047"/>
       <use xlink:href="#DejaVuSans-30" x="95.410156"/>
      </g>
     </g>
    </g>
    <g id="text_12">
     <!-- Fraction of function,target pairs -->
     <g transform="translate(17.619531 297.681)rotate(-90)scale(0.17 -0.17)">
      <defs>
       <path id="DejaVuSans-46" d="M 628 4666 
L 3309 4666 
L 3309 4134 
L 1259 4134 
L 1259 2759 
L 3109 2759 
L 3109 2228 
L 1259 2228 
L 1259 0 
L 628 0 
L 628 4666 
z
" transform="scale(0.015625)"/>
       <path id="DejaVuSans-72" d="M 2631 2963 
Q 2534 3019 2420 3045 
Q 2306 3072 2169 3072 
Q 1681 3072 1420 2755 
Q 1159 2438 1159 1844 
L 1159 0 
L 581 0 
L 581 3500 
L 1159 3500 
L 1159 2956 
Q 1341 3275 1631 3429 
Q 1922 3584 2338 3584 
Q 2397 3584 2469 3576 
Q 2541 3569 2628 3553 
L 2631 2963 
z
" transform="scale(0.015625)"/>
       <path id="DejaVuSans-63" d="M 3122 3366 
L 3122 2828 
Q 2878 2963 2633 3030 
Q 2388 3097 2138 3097 
Q 1578 3097 1268 2742 
Q 959 2388 959 1747 
Q 959 1106 1268 751 
Q 1578 397 2138 397 
Q 2388 397 2633 464 
Q 2878 531 3122 666 
L 3122 134 
Q 2881 22 2623 -34 
Q 2366 -91 2075 -91 
Q 1284 -91 818 406 
Q 353 903 353 1747 
Q 353 2603 823 3093 
Q 1294 3584 2113 3584 
Q 2378 3584 2631 3529 
Q 2884 3475 3122 3366 
z
" transform="scale(0.015625)"/>
       <path id="DejaVuSans-74" d="M 1172 4494 
L 1172 3500 
L 2356 3500 
L 2356 3053 
L 1172 3053 
L 1172 1153 
Q 1172 725 1289 603 
Q 1406 481 1766 481 
L 2356 481 
L 2356 0 
L 1766 0 
Q 1100 0 847 248 
Q 594 497 594 1153 
L 594 3053 
L 172 3053 
L 172 3500 
L 594 3500 
L 594 4494 
L 1172 4494 
z
" transform="scale(0.015625)"/>
       <path id="DejaVuSans-75" d="M 544 1381 
L 544 3500 
L 1119 3500 
L 1119 1403 
Q 1119 906 1312 657 
Q 1506 409 1894 409 
Q 2359 409 2629 706 
Q 2900 1003 2900 1516 
L 2900 3500 
L 3475 3500 
L 3475 0 
L 2900 0 
L 2900 538 
Q 2691 219 2414 64 
Q 2138 -91 1772 -91 
Q 1169 -91 856 284 
Q 544 659 544 1381 
z
M 1991 3584 
L 1991 3584 
z
" transform="scale(0.015625)"/>
       <path id="DejaVuSans-2c" d="M 750 794 
L 1409 794 
L 1409 256 
L 897 -744 
L 494 -744 
L 750 256 
L 750 794 
z
" transform="scale(0.015625)"/>
       <path id="DejaVuSans-70" d="M 1159 525 
L 1159 -1331 
L 581 -1331 
L 581 3500 
L 1159 3500 
L 1159 2969 
Q 1341 3281 1617 3432 
Q 1894 3584 2278 3584 
Q 2916 3584 3314 3078 
Q 3713 2572 3713 1747 
Q 3713 922 3314 415 
Q 2916 -91 2278 -91 
Q 1894 -91 1617 61 
Q 1341 213 1159 525 
z
M 3116 1747 
Q 3116 2381 2855 2742 
Q 2594 3103 2138 3103 
Q 1681 3103 1420 2742 
Q 1159 2381 1159 1747 
Q 1159 1113 1420 752 
Q 1681 391 2138 391 
Q 2594 391 2855 752 
Q 3116 1113 3116 1747 
z
" transform="scale(0.015625)"/>
      </defs>
      <use xlink:href="#DejaVuSans-46"/>
      <use xlink:href="#DejaVuSans-72" x="50.269531"/>
      <use xlink:href="#DejaVuSans-61" x="91.382812"/>
      <use xlink:href="#DejaVuSans-63" x="152.662109"/>
      <use xlink:href="#DejaVuSans-74" x="207.642578"/>
      <use xlink:href="#DejaVuSans-69" x="246.851562"/>
      <use xlink:href="#DejaVuSans-6f" x="274.634766"/>
      <use xlink:href="#DejaVuSans-6e" x="335.816406"/>
      <use xlink:href="#DejaVuSans-20" x="399.195312"/>
      <use xlink:href="#DejaVuSans-6f" x="430.982422"/>
      <use xlink:href="#DejaVuSans-66" x="492.164062"/>
      <use xlink:href="#DejaVuSans-20" x="527.369141"/>
      <use xlink:href="#DejaVuSans-66" x="559.15625"/>
      <use xlink:href="#DejaVuSans-75" x="594.361328"/>
      <use xlink:href="#DejaVuSans-6e" x="657.740234"/>
      <use xlink:href="#DejaVuSans-63" x="721.119141"/>
      <use xlink:href="#DejaVuSans-74" x="776.099609"/>
      <use xlink:href="#DejaVuSans-69" x="815.308594"/>
      <use xlink:href="#DejaVuSans-6f" x="843.091797"/>
      <use xlink:href="#DejaVuSans-6e" x="904.273438"/>
      <use xlink:href="#DejaVuSans-2c" x="967.652344"/>
      <use xlink:href="#DejaVuSans-74" x="999.439453"/>
      <use xlink:href="#DejaVuSans-61" x="1038.648438"/>
      <use xlink:href="#DejaVuSans-72" x="1099.927734"/>
      <use xlink:href="#DejaVuSans-67" x="1139.291016"/>
      <use xlink:href="#DejaVuSans-65" x="1202.767578"/>
      <use xlink:href="#DejaVuSans-74" x="1264.291016"/>
      <use xlink:href="#DejaVuSans-20" x="1303.5"/>
      <use xlink:href="#DejaVuSans-70" x="1335.287109"/>
      <use xlink:href="#DejaVuSans-61" x="1398.763672"/>
      <use xlink:href="#DejaVuSans-69" x="1460.042969"/>
      <use xlink:href="#DejaVuSans-72" x="1487.826172"/>
      <use xlink:href="#DejaVuSans-73" x="1528.939453"/>
     </g>
    </g>
   </g>
   <g id="line2d_29">
    <defs>
     <path id="m6a55d3c49e" d="M 0 1.5 
C 0.397805 1.5 0.77937 1.341951 1.06066 1.06066 
C 1.341951 0.77937 1.5 0.397805 1.5 0 
C 1.5 -0.397805 1.341951 -0.77937 1.06066 -1.06066 
C 0.77937 -1.341951 0.397805 -1.5 0 -1.5 
C -0.397805 -1.5 -0.77937 -1.341951 -1.06066 -1.06066 
C -1.341951 -0.77937 -1.5 -0.397805 -1.5 0 
C -1.5 0.397805 -1.341951 0.77937 -1.06066 1.06066 
C -0.77937 1.341951 -0.397805 1.5 0 1.5 
z
" style="stroke: #00bfbf"/>
    </defs>
    <g>
     <use xlink:href="#m6a55d3c49e" x="204.501959" y="155.811972" style="fill: #00bfbf; stroke: #00bfbf"/>
     <use xlink:href="#m6a55d3c49e" x="204.501959" y="155.811972" style="fill: #00bfbf; stroke: #00bfbf"/>
    </g>
   </g>
   <g id="line2d_30">
    <path d="M 44.560826 298.944 
L 44.560826 283.975945 
L 57.6 283.975945 
L 57.6 283.508193 
L 65.227428 283.508193 
L 65.227428 283.040441 
L 70.639174 283.040441 
L 70.639174 282.57269 
L 74.836851 282.57269 
L 74.836851 282.104938 
L 81.166416 282.104938 
L 81.166416 281.169434 
L 85.894031 281.169434 
L 85.894031 277.427421 
L 87.876026 277.427421 
L 87.876026 274.62091 
L 89.668958 274.62091 
L 89.668958 273.685407 
L 91.305777 273.685407 
L 91.305777 273.217655 
L 92.811505 273.217655 
L 92.811505 272.282152 
L 94.205591 272.282152 
L 94.205591 271.8144 
L 96.717523 271.8144 
L 96.717523 271.346648 
L 97.857967 271.346648 
L 97.857967 270.411145 
L 101.833019 270.411145 
L 101.833019 268.540138 
L 103.544339 268.540138 
L 103.544339 266.669131 
L 104.344952 266.669131 
L 104.344952 264.330372 
L 105.112877 264.330372 
L 105.112877 262.927117 
L 106.560633 262.927117 
L 106.560633 262.459366 
L 107.244765 262.459366 
L 107.244765 260.588359 
L 107.904887 260.588359 
L 107.904887 260.120607 
L 109.159456 260.120607 
L 109.159456 259.652855 
L 112.989468 259.652855 
L 112.989468 259.185103 
L 115.314838 259.185103 
L 115.314838 257.781848 
L 115.747307 257.781848 
L 115.747307 256.378593 
L 116.170056 256.378593 
L 116.170056 255.910841 
L 118.889854 255.910841 
L 118.889854 254.975338 
L 120.28394 254.975338 
L 120.28394 254.039834 
L 123.936316 254.039834 
L 123.936316 253.104331 
L 125.779479 253.104331 
L 125.779479 251.701076 
L 126.274549 251.701076 
L 126.274549 250.765572 
L 128.354013 250.765572 
L 128.354013 248.426814 
L 129.622688 248.426814 
L 129.622688 247.49131 
L 129.826058 247.49131 
L 129.826058 246.555807 
L 131.002163 246.555807 
L 131.002163 245.620303 
L 131.191226 245.620303 
L 131.191226 245.152552 
L 131.929028 245.152552 
L 131.929028 244.6848 
L 132.109044 244.6848 
L 132.109044 241.87829 
L 132.638982 241.87829 
L 132.638982 240.942786 
L 134.463557 240.942786 
L 134.463557 240.007283 
L 135.085483 240.007283 
L 135.085483 239.539531 
L 136.555884 239.539531 
L 136.555884 239.071779 
L 137.520791 239.071779 
L 137.520791 238.136276 
L 137.654681 238.136276 
L 137.654681 237.200772 
L 139.067817 237.200772 
L 139.067817 236.733021 
L 139.191172 236.733021 
L 139.191172 236.265269 
L 139.313723 236.265269 
L 139.313723 235.329766 
L 139.435481 235.329766 
L 139.435481 234.394262 
L 139.914782 234.394262 
L 139.914782 232.991007 
L 143.166224 232.991007 
L 143.166224 231.587752 
L 143.560197 231.587752 
L 143.560197 230.652248 
L 144.324223 230.652248 
L 144.324223 229.716745 
L 144.510478 229.716745 
L 144.602918 227.377986 
L 145.148219 227.377986 
L 145.148219 226.910234 
L 146.023332 226.910234 
L 146.108646 225.039228 
L 146.612557 225.039228 
L 146.612557 224.571476 
L 147.103321 224.571476 
L 147.103321 224.103724 
L 147.264104 224.103724 
L 147.264104 223.168221 
L 147.502732 223.168221 
L 147.502732 222.700469 
L 148.800595 222.700469 
L 148.874221 220.829462 
L 149.020615 220.829462 
L 149.093387 219.893959 
L 149.595059 219.893959 
L 149.665646 218.022952 
L 149.73597 218.022952 
L 149.73597 217.087448 
L 151.220087 217.087448 
L 151.220087 216.151945 
L 151.349377 216.151945 
L 151.349377 215.684193 
L 151.982822 215.684193 
L 151.982822 215.216441 
L 153.536404 215.216441 
L 153.536404 214.280938 
L 154.267588 214.280938 
L 154.267588 213.813186 
L 155.18278 213.813186 
L 155.18278 213.345434 
L 155.495444 213.345434 
L 155.495444 212.877683 
L 155.649849 212.877683 
L 155.649849 212.409931 
L 156.255099 212.409931 
L 156.255099 211.942179 
L 157.080512 211.942179 
L 157.080512 211.006676 
L 158.58624 211.006676 
L 158.58624 210.538924 
L 159.190332 210.538924 
L 159.190332 210.071172 
L 160.061585 210.071172 
L 160.061585 209.135669 
L 160.738476 209.135669 
L 160.738476 207.732414 
L 160.933013 207.732414 
L 160.933013 207.264662 
L 161.579783 207.264662 
L 161.579783 206.329159 
L 162.880139 206.329159 
L 162.880139 205.393655 
L 163.019227 205.393655 
L 163.122872 204.458152 
L 163.73303 204.458152 
L 163.766354 201.651641 
L 163.96507 201.651641 
L 163.96507 200.716138 
L 164.09639 200.716138 
L 164.09639 199.780634 
L 164.324018 199.780634 
L 164.324018 199.312883 
L 164.739583 199.312883 
L 164.739583 198.845131 
L 167.661966 198.845131 
L 167.661966 198.377379 
L 168.010586 198.377379 
L 168.010586 197.909628 
L 168.142969 197.909628 
L 168.142969 197.441876 
L 168.842171 197.441876 
L 168.842171 196.506372 
L 169.269439 196.506372 
L 169.269439 195.570869 
L 170.167131 195.570869 
L 170.167131 195.103117 
L 170.635104 195.103117 
L 170.635104 194.167614 
L 170.9104 194.167614 
L 170.9104 193.699862 
L 171.136775 193.699862 
L 171.136775 193.23211 
L 171.315934 193.23211 
L 171.315934 192.764359 
L 171.427048 192.764359 
L 171.427048 192.296607 
L 173.462145 192.296607 
L 173.462145 191.828855 
L 173.952824 191.828855 
L 173.952824 191.361103 
L 174.786503 191.361103 
L 174.786503 190.4256 
L 174.915793 190.4256 
L 174.934191 189.022345 
L 175.062472 189.022345 
L 175.062472 187.151338 
L 176.162047 187.151338 
L 176.162047 186.683586 
L 177.249723 186.683586 
L 177.249723 186.215834 
L 177.363192 186.215834 
L 177.363192 185.280331 
L 178.076737 185.280331 
L 178.076737 184.812579 
L 178.794182 184.812579 
L 178.794182 184.344828 
L 179.23822 184.344828 
L 179.23822 183.877076 
L 179.814423 183.877076 
L 179.814423 182.941572 
L 180.096038 182.941572 
L 180.096038 182.473821 
L 180.221402 182.473821 
L 180.221402 182.006069 
L 181.234837 182.006069 
L 181.234837 181.070566 
L 181.881346 181.070566 
L 181.881346 180.602814 
L 182.919829 180.602814 
L 182.991858 179.199559 
L 183.265442 179.199559 
L 183.265442 178.731807 
L 183.50015 178.731807 
L 183.50015 178.264055 
L 184.95827 178.264055 
L 184.95827 177.796303 
L 185.183561 177.796303 
L 185.289901 176.8608 
L 186.261169 176.8608 
L 186.261169 176.393048 
L 186.875397 176.393048 
L 186.943502 174.989793 
L 187.555003 174.989793 
L 187.555003 174.05429 
L 187.825678 174.05429 
L 187.825678 173.118786 
L 187.991745 173.118786 
L 187.991745 172.183283 
L 189.0629 172.183283 
L 189.0629 171.715531 
L 189.25283 171.715531 
L 189.25283 171.247779 
L 189.457863 171.247779 
L 189.483336 170.312276 
L 190.691041 170.312276 
L 190.691041 169.844524 
L 191.370909 169.844524 
L 191.432209 168.909021 
L 191.531398 168.909021 
L 191.531398 168.441269 
L 192.437618 168.441269 
L 192.437618 167.973517 
L 192.846503 167.973517 
L 192.846503 167.505766 
L 193.385111 167.505766 
L 193.385111 167.038014 
L 193.577208 167.038014 
L 193.577208 166.10251 
L 195.185565 166.10251 
L 195.185565 165.634759 
L 195.643651 165.634759 
L 195.643651 165.167007 
L 196.180213 165.167007 
L 196.180213 164.231503 
L 196.926015 164.231503 
L 196.926015 163.763752 
L 197.7202 163.763752 
L 197.7202 163.296 
L 198.476949 163.296 
L 198.476949 162.828248 
L 199.163899 162.828248 
L 199.244874 161.892745 
L 200.252658 161.892745 
L 200.252658 161.424993 
L 200.438417 161.424993 
L 200.438417 160.48949 
L 200.957293 160.48949 
L 200.957293 160.021738 
L 201.632036 160.021738 
L 201.632036 159.553986 
L 202.149737 159.553986 
L 202.149737 159.086234 
L 203.049619 159.086234 
L 203.049619 158.150731 
L 203.185265 158.150731 
L 203.185265 157.682979 
L 203.469802 157.682979 
L 203.469802 157.215228 
L 203.754072 157.215228 
L 203.853154 156.279724 
L 204.501959 156.279724 
L 204.501959 155.811972 
L 360.8064 155.811972 
L 360.8064 155.811972 
" style="fill: none; stroke: #00bfbf; stroke-width: 1.5; stroke-linecap: square"/>
   </g>
   <g id="line2d_31">
    <defs>
     <path id="mb4a6bdc671" d="M -6 0 
L 6 0 
M 0 6 
L 0 -6 
" style="stroke: #00bfbf; stroke-width: 1.5"/>
    </defs>
    <g>
     <use xlink:href="#mb4a6bdc671" x="91.305777" y="273.217655" style="fill-opacity: 0; stroke: #00bfbf; stroke-width: 1.5"/>
     <use xlink:href="#mb4a6bdc671" x="135.085483" y="239.539531" style="fill-opacity: 0; stroke: #00bfbf; stroke-width: 1.5"/>
     <use xlink:href="#mb4a6bdc671" x="174.934191" y="189.022345" style="fill-opacity: 0; stroke: #00bfbf; stroke-width: 1.5"/>
     <use xlink:href="#mb4a6bdc671" x="204.501959" y="156.279724" style="fill-opacity: 0; stroke: #00bfbf; stroke-width: 1.5"/>
     <use xlink:href="#mb4a6bdc671" x="204.501959" y="155.811972" style="fill-opacity: 0; stroke: #00bfbf; stroke-width: 1.5"/>
     <use xlink:href="#mb4a6bdc671" x="360.8064" y="155.811972" style="fill-opacity: 0; stroke: #00bfbf; stroke-width: 1.5"/>
    </g>
   </g>
   <g id="line2d_32">
    <path style="fill: none; stroke: #00bfbf; stroke-width: 1.5; stroke-linecap: square"/>
    <g/>
   </g>
   <g id="line2d_33">
    <path d="M 205.158657 155.811972 
" clip-path="url(#p31400532d2)" style="fill: none; stroke: #00bfbf; stroke-width: 1.5; stroke-linecap: square"/>
    <defs>
     <path id="m62c97165e6" d="M -12 12 
L 12 -12 
M -12 -12 
L 12 12 
" style="stroke: #00bfbf"/>
    </defs>
    <g clip-path="url(#p31400532d2)">
     <use xlink:href="#m62c97165e6" x="205.158657" y="155.811972" style="fill: #00bfbf; stroke: #00bfbf"/>
    </g>
   </g>
   <g id="line2d_34">
    <defs>
     <path id="m5dcebce0a3" d="M 0 1.5 
C 0.397805 1.5 0.77937 1.341951 1.06066 1.06066 
C 1.341951 0.77937 1.5 0.397805 1.5 0 
C 1.5 -0.397805 1.341951 -0.77937 1.06066 -1.06066 
C 0.77937 -1.341951 0.397805 -1.5 0 -1.5 
C -0.397805 -1.5 -0.77937 -1.341951 -1.06066 -1.06066 
C -1.341951 -0.77937 -1.5 -0.397805 -1.5 0 
C -1.5 0.397805 -1.341951 0.77937 -1.06066 1.06066 
C -0.77937 1.341951 -0.397805 1.5 0 1.5 
z
" style="stroke: #008000"/>
    </defs>
    <g>
     <use xlink:href="#m5dcebce0a3" x="197.316111" y="192.764359" style="fill: #008000; stroke: #008000"/>
     <use xlink:href="#m5dcebce0a3" x="197.316111" y="192.764359" style="fill: #008000; stroke: #008000"/>
    </g>
   </g>
   <g id="line2d_35">
    <path d="M 36.933397 298.944 
L 36.933397 289.588966 
L 63.011746 289.588966 
L 63.011746 288.653462 
L 70.639174 288.653462 
L 70.639174 283.040441 
L 73.538988 283.040441 
L 73.538988 281.637186 
L 78.266603 281.637186 
L 78.266603 281.169434 
L 82.04153 281.169434 
L 82.04153 280.233931 
L 83.678349 280.233931 
L 83.678349 279.298428 
L 86.578163 279.298428 
L 86.578163 277.427421 
L 91.305777 277.427421 
L 91.305777 276.959669 
L 93.287772 276.959669 
L 93.287772 275.088662 
L 94.205591 275.088662 
L 94.205591 274.62091 
L 97.485448 274.62091 
L 97.485448 273.685407 
L 98.223251 273.685407 
L 98.223251 273.217655 
L 101.532027 273.217655 
L 101.532027 271.8144 
L 102.708132 271.8144 
L 102.708132 271.346648 
L 103.269713 271.346648 
L 103.269713 270.878897 
L 104.344952 270.878897 
L 104.344952 269.00789 
L 105.36204 269.00789 
L 105.36204 268.540138 
L 108.119879 268.540138 
L 108.119879 267.604634 
L 108.542628 267.604634 
L 108.542628 266.669131 
L 111.262425 266.669131 
L 111.262425 263.394869 
L 112.317555 263.394869 
L 112.317555 262.459366 
L 113.954374 262.459366 
L 113.954374 261.523862 
L 114.571202 261.523862 
L 114.571202 260.588359 
L 118.889854 260.588359 
L 118.889854 260.120607 
L 120.506564 260.120607 
L 120.506564 259.185103 
L 121.581803 259.185103 
L 121.581803 257.314097 
L 123.374735 257.314097 
L 123.374735 256.378593 
L 123.563797 256.378593 
L 123.563797 255.910841 
L 124.659926 255.910841 
L 124.659926 254.975338 
L 126.993549 254.975338 
L 126.993549 254.039834 
L 131.563744 254.039834 
L 131.563744 253.104331 
L 132.522502 253.104331 
L 132.522502 251.701076 
L 132.754746 251.701076 
L 132.754746 251.233324 
L 134.091039 251.233324 
L 134.091039 250.297821 
L 135.835047 250.297821 
L 135.835047 249.830069 
L 136.318661 249.830069 
L 136.318661 248.894566 
L 136.88305 248.894566 
L 136.88305 247.959062 
L 137.159019 247.959062 
L 137.159019 247.023559 
L 137.787626 247.023559 
L 137.787626 246.555807 
L 138.310202 246.555807 
L 138.395904 245.152552 
L 139.556456 245.152552 
L 139.556456 244.217048 
L 140.032723 244.217048 
L 140.032723 243.281545 
L 141.320133 243.281545 
L 141.320133 241.87829 
L 142.248405 241.87829 
L 142.248405 241.410538 
L 142.387236 241.410538 
L 142.387236 240.475034 
L 142.999601 240.475034 
L 142.999601 239.539531 
L 143.199372 239.539531 
L 143.199372 239.071779 
L 143.977892 239.071779 
L 144.041338 237.200772 
L 144.907812 237.200772 
L 144.907812 236.265269 
L 147.076389 236.265269 
L 147.076389 235.797517 
L 147.764371 235.797517 
L 147.868016 234.862014 
L 148.226342 234.862014 
L 148.226342 234.394262 
L 148.377845 234.394262 
L 148.377845 233.92651 
L 149.069161 233.92651 
L 149.069161 232.991007 
L 149.829328 232.991007 
L 149.829328 232.055503 
L 150.693856 232.055503 
L 150.693856 231.587752 
L 151.133398 231.587752 
L 151.220087 229.716745 
L 152.1482 229.716745 
L 152.230346 228.781241 
L 152.434157 228.781241 
L 152.434157 228.31349 
L 153.49813 228.31349 
L 153.49813 227.377986 
L 155.322384 227.377986 
L 155.391799 225.974731 
L 156.403417 225.974731 
L 156.403417 225.039228 
L 157.080512 225.039228 
L 157.080512 224.571476 
L 158.948151 224.571476 
L 158.948151 224.103724 
L 159.844108 224.103724 
L 159.953161 223.168221 
L 160.409709 223.168221 
L 160.409709 222.700469 
L 160.725435 222.700469 
L 160.725435 222.232717 
L 165.249018 222.232717 
L 165.249018 221.297214 
L 166.130658 221.297214 
L 166.130658 220.36171 
L 166.594686 220.36171 
L 166.632844 218.958455 
L 168.396298 218.958455 
L 168.396298 218.490703 
L 168.825216 218.490703 
L 168.825216 218.022952 
L 169.010886 218.022952 
L 169.010886 217.5552 
L 170.072123 217.5552 
L 170.072123 217.087448 
L 172.496541 217.087448 
L 172.524431 215.216441 
L 172.663262 215.216441 
L 172.663262 214.280938 
L 173.462145 214.280938 
L 173.462145 213.345434 
L 173.686173 213.345434 
L 173.686173 212.409931 
L 175.062472 212.409931 
L 175.062472 211.942179 
L 177.168252 211.942179 
L 177.244302 210.538924 
L 177.894327 210.538924 
L 177.977934 209.603421 
L 181.889818 209.603421 
L 181.889818 209.135669 
L 182.05006 209.135669 
L 182.05006 208.667917 
L 182.24223 208.667917 
L 182.24223 207.732414 
L 182.407753 207.732414 
L 182.407753 206.329159 
L 182.726392 206.329159 
L 182.726392 205.861407 
L 183.542864 205.861407 
L 183.542864 205.393655 
L 184.347677 205.393655 
L 184.347677 203.522648 
L 185.556637 203.522648 
L 185.612313 202.587145 
L 186.14669 202.587145 
L 186.14669 202.119393 
L 186.361605 202.119393 
L 186.361605 201.651641 
L 187.088617 201.651641 
L 187.088617 200.716138 
L 188.083374 200.716138 
L 188.083374 200.248386 
L 188.421569 200.248386 
L 188.421569 199.312883 
L 189.971902 199.312883 
L 189.977413 198.377379 
L 191.358113 198.377379 
L 191.358113 197.441876 
L 192.345535 197.441876 
L 192.345535 196.974124 
L 192.630016 196.974124 
L 192.630016 196.506372 
L 194.300303 196.506372 
L 194.300303 196.038621 
L 195.030357 196.038621 
L 195.030357 195.570869 
L 195.90279 195.570869 
L 195.90279 195.103117 
L 196.01505 195.103117 
L 196.01505 194.635366 
L 196.465316 194.635366 
L 196.465316 194.167614 
L 196.613042 194.167614 
L 196.613042 193.699862 
L 197.316111 193.699862 
L 197.316111 192.764359 
L 360.8064 192.764359 
L 360.8064 192.764359 
" style="fill: none; stroke: #008000; stroke-width: 1.5; stroke-linecap: square"/>
   </g>
   <g id="line2d_36">
    <defs>
     <path id="m20e9883cb3" d="M -0 6 
L 6 -6 
L -6 -6 
z
" style="stroke: #008000; stroke-width: 1.5; stroke-linejoin: miter"/>
    </defs>
    <g>
     <use xlink:href="#m20e9883cb3" x="86.578163" y="277.427421" style="fill-opacity: 0; stroke: #008000; stroke-width: 1.5; stroke-linejoin: miter"/>
     <use xlink:href="#m20e9883cb3" x="157.080512" y="225.039228" style="fill-opacity: 0; stroke: #008000; stroke-width: 1.5; stroke-linejoin: miter"/>
     <use xlink:href="#m20e9883cb3" x="197.316111" y="193.699862" style="fill-opacity: 0; stroke: #008000; stroke-width: 1.5; stroke-linejoin: miter"/>
     <use xlink:href="#m20e9883cb3" x="197.316111" y="192.764359" style="fill-opacity: 0; stroke: #008000; stroke-width: 1.5; stroke-linejoin: miter"/>
     <use xlink:href="#m20e9883cb3" x="197.316111" y="192.764359" style="fill-opacity: 0; stroke: #008000; stroke-width: 1.5; stroke-linejoin: miter"/>
     <use xlink:href="#m20e9883cb3" x="360.8064" y="192.764359" style="fill-opacity: 0; stroke: #008000; stroke-width: 1.5; stroke-linejoin: miter"/>
    </g>
   </g>
   <g id="line2d_37">
    <path style="fill: none; stroke: #008000; stroke-width: 1.5; stroke-linecap: square"/>
    <g/>
   </g>
   <g id="line2d_38">
    <path d="M 197.531229 192.764359 
" clip-path="url(#p31400532d2)" style="fill: none; stroke: #008000; stroke-width: 1.5; stroke-linecap: square"/>
    <defs>
     <path id="m1978ceee9e" d="M -12 12 
L 12 -12 
M -12 -12 
L 12 12 
" style="stroke: #008000"/>
    </defs>
    <g clip-path="url(#p31400532d2)">
     <use xlink:href="#m1978ceee9e" x="197.531229" y="192.764359" style="fill: #008000; stroke: #008000"/>
    </g>
   </g>
   <g id="line2d_39">
    <defs>
     <path id="m1144ae3125" d="M 0 1.5 
C 0.397805 1.5 0.77937 1.341951 1.06066 1.06066 
C 1.341951 0.77937 1.5 0.397805 1.5 0 
C 1.5 -0.397805 1.341951 -0.77937 1.06066 -1.06066 
C 0.77937 -1.341951 0.397805 -1.5 0 -1.5 
C -0.397805 -1.5 -0.77937 -1.341951 -1.06066 -1.06066 
C -1.341951 -0.77937 -1.5 -0.397805 -1.5 0 
C -1.5 0.397805 -1.341951 0.77937 -1.06066 1.06066 
C -0.77937 1.341951 -0.397805 1.5 0 1.5 
z
" style="stroke: #0000ff"/>
    </defs>
    <g>
     <use xlink:href="#m1144ae3125" x="185.471412" y="211.942179" style="fill: #0000ff; stroke: #0000ff"/>
     <use xlink:href="#m1144ae3125" x="185.471412" y="211.942179" style="fill: #0000ff; stroke: #0000ff"/>
    </g>
   </g>
   <g id="line2d_40">
    <path d="M 27.323974 298.944 
L 27.323974 287.717959 
L 47.990577 287.717959 
L 47.990577 285.3792 
L 53.402323 285.3792 
L 53.402323 283.975945 
L 57.6 283.975945 
L 57.6 281.637186 
L 61.029752 281.637186 
L 61.029752 280.701683 
L 63.929565 280.701683 
L 63.929565 280.233931 
L 66.441498 280.233931 
L 66.441498 279.298428 
L 72.432107 279.298428 
L 72.432107 277.427421 
L 83.678349 277.427421 
L 83.678349 276.959669 
L 84.596168 276.959669 
L 84.596168 276.491917 
L 85.471281 276.491917 
L 85.471281 275.556414 
L 87.1081 275.556414 
L 87.1081 275.088662 
L 87.876026 275.088662 
L 87.876026 274.153159 
L 88.613828 274.153159 
L 88.613828 273.217655 
L 91.305777 273.217655 
L 91.305777 272.282152 
L 93.098709 272.282152 
L 93.098709 270.411145 
L 93.66029 270.411145 
L 93.66029 269.943393 
L 94.735529 269.943393 
L 94.735529 269.475641 
L 96.241256 269.475641 
L 96.241256 268.540138 
L 99.751228 268.540138 
L 99.751228 268.072386 
L 100.147275 268.072386 
L 100.147275 267.604634 
L 100.535156 267.604634 
L 100.535156 267.136883 
L 102.011329 267.136883 
L 102.011329 265.733628 
L 104.655893 265.733628 
L 104.655893 265.265876 
L 105.559021 265.265876 
L 105.559021 264.798124 
L 108.034177 264.798124 
L 108.034177 264.330372 
L 109.520071 264.330372 
L 109.520071 261.991614 
L 110.674517 261.991614 
L 110.674517 260.588359 
L 110.897141 260.588359 
L 110.897141 259.185103 
L 111.54963 259.185103 
L 111.54963 258.2496 
L 112.790402 258.2496 
L 112.790402 257.314097 
L 122.677931 257.314097 
L 122.677931 256.378593 
L 123.374735 256.378593 
L 123.374735 254.507586 
L 125.628382 254.507586 
L 125.628382 253.572083 
L 127.366067 253.572083 
L 127.366067 253.104331 
L 127.549596 253.104331 
L 127.549596 252.636579 
L 128.354013 252.636579 
L 128.354013 252.168828 
L 128.786481 252.168828 
L 128.786481 251.233324 
L 130.027253 251.233324 
L 130.027253 250.297821 
L 130.4233 250.297821 
L 130.4233 249.830069 
L 132.499119 249.830069 
L 132.499119 248.894566 
L 132.638982 248.894566 
L 132.638982 248.426814 
L 135.298389 248.426814 
L 135.35878 246.555807 
L 136.356818 246.555807 
L 136.356818 246.088055 
L 139.93843 246.088055 
L 139.93843 245.620303 
L 140.26641 245.620303 
L 140.26641 245.152552 
L 140.815692 245.152552 
L 140.860749 244.217048 
L 141.56737 244.217048 
L 141.56737 243.281545 
L 141.696956 243.281545 
L 141.696956 242.346041 
L 142.164612 242.346041 
L 142.164612 241.410538 
L 142.331827 241.410538 
L 142.373399 240.475034 
L 143.462475 240.475034 
L 143.462475 240.007283 
L 144.305496 240.007283 
L 144.305496 239.539531 
L 144.71325 239.539531 
L 144.71325 238.136276 
L 147.940229 238.136276 
L 147.940229 237.200772 
L 149.764026 237.200772 
L 149.764026 236.733021 
L 150.343738 236.733021 
L 150.343738 235.797517 
L 151.731998 235.797517 
L 151.731998 234.862014 
L 152.426047 234.862014 
L 152.426047 233.92651 
L 152.930279 233.92651 
L 152.930279 232.991007 
L 153.398253 232.991007 
L 153.398253 232.523255 
L 154.86483 232.523255 
L 154.86483 231.587752 
L 156.657763 231.587752 
L 156.657763 231.12 
L 157.678942 231.12 
L 157.678942 230.184497 
L 158.804221 230.184497 
L 158.804221 229.248993 
L 159.518669 229.248993 
L 159.518669 228.781241 
L 160.142495 228.781241 
L 160.142495 227.845738 
L 160.367209 227.845738 
L 160.367209 227.377986 
L 163.136649 227.377986 
L 163.136649 226.910234 
L 164.194282 226.910234 
L 164.194282 225.974731 
L 164.55531 225.974731 
L 164.55531 225.506979 
L 165.195605 225.506979 
L 165.195605 224.571476 
L 166.087543 224.571476 
L 166.087543 224.103724 
L 166.448979 224.103724 
L 166.448979 223.635972 
L 167.328816 223.635972 
L 167.328816 222.700469 
L 169.254523 222.700469 
L 169.254523 221.764966 
L 172.127316 221.764966 
L 172.127316 220.829462 
L 172.632807 220.829462 
L 172.632807 220.36171 
L 173.683553 220.36171 
L 173.683553 219.893959 
L 176.530511 219.893959 
L 176.530511 218.958455 
L 177.389032 218.958455 
L 177.389032 218.022952 
L 179.279134 218.022952 
L 179.354881 216.619697 
L 179.545804 216.619697 
L 179.545804 216.151945 
L 180.543493 216.151945 
L 180.543493 215.684193 
L 183.063612 215.684193 
L 183.120819 214.280938 
L 183.399584 214.280938 
L 183.399584 213.813186 
L 184.886904 213.813186 
L 184.886904 212.877683 
L 185.471412 212.877683 
L 185.471412 211.942179 
L 360.8064 211.942179 
L 360.8064 211.942179 
" style="fill: none; stroke: #0000ff; stroke-width: 1.5; stroke-linecap: square"/>
   </g>
   <g id="line2d_41">
    <defs>
     <path id="m525ab07400" d="M 0 -6 
L -1.347084 -1.854102 
L -5.706339 -1.854102 
L -2.179628 0.708204 
L -3.526712 4.854102 
L -0 2.291796 
L 3.526712 4.854102 
L 2.179628 0.708204 
L 5.706339 -1.854102 
L 1.347084 -1.854102 
z
" style="stroke: #0000ff; stroke-width: 1.5; stroke-linejoin: bevel"/>
    </defs>
    <g>
     <use xlink:href="#m525ab07400" x="84.596168" y="276.491917" style="fill-opacity: 0; stroke: #0000ff; stroke-width: 1.5; stroke-linejoin: bevel"/>
     <use xlink:href="#m525ab07400" x="130.4233" y="250.297821" style="fill-opacity: 0; stroke: #0000ff; stroke-width: 1.5; stroke-linejoin: bevel"/>
     <use xlink:href="#m525ab07400" x="185.471412" y="212.877683" style="fill-opacity: 0; stroke: #0000ff; stroke-width: 1.5; stroke-linejoin: bevel"/>
     <use xlink:href="#m525ab07400" x="185.471412" y="211.942179" style="fill-opacity: 0; stroke: #0000ff; stroke-width: 1.5; stroke-linejoin: bevel"/>
     <use xlink:href="#m525ab07400" x="185.471412" y="211.942179" style="fill-opacity: 0; stroke: #0000ff; stroke-width: 1.5; stroke-linejoin: bevel"/>
     <use xlink:href="#m525ab07400" x="360.8064" y="211.942179" style="fill-opacity: 0; stroke: #0000ff; stroke-width: 1.5; stroke-linejoin: bevel"/>
    </g>
   </g>
   <g id="line2d_42">
    <path style="fill: none; stroke: #0000ff; stroke-width: 1.5; stroke-linecap: square"/>
    <g/>
   </g>
   <g id="line2d_43">
    <path d="M 187.921806 211.942179 
" clip-path="url(#p31400532d2)" style="fill: none; stroke: #0000ff; stroke-width: 1.5; stroke-linecap: square"/>
    <defs>
     <path id="m61548b5a32" d="M -12 12 
L 12 -12 
M -12 -12 
L 12 12 
" style="stroke: #0000ff"/>
    </defs>
    <g clip-path="url(#p31400532d2)">
     <use xlink:href="#m61548b5a32" x="187.921806" y="211.942179" style="fill: #0000ff; stroke: #0000ff"/>
    </g>
   </g>
   <g id="line2d_44">
    <defs>
     <path id="m8c934b6c8c" d="M 0 1.5 
C 0.397805 1.5 0.77937 1.341951 1.06066 1.06066 
C 1.341951 0.77937 1.5 0.397805 1.5 0 
C 1.5 -0.397805 1.341951 -0.77937 1.06066 -1.06066 
C 0.77937 -1.341951 0.397805 -1.5 0 -1.5 
C -0.397805 -1.5 -0.77937 -1.341951 -1.06066 -1.06066 
C -1.341951 -0.77937 -1.5 -0.397805 -1.5 0 
C -1.5 0.397805 -1.341951 0.77937 -1.06066 1.06066 
C -0.77937 1.341951 -0.397805 1.5 0 1.5 
z
" style="stroke: #000000"/>
    </defs>
    <g>
     <use xlink:href="#m8c934b6c8c" x="174.389431" y="247.023559" style="stroke: #000000"/>
     <use xlink:href="#m8c934b6c8c" x="174.389431" y="247.023559" style="stroke: #000000"/>
    </g>
   </g>
   <g id="line2d_45">
    <path d="M 14.2848 298.944 
L 14.2848 286.782455 
L 34.951403 286.782455 
L 34.951403 285.3792 
L 50.890391 285.3792 
L 50.890391 283.975945 
L 53.402323 283.975945 
L 53.402323 283.040441 
L 61.029752 283.040441 
L 61.029752 281.169434 
L 73.268314 281.169434 
L 73.268314 280.233931 
L 76.284608 280.233931 
L 76.284608 278.830676 
L 85.894031 278.830676 
L 85.894031 278.362924 
L 87.1081 278.362924 
L 87.1081 276.959669 
L 87.495981 276.959669 
L 87.495981 276.491917 
L 89.323782 276.491917 
L 89.323782 276.024166 
L 91.922605 276.024166 
L 91.922605 275.556414 
L 96.95121 275.556414 
L 96.95121 274.62091 
L 97.857967 274.62091 
L 97.857967 274.153159 
L 98.295464 274.153159 
L 98.295464 273.685407 
L 109.280431 273.685407 
L 109.280431 273.217655 
L 110.562208 273.217655 
L 110.562208 272.749903 
L 111.656212 272.749903 
L 111.656212 272.282152 
L 114.418881 272.282152 
L 114.418881 271.8144 
L 115.83262 271.8144 
L 115.83262 271.346648 
L 116.253478 271.346648 
L 116.253478 270.878897 
L 120.41783 270.878897 
L 120.41783 270.411145 
L 121.518993 270.411145 
L 121.518993 269.943393 
L 126.709238 269.943393 
L 126.709238 269.475641 
L 129.041269 269.475641 
L 129.041269 269.00789 
L 130.384069 269.00789 
L 130.384069 268.540138 
L 131.191226 268.540138 
L 131.191226 268.072386 
L 131.600593 268.072386 
L 131.600593 267.604634 
L 132.743202 267.604634 
L 132.743202 266.669131 
L 134.683578 266.669131 
L 134.683578 266.201379 
L 139.411192 266.201379 
L 139.411192 265.265876 
L 140.219905 265.265876 
L 140.219905 264.330372 
L 141.974701 264.330372 
L 141.974701 263.394869 
L 142.394151 263.394869 
L 142.394151 262.459366 
L 142.435586 262.459366 
L 142.435586 261.991614 
L 144.342932 261.991614 
L 144.342932 261.05611 
L 147.707122 261.05611 
L 147.707122 260.588359 
L 148.07872 260.588359 
L 148.07872 259.652855 
L 148.785835 259.652855 
L 148.785835 259.185103 
L 149.2669 259.185103 
L 149.2669 258.2496 
L 150.985103 258.2496 
L 150.985103 257.781848 
L 152.377312 257.781848 
L 152.377312 257.314097 
L 156.8511 257.314097 
L 156.8511 256.846345 
L 157.688143 256.846345 
L 157.688143 256.378593 
L 158.471883 256.378593 
L 158.471883 255.44309 
L 159.915064 255.44309 
L 159.915064 254.975338 
L 160.231096 254.975338 
L 160.231096 254.507586 
L 161.071844 254.507586 
L 161.071844 254.039834 
L 161.579783 254.039834 
L 161.579783 253.572083 
L 163.625994 253.572083 
L 163.625994 253.104331 
L 165.598594 253.104331 
L 165.598594 252.636579 
L 166.569843 252.636579 
L 166.569843 251.701076 
L 167.112684 251.701076 
L 167.112684 251.233324 
L 168.611979 251.233324 
L 168.611979 250.297821 
L 168.683897 250.297821 
L 168.683897 249.830069 
L 169.059531 249.830069 
L 169.059531 249.362317 
L 172.314244 249.362317 
L 172.314244 248.894566 
L 172.440637 248.894566 
L 172.440637 247.959062 
L 172.954239 247.959062 
L 172.954239 247.49131 
L 174.389431 247.49131 
L 174.389431 247.023559 
L 360.8064 247.023559 
" style="fill: none; stroke: #000000; stroke-width: 1.5; stroke-linecap: square"/>
   </g>
   <g id="line2d_46">
    <defs>
     <path id="m6efc8443c1" d="M 0 6 
C 1.591219 6 3.117479 5.367802 4.242641 4.242641 
C 5.367802 3.117479 6 1.591219 6 0 
C 6 -1.591219 5.367802 -3.117479 4.242641 -4.242641 
C 3.117479 -5.367802 1.591219 -6 0 -6 
C -1.591219 -6 -3.117479 -5.367802 -4.242641 -4.242641 
C -5.367802 -3.117479 -6 -1.591219 -6 0 
C -6 1.591219 -5.367802 3.117479 -4.242641 4.242641 
C -3.117479 5.367802 -1.591219 6 0 6 
z
" style="stroke: #000000; stroke-width: 1.5"/>
    </defs>
    <g>
     <use xlink:href="#m6efc8443c1" x="76.284608" y="278.830676" style="fill-opacity: 0; stroke: #000000; stroke-width: 1.5"/>
     <use xlink:href="#m6efc8443c1" x="168.683897" y="249.830069" style="fill-opacity: 0; stroke: #000000; stroke-width: 1.5"/>
     <use xlink:href="#m6efc8443c1" x="174.389431" y="247.49131" style="fill-opacity: 0; stroke: #000000; stroke-width: 1.5"/>
     <use xlink:href="#m6efc8443c1" x="174.389431" y="247.023559" style="fill-opacity: 0; stroke: #000000; stroke-width: 1.5"/>
     <use xlink:href="#m6efc8443c1" x="174.389431" y="247.023559" style="fill-opacity: 0; stroke: #000000; stroke-width: 1.5"/>
     <use xlink:href="#m6efc8443c1" x="360.8064" y="247.023559" style="fill-opacity: 0; stroke: #000000; stroke-width: 1.5"/>
    </g>
   </g>
   <g id="line2d_47">
    <path style="fill: none; stroke: #000000; stroke-width: 1.5; stroke-linecap: square"/>
    <g/>
   </g>
   <g id="line2d_48">
    <path d="M 174.882632 247.023559 
" clip-path="url(#p31400532d2)" style="fill: none; stroke: #000000; stroke-width: 1.5; stroke-linecap: square"/>
    <defs>
     <path id="m0f93ad40f5" d="M -12 12 
L 12 -12 
M -12 -12 
L 12 12 
" style="stroke: #000000"/>
    </defs>
    <g clip-path="url(#p31400532d2)">
     <use xlink:href="#m0f93ad40f5" x="174.882632" y="247.023559" style="stroke: #000000"/>
    </g>
   </g>
   <g id="line2d_49">
    <defs>
     <path id="m0bf08f7e09" d="M 0 1.5 
C 0.397805 1.5 0.77937 1.341951 1.06066 1.06066 
C 1.341951 0.77937 1.5 0.397805 1.5 0 
C 1.5 -0.397805 1.341951 -0.77937 1.06066 -1.06066 
C 0.77937 -1.341951 0.397805 -1.5 0 -1.5 
C -0.397805 -1.5 -0.77937 -1.341951 -1.06066 -1.06066 
C -1.341951 -0.77937 -1.5 -0.397805 -1.5 0 
C -1.5 0.397805 -1.341951 0.77937 -1.06066 1.06066 
C -0.77937 1.341951 -0.397805 1.5 0 1.5 
z
" style="stroke: #ff0000"/>
    </defs>
    <g>
     <use xlink:href="#m0bf08f7e09" x="158.241064" y="275.088662" style="fill: #ff0000; stroke: #ff0000"/>
     <use xlink:href="#m0bf08f7e09" x="158.241064" y="275.088662" style="fill: #ff0000; stroke: #ff0000"/>
    </g>
   </g>
   <g id="line2d_50">
    <path d="M 1.245626 298.944 
L 1.245626 286.314703 
L 97.857967 286.314703 
L 97.857967 285.3792 
L 99.950294 285.3792 
L 99.950294 284.911448 
L 114.961559 284.911448 
L 114.961559 284.443697 
L 118.817362 284.443697 
L 118.817362 283.975945 
L 119.034004 283.975945 
L 119.034004 283.508193 
L 121.644403 283.508193 
L 121.644403 283.040441 
L 127.686077 283.040441 
L 127.686077 282.57269 
L 136.083243 282.57269 
L 136.083243 282.104938 
L 141.195285 282.104938 
L 141.195285 281.169434 
L 141.458695 281.169434 
L 141.458695 280.701683 
L 143.705836 280.701683 
L 143.705836 280.233931 
L 145.564597 280.233931 
L 145.564597 279.298428 
L 147.714939 279.298428 
L 147.714939 278.830676 
L 149.331557 278.830676 
L 149.331557 278.362924 
L 150.221009 278.362924 
L 150.221009 277.895172 
L 153.229954 277.895172 
L 153.229954 277.427421 
L 155.098517 277.427421 
L 155.098517 276.959669 
L 156.725657 276.959669 
L 156.725657 276.491917 
L 157.493969 276.491917 
L 157.493969 276.024166 
L 157.907629 276.024166 
L 157.907629 275.556414 
L 158.241064 275.556414 
L 158.241064 275.088662 
L 360.8064 275.088662 
" style="fill: none; stroke: #ff0000; stroke-width: 1.5; stroke-linecap: square"/>
   </g>
   <g id="line2d_51">
    <defs>
     <path id="mad0940c19d" d="M -6 6 
L 6 6 
L 6 -6 
L -6 -6 
z
" style="stroke: #ff0000; stroke-width: 1.5; stroke-linejoin: miter"/>
    </defs>
    <g>
     <use xlink:href="#mad0940c19d" x="127.686077" y="282.57269" style="fill-opacity: 0; stroke: #ff0000; stroke-width: 1.5; stroke-linejoin: miter"/>
     <use xlink:href="#mad0940c19d" x="158.241064" y="275.556414" style="fill-opacity: 0; stroke: #ff0000; stroke-width: 1.5; stroke-linejoin: miter"/>
     <use xlink:href="#mad0940c19d" x="158.241064" y="275.088662" style="fill-opacity: 0; stroke: #ff0000; stroke-width: 1.5; stroke-linejoin: miter"/>
     <use xlink:href="#mad0940c19d" x="158.241064" y="275.088662" style="fill-opacity: 0; stroke: #ff0000; stroke-width: 1.5; stroke-linejoin: miter"/>
     <use xlink:href="#mad0940c19d" x="360.8064" y="275.088662" style="fill-opacity: 0; stroke: #ff0000; stroke-width: 1.5; stroke-linejoin: miter"/>
    </g>
   </g>
   <g id="line2d_52">
    <path style="fill: none; stroke: #ff0000; stroke-width: 1.5; stroke-linecap: square"/>
    <g/>
   </g>
   <g id="line2d_53">
    <path d="M 161.843457 275.088662 
" clip-path="url(#p31400532d2)" style="fill: none; stroke: #ff0000; stroke-width: 1.5; stroke-linecap: square"/>
    <defs>
     <path id="m1b8ace11d5" d="M -12 12 
L 12 -12 
M -12 -12 
L 12 12 
" style="stroke: #ff0000"/>
    </defs>
    <g clip-path="url(#p31400532d2)">
     <use xlink:href="#m1b8ace11d5" x="161.843457" y="275.088662" style="fill: #ff0000; stroke: #ff0000"/>
    </g>
   </g>
   <g id="line2d_54">
    <defs>
     <path id="m888655bf67" d="M 0 1.5 
C 0.397805 1.5 0.77937 1.341951 1.06066 1.06066 
C 1.341951 0.77937 1.5 0.397805 1.5 0 
C 1.5 -0.397805 1.341951 -0.77937 1.06066 -1.06066 
C 0.77937 -1.341951 0.397805 -1.5 0 -1.5 
C -0.397805 -1.5 -0.77937 -1.341951 -1.06066 -1.06066 
C -1.341951 -0.77937 -1.5 -0.397805 -1.5 0 
C -1.5 0.397805 -1.341951 0.77937 -1.06066 1.06066 
C -0.77937 1.341951 -0.397805 1.5 0 1.5 
z
" style="stroke: #bf00bf"/>
    </defs>
    <g>
     <use xlink:href="#m888655bf67" x="108.605229" y="289.121214" style="fill: #bf00bf; stroke: #bf00bf"/>
     <use xlink:href="#m888655bf67" x="108.605229" y="289.121214" style="fill: #bf00bf; stroke: #bf00bf"/>
    </g>
   </g>
   <g id="line2d_55">
    <path d="M -1 289.588966 
L 108.605229 289.588966 
L 108.605229 289.121214 
L 360.8064 289.121214 
" style="fill: none; stroke: #bf00bf; stroke-width: 1.5; stroke-linecap: square"/>
   </g>
   <g id="line2d_56">
    <defs>
     <path id="m454a24183c" d="M 0 8.485281 
L 8.485281 0 
L 0 -8.485281 
L -8.485281 0 
z
" style="stroke: #bf00bf; stroke-width: 1.5; stroke-linejoin: miter"/>
    </defs>
    <g>
     <use xlink:href="#m454a24183c" x="108.605229" y="289.588966" style="fill-opacity: 0; stroke: #bf00bf; stroke-width: 1.5; stroke-linejoin: miter"/>
     <use xlink:href="#m454a24183c" x="108.605229" y="289.588966" style="fill-opacity: 0; stroke: #bf00bf; stroke-width: 1.5; stroke-linejoin: miter"/>
     <use xlink:href="#m454a24183c" x="108.605229" y="289.121214" style="fill-opacity: 0; stroke: #bf00bf; stroke-width: 1.5; stroke-linejoin: miter"/>
     <use xlink:href="#m454a24183c" x="108.605229" y="289.121214" style="fill-opacity: 0; stroke: #bf00bf; stroke-width: 1.5; stroke-linejoin: miter"/>
     <use xlink:href="#m454a24183c" x="360.8064" y="289.121214" style="fill-opacity: 0; stroke: #bf00bf; stroke-width: 1.5; stroke-linejoin: miter"/>
    </g>
   </g>
   <g id="line2d_57">
    <path style="fill: none; stroke: #bf00bf; stroke-width: 1.5; stroke-linecap: square"/>
    <g/>
   </g>
   <g id="line2d_58">
    <path d="M 148.804283 289.121214 
" clip-path="url(#p31400532d2)" style="fill: none; stroke: #bf00bf; stroke-width: 1.5; stroke-linecap: square"/>
    <defs>
     <path id="mf5940b7714" d="M -12 12 
L 12 -12 
M -12 -12 
L 12 12 
" style="stroke: #bf00bf"/>
    </defs>
    <g clip-path="url(#p31400532d2)">
     <use xlink:href="#mf5940b7714" x="148.804283" y="289.121214" style="fill: #bf00bf; stroke: #bf00bf"/>
    </g>
   </g>
   <g id="line2d_59">
    <path d="M 360.8064 289.121214 
L 380.514816 293.51808 
" style="fill: none; stroke: #bf00bf; stroke-width: 1.5; stroke-linecap: square"/>
    <g>
     <use xlink:href="#m454a24183c" x="360.8064" y="289.121214" style="fill-opacity: 0; stroke: #bf00bf; stroke-width: 1.5; stroke-linejoin: miter"/>
     <use xlink:href="#m454a24183c" x="380.514816" y="293.51808" style="fill-opacity: 0; stroke: #bf00bf; stroke-width: 1.5; stroke-linejoin: miter"/>
    </g>
   </g>
   <g id="line2d_60">
    <path d="M 360.8064 275.088662 
L 380.514816 241.429248 
" style="fill: none; stroke: #ff0000; stroke-width: 1.5; stroke-linecap: square"/>
    <g>
     <use xlink:href="#mad0940c19d" x="360.8064" y="275.088662" style="fill-opacity: 0; stroke: #ff0000; stroke-width: 1.5; stroke-linejoin: miter"/>
     <use xlink:href="#mad0940c19d" x="380.514816" y="241.429248" style="fill-opacity: 0; stroke: #ff0000; stroke-width: 1.5; stroke-linejoin: miter"/>
    </g>
   </g>
   <g id="line2d_61">
    <path d="M 360.8064 247.023559 
L 380.514816 189.340416 
" style="fill: none; stroke: #000000; stroke-width: 1.5; stroke-linecap: square"/>
    <g>
     <use xlink:href="#m6efc8443c1" x="360.8064" y="247.023559" style="fill-opacity: 0; stroke: #000000; stroke-width: 1.5"/>
     <use xlink:href="#m6efc8443c1" x="380.514816" y="189.340416" style="fill-opacity: 0; stroke: #000000; stroke-width: 1.5"/>
    </g>
   </g>
   <g id="line2d_62">
    <path d="M 360.8064 211.942179 
L 380.514816 137.251584 
" style="fill: none; stroke: #0000ff; stroke-width: 1.5; stroke-linecap: square"/>
    <g>
     <use xlink:href="#m525ab07400" x="360.8064" y="211.942179" style="fill-opacity: 0; stroke: #0000ff; stroke-width: 1.5; stroke-linejoin: bevel"/>
     <use xlink:href="#m525ab07400" x="380.514816" y="137.251584" style="fill-opacity: 0; stroke: #0000ff; stroke-width: 1.5; stroke-linejoin: bevel"/>
    </g>
   </g>
   <g id="line2d_63">
    <path d="M 360.8064 192.764359 
L 380.514816 85.162752 
" style="fill: none; stroke: #008000; stroke-width: 1.5; stroke-linecap: square"/>
    <g>
     <use xlink:href="#m20e9883cb3" x="360.8064" y="192.764359" style="fill-opacity: 0; stroke: #008000; stroke-width: 1.5; stroke-linejoin: miter"/>
     <use xlink:href="#m20e9883cb3" x="380.514816" y="85.162752" style="fill-opacity: 0; stroke: #008000; stroke-width: 1.5; stroke-linejoin: miter"/>
    </g>
   </g>
   <g id="line2d_64">
    <path d="M 360.8064 155.811972 
L 380.514816 33.07392 
" style="fill: none; stroke: #00bfbf; stroke-width: 1.5; stroke-linecap: square"/>
    <g>
     <use xlink:href="#mb4a6bdc671" x="360.8064" y="155.811972" style="fill-opacity: 0; stroke: #00bfbf; stroke-width: 1.5"/>
     <use xlink:href="#mb4a6bdc671" x="380.514816" y="33.07392" style="fill-opacity: 0; stroke: #00bfbf; stroke-width: 1.5"/>
    </g>
   </g>
   <g id="line2d_65">
    <path d="M 360.8064 298.944 
L 360.8064 27.648 
" style="fill: none; stroke: #000000; stroke-width: 1.5; stroke-linecap: square"/>
   </g>
   <g id="patch_3">
    <path d="M 57.6 298.944 
L 360.8064 298.944 
" style="fill: none; stroke: #000000; stroke-width: 0.8; stroke-linejoin: miter; stroke-linecap: square"/>
   </g>
   <g id="patch_4">
    <path d="M 57.6 27.648 
L 360.8064 27.648 
" style="fill: none; stroke: #000000; stroke-width: 0.8; stroke-linejoin: miter; stroke-linecap: square"/>
   </g>
   <g id="text_13">
    <!-- 40-D -->
    <g transform="translate(386.578944 297.381205)scale(0.14 -0.14)">
     <defs>
      <path id="DejaVuSans-44" d="M 1259 4147 
L 1259 519 
L 2022 519 
Q 2988 519 3436 956 
Q 3884 1394 3884 2338 
Q 3884 3275 3436 3711 
Q 2988 4147 2022 4147 
L 1259 4147 
z
M 628 4666 
L 1925 4666 
Q 3281 4666 3915 4102 
Q 4550 3538 4550 2338 
Q 4550 1131 3912 565 
Q 3275 0 1925 0 
L 628 0 
L 628 4666 
z
" transform="scale(0.015625)"/>
     </defs>
     <use xlink:href="#DejaVuSans-34"/>
     <use xlink:href="#DejaVuSans-30" x="63.623047"/>
     <use xlink:href="#DejaVuSans-2d" x="127.246094"/>
     <use xlink:href="#DejaVuSans-44" x="163.330078"/>
    </g>
   </g>
   <g id="text_14">
    <!-- 20-D -->
    <g transform="translate(386.578944 245.292373)scale(0.14 -0.14)">
     <use xlink:href="#DejaVuSans-32"/>
     <use xlink:href="#DejaVuSans-30" x="63.623047"/>
     <use xlink:href="#DejaVuSans-2d" x="127.246094"/>
     <use xlink:href="#DejaVuSans-44" x="163.330078"/>
    </g>
   </g>
   <g id="text_15">
    <!-- 10-D -->
    <g transform="translate(386.578944 193.203541)scale(0.14 -0.14)">
     <use xlink:href="#DejaVuSans-31"/>
     <use xlink:href="#DejaVuSans-30" x="63.623047"/>
     <use xlink:href="#DejaVuSans-2d" x="127.246094"/>
     <use xlink:href="#DejaVuSans-44" x="163.330078"/>
    </g>
   </g>
   <g id="text_16">
    <!-- 5-D -->
    <g transform="translate(386.578944 141.114709)scale(0.14 -0.14)">
     <defs>
      <path id="DejaVuSans-35" d="M 691 4666 
L 3169 4666 
L 3169 4134 
L 1269 4134 
L 1269 2991 
Q 1406 3038 1543 3061 
Q 1681 3084 1819 3084 
Q 2600 3084 3056 2656 
Q 3513 2228 3513 1497 
Q 3513 744 3044 326 
Q 2575 -91 1722 -91 
Q 1428 -91 1123 -41 
Q 819 9 494 109 
L 494 744 
Q 775 591 1075 516 
Q 1375 441 1709 441 
Q 2250 441 2565 725 
Q 2881 1009 2881 1497 
Q 2881 1984 2565 2268 
Q 2250 2553 1709 2553 
Q 1456 2553 1204 2497 
Q 953 2441 691 2322 
L 691 4666 
z
" transform="scale(0.015625)"/>
     </defs>
     <use xlink:href="#DejaVuSans-35"/>
     <use xlink:href="#DejaVuSans-2d" x="63.623047"/>
     <use xlink:href="#DejaVuSans-44" x="99.707031"/>
    </g>
   </g>
   <g id="text_17">
    <!-- 3-D -->
    <g transform="translate(386.578944 89.025877)scale(0.14 -0.14)">
     <defs>
      <path id="DejaVuSans-33" d="M 2597 2516 
Q 3050 2419 3304 2112 
Q 3559 1806 3559 1356 
Q 3559 666 3084 287 
Q 2609 -91 1734 -91 
Q 1441 -91 1130 -33 
Q 819 25 488 141 
L 488 750 
Q 750 597 1062 519 
Q 1375 441 1716 441 
Q 2309 441 2620 675 
Q 2931 909 2931 1356 
Q 2931 1769 2642 2001 
Q 2353 2234 1838 2234 
L 1294 2234 
L 1294 2753 
L 1863 2753 
Q 2328 2753 2575 2939 
Q 2822 3125 2822 3475 
Q 2822 3834 2567 4026 
Q 2313 4219 1838 4219 
Q 1578 4219 1281 4162 
Q 984 4106 628 3988 
L 628 4550 
Q 988 4650 1302 4700 
Q 1616 4750 1894 4750 
Q 2613 4750 3031 4423 
Q 3450 4097 3450 3541 
Q 3450 3153 3228 2886 
Q 3006 2619 2597 2516 
z
" transform="scale(0.015625)"/>
     </defs>
     <use xlink:href="#DejaVuSans-33"/>
     <use xlink:href="#DejaVuSans-2d" x="63.623047"/>
     <use xlink:href="#DejaVuSans-44" x="99.707031"/>
    </g>
   </g>
   <g id="text_18">
    <!-- 2-D -->
    <g transform="translate(386.578944 36.937045)scale(0.14 -0.14)">
     <use xlink:href="#DejaVuSans-32"/>
     <use xlink:href="#DejaVuSans-2d" x="63.623047"/>
     <use xlink:href="#DejaVuSans-44" x="99.707031"/>
    </g>
   </g>
   <g id="text_19">
    <!-- bbob-biobj f11 -->
    <g transform="translate(60.632064 38.111366)scale(0.102 -0.102)">
     <defs>
      <path id="DejaVuSans-62" d="M 3116 1747 
Q 3116 2381 2855 2742 
Q 2594 3103 2138 3103 
Q 1681 3103 1420 2742 
Q 1159 2381 1159 1747 
Q 1159 1113 1420 752 
Q 1681 391 2138 391 
Q 2594 391 2855 752 
Q 3116 1113 3116 1747 
z
M 1159 2969 
Q 1341 3281 1617 3432 
Q 1894 3584 2278 3584 
Q 2916 3584 3314 3078 
Q 3713 2572 3713 1747 
Q 3713 922 3314 415 
Q 2916 -91 2278 -91 
Q 1894 -91 1617 61 
Q 1341 213 1159 525 
L 1159 0 
L 581 0 
L 581 4863 
L 1159 4863 
L 1159 2969 
z
" transform="scale(0.015625)"/>
      <path id="DejaVuSans-6a" d="M 603 3500 
L 1178 3500 
L 1178 -63 
Q 1178 -731 923 -1031 
Q 669 -1331 103 -1331 
L -116 -1331 
L -116 -844 
L 38 -844 
Q 366 -844 484 -692 
Q 603 -541 603 -63 
L 603 3500 
z
M 603 4863 
L 1178 4863 
L 1178 4134 
L 603 4134 
L 603 4863 
z
" transform="scale(0.015625)"/>
     </defs>
     <use xlink:href="#DejaVuSans-62"/>
     <use xlink:href="#DejaVuSans-62" x="63.476562"/>
     <use xlink:href="#DejaVuSans-6f" x="126.953125"/>
     <use xlink:href="#DejaVuSans-62" x="188.134766"/>
     <use xlink:href="#DejaVuSans-2d" x="251.611328"/>
     <use xlink:href="#DejaVuSans-62" x="287.695312"/>
     <use xlink:href="#DejaVuSans-69" x="351.171875"/>
     <use xlink:href="#DejaVuSans-6f" x="378.955078"/>
     <use xlink:href="#DejaVuSans-62" x="440.136719"/>
     <use xlink:href="#DejaVuSans-6a" x="503.613281"/>
     <use xlink:href="#DejaVuSans-20" x="531.396484"/>
     <use xlink:href="#DejaVuSans-66" x="563.183594"/>
     <use xlink:href="#DejaVuSans-31" x="598.388672"/>
     <use xlink:href="#DejaVuSans-31" x="662.011719"/>
    </g>
    <!-- 58 targets: 1..-1.0e-4 -->
    <g transform="translate(60.632064 49.533135)scale(0.102 -0.102)">
     <defs>
      <path id="DejaVuSans-3a" d="M 750 794 
L 1409 794 
L 1409 0 
L 750 0 
L 750 794 
z
M 750 3309 
L 1409 3309 
L 1409 2516 
L 750 2516 
L 750 3309 
z
" transform="scale(0.015625)"/>
     </defs>
     <use xlink:href="#DejaVuSans-35"/>
     <use xlink:href="#DejaVuSans-38" x="63.623047"/>
     <use xlink:href="#DejaVuSans-20" x="127.246094"/>
     <use xlink:href="#DejaVuSans-74" x="159.033203"/>
     <use xlink:href="#DejaVuSans-61" x="198.242188"/>
     <use xlink:href="#DejaVuSans-72" x="259.521484"/>
     <use xlink:href="#DejaVuSans-67" x="298.884766"/>
     <use xlink:href="#DejaVuSans-65" x="362.361328"/>
     <use xlink:href="#DejaVuSans-74" x="423.884766"/>
     <use xlink:href="#DejaVuSans-73" x="463.09375"/>
     <use xlink:href="#DejaVuSans-3a" x="515.193359"/>
     <use xlink:href="#DejaVuSans-20" x="548.884766"/>
     <use xlink:href="#DejaVuSans-31" x="580.671875"/>
     <use xlink:href="#DejaVuSans-2e" x="644.294922"/>
     <use xlink:href="#DejaVuSans-2e" x="676.082031"/>
     <use xlink:href="#DejaVuSans-2d" x="707.869141"/>
     <use xlink:href="#DejaVuSans-31" x="743.953125"/>
     <use xlink:href="#DejaVuSans-2e" x="807.576172"/>
     <use xlink:href="#DejaVuSans-30" x="839.363281"/>
     <use xlink:href="#DejaVuSans-65" x="902.986328"/>
     <use xlink:href="#DejaVuSans-2d" x="964.509766"/>
     <use xlink:href="#DejaVuSans-34" x="1000.59375"/>
    </g>
    <!-- 10 instances -->
    <g transform="translate(60.632064 60.954904)scale(0.102 -0.102)">
     <use xlink:href="#DejaVuSans-31"/>
     <use xlink:href="#DejaVuSans-30" x="63.623047"/>
     <use xlink:href="#DejaVuSans-20" x="127.246094"/>
     <use xlink:href="#DejaVuSans-69" x="159.033203"/>
     <use xlink:href="#DejaVuSans-6e" x="186.816406"/>
     <use xlink:href="#DejaVuSans-73" x="250.195312"/>
     <use xlink:href="#DejaVuSans-74" x="302.294922"/>
     <use xlink:href="#DejaVuSans-61" x="341.503906"/>
     <use xlink:href="#DejaVuSans-6e" x="402.783203"/>
     <use xlink:href="#DejaVuSans-63" x="466.162109"/>
     <use xlink:href="#DejaVuSans-65" x="521.142578"/>
     <use xlink:href="#DejaVuSans-73" x="582.666016"/>
    </g>
   </g>
   <g id="text_20">
    <!-- v2.6, hv-hash=ff0e71e8cd978373 -->
    <g style="fill: #808080" transform="translate(123.707887 294.151352)scale(0.1 -0.1)">
     <defs>
      <path id="DejaVuSans-68" d="M 3513 2113 
L 3513 0 
L 2938 0 
L 2938 2094 
Q 2938 2591 2744 2837 
Q 2550 3084 2163 3084 
Q 1697 3084 1428 2787 
Q 1159 2491 1159 1978 
L 1159 0 
L 581 0 
L 581 4863 
L 1159 4863 
L 1159 2956 
Q 1366 3272 1645 3428 
Q 1925 3584 2291 3584 
Q 2894 3584 3203 3211 
Q 3513 2838 3513 2113 
z
" transform="scale(0.015625)"/>
      <path id="DejaVuSans-3d" d="M 678 2906 
L 4684 2906 
L 4684 2381 
L 678 2381 
L 678 2906 
z
M 678 1631 
L 4684 1631 
L 4684 1100 
L 678 1100 
L 678 1631 
z
" transform="scale(0.015625)"/>
      <path id="DejaVuSans-37" d="M 525 4666 
L 3525 4666 
L 3525 4397 
L 1831 0 
L 1172 0 
L 2766 4134 
L 525 4134 
L 525 4666 
z
" transform="scale(0.015625)"/>
      <path id="DejaVuSans-39" d="M 703 97 
L 703 672 
Q 941 559 1184 500 
Q 1428 441 1663 441 
Q 2288 441 2617 861 
Q 2947 1281 2994 2138 
Q 2813 1869 2534 1725 
Q 2256 1581 1919 1581 
Q 1219 1581 811 2004 
Q 403 2428 403 3163 
Q 403 3881 828 4315 
Q 1253 4750 1959 4750 
Q 2769 4750 3195 4129 
Q 3622 3509 3622 2328 
Q 3622 1225 3098 567 
Q 2575 -91 1691 -91 
Q 1453 -91 1209 -44 
Q 966 3 703 97 
z
M 1959 2075 
Q 2384 2075 2632 2365 
Q 2881 2656 2881 3163 
Q 2881 3666 2632 3958 
Q 2384 4250 1959 4250 
Q 1534 4250 1286 3958 
Q 1038 3666 1038 3163 
Q 1038 2656 1286 2365 
Q 1534 2075 1959 2075 
z
" transform="scale(0.015625)"/>
     </defs>
     <use xlink:href="#DejaVuSans-76"/>
     <use xlink:href="#DejaVuSans-32" x="59.179688"/>
     <use xlink:href="#DejaVuSans-2e" x="122.802734"/>
     <use xlink:href="#DejaVuSans-36" x="154.589844"/>
     <use xlink:href="#DejaVuSans-2c" x="218.212891"/>
     <use xlink:href="#DejaVuSans-20" x="250"/>
     <use xlink:href="#DejaVuSans-68" x="281.787109"/>
     <use xlink:href="#DejaVuSans-76" x="345.166016"/>
     <use xlink:href="#DejaVuSans-2d" x="401.720703"/>
     <use xlink:href="#DejaVuSans-68" x="437.804688"/>
     <use xlink:href="#DejaVuSans-61" x="501.183594"/>
     <use xlink:href="#DejaVuSans-73" x="562.462891"/>
     <use xlink:href="#DejaVuSans-68" x="614.5625"/>
     <use xlink:href="#DejaVuSans-3d" x="677.941406"/>
     <use xlink:href="#DejaVuSans-66" x="761.730469"/>
     <use xlink:href="#DejaVuSans-66" x="796.935547"/>
     <use xlink:href="#DejaVuSans-30" x="832.140625"/>
     <use xlink:href="#DejaVuSans-65" x="895.763672"/>
     <use xlink:href="#DejaVuSans-37" x="957.287109"/>
     <use xlink:href="#DejaVuSans-31" x="1020.910156"/>
     <use xlink:href="#DejaVuSans-65" x="1084.533203"/>
     <use xlink:href="#DejaVuSans-38" x="1146.056641"/>
     <use xlink:href="#DejaVuSans-63" x="1209.679688"/>
     <use xlink:href="#DejaVuSans-64" x="1264.660156"/>
     <use xlink:href="#DejaVuSans-39" x="1328.136719"/>
     <use xlink:href="#DejaVuSans-37" x="1391.759766"/>
     <use xlink:href="#DejaVuSans-38" x="1455.382812"/>
     <use xlink:href="#DejaVuSans-33" x="1519.005859"/>
     <use xlink:href="#DejaVuSans-37" x="1582.628906"/>
     <use xlink:href="#DejaVuSans-33" x="1646.251953"/>
    </g>
   </g>
   <g id="text_21">
    <!-- 11 sep. Ellipsoid/sep. Elli. -->
    <g transform="translate(82.50945 21.648)scale(0.2 -0.2)">
     <defs>
      <path id="DejaVuSans-45" d="M 628 4666 
L 3578 4666 
L 3578 4134 
L 1259 4134 
L 1259 2753 
L 3481 2753 
L 3481 2222 
L 1259 2222 
L 1259 531 
L 3634 531 
L 3634 0 
L 628 0 
L 628 4666 
z
" transform="scale(0.015625)"/>
     </defs>
     <use xlink:href="#DejaVuSans-31"/>
     <use xlink:href="#DejaVuSans-31" x="63.623047"/>
     <use xlink:href="#DejaVuSans-20" x="127.246094"/>
     <use xlink:href="#DejaVuSans-73" x="159.033203"/>
     <use xlink:href="#DejaVuSans-65" x="211.132812"/>
     <use xlink:href="#DejaVuSans-70" x="272.65625"/>
     <use xlink:href="#DejaVuSans-2e" x="336.132812"/>
     <use xlink:href="#DejaVuSans-20" x="367.919922"/>
     <use xlink:href="#DejaVuSans-45" x="399.707031"/>
     <use xlink:href="#DejaVuSans-6c" x="462.890625"/>
     <use xlink:href="#DejaVuSans-6c" x="490.673828"/>
     <use xlink:href="#DejaVuSans-69" x="518.457031"/>
     <use xlink:href="#DejaVuSans-70" x="546.240234"/>
     <use xlink:href="#DejaVuSans-73" x="609.716797"/>
     <use xlink:href="#DejaVuSans-6f" x="661.816406"/>
     <use xlink:href="#DejaVuSans-69" x="722.998047"/>
     <use xlink:href="#DejaVuSans-64" x="750.78125"/>
     <use xlink:href="#DejaVuSans-2f" x="814.257812"/>
     <use xlink:href="#DejaVuSans-73" x="847.949219"/>
     <use xlink:href="#DejaVuSans-65" x="900.048828"/>
     <use xlink:href="#DejaVuSans-70" x="961.572266"/>
     <use xlink:href="#DejaVuSans-2e" x="1025.048828"/>
     <use xlink:href="#DejaVuSans-20" x="1056.835938"/>
     <use xlink:href="#DejaVuSans-45" x="1088.623047"/>
     <use xlink:href="#DejaVuSans-6c" x="1151.806641"/>
     <use xlink:href="#DejaVuSans-6c" x="1179.589844"/>
     <use xlink:href="#DejaVuSans-69" x="1207.373047"/>
     <use xlink:href="#DejaVuSans-2e" x="1235.15625"/>
    </g>
   </g>
  </g>
 </g>
 <defs>
  <clipPath id="p31400532d2">
   <rect x="57.6" y="27.648" width="303.2064" height="271.296"/>
  </clipPath>
 </defs>
</svg>
