<?xml version="1.0" encoding="utf-8" standalone="no"?>
<!DOCTYPE svg PUBLIC "-//W3C//DTD SVG 1.1//EN"
  "http://www.w3.org/Graphics/SVG/1.1/DTD/svg11.dtd">
<svg xmlns:xlink="http://www.w3.org/1999/xlink" width="460.8pt" height="345.6pt" viewBox="0 0 460.8 345.6" xmlns="http://www.w3.org/2000/svg" version="1.1">
 <metadata>
  <rdf:RDF xmlns:dc="http://purl.org/dc/elements/1.1/" xmlns:cc="http://creativecommons.org/ns#" xmlns:rdf="http://www.w3.org/1999/02/22-rdf-syntax-ns#">
   <cc:Work>
    <dc:type rdf:resource="http://purl.org/dc/dcmitype/StillImage"/>
    <dc:date>2022-06-19T17:22:29.967684</dc:date>
    <dc:format>image/svg+xml</dc:format>
    <dc:creator>
     <cc:Agent>
      <dc:title>Matplotlib v3.5.2, https://matplotlib.org/</dc:title>
     </cc:Agent>
    </dc:creator>
   </cc:Work>
  </rdf:RDF>
 </metadata>
 <defs>
  <style type="text/css">*{stroke-linejoin: round; stroke-linecap: butt}</style>
 </defs>
 <g id="figure_1">
  <g id="patch_1">
   <path d="M 0 345.6 
L 460.8 345.6 
L 460.8 0 
L 0 0 
z
" style="fill: #ffffff"/>
  </g>
  <g id="axes_1">
   <g id="patch_2">
    <path d="M 57.6 298.944 
L 360.8064 298.944 
L 360.8064 6.912 
L 57.6 6.912 
z
" style="fill: #ffffff"/>
   </g>
   <g id="matplotlib.axis_1">
    <g id="xtick_1">
     <g id="line2d_1">
      <path d="M 57.6 298.944 
L 57.6 6.912 
" clip-path="url(#p1ff4512183)" style="fill: none; stroke: #b0b0b0; stroke-width: 0.8; stroke-linecap: square"/>
     </g>
     <g id="line2d_2">
      <defs>
       <path id="m86288b24e6" d="M 0 0 
L 0 3.5 
" style="stroke: #000000; stroke-width: 0.8"/>
      </defs>
      <g>
       <use xlink:href="#m86288b24e6" x="57.6" y="298.944" style="stroke: #000000; stroke-width: 0.8"/>
      </g>
     </g>
     <g id="text_1">
      <!-- 0 -->
      <g transform="translate(52.191875 318.861344)scale(0.17 -0.17)">
       <defs>
        <path id="DejaVuSans-30" d="M 2034 4250 
Q 1547 4250 1301 3770 
Q 1056 3291 1056 2328 
Q 1056 1369 1301 889 
Q 1547 409 2034 409 
Q 2525 409 2770 889 
Q 3016 1369 3016 2328 
Q 3016 3291 2770 3770 
Q 2525 4250 2034 4250 
z
M 2034 4750 
Q 2819 4750 3233 4129 
Q 3647 3509 3647 2328 
Q 3647 1150 3233 529 
Q 2819 -91 2034 -91 
Q 1250 -91 836 529 
Q 422 1150 422 2328 
Q 422 3509 836 4129 
Q 1250 4750 2034 4750 
z
" transform="scale(0.015625)"/>
       </defs>
       <use xlink:href="#DejaVuSans-30"/>
      </g>
     </g>
    </g>
    <g id="xtick_2">
     <g id="line2d_3">
      <path d="M 144.2304 298.944 
L 144.2304 6.912 
" clip-path="url(#p1ff4512183)" style="fill: none; stroke: #b0b0b0; stroke-width: 0.8; stroke-linecap: square"/>
     </g>
     <g id="line2d_4">
      <g>
       <use xlink:href="#m86288b24e6" x="144.2304" y="298.944" style="stroke: #000000; stroke-width: 0.8"/>
      </g>
     </g>
     <g id="text_2">
      <!-- 2 -->
      <g transform="translate(138.822275 318.861344)scale(0.17 -0.17)">
       <defs>
        <path id="DejaVuSans-32" d="M 1228 531 
L 3431 531 
L 3431 0 
L 469 0 
L 469 531 
Q 828 903 1448 1529 
Q 2069 2156 2228 2338 
Q 2531 2678 2651 2914 
Q 2772 3150 2772 3378 
Q 2772 3750 2511 3984 
Q 2250 4219 1831 4219 
Q 1534 4219 1204 4116 
Q 875 4013 500 3803 
L 500 4441 
Q 881 4594 1212 4672 
Q 1544 4750 1819 4750 
Q 2544 4750 2975 4387 
Q 3406 4025 3406 3419 
Q 3406 3131 3298 2873 
Q 3191 2616 2906 2266 
Q 2828 2175 2409 1742 
Q 1991 1309 1228 531 
z
" transform="scale(0.015625)"/>
       </defs>
       <use xlink:href="#DejaVuSans-32"/>
      </g>
     </g>
    </g>
    <g id="xtick_3">
     <g id="line2d_5">
      <path d="M 230.8608 298.944 
L 230.8608 6.912 
" clip-path="url(#p1ff4512183)" style="fill: none; stroke: #b0b0b0; stroke-width: 0.8; stroke-linecap: square"/>
     </g>
     <g id="line2d_6">
      <g>
       <use xlink:href="#m86288b24e6" x="230.8608" y="298.944" style="stroke: #000000; stroke-width: 0.8"/>
      </g>
     </g>
     <g id="text_3">
      <!-- 4 -->
      <g transform="translate(225.452675 318.861344)scale(0.17 -0.17)">
       <defs>
        <path id="DejaVuSans-34" d="M 2419 4116 
L 825 1625 
L 2419 1625 
L 2419 4116 
z
M 2253 4666 
L 3047 4666 
L 3047 1625 
L 3713 1625 
L 3713 1100 
L 3047 1100 
L 3047 0 
L 2419 0 
L 2419 1100 
L 313 1100 
L 313 1709 
L 2253 4666 
z
" transform="scale(0.015625)"/>
       </defs>
       <use xlink:href="#DejaVuSans-34"/>
      </g>
     </g>
    </g>
    <g id="xtick_4">
     <g id="line2d_7">
      <path d="M 317.4912 298.944 
L 317.4912 6.912 
" clip-path="url(#p1ff4512183)" style="fill: none; stroke: #b0b0b0; stroke-width: 0.8; stroke-linecap: square"/>
     </g>
     <g id="line2d_8">
      <g>
       <use xlink:href="#m86288b24e6" x="317.4912" y="298.944" style="stroke: #000000; stroke-width: 0.8"/>
      </g>
     </g>
     <g id="text_4">
      <!-- 6 -->
      <g transform="translate(312.083075 318.861344)scale(0.17 -0.17)">
       <defs>
        <path id="DejaVuSans-36" d="M 2113 2584 
Q 1688 2584 1439 2293 
Q 1191 2003 1191 1497 
Q 1191 994 1439 701 
Q 1688 409 2113 409 
Q 2538 409 2786 701 
Q 3034 994 3034 1497 
Q 3034 2003 2786 2293 
Q 2538 2584 2113 2584 
z
M 3366 4563 
L 3366 3988 
Q 3128 4100 2886 4159 
Q 2644 4219 2406 4219 
Q 1781 4219 1451 3797 
Q 1122 3375 1075 2522 
Q 1259 2794 1537 2939 
Q 1816 3084 2150 3084 
Q 2853 3084 3261 2657 
Q 3669 2231 3669 1497 
Q 3669 778 3244 343 
Q 2819 -91 2113 -91 
Q 1303 -91 875 529 
Q 447 1150 447 2328 
Q 447 3434 972 4092 
Q 1497 4750 2381 4750 
Q 2619 4750 2861 4703 
Q 3103 4656 3366 4563 
z
" transform="scale(0.015625)"/>
       </defs>
       <use xlink:href="#DejaVuSans-36"/>
      </g>
     </g>
    </g>
    <g id="xtick_5">
     <g id="line2d_9">
      <path d="M 100.9152 298.944 
L 100.9152 6.912 
" clip-path="url(#p1ff4512183)" style="fill: none; stroke: #b0b0b0; stroke-width: 0.8; stroke-linecap: square"/>
     </g>
     <g id="line2d_10">
      <defs>
       <path id="m013912fce8" d="M 0 0 
L 0 2 
" style="stroke: #000000; stroke-width: 0.6"/>
      </defs>
      <g>
       <use xlink:href="#m013912fce8" x="100.9152" y="298.944" style="stroke: #000000; stroke-width: 0.6"/>
      </g>
     </g>
    </g>
    <g id="xtick_6">
     <g id="line2d_11">
      <path d="M 187.5456 298.944 
L 187.5456 6.912 
" clip-path="url(#p1ff4512183)" style="fill: none; stroke: #b0b0b0; stroke-width: 0.8; stroke-linecap: square"/>
     </g>
     <g id="line2d_12">
      <g>
       <use xlink:href="#m013912fce8" x="187.5456" y="298.944" style="stroke: #000000; stroke-width: 0.6"/>
      </g>
     </g>
    </g>
    <g id="xtick_7">
     <g id="line2d_13">
      <path d="M 274.176 298.944 
L 274.176 6.912 
" clip-path="url(#p1ff4512183)" style="fill: none; stroke: #b0b0b0; stroke-width: 0.8; stroke-linecap: square"/>
     </g>
     <g id="line2d_14">
      <g>
       <use xlink:href="#m013912fce8" x="274.176" y="298.944" style="stroke: #000000; stroke-width: 0.6"/>
      </g>
     </g>
    </g>
    <g id="xtick_8">
     <g id="line2d_15">
      <path d="M 360.8064 298.944 
L 360.8064 6.912 
" clip-path="url(#p1ff4512183)" style="fill: none; stroke: #b0b0b0; stroke-width: 0.8; stroke-linecap: square"/>
     </g>
     <g id="line2d_16">
      <g>
       <use xlink:href="#m013912fce8" x="360.8064" y="298.944" style="stroke: #000000; stroke-width: 0.6"/>
      </g>
     </g>
    </g>
    <g id="text_5">
     <!-- log10(# f-evals / dimension) -->
     <g transform="translate(88.823278 339.314156)scale(0.17 -0.17)">
      <defs>
       <path id="DejaVuSans-6c" d="M 603 4863 
L 1178 4863 
L 1178 0 
L 603 0 
L 603 4863 
z
" transform="scale(0.015625)"/>
       <path id="DejaVuSans-6f" d="M 1959 3097 
Q 1497 3097 1228 2736 
Q 959 2375 959 1747 
Q 959 1119 1226 758 
Q 1494 397 1959 397 
Q 2419 397 2687 759 
Q 2956 1122 2956 1747 
Q 2956 2369 2687 2733 
Q 2419 3097 1959 3097 
z
M 1959 3584 
Q 2709 3584 3137 3096 
Q 3566 2609 3566 1747 
Q 3566 888 3137 398 
Q 2709 -91 1959 -91 
Q 1206 -91 779 398 
Q 353 888 353 1747 
Q 353 2609 779 3096 
Q 1206 3584 1959 3584 
z
" transform="scale(0.015625)"/>
       <path id="DejaVuSans-67" d="M 2906 1791 
Q 2906 2416 2648 2759 
Q 2391 3103 1925 3103 
Q 1463 3103 1205 2759 
Q 947 2416 947 1791 
Q 947 1169 1205 825 
Q 1463 481 1925 481 
Q 2391 481 2648 825 
Q 2906 1169 2906 1791 
z
M 3481 434 
Q 3481 -459 3084 -895 
Q 2688 -1331 1869 -1331 
Q 1566 -1331 1297 -1286 
Q 1028 -1241 775 -1147 
L 775 -588 
Q 1028 -725 1275 -790 
Q 1522 -856 1778 -856 
Q 2344 -856 2625 -561 
Q 2906 -266 2906 331 
L 2906 616 
Q 2728 306 2450 153 
Q 2172 0 1784 0 
Q 1141 0 747 490 
Q 353 981 353 1791 
Q 353 2603 747 3093 
Q 1141 3584 1784 3584 
Q 2172 3584 2450 3431 
Q 2728 3278 2906 2969 
L 2906 3500 
L 3481 3500 
L 3481 434 
z
" transform="scale(0.015625)"/>
       <path id="DejaVuSans-31" d="M 794 531 
L 1825 531 
L 1825 4091 
L 703 3866 
L 703 4441 
L 1819 4666 
L 2450 4666 
L 2450 531 
L 3481 531 
L 3481 0 
L 794 0 
L 794 531 
z
" transform="scale(0.015625)"/>
       <path id="DejaVuSans-28" d="M 1984 4856 
Q 1566 4138 1362 3434 
Q 1159 2731 1159 2009 
Q 1159 1288 1364 580 
Q 1569 -128 1984 -844 
L 1484 -844 
Q 1016 -109 783 600 
Q 550 1309 550 2009 
Q 550 2706 781 3412 
Q 1013 4119 1484 4856 
L 1984 4856 
z
" transform="scale(0.015625)"/>
       <path id="DejaVuSans-23" d="M 3272 2816 
L 2363 2816 
L 2100 1772 
L 3016 1772 
L 3272 2816 
z
M 2803 4594 
L 2478 3297 
L 3391 3297 
L 3719 4594 
L 4219 4594 
L 3897 3297 
L 4872 3297 
L 4872 2816 
L 3775 2816 
L 3519 1772 
L 4513 1772 
L 4513 1294 
L 3397 1294 
L 3072 0 
L 2572 0 
L 2894 1294 
L 1978 1294 
L 1656 0 
L 1153 0 
L 1478 1294 
L 494 1294 
L 494 1772 
L 1594 1772 
L 1856 2816 
L 850 2816 
L 850 3297 
L 1978 3297 
L 2297 4594 
L 2803 4594 
z
" transform="scale(0.015625)"/>
       <path id="DejaVuSans-20" transform="scale(0.015625)"/>
       <path id="DejaVuSans-66" d="M 2375 4863 
L 2375 4384 
L 1825 4384 
Q 1516 4384 1395 4259 
Q 1275 4134 1275 3809 
L 1275 3500 
L 2222 3500 
L 2222 3053 
L 1275 3053 
L 1275 0 
L 697 0 
L 697 3053 
L 147 3053 
L 147 3500 
L 697 3500 
L 697 3744 
Q 697 4328 969 4595 
Q 1241 4863 1831 4863 
L 2375 4863 
z
" transform="scale(0.015625)"/>
       <path id="DejaVuSans-2d" d="M 313 2009 
L 1997 2009 
L 1997 1497 
L 313 1497 
L 313 2009 
z
" transform="scale(0.015625)"/>
       <path id="DejaVuSans-65" d="M 3597 1894 
L 3597 1613 
L 953 1613 
Q 991 1019 1311 708 
Q 1631 397 2203 397 
Q 2534 397 2845 478 
Q 3156 559 3463 722 
L 3463 178 
Q 3153 47 2828 -22 
Q 2503 -91 2169 -91 
Q 1331 -91 842 396 
Q 353 884 353 1716 
Q 353 2575 817 3079 
Q 1281 3584 2069 3584 
Q 2775 3584 3186 3129 
Q 3597 2675 3597 1894 
z
M 3022 2063 
Q 3016 2534 2758 2815 
Q 2500 3097 2075 3097 
Q 1594 3097 1305 2825 
Q 1016 2553 972 2059 
L 3022 2063 
z
" transform="scale(0.015625)"/>
       <path id="DejaVuSans-76" d="M 191 3500 
L 800 3500 
L 1894 563 
L 2988 3500 
L 3597 3500 
L 2284 0 
L 1503 0 
L 191 3500 
z
" transform="scale(0.015625)"/>
       <path id="DejaVuSans-61" d="M 2194 1759 
Q 1497 1759 1228 1600 
Q 959 1441 959 1056 
Q 959 750 1161 570 
Q 1363 391 1709 391 
Q 2188 391 2477 730 
Q 2766 1069 2766 1631 
L 2766 1759 
L 2194 1759 
z
M 3341 1997 
L 3341 0 
L 2766 0 
L 2766 531 
Q 2569 213 2275 61 
Q 1981 -91 1556 -91 
Q 1019 -91 701 211 
Q 384 513 384 1019 
Q 384 1609 779 1909 
Q 1175 2209 1959 2209 
L 2766 2209 
L 2766 2266 
Q 2766 2663 2505 2880 
Q 2244 3097 1772 3097 
Q 1472 3097 1187 3025 
Q 903 2953 641 2809 
L 641 3341 
Q 956 3463 1253 3523 
Q 1550 3584 1831 3584 
Q 2591 3584 2966 3190 
Q 3341 2797 3341 1997 
z
" transform="scale(0.015625)"/>
       <path id="DejaVuSans-73" d="M 2834 3397 
L 2834 2853 
Q 2591 2978 2328 3040 
Q 2066 3103 1784 3103 
Q 1356 3103 1142 2972 
Q 928 2841 928 2578 
Q 928 2378 1081 2264 
Q 1234 2150 1697 2047 
L 1894 2003 
Q 2506 1872 2764 1633 
Q 3022 1394 3022 966 
Q 3022 478 2636 193 
Q 2250 -91 1575 -91 
Q 1294 -91 989 -36 
Q 684 19 347 128 
L 347 722 
Q 666 556 975 473 
Q 1284 391 1588 391 
Q 1994 391 2212 530 
Q 2431 669 2431 922 
Q 2431 1156 2273 1281 
Q 2116 1406 1581 1522 
L 1381 1569 
Q 847 1681 609 1914 
Q 372 2147 372 2553 
Q 372 3047 722 3315 
Q 1072 3584 1716 3584 
Q 2034 3584 2315 3537 
Q 2597 3491 2834 3397 
z
" transform="scale(0.015625)"/>
       <path id="DejaVuSans-2f" d="M 1625 4666 
L 2156 4666 
L 531 -594 
L 0 -594 
L 1625 4666 
z
" transform="scale(0.015625)"/>
       <path id="DejaVuSans-64" d="M 2906 2969 
L 2906 4863 
L 3481 4863 
L 3481 0 
L 2906 0 
L 2906 525 
Q 2725 213 2448 61 
Q 2172 -91 1784 -91 
Q 1150 -91 751 415 
Q 353 922 353 1747 
Q 353 2572 751 3078 
Q 1150 3584 1784 3584 
Q 2172 3584 2448 3432 
Q 2725 3281 2906 2969 
z
M 947 1747 
Q 947 1113 1208 752 
Q 1469 391 1925 391 
Q 2381 391 2643 752 
Q 2906 1113 2906 1747 
Q 2906 2381 2643 2742 
Q 2381 3103 1925 3103 
Q 1469 3103 1208 2742 
Q 947 2381 947 1747 
z
" transform="scale(0.015625)"/>
       <path id="DejaVuSans-69" d="M 603 3500 
L 1178 3500 
L 1178 0 
L 603 0 
L 603 3500 
z
M 603 4863 
L 1178 4863 
L 1178 4134 
L 603 4134 
L 603 4863 
z
" transform="scale(0.015625)"/>
       <path id="DejaVuSans-6d" d="M 3328 2828 
Q 3544 3216 3844 3400 
Q 4144 3584 4550 3584 
Q 5097 3584 5394 3201 
Q 5691 2819 5691 2113 
L 5691 0 
L 5113 0 
L 5113 2094 
Q 5113 2597 4934 2840 
Q 4756 3084 4391 3084 
Q 3944 3084 3684 2787 
Q 3425 2491 3425 1978 
L 3425 0 
L 2847 0 
L 2847 2094 
Q 2847 2600 2669 2842 
Q 2491 3084 2119 3084 
Q 1678 3084 1418 2786 
Q 1159 2488 1159 1978 
L 1159 0 
L 581 0 
L 581 3500 
L 1159 3500 
L 1159 2956 
Q 1356 3278 1631 3431 
Q 1906 3584 2284 3584 
Q 2666 3584 2933 3390 
Q 3200 3197 3328 2828 
z
" transform="scale(0.015625)"/>
       <path id="DejaVuSans-6e" d="M 3513 2113 
L 3513 0 
L 2938 0 
L 2938 2094 
Q 2938 2591 2744 2837 
Q 2550 3084 2163 3084 
Q 1697 3084 1428 2787 
Q 1159 2491 1159 1978 
L 1159 0 
L 581 0 
L 581 3500 
L 1159 3500 
L 1159 2956 
Q 1366 3272 1645 3428 
Q 1925 3584 2291 3584 
Q 2894 3584 3203 3211 
Q 3513 2838 3513 2113 
z
" transform="scale(0.015625)"/>
       <path id="DejaVuSans-29" d="M 513 4856 
L 1013 4856 
Q 1481 4119 1714 3412 
Q 1947 2706 1947 2009 
Q 1947 1309 1714 600 
Q 1481 -109 1013 -844 
L 513 -844 
Q 928 -128 1133 580 
Q 1338 1288 1338 2009 
Q 1338 2731 1133 3434 
Q 928 4138 513 4856 
z
" transform="scale(0.015625)"/>
      </defs>
      <use xlink:href="#DejaVuSans-6c"/>
      <use xlink:href="#DejaVuSans-6f" x="27.783203"/>
      <use xlink:href="#DejaVuSans-67" x="88.964844"/>
      <use xlink:href="#DejaVuSans-31" x="152.441406"/>
      <use xlink:href="#DejaVuSans-30" x="216.064453"/>
      <use xlink:href="#DejaVuSans-28" x="279.6875"/>
      <use xlink:href="#DejaVuSans-23" x="318.701172"/>
      <use xlink:href="#DejaVuSans-20" x="402.490234"/>
      <use xlink:href="#DejaVuSans-66" x="434.277344"/>
      <use xlink:href="#DejaVuSans-2d" x="463.982422"/>
      <use xlink:href="#DejaVuSans-65" x="500.066406"/>
      <use xlink:href="#DejaVuSans-76" x="561.589844"/>
      <use xlink:href="#DejaVuSans-61" x="620.769531"/>
      <use xlink:href="#DejaVuSans-6c" x="682.048828"/>
      <use xlink:href="#DejaVuSans-73" x="709.832031"/>
      <use xlink:href="#DejaVuSans-20" x="761.931641"/>
      <use xlink:href="#DejaVuSans-2f" x="793.71875"/>
      <use xlink:href="#DejaVuSans-20" x="827.410156"/>
      <use xlink:href="#DejaVuSans-64" x="859.197266"/>
      <use xlink:href="#DejaVuSans-69" x="922.673828"/>
      <use xlink:href="#DejaVuSans-6d" x="950.457031"/>
      <use xlink:href="#DejaVuSans-65" x="1047.869141"/>
      <use xlink:href="#DejaVuSans-6e" x="1109.392578"/>
      <use xlink:href="#DejaVuSans-73" x="1172.771484"/>
      <use xlink:href="#DejaVuSans-69" x="1224.871094"/>
      <use xlink:href="#DejaVuSans-6f" x="1252.654297"/>
      <use xlink:href="#DejaVuSans-6e" x="1313.835938"/>
      <use xlink:href="#DejaVuSans-29" x="1377.214844"/>
     </g>
    </g>
   </g>
   <g id="matplotlib.axis_2">
    <g id="ytick_1">
     <g id="line2d_17">
      <path d="M 57.6 298.944 
L 360.8064 298.944 
" clip-path="url(#p1ff4512183)" style="fill: none; stroke: #b0b0b0; stroke-width: 0.8; stroke-linecap: square"/>
     </g>
     <g id="line2d_18">
      <defs>
       <path id="m90766d2cfd" d="M 0 0 
L -3.5 0 
" style="stroke: #000000; stroke-width: 0.8"/>
      </defs>
      <g>
       <use xlink:href="#m90766d2cfd" x="57.6" y="298.944" style="stroke: #000000; stroke-width: 0.8"/>
      </g>
     </g>
     <g id="text_6">
      <!-- 0.0 -->
      <g transform="translate(25.155 305.02275)scale(0.16 -0.16)">
       <defs>
        <path id="DejaVuSans-2e" d="M 684 794 
L 1344 794 
L 1344 0 
L 684 0 
L 684 794 
z
" transform="scale(0.015625)"/>
       </defs>
       <use xlink:href="#DejaVuSans-30"/>
       <use xlink:href="#DejaVuSans-2e" x="63.623047"/>
       <use xlink:href="#DejaVuSans-30" x="95.410156"/>
      </g>
     </g>
    </g>
    <g id="ytick_2">
     <g id="line2d_19">
      <path d="M 57.6 240.5376 
L 360.8064 240.5376 
" clip-path="url(#p1ff4512183)" style="fill: none; stroke: #b0b0b0; stroke-width: 0.8; stroke-linecap: square"/>
     </g>
     <g id="line2d_20">
      <g>
       <use xlink:href="#m90766d2cfd" x="57.6" y="240.5376" style="stroke: #000000; stroke-width: 0.8"/>
      </g>
     </g>
     <g id="text_7">
      <!-- 0.2 -->
      <g transform="translate(25.155 246.61635)scale(0.16 -0.16)">
       <use xlink:href="#DejaVuSans-30"/>
       <use xlink:href="#DejaVuSans-2e" x="63.623047"/>
       <use xlink:href="#DejaVuSans-32" x="95.410156"/>
      </g>
     </g>
    </g>
    <g id="ytick_3">
     <g id="line2d_21">
      <path d="M 57.6 182.1312 
L 360.8064 182.1312 
" clip-path="url(#p1ff4512183)" style="fill: none; stroke: #b0b0b0; stroke-width: 0.8; stroke-linecap: square"/>
     </g>
     <g id="line2d_22">
      <g>
       <use xlink:href="#m90766d2cfd" x="57.6" y="182.1312" style="stroke: #000000; stroke-width: 0.8"/>
      </g>
     </g>
     <g id="text_8">
      <!-- 0.4 -->
      <g transform="translate(25.155 188.20995)scale(0.16 -0.16)">
       <use xlink:href="#DejaVuSans-30"/>
       <use xlink:href="#DejaVuSans-2e" x="63.623047"/>
       <use xlink:href="#DejaVuSans-34" x="95.410156"/>
      </g>
     </g>
    </g>
    <g id="ytick_4">
     <g id="line2d_23">
      <path d="M 57.6 123.7248 
L 360.8064 123.7248 
" clip-path="url(#p1ff4512183)" style="fill: none; stroke: #b0b0b0; stroke-width: 0.8; stroke-linecap: square"/>
     </g>
     <g id="line2d_24">
      <g>
       <use xlink:href="#m90766d2cfd" x="57.6" y="123.7248" style="stroke: #000000; stroke-width: 0.8"/>
      </g>
     </g>
     <g id="text_9">
      <!-- 0.6 -->
      <g transform="translate(25.155 129.80355)scale(0.16 -0.16)">
       <use xlink:href="#DejaVuSans-30"/>
       <use xlink:href="#DejaVuSans-2e" x="63.623047"/>
       <use xlink:href="#DejaVuSans-36" x="95.410156"/>
      </g>
     </g>
    </g>
    <g id="ytick_5">
     <g id="line2d_25">
      <path d="M 57.6 65.3184 
L 360.8064 65.3184 
" clip-path="url(#p1ff4512183)" style="fill: none; stroke: #b0b0b0; stroke-width: 0.8; stroke-linecap: square"/>
     </g>
     <g id="line2d_26">
      <g>
       <use xlink:href="#m90766d2cfd" x="57.6" y="65.3184" style="stroke: #000000; stroke-width: 0.8"/>
      </g>
     </g>
     <g id="text_10">
      <!-- 0.8 -->
      <g transform="translate(25.155 71.39715)scale(0.16 -0.16)">
       <defs>
        <path id="DejaVuSans-38" d="M 2034 2216 
Q 1584 2216 1326 1975 
Q 1069 1734 1069 1313 
Q 1069 891 1326 650 
Q 1584 409 2034 409 
Q 2484 409 2743 651 
Q 3003 894 3003 1313 
Q 3003 1734 2745 1975 
Q 2488 2216 2034 2216 
z
M 1403 2484 
Q 997 2584 770 2862 
Q 544 3141 544 3541 
Q 544 4100 942 4425 
Q 1341 4750 2034 4750 
Q 2731 4750 3128 4425 
Q 3525 4100 3525 3541 
Q 3525 3141 3298 2862 
Q 3072 2584 2669 2484 
Q 3125 2378 3379 2068 
Q 3634 1759 3634 1313 
Q 3634 634 3220 271 
Q 2806 -91 2034 -91 
Q 1263 -91 848 271 
Q 434 634 434 1313 
Q 434 1759 690 2068 
Q 947 2378 1403 2484 
z
M 1172 3481 
Q 1172 3119 1398 2916 
Q 1625 2713 2034 2713 
Q 2441 2713 2670 2916 
Q 2900 3119 2900 3481 
Q 2900 3844 2670 4047 
Q 2441 4250 2034 4250 
Q 1625 4250 1398 4047 
Q 1172 3844 1172 3481 
z
" transform="scale(0.015625)"/>
       </defs>
       <use xlink:href="#DejaVuSans-30"/>
       <use xlink:href="#DejaVuSans-2e" x="63.623047"/>
       <use xlink:href="#DejaVuSans-38" x="95.410156"/>
      </g>
     </g>
    </g>
    <g id="ytick_6">
     <g id="line2d_27">
      <path d="M 57.6 6.912 
L 360.8064 6.912 
" clip-path="url(#p1ff4512183)" style="fill: none; stroke: #b0b0b0; stroke-width: 0.8; stroke-linecap: square"/>
     </g>
     <g id="line2d_28">
      <g>
       <use xlink:href="#m90766d2cfd" x="57.6" y="6.912" style="stroke: #000000; stroke-width: 0.8"/>
      </g>
     </g>
     <g id="text_11">
      <!-- 1.0 -->
      <g transform="translate(25.155 12.99075)scale(0.16 -0.16)">
       <use xlink:href="#DejaVuSans-31"/>
       <use xlink:href="#DejaVuSans-2e" x="63.623047"/>
       <use xlink:href="#DejaVuSans-30" x="95.410156"/>
      </g>
     </g>
    </g>
    <g id="text_12">
     <!-- Fraction of function,target pairs -->
     <g transform="translate(17.619531 287.313)rotate(-90)scale(0.17 -0.17)">
      <defs>
       <path id="DejaVuSans-46" d="M 628 4666 
L 3309 4666 
L 3309 4134 
L 1259 4134 
L 1259 2759 
L 3109 2759 
L 3109 2228 
L 1259 2228 
L 1259 0 
L 628 0 
L 628 4666 
z
" transform="scale(0.015625)"/>
       <path id="DejaVuSans-72" d="M 2631 2963 
Q 2534 3019 2420 3045 
Q 2306 3072 2169 3072 
Q 1681 3072 1420 2755 
Q 1159 2438 1159 1844 
L 1159 0 
L 581 0 
L 581 3500 
L 1159 3500 
L 1159 2956 
Q 1341 3275 1631 3429 
Q 1922 3584 2338 3584 
Q 2397 3584 2469 3576 
Q 2541 3569 2628 3553 
L 2631 2963 
z
" transform="scale(0.015625)"/>
       <path id="DejaVuSans-63" d="M 3122 3366 
L 3122 2828 
Q 2878 2963 2633 3030 
Q 2388 3097 2138 3097 
Q 1578 3097 1268 2742 
Q 959 2388 959 1747 
Q 959 1106 1268 751 
Q 1578 397 2138 397 
Q 2388 397 2633 464 
Q 2878 531 3122 666 
L 3122 134 
Q 2881 22 2623 -34 
Q 2366 -91 2075 -91 
Q 1284 -91 818 406 
Q 353 903 353 1747 
Q 353 2603 823 3093 
Q 1294 3584 2113 3584 
Q 2378 3584 2631 3529 
Q 2884 3475 3122 3366 
z
" transform="scale(0.015625)"/>
       <path id="DejaVuSans-74" d="M 1172 4494 
L 1172 3500 
L 2356 3500 
L 2356 3053 
L 1172 3053 
L 1172 1153 
Q 1172 725 1289 603 
Q 1406 481 1766 481 
L 2356 481 
L 2356 0 
L 1766 0 
Q 1100 0 847 248 
Q 594 497 594 1153 
L 594 3053 
L 172 3053 
L 172 3500 
L 594 3500 
L 594 4494 
L 1172 4494 
z
" transform="scale(0.015625)"/>
       <path id="DejaVuSans-75" d="M 544 1381 
L 544 3500 
L 1119 3500 
L 1119 1403 
Q 1119 906 1312 657 
Q 1506 409 1894 409 
Q 2359 409 2629 706 
Q 2900 1003 2900 1516 
L 2900 3500 
L 3475 3500 
L 3475 0 
L 2900 0 
L 2900 538 
Q 2691 219 2414 64 
Q 2138 -91 1772 -91 
Q 1169 -91 856 284 
Q 544 659 544 1381 
z
M 1991 3584 
L 1991 3584 
z
" transform="scale(0.015625)"/>
       <path id="DejaVuSans-2c" d="M 750 794 
L 1409 794 
L 1409 256 
L 897 -744 
L 494 -744 
L 750 256 
L 750 794 
z
" transform="scale(0.015625)"/>
       <path id="DejaVuSans-70" d="M 1159 525 
L 1159 -1331 
L 581 -1331 
L 581 3500 
L 1159 3500 
L 1159 2969 
Q 1341 3281 1617 3432 
Q 1894 3584 2278 3584 
Q 2916 3584 3314 3078 
Q 3713 2572 3713 1747 
Q 3713 922 3314 415 
Q 2916 -91 2278 -91 
Q 1894 -91 1617 61 
Q 1341 213 1159 525 
z
M 3116 1747 
Q 3116 2381 2855 2742 
Q 2594 3103 2138 3103 
Q 1681 3103 1420 2742 
Q 1159 2381 1159 1747 
Q 1159 1113 1420 752 
Q 1681 391 2138 391 
Q 2594 391 2855 752 
Q 3116 1113 3116 1747 
z
" transform="scale(0.015625)"/>
      </defs>
      <use xlink:href="#DejaVuSans-46"/>
      <use xlink:href="#DejaVuSans-72" x="50.269531"/>
      <use xlink:href="#DejaVuSans-61" x="91.382812"/>
      <use xlink:href="#DejaVuSans-63" x="152.662109"/>
      <use xlink:href="#DejaVuSans-74" x="207.642578"/>
      <use xlink:href="#DejaVuSans-69" x="246.851562"/>
      <use xlink:href="#DejaVuSans-6f" x="274.634766"/>
      <use xlink:href="#DejaVuSans-6e" x="335.816406"/>
      <use xlink:href="#DejaVuSans-20" x="399.195312"/>
      <use xlink:href="#DejaVuSans-6f" x="430.982422"/>
      <use xlink:href="#DejaVuSans-66" x="492.164062"/>
      <use xlink:href="#DejaVuSans-20" x="527.369141"/>
      <use xlink:href="#DejaVuSans-66" x="559.15625"/>
      <use xlink:href="#DejaVuSans-75" x="594.361328"/>
      <use xlink:href="#DejaVuSans-6e" x="657.740234"/>
      <use xlink:href="#DejaVuSans-63" x="721.119141"/>
      <use xlink:href="#DejaVuSans-74" x="776.099609"/>
      <use xlink:href="#DejaVuSans-69" x="815.308594"/>
      <use xlink:href="#DejaVuSans-6f" x="843.091797"/>
      <use xlink:href="#DejaVuSans-6e" x="904.273438"/>
      <use xlink:href="#DejaVuSans-2c" x="967.652344"/>
      <use xlink:href="#DejaVuSans-74" x="999.439453"/>
      <use xlink:href="#DejaVuSans-61" x="1038.648438"/>
      <use xlink:href="#DejaVuSans-72" x="1099.927734"/>
      <use xlink:href="#DejaVuSans-67" x="1139.291016"/>
      <use xlink:href="#DejaVuSans-65" x="1202.767578"/>
      <use xlink:href="#DejaVuSans-74" x="1264.291016"/>
      <use xlink:href="#DejaVuSans-20" x="1303.5"/>
      <use xlink:href="#DejaVuSans-70" x="1335.287109"/>
      <use xlink:href="#DejaVuSans-61" x="1398.763672"/>
      <use xlink:href="#DejaVuSans-69" x="1460.042969"/>
      <use xlink:href="#DejaVuSans-72" x="1487.826172"/>
      <use xlink:href="#DejaVuSans-73" x="1528.939453"/>
     </g>
    </g>
   </g>
   <g id="line2d_29">
    <defs>
     <path id="mb3fc166453" d="M 0 1.5 
C 0.397805 1.5 0.77937 1.341951 1.06066 1.06066 
C 1.341951 0.77937 1.5 0.397805 1.5 0 
C 1.5 -0.397805 1.341951 -0.77937 1.06066 -1.06066 
C 0.77937 -1.341951 0.397805 -1.5 0 -1.5 
C -0.397805 -1.5 -0.77937 -1.341951 -1.06066 -1.06066 
C -1.341951 -0.77937 -1.5 -0.397805 -1.5 0 
C -1.5 0.397805 -1.341951 0.77937 -1.06066 1.06066 
C -0.77937 1.341951 -0.397805 1.5 0 1.5 
z
" style="stroke: #00bfbf"/>
    </defs>
    <g>
     <use xlink:href="#mb3fc166453" x="204.924878" y="193.334152" style="fill: #00bfbf; stroke: #00bfbf"/>
     <use xlink:href="#mb3fc166453" x="204.924878" y="193.334152" style="fill: #00bfbf; stroke: #00bfbf"/>
    </g>
   </g>
   <g id="line2d_30">
    <path d="M 44.560826 298.944 
L 44.560826 293.657214 
L 57.6 293.657214 
L 57.6 293.027834 
L 70.639174 293.027834 
L 70.639174 292.146703 
L 74.836851 292.146703 
L 74.836851 291.894952 
L 78.266603 291.894952 
L 78.266603 291.6432 
L 81.166416 291.6432 
L 81.166416 290.510317 
L 83.678349 290.510317 
L 83.678349 289.755062 
L 87.876026 289.755062 
L 87.876026 289.50331 
L 89.668958 289.50331 
L 89.668958 288.622179 
L 91.305777 288.622179 
L 91.305777 288.496303 
L 94.205591 288.496303 
L 94.205591 288.370428 
L 95.503454 288.370428 
L 95.503454 287.615172 
L 97.857967 287.615172 
L 97.857967 287.111669 
L 98.933205 287.111669 
L 98.933205 286.48229 
L 99.950294 286.48229 
L 99.950294 286.230538 
L 100.9152 286.230538 
L 100.9152 285.475283 
L 101.833019 285.475283 
L 101.833019 285.223531 
L 102.708132 285.223531 
L 102.708132 284.845903 
L 103.544339 284.845903 
L 103.544339 284.3424 
L 104.344952 284.3424 
L 104.344952 283.713021 
L 105.112877 283.713021 
L 105.112877 282.580138 
L 105.850679 282.580138 
L 105.850679 281.950759 
L 107.904887 281.950759 
L 107.904887 281.447255 
L 109.756698 281.447255 
L 109.756698 281.069628 
L 110.335561 281.069628 
L 110.335561 280.817876 
L 110.897141 280.817876 
L 110.897141 280.062621 
L 111.97238 280.062621 
L 111.97238 279.936745 
L 112.487797 279.936745 
L 112.487797 279.810869 
L 113.478107 279.810869 
L 113.478107 279.559117 
L 113.954374 279.559117 
L 113.954374 279.18149 
L 114.872193 279.18149 
L 114.872193 278.677986 
L 115.314838 278.677986 
L 115.314838 278.55211 
L 116.170056 278.55211 
L 116.170056 278.048607 
L 117.772007 278.048607 
L 117.772007 277.796855 
L 118.889854 277.796855 
L 118.889854 277.670979 
L 119.599808 277.670979 
L 119.599808 277.419228 
L 120.616896 277.419228 
L 120.616896 276.915724 
L 121.265635 276.915724 
L 121.265635 276.538097 
L 122.795872 276.538097 
L 122.795872 276.160469 
L 123.936316 276.160469 
L 123.936316 276.034593 
L 124.481616 276.034593 
L 124.481616 275.53109 
L 125.271028 275.53109 
L 125.271028 275.279338 
L 125.526971 275.279338 
L 125.526971 274.775834 
L 126.274549 274.775834 
L 126.274549 274.146455 
L 127.227236 274.146455 
L 127.227236 273.265324 
L 127.686077 273.265324 
L 127.686077 273.013572 
L 127.911368 273.013572 
L 127.911368 272.887697 
L 128.133992 272.887697 
L 128.133992 272.510069 
L 128.786481 272.510069 
L 128.786481 272.384193 
L 128.999044 272.384193 
L 128.999044 272.132441 
L 129.417095 272.132441 
L 129.417095 271.754814 
L 130.027253 271.754814 
L 130.027253 271.628938 
L 130.811181 271.628938 
L 130.811181 271.25131 
L 131.002163 271.25131 
L 131.002163 270.370179 
L 131.378407 270.370179 
L 131.378407 270.244303 
L 131.747272 270.244303 
L 131.747272 269.866676 
L 133.490329 269.866676 
L 133.490329 269.237297 
L 134.304809 269.237297 
L 134.304809 268.607917 
L 134.463557 268.607917 
L 134.463557 268.356166 
L 135.237805 268.356166 
L 135.237805 267.978538 
L 135.687504 267.978538 
L 135.687504 267.726786 
L 136.126705 267.726786 
L 136.126705 267.60091 
L 136.696795 267.60091 
L 136.696795 267.475034 
L 136.836659 267.475034 
L 136.836659 267.223283 
L 137.250116 267.223283 
L 137.250116 266.845655 
L 138.050729 266.845655 
L 138.050729 266.593903 
L 138.180913 266.593903 
L 138.180913 266.468028 
L 138.310202 266.468028 
L 138.310202 266.216276 
L 139.435481 266.216276 
L 139.435481 265.838648 
L 139.556456 265.838648 
L 139.556456 265.712772 
L 140.14993 265.712772 
L 140.14993 265.586897 
L 140.26641 265.586897 
L 140.26641 265.461021 
L 140.382174 265.461021 
L 140.382174 265.335145 
L 141.173167 265.335145 
L 141.283499 264.831641 
L 141.825656 264.831641 
L 141.825656 264.705766 
L 142.352625 264.705766 
L 142.352625 264.202262 
L 143.066428 264.202262 
L 143.066428 263.824634 
L 143.364242 263.824634 
L 143.364242 263.698759 
L 144.602918 263.698759 
L 144.602918 263.195255 
L 145.148219 263.195255 
L 145.237585 262.062372 
L 145.326529 262.062372 
L 145.326529 261.810621 
L 145.590864 261.810621 
L 145.590864 260.803614 
L 146.023332 260.803614 
L 146.023332 260.677738 
L 146.193574 260.677738 
L 146.193574 260.551862 
L 147.022411 260.551862 
L 147.022411 260.425986 
L 147.423525 260.425986 
L 147.423525 259.670731 
L 147.581606 259.670731 
L 147.581606 259.544855 
L 148.124658 259.544855 
L 148.200973 259.167228 
L 148.57797 259.167228 
L 148.57797 258.537848 
L 148.726679 258.537848 
L 148.726679 258.411972 
L 148.947561 258.411972 
L 148.947561 258.286097 
L 149.238092 258.286097 
L 149.238092 257.908469 
L 149.73597 257.908469 
L 149.73597 257.530841 
L 149.945377 257.530841 
L 149.945377 257.153214 
L 150.289291 257.153214 
L 150.289291 256.901462 
L 151.220087 256.901462 
L 151.220087 256.64971 
L 151.795018 256.64971 
L 151.795018 256.523834 
L 152.045009 256.523834 
L 152.045009 255.768579 
L 152.230346 255.768579 
L 152.291722 255.1392 
L 152.53524 255.1392 
L 152.595631 254.635697 
L 152.775647 254.635697 
L 152.835271 251.4888 
L 152.894708 251.4888 
L 152.894708 250.985297 
L 153.01302 250.985297 
L 153.01302 250.733545 
L 153.363556 250.733545 
L 153.363556 250.607669 
L 153.707679 250.607669 
L 153.707679 250.481793 
L 153.877408 250.481793 
L 153.877408 250.355917 
L 154.04562 250.355917 
L 154.101358 249.474786 
L 154.322673 249.474786 
L 154.432362 249.097159 
L 154.595705 249.097159 
L 154.703817 248.593655 
L 154.811312 248.593655 
L 154.811312 248.467779 
L 155.024477 248.467779 
L 155.024477 248.216028 
L 155.701037 248.216028 
L 155.701037 248.090152 
L 156.354107 248.090152 
L 156.403417 247.334897 
L 157.080512 247.334897 
L 157.080512 247.209021 
L 157.410135 247.209021 
L 157.410135 246.957269 
L 157.642093 246.957269 
L 157.642093 245.446759 
L 158.007377 245.446759 
L 158.007377 245.195007 
L 158.187393 245.195007 
L 158.187393 245.069131 
L 158.673735 245.069131 
L 158.673735 244.565628 
L 158.847515 244.565628 
L 158.890711 243.810372 
L 159.019705 243.810372 
L 159.105212 243.432745 
L 160.18282 243.432745 
L 160.223059 242.929241 
L 160.738476 242.929241 
L 160.738476 242.803366 
L 161.542347 242.803366 
L 161.617145 242.425738 
L 161.728786 242.425738 
L 161.765853 241.922234 
L 162.420867 241.922234 
L 162.420867 241.670483 
L 162.984551 241.670483 
L 162.984551 241.418731 
L 164.063646 241.418731 
L 164.063646 241.292855 
L 164.194282 241.292855 
L 164.291668 241.041103 
L 164.420735 241.041103 
L 164.516958 240.5376 
L 165.021997 240.5376 
L 165.021997 240.285848 
L 165.330896 240.285848 
L 165.330896 238.901214 
L 165.634805 238.901214 
L 165.695002 238.39771 
L 165.784938 238.39771 
L 165.874446 237.516579 
L 165.904188 237.516579 
L 165.904188 237.264828 
L 166.228279 237.264828 
L 166.228279 237.138952 
L 166.860176 237.138952 
L 166.860176 236.635448 
L 167.279159 236.635448 
L 167.279159 236.383697 
L 167.689013 236.383697 
L 167.796816 235.502566 
L 168.378936 235.502566 
L 168.378936 235.250814 
L 168.816733 235.250814 
L 168.816733 234.999062 
L 169.044448 234.999062 
L 169.044448 234.873186 
L 169.904695 234.873186 
L 169.976632 234.369683 
L 170.048295 234.369683 
L 170.143423 233.992055 
L 170.190808 233.992055 
L 170.28522 232.733297 
L 170.449309 232.733297 
L 170.472634 232.229793 
L 170.6582 232.229793 
L 170.6582 232.103917 
L 170.9104 232.103917 
L 171.001277 231.72629 
L 171.046551 231.72629 
L 171.136775 231.348662 
L 171.47131 231.348662 
L 171.47131 231.09691 
L 171.865055 231.09691 
L 171.951446 230.341655 
L 172.186995 230.341655 
L 172.186995 230.089903 
L 172.835373 230.089903 
L 172.85592 229.712276 
L 173.161475 229.712276 
L 173.161475 229.5864 
L 174.164733 229.5864 
L 174.203007 228.957021 
L 174.355328 228.957021 
L 174.355328 228.831145 
L 174.637648 228.831145 
L 174.693607 228.327641 
L 175.135386 228.327641 
L 175.208017 227.950014 
L 175.37042 227.950014 
L 175.460042 226.565379 
L 175.495771 226.565379 
L 175.495771 226.439503 
L 175.638014 226.439503 
L 175.638014 226.061876 
L 175.919314 226.061876 
L 175.919314 225.810124 
L 176.075715 225.810124 
L 176.075715 225.684248 
L 176.469599 225.684248 
L 176.469599 225.558372 
L 176.587858 225.558372 
L 176.587858 225.432497 
L 177.1192 225.432497 
L 177.1192 225.306621 
L 177.411613 225.306621 
L 177.411613 225.180745 
L 177.556133 225.180745 
L 177.556133 225.054869 
L 177.699551 225.054869 
L 177.699551 224.803117 
L 177.857632 224.803117 
L 177.857632 224.42549 
L 178.339408 224.42549 
L 178.339408 224.173738 
L 178.749196 224.173738 
L 178.83906 223.79611 
L 179.017511 223.79611 
L 179.106105 223.544359 
L 179.164938 223.544359 
L 179.23822 222.411476 
L 179.311218 222.411476 
L 179.311218 222.033848 
L 179.427429 222.033848 
L 179.427429 221.782097 
L 179.729109 221.782097 
L 179.729109 221.656221 
L 179.955757 221.656221 
L 179.955757 221.530345 
L 180.096038 221.530345 
L 180.096038 220.523338 
L 180.29069 220.523338 
L 180.29069 220.271586 
L 180.674054 220.271586 
L 180.741697 219.893959 
L 181.089573 219.893959 
L 181.089573 219.768083 
L 181.326697 219.768083 
L 181.431133 219.390455 
L 181.496113 219.390455 
L 181.496113 218.761076 
L 181.995394 218.761076 
L 181.995394 218.6352 
L 182.432456 218.6352 
L 182.432456 218.509324 
L 182.555488 218.509324 
L 182.555488 218.383448 
L 182.750681 218.383448 
L 182.859594 218.131697 
L 182.907797 218.131697 
L 182.907797 218.005821 
L 183.25363 218.005821 
L 183.25363 216.747062 
L 183.558372 216.747062 
L 183.558372 216.243559 
L 184.466222 216.243559 
L 184.466222 215.865931 
L 185.416721 215.865931 
L 185.427251 215.362428 
L 185.761131 215.362428 
L 185.761131 215.236552 
L 185.895095 215.236552 
L 185.895095 214.9848 
L 186.210749 214.9848 
L 186.210749 214.858924 
L 186.431592 214.858924 
L 186.50132 214.481297 
L 187.37553 214.481297 
L 187.37553 213.851917 
L 187.583186 213.851917 
L 187.620696 213.47429 
L 187.732781 213.47429 
L 187.816409 213.096662 
L 187.991745 213.096662 
L 187.991745 212.84491 
L 188.119902 212.84491 
L 188.119902 212.719034 
L 188.256251 212.719034 
L 188.292444 212.215531 
L 188.52602 212.215531 
L 188.52602 212.089655 
L 188.686043 212.089655 
L 188.686043 211.3344 
L 189.123541 211.3344 
L 189.123541 211.208524 
L 189.551095 211.208524 
L 189.584883 210.453269 
L 189.727809 210.453269 
L 189.727809 210.201517 
L 190.092771 210.201517 
L 190.109194 209.698014 
L 190.31327 209.698014 
L 190.31327 209.446262 
L 190.555274 209.446262 
L 190.555274 208.942759 
L 191.05357 208.942759 
L 191.05357 208.691007 
L 191.286293 208.691007 
L 191.355553 207.935752 
L 191.554214 207.935752 
L 191.554214 207.809876 
L 191.7508 207.809876 
L 191.7508 207.558124 
L 191.863287 207.558124 
L 191.937906 206.802869 
L 192.160005 206.802869 
L 192.240789 206.425241 
L 192.452116 206.425241 
L 192.452116 206.17349 
L 192.917329 206.17349 
L 192.917329 205.921738 
L 193.197999 205.921738 
L 193.288323 205.418234 
L 193.412674 205.418234 
L 193.412674 205.292359 
L 193.713228 205.292359 
L 193.713228 204.788855 
L 194.009056 204.788855 
L 194.009056 204.159476 
L 194.254269 204.159476 
L 194.333116 203.907724 
L 194.489825 203.907724 
L 194.515817 203.530097 
L 195.002958 203.530097 
L 195.02193 203.152469 
L 195.680309 203.152469 
L 195.735162 202.52309 
L 195.910831 202.52309 
L 195.910831 202.271338 
L 196.144517 202.271338 
L 196.251402 201.516083 
L 196.550983 201.516083 
L 196.643995 201.264331 
L 197.051274 201.264331 
L 197.107935 200.760828 
L 197.332889 200.760828 
L 197.332889 200.509076 
L 197.725675 200.509076 
L 197.725675 200.3832 
L 197.954224 200.3832 
L 197.954224 200.257324 
L 198.067466 200.257324 
L 198.163991 199.879697 
L 198.318469 199.879697 
L 198.318469 199.627945 
L 198.576634 199.627945 
L 198.576634 199.502069 
L 198.882858 199.502069 
L 198.882858 199.376193 
L 199.000895 199.376193 
L 199.000895 198.998566 
L 199.370705 198.998566 
L 199.370705 198.87269 
L 199.530549 198.87269 
L 199.530549 198.746814 
L 199.684113 198.746814 
L 199.684113 198.495062 
L 200.118152 198.495062 
L 200.209528 197.488055 
L 201.309006 197.488055 
L 201.309006 197.236303 
L 201.56073 197.236303 
L 201.56073 197.110428 
L 201.725218 197.110428 
L 201.742914 196.606924 
L 202.249007 196.606924 
L 202.249007 196.481048 
L 202.364876 196.481048 
L 202.364876 196.229297 
L 202.645144 196.229297 
L 202.645144 196.103421 
L 202.883878 196.103421 
L 202.991776 195.725793 
L 203.570388 195.725793 
L 203.598456 195.348166 
L 204.155086 195.348166 
L 204.155086 195.22229 
L 204.340881 195.22229 
L 204.429261 194.089407 
L 204.486678 194.089407 
L 204.486678 193.837655 
L 204.722158 193.837655 
L 204.786213 193.585903 
L 204.924878 193.585903 
L 204.924878 193.334152 
L 360.8064 193.334152 
L 360.8064 193.334152 
" style="fill: none; stroke: #00bfbf; stroke-width: 1.5; stroke-linecap: square"/>
   </g>
   <g id="line2d_31">
    <defs>
     <path id="m27915cc4f6" d="M -6 0 
L 6 0 
M 0 6 
L 0 -6 
" style="stroke: #00bfbf; stroke-width: 1.5"/>
    </defs>
    <g>
     <use xlink:href="#m27915cc4f6" x="104.344952" y="283.713021" style="fill-opacity: 0; stroke: #00bfbf; stroke-width: 1.5"/>
     <use xlink:href="#m27915cc4f6" x="155.024477" y="248.467779" style="fill-opacity: 0; stroke: #00bfbf; stroke-width: 1.5"/>
     <use xlink:href="#m27915cc4f6" x="189.584883" y="210.453269" style="fill-opacity: 0; stroke: #00bfbf; stroke-width: 1.5"/>
     <use xlink:href="#m27915cc4f6" x="204.924878" y="193.334152" style="fill-opacity: 0; stroke: #00bfbf; stroke-width: 1.5"/>
     <use xlink:href="#m27915cc4f6" x="204.924878" y="193.334152" style="fill-opacity: 0; stroke: #00bfbf; stroke-width: 1.5"/>
     <use xlink:href="#m27915cc4f6" x="360.8064" y="193.334152" style="fill-opacity: 0; stroke: #00bfbf; stroke-width: 1.5"/>
    </g>
   </g>
   <g id="line2d_32">
    <path style="fill: none; stroke: #00bfbf; stroke-width: 1.5; stroke-linecap: square"/>
    <g/>
   </g>
   <g id="line2d_33">
    <path d="M 205.158657 193.334152 
" clip-path="url(#p1ff4512183)" style="fill: none; stroke: #00bfbf; stroke-width: 1.5; stroke-linecap: square"/>
    <defs>
     <path id="m81bbe8648b" d="M -12 12 
L 12 -12 
M -12 -12 
L 12 12 
" style="stroke: #00bfbf"/>
    </defs>
    <g clip-path="url(#p1ff4512183)">
     <use xlink:href="#m81bbe8648b" x="205.158657" y="193.334152" style="fill: #00bfbf; stroke: #00bfbf"/>
    </g>
   </g>
   <g id="line2d_34">
    <defs>
     <path id="m32d09c4ace" d="M 0 1.5 
C 0.397805 1.5 0.77937 1.341951 1.06066 1.06066 
C 1.341951 0.77937 1.5 0.397805 1.5 0 
C 1.5 -0.397805 1.341951 -0.77937 1.06066 -1.06066 
C 0.77937 -1.341951 0.397805 -1.5 0 -1.5 
C -0.397805 -1.5 -0.77937 -1.341951 -1.06066 -1.06066 
C -1.341951 -0.77937 -1.5 -0.397805 -1.5 0 
C -1.5 0.397805 -1.341951 0.77937 -1.06066 1.06066 
C -0.77937 1.341951 -0.397805 1.5 0 1.5 
z
" style="stroke: #008000"/>
    </defs>
    <g>
     <use xlink:href="#m32d09c4ace" x="197.349653" y="223.79611" style="fill: #008000; stroke: #008000"/>
     <use xlink:href="#m32d09c4ace" x="197.349653" y="223.79611" style="fill: #008000; stroke: #008000"/>
    </g>
   </g>
   <g id="line2d_35">
    <path d="M 36.933397 298.944 
L 36.933397 292.020828 
L 49.972572 292.020828 
L 49.972572 291.894952 
L 63.011746 291.894952 
L 63.011746 291.139697 
L 67.209423 291.139697 
L 67.209423 290.636193 
L 70.639174 290.636193 
L 70.639174 290.510317 
L 73.538988 290.510317 
L 73.538988 290.13269 
L 82.04153 290.13269 
L 82.04153 290.006814 
L 86.578163 290.006814 
L 86.578163 289.755062 
L 89.090095 289.755062 
L 89.090095 289.50331 
L 90.230539 289.50331 
L 90.230539 289.377434 
L 91.305777 289.377434 
L 91.305777 289.251559 
L 92.322865 289.251559 
L 92.322865 288.748055 
L 93.287772 288.748055 
L 93.287772 288.622179 
L 96.717523 288.622179 
L 96.717523 288.370428 
L 97.485448 288.370428 
L 97.485448 288.244552 
L 99.617337 288.244552 
L 99.617337 288.118676 
L 100.9152 288.118676 
L 100.9152 287.9928 
L 101.532027 287.9928 
L 101.532027 287.615172 
L 102.12927 287.615172 
L 102.12927 287.489297 
L 102.708132 287.489297 
L 102.708132 287.237545 
L 104.344952 287.237545 
L 104.344952 287.111669 
L 104.860369 287.111669 
L 104.860369 286.859917 
L 105.850679 286.859917 
L 105.850679 286.734041 
L 106.326946 286.734041 
L 106.326946 286.608166 
L 107.68741 286.608166 
L 107.68741 285.223531 
L 108.119879 285.223531 
L 108.119879 284.720028 
L 110.144579 284.720028 
L 110.144579 284.594152 
L 110.524623 284.594152 
L 110.524623 284.216524 
L 111.97238 284.216524 
L 111.97238 284.090648 
L 112.317555 284.090648 
L 112.317555 283.461269 
L 112.656511 283.461269 
L 112.656511 283.209517 
L 114.571202 283.209517 
L 114.571202 282.83189 
L 115.460102 282.83189 
L 115.460102 282.076634 
L 118.152051 282.076634 
L 118.152051 281.824883 
L 118.401214 281.824883 
L 118.401214 281.321379 
L 119.129494 281.321379 
L 119.129494 281.195503 
L 119.599808 281.195503 
L 119.599808 281.069628 
L 121.159053 281.069628 
L 121.159053 280.692 
L 121.371615 280.692 
L 121.371615 279.936745 
L 123.750979 279.936745 
L 123.750979 279.810869 
L 124.119844 279.810869 
L 124.119844 279.684993 
L 124.836562 279.684993 
L 124.836562 279.559117 
L 125.011554 279.559117 
L 125.011554 279.18149 
L 125.526971 279.18149 
L 125.526971 279.055614 
L 126.028642 279.055614 
L 126.028642 278.929738 
L 126.836129 278.929738 
L 126.836129 278.677986 
L 128.786481 278.677986 
L 128.786481 278.300359 
L 129.485876 278.300359 
L 129.485876 278.174483 
L 129.893363 278.174483 
L 129.893363 278.048607 
L 130.160198 278.048607 
L 130.160198 277.545103 
L 131.808053 277.545103 
L 131.808053 277.419228 
L 132.168669 277.419228 
L 132.168669 277.0416 
L 132.405295 277.0416 
L 132.405295 276.915724 
L 132.638982 276.915724 
L 132.638982 276.789848 
L 133.210806 276.789848 
L 133.210806 276.663972 
L 133.656071 276.663972 
L 133.656071 276.538097 
L 134.091039 276.538097 
L 134.091039 276.286345 
L 135.136394 276.286345 
L 135.136394 276.034593 
L 135.438999 276.034593 
L 135.538796 275.405214 
L 136.790153 275.405214 
L 136.88305 273.768828 
L 137.159019 273.768828 
L 137.159019 273.517076 
L 137.340774 273.517076 
L 137.430998 273.139448 
L 137.520791 273.139448 
L 137.520791 273.013572 
L 138.050729 273.013572 
L 138.137618 272.384193 
L 138.224108 272.384193 
L 138.310202 272.006566 
L 138.395904 272.006566 
L 138.395904 271.88069 
L 138.902075 271.88069 
L 138.985129 271.503062 
L 139.954178 271.503062 
L 139.954178 270.873683 
L 140.343665 270.873683 
L 140.343665 270.747807 
L 140.649551 270.747807 
L 140.649551 270.244303 
L 140.800648 270.244303 
L 140.800648 270.118428 
L 140.950542 270.118428 
L 140.950542 269.866676 
L 142.108542 269.866676 
L 142.108542 269.614924 
L 142.248405 269.614924 
L 142.248405 269.111421 
L 142.797687 269.111421 
L 142.797687 268.859669 
L 144.355394 268.859669 
L 144.417581 268.482041 
L 144.479563 268.482041 
L 144.479563 268.23029 
L 144.664294 268.23029 
L 144.725469 267.852662 
L 144.907812 267.852662 
L 144.907812 267.726786 
L 145.0284 267.726786 
L 145.088405 267.349159 
L 145.503164 267.349159 
L 145.503164 267.097407 
L 146.47393 267.097407 
L 146.47393 266.971531 
L 146.913986 266.971531 
L 146.913986 266.719779 
L 147.076389 266.719779 
L 147.076389 266.593903 
L 147.397049 266.593903 
L 147.397049 266.342152 
L 148.073609 266.342152 
L 148.124658 265.586897 
L 149.547853 265.586897 
L 149.547853 265.461021 
L 149.689117 265.461021 
L 149.689117 265.335145 
L 149.875833 265.335145 
L 149.968501 264.957517 
L 150.014665 264.957517 
L 150.014665 264.705766 
L 150.243797 264.705766 
L 150.243797 264.57989 
L 150.379949 264.57989 
L 150.379949 264.328138 
L 151.477784 264.328138 
L 151.520392 264.076386 
L 151.982822 264.076386 
L 151.982822 263.95051 
L 152.434157 263.95051 
L 152.434157 263.824634 
L 152.675851 263.824634 
L 152.675851 263.698759 
L 153.5746 263.698759 
L 153.5746 263.447007 
L 153.839823 263.447007 
L 153.914919 263.069379 
L 154.101358 263.069379 
L 154.101358 262.943503 
L 154.829169 262.943503 
L 154.829169 262.817628 
L 155.077392 262.817628 
L 155.18278 262.44 
L 155.252711 262.44 
L 155.252711 261.810621 
L 155.426411 261.810621 
L 155.460959 261.181241 
L 155.836861 261.181241 
L 155.836861 261.055366 
L 156.761123 261.055366 
L 156.857511 260.551862 
L 156.88953 260.551862 
L 156.88953 260.174234 
L 157.518738 260.174234 
L 157.61133 259.670731 
L 157.734081 259.670731 
L 157.734081 259.418979 
L 157.977206 259.418979 
L 157.977206 259.167228 
L 158.424766 259.167228 
L 158.454228 258.7896 
L 159.090988 258.7896 
L 159.119425 258.286097 
L 159.289155 258.286097 
L 159.289155 258.160221 
L 160.088594 258.160221 
L 160.169388 257.656717 
L 160.276577 257.656717 
L 160.276577 257.27909 
L 160.568234 257.27909 
L 160.568234 257.153214 
L 160.907191 257.153214 
L 160.907191 256.901462 
L 161.035949 256.901462 
L 161.035949 256.775586 
L 161.189305 256.775586 
L 161.189305 256.523834 
L 162.277267 256.523834 
L 162.277267 256.272083 
L 162.728291 256.272083 
L 162.751732 255.768579 
L 163.145827 255.768579 
L 163.145827 255.390952 
L 163.419123 255.390952 
L 163.419123 255.1392 
L 164.150838 255.1392 
L 164.150838 255.013324 
L 164.897003 255.013324 
L 164.959603 254.761572 
L 165.249018 254.761572 
L 165.31046 254.383945 
L 165.473332 254.383945 
L 165.473332 254.006317 
L 165.715025 254.006317 
L 165.814821 253.502814 
L 166.012839 253.502814 
L 166.012839 253.376938 
L 166.632844 253.376938 
L 166.651893 252.621683 
L 166.860176 252.621683 
L 166.878997 252.244055 
L 167.121972 252.244055 
L 167.121972 252.118179 
L 167.6168 252.118179 
L 167.689013 251.866428 
L 167.904005 251.866428 
L 167.904005 251.614676 
L 168.221954 251.614676 
L 168.239461 250.859421 
L 168.808246 250.859421 
L 168.892945 250.355917 
L 168.926718 250.355917 
L 168.926718 250.230041 
L 169.211366 250.230041 
L 169.211366 249.726538 
L 169.426169 249.726538 
L 169.524487 249.223034 
L 169.654784 249.223034 
L 169.654784 248.971283 
L 170.103845 248.971283 
L 170.103845 248.845407 
L 170.955893 248.845407 
L 170.986161 248.467779 
L 171.741985 248.467779 
L 171.741985 248.090152 
L 171.972982 248.090152 
L 171.972982 247.712524 
L 172.101681 247.712524 
L 172.101681 247.586648 
L 172.356469 247.586648 
L 172.440637 247.209021 
L 172.690906 247.209021 
L 172.690906 246.705517 
L 173.607409 246.705517 
L 173.686173 246.32789 
L 173.77765 246.32789 
L 173.855707 245.950262 
L 174.418433 245.950262 
L 174.468765 245.69851 
L 175.086808 245.69851 
L 175.086808 245.446759 
L 175.280369 245.446759 
L 175.36443 245.069131 
L 175.412297 245.069131 
L 175.448117 244.691503 
L 175.802616 244.691503 
L 175.802616 244.565628 
L 175.988986 244.565628 
L 176.093013 244.062124 
L 176.299358 244.062124 
L 176.299358 243.558621 
L 176.413023 243.558621 
L 176.413023 243.432745 
L 176.716533 243.432745 
L 176.738821 242.803366 
L 177.298436 242.803366 
L 177.298436 242.551614 
L 177.470626 242.551614 
L 177.513428 242.299862 
L 177.72599 242.299862 
L 177.72599 242.173986 
L 178.288192 242.173986 
L 178.288192 242.04811 
L 178.694067 242.04811 
L 178.694067 241.670483 
L 179.111015 241.670483 
L 179.169832 241.418731 
L 179.509312 241.418731 
L 179.605192 241.041103 
L 179.861652 241.041103 
L 179.861652 240.915228 
L 180.355129 240.915228 
L 180.355129 240.663476 
L 180.746198 240.663476 
L 180.746198 240.5376 
L 181.005425 240.5376 
L 181.005425 240.411724 
L 181.949013 240.411724 
L 181.999605 240.034097 
L 182.628923 240.034097 
L 182.628923 239.908221 
L 182.75877 239.908221 
L 182.75877 239.782345 
L 183.015807 239.782345 
L 183.015807 239.404717 
L 183.198406 239.404717 
L 183.198406 239.02709 
L 183.620277 239.02709 
L 183.620277 238.901214 
L 184.017773 238.901214 
L 184.017773 238.523586 
L 184.235859 238.523586 
L 184.235859 238.39771 
L 184.377384 238.39771 
L 184.377384 238.271834 
L 184.679199 238.271834 
L 184.773895 237.642455 
L 184.99062 237.642455 
L 185.09091 237.390703 
L 185.105194 237.390703 
L 185.14798 236.635448 
L 185.289901 236.635448 
L 185.289901 236.383697 
L 185.402672 236.383697 
L 185.46581 235.754317 
L 185.535716 235.754317 
L 185.626206 235.250814 
L 185.79213 235.250814 
L 185.79213 235.124938 
L 186.314801 235.124938 
L 186.314801 234.999062 
L 186.862397 234.999062 
L 186.862397 234.74731 
L 187.00491 234.74731 
L 187.00491 234.621434 
L 187.159156 234.621434 
L 187.159156 234.243807 
L 187.732781 234.243807 
L 187.794763 233.740303 
L 188.113819 233.740303 
L 188.17456 233.2368 
L 188.349609 233.2368 
L 188.451471 232.985048 
L 188.564668 232.985048 
L 188.564668 231.978041 
L 188.847643 231.978041 
L 188.847643 231.852166 
L 189.178238 231.852166 
L 189.287158 230.971034 
L 190.136532 230.971034 
L 190.207426 230.719283 
L 190.326796 230.719283 
L 190.326796 230.467531 
L 190.701648 230.467531 
L 190.701648 230.341655 
L 190.828467 230.341655 
L 190.828467 230.215779 
L 191.141827 230.215779 
L 191.141827 230.089903 
L 191.419455 230.089903 
L 191.419455 229.838152 
L 191.753307 229.838152 
L 191.828363 229.334648 
L 192.160005 229.334648 
L 192.248116 229.082897 
L 192.306628 229.082897 
L 192.311495 228.831145 
L 192.773034 228.831145 
L 192.773034 228.705269 
L 193.079226 228.705269 
L 193.079226 228.453517 
L 193.545328 228.453517 
L 193.545328 228.327641 
L 193.658938 228.327641 
L 193.658938 227.950014 
L 193.973445 227.950014 
L 194.071213 227.572386 
L 194.186107 227.572386 
L 194.186107 227.320634 
L 194.604352 227.320634 
L 194.604352 227.068883 
L 194.805776 227.068883 
L 194.85686 226.691255 
L 194.928992 226.691255 
L 194.928992 226.565379 
L 195.231462 226.565379 
L 195.235629 226.187752 
L 195.405683 226.187752 
L 195.405683 226.061876 
L 195.741247 226.061876 
L 195.85044 225.558372 
L 195.858504 225.558372 
L 195.858504 225.306621 
L 196.166339 225.306621 
L 196.166339 225.180745 
L 196.426248 225.180745 
L 196.426248 224.677241 
L 196.771139 224.677241 
L 196.771139 224.42549 
L 197.003925 224.42549 
L 197.053165 224.173738 
L 197.139968 224.173738 
L 197.139968 224.047862 
L 197.349653 224.047862 
L 197.349653 223.79611 
L 360.8064 223.79611 
L 360.8064 223.79611 
" style="fill: none; stroke: #008000; stroke-width: 1.5; stroke-linecap: square"/>
   </g>
   <g id="line2d_36">
    <defs>
     <path id="m599e88fb4c" d="M -0 6 
L 6 -6 
L -6 -6 
z
" style="stroke: #008000; stroke-width: 1.5; stroke-linejoin: miter"/>
    </defs>
    <g>
     <use xlink:href="#m599e88fb4c" x="142.248405" y="269.614924" style="fill-opacity: 0; stroke: #008000; stroke-width: 1.5; stroke-linejoin: miter"/>
     <use xlink:href="#m599e88fb4c" x="194.071213" y="227.572386" style="fill-opacity: 0; stroke: #008000; stroke-width: 1.5; stroke-linejoin: miter"/>
     <use xlink:href="#m599e88fb4c" x="197.349653" y="224.047862" style="fill-opacity: 0; stroke: #008000; stroke-width: 1.5; stroke-linejoin: miter"/>
     <use xlink:href="#m599e88fb4c" x="197.349653" y="223.79611" style="fill-opacity: 0; stroke: #008000; stroke-width: 1.5; stroke-linejoin: miter"/>
     <use xlink:href="#m599e88fb4c" x="197.349653" y="223.79611" style="fill-opacity: 0; stroke: #008000; stroke-width: 1.5; stroke-linejoin: miter"/>
     <use xlink:href="#m599e88fb4c" x="360.8064" y="223.79611" style="fill-opacity: 0; stroke: #008000; stroke-width: 1.5; stroke-linejoin: miter"/>
    </g>
   </g>
   <g id="line2d_37">
    <path style="fill: none; stroke: #008000; stroke-width: 1.5; stroke-linecap: square"/>
    <g/>
   </g>
   <g id="line2d_38">
    <path d="M 197.531229 223.79611 
" clip-path="url(#p1ff4512183)" style="fill: none; stroke: #008000; stroke-width: 1.5; stroke-linecap: square"/>
    <defs>
     <path id="m68753a11eb" d="M -12 12 
L 12 -12 
M -12 -12 
L 12 12 
" style="stroke: #008000"/>
    </defs>
    <g clip-path="url(#p1ff4512183)">
     <use xlink:href="#m68753a11eb" x="197.531229" y="223.79611" style="fill: #008000; stroke: #008000"/>
    </g>
   </g>
   <g id="line2d_39">
    <defs>
     <path id="m21ecee9ed3" d="M 0 1.5 
C 0.397805 1.5 0.77937 1.341951 1.06066 1.06066 
C 1.341951 0.77937 1.5 0.397805 1.5 0 
C 1.5 -0.397805 1.341951 -0.77937 1.06066 -1.06066 
C 0.77937 -1.341951 0.397805 -1.5 0 -1.5 
C -0.397805 -1.5 -0.77937 -1.341951 -1.06066 -1.06066 
C -1.341951 -0.77937 -1.5 -0.397805 -1.5 0 
C -1.5 0.397805 -1.341951 0.77937 -1.06066 1.06066 
C -0.77937 1.341951 -0.397805 1.5 0 1.5 
z
" style="stroke: #0000ff"/>
    </defs>
    <g>
     <use xlink:href="#m21ecee9ed3" x="187.736506" y="256.020331" style="fill: #0000ff; stroke: #0000ff"/>
     <use xlink:href="#m21ecee9ed3" x="187.736506" y="256.020331" style="fill: #0000ff; stroke: #0000ff"/>
    </g>
   </g>
   <g id="line2d_40">
    <path d="M 27.323974 298.944 
L 27.323974 291.6432 
L 53.402323 291.6432 
L 53.402323 291.517324 
L 66.441498 291.517324 
L 66.441498 291.391448 
L 68.65718 291.391448 
L 68.65718 291.139697 
L 74.068926 291.139697 
L 74.068926 291.013821 
L 78.266603 291.013821 
L 78.266603 290.887945 
L 83.678349 290.887945 
L 83.678349 290.762069 
L 91.305777 290.762069 
L 91.305777 290.636193 
L 95.752617 290.636193 
L 95.752617 290.510317 
L 96.241256 290.510317 
L 96.241256 290.384441 
L 96.717523 290.384441 
L 96.717523 290.258566 
L 98.510456 290.258566 
L 98.510456 290.13269 
L 99.346662 290.13269 
L 99.346662 289.629186 
L 103.047088 289.629186 
L 103.047088 289.50331 
L 104.344952 289.50331 
L 104.344952 289.125683 
L 107.244765 289.125683 
L 107.244765 288.999807 
L 108.791791 288.999807 
L 108.791791 288.748055 
L 111.334639 288.748055 
L 111.334639 288.622179 
L 122.076872 288.622179 
L 122.076872 288.370428 
L 122.439807 288.370428 
L 122.439807 288.244552 
L 125.011554 288.244552 
L 125.011554 287.9928 
L 125.322496 287.9928 
L 125.322496 287.866924 
L 125.829577 287.866924 
L 125.829577 287.489297 
L 127.18073 287.489297 
L 127.18073 287.363421 
L 127.458055 287.363421 
L 127.458055 287.237545 
L 128.871795 287.237545 
L 128.956723 286.985793 
L 129.78556 286.985793 
L 129.86647 286.734041 
L 132.144842 286.734041 
L 132.144842 286.608166 
L 134.808158 286.608166 
L 134.808158 286.48229 
L 134.993495 286.48229 
L 135.054871 285.85291 
L 135.657857 285.85291 
L 135.657857 285.601159 
L 135.776169 285.601159 
L 135.776169 285.349407 
L 136.299553 285.349407 
L 136.299553 285.223531 
L 136.696795 285.223531 
L 136.696795 285.097655 
L 136.808769 285.097655 
L 136.808769 284.971779 
L 137.627979 284.971779 
L 137.627979 284.845903 
L 138.818654 284.845903 
L 138.818654 284.468276 
L 139.313723 284.468276 
L 139.313723 284.216524 
L 139.459738 284.216524 
L 139.508159 283.838897 
L 140.173284 283.838897 
L 140.173284 283.083641 
L 140.679868 283.083641 
L 140.679868 282.957766 
L 141.217377 282.957766 
L 141.217377 282.706014 
L 141.349389 282.706014 
L 141.349389 282.580138 
L 141.696956 282.580138 
L 141.696956 281.447255 
L 142.038218 281.447255 
L 142.038218 281.321379 
L 142.248405 281.321379 
L 142.248405 281.195503 
L 142.905644 281.195503 
L 142.905644 281.069628 
L 143.146307 281.069628 
L 143.146307 280.943752 
L 144.079302 280.943752 
L 144.079302 280.566124 
L 144.85936 280.566124 
L 144.85936 280.440248 
L 145.148219 280.440248 
L 145.148219 280.314372 
L 145.361989 280.314372 
L 145.361989 280.188497 
L 145.851536 280.188497 
L 145.851536 279.936745 
L 146.294984 279.936745 
L 146.294984 279.810869 
L 146.562769 279.810869 
L 146.562769 279.684993 
L 146.859539 279.684993 
L 146.859539 279.559117 
L 147.847333 279.559117 
L 147.847333 279.433241 
L 148.03267 279.433241 
L 148.03267 279.307366 
L 148.367783 279.307366 
L 148.367783 279.055614 
L 148.697031 279.055614 
L 148.785835 278.55211 
L 149.136916 278.55211 
L 149.136916 278.426234 
L 149.31003 278.426234 
L 149.367382 278.048607 
L 150.370903 278.048607 
L 150.370903 277.922731 
L 150.8268 277.922731 
L 150.853277 277.670979 
L 150.958812 277.670979 
L 150.958812 277.293352 
L 151.194122 277.293352 
L 151.194122 277.0416 
L 151.477784 277.0416 
L 151.477784 276.789848 
L 152.25492 276.789848 
L 152.25492 276.663972 
L 153.165721 276.663972 
L 153.189104 276.412221 
L 153.282346 276.412221 
L 153.282346 276.286345 
L 153.467455 276.286345 
L 153.536404 275.908717 
L 154.234459 275.908717 
L 154.234459 275.656966 
L 155.098517 275.656966 
L 155.098517 275.53109 
L 155.371001 275.53109 
L 155.371001 275.279338 
L 155.557358 275.279338 
L 155.557358 275.153462 
L 155.762279 275.153462 
L 155.762279 275.027586 
L 156.005274 275.027586 
L 156.045469 274.775834 
L 156.185481 274.775834 
L 156.284856 274.146455 
L 157.175281 274.146455 
L 157.175281 274.020579 
L 157.605171 274.020579 
L 157.605171 273.768828 
L 158.025456 273.768828 
L 158.025456 273.642952 
L 158.151527 273.642952 
L 158.151527 273.517076 
L 159.14782 273.517076 
L 159.14782 273.3912 
L 159.651731 273.3912 
L 159.651731 273.265324 
L 159.800309 273.265324 
L 159.800309 273.139448 
L 159.964032 273.139448 
L 159.964032 273.013572 
L 161.751035 273.013572 
L 161.751035 272.887697 
L 162.088932 272.887697 
L 162.11803 272.635945 
L 162.845206 272.635945 
L 162.901068 272.258317 
L 163.081483 272.258317 
L 163.081483 272.132441 
L 163.625994 272.132441 
L 163.625994 272.006566 
L 163.786321 272.006566 
L 163.82619 271.125434 
L 164.024277 271.125434 
L 164.024277 270.999559 
L 164.542535 270.999559 
L 164.542535 270.873683 
L 165.034451 270.873683 
L 165.071763 270.496055 
L 165.778956 270.496055 
L 165.778956 270.244303 
L 166.321521 270.244303 
L 166.321521 270.118428 
L 166.552624 270.118428 
L 166.552624 269.866676 
L 166.678531 269.866676 
L 166.678531 269.7408 
L 167.526142 269.7408 
L 167.602324 269.237297 
L 167.689013 269.237297 
L 167.689013 269.111421 
L 168.295375 269.111421 
L 168.295375 268.985545 
L 169.274409 268.985545 
L 169.274409 268.859669 
L 169.511408 268.859669 
L 169.511408 268.733793 
L 169.87103 268.733793 
L 169.94789 268.356166 
L 170.318152 268.356166 
L 170.318152 268.104414 
L 170.616607 268.104414 
L 170.616607 267.852662 
L 170.919507 267.852662 
L 170.919507 267.726786 
L 171.208643 267.726786 
L 171.208643 267.097407 
L 171.834724 267.097407 
L 171.938512 266.468028 
L 171.972982 266.468028 
L 172.015979 266.0904 
L 172.118775 266.0904 
L 172.118775 265.964524 
L 173.125069 265.964524 
L 173.125069 265.712772 
L 173.2381 265.712772 
L 173.2381 265.461021 
L 174.018578 265.461021 
L 174.018578 265.209269 
L 174.701055 265.209269 
L 174.701055 265.083393 
L 174.864184 265.083393 
L 174.864184 264.831641 
L 175.011265 264.831641 
L 175.033228 264.57989 
L 175.128107 264.57989 
L 175.128107 264.328138 
L 175.265921 264.328138 
L 175.323647 263.95051 
L 175.694612 263.95051 
L 175.694612 263.824634 
L 175.988986 263.824634 
L 176.093013 263.321131 
L 176.120657 263.321131 
L 176.134464 263.069379 
L 176.449252 263.069379 
L 176.449252 262.943503 
L 176.665168 262.943503 
L 176.705378 262.565876 
L 177.330842 262.565876 
L 177.330842 262.314124 
L 178.042475 262.314124 
L 178.042475 262.062372 
L 179.430325 262.062372 
L 179.430325 261.810621 
L 179.672018 261.810621 
L 179.672018 261.684745 
L 179.921934 261.684745 
L 179.921934 261.432993 
L 180.179707 261.432993 
L 180.263006 261.055366 
L 180.959205 261.055366 
L 180.959205 260.92949 
L 181.29263 260.92949 
L 181.29263 260.803614 
L 181.470148 260.803614 
L 181.568624 260.30011 
L 182.133854 260.30011 
L 182.133854 259.796607 
L 182.447262 259.796607 
L 182.447262 259.670731 
L 182.89094 259.670731 
L 182.89094 259.418979 
L 183.187342 259.418979 
L 183.29612 258.915476 
L 183.366726 258.915476 
L 183.446426 258.663724 
L 184.004153 258.663724 
L 184.004153 258.537848 
L 184.207426 258.537848 
L 184.207426 258.411972 
L 184.34173 258.411972 
L 184.421855 257.908469 
L 184.46179 257.908469 
L 184.46179 257.782593 
L 185.243185 257.782593 
L 185.243185 257.656717 
L 185.404078 257.656717 
L 185.404078 257.530841 
L 185.647027 257.530841 
L 185.647027 257.404966 
L 186.095285 257.404966 
L 186.095285 257.27909 
L 186.417615 257.27909 
L 186.417615 257.027338 
L 186.636057 257.027338 
L 186.636057 256.775586 
L 187.065474 256.775586 
L 187.065474 256.64971 
L 187.352737 256.64971 
L 187.379326 256.397959 
L 187.523013 256.397959 
L 187.523013 256.272083 
L 187.673086 256.272083 
L 187.736506 256.020331 
L 360.8064 256.020331 
L 360.8064 256.020331 
" style="fill: none; stroke: #0000ff; stroke-width: 1.5; stroke-linecap: square"/>
   </g>
   <g id="line2d_41">
    <defs>
     <path id="m99e9e2c3a7" d="M 0 -6 
L -1.347084 -1.854102 
L -5.706339 -1.854102 
L -2.179628 0.708204 
L -3.526712 4.854102 
L -0 2.291796 
L 3.526712 4.854102 
L 2.179628 0.708204 
L 5.706339 -1.854102 
L 1.347084 -1.854102 
z
" style="stroke: #0000ff; stroke-width: 1.5; stroke-linejoin: bevel"/>
    </defs>
    <g>
     <use xlink:href="#m99e9e2c3a7" x="108.791791" y="288.999807" style="fill-opacity: 0; stroke: #0000ff; stroke-width: 1.5; stroke-linejoin: bevel"/>
     <use xlink:href="#m99e9e2c3a7" x="183.446426" y="258.7896" style="fill-opacity: 0; stroke: #0000ff; stroke-width: 1.5; stroke-linejoin: bevel"/>
     <use xlink:href="#m99e9e2c3a7" x="187.736506" y="256.146207" style="fill-opacity: 0; stroke: #0000ff; stroke-width: 1.5; stroke-linejoin: bevel"/>
     <use xlink:href="#m99e9e2c3a7" x="187.736506" y="256.020331" style="fill-opacity: 0; stroke: #0000ff; stroke-width: 1.5; stroke-linejoin: bevel"/>
     <use xlink:href="#m99e9e2c3a7" x="187.736506" y="256.020331" style="fill-opacity: 0; stroke: #0000ff; stroke-width: 1.5; stroke-linejoin: bevel"/>
     <use xlink:href="#m99e9e2c3a7" x="360.8064" y="256.020331" style="fill-opacity: 0; stroke: #0000ff; stroke-width: 1.5; stroke-linejoin: bevel"/>
    </g>
   </g>
   <g id="line2d_42">
    <path style="fill: none; stroke: #0000ff; stroke-width: 1.5; stroke-linecap: square"/>
    <g/>
   </g>
   <g id="line2d_43">
    <path d="M 187.921806 256.020331 
" clip-path="url(#p1ff4512183)" style="fill: none; stroke: #0000ff; stroke-width: 1.5; stroke-linecap: square"/>
    <defs>
     <path id="mfd18eba50c" d="M -12 12 
L 12 -12 
M -12 -12 
L 12 12 
" style="stroke: #0000ff"/>
    </defs>
    <g clip-path="url(#p1ff4512183)">
     <use xlink:href="#mfd18eba50c" x="187.921806" y="256.020331" style="fill: #0000ff; stroke: #0000ff"/>
    </g>
   </g>
   <g id="line2d_44">
    <defs>
     <path id="m39d33875a4" d="M 0 1.5 
C 0.397805 1.5 0.77937 1.341951 1.06066 1.06066 
C 1.341951 0.77937 1.5 0.397805 1.5 0 
C 1.5 -0.397805 1.341951 -0.77937 1.06066 -1.06066 
C 0.77937 -1.341951 0.397805 -1.5 0 -1.5 
C -0.397805 -1.5 -0.77937 -1.341951 -1.06066 -1.06066 
C -1.341951 -0.77937 -1.5 -0.397805 -1.5 0 
C -1.5 0.397805 -1.341951 0.77937 -1.06066 1.06066 
C -0.77937 1.341951 -0.397805 1.5 0 1.5 
z
" style="stroke: #000000"/>
    </defs>
    <g>
     <use xlink:href="#m39d33875a4" x="174.574026" y="285.097655" style="stroke: #000000"/>
     <use xlink:href="#m39d33875a4" x="174.574026" y="285.097655" style="stroke: #000000"/>
    </g>
   </g>
   <g id="line2d_45">
    <path d="M 14.2848 298.944 
L 14.2848 289.125683 
L 40.363149 289.125683 
L 40.363149 288.873931 
L 76.96874 288.873931 
L 76.96874 288.748055 
L 133.556801 288.748055 
L 133.556801 288.622179 
L 140.126547 288.622179 
L 140.126547 288.496303 
L 144.380294 288.496303 
L 144.380294 288.370428 
L 146.125662 288.370428 
L 146.125662 288.244552 
L 146.446082 288.244552 
L 146.446082 288.118676 
L 151.490576 288.118676 
L 151.490576 287.9928 
L 151.56715 287.9928 
L 151.56715 287.741048 
L 153.593669 287.741048 
L 153.593669 287.615172 
L 155.711258 287.615172 
L 155.711258 287.363421 
L 155.802997 287.363421 
L 155.802997 287.237545 
L 156.225294 287.237545 
L 156.225294 286.985793 
L 162.11076 286.985793 
L 162.11076 286.859917 
L 163.679588 286.859917 
L 163.679588 286.734041 
L 164.265747 286.734041 
L 164.265747 286.608166 
L 167.651136 286.608166 
L 167.651136 286.48229 
L 168.928405 286.48229 
L 168.928405 286.356414 
L 168.999125 286.356414 
L 168.999125 286.230538 
L 171.046551 286.230538 
L 171.046551 285.978786 
L 171.324847 285.978786 
L 171.324847 285.85291 
L 171.795656 285.85291 
L 171.795656 285.475283 
L 173.366453 285.475283 
L 173.366453 285.349407 
L 174.018578 285.349407 
L 174.018578 285.223531 
L 174.574026 285.223531 
L 174.574026 285.097655 
L 360.8064 285.097655 
" style="fill: none; stroke: #000000; stroke-width: 1.5; stroke-linecap: square"/>
   </g>
   <g id="line2d_46">
    <defs>
     <path id="m16f4afb228" d="M 0 6 
C 1.591219 6 3.117479 5.367802 4.242641 4.242641 
C 5.367802 3.117479 6 1.591219 6 0 
C 6 -1.591219 5.367802 -3.117479 4.242641 -4.242641 
C 3.117479 -5.367802 1.591219 -6 0 -6 
C -1.591219 -6 -3.117479 -5.367802 -4.242641 -4.242641 
C -5.367802 -3.117479 -6 -1.591219 -6 0 
C -6 1.591219 -5.367802 3.117479 -4.242641 4.242641 
C -3.117479 5.367802 -1.591219 6 0 6 
z
" style="stroke: #000000; stroke-width: 1.5"/>
    </defs>
    <g>
     <use xlink:href="#m16f4afb228" x="76.96874" y="288.748055" style="fill-opacity: 0; stroke: #000000; stroke-width: 1.5"/>
     <use xlink:href="#m16f4afb228" x="174.574026" y="285.223531" style="fill-opacity: 0; stroke: #000000; stroke-width: 1.5"/>
     <use xlink:href="#m16f4afb228" x="174.574026" y="285.097655" style="fill-opacity: 0; stroke: #000000; stroke-width: 1.5"/>
     <use xlink:href="#m16f4afb228" x="174.574026" y="285.097655" style="fill-opacity: 0; stroke: #000000; stroke-width: 1.5"/>
     <use xlink:href="#m16f4afb228" x="360.8064" y="285.097655" style="fill-opacity: 0; stroke: #000000; stroke-width: 1.5"/>
    </g>
   </g>
   <g id="line2d_47">
    <path style="fill: none; stroke: #000000; stroke-width: 1.5; stroke-linecap: square"/>
    <g/>
   </g>
   <g id="line2d_48">
    <path d="M 174.882632 285.097655 
" clip-path="url(#p1ff4512183)" style="fill: none; stroke: #000000; stroke-width: 1.5; stroke-linecap: square"/>
    <defs>
     <path id="mad0b60a377" d="M -12 12 
L 12 -12 
M -12 -12 
L 12 12 
" style="stroke: #000000"/>
    </defs>
    <g clip-path="url(#p1ff4512183)">
     <use xlink:href="#mad0b60a377" x="174.882632" y="285.097655" style="stroke: #000000"/>
    </g>
   </g>
   <g id="line2d_49">
    <defs>
     <path id="me40823513a" d="M 0 1.5 
C 0.397805 1.5 0.77937 1.341951 1.06066 1.06066 
C 1.341951 0.77937 1.5 0.397805 1.5 0 
C 1.5 -0.397805 1.341951 -0.77937 1.06066 -1.06066 
C 0.77937 -1.341951 0.397805 -1.5 0 -1.5 
C -0.397805 -1.5 -0.77937 -1.341951 -1.06066 -1.06066 
C -1.341951 -0.77937 -1.5 -0.397805 -1.5 0 
C -1.5 0.397805 -1.341951 0.77937 -1.06066 1.06066 
C -0.77937 1.341951 -0.397805 1.5 0 1.5 
z
" style="stroke: #ff0000"/>
    </defs>
    <g>
     <use xlink:href="#me40823513a" x="1.245626" y="289.629186" style="fill: #ff0000; stroke: #ff0000"/>
     <use xlink:href="#me40823513a" x="1.245626" y="289.629186" style="fill: #ff0000; stroke: #ff0000"/>
    </g>
   </g>
   <g id="line2d_50">
    <path d="M 1.245626 298.944 
L 1.245626 289.629186 
L 360.8064 289.629186 
" style="fill: none; stroke: #ff0000; stroke-width: 1.5; stroke-linecap: square"/>
   </g>
   <g id="line2d_51">
    <defs>
     <path id="mb1dbfcb433" d="M -6 6 
L 6 6 
L 6 -6 
L -6 -6 
z
" style="stroke: #ff0000; stroke-width: 1.5; stroke-linejoin: miter"/>
    </defs>
    <g>
     <use xlink:href="#mb1dbfcb433" x="360.8064" y="289.629186" style="fill-opacity: 0; stroke: #ff0000; stroke-width: 1.5; stroke-linejoin: miter"/>
    </g>
   </g>
   <g id="line2d_52">
    <path style="fill: none; stroke: #ff0000; stroke-width: 1.5; stroke-linecap: square"/>
    <g/>
   </g>
   <g id="line2d_53">
    <path d="M 161.843457 289.629186 
" clip-path="url(#p1ff4512183)" style="fill: none; stroke: #ff0000; stroke-width: 1.5; stroke-linecap: square"/>
    <defs>
     <path id="mb367fb7c46" d="M -12 12 
L 12 -12 
M -12 -12 
L 12 12 
" style="stroke: #ff0000"/>
    </defs>
    <g clip-path="url(#p1ff4512183)">
     <use xlink:href="#mb367fb7c46" x="161.843457" y="289.629186" style="fill: #ff0000; stroke: #ff0000"/>
    </g>
   </g>
   <g id="line2d_54">
    <defs>
     <path id="m2b3fc73889" d="M 0 1.5 
C 0.397805 1.5 0.77937 1.341951 1.06066 1.06066 
C 1.341951 0.77937 1.5 0.397805 1.5 0 
C 1.5 -0.397805 1.341951 -0.77937 1.06066 -1.06066 
C 0.77937 -1.341951 0.397805 -1.5 0 -1.5 
C -0.397805 -1.5 -0.77937 -1.341951 -1.06066 -1.06066 
C -1.341951 -0.77937 -1.5 -0.397805 -1.5 0 
C -1.5 0.397805 -1.341951 0.77937 -1.06066 1.06066 
C -0.77937 1.341951 -0.397805 1.5 0 1.5 
z
" style="stroke: #bf00bf"/>
    </defs>
    <g/>
   </g>
   <g id="line2d_55">
    <path d="M -1 287.363421 
L 360.8064 287.363421 
" style="fill: none; stroke: #bf00bf; stroke-width: 1.5; stroke-linecap: square"/>
   </g>
   <g id="line2d_56">
    <defs>
     <path id="m234c28958e" d="M 0 8.485281 
L 8.485281 0 
L 0 -8.485281 
L -8.485281 0 
z
" style="stroke: #bf00bf; stroke-width: 1.5; stroke-linejoin: miter"/>
    </defs>
    <g>
     <use xlink:href="#m234c28958e" x="360.8064" y="287.363421" style="fill-opacity: 0; stroke: #bf00bf; stroke-width: 1.5; stroke-linejoin: miter"/>
    </g>
   </g>
   <g id="line2d_57">
    <path style="fill: none; stroke: #bf00bf; stroke-width: 1.5; stroke-linecap: square"/>
    <g/>
   </g>
   <g id="line2d_58">
    <path d="M 148.804283 287.363421 
" clip-path="url(#p1ff4512183)" style="fill: none; stroke: #bf00bf; stroke-width: 1.5; stroke-linecap: square"/>
    <defs>
     <path id="m6b74d3950c" d="M -12 12 
L 12 -12 
M -12 -12 
L 12 12 
" style="stroke: #bf00bf"/>
    </defs>
    <g clip-path="url(#p1ff4512183)">
     <use xlink:href="#m6b74d3950c" x="148.804283" y="287.363421" style="fill: #bf00bf; stroke: #bf00bf"/>
    </g>
   </g>
   <g id="line2d_59">
    <path d="M 360.8064 289.629186 
L 380.514816 293.10336 
" style="fill: none; stroke: #ff0000; stroke-width: 1.5; stroke-linecap: square"/>
    <g>
     <use xlink:href="#mb1dbfcb433" x="360.8064" y="289.629186" style="fill-opacity: 0; stroke: #ff0000; stroke-width: 1.5; stroke-linejoin: miter"/>
     <use xlink:href="#mb1dbfcb433" x="380.514816" y="293.10336" style="fill-opacity: 0; stroke: #ff0000; stroke-width: 1.5; stroke-linejoin: miter"/>
    </g>
   </g>
   <g id="line2d_60">
    <path d="M 360.8064 287.363421 
L 380.514816 237.033216 
" style="fill: none; stroke: #bf00bf; stroke-width: 1.5; stroke-linecap: square"/>
    <g>
     <use xlink:href="#m234c28958e" x="360.8064" y="287.363421" style="fill-opacity: 0; stroke: #bf00bf; stroke-width: 1.5; stroke-linejoin: miter"/>
     <use xlink:href="#m234c28958e" x="380.514816" y="237.033216" style="fill-opacity: 0; stroke: #bf00bf; stroke-width: 1.5; stroke-linejoin: miter"/>
    </g>
   </g>
   <g id="line2d_61">
    <path d="M 360.8064 285.097655 
L 380.514816 180.963072 
" style="fill: none; stroke: #000000; stroke-width: 1.5; stroke-linecap: square"/>
    <g>
     <use xlink:href="#m16f4afb228" x="360.8064" y="285.097655" style="fill-opacity: 0; stroke: #000000; stroke-width: 1.5"/>
     <use xlink:href="#m16f4afb228" x="380.514816" y="180.963072" style="fill-opacity: 0; stroke: #000000; stroke-width: 1.5"/>
    </g>
   </g>
   <g id="line2d_62">
    <path d="M 360.8064 256.020331 
L 380.514816 124.892928 
" style="fill: none; stroke: #0000ff; stroke-width: 1.5; stroke-linecap: square"/>
    <g>
     <use xlink:href="#m99e9e2c3a7" x="360.8064" y="256.020331" style="fill-opacity: 0; stroke: #0000ff; stroke-width: 1.5; stroke-linejoin: bevel"/>
     <use xlink:href="#m99e9e2c3a7" x="380.514816" y="124.892928" style="fill-opacity: 0; stroke: #0000ff; stroke-width: 1.5; stroke-linejoin: bevel"/>
    </g>
   </g>
   <g id="line2d_63">
    <path d="M 360.8064 223.79611 
L 380.514816 68.822784 
" style="fill: none; stroke: #008000; stroke-width: 1.5; stroke-linecap: square"/>
    <g>
     <use xlink:href="#m599e88fb4c" x="360.8064" y="223.79611" style="fill-opacity: 0; stroke: #008000; stroke-width: 1.5; stroke-linejoin: miter"/>
     <use xlink:href="#m599e88fb4c" x="380.514816" y="68.822784" style="fill-opacity: 0; stroke: #008000; stroke-width: 1.5; stroke-linejoin: miter"/>
    </g>
   </g>
   <g id="line2d_64">
    <path d="M 360.8064 193.334152 
L 380.514816 12.75264 
" style="fill: none; stroke: #00bfbf; stroke-width: 1.5; stroke-linecap: square"/>
    <g>
     <use xlink:href="#m27915cc4f6" x="360.8064" y="193.334152" style="fill-opacity: 0; stroke: #00bfbf; stroke-width: 1.5"/>
     <use xlink:href="#m27915cc4f6" x="380.514816" y="12.75264" style="fill-opacity: 0; stroke: #00bfbf; stroke-width: 1.5"/>
    </g>
   </g>
   <g id="line2d_65">
    <path d="M 360.8064 298.944 
L 360.8064 6.912 
" style="fill: none; stroke: #000000; stroke-width: 1.5; stroke-linecap: square"/>
   </g>
   <g id="patch_3">
    <path d="M 57.6 298.944 
L 360.8064 298.944 
" style="fill: none; stroke: #000000; stroke-width: 0.8; stroke-linejoin: miter; stroke-linecap: square"/>
   </g>
   <g id="patch_4">
    <path d="M 57.6 6.912 
L 360.8064 6.912 
" style="fill: none; stroke: #000000; stroke-width: 0.8; stroke-linejoin: miter; stroke-linecap: square"/>
   </g>
   <g id="text_13">
    <!-- 20-D -->
    <g transform="translate(386.578944 296.966485)scale(0.14 -0.14)">
     <defs>
      <path id="DejaVuSans-44" d="M 1259 4147 
L 1259 519 
L 2022 519 
Q 2988 519 3436 956 
Q 3884 1394 3884 2338 
Q 3884 3275 3436 3711 
Q 2988 4147 2022 4147 
L 1259 4147 
z
M 628 4666 
L 1925 4666 
Q 3281 4666 3915 4102 
Q 4550 3538 4550 2338 
Q 4550 1131 3912 565 
Q 3275 0 1925 0 
L 628 0 
L 628 4666 
z
" transform="scale(0.015625)"/>
     </defs>
     <use xlink:href="#DejaVuSans-32"/>
     <use xlink:href="#DejaVuSans-30" x="63.623047"/>
     <use xlink:href="#DejaVuSans-2d" x="127.246094"/>
     <use xlink:href="#DejaVuSans-44" x="163.330078"/>
    </g>
   </g>
   <g id="text_14">
    <!-- 40-D -->
    <g transform="translate(386.578944 240.896341)scale(0.14 -0.14)">
     <use xlink:href="#DejaVuSans-34"/>
     <use xlink:href="#DejaVuSans-30" x="63.623047"/>
     <use xlink:href="#DejaVuSans-2d" x="127.246094"/>
     <use xlink:href="#DejaVuSans-44" x="163.330078"/>
    </g>
   </g>
   <g id="text_15">
    <!-- 10-D -->
    <g transform="translate(386.578944 184.826197)scale(0.14 -0.14)">
     <use xlink:href="#DejaVuSans-31"/>
     <use xlink:href="#DejaVuSans-30" x="63.623047"/>
     <use xlink:href="#DejaVuSans-2d" x="127.246094"/>
     <use xlink:href="#DejaVuSans-44" x="163.330078"/>
    </g>
   </g>
   <g id="text_16">
    <!-- 5-D -->
    <g transform="translate(386.578944 128.756053)scale(0.14 -0.14)">
     <defs>
      <path id="DejaVuSans-35" d="M 691 4666 
L 3169 4666 
L 3169 4134 
L 1269 4134 
L 1269 2991 
Q 1406 3038 1543 3061 
Q 1681 3084 1819 3084 
Q 2600 3084 3056 2656 
Q 3513 2228 3513 1497 
Q 3513 744 3044 326 
Q 2575 -91 1722 -91 
Q 1428 -91 1123 -41 
Q 819 9 494 109 
L 494 744 
Q 775 591 1075 516 
Q 1375 441 1709 441 
Q 2250 441 2565 725 
Q 2881 1009 2881 1497 
Q 2881 1984 2565 2268 
Q 2250 2553 1709 2553 
Q 1456 2553 1204 2497 
Q 953 2441 691 2322 
L 691 4666 
z
" transform="scale(0.015625)"/>
     </defs>
     <use xlink:href="#DejaVuSans-35"/>
     <use xlink:href="#DejaVuSans-2d" x="63.623047"/>
     <use xlink:href="#DejaVuSans-44" x="99.707031"/>
    </g>
   </g>
   <g id="text_17">
    <!-- 3-D -->
    <g transform="translate(386.578944 72.685909)scale(0.14 -0.14)">
     <defs>
      <path id="DejaVuSans-33" d="M 2597 2516 
Q 3050 2419 3304 2112 
Q 3559 1806 3559 1356 
Q 3559 666 3084 287 
Q 2609 -91 1734 -91 
Q 1441 -91 1130 -33 
Q 819 25 488 141 
L 488 750 
Q 750 597 1062 519 
Q 1375 441 1716 441 
Q 2309 441 2620 675 
Q 2931 909 2931 1356 
Q 2931 1769 2642 2001 
Q 2353 2234 1838 2234 
L 1294 2234 
L 1294 2753 
L 1863 2753 
Q 2328 2753 2575 2939 
Q 2822 3125 2822 3475 
Q 2822 3834 2567 4026 
Q 2313 4219 1838 4219 
Q 1578 4219 1281 4162 
Q 984 4106 628 3988 
L 628 4550 
Q 988 4650 1302 4700 
Q 1616 4750 1894 4750 
Q 2613 4750 3031 4423 
Q 3450 4097 3450 3541 
Q 3450 3153 3228 2886 
Q 3006 2619 2597 2516 
z
" transform="scale(0.015625)"/>
     </defs>
     <use xlink:href="#DejaVuSans-33"/>
     <use xlink:href="#DejaVuSans-2d" x="63.623047"/>
     <use xlink:href="#DejaVuSans-44" x="99.707031"/>
    </g>
   </g>
   <g id="text_18">
    <!-- 2-D -->
    <g transform="translate(386.578944 16.615765)scale(0.14 -0.14)">
     <use xlink:href="#DejaVuSans-32"/>
     <use xlink:href="#DejaVuSans-2d" x="63.623047"/>
     <use xlink:href="#DejaVuSans-44" x="99.707031"/>
    </g>
   </g>
   <g id="text_19">
    <!-- bbob-biobj f9, f10, f18, f19 -->
    <g transform="translate(60.632064 17.582726)scale(0.102 -0.102)">
     <defs>
      <path id="DejaVuSans-62" d="M 3116 1747 
Q 3116 2381 2855 2742 
Q 2594 3103 2138 3103 
Q 1681 3103 1420 2742 
Q 1159 2381 1159 1747 
Q 1159 1113 1420 752 
Q 1681 391 2138 391 
Q 2594 391 2855 752 
Q 3116 1113 3116 1747 
z
M 1159 2969 
Q 1341 3281 1617 3432 
Q 1894 3584 2278 3584 
Q 2916 3584 3314 3078 
Q 3713 2572 3713 1747 
Q 3713 922 3314 415 
Q 2916 -91 2278 -91 
Q 1894 -91 1617 61 
Q 1341 213 1159 525 
L 1159 0 
L 581 0 
L 581 4863 
L 1159 4863 
L 1159 2969 
z
" transform="scale(0.015625)"/>
      <path id="DejaVuSans-6a" d="M 603 3500 
L 1178 3500 
L 1178 -63 
Q 1178 -731 923 -1031 
Q 669 -1331 103 -1331 
L -116 -1331 
L -116 -844 
L 38 -844 
Q 366 -844 484 -692 
Q 603 -541 603 -63 
L 603 3500 
z
M 603 4863 
L 1178 4863 
L 1178 4134 
L 603 4134 
L 603 4863 
z
" transform="scale(0.015625)"/>
      <path id="DejaVuSans-39" d="M 703 97 
L 703 672 
Q 941 559 1184 500 
Q 1428 441 1663 441 
Q 2288 441 2617 861 
Q 2947 1281 2994 2138 
Q 2813 1869 2534 1725 
Q 2256 1581 1919 1581 
Q 1219 1581 811 2004 
Q 403 2428 403 3163 
Q 403 3881 828 4315 
Q 1253 4750 1959 4750 
Q 2769 4750 3195 4129 
Q 3622 3509 3622 2328 
Q 3622 1225 3098 567 
Q 2575 -91 1691 -91 
Q 1453 -91 1209 -44 
Q 966 3 703 97 
z
M 1959 2075 
Q 2384 2075 2632 2365 
Q 2881 2656 2881 3163 
Q 2881 3666 2632 3958 
Q 2384 4250 1959 4250 
Q 1534 4250 1286 3958 
Q 1038 3666 1038 3163 
Q 1038 2656 1286 2365 
Q 1534 2075 1959 2075 
z
" transform="scale(0.015625)"/>
     </defs>
     <use xlink:href="#DejaVuSans-62"/>
     <use xlink:href="#DejaVuSans-62" x="63.476562"/>
     <use xlink:href="#DejaVuSans-6f" x="126.953125"/>
     <use xlink:href="#DejaVuSans-62" x="188.134766"/>
     <use xlink:href="#DejaVuSans-2d" x="251.611328"/>
     <use xlink:href="#DejaVuSans-62" x="287.695312"/>
     <use xlink:href="#DejaVuSans-69" x="351.171875"/>
     <use xlink:href="#DejaVuSans-6f" x="378.955078"/>
     <use xlink:href="#DejaVuSans-62" x="440.136719"/>
     <use xlink:href="#DejaVuSans-6a" x="503.613281"/>
     <use xlink:href="#DejaVuSans-20" x="531.396484"/>
     <use xlink:href="#DejaVuSans-66" x="563.183594"/>
     <use xlink:href="#DejaVuSans-39" x="598.388672"/>
     <use xlink:href="#DejaVuSans-2c" x="662.011719"/>
     <use xlink:href="#DejaVuSans-20" x="693.798828"/>
     <use xlink:href="#DejaVuSans-66" x="725.585938"/>
     <use xlink:href="#DejaVuSans-31" x="760.791016"/>
     <use xlink:href="#DejaVuSans-30" x="824.414062"/>
     <use xlink:href="#DejaVuSans-2c" x="888.037109"/>
     <use xlink:href="#DejaVuSans-20" x="919.824219"/>
     <use xlink:href="#DejaVuSans-66" x="951.611328"/>
     <use xlink:href="#DejaVuSans-31" x="986.816406"/>
     <use xlink:href="#DejaVuSans-38" x="1050.439453"/>
     <use xlink:href="#DejaVuSans-2c" x="1114.0625"/>
     <use xlink:href="#DejaVuSans-20" x="1145.849609"/>
     <use xlink:href="#DejaVuSans-66" x="1177.636719"/>
     <use xlink:href="#DejaVuSans-31" x="1212.841797"/>
     <use xlink:href="#DejaVuSans-39" x="1276.464844"/>
    </g>
    <!-- 58 targets: 1..-1.0e-4 -->
    <g transform="translate(60.632064 29.004495)scale(0.102 -0.102)">
     <defs>
      <path id="DejaVuSans-3a" d="M 750 794 
L 1409 794 
L 1409 0 
L 750 0 
L 750 794 
z
M 750 3309 
L 1409 3309 
L 1409 2516 
L 750 2516 
L 750 3309 
z
" transform="scale(0.015625)"/>
     </defs>
     <use xlink:href="#DejaVuSans-35"/>
     <use xlink:href="#DejaVuSans-38" x="63.623047"/>
     <use xlink:href="#DejaVuSans-20" x="127.246094"/>
     <use xlink:href="#DejaVuSans-74" x="159.033203"/>
     <use xlink:href="#DejaVuSans-61" x="198.242188"/>
     <use xlink:href="#DejaVuSans-72" x="259.521484"/>
     <use xlink:href="#DejaVuSans-67" x="298.884766"/>
     <use xlink:href="#DejaVuSans-65" x="362.361328"/>
     <use xlink:href="#DejaVuSans-74" x="423.884766"/>
     <use xlink:href="#DejaVuSans-73" x="463.09375"/>
     <use xlink:href="#DejaVuSans-3a" x="515.193359"/>
     <use xlink:href="#DejaVuSans-20" x="548.884766"/>
     <use xlink:href="#DejaVuSans-31" x="580.671875"/>
     <use xlink:href="#DejaVuSans-2e" x="644.294922"/>
     <use xlink:href="#DejaVuSans-2e" x="676.082031"/>
     <use xlink:href="#DejaVuSans-2d" x="707.869141"/>
     <use xlink:href="#DejaVuSans-31" x="743.953125"/>
     <use xlink:href="#DejaVuSans-2e" x="807.576172"/>
     <use xlink:href="#DejaVuSans-30" x="839.363281"/>
     <use xlink:href="#DejaVuSans-65" x="902.986328"/>
     <use xlink:href="#DejaVuSans-2d" x="964.509766"/>
     <use xlink:href="#DejaVuSans-34" x="1000.59375"/>
    </g>
    <!-- 10 instances -->
    <g transform="translate(60.632064 40.426264)scale(0.102 -0.102)">
     <use xlink:href="#DejaVuSans-31"/>
     <use xlink:href="#DejaVuSans-30" x="63.623047"/>
     <use xlink:href="#DejaVuSans-20" x="127.246094"/>
     <use xlink:href="#DejaVuSans-69" x="159.033203"/>
     <use xlink:href="#DejaVuSans-6e" x="186.816406"/>
     <use xlink:href="#DejaVuSans-73" x="250.195312"/>
     <use xlink:href="#DejaVuSans-74" x="302.294922"/>
     <use xlink:href="#DejaVuSans-61" x="341.503906"/>
     <use xlink:href="#DejaVuSans-6e" x="402.783203"/>
     <use xlink:href="#DejaVuSans-63" x="466.162109"/>
     <use xlink:href="#DejaVuSans-65" x="521.142578"/>
     <use xlink:href="#DejaVuSans-73" x="582.666016"/>
    </g>
   </g>
   <g id="text_20">
    <!-- v2.6, hv-hash=ff0e71e8cd978373 -->
    <g style="fill: #808080" transform="translate(123.707887 293.943992)scale(0.1 -0.1)">
     <defs>
      <path id="DejaVuSans-68" d="M 3513 2113 
L 3513 0 
L 2938 0 
L 2938 2094 
Q 2938 2591 2744 2837 
Q 2550 3084 2163 3084 
Q 1697 3084 1428 2787 
Q 1159 2491 1159 1978 
L 1159 0 
L 581 0 
L 581 4863 
L 1159 4863 
L 1159 2956 
Q 1366 3272 1645 3428 
Q 1925 3584 2291 3584 
Q 2894 3584 3203 3211 
Q 3513 2838 3513 2113 
z
" transform="scale(0.015625)"/>
      <path id="DejaVuSans-3d" d="M 678 2906 
L 4684 2906 
L 4684 2381 
L 678 2381 
L 678 2906 
z
M 678 1631 
L 4684 1631 
L 4684 1100 
L 678 1100 
L 678 1631 
z
" transform="scale(0.015625)"/>
      <path id="DejaVuSans-37" d="M 525 4666 
L 3525 4666 
L 3525 4397 
L 1831 0 
L 1172 0 
L 2766 4134 
L 525 4134 
L 525 4666 
z
" transform="scale(0.015625)"/>
     </defs>
     <use xlink:href="#DejaVuSans-76"/>
     <use xlink:href="#DejaVuSans-32" x="59.179688"/>
     <use xlink:href="#DejaVuSans-2e" x="122.802734"/>
     <use xlink:href="#DejaVuSans-36" x="154.589844"/>
     <use xlink:href="#DejaVuSans-2c" x="218.212891"/>
     <use xlink:href="#DejaVuSans-20" x="250"/>
     <use xlink:href="#DejaVuSans-68" x="281.787109"/>
     <use xlink:href="#DejaVuSans-76" x="345.166016"/>
     <use xlink:href="#DejaVuSans-2d" x="401.720703"/>
     <use xlink:href="#DejaVuSans-68" x="437.804688"/>
     <use xlink:href="#DejaVuSans-61" x="501.183594"/>
     <use xlink:href="#DejaVuSans-73" x="562.462891"/>
     <use xlink:href="#DejaVuSans-68" x="614.5625"/>
     <use xlink:href="#DejaVuSans-3d" x="677.941406"/>
     <use xlink:href="#DejaVuSans-66" x="761.730469"/>
     <use xlink:href="#DejaVuSans-66" x="796.935547"/>
     <use xlink:href="#DejaVuSans-30" x="832.140625"/>
     <use xlink:href="#DejaVuSans-65" x="895.763672"/>
     <use xlink:href="#DejaVuSans-37" x="957.287109"/>
     <use xlink:href="#DejaVuSans-31" x="1020.910156"/>
     <use xlink:href="#DejaVuSans-65" x="1084.533203"/>
     <use xlink:href="#DejaVuSans-38" x="1146.056641"/>
     <use xlink:href="#DejaVuSans-63" x="1209.679688"/>
     <use xlink:href="#DejaVuSans-64" x="1264.660156"/>
     <use xlink:href="#DejaVuSans-39" x="1328.136719"/>
     <use xlink:href="#DejaVuSans-37" x="1391.759766"/>
     <use xlink:href="#DejaVuSans-38" x="1455.382812"/>
     <use xlink:href="#DejaVuSans-33" x="1519.005859"/>
     <use xlink:href="#DejaVuSans-37" x="1582.628906"/>
     <use xlink:href="#DejaVuSans-33" x="1646.251953"/>
    </g>
   </g>
  </g>
 </g>
 <defs>
  <clipPath id="p1ff4512183">
   <rect x="57.6" y="6.912" width="303.2064" height="292.032"/>
  </clipPath>
 </defs>
</svg>
