<?xml version="1.0" encoding="utf-8" standalone="no"?>
<!DOCTYPE svg PUBLIC "-//W3C//DTD SVG 1.1//EN"
  "http://www.w3.org/Graphics/SVG/1.1/DTD/svg11.dtd">
<svg xmlns:xlink="http://www.w3.org/1999/xlink" width="460.8pt" height="345.6pt" viewBox="0 0 460.8 345.6" xmlns="http://www.w3.org/2000/svg" version="1.1">
 <metadata>
  <rdf:RDF xmlns:dc="http://purl.org/dc/elements/1.1/" xmlns:cc="http://creativecommons.org/ns#" xmlns:rdf="http://www.w3.org/1999/02/22-rdf-syntax-ns#">
   <cc:Work>
    <dc:type rdf:resource="http://purl.org/dc/dcmitype/StillImage"/>
    <dc:date>2022-06-19T17:22:28.900473</dc:date>
    <dc:format>image/svg+xml</dc:format>
    <dc:creator>
     <cc:Agent>
      <dc:title>Matplotlib v3.5.2, https://matplotlib.org/</dc:title>
     </cc:Agent>
    </dc:creator>
   </cc:Work>
  </rdf:RDF>
 </metadata>
 <defs>
  <style type="text/css">*{stroke-linejoin: round; stroke-linecap: butt}</style>
 </defs>
 <g id="figure_1">
  <g id="patch_1">
   <path d="M 0 345.6 
L 460.8 345.6 
L 460.8 0 
L 0 0 
z
" style="fill: #ffffff"/>
  </g>
  <g id="axes_1">
   <g id="patch_2">
    <path d="M 57.6 298.944 
L 360.8064 298.944 
L 360.8064 6.912 
L 57.6 6.912 
z
" style="fill: #ffffff"/>
   </g>
   <g id="matplotlib.axis_1">
    <g id="xtick_1">
     <g id="line2d_1">
      <path d="M 57.6 298.944 
L 57.6 6.912 
" clip-path="url(#pf220fcc1a9)" style="fill: none; stroke: #b0b0b0; stroke-width: 0.8; stroke-linecap: square"/>
     </g>
     <g id="line2d_2">
      <defs>
       <path id="m3a4e6284ee" d="M 0 0 
L 0 3.5 
" style="stroke: #000000; stroke-width: 0.8"/>
      </defs>
      <g>
       <use xlink:href="#m3a4e6284ee" x="57.6" y="298.944" style="stroke: #000000; stroke-width: 0.8"/>
      </g>
     </g>
     <g id="text_1">
      <!-- 0 -->
      <g transform="translate(52.191875 318.861344)scale(0.17 -0.17)">
       <defs>
        <path id="DejaVuSans-30" d="M 2034 4250 
Q 1547 4250 1301 3770 
Q 1056 3291 1056 2328 
Q 1056 1369 1301 889 
Q 1547 409 2034 409 
Q 2525 409 2770 889 
Q 3016 1369 3016 2328 
Q 3016 3291 2770 3770 
Q 2525 4250 2034 4250 
z
M 2034 4750 
Q 2819 4750 3233 4129 
Q 3647 3509 3647 2328 
Q 3647 1150 3233 529 
Q 2819 -91 2034 -91 
Q 1250 -91 836 529 
Q 422 1150 422 2328 
Q 422 3509 836 4129 
Q 1250 4750 2034 4750 
z
" transform="scale(0.015625)"/>
       </defs>
       <use xlink:href="#DejaVuSans-30"/>
      </g>
     </g>
    </g>
    <g id="xtick_2">
     <g id="line2d_3">
      <path d="M 144.2304 298.944 
L 144.2304 6.912 
" clip-path="url(#pf220fcc1a9)" style="fill: none; stroke: #b0b0b0; stroke-width: 0.8; stroke-linecap: square"/>
     </g>
     <g id="line2d_4">
      <g>
       <use xlink:href="#m3a4e6284ee" x="144.2304" y="298.944" style="stroke: #000000; stroke-width: 0.8"/>
      </g>
     </g>
     <g id="text_2">
      <!-- 2 -->
      <g transform="translate(138.822275 318.861344)scale(0.17 -0.17)">
       <defs>
        <path id="DejaVuSans-32" d="M 1228 531 
L 3431 531 
L 3431 0 
L 469 0 
L 469 531 
Q 828 903 1448 1529 
Q 2069 2156 2228 2338 
Q 2531 2678 2651 2914 
Q 2772 3150 2772 3378 
Q 2772 3750 2511 3984 
Q 2250 4219 1831 4219 
Q 1534 4219 1204 4116 
Q 875 4013 500 3803 
L 500 4441 
Q 881 4594 1212 4672 
Q 1544 4750 1819 4750 
Q 2544 4750 2975 4387 
Q 3406 4025 3406 3419 
Q 3406 3131 3298 2873 
Q 3191 2616 2906 2266 
Q 2828 2175 2409 1742 
Q 1991 1309 1228 531 
z
" transform="scale(0.015625)"/>
       </defs>
       <use xlink:href="#DejaVuSans-32"/>
      </g>
     </g>
    </g>
    <g id="xtick_3">
     <g id="line2d_5">
      <path d="M 230.8608 298.944 
L 230.8608 6.912 
" clip-path="url(#pf220fcc1a9)" style="fill: none; stroke: #b0b0b0; stroke-width: 0.8; stroke-linecap: square"/>
     </g>
     <g id="line2d_6">
      <g>
       <use xlink:href="#m3a4e6284ee" x="230.8608" y="298.944" style="stroke: #000000; stroke-width: 0.8"/>
      </g>
     </g>
     <g id="text_3">
      <!-- 4 -->
      <g transform="translate(225.452675 318.861344)scale(0.17 -0.17)">
       <defs>
        <path id="DejaVuSans-34" d="M 2419 4116 
L 825 1625 
L 2419 1625 
L 2419 4116 
z
M 2253 4666 
L 3047 4666 
L 3047 1625 
L 3713 1625 
L 3713 1100 
L 3047 1100 
L 3047 0 
L 2419 0 
L 2419 1100 
L 313 1100 
L 313 1709 
L 2253 4666 
z
" transform="scale(0.015625)"/>
       </defs>
       <use xlink:href="#DejaVuSans-34"/>
      </g>
     </g>
    </g>
    <g id="xtick_4">
     <g id="line2d_7">
      <path d="M 317.4912 298.944 
L 317.4912 6.912 
" clip-path="url(#pf220fcc1a9)" style="fill: none; stroke: #b0b0b0; stroke-width: 0.8; stroke-linecap: square"/>
     </g>
     <g id="line2d_8">
      <g>
       <use xlink:href="#m3a4e6284ee" x="317.4912" y="298.944" style="stroke: #000000; stroke-width: 0.8"/>
      </g>
     </g>
     <g id="text_4">
      <!-- 6 -->
      <g transform="translate(312.083075 318.861344)scale(0.17 -0.17)">
       <defs>
        <path id="DejaVuSans-36" d="M 2113 2584 
Q 1688 2584 1439 2293 
Q 1191 2003 1191 1497 
Q 1191 994 1439 701 
Q 1688 409 2113 409 
Q 2538 409 2786 701 
Q 3034 994 3034 1497 
Q 3034 2003 2786 2293 
Q 2538 2584 2113 2584 
z
M 3366 4563 
L 3366 3988 
Q 3128 4100 2886 4159 
Q 2644 4219 2406 4219 
Q 1781 4219 1451 3797 
Q 1122 3375 1075 2522 
Q 1259 2794 1537 2939 
Q 1816 3084 2150 3084 
Q 2853 3084 3261 2657 
Q 3669 2231 3669 1497 
Q 3669 778 3244 343 
Q 2819 -91 2113 -91 
Q 1303 -91 875 529 
Q 447 1150 447 2328 
Q 447 3434 972 4092 
Q 1497 4750 2381 4750 
Q 2619 4750 2861 4703 
Q 3103 4656 3366 4563 
z
" transform="scale(0.015625)"/>
       </defs>
       <use xlink:href="#DejaVuSans-36"/>
      </g>
     </g>
    </g>
    <g id="xtick_5">
     <g id="line2d_9">
      <path d="M 100.9152 298.944 
L 100.9152 6.912 
" clip-path="url(#pf220fcc1a9)" style="fill: none; stroke: #b0b0b0; stroke-width: 0.8; stroke-linecap: square"/>
     </g>
     <g id="line2d_10">
      <defs>
       <path id="m7b1e9ff6d2" d="M 0 0 
L 0 2 
" style="stroke: #000000; stroke-width: 0.6"/>
      </defs>
      <g>
       <use xlink:href="#m7b1e9ff6d2" x="100.9152" y="298.944" style="stroke: #000000; stroke-width: 0.6"/>
      </g>
     </g>
    </g>
    <g id="xtick_6">
     <g id="line2d_11">
      <path d="M 187.5456 298.944 
L 187.5456 6.912 
" clip-path="url(#pf220fcc1a9)" style="fill: none; stroke: #b0b0b0; stroke-width: 0.8; stroke-linecap: square"/>
     </g>
     <g id="line2d_12">
      <g>
       <use xlink:href="#m7b1e9ff6d2" x="187.5456" y="298.944" style="stroke: #000000; stroke-width: 0.6"/>
      </g>
     </g>
    </g>
    <g id="xtick_7">
     <g id="line2d_13">
      <path d="M 274.176 298.944 
L 274.176 6.912 
" clip-path="url(#pf220fcc1a9)" style="fill: none; stroke: #b0b0b0; stroke-width: 0.8; stroke-linecap: square"/>
     </g>
     <g id="line2d_14">
      <g>
       <use xlink:href="#m7b1e9ff6d2" x="274.176" y="298.944" style="stroke: #000000; stroke-width: 0.6"/>
      </g>
     </g>
    </g>
    <g id="xtick_8">
     <g id="line2d_15">
      <path d="M 360.8064 298.944 
L 360.8064 6.912 
" clip-path="url(#pf220fcc1a9)" style="fill: none; stroke: #b0b0b0; stroke-width: 0.8; stroke-linecap: square"/>
     </g>
     <g id="line2d_16">
      <g>
       <use xlink:href="#m7b1e9ff6d2" x="360.8064" y="298.944" style="stroke: #000000; stroke-width: 0.6"/>
      </g>
     </g>
    </g>
    <g id="text_5">
     <!-- log10(# f-evals / dimension) -->
     <g transform="translate(88.823278 339.314156)scale(0.17 -0.17)">
      <defs>
       <path id="DejaVuSans-6c" d="M 603 4863 
L 1178 4863 
L 1178 0 
L 603 0 
L 603 4863 
z
" transform="scale(0.015625)"/>
       <path id="DejaVuSans-6f" d="M 1959 3097 
Q 1497 3097 1228 2736 
Q 959 2375 959 1747 
Q 959 1119 1226 758 
Q 1494 397 1959 397 
Q 2419 397 2687 759 
Q 2956 1122 2956 1747 
Q 2956 2369 2687 2733 
Q 2419 3097 1959 3097 
z
M 1959 3584 
Q 2709 3584 3137 3096 
Q 3566 2609 3566 1747 
Q 3566 888 3137 398 
Q 2709 -91 1959 -91 
Q 1206 -91 779 398 
Q 353 888 353 1747 
Q 353 2609 779 3096 
Q 1206 3584 1959 3584 
z
" transform="scale(0.015625)"/>
       <path id="DejaVuSans-67" d="M 2906 1791 
Q 2906 2416 2648 2759 
Q 2391 3103 1925 3103 
Q 1463 3103 1205 2759 
Q 947 2416 947 1791 
Q 947 1169 1205 825 
Q 1463 481 1925 481 
Q 2391 481 2648 825 
Q 2906 1169 2906 1791 
z
M 3481 434 
Q 3481 -459 3084 -895 
Q 2688 -1331 1869 -1331 
Q 1566 -1331 1297 -1286 
Q 1028 -1241 775 -1147 
L 775 -588 
Q 1028 -725 1275 -790 
Q 1522 -856 1778 -856 
Q 2344 -856 2625 -561 
Q 2906 -266 2906 331 
L 2906 616 
Q 2728 306 2450 153 
Q 2172 0 1784 0 
Q 1141 0 747 490 
Q 353 981 353 1791 
Q 353 2603 747 3093 
Q 1141 3584 1784 3584 
Q 2172 3584 2450 3431 
Q 2728 3278 2906 2969 
L 2906 3500 
L 3481 3500 
L 3481 434 
z
" transform="scale(0.015625)"/>
       <path id="DejaVuSans-31" d="M 794 531 
L 1825 531 
L 1825 4091 
L 703 3866 
L 703 4441 
L 1819 4666 
L 2450 4666 
L 2450 531 
L 3481 531 
L 3481 0 
L 794 0 
L 794 531 
z
" transform="scale(0.015625)"/>
       <path id="DejaVuSans-28" d="M 1984 4856 
Q 1566 4138 1362 3434 
Q 1159 2731 1159 2009 
Q 1159 1288 1364 580 
Q 1569 -128 1984 -844 
L 1484 -844 
Q 1016 -109 783 600 
Q 550 1309 550 2009 
Q 550 2706 781 3412 
Q 1013 4119 1484 4856 
L 1984 4856 
z
" transform="scale(0.015625)"/>
       <path id="DejaVuSans-23" d="M 3272 2816 
L 2363 2816 
L 2100 1772 
L 3016 1772 
L 3272 2816 
z
M 2803 4594 
L 2478 3297 
L 3391 3297 
L 3719 4594 
L 4219 4594 
L 3897 3297 
L 4872 3297 
L 4872 2816 
L 3775 2816 
L 3519 1772 
L 4513 1772 
L 4513 1294 
L 3397 1294 
L 3072 0 
L 2572 0 
L 2894 1294 
L 1978 1294 
L 1656 0 
L 1153 0 
L 1478 1294 
L 494 1294 
L 494 1772 
L 1594 1772 
L 1856 2816 
L 850 2816 
L 850 3297 
L 1978 3297 
L 2297 4594 
L 2803 4594 
z
" transform="scale(0.015625)"/>
       <path id="DejaVuSans-20" transform="scale(0.015625)"/>
       <path id="DejaVuSans-66" d="M 2375 4863 
L 2375 4384 
L 1825 4384 
Q 1516 4384 1395 4259 
Q 1275 4134 1275 3809 
L 1275 3500 
L 2222 3500 
L 2222 3053 
L 1275 3053 
L 1275 0 
L 697 0 
L 697 3053 
L 147 3053 
L 147 3500 
L 697 3500 
L 697 3744 
Q 697 4328 969 4595 
Q 1241 4863 1831 4863 
L 2375 4863 
z
" transform="scale(0.015625)"/>
       <path id="DejaVuSans-2d" d="M 313 2009 
L 1997 2009 
L 1997 1497 
L 313 1497 
L 313 2009 
z
" transform="scale(0.015625)"/>
       <path id="DejaVuSans-65" d="M 3597 1894 
L 3597 1613 
L 953 1613 
Q 991 1019 1311 708 
Q 1631 397 2203 397 
Q 2534 397 2845 478 
Q 3156 559 3463 722 
L 3463 178 
Q 3153 47 2828 -22 
Q 2503 -91 2169 -91 
Q 1331 -91 842 396 
Q 353 884 353 1716 
Q 353 2575 817 3079 
Q 1281 3584 2069 3584 
Q 2775 3584 3186 3129 
Q 3597 2675 3597 1894 
z
M 3022 2063 
Q 3016 2534 2758 2815 
Q 2500 3097 2075 3097 
Q 1594 3097 1305 2825 
Q 1016 2553 972 2059 
L 3022 2063 
z
" transform="scale(0.015625)"/>
       <path id="DejaVuSans-76" d="M 191 3500 
L 800 3500 
L 1894 563 
L 2988 3500 
L 3597 3500 
L 2284 0 
L 1503 0 
L 191 3500 
z
" transform="scale(0.015625)"/>
       <path id="DejaVuSans-61" d="M 2194 1759 
Q 1497 1759 1228 1600 
Q 959 1441 959 1056 
Q 959 750 1161 570 
Q 1363 391 1709 391 
Q 2188 391 2477 730 
Q 2766 1069 2766 1631 
L 2766 1759 
L 2194 1759 
z
M 3341 1997 
L 3341 0 
L 2766 0 
L 2766 531 
Q 2569 213 2275 61 
Q 1981 -91 1556 -91 
Q 1019 -91 701 211 
Q 384 513 384 1019 
Q 384 1609 779 1909 
Q 1175 2209 1959 2209 
L 2766 2209 
L 2766 2266 
Q 2766 2663 2505 2880 
Q 2244 3097 1772 3097 
Q 1472 3097 1187 3025 
Q 903 2953 641 2809 
L 641 3341 
Q 956 3463 1253 3523 
Q 1550 3584 1831 3584 
Q 2591 3584 2966 3190 
Q 3341 2797 3341 1997 
z
" transform="scale(0.015625)"/>
       <path id="DejaVuSans-73" d="M 2834 3397 
L 2834 2853 
Q 2591 2978 2328 3040 
Q 2066 3103 1784 3103 
Q 1356 3103 1142 2972 
Q 928 2841 928 2578 
Q 928 2378 1081 2264 
Q 1234 2150 1697 2047 
L 1894 2003 
Q 2506 1872 2764 1633 
Q 3022 1394 3022 966 
Q 3022 478 2636 193 
Q 2250 -91 1575 -91 
Q 1294 -91 989 -36 
Q 684 19 347 128 
L 347 722 
Q 666 556 975 473 
Q 1284 391 1588 391 
Q 1994 391 2212 530 
Q 2431 669 2431 922 
Q 2431 1156 2273 1281 
Q 2116 1406 1581 1522 
L 1381 1569 
Q 847 1681 609 1914 
Q 372 2147 372 2553 
Q 372 3047 722 3315 
Q 1072 3584 1716 3584 
Q 2034 3584 2315 3537 
Q 2597 3491 2834 3397 
z
" transform="scale(0.015625)"/>
       <path id="DejaVuSans-2f" d="M 1625 4666 
L 2156 4666 
L 531 -594 
L 0 -594 
L 1625 4666 
z
" transform="scale(0.015625)"/>
       <path id="DejaVuSans-64" d="M 2906 2969 
L 2906 4863 
L 3481 4863 
L 3481 0 
L 2906 0 
L 2906 525 
Q 2725 213 2448 61 
Q 2172 -91 1784 -91 
Q 1150 -91 751 415 
Q 353 922 353 1747 
Q 353 2572 751 3078 
Q 1150 3584 1784 3584 
Q 2172 3584 2448 3432 
Q 2725 3281 2906 2969 
z
M 947 1747 
Q 947 1113 1208 752 
Q 1469 391 1925 391 
Q 2381 391 2643 752 
Q 2906 1113 2906 1747 
Q 2906 2381 2643 2742 
Q 2381 3103 1925 3103 
Q 1469 3103 1208 2742 
Q 947 2381 947 1747 
z
" transform="scale(0.015625)"/>
       <path id="DejaVuSans-69" d="M 603 3500 
L 1178 3500 
L 1178 0 
L 603 0 
L 603 3500 
z
M 603 4863 
L 1178 4863 
L 1178 4134 
L 603 4134 
L 603 4863 
z
" transform="scale(0.015625)"/>
       <path id="DejaVuSans-6d" d="M 3328 2828 
Q 3544 3216 3844 3400 
Q 4144 3584 4550 3584 
Q 5097 3584 5394 3201 
Q 5691 2819 5691 2113 
L 5691 0 
L 5113 0 
L 5113 2094 
Q 5113 2597 4934 2840 
Q 4756 3084 4391 3084 
Q 3944 3084 3684 2787 
Q 3425 2491 3425 1978 
L 3425 0 
L 2847 0 
L 2847 2094 
Q 2847 2600 2669 2842 
Q 2491 3084 2119 3084 
Q 1678 3084 1418 2786 
Q 1159 2488 1159 1978 
L 1159 0 
L 581 0 
L 581 3500 
L 1159 3500 
L 1159 2956 
Q 1356 3278 1631 3431 
Q 1906 3584 2284 3584 
Q 2666 3584 2933 3390 
Q 3200 3197 3328 2828 
z
" transform="scale(0.015625)"/>
       <path id="DejaVuSans-6e" d="M 3513 2113 
L 3513 0 
L 2938 0 
L 2938 2094 
Q 2938 2591 2744 2837 
Q 2550 3084 2163 3084 
Q 1697 3084 1428 2787 
Q 1159 2491 1159 1978 
L 1159 0 
L 581 0 
L 581 3500 
L 1159 3500 
L 1159 2956 
Q 1366 3272 1645 3428 
Q 1925 3584 2291 3584 
Q 2894 3584 3203 3211 
Q 3513 2838 3513 2113 
z
" transform="scale(0.015625)"/>
       <path id="DejaVuSans-29" d="M 513 4856 
L 1013 4856 
Q 1481 4119 1714 3412 
Q 1947 2706 1947 2009 
Q 1947 1309 1714 600 
Q 1481 -109 1013 -844 
L 513 -844 
Q 928 -128 1133 580 
Q 1338 1288 1338 2009 
Q 1338 2731 1133 3434 
Q 928 4138 513 4856 
z
" transform="scale(0.015625)"/>
      </defs>
      <use xlink:href="#DejaVuSans-6c"/>
      <use xlink:href="#DejaVuSans-6f" x="27.783203"/>
      <use xlink:href="#DejaVuSans-67" x="88.964844"/>
      <use xlink:href="#DejaVuSans-31" x="152.441406"/>
      <use xlink:href="#DejaVuSans-30" x="216.064453"/>
      <use xlink:href="#DejaVuSans-28" x="279.6875"/>
      <use xlink:href="#DejaVuSans-23" x="318.701172"/>
      <use xlink:href="#DejaVuSans-20" x="402.490234"/>
      <use xlink:href="#DejaVuSans-66" x="434.277344"/>
      <use xlink:href="#DejaVuSans-2d" x="463.982422"/>
      <use xlink:href="#DejaVuSans-65" x="500.066406"/>
      <use xlink:href="#DejaVuSans-76" x="561.589844"/>
      <use xlink:href="#DejaVuSans-61" x="620.769531"/>
      <use xlink:href="#DejaVuSans-6c" x="682.048828"/>
      <use xlink:href="#DejaVuSans-73" x="709.832031"/>
      <use xlink:href="#DejaVuSans-20" x="761.931641"/>
      <use xlink:href="#DejaVuSans-2f" x="793.71875"/>
      <use xlink:href="#DejaVuSans-20" x="827.410156"/>
      <use xlink:href="#DejaVuSans-64" x="859.197266"/>
      <use xlink:href="#DejaVuSans-69" x="922.673828"/>
      <use xlink:href="#DejaVuSans-6d" x="950.457031"/>
      <use xlink:href="#DejaVuSans-65" x="1047.869141"/>
      <use xlink:href="#DejaVuSans-6e" x="1109.392578"/>
      <use xlink:href="#DejaVuSans-73" x="1172.771484"/>
      <use xlink:href="#DejaVuSans-69" x="1224.871094"/>
      <use xlink:href="#DejaVuSans-6f" x="1252.654297"/>
      <use xlink:href="#DejaVuSans-6e" x="1313.835938"/>
      <use xlink:href="#DejaVuSans-29" x="1377.214844"/>
     </g>
    </g>
   </g>
   <g id="matplotlib.axis_2">
    <g id="ytick_1">
     <g id="line2d_17">
      <path d="M 57.6 298.944 
L 360.8064 298.944 
" clip-path="url(#pf220fcc1a9)" style="fill: none; stroke: #b0b0b0; stroke-width: 0.8; stroke-linecap: square"/>
     </g>
     <g id="line2d_18">
      <defs>
       <path id="m78c499e11d" d="M 0 0 
L -3.5 0 
" style="stroke: #000000; stroke-width: 0.8"/>
      </defs>
      <g>
       <use xlink:href="#m78c499e11d" x="57.6" y="298.944" style="stroke: #000000; stroke-width: 0.8"/>
      </g>
     </g>
     <g id="text_6">
      <!-- 0.0 -->
      <g transform="translate(25.155 305.02275)scale(0.16 -0.16)">
       <defs>
        <path id="DejaVuSans-2e" d="M 684 794 
L 1344 794 
L 1344 0 
L 684 0 
L 684 794 
z
" transform="scale(0.015625)"/>
       </defs>
       <use xlink:href="#DejaVuSans-30"/>
       <use xlink:href="#DejaVuSans-2e" x="63.623047"/>
       <use xlink:href="#DejaVuSans-30" x="95.410156"/>
      </g>
     </g>
    </g>
    <g id="ytick_2">
     <g id="line2d_19">
      <path d="M 57.6 240.5376 
L 360.8064 240.5376 
" clip-path="url(#pf220fcc1a9)" style="fill: none; stroke: #b0b0b0; stroke-width: 0.8; stroke-linecap: square"/>
     </g>
     <g id="line2d_20">
      <g>
       <use xlink:href="#m78c499e11d" x="57.6" y="240.5376" style="stroke: #000000; stroke-width: 0.8"/>
      </g>
     </g>
     <g id="text_7">
      <!-- 0.2 -->
      <g transform="translate(25.155 246.61635)scale(0.16 -0.16)">
       <use xlink:href="#DejaVuSans-30"/>
       <use xlink:href="#DejaVuSans-2e" x="63.623047"/>
       <use xlink:href="#DejaVuSans-32" x="95.410156"/>
      </g>
     </g>
    </g>
    <g id="ytick_3">
     <g id="line2d_21">
      <path d="M 57.6 182.1312 
L 360.8064 182.1312 
" clip-path="url(#pf220fcc1a9)" style="fill: none; stroke: #b0b0b0; stroke-width: 0.8; stroke-linecap: square"/>
     </g>
     <g id="line2d_22">
      <g>
       <use xlink:href="#m78c499e11d" x="57.6" y="182.1312" style="stroke: #000000; stroke-width: 0.8"/>
      </g>
     </g>
     <g id="text_8">
      <!-- 0.4 -->
      <g transform="translate(25.155 188.20995)scale(0.16 -0.16)">
       <use xlink:href="#DejaVuSans-30"/>
       <use xlink:href="#DejaVuSans-2e" x="63.623047"/>
       <use xlink:href="#DejaVuSans-34" x="95.410156"/>
      </g>
     </g>
    </g>
    <g id="ytick_4">
     <g id="line2d_23">
      <path d="M 57.6 123.7248 
L 360.8064 123.7248 
" clip-path="url(#pf220fcc1a9)" style="fill: none; stroke: #b0b0b0; stroke-width: 0.8; stroke-linecap: square"/>
     </g>
     <g id="line2d_24">
      <g>
       <use xlink:href="#m78c499e11d" x="57.6" y="123.7248" style="stroke: #000000; stroke-width: 0.8"/>
      </g>
     </g>
     <g id="text_9">
      <!-- 0.6 -->
      <g transform="translate(25.155 129.80355)scale(0.16 -0.16)">
       <use xlink:href="#DejaVuSans-30"/>
       <use xlink:href="#DejaVuSans-2e" x="63.623047"/>
       <use xlink:href="#DejaVuSans-36" x="95.410156"/>
      </g>
     </g>
    </g>
    <g id="ytick_5">
     <g id="line2d_25">
      <path d="M 57.6 65.3184 
L 360.8064 65.3184 
" clip-path="url(#pf220fcc1a9)" style="fill: none; stroke: #b0b0b0; stroke-width: 0.8; stroke-linecap: square"/>
     </g>
     <g id="line2d_26">
      <g>
       <use xlink:href="#m78c499e11d" x="57.6" y="65.3184" style="stroke: #000000; stroke-width: 0.8"/>
      </g>
     </g>
     <g id="text_10">
      <!-- 0.8 -->
      <g transform="translate(25.155 71.39715)scale(0.16 -0.16)">
       <defs>
        <path id="DejaVuSans-38" d="M 2034 2216 
Q 1584 2216 1326 1975 
Q 1069 1734 1069 1313 
Q 1069 891 1326 650 
Q 1584 409 2034 409 
Q 2484 409 2743 651 
Q 3003 894 3003 1313 
Q 3003 1734 2745 1975 
Q 2488 2216 2034 2216 
z
M 1403 2484 
Q 997 2584 770 2862 
Q 544 3141 544 3541 
Q 544 4100 942 4425 
Q 1341 4750 2034 4750 
Q 2731 4750 3128 4425 
Q 3525 4100 3525 3541 
Q 3525 3141 3298 2862 
Q 3072 2584 2669 2484 
Q 3125 2378 3379 2068 
Q 3634 1759 3634 1313 
Q 3634 634 3220 271 
Q 2806 -91 2034 -91 
Q 1263 -91 848 271 
Q 434 634 434 1313 
Q 434 1759 690 2068 
Q 947 2378 1403 2484 
z
M 1172 3481 
Q 1172 3119 1398 2916 
Q 1625 2713 2034 2713 
Q 2441 2713 2670 2916 
Q 2900 3119 2900 3481 
Q 2900 3844 2670 4047 
Q 2441 4250 2034 4250 
Q 1625 4250 1398 4047 
Q 1172 3844 1172 3481 
z
" transform="scale(0.015625)"/>
       </defs>
       <use xlink:href="#DejaVuSans-30"/>
       <use xlink:href="#DejaVuSans-2e" x="63.623047"/>
       <use xlink:href="#DejaVuSans-38" x="95.410156"/>
      </g>
     </g>
    </g>
    <g id="ytick_6">
     <g id="line2d_27">
      <path d="M 57.6 6.912 
L 360.8064 6.912 
" clip-path="url(#pf220fcc1a9)" style="fill: none; stroke: #b0b0b0; stroke-width: 0.8; stroke-linecap: square"/>
     </g>
     <g id="line2d_28">
      <g>
       <use xlink:href="#m78c499e11d" x="57.6" y="6.912" style="stroke: #000000; stroke-width: 0.8"/>
      </g>
     </g>
     <g id="text_11">
      <!-- 1.0 -->
      <g transform="translate(25.155 12.99075)scale(0.16 -0.16)">
       <use xlink:href="#DejaVuSans-31"/>
       <use xlink:href="#DejaVuSans-2e" x="63.623047"/>
       <use xlink:href="#DejaVuSans-30" x="95.410156"/>
      </g>
     </g>
    </g>
    <g id="text_12">
     <!-- Fraction of function,target pairs -->
     <g transform="translate(17.619531 287.313)rotate(-90)scale(0.17 -0.17)">
      <defs>
       <path id="DejaVuSans-46" d="M 628 4666 
L 3309 4666 
L 3309 4134 
L 1259 4134 
L 1259 2759 
L 3109 2759 
L 3109 2228 
L 1259 2228 
L 1259 0 
L 628 0 
L 628 4666 
z
" transform="scale(0.015625)"/>
       <path id="DejaVuSans-72" d="M 2631 2963 
Q 2534 3019 2420 3045 
Q 2306 3072 2169 3072 
Q 1681 3072 1420 2755 
Q 1159 2438 1159 1844 
L 1159 0 
L 581 0 
L 581 3500 
L 1159 3500 
L 1159 2956 
Q 1341 3275 1631 3429 
Q 1922 3584 2338 3584 
Q 2397 3584 2469 3576 
Q 2541 3569 2628 3553 
L 2631 2963 
z
" transform="scale(0.015625)"/>
       <path id="DejaVuSans-63" d="M 3122 3366 
L 3122 2828 
Q 2878 2963 2633 3030 
Q 2388 3097 2138 3097 
Q 1578 3097 1268 2742 
Q 959 2388 959 1747 
Q 959 1106 1268 751 
Q 1578 397 2138 397 
Q 2388 397 2633 464 
Q 2878 531 3122 666 
L 3122 134 
Q 2881 22 2623 -34 
Q 2366 -91 2075 -91 
Q 1284 -91 818 406 
Q 353 903 353 1747 
Q 353 2603 823 3093 
Q 1294 3584 2113 3584 
Q 2378 3584 2631 3529 
Q 2884 3475 3122 3366 
z
" transform="scale(0.015625)"/>
       <path id="DejaVuSans-74" d="M 1172 4494 
L 1172 3500 
L 2356 3500 
L 2356 3053 
L 1172 3053 
L 1172 1153 
Q 1172 725 1289 603 
Q 1406 481 1766 481 
L 2356 481 
L 2356 0 
L 1766 0 
Q 1100 0 847 248 
Q 594 497 594 1153 
L 594 3053 
L 172 3053 
L 172 3500 
L 594 3500 
L 594 4494 
L 1172 4494 
z
" transform="scale(0.015625)"/>
       <path id="DejaVuSans-75" d="M 544 1381 
L 544 3500 
L 1119 3500 
L 1119 1403 
Q 1119 906 1312 657 
Q 1506 409 1894 409 
Q 2359 409 2629 706 
Q 2900 1003 2900 1516 
L 2900 3500 
L 3475 3500 
L 3475 0 
L 2900 0 
L 2900 538 
Q 2691 219 2414 64 
Q 2138 -91 1772 -91 
Q 1169 -91 856 284 
Q 544 659 544 1381 
z
M 1991 3584 
L 1991 3584 
z
" transform="scale(0.015625)"/>
       <path id="DejaVuSans-2c" d="M 750 794 
L 1409 794 
L 1409 256 
L 897 -744 
L 494 -744 
L 750 256 
L 750 794 
z
" transform="scale(0.015625)"/>
       <path id="DejaVuSans-70" d="M 1159 525 
L 1159 -1331 
L 581 -1331 
L 581 3500 
L 1159 3500 
L 1159 2969 
Q 1341 3281 1617 3432 
Q 1894 3584 2278 3584 
Q 2916 3584 3314 3078 
Q 3713 2572 3713 1747 
Q 3713 922 3314 415 
Q 2916 -91 2278 -91 
Q 1894 -91 1617 61 
Q 1341 213 1159 525 
z
M 3116 1747 
Q 3116 2381 2855 2742 
Q 2594 3103 2138 3103 
Q 1681 3103 1420 2742 
Q 1159 2381 1159 1747 
Q 1159 1113 1420 752 
Q 1681 391 2138 391 
Q 2594 391 2855 752 
Q 3116 1113 3116 1747 
z
" transform="scale(0.015625)"/>
      </defs>
      <use xlink:href="#DejaVuSans-46"/>
      <use xlink:href="#DejaVuSans-72" x="50.269531"/>
      <use xlink:href="#DejaVuSans-61" x="91.382812"/>
      <use xlink:href="#DejaVuSans-63" x="152.662109"/>
      <use xlink:href="#DejaVuSans-74" x="207.642578"/>
      <use xlink:href="#DejaVuSans-69" x="246.851562"/>
      <use xlink:href="#DejaVuSans-6f" x="274.634766"/>
      <use xlink:href="#DejaVuSans-6e" x="335.816406"/>
      <use xlink:href="#DejaVuSans-20" x="399.195312"/>
      <use xlink:href="#DejaVuSans-6f" x="430.982422"/>
      <use xlink:href="#DejaVuSans-66" x="492.164062"/>
      <use xlink:href="#DejaVuSans-20" x="527.369141"/>
      <use xlink:href="#DejaVuSans-66" x="559.15625"/>
      <use xlink:href="#DejaVuSans-75" x="594.361328"/>
      <use xlink:href="#DejaVuSans-6e" x="657.740234"/>
      <use xlink:href="#DejaVuSans-63" x="721.119141"/>
      <use xlink:href="#DejaVuSans-74" x="776.099609"/>
      <use xlink:href="#DejaVuSans-69" x="815.308594"/>
      <use xlink:href="#DejaVuSans-6f" x="843.091797"/>
      <use xlink:href="#DejaVuSans-6e" x="904.273438"/>
      <use xlink:href="#DejaVuSans-2c" x="967.652344"/>
      <use xlink:href="#DejaVuSans-74" x="999.439453"/>
      <use xlink:href="#DejaVuSans-61" x="1038.648438"/>
      <use xlink:href="#DejaVuSans-72" x="1099.927734"/>
      <use xlink:href="#DejaVuSans-67" x="1139.291016"/>
      <use xlink:href="#DejaVuSans-65" x="1202.767578"/>
      <use xlink:href="#DejaVuSans-74" x="1264.291016"/>
      <use xlink:href="#DejaVuSans-20" x="1303.5"/>
      <use xlink:href="#DejaVuSans-70" x="1335.287109"/>
      <use xlink:href="#DejaVuSans-61" x="1398.763672"/>
      <use xlink:href="#DejaVuSans-69" x="1460.042969"/>
      <use xlink:href="#DejaVuSans-72" x="1487.826172"/>
      <use xlink:href="#DejaVuSans-73" x="1528.939453"/>
     </g>
    </g>
   </g>
   <g id="line2d_29">
    <defs>
     <path id="m25a3531361" d="M 0 1.5 
C 0.397805 1.5 0.77937 1.341951 1.06066 1.06066 
C 1.341951 0.77937 1.5 0.397805 1.5 0 
C 1.5 -0.397805 1.341951 -0.77937 1.06066 -1.06066 
C 0.77937 -1.341951 0.397805 -1.5 0 -1.5 
C -0.397805 -1.5 -0.77937 -1.341951 -1.06066 -1.06066 
C -1.341951 -0.77937 -1.5 -0.397805 -1.5 0 
C -1.5 0.397805 -1.341951 0.77937 -1.06066 1.06066 
C -0.77937 1.341951 -0.397805 1.5 0 1.5 
z
" style="stroke: #00bfbf"/>
    </defs>
    <g>
     <use xlink:href="#m25a3531361" x="205.118048" y="168.662483" style="fill: #00bfbf; stroke: #00bfbf"/>
     <use xlink:href="#m25a3531361" x="205.118048" y="168.662483" style="fill: #00bfbf; stroke: #00bfbf"/>
    </g>
   </g>
   <g id="line2d_30">
    <path d="M 44.560826 298.944 
L 44.560826 286.104662 
L 57.6 286.104662 
L 57.6 284.3424 
L 65.227428 284.3424 
L 65.227428 284.090648 
L 70.639174 284.090648 
L 70.639174 282.328386 
L 74.836851 282.328386 
L 74.836851 282.076634 
L 78.266603 282.076634 
L 78.266603 280.943752 
L 81.166416 280.943752 
L 81.166416 278.174483 
L 83.678349 278.174483 
L 83.678349 278.048607 
L 85.894031 278.048607 
L 85.894031 277.0416 
L 87.876026 277.0416 
L 87.876026 274.398207 
L 89.668958 274.398207 
L 89.668958 273.265324 
L 92.811505 273.265324 
L 92.811505 273.139448 
L 95.503454 273.139448 
L 95.503454 272.761821 
L 98.933205 272.761821 
L 98.933205 272.006566 
L 99.950294 272.006566 
L 99.950294 270.873683 
L 100.9152 270.873683 
L 100.9152 270.747807 
L 101.833019 270.747807 
L 101.833019 270.621931 
L 102.708132 270.621931 
L 102.708132 269.489048 
L 103.544339 269.489048 
L 103.544339 269.111421 
L 104.344952 269.111421 
L 104.344952 268.985545 
L 105.850679 268.985545 
L 105.850679 268.733793 
L 106.560633 268.733793 
L 106.560633 267.726786 
L 107.904887 267.726786 
L 107.904887 266.719779 
L 109.159456 266.719779 
L 109.159456 266.468028 
L 111.442442 266.468028 
L 111.442442 266.342152 
L 113.478107 266.342152 
L 113.478107 265.964524 
L 113.954374 265.964524 
L 113.954374 263.321131 
L 114.872193 263.321131 
L 114.872193 262.817628 
L 115.747307 262.817628 
L 115.747307 262.44 
L 116.170056 262.44 
L 116.170056 262.188248 
L 116.583514 262.188248 
L 116.583514 262.062372 
L 116.988079 262.062372 
L 116.988079 261.684745 
L 117.772007 261.684745 
L 117.772007 261.558869 
L 118.152051 261.558869 
L 118.152051 261.307117 
L 118.524569 261.307117 
L 118.524569 260.551862 
L 118.889854 260.551862 
L 118.889854 260.048359 
L 119.24818 260.048359 
L 119.24818 259.293103 
L 120.28394 259.293103 
L 120.28394 258.915476 
L 120.616896 258.915476 
L 120.616896 258.286097 
L 120.944062 258.286097 
L 120.944062 258.034345 
L 121.581803 258.034345 
L 121.581803 257.908469 
L 121.892744 257.908469 
L 121.892744 257.27909 
L 122.19863 257.27909 
L 122.19863 257.027338 
L 122.795872 257.027338 
L 122.795872 255.390952 
L 123.08753 255.390952 
L 123.08753 254.887448 
L 123.374735 254.887448 
L 123.374735 254.383945 
L 123.657621 254.383945 
L 123.657621 253.880441 
L 123.936316 253.880441 
L 123.936316 253.754566 
L 124.210942 253.754566 
L 124.210942 253.251062 
L 125.011554 253.251062 
L 125.011554 253.125186 
L 125.271028 253.125186 
L 125.271028 252.369931 
L 125.526971 252.369931 
L 125.526971 251.362924 
L 125.779479 251.362924 
L 125.779479 250.859421 
L 126.028642 250.859421 
L 126.028642 250.481793 
L 126.274549 250.481793 
L 126.274549 250.355917 
L 126.517282 250.355917 
L 126.517282 249.726538 
L 127.686077 249.726538 
L 127.686077 249.474786 
L 128.57149 249.474786 
L 128.57149 249.223034 
L 129.209231 249.223034 
L 129.209231 248.971283 
L 129.417095 248.971283 
L 129.417095 248.341903 
L 130.4233 248.341903 
L 130.4233 248.090152 
L 131.002163 248.090152 
L 131.002163 247.8384 
L 131.747272 247.8384 
L 131.747272 247.712524 
L 131.929028 247.712524 
L 131.929028 247.083145 
L 132.287354 247.083145 
L 132.287354 246.705517 
L 133.323114 246.705517 
L 133.323114 245.572634 
L 133.820365 245.572634 
L 133.820365 245.320883 
L 134.14471 245.320883 
L 134.14471 245.195007 
L 134.620977 245.195007 
L 134.620977 245.069131 
L 135.388902 245.069131 
L 135.388902 244.691503 
L 136.413909 244.691503 
L 136.413909 244.565628 
L 136.696795 244.565628 
L 136.696795 243.936248 
L 136.836659 243.936248 
L 136.836659 243.684497 
L 136.97549 243.684497 
L 136.97549 243.432745 
L 137.113304 243.432745 
L 137.113304 243.306869 
L 137.38594 243.306869 
L 137.38594 242.929241 
L 137.520791 242.929241 
L 137.520791 242.67749 
L 138.438609 242.67749 
L 138.438609 242.173986 
L 138.818654 242.173986 
L 138.818654 242.04811 
L 138.943648 242.04811 
L 138.943648 241.922234 
L 140.49723 241.922234 
L 140.49723 241.544607 
L 140.611586 241.544607 
L 140.611586 241.418731 
L 140.725251 241.418731 
L 140.725251 241.292855 
L 140.950542 241.292855 
L 140.950542 241.166979 
L 141.062184 241.166979 
L 141.062184 240.789352 
L 141.393187 240.789352 
L 141.393187 240.411724 
L 142.038218 240.411724 
L 142.143605 240.034097 
L 143.946089 240.034097 
L 144.041338 239.656469 
L 144.136106 239.656469 
L 144.136106 239.530593 
L 144.324223 239.530593 
L 144.417581 239.152966 
L 144.510478 239.152966 
L 144.510478 238.775338 
L 144.694906 238.775338 
L 144.786447 238.145959 
L 145.058426 238.145959 
L 145.058426 237.642455 
L 145.237585 237.642455 
L 145.326529 237.138952 
L 145.415054 237.138952 
L 145.503164 235.754317 
L 146.023332 235.754317 
L 146.023332 235.628441 
L 146.695245 235.628441 
L 146.695245 235.502566 
L 146.859539 235.502566 
L 146.859539 235.37669 
L 147.022411 235.37669 
L 147.022411 235.250814 
L 147.581606 235.250814 
L 147.581606 234.999062 
L 148.048032 234.999062 
L 148.124658 234.621434 
L 148.352679 234.621434 
L 148.352679 234.495559 
L 148.726679 234.495559 
L 148.800595 233.110924 
L 149.31003 233.110924 
L 149.31003 232.481545 
L 149.875833 232.481545 
L 149.875833 232.355669 
L 150.289291 232.355669 
L 150.289291 231.600414 
L 150.492661 231.600414 
L 150.492661 231.348662 
L 151.41369 231.348662 
L 151.41369 231.09691 
L 151.54166 231.09691 
L 151.54166 228.327641 
L 152.16877 228.327641 
L 152.16877 227.950014 
L 152.413875 227.950014 
L 152.474656 227.572386 
L 152.53524 227.572386 
L 152.595631 227.194759 
L 152.715833 227.194759 
L 152.715833 227.068883 
L 153.305585 227.068883 
L 153.305585 226.817131 
L 153.421349 226.817131 
L 153.421349 226.691255 
L 153.536404 226.691255 
L 153.593669 226.061876 
L 153.933646 226.061876 
L 153.933646 225.810124 
L 154.432362 225.810124 
L 154.432362 225.684248 
L 154.971412 225.684248 
L 155.077392 225.180745 
L 155.13016 225.180745 
L 155.13016 224.677241 
L 155.495444 224.677241 
L 155.495444 224.42549 
L 155.752086 224.42549 
L 155.752086 224.047862 
L 156.255099 224.047862 
L 156.354107 223.670234 
L 156.501649 223.670234 
L 156.550574 223.166731 
L 156.985263 223.166731 
L 156.985263 222.914979 
L 157.222487 222.914979 
L 157.222487 222.663228 
L 157.363398 222.663228 
L 157.363398 222.537352 
L 157.549652 222.537352 
L 157.549652 222.411476 
L 157.734081 222.411476 
L 157.734081 222.159724 
L 158.007377 222.159724 
L 158.007377 222.033848 
L 158.187393 222.033848 
L 158.232129 221.404469 
L 158.58624 221.404469 
L 158.58624 221.152717 
L 158.976805 221.152717 
L 158.976805 221.026841 
L 159.14782 221.026841 
L 159.232748 220.523338 
L 159.359426 220.523338 
L 159.359426 220.397462 
L 159.61025 220.397462 
L 159.61025 220.14571 
L 159.775628 220.14571 
L 159.775628 220.019834 
L 159.939564 220.019834 
L 159.939564 219.768083 
L 160.660094 219.768083 
L 160.660094 219.516331 
L 160.933013 219.516331 
L 161.010268 219.264579 
L 161.316153 219.264579 
L 161.316153 218.886952 
L 161.42959 218.886952 
L 161.42959 218.761076 
L 161.691646 218.761076 
L 161.691646 218.257572 
L 161.913396 218.257572 
L 161.986735 218.005821 
L 163.122872 218.005821 
L 163.122872 217.754069 
L 163.328465 217.754069 
L 163.328465 217.628193 
L 163.498092 217.628193 
L 163.498092 217.502317 
L 163.766354 217.502317 
L 163.766354 217.250566 
L 164.420735 217.250566 
L 164.420735 216.998814 
L 164.676244 216.998814 
L 164.739583 216.621186 
L 164.959603 216.621186 
L 164.959603 216.369434 
L 165.300233 216.369434 
L 165.300233 215.991807 
L 165.51383 215.991807 
L 165.544147 215.740055 
L 165.725029 215.740055 
L 165.725029 215.614179 
L 165.874446 215.614179 
L 165.874446 215.488303 
L 166.286609 215.488303 
L 166.315707 215.110676 
L 166.489353 215.110676 
L 166.518139 214.858924 
L 166.8036 214.858924 
L 166.8036 214.607172 
L 167.742992 214.607172 
L 167.823671 214.103669 
L 167.930707 214.103669 
L 168.037137 213.47429 
L 168.063651 213.47429 
L 168.063651 213.348414 
L 168.195663 213.348414 
L 168.195663 213.096662 
L 168.508761 213.096662 
L 168.508761 212.84491 
L 168.663377 212.84491 
L 168.663377 212.593159 
L 169.019282 212.593159 
L 169.044448 212.089655 
L 169.144777 212.089655 
L 169.169775 211.460276 
L 169.269439 211.460276 
L 169.343842 210.956772 
L 169.540824 210.956772 
L 169.540824 210.705021 
L 170.190808 210.705021 
L 170.214455 210.075641 
L 170.37916 210.075641 
L 170.37916 209.068634 
L 170.635104 209.068634 
L 170.6582 208.691007 
L 170.819081 208.691007 
L 170.819081 208.565131 
L 171.669213 208.565131 
L 171.691074 208.061628 
L 172.165703 208.061628 
L 172.165703 207.935752 
L 172.335368 207.935752 
L 172.335368 207.809876 
L 172.607852 207.809876 
L 172.711612 207.180497 
L 172.794209 207.180497 
L 172.835373 206.676993 
L 173.141258 206.676993 
L 173.242125 206.17349 
L 173.521707 206.17349 
L 173.521707 205.921738 
L 173.77765 205.921738 
L 173.87517 205.418234 
L 174.107176 205.418234 
L 174.107176 204.285352 
L 174.544011 204.285352 
L 174.544011 204.159476 
L 174.767961 204.159476 
L 174.860492 203.655972 
L 175.334451 203.655972 
L 175.442151 203.152469 
L 175.620293 203.152469 
L 175.708734 202.900717 
L 176.023726 202.900717 
L 176.023726 202.774841 
L 176.33353 202.774841 
L 176.435674 202.271338 
L 176.655103 202.271338 
L 176.671876 201.138455 
L 176.921701 201.138455 
L 176.921701 201.012579 
L 177.233457 201.012579 
L 177.282212 200.634952 
L 177.347024 200.634952 
L 177.347024 200.3832 
L 177.60406 200.3832 
L 177.683669 199.250317 
L 177.857632 199.250317 
L 177.857632 198.87269 
L 178.014396 198.87269 
L 178.014396 198.746814 
L 178.169864 198.746814 
L 178.169864 198.495062 
L 178.553005 198.495062 
L 178.628705 198.117434 
L 178.779198 198.117434 
L 178.779198 197.236303 
L 179.017511 197.236303 
L 179.091369 196.355172 
L 179.179617 196.355172 
L 179.179617 196.103421 
L 179.398443 196.103421 
L 179.470823 195.599917 
L 179.941672 195.599917 
L 179.941672 195.474041 
L 180.165788 195.474041 
L 180.165788 195.096414 
L 180.318334 195.096414 
L 180.318334 194.970538 
L 180.606166 194.970538 
L 180.606166 194.844662 
L 181.023172 194.844662 
L 181.116069 194.59291 
L 181.496113 194.59291 
L 181.522042 194.089407 
L 181.651154 194.089407 
L 181.689715 193.711779 
L 182.008023 193.711779 
L 182.008023 193.585903 
L 182.233915 193.585903 
L 182.233915 193.460028 
L 182.407753 193.460028 
L 182.457127 192.578897 
L 182.616704 192.578897 
L 182.616704 192.327145 
L 182.750681 192.327145 
L 182.750681 192.075393 
L 182.907797 192.075393 
L 182.991858 191.697766 
L 183.406618 191.697766 
L 183.406618 191.57189 
L 183.52346 191.57189 
L 183.535105 191.194262 
L 183.674278 191.194262 
L 183.777987 190.690759 
L 183.881127 190.690759 
L 183.892552 189.935503 
L 184.187197 189.935503 
L 184.187197 189.809628 
L 184.543614 189.809628 
L 184.565667 189.432 
L 185.098054 189.432 
L 185.140856 189.054372 
L 185.342847 189.054372 
L 185.342847 188.928497 
L 185.626206 188.928497 
L 185.667825 188.550869 
L 185.79213 188.550869 
L 185.823079 188.299117 
L 185.977062 188.299117 
L 185.977062 188.047366 
L 186.321495 188.047366 
L 186.371619 187.795614 
L 186.451541 187.795614 
L 186.550968 187.040359 
L 187.078977 187.040359 
L 187.078977 186.914483 
L 187.194327 186.914483 
L 187.194327 186.788607 
L 187.366036 186.788607 
L 187.394502 186.410979 
L 187.498512 186.410979 
L 187.5456 186.033352 
L 188.52602 186.033352 
L 188.606202 185.7816 
L 189.166736 185.7816 
L 189.270002 185.152221 
L 189.635451 185.152221 
L 189.744553 184.648717 
L 189.819716 184.648717 
L 189.902879 184.145214 
L 190.010445 184.145214 
L 190.117399 183.64171 
L 190.256351 183.64171 
L 190.264493 183.264083 
L 190.394284 183.264083 
L 190.426593 183.012331 
L 190.754593 183.012331 
L 190.817932 182.634703 
L 191.810877 182.634703 
L 191.810877 182.382952 
L 191.967672 182.382952 
L 192.056685 182.005324 
L 192.299324 182.005324 
L 192.364958 181.627697 
L 192.803878 181.627697 
L 192.903185 181.250069 
L 193.079226 181.250069 
L 193.135213 180.746566 
L 193.343691 180.746566 
L 193.364413 180.368938 
L 193.611305 180.368938 
L 193.611305 180.243062 
L 193.94223 180.243062 
L 193.94223 179.99131 
L 194.122118 179.99131 
L 194.122118 179.739559 
L 194.664577 179.739559 
L 194.664577 179.487807 
L 194.81856 179.487807 
L 194.81856 179.361931 
L 195.097631 179.361931 
L 195.173028 178.984303 
L 195.248124 178.984303 
L 195.248124 178.858428 
L 195.557837 178.858428 
L 195.557837 178.732552 
L 195.729075 178.732552 
L 195.777715 178.354924 
L 196.55681 178.354924 
L 196.55681 178.103172 
L 196.713453 178.103172 
L 196.742318 177.725545 
L 197.215124 177.725545 
L 197.215124 176.844414 
L 197.527541 176.844414 
L 197.527541 176.592662 
L 197.654367 176.592662 
L 197.709243 176.089159 
L 197.780344 176.089159 
L 197.867485 175.333903 
L 198.056711 175.333903 
L 198.15329 174.8304 
L 198.185374 174.8304 
L 198.201395 174.326897 
L 198.297237 174.326897 
L 198.297237 174.201021 
L 198.545212 174.201021 
L 198.545212 174.075145 
L 198.918861 174.075145 
L 198.918861 173.697517 
L 199.972963 173.697517 
L 200.060211 173.068138 
L 200.118152 173.068138 
L 200.118152 172.942262 
L 200.36243 172.942262 
L 200.36243 172.816386 
L 200.584774 172.816386 
L 200.584774 172.69051 
L 200.860218 172.69051 
L 200.860218 172.564634 
L 201.01254 172.564634 
L 201.072208 172.312883 
L 201.136255 172.312883 
L 201.136255 172.187007 
L 201.502593 172.187007 
L 201.502593 172.061131 
L 201.658707 172.061131 
L 201.658707 171.935255 
L 201.787083 171.935255 
L 201.857539 171.557628 
L 202.062988 171.557628 
L 202.15839 171.18 
L 202.240396 171.18 
L 202.240396 170.928248 
L 202.47153 170.928248 
L 202.573352 170.676497 
L 203.008321 170.676497 
L 203.008321 170.424745 
L 203.315873 170.424745 
L 203.315873 170.298869 
L 203.5744 170.298869 
L 203.5744 170.047117 
L 203.935981 170.047117 
L 204.030196 169.795366 
L 204.182296 169.795366 
L 204.201707 169.543614 
L 204.302325 169.543614 
L 204.363977 169.291862 
L 204.759864 169.291862 
L 204.759864 169.165986 
L 204.906199 169.165986 
L 205.01428 168.788359 
L 205.118048 168.788359 
L 205.118048 168.662483 
L 360.8064 168.662483 
L 360.8064 168.662483 
" style="fill: none; stroke: #00bfbf; stroke-width: 1.5; stroke-linecap: square"/>
   </g>
   <g id="line2d_31">
    <defs>
     <path id="m0492036b73" d="M -6 0 
L 6 0 
M 0 6 
L 0 -6 
" style="stroke: #00bfbf; stroke-width: 1.5"/>
    </defs>
    <g>
     <use xlink:href="#m0492036b73" x="87.876026" y="277.0416" style="fill-opacity: 0; stroke: #00bfbf; stroke-width: 1.5"/>
     <use xlink:href="#m0492036b73" x="133.820365" y="245.320883" style="fill-opacity: 0; stroke: #00bfbf; stroke-width: 1.5"/>
     <use xlink:href="#m0492036b73" x="182.233915" y="193.460028" style="fill-opacity: 0; stroke: #00bfbf; stroke-width: 1.5"/>
     <use xlink:href="#m0492036b73" x="205.118048" y="168.788359" style="fill-opacity: 0; stroke: #00bfbf; stroke-width: 1.5"/>
     <use xlink:href="#m0492036b73" x="205.118048" y="168.662483" style="fill-opacity: 0; stroke: #00bfbf; stroke-width: 1.5"/>
     <use xlink:href="#m0492036b73" x="360.8064" y="168.662483" style="fill-opacity: 0; stroke: #00bfbf; stroke-width: 1.5"/>
    </g>
   </g>
   <g id="line2d_32">
    <path style="fill: none; stroke: #00bfbf; stroke-width: 1.5; stroke-linecap: square"/>
    <g/>
   </g>
   <g id="line2d_33">
    <path d="M 205.158657 168.662483 
" clip-path="url(#pf220fcc1a9)" style="fill: none; stroke: #00bfbf; stroke-width: 1.5; stroke-linecap: square"/>
    <defs>
     <path id="me69d89a8bd" d="M -12 12 
L 12 -12 
M -12 -12 
L 12 12 
" style="stroke: #00bfbf"/>
    </defs>
    <g clip-path="url(#pf220fcc1a9)">
     <use xlink:href="#me69d89a8bd" x="205.158657" y="168.662483" style="fill: #00bfbf; stroke: #00bfbf"/>
    </g>
   </g>
   <g id="line2d_34">
    <defs>
     <path id="mbe14bc753c" d="M 0 1.5 
C 0.397805 1.5 0.77937 1.341951 1.06066 1.06066 
C 1.341951 0.77937 1.5 0.397805 1.5 0 
C 1.5 -0.397805 1.341951 -0.77937 1.06066 -1.06066 
C 0.77937 -1.341951 0.397805 -1.5 0 -1.5 
C -0.397805 -1.5 -0.77937 -1.341951 -1.06066 -1.06066 
C -1.341951 -0.77937 -1.5 -0.397805 -1.5 0 
C -1.5 0.397805 -1.341951 0.77937 -1.06066 1.06066 
C -0.77937 1.341951 -0.397805 1.5 0 1.5 
z
" style="stroke: #008000"/>
    </defs>
    <g>
     <use xlink:href="#mbe14bc753c" x="197.379418" y="195.22229" style="fill: #008000; stroke: #008000"/>
     <use xlink:href="#mbe14bc753c" x="197.379418" y="195.22229" style="fill: #008000; stroke: #008000"/>
    </g>
   </g>
   <g id="line2d_35">
    <path d="M 36.933397 298.944 
L 36.933397 288.244552 
L 49.972572 288.244552 
L 49.972572 287.741048 
L 57.6 287.741048 
L 57.6 287.615172 
L 63.011746 287.615172 
L 63.011746 287.489297 
L 70.639174 287.489297 
L 70.639174 287.363421 
L 73.538988 287.363421 
L 73.538988 285.85291 
L 76.050921 285.85291 
L 76.050921 285.475283 
L 82.04153 285.475283 
L 82.04153 284.720028 
L 83.678349 284.720028 
L 83.678349 284.3424 
L 85.184077 284.3424 
L 85.184077 283.713021 
L 86.578163 283.713021 
L 86.578163 283.587145 
L 89.090095 283.587145 
L 89.090095 283.335393 
L 91.305777 283.335393 
L 91.305777 281.824883 
L 94.205591 281.824883 
L 94.205591 281.573131 
L 96.717523 281.573131 
L 96.717523 280.314372 
L 97.485448 280.314372 
L 97.485448 279.936745 
L 98.223251 279.936745 
L 98.223251 278.048607 
L 99.617337 278.048607 
L 99.617337 277.796855 
L 100.277459 277.796855 
L 100.277459 276.286345 
L 100.9152 276.286345 
L 100.9152 276.034593 
L 102.12927 276.034593 
L 102.12927 275.782841 
L 102.708132 275.782841 
L 102.708132 275.279338 
L 104.860369 275.279338 
L 104.860369 274.775834 
L 105.36204 274.775834 
L 105.36204 274.524083 
L 107.244765 274.524083 
L 107.244765 274.398207 
L 107.68741 274.398207 
L 107.68741 274.146455 
L 108.542628 274.146455 
L 108.542628 272.384193 
L 109.360651 272.384193 
L 109.360651 272.132441 
L 110.524623 272.132441 
L 110.524623 271.88069 
L 111.620752 271.88069 
L 111.620752 271.628938 
L 115.168444 271.628938 
L 115.168444 271.377186 
L 117.121023 271.377186 
L 117.121023 271.125434 
L 117.384126 271.125434 
L 117.384126 269.866676 
L 117.6436 269.866676 
L 117.6436 269.614924 
L 118.152051 269.614924 
L 118.152051 268.985545 
L 118.889854 268.985545 
L 118.889854 268.356166 
L 119.129494 268.356166 
L 119.129494 267.852662 
L 119.599808 267.852662 
L 119.599808 267.726786 
L 119.830627 267.726786 
L 119.830627 266.971531 
L 120.28394 266.971531 
L 120.28394 266.845655 
L 121.159053 266.845655 
L 121.159053 266.593903 
L 122.795872 266.593903 
L 122.795872 265.838648 
L 123.183753 265.838648 
L 123.183753 265.586897 
L 124.3016 265.586897 
L 124.3016 265.461021 
L 125.35673 265.461021 
L 125.35673 265.083393 
L 126.355808 265.083393 
L 126.355808 264.328138 
L 127.149662 264.328138 
L 127.149662 264.202262 
L 127.304491 264.202262 
L 127.304491 264.076386 
L 128.643427 264.076386 
L 128.643427 263.698759 
L 129.069367 263.698759 
L 129.069367 263.572883 
L 130.027253 263.572883 
L 130.027253 263.321131 
L 130.160198 263.321131 
L 130.160198 263.195255 
L 130.292209 263.195255 
L 130.292209 262.314124 
L 132.405295 262.314124 
L 132.405295 262.062372 
L 132.522502 262.062372 
L 132.522502 261.936497 
L 133.545739 261.936497 
L 133.545739 261.055366 
L 134.41079 261.055366 
L 134.41079 260.803614 
L 134.620977 260.803614 
L 134.725196 260.048359 
L 134.828842 260.048359 
L 134.828842 259.922483 
L 135.237805 259.922483 
L 135.237805 259.670731 
L 135.438999 259.670731 
L 135.438999 259.293103 
L 135.638065 259.293103 
L 135.638065 258.915476 
L 136.318661 258.915476 
L 136.413909 258.537848 
L 136.508678 258.537848 
L 136.508678 258.411972 
L 136.790153 258.411972 
L 136.790153 258.286097 
L 136.97549 258.286097 
L 136.97549 258.160221 
L 137.159019 258.160221 
L 137.250116 257.404966 
L 137.520791 257.404966 
L 137.520791 257.27909 
L 137.787626 257.27909 
L 137.787626 257.027338 
L 138.137618 257.027338 
L 138.137618 256.775586 
L 138.310202 256.775586 
L 138.395904 256.523834 
L 138.566146 256.523834 
L 138.566146 256.020331 
L 138.73486 256.020331 
L 138.818654 255.768579 
L 138.902075 255.768579 
L 138.902075 255.516828 
L 139.150143 255.516828 
L 139.232111 255.013324 
L 139.313723 255.013324 
L 139.313723 253.502814 
L 139.475893 253.502814 
L 139.475893 253.251062 
L 139.716555 253.251062 
L 139.796097 252.99931 
L 139.875304 252.99931 
L 139.875304 252.747559 
L 140.573544 252.747559 
L 140.573544 251.992303 
L 140.950542 251.992303 
L 141.025043 251.740552 
L 141.173167 251.740552 
L 141.173167 251.362924 
L 141.754265 251.362924 
L 141.825656 250.481793 
L 142.178603 250.481793 
L 142.178603 250.230041 
L 142.593581 250.230041 
L 142.661862 249.97829 
L 144.10457 249.97829 
L 144.10457 249.097159 
L 144.355394 249.097159 
L 144.355394 248.971283 
L 144.968202 248.971283 
L 144.968202 248.845407 
L 145.326529 248.845407 
L 145.385592 248.467779 
L 145.678157 248.467779 
L 145.736128 247.8384 
L 145.851536 247.8384 
L 145.851536 247.712524 
L 146.362288 247.712524 
L 146.362288 247.460772 
L 146.968277 247.460772 
L 146.968277 247.083145 
L 147.712333 247.083145 
L 147.712333 246.831393 
L 148.124658 246.831393 
L 148.124658 246.705517 
L 148.478174 246.705517 
L 148.478174 246.453766 
L 148.726679 246.453766 
L 148.775988 245.824386 
L 149.214052 245.824386 
L 149.214052 245.69851 
L 149.782707 245.69851 
L 149.829328 244.943255 
L 149.922224 244.943255 
L 150.014665 243.558621 
L 150.060715 243.558621 
L 150.060715 243.306869 
L 150.334674 243.306869 
L 150.379949 242.299862 
L 150.470172 242.299862 
L 150.470172 242.04811 
L 150.604701 242.04811 
L 150.604701 241.922234 
L 150.914911 241.922234 
L 150.958812 241.544607 
L 151.089903 241.544607 
L 151.089903 241.292855 
L 151.647641 241.292855 
L 151.731998 240.789352 
L 152.271285 240.789352 
L 152.271285 240.5376 
L 153.150116 240.5376 
L 153.150116 240.285848 
L 153.421349 240.285848 
L 153.49813 239.908221 
L 153.914919 239.908221 
L 153.914919 239.782345 
L 154.468783 239.782345 
L 154.468783 239.656469 
L 154.613767 239.656469 
L 154.613767 239.404717 
L 154.86483 239.404717 
L 154.935952 239.152966 
L 155.495444 239.152966 
L 155.495444 238.775338 
L 155.632755 238.775338 
L 155.632755 238.649462 
L 155.904407 238.649462 
L 155.904407 238.523586 
L 156.038776 238.523586 
L 156.038776 238.271834 
L 156.304668 238.271834 
L 156.304668 238.020083 
L 157.300901 238.020083 
L 157.394569 237.390703 
L 157.703468 237.390703 
L 157.764644 236.383697 
L 157.977206 236.383697 
L 158.007377 236.131945 
L 158.0976 236.131945 
L 158.15751 235.628441 
L 158.247018 235.628441 
L 158.336102 235.37669 
L 158.424766 235.37669 
L 158.513014 234.873186 
L 158.630038 234.873186 
L 158.630038 234.74731 
L 159.062507 234.74731 
L 159.062507 234.495559 
L 159.457367 234.495559 
L 159.457367 234.243807 
L 159.679334 234.243807 
L 159.679334 234.117931 
L 160.142495 234.117931 
L 160.169388 233.488552 
L 160.329943 233.488552 
L 160.329943 232.985048 
L 160.4627 232.985048 
L 160.4627 232.859172 
L 160.620781 232.859172 
L 160.699326 232.229793 
L 160.907191 232.229793 
L 160.907191 232.103917 
L 161.061595 232.103917 
L 161.087207 231.600414 
L 161.492316 231.600414 
L 161.492316 231.348662 
L 161.937874 231.348662 
L 161.937874 231.222786 
L 162.05979 231.222786 
L 162.084079 230.971034 
L 162.205054 230.971034 
L 162.301277 230.467531 
L 162.39701 230.467531 
L 162.444694 230.089903 
L 162.728291 230.089903 
L 162.728291 229.838152 
L 162.938218 229.838152 
L 162.961399 229.460524 
L 163.191653 229.460524 
L 163.191653 229.208772 
L 163.373849 229.208772 
L 163.373849 228.705269 
L 163.531835 228.705269 
L 163.531835 228.579393 
L 163.666204 228.579393 
L 163.666204 228.453517 
L 164.085482 228.453517 
L 164.085482 228.07589 
L 164.259262 228.07589 
L 164.367065 227.824138 
L 164.623299 227.824138 
L 164.623299 227.068883 
L 164.771172 227.068883 
L 164.771172 226.817131 
L 165.104867 226.817131 
L 165.104867 226.565379 
L 165.854592 226.565379 
L 165.854592 226.313628 
L 165.993131 226.313628 
L 166.091467 226.061876 
L 166.150222 226.061876 
L 166.189291 225.558372 
L 167.01022 225.558372 
L 167.084795 224.928993 
L 167.233064 224.928993 
L 167.288365 224.299614 
L 167.76095 224.299614 
L 167.76095 224.173738 
L 168.063651 224.173738 
L 168.063651 224.047862 
L 168.430973 224.047862 
L 168.534619 223.79611 
L 168.723164 223.79611 
L 168.723164 223.670234 
L 168.892945 223.670234 
L 168.892945 223.544359 
L 169.094679 223.544359 
L 169.128092 223.166731 
L 169.227977 223.166731 
L 169.227977 223.040855 
L 170.103845 223.040855 
L 170.151329 222.537352 
L 170.386968 222.537352 
L 170.386968 222.411476 
L 170.588827 222.411476 
L 170.588827 222.2856 
L 171.181725 222.2856 
L 171.286192 221.782097 
L 171.493403 221.782097 
L 171.493403 221.530345 
L 171.987325 221.530345 
L 172.04459 220.900966 
L 172.172803 220.900966 
L 172.172803 220.649214 
L 172.46861 220.649214 
L 172.482581 220.271586 
L 172.635578 220.271586 
L 172.635578 220.14571 
L 173.515098 220.14571 
L 173.607409 219.642207 
L 174.241203 219.642207 
L 174.241203 219.390455 
L 174.443616 219.390455 
L 174.443616 219.264579 
L 174.643874 219.264579 
L 174.73082 218.886952 
L 174.79268 218.886952 
L 174.817367 218.383448 
L 175.220095 218.383448 
L 175.220095 218.131697 
L 175.340451 218.131697 
L 175.36443 217.879945 
L 175.471959 217.879945 
L 175.543305 217.502317 
L 175.930944 217.502317 
L 175.977392 217.12469 
L 176.04685 217.12469 
L 176.04685 216.998814 
L 176.68305 216.998814 
L 176.68305 216.747062 
L 177.330842 216.747062 
L 177.352415 216.49531 
L 177.449188 216.49531 
L 177.470626 216.117683 
L 177.925723 216.117683 
L 178.019599 215.614179 
L 178.164702 215.614179 
L 178.164702 215.362428 
L 178.973057 215.362428 
L 178.973057 214.9848 
L 179.383934 214.9848 
L 179.383934 214.858924 
L 179.643407 214.858924 
L 179.643407 214.607172 
L 179.871084 214.607172 
L 179.871084 214.355421 
L 180.272238 214.355421 
L 180.345937 213.977793 
L 180.391852 213.977793 
L 180.391852 213.222538 
L 180.601632 213.222538 
L 180.646928 212.84491 
L 180.853898 212.84491 
L 180.871788 212.215531 
L 181.032039 212.215531 
L 181.040902 211.586152 
L 182.117125 211.586152 
L 182.117125 211.460276 
L 182.718289 211.460276 
L 182.791093 210.075641 
L 182.911809 210.075641 
L 182.911809 209.82389 
L 183.620277 209.82389 
L 183.620277 209.572138 
L 184.317924 209.572138 
L 184.384803 209.068634 
L 184.517852 209.068634 
L 184.56934 208.439255 
L 184.961867 208.439255 
L 184.961867 208.313379 
L 185.119467 208.313379 
L 185.119467 208.061628 
L 185.381579 208.061628 
L 185.444788 207.432248 
L 185.500795 207.432248 
L 185.605362 206.928745 
L 186.072242 206.928745 
L 186.072242 206.802869 
L 186.214115 206.802869 
L 186.254454 206.299366 
L 186.474787 206.299366 
L 186.474787 206.047614 
L 186.626841 206.047614 
L 186.626841 205.795862 
L 186.764607 205.795862 
L 186.764607 205.669986 
L 186.940265 205.669986 
L 186.946739 205.166483 
L 187.299446 205.166483 
L 187.381856 204.788855 
L 187.564402 204.788855 
L 187.564402 204.662979 
L 187.689272 204.662979 
L 187.757599 204.411228 
L 187.881197 204.411228 
L 187.936552 204.0336 
L 188.022338 204.0336 
L 188.089467 203.655972 
L 188.694894 203.655972 
L 188.694894 203.530097 
L 189.086025 203.530097 
L 189.086025 203.404221 
L 189.275723 203.404221 
L 189.275723 203.278345 
L 189.610184 203.278345 
L 189.610184 203.026593 
L 189.861343 203.026593 
L 189.889044 202.52309 
L 190.461531 202.52309 
L 190.461531 202.271338 
L 190.902053 202.271338 
L 190.902053 202.145462 
L 191.848327 202.145462 
L 191.957755 201.516083 
L 192.262761 201.516083 
L 192.262761 201.264331 
L 192.768284 201.264331 
L 192.768284 201.138455 
L 193.009007 201.138455 
L 193.10724 200.634952 
L 193.23279 200.634952 
L 193.242057 200.257324 
L 193.572657 200.257324 
L 193.609034 199.879697 
L 193.695149 199.879697 
L 193.695149 199.627945 
L 194.339671 199.627945 
L 194.339671 199.502069 
L 194.574168 199.502069 
L 194.574168 199.250317 
L 194.72889 199.250317 
L 194.750279 198.87269 
L 194.865361 198.87269 
L 194.950155 197.739807 
L 195.106023 197.739807 
L 195.173028 197.236303 
L 195.264772 197.236303 
L 195.264772 197.110428 
L 195.991051 197.110428 
L 195.991051 196.858676 
L 197.034242 196.858676 
L 197.136202 196.355172 
L 197.260074 196.355172 
L 197.289981 195.725793 
L 197.379418 195.725793 
L 197.379418 195.22229 
L 360.8064 195.22229 
L 360.8064 195.22229 
" style="fill: none; stroke: #008000; stroke-width: 1.5; stroke-linecap: square"/>
   </g>
   <g id="line2d_36">
    <defs>
     <path id="m10d941a653" d="M -0 6 
L 6 -6 
L -6 -6 
z
" style="stroke: #008000; stroke-width: 1.5; stroke-linejoin: miter"/>
    </defs>
    <g>
     <use xlink:href="#m10d941a653" x="86.578163" y="283.587145" style="fill-opacity: 0; stroke: #008000; stroke-width: 1.5; stroke-linejoin: miter"/>
     <use xlink:href="#m10d941a653" x="154.935952" y="239.278841" style="fill-opacity: 0; stroke: #008000; stroke-width: 1.5; stroke-linejoin: miter"/>
     <use xlink:href="#m10d941a653" x="197.379418" y="195.725793" style="fill-opacity: 0; stroke: #008000; stroke-width: 1.5; stroke-linejoin: miter"/>
     <use xlink:href="#m10d941a653" x="197.379418" y="195.22229" style="fill-opacity: 0; stroke: #008000; stroke-width: 1.5; stroke-linejoin: miter"/>
     <use xlink:href="#m10d941a653" x="197.379418" y="195.22229" style="fill-opacity: 0; stroke: #008000; stroke-width: 1.5; stroke-linejoin: miter"/>
     <use xlink:href="#m10d941a653" x="360.8064" y="195.22229" style="fill-opacity: 0; stroke: #008000; stroke-width: 1.5; stroke-linejoin: miter"/>
    </g>
   </g>
   <g id="line2d_37">
    <path style="fill: none; stroke: #008000; stroke-width: 1.5; stroke-linecap: square"/>
    <g/>
   </g>
   <g id="line2d_38">
    <path d="M 197.531229 195.22229 
" clip-path="url(#pf220fcc1a9)" style="fill: none; stroke: #008000; stroke-width: 1.5; stroke-linecap: square"/>
    <defs>
     <path id="m211c2458bb" d="M -12 12 
L 12 -12 
M -12 -12 
L 12 12 
" style="stroke: #008000"/>
    </defs>
    <g clip-path="url(#pf220fcc1a9)">
     <use xlink:href="#m211c2458bb" x="197.531229" y="195.22229" style="fill: #008000; stroke: #008000"/>
    </g>
   </g>
   <g id="line2d_39">
    <defs>
     <path id="m56a597bc0b" d="M 0 1.5 
C 0.397805 1.5 0.77937 1.341951 1.06066 1.06066 
C 1.341951 0.77937 1.5 0.397805 1.5 0 
C 1.5 -0.397805 1.341951 -0.77937 1.06066 -1.06066 
C 0.77937 -1.341951 0.397805 -1.5 0 -1.5 
C -0.397805 -1.5 -0.77937 -1.341951 -1.06066 -1.06066 
C -1.341951 -0.77937 -1.5 -0.397805 -1.5 0 
C -1.5 0.397805 -1.341951 0.77937 -1.06066 1.06066 
C -0.77937 1.341951 -0.397805 1.5 0 1.5 
z
" style="stroke: #0000ff"/>
    </defs>
    <g>
     <use xlink:href="#m56a597bc0b" x="187.870106" y="236.383697" style="fill: #0000ff; stroke: #0000ff"/>
     <use xlink:href="#m56a597bc0b" x="187.870106" y="236.383697" style="fill: #0000ff; stroke: #0000ff"/>
    </g>
   </g>
   <g id="line2d_40">
    <path d="M 27.323974 298.944 
L 27.323974 292.524331 
L 40.363149 292.524331 
L 40.363149 292.020828 
L 47.990577 292.020828 
L 47.990577 291.894952 
L 63.929565 291.894952 
L 63.929565 291.6432 
L 66.441498 291.6432 
L 66.441498 291.391448 
L 72.432107 291.391448 
L 72.432107 291.013821 
L 79.480672 291.013821 
L 79.480672 290.258566 
L 81.696354 290.258566 
L 81.696354 290.13269 
L 90.007914 290.13269 
L 90.007914 289.50331 
L 90.668036 289.50331 
L 90.668036 289.377434 
L 93.098709 289.377434 
L 93.098709 288.999807 
L 94.205591 288.999807 
L 94.205591 287.9928 
L 95.752617 287.9928 
L 95.752617 287.741048 
L 97.18203 287.741048 
L 97.18203 287.615172 
L 98.933205 287.615172 
L 98.933205 287.237545 
L 100.9152 287.237545 
L 100.9152 286.985793 
L 101.287718 286.985793 
L 101.287718 286.230538 
L 101.653002 286.230538 
L 101.653002 285.978786 
L 102.708132 285.978786 
L 102.708132 285.727034 
L 103.380045 285.727034 
L 103.380045 285.601159 
L 104.655893 285.601159 
L 104.655893 285.097655 
L 104.961779 285.097655 
L 104.961779 284.594152 
L 107.244765 284.594152 
L 107.244765 284.468276 
L 107.774703 284.468276 
L 107.774703 284.3424 
L 109.280431 284.3424 
L 109.280431 284.216524 
L 109.520071 284.216524 
L 109.520071 284.090648 
L 111.762192 284.090648 
L 111.762192 283.964772 
L 112.180244 283.964772 
L 112.180244 283.838897 
L 112.790402 283.838897 
L 112.790402 283.713021 
L 114.141556 283.713021 
L 114.141556 283.587145 
L 116.746385 283.587145 
L 116.746385 283.461269 
L 117.540239 283.461269 
L 117.540239 283.209517 
L 117.695068 283.209517 
L 117.695068 282.83189 
L 118.301945 282.83189 
L 118.301945 282.706014 
L 119.876453 282.706014 
L 119.876453 282.580138 
L 124.588805 282.580138 
L 124.588805 282.454262 
L 125.011554 282.454262 
L 125.011554 282.328386 
L 127.549596 282.328386 
L 127.549596 282.20251 
L 127.911368 282.20251 
L 128.000734 281.950759 
L 129.622688 281.950759 
L 129.622688 281.824883 
L 130.579414 281.824883 
L 130.579414 281.573131 
L 130.887807 281.573131 
L 130.887807 281.447255 
L 131.266322 281.447255 
L 131.266322 281.195503 
L 131.856536 281.195503 
L 131.856536 281.069628 
L 133.78762 281.069628 
L 133.78762 280.440248 
L 134.808158 280.440248 
L 134.808158 280.314372 
L 135.237805 280.314372 
L 135.298389 279.936745 
L 135.776169 279.936745 
L 135.776169 278.677986 
L 136.126705 278.677986 
L 136.126705 278.426234 
L 136.864507 278.426234 
L 136.864507 278.174483 
L 137.304564 278.174483 
L 137.304564 277.922731 
L 137.840541 277.922731 
L 137.840541 277.670979 
L 138.515235 277.670979 
L 138.515235 277.545103 
L 138.667556 277.545103 
L 138.667556 277.419228 
L 140.032723 277.419228 
L 140.126547 276.538097 
L 140.405242 276.538097 
L 140.405242 276.412221 
L 140.58877 276.412221 
L 140.58877 275.908717 
L 141.349389 275.908717 
L 141.349389 275.153462 
L 142.331827 275.153462 
L 142.331827 275.027586 
L 142.661862 275.027586 
L 142.743475 274.649959 
L 142.905644 274.649959 
L 142.945969 274.146455 
L 144.565997 274.146455 
L 144.676545 273.139448 
L 144.71325 273.139448 
L 144.71325 271.88069 
L 145.112353 271.88069 
L 145.112353 271.754814 
L 145.361989 271.754814 
L 145.361989 271.628938 
L 145.538293 271.628938 
L 145.538293 271.377186 
L 145.7477 271.377186 
L 145.7477 271.125434 
L 145.886021 271.125434 
L 145.886021 270.999559 
L 146.125662 270.999559 
L 146.125662 270.747807 
L 147.847333 270.747807 
L 147.847333 270.496055 
L 148.094045 270.496055 
L 148.185734 270.244303 
L 148.667336 270.244303 
L 148.667336 270.118428 
L 148.874221 270.118428 
L 148.962194 269.7408 
L 149.107908 269.7408 
L 149.107908 269.111421 
L 150.425115 269.111421 
L 150.506141 268.733793 
L 150.800286 268.733793 
L 150.800286 268.482041 
L 151.554409 268.482041 
L 151.554409 268.23029 
L 152.20574 268.23029 
L 152.230346 267.60091 
L 152.474656 267.60091 
L 152.474656 267.097407 
L 152.763699 267.097407 
L 152.763699 266.971531 
L 153.328795 266.971531 
L 153.328795 266.719779 
L 154.034453 266.719779 
L 154.034453 266.593903 
L 154.388563 266.593903 
L 154.432362 266.342152 
L 154.671449 266.342152 
L 154.714595 265.838648 
L 155.329337 265.838648 
L 155.371001 265.461021 
L 155.577951 265.461021 
L 155.619069 264.454014 
L 156.245169 264.454014 
L 156.245169 264.076386 
L 156.579868 264.076386 
L 156.579868 263.95051 
L 157.156365 263.95051 
L 157.213055 262.943503 
L 157.586683 262.943503 
L 157.660526 262.44 
L 157.807349 262.44 
L 157.898535 262.188248 
L 158.699905 262.188248 
L 158.699905 262.062372 
L 159.266613 262.062372 
L 159.300416 261.684745 
L 159.485256 261.684745 
L 159.50197 261.307117 
L 160.589271 261.307117 
L 160.589271 261.055366 
L 161.331318 261.055366 
L 161.331318 260.92949 
L 161.452196 260.92949 
L 161.452196 260.677738 
L 161.587261 260.677738 
L 161.661881 260.425986 
L 161.721364 260.425986 
L 161.736206 260.048359 
L 162.363559 260.048359 
L 162.363559 259.670731 
L 162.549177 259.670731 
L 162.549177 259.293103 
L 163.164171 259.293103 
L 163.205379 258.915476 
L 163.625994 258.915476 
L 163.625994 258.663724 
L 164.155187 258.663724 
L 164.155187 258.286097 
L 164.465701 258.286097 
L 164.465701 258.160221 
L 164.997064 258.160221 
L 164.997064 258.034345 
L 165.232599 258.034345 
L 165.232599 257.656717 
L 165.64686 257.656717 
L 165.64686 257.530841 
L 165.838694 257.530841 
L 165.838694 257.27909 
L 166.274957 257.27909 
L 166.274957 257.153214 
L 166.40273 257.153214 
L 166.40273 257.027338 
L 166.518139 257.027338 
L 166.518139 256.901462 
L 166.724107 256.901462 
L 166.724107 256.775586 
L 167.394821 256.775586 
L 167.48247 256.146207 
L 167.580589 256.146207 
L 167.580589 255.894455 
L 168.596533 255.894455 
L 168.678769 255.013324 
L 168.729985 255.013324 
L 168.729985 254.761572 
L 168.872652 254.761572 
L 168.933465 254.258069 
L 169.044448 254.258069 
L 169.064557 253.62869 
L 169.184759 253.62869 
L 169.184759 253.376938 
L 169.442591 253.376938 
L 169.511408 252.873434 
L 169.579974 252.873434 
L 169.579974 252.747559 
L 170.242793 252.747559 
L 170.242793 252.621683 
L 170.542436 252.621683 
L 170.542436 252.495807 
L 171.208643 252.495807 
L 171.208643 252.369931 
L 171.369351 252.369931 
L 171.369351 252.118179 
L 171.625414 252.118179 
L 171.625414 251.992303 
L 172.041731 251.992303 
L 172.118775 251.4888 
L 172.161441 251.4888 
L 172.178481 251.237048 
L 172.305787 251.237048 
L 172.305787 250.985297 
L 172.790088 250.985297 
L 172.790088 250.859421 
L 173.125069 250.859421 
L 173.189742 250.355917 
L 173.785471 250.355917 
L 173.863495 249.852414 
L 174.241203 249.852414 
L 174.241203 249.600662 
L 174.915793 249.600662 
L 174.915793 249.474786 
L 175.040543 249.474786 
L 175.040543 249.34891 
L 175.265921 249.34891 
L 175.338051 249.097159 
L 175.736948 249.097159 
L 175.76512 247.964276 
L 175.891372 247.964276 
L 175.891372 247.712524 
L 176.00289 247.712524 
L 176.00289 247.586648 
L 176.168936 247.586648 
L 176.168936 247.460772 
L 176.57101 247.460772 
L 176.57101 247.334897 
L 176.758858 247.334897 
L 176.758858 247.209021 
L 176.958065 247.209021 
L 177.030582 246.453766 
L 177.363192 246.453766 
L 177.363192 246.32789 
L 177.753447 246.32789 
L 177.772433 245.446759 
L 178.03 245.446759 
L 178.135771 245.069131 
L 178.376197 245.069131 
L 178.376197 244.943255 
L 178.559072 244.943255 
L 178.559072 244.691503 
L 179.032306 244.691503 
L 179.032306 244.439752 
L 179.232368 244.439752 
L 179.232368 244.062124 
L 179.609017 244.062124 
L 179.609017 243.810372 
L 180.146284 243.810372 
L 180.146284 243.684497 
L 180.857477 243.684497 
L 180.959205 243.306869 
L 181.03913 243.306869 
L 181.03913 243.055117 
L 182.253864 243.055117 
L 182.253864 242.929241 
L 182.570198 242.929241 
L 182.570198 242.67749 
L 182.919829 242.67749 
L 182.972677 242.173986 
L 183.34322 242.173986 
L 183.34322 241.922234 
L 183.497817 241.922234 
L 183.563022 241.418731 
L 183.853678 241.418731 
L 183.90397 241.041103 
L 184.130892 241.041103 
L 184.130892 239.782345 
L 184.372931 239.782345 
L 184.372931 239.656469 
L 184.492792 239.656469 
L 184.492792 239.404717 
L 184.68212 239.404717 
L 184.69088 239.02709 
L 184.886904 239.02709 
L 184.886904 238.901214 
L 185.072326 238.901214 
L 185.072326 238.775338 
L 185.517565 238.775338 
L 185.517565 238.523586 
L 185.79626 238.523586 
L 185.79626 238.39771 
L 185.98524 238.39771 
L 185.98524 238.271834 
L 186.152093 238.271834 
L 186.152093 238.145959 
L 186.397631 238.145959 
L 186.397631 237.894207 
L 186.628158 237.894207 
L 186.691257 237.390703 
L 186.789428 237.390703 
L 186.789428 237.264828 
L 187.042302 237.264828 
L 187.127126 236.8872 
L 187.669348 236.8872 
L 187.669348 236.761324 
L 187.870106 236.761324 
L 187.870106 236.383697 
L 360.8064 236.383697 
L 360.8064 236.383697 
" style="fill: none; stroke: #0000ff; stroke-width: 1.5; stroke-linecap: square"/>
   </g>
   <g id="line2d_41">
    <defs>
     <path id="m6aecea6032" d="M 0 -6 
L -1.347084 -1.854102 
L -5.706339 -1.854102 
L -2.179628 0.708204 
L -3.526712 4.854102 
L -0 2.291796 
L 3.526712 4.854102 
L 2.179628 0.708204 
L 5.706339 -1.854102 
L 1.347084 -1.854102 
z
" style="stroke: #0000ff; stroke-width: 1.5; stroke-linejoin: bevel"/>
    </defs>
    <g>
     <use xlink:href="#m6aecea6032" x="107.774703" y="284.468276" style="fill-opacity: 0; stroke: #0000ff; stroke-width: 1.5; stroke-linejoin: bevel"/>
     <use xlink:href="#m6aecea6032" x="187.870106" y="236.761324" style="fill-opacity: 0; stroke: #0000ff; stroke-width: 1.5; stroke-linejoin: bevel"/>
     <use xlink:href="#m6aecea6032" x="187.870106" y="236.761324" style="fill-opacity: 0; stroke: #0000ff; stroke-width: 1.5; stroke-linejoin: bevel"/>
     <use xlink:href="#m6aecea6032" x="187.870106" y="236.383697" style="fill-opacity: 0; stroke: #0000ff; stroke-width: 1.5; stroke-linejoin: bevel"/>
     <use xlink:href="#m6aecea6032" x="187.870106" y="236.383697" style="fill-opacity: 0; stroke: #0000ff; stroke-width: 1.5; stroke-linejoin: bevel"/>
     <use xlink:href="#m6aecea6032" x="360.8064" y="236.383697" style="fill-opacity: 0; stroke: #0000ff; stroke-width: 1.5; stroke-linejoin: bevel"/>
    </g>
   </g>
   <g id="line2d_42">
    <path style="fill: none; stroke: #0000ff; stroke-width: 1.5; stroke-linecap: square"/>
    <g/>
   </g>
   <g id="line2d_43">
    <path d="M 187.921806 236.383697 
" clip-path="url(#pf220fcc1a9)" style="fill: none; stroke: #0000ff; stroke-width: 1.5; stroke-linecap: square"/>
    <defs>
     <path id="m2e7d23d376" d="M -12 12 
L 12 -12 
M -12 -12 
L 12 12 
" style="stroke: #0000ff"/>
    </defs>
    <g clip-path="url(#pf220fcc1a9)">
     <use xlink:href="#m2e7d23d376" x="187.921806" y="236.383697" style="fill: #0000ff; stroke: #0000ff"/>
    </g>
   </g>
   <g id="line2d_44">
    <defs>
     <path id="mb7b32e220b" d="M 0 1.5 
C 0.397805 1.5 0.77937 1.341951 1.06066 1.06066 
C 1.341951 0.77937 1.5 0.397805 1.5 0 
C 1.5 -0.397805 1.341951 -0.77937 1.06066 -1.06066 
C 0.77937 -1.341951 0.397805 -1.5 0 -1.5 
C -0.397805 -1.5 -0.77937 -1.341951 -1.06066 -1.06066 
C -1.341951 -0.77937 -1.5 -0.397805 -1.5 0 
C -1.5 0.397805 -1.341951 0.77937 -1.06066 1.06066 
C -0.77937 1.341951 -0.397805 1.5 0 1.5 
z
" style="stroke: #000000"/>
    </defs>
    <g>
     <use xlink:href="#mb7b32e220b" x="174.045587" y="272.635945" style="stroke: #000000"/>
     <use xlink:href="#mb7b32e220b" x="174.045587" y="272.635945" style="stroke: #000000"/>
    </g>
   </g>
   <g id="line2d_45">
    <path d="M 14.2848 298.944 
L 14.2848 288.622179 
L 59.392932 288.622179 
L 59.392932 288.496303 
L 72.432107 288.496303 
L 72.432107 288.370428 
L 73.268314 288.370428 
L 73.268314 288.244552 
L 89.323782 288.244552 
L 89.323782 288.118676 
L 89.668958 288.118676 
L 89.668958 287.9928 
L 94.472426 287.9928 
L 94.472426 287.866924 
L 94.995002 287.866924 
L 94.995002 287.741048 
L 95.998523 287.741048 
L 95.998523 287.615172 
L 97.857967 287.615172 
L 97.857967 286.734041 
L 104.655893 286.734041 
L 104.655893 286.608166 
L 106.279859 286.608166 
L 106.279859 286.48229 
L 114.141556 286.48229 
L 114.141556 286.230538 
L 122.19863 286.230538 
L 122.19863 286.104662 
L 123.317644 286.104662 
L 123.317644 285.978786 
L 125.879541 285.978786 
L 125.879541 285.85291 
L 127.5952 285.85291 
L 127.5952 285.727034 
L 128.000734 285.727034 
L 128.000734 285.601159 
L 128.743679 285.601159 
L 128.743679 285.223531 
L 129.209231 285.223531 
L 129.250988 284.971779 
L 129.663538 284.971779 
L 129.663538 284.720028 
L 132.358208 284.720028 
L 132.358208 284.594152 
L 137.761112 284.594152 
L 137.761112 284.468276 
L 140.405242 284.468276 
L 140.405242 284.3424 
L 142.579895 284.3424 
L 142.579895 284.216524 
L 143.18612 284.216524 
L 143.18612 283.838897 
L 144.305496 283.838897 
L 144.305496 283.713021 
L 144.71325 283.713021 
L 144.71325 283.587145 
L 145.415054 283.587145 
L 145.415054 283.461269 
L 145.695567 283.461269 
L 145.695567 283.335393 
L 146.193574 283.335393 
L 146.193574 283.209517 
L 146.462796 283.209517 
L 146.462796 283.083641 
L 147.691478 283.083641 
L 147.691478 282.957766 
L 147.816265 282.957766 
L 147.909315 282.580138 
L 148.124658 282.580138 
L 148.124658 282.328386 
L 148.57797 282.328386 
L 148.622706 282.076634 
L 150.207323 282.076634 
L 150.289291 281.824883 
L 150.370903 281.824883 
L 150.370903 281.699007 
L 151.155108 281.699007 
L 151.155108 281.447255 
L 152.020159 281.447255 
L 152.020159 281.321379 
L 152.16877 281.321379 
L 152.16877 281.195503 
L 152.316216 281.195503 
L 152.316216 280.817876 
L 153.154019 280.817876 
L 153.154019 280.692 
L 153.798392 280.692 
L 153.798392 280.566124 
L 154.267588 280.566124 
L 154.355647 280.062621 
L 154.410475 280.062621 
L 154.410475 279.936745 
L 155.381403 279.936745 
L 155.381403 279.810869 
L 156.84148 279.810869 
L 156.84148 279.559117 
L 157.76159 279.559117 
L 157.76159 279.18149 
L 158.968213 279.18149 
L 158.968213 279.055614 
L 159.300416 279.055614 
L 159.401463 278.803862 
L 160.093991 278.803862 
L 160.093991 278.677986 
L 160.383158 278.677986 
L 160.383158 278.55211 
L 162.492258 278.55211 
L 162.577572 278.174483 
L 163.746367 278.174483 
L 163.746367 278.048607 
L 163.945293 278.048607 
L 163.945293 277.796855 
L 164.777484 277.796855 
L 164.777484 277.670979 
L 165.330896 277.670979 
L 165.330896 277.545103 
L 165.55626 277.545103 
L 165.55626 277.419228 
L 165.886348 277.419228 
L 165.886348 277.167476 
L 166.350564 277.167476 
L 166.350564 277.0416 
L 166.871471 277.0416 
L 166.871471 276.915724 
L 167.257048 276.915724 
L 167.257048 276.789848 
L 167.455124 276.789848 
L 167.455124 276.538097 
L 167.80219 276.538097 
L 167.80219 276.412221 
L 168.719753 276.412221 
L 168.719753 276.286345 
L 169.353741 276.286345 
L 169.353741 276.160469 
L 169.521218 276.160469 
L 169.575085 275.908717 
L 169.701795 275.908717 
L 169.701795 275.782841 
L 169.813178 275.782841 
L 169.890274 275.53109 
L 170.242793 275.53109 
L 170.242793 275.279338 
L 170.561006 275.279338 
L 170.565646 274.90171 
L 170.685877 274.90171 
L 170.754894 274.649959 
L 171.060113 274.649959 
L 171.123269 274.398207 
L 171.435909 274.398207 
L 171.502232 274.020579 
L 171.92557 274.020579 
L 171.96437 273.768828 
L 172.946065 273.768828 
L 173.027642 273.517076 
L 173.370449 273.517076 
L 173.370449 273.265324 
L 173.77765 273.265324 
L 173.77765 272.887697 
L 174.045587 272.887697 
L 174.045587 272.635945 
L 360.8064 272.635945 
L 360.8064 272.635945 
" style="fill: none; stroke: #000000; stroke-width: 1.5; stroke-linecap: square"/>
   </g>
   <g id="line2d_46">
    <defs>
     <path id="m408a8e31cb" d="M 0 6 
C 1.591219 6 3.117479 5.367802 4.242641 4.242641 
C 5.367802 3.117479 6 1.591219 6 0 
C 6 -1.591219 5.367802 -3.117479 4.242641 -4.242641 
C 3.117479 -5.367802 1.591219 -6 0 -6 
C -1.591219 -6 -3.117479 -5.367802 -4.242641 -4.242641 
C -5.367802 -3.117479 -6 -1.591219 -6 0 
C -6 1.591219 -5.367802 3.117479 -4.242641 4.242641 
C -3.117479 5.367802 -1.591219 6 0 6 
z
" style="stroke: #000000; stroke-width: 1.5"/>
    </defs>
    <g>
     <use xlink:href="#m408a8e31cb" x="104.655893" y="286.608166" style="fill-opacity: 0; stroke: #000000; stroke-width: 1.5"/>
     <use xlink:href="#m408a8e31cb" x="170.754894" y="274.775834" style="fill-opacity: 0; stroke: #000000; stroke-width: 1.5"/>
     <use xlink:href="#m408a8e31cb" x="174.045587" y="272.635945" style="fill-opacity: 0; stroke: #000000; stroke-width: 1.5"/>
     <use xlink:href="#m408a8e31cb" x="174.045587" y="272.635945" style="fill-opacity: 0; stroke: #000000; stroke-width: 1.5"/>
     <use xlink:href="#m408a8e31cb" x="174.045587" y="272.635945" style="fill-opacity: 0; stroke: #000000; stroke-width: 1.5"/>
     <use xlink:href="#m408a8e31cb" x="360.8064" y="272.635945" style="fill-opacity: 0; stroke: #000000; stroke-width: 1.5"/>
    </g>
   </g>
   <g id="line2d_47">
    <path style="fill: none; stroke: #000000; stroke-width: 1.5; stroke-linecap: square"/>
    <g/>
   </g>
   <g id="line2d_48">
    <path d="M 174.882632 272.635945 
" clip-path="url(#pf220fcc1a9)" style="fill: none; stroke: #000000; stroke-width: 1.5; stroke-linecap: square"/>
    <defs>
     <path id="m41f2f6f36c" d="M -12 12 
L 12 -12 
M -12 -12 
L 12 12 
" style="stroke: #000000"/>
    </defs>
    <g clip-path="url(#pf220fcc1a9)">
     <use xlink:href="#m41f2f6f36c" x="174.882632" y="272.635945" style="stroke: #000000"/>
    </g>
   </g>
   <g id="line2d_49">
    <defs>
     <path id="m5f15c71622" d="M 0 1.5 
C 0.397805 1.5 0.77937 1.341951 1.06066 1.06066 
C 1.341951 0.77937 1.5 0.397805 1.5 0 
C 1.5 -0.397805 1.341951 -0.77937 1.06066 -1.06066 
C 0.77937 -1.341951 0.397805 -1.5 0 -1.5 
C -0.397805 -1.5 -0.77937 -1.341951 -1.06066 -1.06066 
C -1.341951 -0.77937 -1.5 -0.397805 -1.5 0 
C -1.5 0.397805 -1.341951 0.77937 -1.06066 1.06066 
C -0.77937 1.341951 -0.397805 1.5 0 1.5 
z
" style="stroke: #ff0000"/>
    </defs>
    <g>
     <use xlink:href="#m5f15c71622" x="161.512345" y="287.866924" style="fill: #ff0000; stroke: #ff0000"/>
     <use xlink:href="#m5f15c71622" x="161.512345" y="287.866924" style="fill: #ff0000; stroke: #ff0000"/>
    </g>
   </g>
   <g id="line2d_50">
    <path d="M 1.245626 298.944 
L 1.245626 290.006814 
L 74.456807 290.006814 
L 74.456807 289.880938 
L 78.266603 289.880938 
L 78.266603 289.755062 
L 114.510421 289.755062 
L 114.510421 289.629186 
L 134.792631 289.629186 
L 134.792631 289.50331 
L 136.184497 289.50331 
L 136.184497 289.251559 
L 141.793563 289.251559 
L 141.793563 289.125683 
L 146.040426 289.125683 
L 146.040426 288.999807 
L 148.555562 288.999807 
L 148.555562 288.873931 
L 153.770091 288.873931 
L 153.770091 288.748055 
L 153.961702 288.748055 
L 153.961702 288.622179 
L 155.151225 288.622179 
L 155.151225 288.496303 
L 155.531586 288.496303 
L 155.531586 288.370428 
L 156.812591 288.370428 
L 156.812591 288.244552 
L 158.57308 288.244552 
L 158.57308 288.118676 
L 159.118005 288.118676 
L 159.118005 287.9928 
L 161.512345 287.9928 
L 161.512345 287.866924 
L 360.8064 287.866924 
" style="fill: none; stroke: #ff0000; stroke-width: 1.5; stroke-linecap: square"/>
   </g>
   <g id="line2d_51">
    <defs>
     <path id="mb7a47a77fb" d="M -6 6 
L 6 6 
L 6 -6 
L -6 -6 
z
" style="stroke: #ff0000; stroke-width: 1.5; stroke-linejoin: miter"/>
    </defs>
    <g>
     <use xlink:href="#mb7a47a77fb" x="161.512345" y="287.9928" style="fill-opacity: 0; stroke: #ff0000; stroke-width: 1.5; stroke-linejoin: miter"/>
     <use xlink:href="#mb7a47a77fb" x="161.512345" y="287.9928" style="fill-opacity: 0; stroke: #ff0000; stroke-width: 1.5; stroke-linejoin: miter"/>
     <use xlink:href="#mb7a47a77fb" x="161.512345" y="287.866924" style="fill-opacity: 0; stroke: #ff0000; stroke-width: 1.5; stroke-linejoin: miter"/>
     <use xlink:href="#mb7a47a77fb" x="161.512345" y="287.866924" style="fill-opacity: 0; stroke: #ff0000; stroke-width: 1.5; stroke-linejoin: miter"/>
     <use xlink:href="#mb7a47a77fb" x="360.8064" y="287.866924" style="fill-opacity: 0; stroke: #ff0000; stroke-width: 1.5; stroke-linejoin: miter"/>
    </g>
   </g>
   <g id="line2d_52">
    <path style="fill: none; stroke: #ff0000; stroke-width: 1.5; stroke-linecap: square"/>
    <g/>
   </g>
   <g id="line2d_53">
    <path d="M 161.843457 287.866924 
" clip-path="url(#pf220fcc1a9)" style="fill: none; stroke: #ff0000; stroke-width: 1.5; stroke-linecap: square"/>
    <defs>
     <path id="m69b49be850" d="M -12 12 
L 12 -12 
M -12 -12 
L 12 12 
" style="stroke: #ff0000"/>
    </defs>
    <g clip-path="url(#pf220fcc1a9)">
     <use xlink:href="#m69b49be850" x="161.843457" y="287.866924" style="fill: #ff0000; stroke: #ff0000"/>
    </g>
   </g>
   <g id="line2d_54">
    <defs>
     <path id="m39d621bebe" d="M 0 1.5 
C 0.397805 1.5 0.77937 1.341951 1.06066 1.06066 
C 1.341951 0.77937 1.5 0.397805 1.5 0 
C 1.5 -0.397805 1.341951 -0.77937 1.06066 -1.06066 
C 0.77937 -1.341951 0.397805 -1.5 0 -1.5 
C -0.397805 -1.5 -0.77937 -1.341951 -1.06066 -1.06066 
C -1.341951 -0.77937 -1.5 -0.397805 -1.5 0 
C -1.5 0.397805 -1.341951 0.77937 -1.06066 1.06066 
C -0.77937 1.341951 -0.397805 1.5 0 1.5 
z
" style="stroke: #bf00bf"/>
    </defs>
    <g/>
   </g>
   <g id="line2d_55">
    <path d="M -1 288.496303 
L 360.8064 288.496303 
" style="fill: none; stroke: #bf00bf; stroke-width: 1.5; stroke-linecap: square"/>
   </g>
   <g id="line2d_56">
    <defs>
     <path id="m7fc38c73ca" d="M 0 8.485281 
L 8.485281 0 
L 0 -8.485281 
L -8.485281 0 
z
" style="stroke: #bf00bf; stroke-width: 1.5; stroke-linejoin: miter"/>
    </defs>
    <g>
     <use xlink:href="#m7fc38c73ca" x="360.8064" y="288.496303" style="fill-opacity: 0; stroke: #bf00bf; stroke-width: 1.5; stroke-linejoin: miter"/>
    </g>
   </g>
   <g id="line2d_57">
    <path style="fill: none; stroke: #bf00bf; stroke-width: 1.5; stroke-linecap: square"/>
    <g/>
   </g>
   <g id="line2d_58">
    <path d="M 148.804283 288.496303 
" clip-path="url(#pf220fcc1a9)" style="fill: none; stroke: #bf00bf; stroke-width: 1.5; stroke-linecap: square"/>
    <defs>
     <path id="mad65a4cefc" d="M -12 12 
L 12 -12 
M -12 -12 
L 12 12 
" style="stroke: #bf00bf"/>
    </defs>
    <g clip-path="url(#pf220fcc1a9)">
     <use xlink:href="#mad65a4cefc" x="148.804283" y="288.496303" style="fill: #bf00bf; stroke: #bf00bf"/>
    </g>
   </g>
   <g id="line2d_59">
    <path d="M 360.8064 288.496303 
L 380.514816 293.10336 
" style="fill: none; stroke: #bf00bf; stroke-width: 1.5; stroke-linecap: square"/>
    <g>
     <use xlink:href="#m7fc38c73ca" x="360.8064" y="288.496303" style="fill-opacity: 0; stroke: #bf00bf; stroke-width: 1.5; stroke-linejoin: miter"/>
     <use xlink:href="#m7fc38c73ca" x="380.514816" y="293.10336" style="fill-opacity: 0; stroke: #bf00bf; stroke-width: 1.5; stroke-linejoin: miter"/>
    </g>
   </g>
   <g id="line2d_60">
    <path d="M 360.8064 287.866924 
L 380.514816 237.033216 
" style="fill: none; stroke: #ff0000; stroke-width: 1.5; stroke-linecap: square"/>
    <g>
     <use xlink:href="#mb7a47a77fb" x="360.8064" y="287.866924" style="fill-opacity: 0; stroke: #ff0000; stroke-width: 1.5; stroke-linejoin: miter"/>
     <use xlink:href="#mb7a47a77fb" x="380.514816" y="237.033216" style="fill-opacity: 0; stroke: #ff0000; stroke-width: 1.5; stroke-linejoin: miter"/>
    </g>
   </g>
   <g id="line2d_61">
    <path d="M 360.8064 272.635945 
L 380.514816 180.963072 
" style="fill: none; stroke: #000000; stroke-width: 1.5; stroke-linecap: square"/>
    <g>
     <use xlink:href="#m408a8e31cb" x="360.8064" y="272.635945" style="fill-opacity: 0; stroke: #000000; stroke-width: 1.5"/>
     <use xlink:href="#m408a8e31cb" x="380.514816" y="180.963072" style="fill-opacity: 0; stroke: #000000; stroke-width: 1.5"/>
    </g>
   </g>
   <g id="line2d_62">
    <path d="M 360.8064 236.383697 
L 380.514816 124.892928 
" style="fill: none; stroke: #0000ff; stroke-width: 1.5; stroke-linecap: square"/>
    <g>
     <use xlink:href="#m6aecea6032" x="360.8064" y="236.383697" style="fill-opacity: 0; stroke: #0000ff; stroke-width: 1.5; stroke-linejoin: bevel"/>
     <use xlink:href="#m6aecea6032" x="380.514816" y="124.892928" style="fill-opacity: 0; stroke: #0000ff; stroke-width: 1.5; stroke-linejoin: bevel"/>
    </g>
   </g>
   <g id="line2d_63">
    <path d="M 360.8064 195.22229 
L 380.514816 68.822784 
" style="fill: none; stroke: #008000; stroke-width: 1.5; stroke-linecap: square"/>
    <g>
     <use xlink:href="#m10d941a653" x="360.8064" y="195.22229" style="fill-opacity: 0; stroke: #008000; stroke-width: 1.5; stroke-linejoin: miter"/>
     <use xlink:href="#m10d941a653" x="380.514816" y="68.822784" style="fill-opacity: 0; stroke: #008000; stroke-width: 1.5; stroke-linejoin: miter"/>
    </g>
   </g>
   <g id="line2d_64">
    <path d="M 360.8064 168.662483 
L 380.514816 12.75264 
" style="fill: none; stroke: #00bfbf; stroke-width: 1.5; stroke-linecap: square"/>
    <g>
     <use xlink:href="#m0492036b73" x="360.8064" y="168.662483" style="fill-opacity: 0; stroke: #00bfbf; stroke-width: 1.5"/>
     <use xlink:href="#m0492036b73" x="380.514816" y="12.75264" style="fill-opacity: 0; stroke: #00bfbf; stroke-width: 1.5"/>
    </g>
   </g>
   <g id="line2d_65">
    <path d="M 360.8064 298.944 
L 360.8064 6.912 
" style="fill: none; stroke: #000000; stroke-width: 1.5; stroke-linecap: square"/>
   </g>
   <g id="patch_3">
    <path d="M 57.6 298.944 
L 360.8064 298.944 
" style="fill: none; stroke: #000000; stroke-width: 0.8; stroke-linejoin: miter; stroke-linecap: square"/>
   </g>
   <g id="patch_4">
    <path d="M 57.6 6.912 
L 360.8064 6.912 
" style="fill: none; stroke: #000000; stroke-width: 0.8; stroke-linejoin: miter; stroke-linecap: square"/>
   </g>
   <g id="text_13">
    <!-- 40-D -->
    <g transform="translate(386.578944 296.966485)scale(0.14 -0.14)">
     <defs>
      <path id="DejaVuSans-44" d="M 1259 4147 
L 1259 519 
L 2022 519 
Q 2988 519 3436 956 
Q 3884 1394 3884 2338 
Q 3884 3275 3436 3711 
Q 2988 4147 2022 4147 
L 1259 4147 
z
M 628 4666 
L 1925 4666 
Q 3281 4666 3915 4102 
Q 4550 3538 4550 2338 
Q 4550 1131 3912 565 
Q 3275 0 1925 0 
L 628 0 
L 628 4666 
z
" transform="scale(0.015625)"/>
     </defs>
     <use xlink:href="#DejaVuSans-34"/>
     <use xlink:href="#DejaVuSans-30" x="63.623047"/>
     <use xlink:href="#DejaVuSans-2d" x="127.246094"/>
     <use xlink:href="#DejaVuSans-44" x="163.330078"/>
    </g>
   </g>
   <g id="text_14">
    <!-- 20-D -->
    <g transform="translate(386.578944 240.896341)scale(0.14 -0.14)">
     <use xlink:href="#DejaVuSans-32"/>
     <use xlink:href="#DejaVuSans-30" x="63.623047"/>
     <use xlink:href="#DejaVuSans-2d" x="127.246094"/>
     <use xlink:href="#DejaVuSans-44" x="163.330078"/>
    </g>
   </g>
   <g id="text_15">
    <!-- 10-D -->
    <g transform="translate(386.578944 184.826197)scale(0.14 -0.14)">
     <use xlink:href="#DejaVuSans-31"/>
     <use xlink:href="#DejaVuSans-30" x="63.623047"/>
     <use xlink:href="#DejaVuSans-2d" x="127.246094"/>
     <use xlink:href="#DejaVuSans-44" x="163.330078"/>
    </g>
   </g>
   <g id="text_16">
    <!-- 5-D -->
    <g transform="translate(386.578944 128.756053)scale(0.14 -0.14)">
     <defs>
      <path id="DejaVuSans-35" d="M 691 4666 
L 3169 4666 
L 3169 4134 
L 1269 4134 
L 1269 2991 
Q 1406 3038 1543 3061 
Q 1681 3084 1819 3084 
Q 2600 3084 3056 2656 
Q 3513 2228 3513 1497 
Q 3513 744 3044 326 
Q 2575 -91 1722 -91 
Q 1428 -91 1123 -41 
Q 819 9 494 109 
L 494 744 
Q 775 591 1075 516 
Q 1375 441 1709 441 
Q 2250 441 2565 725 
Q 2881 1009 2881 1497 
Q 2881 1984 2565 2268 
Q 2250 2553 1709 2553 
Q 1456 2553 1204 2497 
Q 953 2441 691 2322 
L 691 4666 
z
" transform="scale(0.015625)"/>
     </defs>
     <use xlink:href="#DejaVuSans-35"/>
     <use xlink:href="#DejaVuSans-2d" x="63.623047"/>
     <use xlink:href="#DejaVuSans-44" x="99.707031"/>
    </g>
   </g>
   <g id="text_17">
    <!-- 3-D -->
    <g transform="translate(386.578944 72.685909)scale(0.14 -0.14)">
     <defs>
      <path id="DejaVuSans-33" d="M 2597 2516 
Q 3050 2419 3304 2112 
Q 3559 1806 3559 1356 
Q 3559 666 3084 287 
Q 2609 -91 1734 -91 
Q 1441 -91 1130 -33 
Q 819 25 488 141 
L 488 750 
Q 750 597 1062 519 
Q 1375 441 1716 441 
Q 2309 441 2620 675 
Q 2931 909 2931 1356 
Q 2931 1769 2642 2001 
Q 2353 2234 1838 2234 
L 1294 2234 
L 1294 2753 
L 1863 2753 
Q 2328 2753 2575 2939 
Q 2822 3125 2822 3475 
Q 2822 3834 2567 4026 
Q 2313 4219 1838 4219 
Q 1578 4219 1281 4162 
Q 984 4106 628 3988 
L 628 4550 
Q 988 4650 1302 4700 
Q 1616 4750 1894 4750 
Q 2613 4750 3031 4423 
Q 3450 4097 3450 3541 
Q 3450 3153 3228 2886 
Q 3006 2619 2597 2516 
z
" transform="scale(0.015625)"/>
     </defs>
     <use xlink:href="#DejaVuSans-33"/>
     <use xlink:href="#DejaVuSans-2d" x="63.623047"/>
     <use xlink:href="#DejaVuSans-44" x="99.707031"/>
    </g>
   </g>
   <g id="text_18">
    <!-- 2-D -->
    <g transform="translate(386.578944 16.615765)scale(0.14 -0.14)">
     <use xlink:href="#DejaVuSans-32"/>
     <use xlink:href="#DejaVuSans-2d" x="63.623047"/>
     <use xlink:href="#DejaVuSans-44" x="99.707031"/>
    </g>
   </g>
   <g id="text_19">
    <!-- bbob-biobj f3, f4, f12, f13 -->
    <g transform="translate(60.632064 17.582726)scale(0.102 -0.102)">
     <defs>
      <path id="DejaVuSans-62" d="M 3116 1747 
Q 3116 2381 2855 2742 
Q 2594 3103 2138 3103 
Q 1681 3103 1420 2742 
Q 1159 2381 1159 1747 
Q 1159 1113 1420 752 
Q 1681 391 2138 391 
Q 2594 391 2855 752 
Q 3116 1113 3116 1747 
z
M 1159 2969 
Q 1341 3281 1617 3432 
Q 1894 3584 2278 3584 
Q 2916 3584 3314 3078 
Q 3713 2572 3713 1747 
Q 3713 922 3314 415 
Q 2916 -91 2278 -91 
Q 1894 -91 1617 61 
Q 1341 213 1159 525 
L 1159 0 
L 581 0 
L 581 4863 
L 1159 4863 
L 1159 2969 
z
" transform="scale(0.015625)"/>
      <path id="DejaVuSans-6a" d="M 603 3500 
L 1178 3500 
L 1178 -63 
Q 1178 -731 923 -1031 
Q 669 -1331 103 -1331 
L -116 -1331 
L -116 -844 
L 38 -844 
Q 366 -844 484 -692 
Q 603 -541 603 -63 
L 603 3500 
z
M 603 4863 
L 1178 4863 
L 1178 4134 
L 603 4134 
L 603 4863 
z
" transform="scale(0.015625)"/>
     </defs>
     <use xlink:href="#DejaVuSans-62"/>
     <use xlink:href="#DejaVuSans-62" x="63.476562"/>
     <use xlink:href="#DejaVuSans-6f" x="126.953125"/>
     <use xlink:href="#DejaVuSans-62" x="188.134766"/>
     <use xlink:href="#DejaVuSans-2d" x="251.611328"/>
     <use xlink:href="#DejaVuSans-62" x="287.695312"/>
     <use xlink:href="#DejaVuSans-69" x="351.171875"/>
     <use xlink:href="#DejaVuSans-6f" x="378.955078"/>
     <use xlink:href="#DejaVuSans-62" x="440.136719"/>
     <use xlink:href="#DejaVuSans-6a" x="503.613281"/>
     <use xlink:href="#DejaVuSans-20" x="531.396484"/>
     <use xlink:href="#DejaVuSans-66" x="563.183594"/>
     <use xlink:href="#DejaVuSans-33" x="598.388672"/>
     <use xlink:href="#DejaVuSans-2c" x="662.011719"/>
     <use xlink:href="#DejaVuSans-20" x="693.798828"/>
     <use xlink:href="#DejaVuSans-66" x="725.585938"/>
     <use xlink:href="#DejaVuSans-34" x="760.791016"/>
     <use xlink:href="#DejaVuSans-2c" x="824.414062"/>
     <use xlink:href="#DejaVuSans-20" x="856.201172"/>
     <use xlink:href="#DejaVuSans-66" x="887.988281"/>
     <use xlink:href="#DejaVuSans-31" x="923.193359"/>
     <use xlink:href="#DejaVuSans-32" x="986.816406"/>
     <use xlink:href="#DejaVuSans-2c" x="1050.439453"/>
     <use xlink:href="#DejaVuSans-20" x="1082.226562"/>
     <use xlink:href="#DejaVuSans-66" x="1114.013672"/>
     <use xlink:href="#DejaVuSans-31" x="1149.21875"/>
     <use xlink:href="#DejaVuSans-33" x="1212.841797"/>
    </g>
    <!-- 58 targets: 1..-1.0e-4 -->
    <g transform="translate(60.632064 29.004495)scale(0.102 -0.102)">
     <defs>
      <path id="DejaVuSans-3a" d="M 750 794 
L 1409 794 
L 1409 0 
L 750 0 
L 750 794 
z
M 750 3309 
L 1409 3309 
L 1409 2516 
L 750 2516 
L 750 3309 
z
" transform="scale(0.015625)"/>
     </defs>
     <use xlink:href="#DejaVuSans-35"/>
     <use xlink:href="#DejaVuSans-38" x="63.623047"/>
     <use xlink:href="#DejaVuSans-20" x="127.246094"/>
     <use xlink:href="#DejaVuSans-74" x="159.033203"/>
     <use xlink:href="#DejaVuSans-61" x="198.242188"/>
     <use xlink:href="#DejaVuSans-72" x="259.521484"/>
     <use xlink:href="#DejaVuSans-67" x="298.884766"/>
     <use xlink:href="#DejaVuSans-65" x="362.361328"/>
     <use xlink:href="#DejaVuSans-74" x="423.884766"/>
     <use xlink:href="#DejaVuSans-73" x="463.09375"/>
     <use xlink:href="#DejaVuSans-3a" x="515.193359"/>
     <use xlink:href="#DejaVuSans-20" x="548.884766"/>
     <use xlink:href="#DejaVuSans-31" x="580.671875"/>
     <use xlink:href="#DejaVuSans-2e" x="644.294922"/>
     <use xlink:href="#DejaVuSans-2e" x="676.082031"/>
     <use xlink:href="#DejaVuSans-2d" x="707.869141"/>
     <use xlink:href="#DejaVuSans-31" x="743.953125"/>
     <use xlink:href="#DejaVuSans-2e" x="807.576172"/>
     <use xlink:href="#DejaVuSans-30" x="839.363281"/>
     <use xlink:href="#DejaVuSans-65" x="902.986328"/>
     <use xlink:href="#DejaVuSans-2d" x="964.509766"/>
     <use xlink:href="#DejaVuSans-34" x="1000.59375"/>
    </g>
    <!-- 10 instances -->
    <g transform="translate(60.632064 40.426264)scale(0.102 -0.102)">
     <use xlink:href="#DejaVuSans-31"/>
     <use xlink:href="#DejaVuSans-30" x="63.623047"/>
     <use xlink:href="#DejaVuSans-20" x="127.246094"/>
     <use xlink:href="#DejaVuSans-69" x="159.033203"/>
     <use xlink:href="#DejaVuSans-6e" x="186.816406"/>
     <use xlink:href="#DejaVuSans-73" x="250.195312"/>
     <use xlink:href="#DejaVuSans-74" x="302.294922"/>
     <use xlink:href="#DejaVuSans-61" x="341.503906"/>
     <use xlink:href="#DejaVuSans-6e" x="402.783203"/>
     <use xlink:href="#DejaVuSans-63" x="466.162109"/>
     <use xlink:href="#DejaVuSans-65" x="521.142578"/>
     <use xlink:href="#DejaVuSans-73" x="582.666016"/>
    </g>
   </g>
   <g id="text_20">
    <!-- v2.6, hv-hash=ff0e71e8cd978373 -->
    <g style="fill: #808080" transform="translate(123.707887 293.943992)scale(0.1 -0.1)">
     <defs>
      <path id="DejaVuSans-68" d="M 3513 2113 
L 3513 0 
L 2938 0 
L 2938 2094 
Q 2938 2591 2744 2837 
Q 2550 3084 2163 3084 
Q 1697 3084 1428 2787 
Q 1159 2491 1159 1978 
L 1159 0 
L 581 0 
L 581 4863 
L 1159 4863 
L 1159 2956 
Q 1366 3272 1645 3428 
Q 1925 3584 2291 3584 
Q 2894 3584 3203 3211 
Q 3513 2838 3513 2113 
z
" transform="scale(0.015625)"/>
      <path id="DejaVuSans-3d" d="M 678 2906 
L 4684 2906 
L 4684 2381 
L 678 2381 
L 678 2906 
z
M 678 1631 
L 4684 1631 
L 4684 1100 
L 678 1100 
L 678 1631 
z
" transform="scale(0.015625)"/>
      <path id="DejaVuSans-37" d="M 525 4666 
L 3525 4666 
L 3525 4397 
L 1831 0 
L 1172 0 
L 2766 4134 
L 525 4134 
L 525 4666 
z
" transform="scale(0.015625)"/>
      <path id="DejaVuSans-39" d="M 703 97 
L 703 672 
Q 941 559 1184 500 
Q 1428 441 1663 441 
Q 2288 441 2617 861 
Q 2947 1281 2994 2138 
Q 2813 1869 2534 1725 
Q 2256 1581 1919 1581 
Q 1219 1581 811 2004 
Q 403 2428 403 3163 
Q 403 3881 828 4315 
Q 1253 4750 1959 4750 
Q 2769 4750 3195 4129 
Q 3622 3509 3622 2328 
Q 3622 1225 3098 567 
Q 2575 -91 1691 -91 
Q 1453 -91 1209 -44 
Q 966 3 703 97 
z
M 1959 2075 
Q 2384 2075 2632 2365 
Q 2881 2656 2881 3163 
Q 2881 3666 2632 3958 
Q 2384 4250 1959 4250 
Q 1534 4250 1286 3958 
Q 1038 3666 1038 3163 
Q 1038 2656 1286 2365 
Q 1534 2075 1959 2075 
z
" transform="scale(0.015625)"/>
     </defs>
     <use xlink:href="#DejaVuSans-76"/>
     <use xlink:href="#DejaVuSans-32" x="59.179688"/>
     <use xlink:href="#DejaVuSans-2e" x="122.802734"/>
     <use xlink:href="#DejaVuSans-36" x="154.589844"/>
     <use xlink:href="#DejaVuSans-2c" x="218.212891"/>
     <use xlink:href="#DejaVuSans-20" x="250"/>
     <use xlink:href="#DejaVuSans-68" x="281.787109"/>
     <use xlink:href="#DejaVuSans-76" x="345.166016"/>
     <use xlink:href="#DejaVuSans-2d" x="401.720703"/>
     <use xlink:href="#DejaVuSans-68" x="437.804688"/>
     <use xlink:href="#DejaVuSans-61" x="501.183594"/>
     <use xlink:href="#DejaVuSans-73" x="562.462891"/>
     <use xlink:href="#DejaVuSans-68" x="614.5625"/>
     <use xlink:href="#DejaVuSans-3d" x="677.941406"/>
     <use xlink:href="#DejaVuSans-66" x="761.730469"/>
     <use xlink:href="#DejaVuSans-66" x="796.935547"/>
     <use xlink:href="#DejaVuSans-30" x="832.140625"/>
     <use xlink:href="#DejaVuSans-65" x="895.763672"/>
     <use xlink:href="#DejaVuSans-37" x="957.287109"/>
     <use xlink:href="#DejaVuSans-31" x="1020.910156"/>
     <use xlink:href="#DejaVuSans-65" x="1084.533203"/>
     <use xlink:href="#DejaVuSans-38" x="1146.056641"/>
     <use xlink:href="#DejaVuSans-63" x="1209.679688"/>
     <use xlink:href="#DejaVuSans-64" x="1264.660156"/>
     <use xlink:href="#DejaVuSans-39" x="1328.136719"/>
     <use xlink:href="#DejaVuSans-37" x="1391.759766"/>
     <use xlink:href="#DejaVuSans-38" x="1455.382812"/>
     <use xlink:href="#DejaVuSans-33" x="1519.005859"/>
     <use xlink:href="#DejaVuSans-37" x="1582.628906"/>
     <use xlink:href="#DejaVuSans-33" x="1646.251953"/>
    </g>
   </g>
  </g>
 </g>
 <defs>
  <clipPath id="pf220fcc1a9">
   <rect x="57.6" y="6.912" width="303.2064" height="292.032"/>
  </clipPath>
 </defs>
</svg>
