<?xml version="1.0" encoding="utf-8" standalone="no"?>
<!DOCTYPE svg PUBLIC "-//W3C//DTD SVG 1.1//EN"
  "http://www.w3.org/Graphics/SVG/1.1/DTD/svg11.dtd">
<svg xmlns:xlink="http://www.w3.org/1999/xlink" width="460.8pt" height="345.6pt" viewBox="0 0 460.8 345.6" xmlns="http://www.w3.org/2000/svg" version="1.1">
 <metadata>
  <rdf:RDF xmlns:dc="http://purl.org/dc/elements/1.1/" xmlns:cc="http://creativecommons.org/ns#" xmlns:rdf="http://www.w3.org/1999/02/22-rdf-syntax-ns#">
   <cc:Work>
    <dc:type rdf:resource="http://purl.org/dc/dcmitype/StillImage"/>
    <dc:date>2022-06-19T17:22:30.329001</dc:date>
    <dc:format>image/svg+xml</dc:format>
    <dc:creator>
     <cc:Agent>
      <dc:title>Matplotlib v3.5.2, https://matplotlib.org/</dc:title>
     </cc:Agent>
    </dc:creator>
   </cc:Work>
  </rdf:RDF>
 </metadata>
 <defs>
  <style type="text/css">*{stroke-linejoin: round; stroke-linecap: butt}</style>
 </defs>
 <g id="figure_1">
  <g id="patch_1">
   <path d="M 0 345.6 
L 460.8 345.6 
L 460.8 0 
L 0 0 
z
" style="fill: #ffffff"/>
  </g>
  <g id="axes_1">
   <g id="patch_2">
    <path d="M 57.6 298.944 
L 360.8064 298.944 
L 360.8064 6.912 
L 57.6 6.912 
z
" style="fill: #ffffff"/>
   </g>
   <g id="matplotlib.axis_1">
    <g id="xtick_1">
     <g id="line2d_1">
      <path d="M 57.6 298.944 
L 57.6 6.912 
" clip-path="url(#p8f28f0dd5c)" style="fill: none; stroke: #b0b0b0; stroke-width: 0.8; stroke-linecap: square"/>
     </g>
     <g id="line2d_2">
      <defs>
       <path id="m0962e5d2cd" d="M 0 0 
L 0 3.5 
" style="stroke: #000000; stroke-width: 0.8"/>
      </defs>
      <g>
       <use xlink:href="#m0962e5d2cd" x="57.6" y="298.944" style="stroke: #000000; stroke-width: 0.8"/>
      </g>
     </g>
     <g id="text_1">
      <!-- 0 -->
      <g transform="translate(52.191875 318.861344)scale(0.17 -0.17)">
       <defs>
        <path id="DejaVuSans-30" d="M 2034 4250 
Q 1547 4250 1301 3770 
Q 1056 3291 1056 2328 
Q 1056 1369 1301 889 
Q 1547 409 2034 409 
Q 2525 409 2770 889 
Q 3016 1369 3016 2328 
Q 3016 3291 2770 3770 
Q 2525 4250 2034 4250 
z
M 2034 4750 
Q 2819 4750 3233 4129 
Q 3647 3509 3647 2328 
Q 3647 1150 3233 529 
Q 2819 -91 2034 -91 
Q 1250 -91 836 529 
Q 422 1150 422 2328 
Q 422 3509 836 4129 
Q 1250 4750 2034 4750 
z
" transform="scale(0.015625)"/>
       </defs>
       <use xlink:href="#DejaVuSans-30"/>
      </g>
     </g>
    </g>
    <g id="xtick_2">
     <g id="line2d_3">
      <path d="M 144.2304 298.944 
L 144.2304 6.912 
" clip-path="url(#p8f28f0dd5c)" style="fill: none; stroke: #b0b0b0; stroke-width: 0.8; stroke-linecap: square"/>
     </g>
     <g id="line2d_4">
      <g>
       <use xlink:href="#m0962e5d2cd" x="144.2304" y="298.944" style="stroke: #000000; stroke-width: 0.8"/>
      </g>
     </g>
     <g id="text_2">
      <!-- 2 -->
      <g transform="translate(138.822275 318.861344)scale(0.17 -0.17)">
       <defs>
        <path id="DejaVuSans-32" d="M 1228 531 
L 3431 531 
L 3431 0 
L 469 0 
L 469 531 
Q 828 903 1448 1529 
Q 2069 2156 2228 2338 
Q 2531 2678 2651 2914 
Q 2772 3150 2772 3378 
Q 2772 3750 2511 3984 
Q 2250 4219 1831 4219 
Q 1534 4219 1204 4116 
Q 875 4013 500 3803 
L 500 4441 
Q 881 4594 1212 4672 
Q 1544 4750 1819 4750 
Q 2544 4750 2975 4387 
Q 3406 4025 3406 3419 
Q 3406 3131 3298 2873 
Q 3191 2616 2906 2266 
Q 2828 2175 2409 1742 
Q 1991 1309 1228 531 
z
" transform="scale(0.015625)"/>
       </defs>
       <use xlink:href="#DejaVuSans-32"/>
      </g>
     </g>
    </g>
    <g id="xtick_3">
     <g id="line2d_5">
      <path d="M 230.8608 298.944 
L 230.8608 6.912 
" clip-path="url(#p8f28f0dd5c)" style="fill: none; stroke: #b0b0b0; stroke-width: 0.8; stroke-linecap: square"/>
     </g>
     <g id="line2d_6">
      <g>
       <use xlink:href="#m0962e5d2cd" x="230.8608" y="298.944" style="stroke: #000000; stroke-width: 0.8"/>
      </g>
     </g>
     <g id="text_3">
      <!-- 4 -->
      <g transform="translate(225.452675 318.861344)scale(0.17 -0.17)">
       <defs>
        <path id="DejaVuSans-34" d="M 2419 4116 
L 825 1625 
L 2419 1625 
L 2419 4116 
z
M 2253 4666 
L 3047 4666 
L 3047 1625 
L 3713 1625 
L 3713 1100 
L 3047 1100 
L 3047 0 
L 2419 0 
L 2419 1100 
L 313 1100 
L 313 1709 
L 2253 4666 
z
" transform="scale(0.015625)"/>
       </defs>
       <use xlink:href="#DejaVuSans-34"/>
      </g>
     </g>
    </g>
    <g id="xtick_4">
     <g id="line2d_7">
      <path d="M 317.4912 298.944 
L 317.4912 6.912 
" clip-path="url(#p8f28f0dd5c)" style="fill: none; stroke: #b0b0b0; stroke-width: 0.8; stroke-linecap: square"/>
     </g>
     <g id="line2d_8">
      <g>
       <use xlink:href="#m0962e5d2cd" x="317.4912" y="298.944" style="stroke: #000000; stroke-width: 0.8"/>
      </g>
     </g>
     <g id="text_4">
      <!-- 6 -->
      <g transform="translate(312.083075 318.861344)scale(0.17 -0.17)">
       <defs>
        <path id="DejaVuSans-36" d="M 2113 2584 
Q 1688 2584 1439 2293 
Q 1191 2003 1191 1497 
Q 1191 994 1439 701 
Q 1688 409 2113 409 
Q 2538 409 2786 701 
Q 3034 994 3034 1497 
Q 3034 2003 2786 2293 
Q 2538 2584 2113 2584 
z
M 3366 4563 
L 3366 3988 
Q 3128 4100 2886 4159 
Q 2644 4219 2406 4219 
Q 1781 4219 1451 3797 
Q 1122 3375 1075 2522 
Q 1259 2794 1537 2939 
Q 1816 3084 2150 3084 
Q 2853 3084 3261 2657 
Q 3669 2231 3669 1497 
Q 3669 778 3244 343 
Q 2819 -91 2113 -91 
Q 1303 -91 875 529 
Q 447 1150 447 2328 
Q 447 3434 972 4092 
Q 1497 4750 2381 4750 
Q 2619 4750 2861 4703 
Q 3103 4656 3366 4563 
z
" transform="scale(0.015625)"/>
       </defs>
       <use xlink:href="#DejaVuSans-36"/>
      </g>
     </g>
    </g>
    <g id="xtick_5">
     <g id="line2d_9">
      <path d="M 100.9152 298.944 
L 100.9152 6.912 
" clip-path="url(#p8f28f0dd5c)" style="fill: none; stroke: #b0b0b0; stroke-width: 0.8; stroke-linecap: square"/>
     </g>
     <g id="line2d_10">
      <defs>
       <path id="m3cc1490376" d="M 0 0 
L 0 2 
" style="stroke: #000000; stroke-width: 0.6"/>
      </defs>
      <g>
       <use xlink:href="#m3cc1490376" x="100.9152" y="298.944" style="stroke: #000000; stroke-width: 0.6"/>
      </g>
     </g>
    </g>
    <g id="xtick_6">
     <g id="line2d_11">
      <path d="M 187.5456 298.944 
L 187.5456 6.912 
" clip-path="url(#p8f28f0dd5c)" style="fill: none; stroke: #b0b0b0; stroke-width: 0.8; stroke-linecap: square"/>
     </g>
     <g id="line2d_12">
      <g>
       <use xlink:href="#m3cc1490376" x="187.5456" y="298.944" style="stroke: #000000; stroke-width: 0.6"/>
      </g>
     </g>
    </g>
    <g id="xtick_7">
     <g id="line2d_13">
      <path d="M 274.176 298.944 
L 274.176 6.912 
" clip-path="url(#p8f28f0dd5c)" style="fill: none; stroke: #b0b0b0; stroke-width: 0.8; stroke-linecap: square"/>
     </g>
     <g id="line2d_14">
      <g>
       <use xlink:href="#m3cc1490376" x="274.176" y="298.944" style="stroke: #000000; stroke-width: 0.6"/>
      </g>
     </g>
    </g>
    <g id="xtick_8">
     <g id="line2d_15">
      <path d="M 360.8064 298.944 
L 360.8064 6.912 
" clip-path="url(#p8f28f0dd5c)" style="fill: none; stroke: #b0b0b0; stroke-width: 0.8; stroke-linecap: square"/>
     </g>
     <g id="line2d_16">
      <g>
       <use xlink:href="#m3cc1490376" x="360.8064" y="298.944" style="stroke: #000000; stroke-width: 0.6"/>
      </g>
     </g>
    </g>
    <g id="text_5">
     <!-- log10(# f-evals / dimension) -->
     <g transform="translate(88.823278 339.314156)scale(0.17 -0.17)">
      <defs>
       <path id="DejaVuSans-6c" d="M 603 4863 
L 1178 4863 
L 1178 0 
L 603 0 
L 603 4863 
z
" transform="scale(0.015625)"/>
       <path id="DejaVuSans-6f" d="M 1959 3097 
Q 1497 3097 1228 2736 
Q 959 2375 959 1747 
Q 959 1119 1226 758 
Q 1494 397 1959 397 
Q 2419 397 2687 759 
Q 2956 1122 2956 1747 
Q 2956 2369 2687 2733 
Q 2419 3097 1959 3097 
z
M 1959 3584 
Q 2709 3584 3137 3096 
Q 3566 2609 3566 1747 
Q 3566 888 3137 398 
Q 2709 -91 1959 -91 
Q 1206 -91 779 398 
Q 353 888 353 1747 
Q 353 2609 779 3096 
Q 1206 3584 1959 3584 
z
" transform="scale(0.015625)"/>
       <path id="DejaVuSans-67" d="M 2906 1791 
Q 2906 2416 2648 2759 
Q 2391 3103 1925 3103 
Q 1463 3103 1205 2759 
Q 947 2416 947 1791 
Q 947 1169 1205 825 
Q 1463 481 1925 481 
Q 2391 481 2648 825 
Q 2906 1169 2906 1791 
z
M 3481 434 
Q 3481 -459 3084 -895 
Q 2688 -1331 1869 -1331 
Q 1566 -1331 1297 -1286 
Q 1028 -1241 775 -1147 
L 775 -588 
Q 1028 -725 1275 -790 
Q 1522 -856 1778 -856 
Q 2344 -856 2625 -561 
Q 2906 -266 2906 331 
L 2906 616 
Q 2728 306 2450 153 
Q 2172 0 1784 0 
Q 1141 0 747 490 
Q 353 981 353 1791 
Q 353 2603 747 3093 
Q 1141 3584 1784 3584 
Q 2172 3584 2450 3431 
Q 2728 3278 2906 2969 
L 2906 3500 
L 3481 3500 
L 3481 434 
z
" transform="scale(0.015625)"/>
       <path id="DejaVuSans-31" d="M 794 531 
L 1825 531 
L 1825 4091 
L 703 3866 
L 703 4441 
L 1819 4666 
L 2450 4666 
L 2450 531 
L 3481 531 
L 3481 0 
L 794 0 
L 794 531 
z
" transform="scale(0.015625)"/>
       <path id="DejaVuSans-28" d="M 1984 4856 
Q 1566 4138 1362 3434 
Q 1159 2731 1159 2009 
Q 1159 1288 1364 580 
Q 1569 -128 1984 -844 
L 1484 -844 
Q 1016 -109 783 600 
Q 550 1309 550 2009 
Q 550 2706 781 3412 
Q 1013 4119 1484 4856 
L 1984 4856 
z
" transform="scale(0.015625)"/>
       <path id="DejaVuSans-23" d="M 3272 2816 
L 2363 2816 
L 2100 1772 
L 3016 1772 
L 3272 2816 
z
M 2803 4594 
L 2478 3297 
L 3391 3297 
L 3719 4594 
L 4219 4594 
L 3897 3297 
L 4872 3297 
L 4872 2816 
L 3775 2816 
L 3519 1772 
L 4513 1772 
L 4513 1294 
L 3397 1294 
L 3072 0 
L 2572 0 
L 2894 1294 
L 1978 1294 
L 1656 0 
L 1153 0 
L 1478 1294 
L 494 1294 
L 494 1772 
L 1594 1772 
L 1856 2816 
L 850 2816 
L 850 3297 
L 1978 3297 
L 2297 4594 
L 2803 4594 
z
" transform="scale(0.015625)"/>
       <path id="DejaVuSans-20" transform="scale(0.015625)"/>
       <path id="DejaVuSans-66" d="M 2375 4863 
L 2375 4384 
L 1825 4384 
Q 1516 4384 1395 4259 
Q 1275 4134 1275 3809 
L 1275 3500 
L 2222 3500 
L 2222 3053 
L 1275 3053 
L 1275 0 
L 697 0 
L 697 3053 
L 147 3053 
L 147 3500 
L 697 3500 
L 697 3744 
Q 697 4328 969 4595 
Q 1241 4863 1831 4863 
L 2375 4863 
z
" transform="scale(0.015625)"/>
       <path id="DejaVuSans-2d" d="M 313 2009 
L 1997 2009 
L 1997 1497 
L 313 1497 
L 313 2009 
z
" transform="scale(0.015625)"/>
       <path id="DejaVuSans-65" d="M 3597 1894 
L 3597 1613 
L 953 1613 
Q 991 1019 1311 708 
Q 1631 397 2203 397 
Q 2534 397 2845 478 
Q 3156 559 3463 722 
L 3463 178 
Q 3153 47 2828 -22 
Q 2503 -91 2169 -91 
Q 1331 -91 842 396 
Q 353 884 353 1716 
Q 353 2575 817 3079 
Q 1281 3584 2069 3584 
Q 2775 3584 3186 3129 
Q 3597 2675 3597 1894 
z
M 3022 2063 
Q 3016 2534 2758 2815 
Q 2500 3097 2075 3097 
Q 1594 3097 1305 2825 
Q 1016 2553 972 2059 
L 3022 2063 
z
" transform="scale(0.015625)"/>
       <path id="DejaVuSans-76" d="M 191 3500 
L 800 3500 
L 1894 563 
L 2988 3500 
L 3597 3500 
L 2284 0 
L 1503 0 
L 191 3500 
z
" transform="scale(0.015625)"/>
       <path id="DejaVuSans-61" d="M 2194 1759 
Q 1497 1759 1228 1600 
Q 959 1441 959 1056 
Q 959 750 1161 570 
Q 1363 391 1709 391 
Q 2188 391 2477 730 
Q 2766 1069 2766 1631 
L 2766 1759 
L 2194 1759 
z
M 3341 1997 
L 3341 0 
L 2766 0 
L 2766 531 
Q 2569 213 2275 61 
Q 1981 -91 1556 -91 
Q 1019 -91 701 211 
Q 384 513 384 1019 
Q 384 1609 779 1909 
Q 1175 2209 1959 2209 
L 2766 2209 
L 2766 2266 
Q 2766 2663 2505 2880 
Q 2244 3097 1772 3097 
Q 1472 3097 1187 3025 
Q 903 2953 641 2809 
L 641 3341 
Q 956 3463 1253 3523 
Q 1550 3584 1831 3584 
Q 2591 3584 2966 3190 
Q 3341 2797 3341 1997 
z
" transform="scale(0.015625)"/>
       <path id="DejaVuSans-73" d="M 2834 3397 
L 2834 2853 
Q 2591 2978 2328 3040 
Q 2066 3103 1784 3103 
Q 1356 3103 1142 2972 
Q 928 2841 928 2578 
Q 928 2378 1081 2264 
Q 1234 2150 1697 2047 
L 1894 2003 
Q 2506 1872 2764 1633 
Q 3022 1394 3022 966 
Q 3022 478 2636 193 
Q 2250 -91 1575 -91 
Q 1294 -91 989 -36 
Q 684 19 347 128 
L 347 722 
Q 666 556 975 473 
Q 1284 391 1588 391 
Q 1994 391 2212 530 
Q 2431 669 2431 922 
Q 2431 1156 2273 1281 
Q 2116 1406 1581 1522 
L 1381 1569 
Q 847 1681 609 1914 
Q 372 2147 372 2553 
Q 372 3047 722 3315 
Q 1072 3584 1716 3584 
Q 2034 3584 2315 3537 
Q 2597 3491 2834 3397 
z
" transform="scale(0.015625)"/>
       <path id="DejaVuSans-2f" d="M 1625 4666 
L 2156 4666 
L 531 -594 
L 0 -594 
L 1625 4666 
z
" transform="scale(0.015625)"/>
       <path id="DejaVuSans-64" d="M 2906 2969 
L 2906 4863 
L 3481 4863 
L 3481 0 
L 2906 0 
L 2906 525 
Q 2725 213 2448 61 
Q 2172 -91 1784 -91 
Q 1150 -91 751 415 
Q 353 922 353 1747 
Q 353 2572 751 3078 
Q 1150 3584 1784 3584 
Q 2172 3584 2448 3432 
Q 2725 3281 2906 2969 
z
M 947 1747 
Q 947 1113 1208 752 
Q 1469 391 1925 391 
Q 2381 391 2643 752 
Q 2906 1113 2906 1747 
Q 2906 2381 2643 2742 
Q 2381 3103 1925 3103 
Q 1469 3103 1208 2742 
Q 947 2381 947 1747 
z
" transform="scale(0.015625)"/>
       <path id="DejaVuSans-69" d="M 603 3500 
L 1178 3500 
L 1178 0 
L 603 0 
L 603 3500 
z
M 603 4863 
L 1178 4863 
L 1178 4134 
L 603 4134 
L 603 4863 
z
" transform="scale(0.015625)"/>
       <path id="DejaVuSans-6d" d="M 3328 2828 
Q 3544 3216 3844 3400 
Q 4144 3584 4550 3584 
Q 5097 3584 5394 3201 
Q 5691 2819 5691 2113 
L 5691 0 
L 5113 0 
L 5113 2094 
Q 5113 2597 4934 2840 
Q 4756 3084 4391 3084 
Q 3944 3084 3684 2787 
Q 3425 2491 3425 1978 
L 3425 0 
L 2847 0 
L 2847 2094 
Q 2847 2600 2669 2842 
Q 2491 3084 2119 3084 
Q 1678 3084 1418 2786 
Q 1159 2488 1159 1978 
L 1159 0 
L 581 0 
L 581 3500 
L 1159 3500 
L 1159 2956 
Q 1356 3278 1631 3431 
Q 1906 3584 2284 3584 
Q 2666 3584 2933 3390 
Q 3200 3197 3328 2828 
z
" transform="scale(0.015625)"/>
       <path id="DejaVuSans-6e" d="M 3513 2113 
L 3513 0 
L 2938 0 
L 2938 2094 
Q 2938 2591 2744 2837 
Q 2550 3084 2163 3084 
Q 1697 3084 1428 2787 
Q 1159 2491 1159 1978 
L 1159 0 
L 581 0 
L 581 3500 
L 1159 3500 
L 1159 2956 
Q 1366 3272 1645 3428 
Q 1925 3584 2291 3584 
Q 2894 3584 3203 3211 
Q 3513 2838 3513 2113 
z
" transform="scale(0.015625)"/>
       <path id="DejaVuSans-29" d="M 513 4856 
L 1013 4856 
Q 1481 4119 1714 3412 
Q 1947 2706 1947 2009 
Q 1947 1309 1714 600 
Q 1481 -109 1013 -844 
L 513 -844 
Q 928 -128 1133 580 
Q 1338 1288 1338 2009 
Q 1338 2731 1133 3434 
Q 928 4138 513 4856 
z
" transform="scale(0.015625)"/>
      </defs>
      <use xlink:href="#DejaVuSans-6c"/>
      <use xlink:href="#DejaVuSans-6f" x="27.783203"/>
      <use xlink:href="#DejaVuSans-67" x="88.964844"/>
      <use xlink:href="#DejaVuSans-31" x="152.441406"/>
      <use xlink:href="#DejaVuSans-30" x="216.064453"/>
      <use xlink:href="#DejaVuSans-28" x="279.6875"/>
      <use xlink:href="#DejaVuSans-23" x="318.701172"/>
      <use xlink:href="#DejaVuSans-20" x="402.490234"/>
      <use xlink:href="#DejaVuSans-66" x="434.277344"/>
      <use xlink:href="#DejaVuSans-2d" x="463.982422"/>
      <use xlink:href="#DejaVuSans-65" x="500.066406"/>
      <use xlink:href="#DejaVuSans-76" x="561.589844"/>
      <use xlink:href="#DejaVuSans-61" x="620.769531"/>
      <use xlink:href="#DejaVuSans-6c" x="682.048828"/>
      <use xlink:href="#DejaVuSans-73" x="709.832031"/>
      <use xlink:href="#DejaVuSans-20" x="761.931641"/>
      <use xlink:href="#DejaVuSans-2f" x="793.71875"/>
      <use xlink:href="#DejaVuSans-20" x="827.410156"/>
      <use xlink:href="#DejaVuSans-64" x="859.197266"/>
      <use xlink:href="#DejaVuSans-69" x="922.673828"/>
      <use xlink:href="#DejaVuSans-6d" x="950.457031"/>
      <use xlink:href="#DejaVuSans-65" x="1047.869141"/>
      <use xlink:href="#DejaVuSans-6e" x="1109.392578"/>
      <use xlink:href="#DejaVuSans-73" x="1172.771484"/>
      <use xlink:href="#DejaVuSans-69" x="1224.871094"/>
      <use xlink:href="#DejaVuSans-6f" x="1252.654297"/>
      <use xlink:href="#DejaVuSans-6e" x="1313.835938"/>
      <use xlink:href="#DejaVuSans-29" x="1377.214844"/>
     </g>
    </g>
   </g>
   <g id="matplotlib.axis_2">
    <g id="ytick_1">
     <g id="line2d_17">
      <path d="M 57.6 298.944 
L 360.8064 298.944 
" clip-path="url(#p8f28f0dd5c)" style="fill: none; stroke: #b0b0b0; stroke-width: 0.8; stroke-linecap: square"/>
     </g>
     <g id="line2d_18">
      <defs>
       <path id="mb22c6e5795" d="M 0 0 
L -3.5 0 
" style="stroke: #000000; stroke-width: 0.8"/>
      </defs>
      <g>
       <use xlink:href="#mb22c6e5795" x="57.6" y="298.944" style="stroke: #000000; stroke-width: 0.8"/>
      </g>
     </g>
     <g id="text_6">
      <!-- 0.0 -->
      <g transform="translate(25.155 305.02275)scale(0.16 -0.16)">
       <defs>
        <path id="DejaVuSans-2e" d="M 684 794 
L 1344 794 
L 1344 0 
L 684 0 
L 684 794 
z
" transform="scale(0.015625)"/>
       </defs>
       <use xlink:href="#DejaVuSans-30"/>
       <use xlink:href="#DejaVuSans-2e" x="63.623047"/>
       <use xlink:href="#DejaVuSans-30" x="95.410156"/>
      </g>
     </g>
    </g>
    <g id="ytick_2">
     <g id="line2d_19">
      <path d="M 57.6 240.5376 
L 360.8064 240.5376 
" clip-path="url(#p8f28f0dd5c)" style="fill: none; stroke: #b0b0b0; stroke-width: 0.8; stroke-linecap: square"/>
     </g>
     <g id="line2d_20">
      <g>
       <use xlink:href="#mb22c6e5795" x="57.6" y="240.5376" style="stroke: #000000; stroke-width: 0.8"/>
      </g>
     </g>
     <g id="text_7">
      <!-- 0.2 -->
      <g transform="translate(25.155 246.61635)scale(0.16 -0.16)">
       <use xlink:href="#DejaVuSans-30"/>
       <use xlink:href="#DejaVuSans-2e" x="63.623047"/>
       <use xlink:href="#DejaVuSans-32" x="95.410156"/>
      </g>
     </g>
    </g>
    <g id="ytick_3">
     <g id="line2d_21">
      <path d="M 57.6 182.1312 
L 360.8064 182.1312 
" clip-path="url(#p8f28f0dd5c)" style="fill: none; stroke: #b0b0b0; stroke-width: 0.8; stroke-linecap: square"/>
     </g>
     <g id="line2d_22">
      <g>
       <use xlink:href="#mb22c6e5795" x="57.6" y="182.1312" style="stroke: #000000; stroke-width: 0.8"/>
      </g>
     </g>
     <g id="text_8">
      <!-- 0.4 -->
      <g transform="translate(25.155 188.20995)scale(0.16 -0.16)">
       <use xlink:href="#DejaVuSans-30"/>
       <use xlink:href="#DejaVuSans-2e" x="63.623047"/>
       <use xlink:href="#DejaVuSans-34" x="95.410156"/>
      </g>
     </g>
    </g>
    <g id="ytick_4">
     <g id="line2d_23">
      <path d="M 57.6 123.7248 
L 360.8064 123.7248 
" clip-path="url(#p8f28f0dd5c)" style="fill: none; stroke: #b0b0b0; stroke-width: 0.8; stroke-linecap: square"/>
     </g>
     <g id="line2d_24">
      <g>
       <use xlink:href="#mb22c6e5795" x="57.6" y="123.7248" style="stroke: #000000; stroke-width: 0.8"/>
      </g>
     </g>
     <g id="text_9">
      <!-- 0.6 -->
      <g transform="translate(25.155 129.80355)scale(0.16 -0.16)">
       <use xlink:href="#DejaVuSans-30"/>
       <use xlink:href="#DejaVuSans-2e" x="63.623047"/>
       <use xlink:href="#DejaVuSans-36" x="95.410156"/>
      </g>
     </g>
    </g>
    <g id="ytick_5">
     <g id="line2d_25">
      <path d="M 57.6 65.3184 
L 360.8064 65.3184 
" clip-path="url(#p8f28f0dd5c)" style="fill: none; stroke: #b0b0b0; stroke-width: 0.8; stroke-linecap: square"/>
     </g>
     <g id="line2d_26">
      <g>
       <use xlink:href="#mb22c6e5795" x="57.6" y="65.3184" style="stroke: #000000; stroke-width: 0.8"/>
      </g>
     </g>
     <g id="text_10">
      <!-- 0.8 -->
      <g transform="translate(25.155 71.39715)scale(0.16 -0.16)">
       <defs>
        <path id="DejaVuSans-38" d="M 2034 2216 
Q 1584 2216 1326 1975 
Q 1069 1734 1069 1313 
Q 1069 891 1326 650 
Q 1584 409 2034 409 
Q 2484 409 2743 651 
Q 3003 894 3003 1313 
Q 3003 1734 2745 1975 
Q 2488 2216 2034 2216 
z
M 1403 2484 
Q 997 2584 770 2862 
Q 544 3141 544 3541 
Q 544 4100 942 4425 
Q 1341 4750 2034 4750 
Q 2731 4750 3128 4425 
Q 3525 4100 3525 3541 
Q 3525 3141 3298 2862 
Q 3072 2584 2669 2484 
Q 3125 2378 3379 2068 
Q 3634 1759 3634 1313 
Q 3634 634 3220 271 
Q 2806 -91 2034 -91 
Q 1263 -91 848 271 
Q 434 634 434 1313 
Q 434 1759 690 2068 
Q 947 2378 1403 2484 
z
M 1172 3481 
Q 1172 3119 1398 2916 
Q 1625 2713 2034 2713 
Q 2441 2713 2670 2916 
Q 2900 3119 2900 3481 
Q 2900 3844 2670 4047 
Q 2441 4250 2034 4250 
Q 1625 4250 1398 4047 
Q 1172 3844 1172 3481 
z
" transform="scale(0.015625)"/>
       </defs>
       <use xlink:href="#DejaVuSans-30"/>
       <use xlink:href="#DejaVuSans-2e" x="63.623047"/>
       <use xlink:href="#DejaVuSans-38" x="95.410156"/>
      </g>
     </g>
    </g>
    <g id="ytick_6">
     <g id="line2d_27">
      <path d="M 57.6 6.912 
L 360.8064 6.912 
" clip-path="url(#p8f28f0dd5c)" style="fill: none; stroke: #b0b0b0; stroke-width: 0.8; stroke-linecap: square"/>
     </g>
     <g id="line2d_28">
      <g>
       <use xlink:href="#mb22c6e5795" x="57.6" y="6.912" style="stroke: #000000; stroke-width: 0.8"/>
      </g>
     </g>
     <g id="text_11">
      <!-- 1.0 -->
      <g transform="translate(25.155 12.99075)scale(0.16 -0.16)">
       <use xlink:href="#DejaVuSans-31"/>
       <use xlink:href="#DejaVuSans-2e" x="63.623047"/>
       <use xlink:href="#DejaVuSans-30" x="95.410156"/>
      </g>
     </g>
    </g>
    <g id="text_12">
     <!-- Fraction of function,target pairs -->
     <g transform="translate(17.619531 287.313)rotate(-90)scale(0.17 -0.17)">
      <defs>
       <path id="DejaVuSans-46" d="M 628 4666 
L 3309 4666 
L 3309 4134 
L 1259 4134 
L 1259 2759 
L 3109 2759 
L 3109 2228 
L 1259 2228 
L 1259 0 
L 628 0 
L 628 4666 
z
" transform="scale(0.015625)"/>
       <path id="DejaVuSans-72" d="M 2631 2963 
Q 2534 3019 2420 3045 
Q 2306 3072 2169 3072 
Q 1681 3072 1420 2755 
Q 1159 2438 1159 1844 
L 1159 0 
L 581 0 
L 581 3500 
L 1159 3500 
L 1159 2956 
Q 1341 3275 1631 3429 
Q 1922 3584 2338 3584 
Q 2397 3584 2469 3576 
Q 2541 3569 2628 3553 
L 2631 2963 
z
" transform="scale(0.015625)"/>
       <path id="DejaVuSans-63" d="M 3122 3366 
L 3122 2828 
Q 2878 2963 2633 3030 
Q 2388 3097 2138 3097 
Q 1578 3097 1268 2742 
Q 959 2388 959 1747 
Q 959 1106 1268 751 
Q 1578 397 2138 397 
Q 2388 397 2633 464 
Q 2878 531 3122 666 
L 3122 134 
Q 2881 22 2623 -34 
Q 2366 -91 2075 -91 
Q 1284 -91 818 406 
Q 353 903 353 1747 
Q 353 2603 823 3093 
Q 1294 3584 2113 3584 
Q 2378 3584 2631 3529 
Q 2884 3475 3122 3366 
z
" transform="scale(0.015625)"/>
       <path id="DejaVuSans-74" d="M 1172 4494 
L 1172 3500 
L 2356 3500 
L 2356 3053 
L 1172 3053 
L 1172 1153 
Q 1172 725 1289 603 
Q 1406 481 1766 481 
L 2356 481 
L 2356 0 
L 1766 0 
Q 1100 0 847 248 
Q 594 497 594 1153 
L 594 3053 
L 172 3053 
L 172 3500 
L 594 3500 
L 594 4494 
L 1172 4494 
z
" transform="scale(0.015625)"/>
       <path id="DejaVuSans-75" d="M 544 1381 
L 544 3500 
L 1119 3500 
L 1119 1403 
Q 1119 906 1312 657 
Q 1506 409 1894 409 
Q 2359 409 2629 706 
Q 2900 1003 2900 1516 
L 2900 3500 
L 3475 3500 
L 3475 0 
L 2900 0 
L 2900 538 
Q 2691 219 2414 64 
Q 2138 -91 1772 -91 
Q 1169 -91 856 284 
Q 544 659 544 1381 
z
M 1991 3584 
L 1991 3584 
z
" transform="scale(0.015625)"/>
       <path id="DejaVuSans-2c" d="M 750 794 
L 1409 794 
L 1409 256 
L 897 -744 
L 494 -744 
L 750 256 
L 750 794 
z
" transform="scale(0.015625)"/>
       <path id="DejaVuSans-70" d="M 1159 525 
L 1159 -1331 
L 581 -1331 
L 581 3500 
L 1159 3500 
L 1159 2969 
Q 1341 3281 1617 3432 
Q 1894 3584 2278 3584 
Q 2916 3584 3314 3078 
Q 3713 2572 3713 1747 
Q 3713 922 3314 415 
Q 2916 -91 2278 -91 
Q 1894 -91 1617 61 
Q 1341 213 1159 525 
z
M 3116 1747 
Q 3116 2381 2855 2742 
Q 2594 3103 2138 3103 
Q 1681 3103 1420 2742 
Q 1159 2381 1159 1747 
Q 1159 1113 1420 752 
Q 1681 391 2138 391 
Q 2594 391 2855 752 
Q 3116 1113 3116 1747 
z
" transform="scale(0.015625)"/>
      </defs>
      <use xlink:href="#DejaVuSans-46"/>
      <use xlink:href="#DejaVuSans-72" x="50.269531"/>
      <use xlink:href="#DejaVuSans-61" x="91.382812"/>
      <use xlink:href="#DejaVuSans-63" x="152.662109"/>
      <use xlink:href="#DejaVuSans-74" x="207.642578"/>
      <use xlink:href="#DejaVuSans-69" x="246.851562"/>
      <use xlink:href="#DejaVuSans-6f" x="274.634766"/>
      <use xlink:href="#DejaVuSans-6e" x="335.816406"/>
      <use xlink:href="#DejaVuSans-20" x="399.195312"/>
      <use xlink:href="#DejaVuSans-6f" x="430.982422"/>
      <use xlink:href="#DejaVuSans-66" x="492.164062"/>
      <use xlink:href="#DejaVuSans-20" x="527.369141"/>
      <use xlink:href="#DejaVuSans-66" x="559.15625"/>
      <use xlink:href="#DejaVuSans-75" x="594.361328"/>
      <use xlink:href="#DejaVuSans-6e" x="657.740234"/>
      <use xlink:href="#DejaVuSans-63" x="721.119141"/>
      <use xlink:href="#DejaVuSans-74" x="776.099609"/>
      <use xlink:href="#DejaVuSans-69" x="815.308594"/>
      <use xlink:href="#DejaVuSans-6f" x="843.091797"/>
      <use xlink:href="#DejaVuSans-6e" x="904.273438"/>
      <use xlink:href="#DejaVuSans-2c" x="967.652344"/>
      <use xlink:href="#DejaVuSans-74" x="999.439453"/>
      <use xlink:href="#DejaVuSans-61" x="1038.648438"/>
      <use xlink:href="#DejaVuSans-72" x="1099.927734"/>
      <use xlink:href="#DejaVuSans-67" x="1139.291016"/>
      <use xlink:href="#DejaVuSans-65" x="1202.767578"/>
      <use xlink:href="#DejaVuSans-74" x="1264.291016"/>
      <use xlink:href="#DejaVuSans-20" x="1303.5"/>
      <use xlink:href="#DejaVuSans-70" x="1335.287109"/>
      <use xlink:href="#DejaVuSans-61" x="1398.763672"/>
      <use xlink:href="#DejaVuSans-69" x="1460.042969"/>
      <use xlink:href="#DejaVuSans-72" x="1487.826172"/>
      <use xlink:href="#DejaVuSans-73" x="1528.939453"/>
     </g>
    </g>
   </g>
   <g id="line2d_29">
    <defs>
     <path id="meffd6b1c99" d="M 0 1.5 
C 0.397805 1.5 0.77937 1.341951 1.06066 1.06066 
C 1.341951 0.77937 1.5 0.397805 1.5 0 
C 1.5 -0.397805 1.341951 -0.77937 1.06066 -1.06066 
C 0.77937 -1.341951 0.397805 -1.5 0 -1.5 
C -0.397805 -1.5 -0.77937 -1.341951 -1.06066 -1.06066 
C -1.341951 -0.77937 -1.5 -0.397805 -1.5 0 
C -1.5 0.397805 -1.341951 0.77937 -1.06066 1.06066 
C -0.77937 1.341951 -0.397805 1.5 0 1.5 
z
" style="stroke: #00bfbf"/>
    </defs>
    <g>
     <use xlink:href="#meffd6b1c99" x="204.827545" y="175.75349" style="fill: #00bfbf; stroke: #00bfbf"/>
     <use xlink:href="#meffd6b1c99" x="204.827545" y="175.75349" style="fill: #00bfbf; stroke: #00bfbf"/>
    </g>
   </g>
   <g id="line2d_30">
    <path d="M 44.560826 298.944 
L 44.560826 287.027752 
L 57.6 287.027752 
L 57.6 286.020745 
L 65.227428 286.020745 
L 65.227428 285.685076 
L 74.836851 285.685076 
L 74.836851 283.671062 
L 78.266603 283.671062 
L 78.266603 283.503228 
L 81.166416 283.503228 
L 81.166416 280.817876 
L 85.894031 280.817876 
L 85.894031 280.650041 
L 87.876026 280.650041 
L 87.876026 279.978703 
L 89.668958 279.978703 
L 89.668958 279.307366 
L 91.305777 279.307366 
L 91.305777 275.950676 
L 96.717523 275.950676 
L 96.717523 275.447172 
L 97.857967 275.447172 
L 97.857967 274.775834 
L 98.933205 274.775834 
L 98.933205 273.936662 
L 102.708132 273.936662 
L 102.708132 272.929655 
L 104.344952 272.929655 
L 104.344952 272.761821 
L 105.112877 272.761821 
L 105.112877 269.7408 
L 105.850679 269.7408 
L 105.850679 269.572966 
L 106.560633 269.572966 
L 106.560633 267.894621 
L 108.542628 267.894621 
L 108.542628 267.726786 
L 109.159456 267.726786 
L 109.159456 267.223283 
L 110.335561 267.223283 
L 110.335561 267.055448 
L 110.897141 267.055448 
L 110.897141 266.551945 
L 111.97238 266.551945 
L 111.97238 265.041434 
L 114.872193 265.041434 
L 114.872193 264.8736 
L 115.314838 264.8736 
L 115.314838 264.705766 
L 116.170056 264.705766 
L 116.170056 264.537931 
L 116.583514 264.537931 
L 116.583514 264.034428 
L 116.988079 264.034428 
L 116.988079 263.027421 
L 119.24818 263.027421 
L 119.24818 262.523917 
L 119.599808 262.523917 
L 119.599808 262.188248 
L 119.944983 262.188248 
L 119.944983 261.51691 
L 120.944062 261.51691 
L 120.944062 261.013407 
L 122.19863 261.013407 
L 122.19863 260.845572 
L 122.499621 260.845572 
L 122.499621 260.677738 
L 123.657621 260.677738 
L 123.657621 260.509903 
L 125.779479 260.509903 
L 125.779479 260.342069 
L 126.993549 260.342069 
L 126.993549 260.0064 
L 127.458055 260.0064 
L 127.458055 259.502897 
L 129.622688 259.502897 
L 129.622688 258.999393 
L 129.826058 258.999393 
L 129.826058 257.992386 
L 130.226319 257.992386 
L 130.226319 257.824552 
L 131.002163 257.824552 
L 131.002163 257.656717 
L 131.191226 257.656717 
L 131.191226 257.488883 
L 131.929028 257.488883 
L 131.929028 257.321048 
L 132.812362 257.321048 
L 132.812362 256.314041 
L 133.154399 256.314041 
L 133.154399 256.146207 
L 133.323114 256.146207 
L 133.323114 255.642703 
L 134.304809 255.642703 
L 134.304809 255.474869 
L 135.237805 255.474869 
L 135.237805 255.307034 
L 135.835047 255.307034 
L 135.835047 254.971366 
L 135.981441 254.971366 
L 135.981441 254.803531 
L 136.836659 254.803531 
L 136.836659 254.132193 
L 137.113304 254.132193 
L 137.113304 252.789517 
L 137.787626 252.789517 
L 137.787626 252.453848 
L 138.692823 252.453848 
L 138.692823 252.118179 
L 139.067817 252.118179 
L 139.067817 251.111172 
L 140.26641 251.111172 
L 140.26641 250.943338 
L 141.173167 250.943338 
L 141.173167 250.775503 
L 142.763822 250.775503 
L 142.763822 250.272 
L 143.850356 250.272 
L 143.850356 250.104166 
L 144.417581 250.104166 
L 144.510478 248.929324 
L 144.602918 248.929324 
L 144.694906 247.586648 
L 144.786447 247.586648 
L 144.877544 246.91531 
L 145.503164 246.91531 
L 145.503164 246.243972 
L 145.678157 246.243972 
L 145.765046 244.901297 
L 146.108646 244.901297 
L 146.193574 244.397793 
L 146.27812 244.397793 
L 146.27812 243.558621 
L 146.941151 243.558621 
L 146.941151 242.887283 
L 147.73837 242.887283 
L 147.73837 242.719448 
L 148.124658 242.719448 
L 148.124658 242.551614 
L 148.276979 242.551614 
L 148.276979 242.383779 
L 148.947561 242.383779 
L 148.947561 242.04811 
L 149.093387 242.04811 
L 149.093387 241.880276 
L 149.238092 241.880276 
L 149.238092 241.041103 
L 149.453084 241.041103 
L 149.453084 240.5376 
L 150.152479 240.5376 
L 150.152479 239.362759 
L 150.289291 239.362759 
L 150.289291 239.02709 
L 150.693856 239.02709 
L 150.693856 238.355752 
L 150.8268 238.355752 
L 150.892922 237.348745 
L 151.349377 237.348745 
L 151.41369 236.509572 
L 151.920429 236.509572 
L 151.920429 236.006069 
L 152.230346 236.006069 
L 152.291722 235.334731 
L 153.01302 235.334731 
L 153.01302 234.495559 
L 153.247435 234.495559 
L 153.247435 233.824221 
L 153.421349 233.824221 
L 153.421349 233.320717 
L 154.156931 233.320717 
L 154.156931 232.817214 
L 154.432362 232.817214 
L 154.541415 232.481545 
L 154.595705 232.481545 
L 154.595705 232.31371 
L 154.918196 232.31371 
L 154.918196 232.145876 
L 155.547053 232.145876 
L 155.649849 231.306703 
L 155.701037 231.306703 
L 155.701037 230.971034 
L 156.205398 230.971034 
L 156.205398 230.467531 
L 156.354107 230.467531 
L 156.354107 229.460524 
L 156.550574 229.460524 
L 156.599372 228.957021 
L 156.84148 228.957021 
L 156.84148 228.789186 
L 157.503261 228.789186 
L 157.503261 228.453517 
L 157.779907 228.453517 
L 157.871225 227.950014 
L 157.962102 227.950014 
L 158.052543 226.943007 
L 158.58624 226.943007 
L 158.673735 226.271669 
L 158.976805 226.271669 
L 158.976805 226.103834 
L 159.232748 226.103834 
L 159.232748 225.936 
L 160.343261 225.936 
L 160.343261 225.096828 
L 160.541906 225.096828 
L 160.620781 223.586317 
L 161.125559 223.586317 
L 161.125559 223.250648 
L 162.023298 223.250648 
L 162.023298 222.914979 
L 162.241195 222.914979 
L 162.31327 222.411476 
L 162.38507 222.411476 
L 162.38507 221.740138 
L 162.56338 221.740138 
L 162.56338 221.404469 
L 162.740015 221.404469 
L 162.810208 221.0688 
L 162.880139 221.0688 
L 162.915008 220.397462 
L 163.157294 220.397462 
L 163.157294 220.229628 
L 163.766354 220.229628 
L 163.79962 219.726124 
L 164.09639 219.726124 
L 164.09639 219.55829 
L 164.548924 219.55829 
L 164.548924 218.383448 
L 164.676244 218.383448 
L 164.771172 217.544276 
L 165.084184 217.544276 
L 165.084184 217.208607 
L 165.330896 217.208607 
L 165.392072 216.369434 
L 165.96353 216.369434 
L 165.96353 216.033766 
L 166.199045 216.033766 
L 166.286609 215.698097 
L 166.916583 215.698097 
L 166.916583 215.530262 
L 167.689013 215.530262 
L 167.742992 214.858924 
L 168.79126 214.858924 
L 168.79126 214.69109 
L 169.343842 214.69109 
L 169.343842 214.355421 
L 169.711507 214.355421 
L 169.711507 213.684083 
L 169.856584 213.684083 
L 169.928705 213.180579 
L 170.09592 213.180579 
L 170.09592 212.677076 
L 170.214455 212.677076 
L 170.214455 211.3344 
L 170.49593 211.3344 
L 170.49593 211.166566 
L 170.635104 211.166566 
L 170.727317 210.663062 
L 171.11426 210.663062 
L 171.11426 210.495228 
L 171.865055 210.495228 
L 171.865055 210.327393 
L 172.123046 210.327393 
L 172.123046 209.82389 
L 172.482581 209.82389 
L 172.524431 208.313379 
L 172.649425 208.313379 
L 172.690906 207.809876 
L 173.221995 207.809876 
L 173.221995 207.642041 
L 173.87517 207.642041 
L 173.87517 207.306372 
L 174.049442 207.306372 
L 174.049442 207.138538 
L 174.241203 207.138538 
L 174.336355 206.802869 
L 174.693607 206.802869 
L 174.7494 205.963697 
L 174.805028 205.963697 
L 174.805028 205.795862 
L 175.691079 205.795862 
L 175.691079 205.628028 
L 176.179266 205.628028 
L 176.179266 205.460193 
L 176.62151 205.460193 
L 176.62151 205.124524 
L 176.954762 205.124524 
L 176.954762 204.788855 
L 177.217177 204.788855 
L 177.233457 204.285352 
L 177.920494 204.285352 
L 177.920494 203.949683 
L 178.91362 203.949683 
L 178.91362 203.614014 
L 179.194285 203.614014 
L 179.194285 203.446179 
L 179.485266 203.446179 
L 179.485266 202.942676 
L 179.643407 202.942676 
L 179.643407 202.439172 
L 179.828604 202.439172 
L 179.828604 201.767834 
L 180.207514 201.767834 
L 180.318334 201.264331 
L 180.387266 201.264331 
L 180.469652 200.257324 
L 181.182144 200.257324 
L 181.182144 200.08949 
L 181.522042 200.08949 
L 181.522042 199.921655 
L 181.90675 199.921655 
L 181.982756 199.082483 
L 182.383017 199.082483 
L 182.383017 198.914648 
L 182.750681 198.914648 
L 182.750681 198.746814 
L 182.967879 198.746814 
L 182.967879 198.578979 
L 183.731965 198.578979 
L 183.731965 198.411145 
L 184.006424 198.411145 
L 184.006424 198.24331 
L 184.299304 198.24331 
L 184.299304 197.907641 
L 184.925864 197.907641 
L 185.033667 197.236303 
L 185.119467 197.236303 
L 185.226169 196.7328 
L 185.321686 196.7328 
L 185.321686 196.564966 
L 185.437775 196.564966 
L 185.532226 195.390124 
L 185.79213 195.390124 
L 185.79213 195.22229 
L 185.90536 195.22229 
L 185.90536 195.054455 
L 186.521195 195.054455 
L 186.521195 194.718786 
L 186.659734 194.718786 
L 186.659734 194.383117 
L 186.8266 194.383117 
L 186.8266 194.215283 
L 186.953212 194.215283 
L 186.953212 194.047448 
L 187.175151 194.047448 
L 187.175151 193.711779 
L 187.328014 193.711779 
L 187.328014 193.543945 
L 187.853458 193.543945 
L 187.853458 193.37611 
L 188.074232 193.37611 
L 188.074232 192.704772 
L 188.310515 192.704772 
L 188.310515 192.536938 
L 188.454459 192.536938 
L 188.454459 192.201269 
L 189.158105 192.201269 
L 189.227044 191.697766 
L 189.694277 191.697766 
L 189.794695 191.194262 
L 190.418521 191.194262 
L 190.418521 190.858593 
L 190.643235 190.858593 
L 190.643235 190.522924 
L 190.817932 190.522924 
L 190.817932 190.187255 
L 191.531398 190.187255 
L 191.561813 189.683752 
L 191.682983 189.683752 
L 191.743277 189.180248 
L 191.952795 189.180248 
L 192.034471 188.676745 
L 192.495544 188.676745 
L 192.495544 188.341076 
L 192.610864 188.341076 
L 192.610864 188.173241 
L 192.768284 188.173241 
L 192.768284 188.005407 
L 193.218882 188.005407 
L 193.225837 187.669738 
L 193.43332 187.669738 
L 193.43332 187.501903 
L 193.881882 187.501903 
L 193.881882 187.166234 
L 194.148623 187.166234 
L 194.148623 186.662731 
L 194.339671 186.662731 
L 194.45077 185.655724 
L 194.760964 185.655724 
L 194.760964 185.48789 
L 194.983966 185.48789 
L 195.009284 184.984386 
L 195.122797 184.984386 
L 195.185565 184.480883 
L 195.692512 184.480883 
L 195.789856 183.977379 
L 196.457509 183.977379 
L 196.457509 183.64171 
L 198.201395 183.64171 
L 198.275981 182.634703 
L 198.376733 182.634703 
L 198.466425 182.1312 
L 198.587097 182.1312 
L 198.587097 181.963366 
L 198.820977 181.963366 
L 198.867407 181.459862 
L 199.624818 181.459862 
L 199.624818 181.292028 
L 199.782526 181.292028 
L 199.782526 180.956359 
L 200.175915 180.956359 
L 200.175915 180.788524 
L 200.419449 180.788524 
L 200.419449 180.62069 
L 200.631745 180.62069 
L 200.659871 180.285021 
L 201.040102 180.285021 
L 201.117978 179.613683 
L 201.204636 179.613683 
L 201.204636 179.445848 
L 202.119421 179.445848 
L 202.119421 179.278014 
L 202.560655 179.278014 
L 202.564888 178.77451 
L 202.838042 178.77451 
L 202.838042 178.438841 
L 203.315873 178.438841 
L 203.315873 178.103172 
L 203.829422 178.103172 
L 203.829422 177.767503 
L 204.061496 177.767503 
L 204.065405 177.096166 
L 204.317757 177.096166 
L 204.360129 176.592662 
L 204.44842 176.592662 
L 204.456077 176.256993 
L 204.650307 176.256993 
L 204.650307 176.089159 
L 204.827545 176.089159 
L 204.827545 175.75349 
L 360.8064 175.75349 
L 360.8064 175.75349 
" style="fill: none; stroke: #00bfbf; stroke-width: 1.5; stroke-linecap: square"/>
   </g>
   <g id="line2d_31">
    <defs>
     <path id="m0a7aaf9d94" d="M -6 0 
L 6 0 
M 0 6 
L 0 -6 
" style="stroke: #00bfbf; stroke-width: 1.5"/>
    </defs>
    <g>
     <use xlink:href="#m0a7aaf9d94" x="137.113304" y="254.132193" style="fill-opacity: 0; stroke: #00bfbf; stroke-width: 1.5"/>
     <use xlink:href="#m0a7aaf9d94" x="160.343261" y="225.096828" style="fill-opacity: 0; stroke: #00bfbf; stroke-width: 1.5"/>
     <use xlink:href="#m0a7aaf9d94" x="198.217402" y="183.473876" style="fill-opacity: 0; stroke: #00bfbf; stroke-width: 1.5"/>
     <use xlink:href="#m0a7aaf9d94" x="204.827545" y="175.75349" style="fill-opacity: 0; stroke: #00bfbf; stroke-width: 1.5"/>
     <use xlink:href="#m0a7aaf9d94" x="204.827545" y="175.75349" style="fill-opacity: 0; stroke: #00bfbf; stroke-width: 1.5"/>
     <use xlink:href="#m0a7aaf9d94" x="360.8064" y="175.75349" style="fill-opacity: 0; stroke: #00bfbf; stroke-width: 1.5"/>
    </g>
   </g>
   <g id="line2d_32">
    <path style="fill: none; stroke: #00bfbf; stroke-width: 1.5; stroke-linecap: square"/>
    <g/>
   </g>
   <g id="line2d_33">
    <path d="M 205.158657 175.75349 
" clip-path="url(#p8f28f0dd5c)" style="fill: none; stroke: #00bfbf; stroke-width: 1.5; stroke-linecap: square"/>
    <defs>
     <path id="m2b19a210b0" d="M -12 12 
L 12 -12 
M -12 -12 
L 12 12 
" style="stroke: #00bfbf"/>
    </defs>
    <g clip-path="url(#p8f28f0dd5c)">
     <use xlink:href="#m2b19a210b0" x="205.158657" y="175.75349" style="fill: #00bfbf; stroke: #00bfbf"/>
    </g>
   </g>
   <g id="line2d_34">
    <defs>
     <path id="m006eee193f" d="M 0 1.5 
C 0.397805 1.5 0.77937 1.341951 1.06066 1.06066 
C 1.341951 0.77937 1.5 0.397805 1.5 0 
C 1.5 -0.397805 1.341951 -0.77937 1.06066 -1.06066 
C 0.77937 -1.341951 0.397805 -1.5 0 -1.5 
C -0.397805 -1.5 -0.77937 -1.341951 -1.06066 -1.06066 
C -1.341951 -0.77937 -1.5 -0.397805 -1.5 0 
C -1.5 0.397805 -1.341951 0.77937 -1.06066 1.06066 
C -0.77937 1.341951 -0.397805 1.5 0 1.5 
z
" style="stroke: #008000"/>
    </defs>
    <g>
     <use xlink:href="#m006eee193f" x="197.379418" y="208.313379" style="fill: #008000; stroke: #008000"/>
     <use xlink:href="#m006eee193f" x="197.379418" y="208.313379" style="fill: #008000; stroke: #008000"/>
    </g>
   </g>
   <g id="line2d_35">
    <path d="M 36.933397 298.944 
L 36.933397 291.894952 
L 49.972572 291.894952 
L 49.972572 291.727117 
L 57.6 291.727117 
L 57.6 290.887945 
L 63.011746 290.887945 
L 63.011746 290.216607 
L 67.209423 290.216607 
L 67.209423 288.706097 
L 76.050921 288.706097 
L 76.050921 288.538262 
L 80.248597 288.538262 
L 80.248597 284.678069 
L 82.04153 284.678069 
L 82.04153 284.174566 
L 87.876026 284.174566 
L 87.876026 283.671062 
L 90.230539 283.671062 
L 90.230539 282.999724 
L 91.305777 282.999724 
L 91.305777 282.83189 
L 92.322865 282.83189 
L 92.322865 282.496221 
L 93.287772 282.496221 
L 93.287772 282.328386 
L 94.205591 282.328386 
L 94.205591 281.489214 
L 95.080704 281.489214 
L 95.080704 281.321379 
L 98.223251 281.321379 
L 98.223251 279.4752 
L 98.933205 279.4752 
L 98.933205 279.139531 
L 101.532027 279.139531 
L 101.532027 278.971697 
L 102.12927 278.971697 
L 102.12927 278.803862 
L 102.708132 278.803862 
L 102.708132 277.96469 
L 108.119879 277.96469 
L 108.119879 277.293352 
L 109.756698 277.293352 
L 109.756698 277.125517 
L 111.97238 277.125517 
L 111.97238 276.957683 
L 112.317555 276.957683 
L 112.317555 275.950676 
L 112.656511 275.950676 
L 112.656511 275.782841 
L 114.571202 275.782841 
L 114.571202 275.447172 
L 115.168444 275.447172 
L 115.168444 275.279338 
L 115.747307 275.279338 
L 115.747307 274.608 
L 116.583514 274.608 
L 116.583514 273.600993 
L 117.899543 273.600993 
L 117.899543 273.433159 
L 119.366121 273.433159 
L 119.366121 273.265324 
L 120.28394 273.265324 
L 120.28394 273.09749 
L 122.19863 273.09749 
L 122.19863 272.426152 
L 124.659926 272.426152 
L 124.659926 272.258317 
L 125.184934 272.258317 
L 125.184934 272.090483 
L 128.060076 272.090483 
L 128.060076 271.754814 
L 128.499277 271.754814 
L 128.499277 271.586979 
L 129.485876 271.586979 
L 129.485876 271.083476 
L 130.4233 271.083476 
L 130.4233 270.412138 
L 131.440389 270.412138 
L 131.440389 270.244303 
L 131.563744 270.244303 
L 131.563744 270.076469 
L 131.686295 270.076469 
L 131.686295 269.908634 
L 132.168669 269.908634 
L 132.168669 269.405131 
L 132.638982 269.405131 
L 132.638982 269.237297 
L 132.754746 269.237297 
L 132.754746 269.069462 
L 133.097823 269.069462 
L 133.097823 268.733793 
L 133.765759 268.733793 
L 133.765759 268.23029 
L 133.983236 268.23029 
L 133.983236 267.726786 
L 134.516177 267.726786 
L 134.516177 267.223283 
L 134.931919 267.223283 
L 134.931919 267.055448 
L 135.237805 267.055448 
L 135.237805 266.719779 
L 135.638065 266.719779 
L 135.638065 266.551945 
L 137.430998 266.551945 
L 137.430998 266.216276 
L 137.699101 266.216276 
L 137.699101 265.880607 
L 138.73486 265.880607 
L 138.73486 265.712772 
L 139.232111 265.712772 
L 139.232111 265.377103 
L 139.796097 265.377103 
L 139.796097 265.209269 
L 141.099251 265.209269 
L 141.099251 265.041434 
L 142.593581 265.041434 
L 142.593581 264.8736 
L 144.16759 264.8736 
L 144.16759 264.705766 
L 144.355394 264.705766 
L 144.417581 263.698759 
L 144.541342 263.698759 
L 144.541342 263.36309 
L 144.664294 263.36309 
L 144.664294 263.027421 
L 145.0284 263.027421 
L 145.088405 262.188248 
L 145.148219 262.188248 
L 145.207843 261.684745 
L 145.851536 261.684745 
L 145.851536 261.51691 
L 146.24998 261.51691 
L 146.24998 261.013407 
L 146.584913 261.013407 
L 146.584913 260.845572 
L 146.750169 260.845572 
L 146.859539 260.0064 
L 146.913986 260.0064 
L 147.022411 258.999393 
L 147.237402 258.999393 
L 147.237402 258.831559 
L 147.712333 258.831559 
L 147.712333 258.663724 
L 147.919625 258.663724 
L 147.919625 258.160221 
L 148.175569 258.160221 
L 148.175569 257.992386 
L 148.775988 257.992386 
L 148.775988 257.488883 
L 149.73597 257.488883 
L 149.829328 256.817545 
L 150.152479 256.817545 
L 150.152479 256.314041 
L 150.379949 256.314041 
L 150.379949 255.474869 
L 151.089903 255.474869 
L 151.089903 255.307034 
L 151.647641 255.307034 
L 151.731998 252.621683 
L 151.94125 252.621683 
L 151.94125 252.118179 
L 152.352898 252.118179 
L 152.393571 251.78251 
L 152.555392 251.78251 
L 152.635783 251.279007 
L 152.795543 251.279007 
L 152.795543 250.943338 
L 152.914478 250.943338 
L 152.914478 250.775503 
L 153.111048 250.775503 
L 153.111048 250.439834 
L 153.914919 250.439834 
L 153.952355 249.264993 
L 154.505134 249.264993 
L 154.505134 249.097159 
L 155.147716 249.097159 
L 155.147716 248.76149 
L 156.038776 248.76149 
L 156.038776 248.593655 
L 156.825436 248.593655 
L 156.857511 247.922317 
L 157.363398 247.922317 
L 157.363398 247.083145 
L 157.549652 247.083145 
L 157.642093 246.579641 
L 157.856036 246.579641 
L 157.856036 246.411807 
L 158.067574 246.411807 
L 158.067574 246.076138 
L 158.542339 246.076138 
L 158.630038 245.740469 
L 158.919453 245.740469 
L 159.005416 244.733462 
L 159.289155 244.733462 
L 159.289155 244.229959 
L 159.401463 244.229959 
L 159.457367 243.726455 
L 159.596403 243.726455 
L 159.596403 243.390786 
L 159.871431 243.390786 
L 159.871431 243.222952 
L 160.568234 243.222952 
L 160.568234 242.887283 
L 160.855439 242.887283 
L 160.855439 242.719448 
L 161.010268 242.719448 
L 161.061595 242.215945 
L 161.163832 242.215945 
L 161.214743 241.712441 
L 162.205054 241.712441 
L 162.205054 241.376772 
L 162.349204 241.376772 
L 162.349204 241.208938 
L 162.938218 241.208938 
L 162.938218 241.041103 
L 163.237368 241.041103 
L 163.237368 240.873269 
L 163.643876 240.873269 
L 163.666204 240.5376 
L 163.79962 240.5376 
L 163.79962 240.034097 
L 164.041785 240.034097 
L 164.041785 239.866262 
L 164.215967 239.866262 
L 164.215967 239.530593 
L 164.70794 239.530593 
L 164.70794 239.362759 
L 165.41242 239.362759 
L 165.473332 238.691421 
L 165.674958 238.691421 
L 165.774966 237.852248 
L 166.306012 237.852248 
L 166.306012 237.684414 
L 166.784704 237.684414 
L 166.784704 237.516579 
L 167.047544 237.516579 
L 167.047544 237.18091 
L 167.214594 237.18091 
L 167.214594 236.845241 
L 167.435044 236.845241 
L 167.471536 236.341738 
L 167.957371 236.341738 
L 167.992864 235.502566 
L 168.361558 235.502566 
L 168.361558 235.334731 
L 168.723164 235.334731 
L 168.723164 234.999062 
L 169.128092 234.999062 
L 169.128092 234.831228 
L 170.588827 234.831228 
L 170.588827 234.663393 
L 170.71198 234.663393 
L 170.71198 234.495559 
L 170.84957 234.495559 
L 170.84957 234.327724 
L 171.419661 234.327724 
L 171.419661 233.992055 
L 171.581513 233.992055 
L 171.581513 233.656386 
L 171.843395 233.656386 
L 171.944262 233.152883 
L 172.001658 233.152883 
L 172.001658 232.481545 
L 172.510491 232.481545 
L 172.580086 231.474538 
L 172.801076 231.474538 
L 172.910605 230.971034 
L 173.060174 230.971034 
L 173.060174 230.8032 
L 173.302386 230.8032 
L 173.302386 230.131862 
L 173.448884 230.131862 
L 173.462145 229.796193 
L 173.699269 229.796193 
L 173.77765 229.124855 
L 174.164733 229.124855 
L 174.164733 228.957021 
L 174.743209 228.957021 
L 174.780325 228.453517 
L 175.050293 228.453517 
L 175.098964 227.110841 
L 175.280369 227.110841 
L 175.280369 226.775172 
L 176.230828 226.775172 
L 176.230828 226.607338 
L 177.135565 226.607338 
L 177.135565 226.439503 
L 177.341632 226.439503 
L 177.341632 226.103834 
L 177.502736 226.103834 
L 177.502736 225.936 
L 177.641253 225.936 
L 177.641253 225.600331 
L 179.199172 225.600331 
L 179.199172 225.432497 
L 179.566899 225.432497 
L 179.605192 224.761159 
L 179.767074 224.761159 
L 179.767074 224.257655 
L 180.002634 224.257655 
L 180.002634 224.089821 
L 180.23528 224.089821 
L 180.23528 223.921986 
L 180.419348 223.921986 
L 180.419348 223.754152 
L 181.226065 223.754152 
L 181.226065 223.418483 
L 181.745276 223.418483 
L 181.830435 222.747145 
L 181.889818 222.747145 
L 181.889818 222.57931 
L 182.911809 222.57931 
L 182.911809 222.243641 
L 183.61255 222.243641 
L 183.61255 221.740138 
L 183.820075 221.740138 
L 183.820075 221.572303 
L 184.100793 221.572303 
L 184.100793 221.404469 
L 184.355108 221.404469 
L 184.414451 220.900966 
L 184.510485 220.900966 
L 184.510485 220.733131 
L 184.649966 220.733131 
L 184.759357 220.397462 
L 184.889792 220.397462 
L 184.889792 220.061793 
L 185.098054 220.061793 
L 185.155102 219.55829 
L 185.963426 219.55829 
L 185.963426 219.222621 
L 186.106119 219.222621 
L 186.106119 218.886952 
L 186.241017 218.886952 
L 186.241017 218.719117 
L 186.368281 218.719117 
L 186.474787 218.383448 
L 187.00491 218.383448 
L 187.00491 218.047779 
L 187.223054 218.047779 
L 187.223054 217.71211 
L 187.356538 217.71211 
L 187.356538 217.544276 
L 187.905819 217.544276 
L 187.930409 217.208607 
L 188.22906 217.208607 
L 188.22906 217.040772 
L 189.292873 217.040772 
L 189.292873 216.872938 
L 189.469188 216.872938 
L 189.469188 216.705103 
L 189.96639 216.705103 
L 189.96639 216.537269 
L 190.504443 216.537269 
L 190.504443 216.2016 
L 190.84426 216.2016 
L 190.870552 215.530262 
L 191.306841 215.530262 
L 191.373467 215.194593 
L 191.429659 215.194593 
L 191.429659 215.026759 
L 191.541542 215.026759 
L 191.597235 214.523255 
L 191.693045 214.523255 
L 191.798376 214.187586 
L 192.630016 214.187586 
L 192.630016 213.851917 
L 192.758781 213.851917 
L 192.758781 213.516248 
L 192.905543 213.516248 
L 192.924397 213.012745 
L 193.074553 213.012745 
L 193.074553 212.84491 
L 193.316027 212.84491 
L 193.389708 212.173572 
L 193.527086 212.173572 
L 193.527086 212.005738 
L 193.973445 212.005738 
L 193.973445 211.837903 
L 194.124328 211.837903 
L 194.124328 211.670069 
L 194.526636 211.670069 
L 194.556897 210.998731 
L 194.780182 210.998731 
L 194.780182 210.663062 
L 195.110218 210.663062 
L 195.110218 210.327393 
L 195.545546 210.327393 
L 195.545546 210.159559 
L 195.753411 210.159559 
L 195.753411 209.82389 
L 195.922885 209.82389 
L 195.922885 209.656055 
L 196.225726 209.656055 
L 196.225726 209.488221 
L 196.398851 209.488221 
L 196.492616 209.152552 
L 196.547098 209.152552 
L 196.547098 208.984717 
L 197.379418 208.984717 
L 197.379418 208.313379 
L 360.8064 208.313379 
L 360.8064 208.313379 
" style="fill: none; stroke: #008000; stroke-width: 1.5; stroke-linecap: square"/>
   </g>
   <g id="line2d_36">
    <defs>
     <path id="m669e3c29f6" d="M -0 6 
L 6 -6 
L -6 -6 
z
" style="stroke: #008000; stroke-width: 1.5; stroke-linejoin: miter"/>
    </defs>
    <g>
     <use xlink:href="#m669e3c29f6" x="135.638065" y="266.551945" style="fill-opacity: 0; stroke: #008000; stroke-width: 1.5; stroke-linejoin: miter"/>
     <use xlink:href="#m669e3c29f6" x="187.00491" y="218.383448" style="fill-opacity: 0; stroke: #008000; stroke-width: 1.5; stroke-linejoin: miter"/>
     <use xlink:href="#m669e3c29f6" x="197.379418" y="208.984717" style="fill-opacity: 0; stroke: #008000; stroke-width: 1.5; stroke-linejoin: miter"/>
     <use xlink:href="#m669e3c29f6" x="197.379418" y="208.313379" style="fill-opacity: 0; stroke: #008000; stroke-width: 1.5; stroke-linejoin: miter"/>
     <use xlink:href="#m669e3c29f6" x="197.379418" y="208.313379" style="fill-opacity: 0; stroke: #008000; stroke-width: 1.5; stroke-linejoin: miter"/>
     <use xlink:href="#m669e3c29f6" x="360.8064" y="208.313379" style="fill-opacity: 0; stroke: #008000; stroke-width: 1.5; stroke-linejoin: miter"/>
    </g>
   </g>
   <g id="line2d_37">
    <path style="fill: none; stroke: #008000; stroke-width: 1.5; stroke-linecap: square"/>
    <g/>
   </g>
   <g id="line2d_38">
    <path d="M 197.531229 208.313379 
" clip-path="url(#p8f28f0dd5c)" style="fill: none; stroke: #008000; stroke-width: 1.5; stroke-linecap: square"/>
    <defs>
     <path id="m6bc03390a6" d="M -12 12 
L 12 -12 
M -12 -12 
L 12 12 
" style="stroke: #008000"/>
    </defs>
    <g clip-path="url(#p8f28f0dd5c)">
     <use xlink:href="#m6bc03390a6" x="197.531229" y="208.313379" style="fill: #008000; stroke: #008000"/>
    </g>
   </g>
   <g id="line2d_39">
    <defs>
     <path id="mefd00643a6" d="M 0 1.5 
C 0.397805 1.5 0.77937 1.341951 1.06066 1.06066 
C 1.341951 0.77937 1.5 0.397805 1.5 0 
C 1.5 -0.397805 1.341951 -0.77937 1.06066 -1.06066 
C 0.77937 -1.341951 0.397805 -1.5 0 -1.5 
C -0.397805 -1.5 -0.77937 -1.341951 -1.06066 -1.06066 
C -1.341951 -0.77937 -1.5 -0.397805 -1.5 0 
C -1.5 0.397805 -1.341951 0.77937 -1.06066 1.06066 
C -0.77937 1.341951 -0.397805 1.5 0 1.5 
z
" style="stroke: #0000ff"/>
    </defs>
    <g>
     <use xlink:href="#mefd00643a6" x="187.862709" y="243.390786" style="fill: #0000ff; stroke: #0000ff"/>
     <use xlink:href="#mefd00643a6" x="187.862709" y="243.390786" style="fill: #0000ff; stroke: #0000ff"/>
    </g>
   </g>
   <g id="line2d_40">
    <path d="M 27.323974 298.944 
L 27.323974 286.188579 
L 63.929565 286.188579 
L 63.929565 286.020745 
L 70.639174 286.020745 
L 70.639174 285.181572 
L 74.068926 285.181572 
L 74.068926 284.845903 
L 86.307488 284.845903 
L 86.307488 284.006731 
L 92.519847 284.006731 
L 92.519847 283.503228 
L 99.751228 283.503228 
L 99.751228 282.664055 
L 100.147275 282.664055 
L 100.147275 281.657048 
L 104.961779 281.657048 
L 104.961779 281.489214 
L 108.034177 281.489214 
L 108.034177 281.153545 
L 109.990385 281.153545 
L 109.990385 280.482207 
L 112.790402 280.482207 
L 112.790402 280.146538 
L 113.954374 280.146538 
L 113.954374 279.978703 
L 122.795872 279.978703 
L 122.795872 279.810869 
L 127.731351 279.810869 
L 127.731351 279.643034 
L 128.089678 279.643034 
L 128.089678 279.4752 
L 128.441306 279.4752 
L 128.441306 278.971697 
L 128.786481 278.971697 
L 128.786481 278.803862 
L 129.458394 278.803862 
L 129.458394 278.468193 
L 131.63737 278.468193 
L 131.63737 278.300359 
L 135.177024 278.300359 
L 135.177024 278.132524 
L 137.195511 278.132524 
L 137.195511 277.96469 
L 140.26641 277.96469 
L 140.26641 277.629021 
L 140.49723 277.629021 
L 140.49723 277.461186 
L 141.610664 277.461186 
L 141.65386 276.957683 
L 142.122575 276.957683 
L 142.122575 276.789848 
L 144.342932 276.789848 
L 144.342932 276.286345 
L 144.491935 276.286345 
L 144.491935 275.782841 
L 144.639767 275.782841 
L 144.639767 275.615007 
L 145.432709 275.615007 
L 145.432709 274.943669 
L 145.678157 274.943669 
L 145.678157 274.775834 
L 147.878349 274.775834 
L 147.878349 274.608 
L 148.185734 274.608 
L 148.185734 274.440166 
L 148.991428 274.440166 
L 148.991428 273.936662 
L 149.338728 273.936662 
L 149.338728 273.768828 
L 149.481565 273.768828 
L 149.481565 273.433159 
L 150.069911 273.433159 
L 150.069911 273.265324 
L 150.425115 273.265324 
L 150.425115 272.761821 
L 151.037576 272.761821 
L 151.037576 272.593986 
L 151.579882 272.593986 
L 151.579882 272.090483 
L 151.70673 272.090483 
L 151.70673 271.754814 
L 152.523139 271.754814 
L 152.523139 271.419145 
L 153.165721 271.419145 
L 153.235783 270.915641 
L 153.375128 270.915641 
L 153.421349 270.412138 
L 154.079083 270.412138 
L 154.079083 269.908634 
L 154.256552 269.908634 
L 154.366625 269.237297 
L 154.606544 269.237297 
L 154.606544 269.069462 
L 156.225294 269.069462 
L 156.245169 268.733793 
L 157.438121 268.733793 
L 157.438121 268.565959 
L 157.642093 268.565959 
L 157.642093 268.398124 
L 158.630038 268.398124 
L 158.630038 267.894621 
L 159.232748 267.894621 
L 159.232748 267.726786 
L 160.620781 267.726786 
L 160.652238 267.055448 
L 160.777545 267.055448 
L 160.886507 265.712772 
L 160.979404 265.712772 
L 160.979404 265.544938 
L 161.209658 265.544938 
L 161.209658 265.041434 
L 161.898693 265.041434 
L 161.898693 264.705766 
L 162.074367 264.705766 
L 162.074367 264.202262 
L 162.277267 264.202262 
L 162.277267 263.866593 
L 162.392235 263.866593 
L 162.492258 263.36309 
L 162.859187 263.36309 
L 162.956765 262.859586 
L 163.27386 262.859586 
L 163.27386 262.691752 
L 163.839461 262.691752 
L 163.839461 262.188248 
L 165.009535 262.188248 
L 165.009535 262.020414 
L 165.802874 262.020414 
L 165.874446 261.684745 
L 165.945747 261.684745 
L 166.052194 260.509903 
L 166.181484 260.509903 
L 166.181484 260.174234 
L 166.379563 260.174234 
L 166.39115 259.502897 
L 166.529641 259.502897 
L 166.529641 258.999393 
L 166.769573 258.999393 
L 166.769573 258.831559 
L 167.173896 258.831559 
L 167.240447 258.328055 
L 167.634879 258.328055 
L 167.634879 258.160221 
L 168.074246 258.160221 
L 168.148245 257.153214 
L 168.337202 257.153214 
L 168.337202 256.985379 
L 168.462127 256.985379 
L 168.462127 256.817545 
L 168.760648 256.817545 
L 168.801454 256.314041 
L 169.403154 256.314041 
L 169.403154 256.146207 
L 170.299341 256.146207 
L 170.299341 255.978372 
L 170.983137 255.978372 
L 170.983137 255.810538 
L 172.423834 255.810538 
L 172.423834 255.642703 
L 172.864133 255.642703 
L 172.864133 255.474869 
L 173.027642 255.474869 
L 173.027642 255.307034 
L 173.659955 255.307034 
L 173.659955 255.1392 
L 173.808912 255.1392 
L 173.808912 254.971366 
L 174.126381 254.971366 
L 174.126381 254.803531 
L 174.760539 254.803531 
L 174.864184 253.964359 
L 175.178998 253.964359 
L 175.193513 253.62869 
L 175.338051 253.62869 
L 175.359637 253.125186 
L 175.481488 253.125186 
L 175.481488 252.957352 
L 175.926293 252.957352 
L 176.016783 252.286014 
L 176.36764 252.286014 
L 176.435674 251.446841 
L 176.792206 251.446841 
L 176.792206 251.279007 
L 176.92501 251.279007 
L 176.92501 250.943338 
L 177.330842 250.943338 
L 177.330842 250.775503 
L 177.677313 250.775503 
L 177.677313 250.607669 
L 178.25945 250.607669 
L 178.25945 250.439834 
L 179.955757 250.439834 
L 179.955757 250.104166 
L 180.587114 250.104166 
L 180.679474 249.600662 
L 180.873576 249.600662 
L 180.873576 249.432828 
L 181.14517 249.432828 
L 181.14517 249.264993 
L 181.692283 249.264993 
L 181.692283 249.097159 
L 181.891511 249.097159 
L 181.891511 248.929324 
L 182.653338 248.929324 
L 182.653338 248.76149 
L 182.99665 248.76149 
L 183.073159 248.425821 
L 183.30555 248.425821 
L 183.394894 248.090152 
L 183.976883 248.090152 
L 183.976883 247.922317 
L 184.121867 247.922317 
L 184.121867 247.586648 
L 184.283649 247.586648 
L 184.283649 247.418814 
L 184.532577 247.418814 
L 184.532577 247.083145 
L 184.860885 247.083145 
L 184.869562 246.411807 
L 185.361871 246.411807 
L 185.361871 246.243972 
L 186.062746 246.243972 
L 186.119652 245.572634 
L 186.389631 245.572634 
L 186.389631 245.236966 
L 186.564846 245.236966 
L 186.632107 244.901297 
L 186.984247 244.901297 
L 187.084762 244.565628 
L 187.184741 244.565628 
L 187.238357 244.062124 
L 187.47398 244.062124 
L 187.47398 243.726455 
L 187.72533 243.726455 
L 187.72533 243.558621 
L 187.862709 243.558621 
L 187.862709 243.390786 
L 360.8064 243.390786 
L 360.8064 243.390786 
" style="fill: none; stroke: #0000ff; stroke-width: 1.5; stroke-linecap: square"/>
   </g>
   <g id="line2d_41">
    <defs>
     <path id="m4b77ba5abc" d="M 0 -6 
L -1.347084 -1.854102 
L -5.706339 -1.854102 
L -2.179628 0.708204 
L -3.526712 4.854102 
L -0 2.291796 
L 3.526712 4.854102 
L 2.179628 0.708204 
L 5.706339 -1.854102 
L 1.347084 -1.854102 
z
" style="stroke: #0000ff; stroke-width: 1.5; stroke-linejoin: bevel"/>
    </defs>
    <g>
     <use xlink:href="#m4b77ba5abc" x="74.068926" y="285.181572" style="fill-opacity: 0; stroke: #0000ff; stroke-width: 1.5; stroke-linejoin: bevel"/>
     <use xlink:href="#m4b77ba5abc" x="122.795872" y="279.978703" style="fill-opacity: 0; stroke: #0000ff; stroke-width: 1.5; stroke-linejoin: bevel"/>
     <use xlink:href="#m4b77ba5abc" x="187.862709" y="243.558621" style="fill-opacity: 0; stroke: #0000ff; stroke-width: 1.5; stroke-linejoin: bevel"/>
     <use xlink:href="#m4b77ba5abc" x="187.862709" y="243.390786" style="fill-opacity: 0; stroke: #0000ff; stroke-width: 1.5; stroke-linejoin: bevel"/>
     <use xlink:href="#m4b77ba5abc" x="187.862709" y="243.390786" style="fill-opacity: 0; stroke: #0000ff; stroke-width: 1.5; stroke-linejoin: bevel"/>
     <use xlink:href="#m4b77ba5abc" x="360.8064" y="243.390786" style="fill-opacity: 0; stroke: #0000ff; stroke-width: 1.5; stroke-linejoin: bevel"/>
    </g>
   </g>
   <g id="line2d_42">
    <path style="fill: none; stroke: #0000ff; stroke-width: 1.5; stroke-linecap: square"/>
    <g/>
   </g>
   <g id="line2d_43">
    <path d="M 187.921806 243.390786 
" clip-path="url(#p8f28f0dd5c)" style="fill: none; stroke: #0000ff; stroke-width: 1.5; stroke-linecap: square"/>
    <defs>
     <path id="m07b063579b" d="M -12 12 
L 12 -12 
M -12 -12 
L 12 12 
" style="stroke: #0000ff"/>
    </defs>
    <g clip-path="url(#p8f28f0dd5c)">
     <use xlink:href="#m07b063579b" x="187.921806" y="243.390786" style="fill: #0000ff; stroke: #0000ff"/>
    </g>
   </g>
   <g id="line2d_44">
    <defs>
     <path id="m6f408cb98c" d="M 0 1.5 
C 0.397805 1.5 0.77937 1.341951 1.06066 1.06066 
C 1.341951 0.77937 1.5 0.397805 1.5 0 
C 1.5 -0.397805 1.341951 -0.77937 1.06066 -1.06066 
C 0.77937 -1.341951 0.397805 -1.5 0 -1.5 
C -0.397805 -1.5 -0.77937 -1.341951 -1.06066 -1.06066 
C -1.341951 -0.77937 -1.5 -0.397805 -1.5 0 
C -1.5 0.397805 -1.341951 0.77937 -1.06066 1.06066 
C -0.77937 1.341951 -0.397805 1.5 0 1.5 
z
" style="stroke: #000000"/>
    </defs>
    <g>
     <use xlink:href="#m6f408cb98c" x="174.528986" y="266.719779" style="stroke: #000000"/>
     <use xlink:href="#m6f408cb98c" x="174.528986" y="266.719779" style="stroke: #000000"/>
    </g>
   </g>
   <g id="line2d_45">
    <path d="M 14.2848 298.944 
L 14.2848 287.69909 
L 62.535479 287.69909 
L 62.535479 287.531255 
L 97.857967 287.531255 
L 97.857967 287.195586 
L 114.234452 287.195586 
L 114.234452 287.027752 
L 122.015696 287.027752 
L 122.015696 286.692083 
L 127.366067 286.692083 
L 127.366067 286.020745 
L 131.563744 286.020745 
L 131.563744 284.845903 
L 134.993495 284.845903 
L 134.993495 284.678069 
L 136.155623 284.678069 
L 136.155623 284.510234 
L 137.681345 284.510234 
L 137.707972 282.999724 
L 137.919637 282.999724 
L 137.919637 282.83189 
L 140.103135 282.83189 
L 140.103135 282.664055 
L 140.905699 282.664055 
L 140.905699 281.824883 
L 145.730339 281.824883 
L 145.83427 281.489214 
L 146.328666 281.489214 
L 146.328666 281.321379 
L 147.006187 281.321379 
L 147.006187 280.98571 
L 147.534321 280.98571 
L 147.534321 280.817876 
L 147.707122 280.817876 
L 147.707122 280.650041 
L 148.155221 280.650041 
L 148.155221 280.482207 
L 149.223672 280.482207 
L 149.223672 280.314372 
L 149.381693 280.314372 
L 149.381693 279.978703 
L 149.495789 279.978703 
L 149.495789 278.971697 
L 150.207323 278.971697 
L 150.207323 278.803862 
L 151.387991 278.803862 
L 151.387991 278.636028 
L 151.579882 278.636028 
L 151.618026 277.96469 
L 152.547334 277.96469 
L 152.547334 277.461186 
L 153.375128 277.461186 
L 153.375128 277.293352 
L 154.212341 277.293352 
L 154.234459 276.957683 
L 154.574008 276.957683 
L 154.574008 276.789848 
L 156.383708 276.789848 
L 156.383708 276.622014 
L 156.783658 276.622014 
L 156.793307 276.11851 
L 157.3353 276.11851 
L 157.3353 275.782841 
L 158.249994 275.782841 
L 158.249994 275.447172 
L 158.70862 275.447172 
L 158.70862 275.279338 
L 159.443406 275.279338 
L 159.443406 275.111503 
L 159.568678 275.111503 
L 159.568678 274.943669 
L 160.037244 274.943669 
L 160.037244 274.272331 
L 160.335271 274.272331 
L 160.335271 273.433159 
L 160.722826 273.433159 
L 160.777545 272.929655 
L 161.986735 272.929655 
L 161.986735 272.761821 
L 162.605924 272.761821 
L 162.605924 272.593986 
L 162.824215 272.593986 
L 162.824215 272.426152 
L 164.2268 272.426152 
L 164.291668 271.922648 
L 164.478528 271.922648 
L 164.478528 271.754814 
L 164.714273 271.754814 
L 164.714273 271.419145 
L 166.105193 271.419145 
L 166.105193 271.25131 
L 166.245797 271.25131 
L 166.245797 271.083476 
L 166.627125 271.083476 
L 166.627125 270.915641 
L 167.079212 270.915641 
L 167.079212 270.579972 
L 168.477684 270.579972 
L 168.477684 270.412138 
L 168.606832 270.412138 
L 168.606832 270.244303 
L 169.403154 270.244303 
L 169.403154 269.908634 
L 169.594634 269.908634 
L 169.594634 269.572966 
L 169.813178 269.572966 
L 169.813178 269.405131 
L 170.014887 269.405131 
L 170.014887 269.069462 
L 170.223906 269.069462 
L 170.223906 268.901628 
L 170.34164 268.901628 
L 170.397892 268.23029 
L 170.814504 268.23029 
L 170.814504 268.062455 
L 170.978599 268.062455 
L 170.978599 267.894621 
L 173.137212 267.894621 
L 173.137212 267.558952 
L 173.358456 267.558952 
L 173.358456 267.223283 
L 173.921801 267.223283 
L 173.921801 266.887614 
L 174.528986 266.887614 
L 174.528986 266.719779 
L 360.8064 266.719779 
L 360.8064 266.719779 
" style="fill: none; stroke: #000000; stroke-width: 1.5; stroke-linecap: square"/>
   </g>
   <g id="line2d_46">
    <defs>
     <path id="mbb11d6fa1a" d="M 0 6 
C 1.591219 6 3.117479 5.367802 4.242641 4.242641 
C 5.367802 3.117479 6 1.591219 6 0 
C 6 -1.591219 5.367802 -3.117479 4.242641 -4.242641 
C 3.117479 -5.367802 1.591219 -6 0 -6 
C -1.591219 -6 -3.117479 -5.367802 -4.242641 -4.242641 
C -5.367802 -3.117479 -6 -1.591219 -6 0 
C -6 1.591219 -5.367802 3.117479 -4.242641 4.242641 
C -3.117479 5.367802 -1.591219 6 0 6 
z
" style="stroke: #000000; stroke-width: 1.5"/>
    </defs>
    <g>
     <use xlink:href="#mbb11d6fa1a" x="146.328666" y="281.489214" style="fill-opacity: 0; stroke: #000000; stroke-width: 1.5"/>
     <use xlink:href="#mbb11d6fa1a" x="174.528986" y="266.887614" style="fill-opacity: 0; stroke: #000000; stroke-width: 1.5"/>
     <use xlink:href="#mbb11d6fa1a" x="174.528986" y="266.719779" style="fill-opacity: 0; stroke: #000000; stroke-width: 1.5"/>
     <use xlink:href="#mbb11d6fa1a" x="174.528986" y="266.719779" style="fill-opacity: 0; stroke: #000000; stroke-width: 1.5"/>
     <use xlink:href="#mbb11d6fa1a" x="360.8064" y="266.719779" style="fill-opacity: 0; stroke: #000000; stroke-width: 1.5"/>
    </g>
   </g>
   <g id="line2d_47">
    <path style="fill: none; stroke: #000000; stroke-width: 1.5; stroke-linecap: square"/>
    <g/>
   </g>
   <g id="line2d_48">
    <path d="M 174.882632 266.719779 
" clip-path="url(#p8f28f0dd5c)" style="fill: none; stroke: #000000; stroke-width: 1.5; stroke-linecap: square"/>
    <defs>
     <path id="m0e302faa8c" d="M -12 12 
L 12 -12 
M -12 -12 
L 12 12 
" style="stroke: #000000"/>
    </defs>
    <g clip-path="url(#p8f28f0dd5c)">
     <use xlink:href="#m0e302faa8c" x="174.882632" y="266.719779" style="stroke: #000000"/>
    </g>
   </g>
   <g id="line2d_49">
    <defs>
     <path id="m0900f9822d" d="M 0 1.5 
C 0.397805 1.5 0.77937 1.341951 1.06066 1.06066 
C 1.341951 0.77937 1.5 0.397805 1.5 0 
C 1.5 -0.397805 1.341951 -0.77937 1.06066 -1.06066 
C 0.77937 -1.341951 0.397805 -1.5 0 -1.5 
C -0.397805 -1.5 -0.77937 -1.341951 -1.06066 -1.06066 
C -1.341951 -0.77937 -1.5 -0.397805 -1.5 0 
C -1.5 0.397805 -1.341951 0.77937 -1.06066 1.06066 
C -0.77937 1.341951 -0.397805 1.5 0 1.5 
z
" style="stroke: #ff0000"/>
    </defs>
    <g>
     <use xlink:href="#m0900f9822d" x="161.646981" y="285.013738" style="fill: #ff0000; stroke: #ff0000"/>
     <use xlink:href="#m0900f9822d" x="161.646981" y="285.013738" style="fill: #ff0000; stroke: #ff0000"/>
    </g>
   </g>
   <g id="line2d_50">
    <path d="M 1.245626 298.944 
L 1.245626 287.363421 
L 143.374088 287.363421 
L 143.374088 287.195586 
L 146.957431 287.195586 
L 146.957431 287.027752 
L 151.284843 287.027752 
L 151.284843 286.859917 
L 155.813163 286.859917 
L 155.813163 286.692083 
L 157.798206 286.692083 
L 157.798206 286.524248 
L 158.361266 286.524248 
L 158.361266 286.188579 
L 158.401163 286.188579 
L 158.401163 286.020745 
L 159.514496 286.020745 
L 159.514496 285.85291 
L 160.073744 285.85291 
L 160.073744 285.685076 
L 161.501081 285.685076 
L 161.501081 285.517241 
L 161.512345 285.517241 
L 161.512345 285.349407 
L 161.572302 285.349407 
L 161.572302 285.181572 
L 161.646981 285.181572 
L 161.646981 285.013738 
L 360.8064 285.013738 
" style="fill: none; stroke: #ff0000; stroke-width: 1.5; stroke-linecap: square"/>
   </g>
   <g id="line2d_51">
    <defs>
     <path id="m25f2a39b38" d="M -6 6 
L 6 6 
L 6 -6 
L -6 -6 
z
" style="stroke: #ff0000; stroke-width: 1.5; stroke-linejoin: miter"/>
    </defs>
    <g>
     <use xlink:href="#m25f2a39b38" x="161.646981" y="285.181572" style="fill-opacity: 0; stroke: #ff0000; stroke-width: 1.5; stroke-linejoin: miter"/>
     <use xlink:href="#m25f2a39b38" x="161.646981" y="285.181572" style="fill-opacity: 0; stroke: #ff0000; stroke-width: 1.5; stroke-linejoin: miter"/>
     <use xlink:href="#m25f2a39b38" x="161.646981" y="285.013738" style="fill-opacity: 0; stroke: #ff0000; stroke-width: 1.5; stroke-linejoin: miter"/>
     <use xlink:href="#m25f2a39b38" x="161.646981" y="285.013738" style="fill-opacity: 0; stroke: #ff0000; stroke-width: 1.5; stroke-linejoin: miter"/>
     <use xlink:href="#m25f2a39b38" x="360.8064" y="285.013738" style="fill-opacity: 0; stroke: #ff0000; stroke-width: 1.5; stroke-linejoin: miter"/>
    </g>
   </g>
   <g id="line2d_52">
    <path style="fill: none; stroke: #ff0000; stroke-width: 1.5; stroke-linecap: square"/>
    <g/>
   </g>
   <g id="line2d_53">
    <path d="M 161.843457 285.013738 
" clip-path="url(#p8f28f0dd5c)" style="fill: none; stroke: #ff0000; stroke-width: 1.5; stroke-linecap: square"/>
    <defs>
     <path id="mf7f64cbd4f" d="M -12 12 
L 12 -12 
M -12 -12 
L 12 12 
" style="stroke: #ff0000"/>
    </defs>
    <g clip-path="url(#p8f28f0dd5c)">
     <use xlink:href="#mf7f64cbd4f" x="161.843457" y="285.013738" style="fill: #ff0000; stroke: #ff0000"/>
    </g>
   </g>
   <g id="line2d_54">
    <defs>
     <path id="m907670ed2b" d="M 0 1.5 
C 0.397805 1.5 0.77937 1.341951 1.06066 1.06066 
C 1.341951 0.77937 1.5 0.397805 1.5 0 
C 1.5 -0.397805 1.341951 -0.77937 1.06066 -1.06066 
C 0.77937 -1.341951 0.397805 -1.5 0 -1.5 
C -0.397805 -1.5 -0.77937 -1.341951 -1.06066 -1.06066 
C -1.341951 -0.77937 -1.5 -0.397805 -1.5 0 
C -1.5 0.397805 -1.341951 0.77937 -1.06066 1.06066 
C -0.77937 1.341951 -0.397805 1.5 0 1.5 
z
" style="stroke: #bf00bf"/>
    </defs>
    <g/>
   </g>
   <g id="line2d_55">
    <path d="M -1 286.188579 
L 360.8064 286.188579 
" style="fill: none; stroke: #bf00bf; stroke-width: 1.5; stroke-linecap: square"/>
   </g>
   <g id="line2d_56">
    <defs>
     <path id="m8432ff3105" d="M 0 8.485281 
L 8.485281 0 
L 0 -8.485281 
L -8.485281 0 
z
" style="stroke: #bf00bf; stroke-width: 1.5; stroke-linejoin: miter"/>
    </defs>
    <g>
     <use xlink:href="#m8432ff3105" x="360.8064" y="286.188579" style="fill-opacity: 0; stroke: #bf00bf; stroke-width: 1.5; stroke-linejoin: miter"/>
    </g>
   </g>
   <g id="line2d_57">
    <path style="fill: none; stroke: #bf00bf; stroke-width: 1.5; stroke-linecap: square"/>
    <g/>
   </g>
   <g id="line2d_58">
    <path d="M 148.804283 286.188579 
" clip-path="url(#p8f28f0dd5c)" style="fill: none; stroke: #bf00bf; stroke-width: 1.5; stroke-linecap: square"/>
    <defs>
     <path id="m425392ea1f" d="M -12 12 
L 12 -12 
M -12 -12 
L 12 12 
" style="stroke: #bf00bf"/>
    </defs>
    <g clip-path="url(#p8f28f0dd5c)">
     <use xlink:href="#m425392ea1f" x="148.804283" y="286.188579" style="fill: #bf00bf; stroke: #bf00bf"/>
    </g>
   </g>
   <g id="line2d_59">
    <path d="M 360.8064 286.188579 
L 380.514816 293.10336 
" style="fill: none; stroke: #bf00bf; stroke-width: 1.5; stroke-linecap: square"/>
    <g>
     <use xlink:href="#m8432ff3105" x="360.8064" y="286.188579" style="fill-opacity: 0; stroke: #bf00bf; stroke-width: 1.5; stroke-linejoin: miter"/>
     <use xlink:href="#m8432ff3105" x="380.514816" y="293.10336" style="fill-opacity: 0; stroke: #bf00bf; stroke-width: 1.5; stroke-linejoin: miter"/>
    </g>
   </g>
   <g id="line2d_60">
    <path d="M 360.8064 285.013738 
L 380.514816 237.033216 
" style="fill: none; stroke: #ff0000; stroke-width: 1.5; stroke-linecap: square"/>
    <g>
     <use xlink:href="#m25f2a39b38" x="360.8064" y="285.013738" style="fill-opacity: 0; stroke: #ff0000; stroke-width: 1.5; stroke-linejoin: miter"/>
     <use xlink:href="#m25f2a39b38" x="380.514816" y="237.033216" style="fill-opacity: 0; stroke: #ff0000; stroke-width: 1.5; stroke-linejoin: miter"/>
    </g>
   </g>
   <g id="line2d_61">
    <path d="M 360.8064 266.719779 
L 380.514816 180.963072 
" style="fill: none; stroke: #000000; stroke-width: 1.5; stroke-linecap: square"/>
    <g>
     <use xlink:href="#mbb11d6fa1a" x="360.8064" y="266.719779" style="fill-opacity: 0; stroke: #000000; stroke-width: 1.5"/>
     <use xlink:href="#mbb11d6fa1a" x="380.514816" y="180.963072" style="fill-opacity: 0; stroke: #000000; stroke-width: 1.5"/>
    </g>
   </g>
   <g id="line2d_62">
    <path d="M 360.8064 243.390786 
L 380.514816 124.892928 
" style="fill: none; stroke: #0000ff; stroke-width: 1.5; stroke-linecap: square"/>
    <g>
     <use xlink:href="#m4b77ba5abc" x="360.8064" y="243.390786" style="fill-opacity: 0; stroke: #0000ff; stroke-width: 1.5; stroke-linejoin: bevel"/>
     <use xlink:href="#m4b77ba5abc" x="380.514816" y="124.892928" style="fill-opacity: 0; stroke: #0000ff; stroke-width: 1.5; stroke-linejoin: bevel"/>
    </g>
   </g>
   <g id="line2d_63">
    <path d="M 360.8064 208.313379 
L 380.514816 68.822784 
" style="fill: none; stroke: #008000; stroke-width: 1.5; stroke-linecap: square"/>
    <g>
     <use xlink:href="#m669e3c29f6" x="360.8064" y="208.313379" style="fill-opacity: 0; stroke: #008000; stroke-width: 1.5; stroke-linejoin: miter"/>
     <use xlink:href="#m669e3c29f6" x="380.514816" y="68.822784" style="fill-opacity: 0; stroke: #008000; stroke-width: 1.5; stroke-linejoin: miter"/>
    </g>
   </g>
   <g id="line2d_64">
    <path d="M 360.8064 175.75349 
L 380.514816 12.75264 
" style="fill: none; stroke: #00bfbf; stroke-width: 1.5; stroke-linecap: square"/>
    <g>
     <use xlink:href="#m0a7aaf9d94" x="360.8064" y="175.75349" style="fill-opacity: 0; stroke: #00bfbf; stroke-width: 1.5"/>
     <use xlink:href="#m0a7aaf9d94" x="380.514816" y="12.75264" style="fill-opacity: 0; stroke: #00bfbf; stroke-width: 1.5"/>
    </g>
   </g>
   <g id="line2d_65">
    <path d="M 360.8064 298.944 
L 360.8064 6.912 
" style="fill: none; stroke: #000000; stroke-width: 1.5; stroke-linecap: square"/>
   </g>
   <g id="patch_3">
    <path d="M 57.6 298.944 
L 360.8064 298.944 
" style="fill: none; stroke: #000000; stroke-width: 0.8; stroke-linejoin: miter; stroke-linecap: square"/>
   </g>
   <g id="patch_4">
    <path d="M 57.6 6.912 
L 360.8064 6.912 
" style="fill: none; stroke: #000000; stroke-width: 0.8; stroke-linejoin: miter; stroke-linecap: square"/>
   </g>
   <g id="text_13">
    <!-- 40-D -->
    <g transform="translate(386.578944 296.966485)scale(0.14 -0.14)">
     <defs>
      <path id="DejaVuSans-44" d="M 1259 4147 
L 1259 519 
L 2022 519 
Q 2988 519 3436 956 
Q 3884 1394 3884 2338 
Q 3884 3275 3436 3711 
Q 2988 4147 2022 4147 
L 1259 4147 
z
M 628 4666 
L 1925 4666 
Q 3281 4666 3915 4102 
Q 4550 3538 4550 2338 
Q 4550 1131 3912 565 
Q 3275 0 1925 0 
L 628 0 
L 628 4666 
z
" transform="scale(0.015625)"/>
     </defs>
     <use xlink:href="#DejaVuSans-34"/>
     <use xlink:href="#DejaVuSans-30" x="63.623047"/>
     <use xlink:href="#DejaVuSans-2d" x="127.246094"/>
     <use xlink:href="#DejaVuSans-44" x="163.330078"/>
    </g>
   </g>
   <g id="text_14">
    <!-- 20-D -->
    <g transform="translate(386.578944 240.896341)scale(0.14 -0.14)">
     <use xlink:href="#DejaVuSans-32"/>
     <use xlink:href="#DejaVuSans-30" x="63.623047"/>
     <use xlink:href="#DejaVuSans-2d" x="127.246094"/>
     <use xlink:href="#DejaVuSans-44" x="163.330078"/>
    </g>
   </g>
   <g id="text_15">
    <!-- 10-D -->
    <g transform="translate(386.578944 184.826197)scale(0.14 -0.14)">
     <use xlink:href="#DejaVuSans-31"/>
     <use xlink:href="#DejaVuSans-30" x="63.623047"/>
     <use xlink:href="#DejaVuSans-2d" x="127.246094"/>
     <use xlink:href="#DejaVuSans-44" x="163.330078"/>
    </g>
   </g>
   <g id="text_16">
    <!-- 5-D -->
    <g transform="translate(386.578944 128.756053)scale(0.14 -0.14)">
     <defs>
      <path id="DejaVuSans-35" d="M 691 4666 
L 3169 4666 
L 3169 4134 
L 1269 4134 
L 1269 2991 
Q 1406 3038 1543 3061 
Q 1681 3084 1819 3084 
Q 2600 3084 3056 2656 
Q 3513 2228 3513 1497 
Q 3513 744 3044 326 
Q 2575 -91 1722 -91 
Q 1428 -91 1123 -41 
Q 819 9 494 109 
L 494 744 
Q 775 591 1075 516 
Q 1375 441 1709 441 
Q 2250 441 2565 725 
Q 2881 1009 2881 1497 
Q 2881 1984 2565 2268 
Q 2250 2553 1709 2553 
Q 1456 2553 1204 2497 
Q 953 2441 691 2322 
L 691 4666 
z
" transform="scale(0.015625)"/>
     </defs>
     <use xlink:href="#DejaVuSans-35"/>
     <use xlink:href="#DejaVuSans-2d" x="63.623047"/>
     <use xlink:href="#DejaVuSans-44" x="99.707031"/>
    </g>
   </g>
   <g id="text_17">
    <!-- 3-D -->
    <g transform="translate(386.578944 72.685909)scale(0.14 -0.14)">
     <defs>
      <path id="DejaVuSans-33" d="M 2597 2516 
Q 3050 2419 3304 2112 
Q 3559 1806 3559 1356 
Q 3559 666 3084 287 
Q 2609 -91 1734 -91 
Q 1441 -91 1130 -33 
Q 819 25 488 141 
L 488 750 
Q 750 597 1062 519 
Q 1375 441 1716 441 
Q 2309 441 2620 675 
Q 2931 909 2931 1356 
Q 2931 1769 2642 2001 
Q 2353 2234 1838 2234 
L 1294 2234 
L 1294 2753 
L 1863 2753 
Q 2328 2753 2575 2939 
Q 2822 3125 2822 3475 
Q 2822 3834 2567 4026 
Q 2313 4219 1838 4219 
Q 1578 4219 1281 4162 
Q 984 4106 628 3988 
L 628 4550 
Q 988 4650 1302 4700 
Q 1616 4750 1894 4750 
Q 2613 4750 3031 4423 
Q 3450 4097 3450 3541 
Q 3450 3153 3228 2886 
Q 3006 2619 2597 2516 
z
" transform="scale(0.015625)"/>
     </defs>
     <use xlink:href="#DejaVuSans-33"/>
     <use xlink:href="#DejaVuSans-2d" x="63.623047"/>
     <use xlink:href="#DejaVuSans-44" x="99.707031"/>
    </g>
   </g>
   <g id="text_18">
    <!-- 2-D -->
    <g transform="translate(386.578944 16.615765)scale(0.14 -0.14)">
     <use xlink:href="#DejaVuSans-32"/>
     <use xlink:href="#DejaVuSans-2d" x="63.623047"/>
     <use xlink:href="#DejaVuSans-44" x="99.707031"/>
    </g>
   </g>
   <g id="text_19">
    <!-- bbob-biobj f20, f21, f28 -->
    <g transform="translate(60.632064 17.582726)scale(0.102 -0.102)">
     <defs>
      <path id="DejaVuSans-62" d="M 3116 1747 
Q 3116 2381 2855 2742 
Q 2594 3103 2138 3103 
Q 1681 3103 1420 2742 
Q 1159 2381 1159 1747 
Q 1159 1113 1420 752 
Q 1681 391 2138 391 
Q 2594 391 2855 752 
Q 3116 1113 3116 1747 
z
M 1159 2969 
Q 1341 3281 1617 3432 
Q 1894 3584 2278 3584 
Q 2916 3584 3314 3078 
Q 3713 2572 3713 1747 
Q 3713 922 3314 415 
Q 2916 -91 2278 -91 
Q 1894 -91 1617 61 
Q 1341 213 1159 525 
L 1159 0 
L 581 0 
L 581 4863 
L 1159 4863 
L 1159 2969 
z
" transform="scale(0.015625)"/>
      <path id="DejaVuSans-6a" d="M 603 3500 
L 1178 3500 
L 1178 -63 
Q 1178 -731 923 -1031 
Q 669 -1331 103 -1331 
L -116 -1331 
L -116 -844 
L 38 -844 
Q 366 -844 484 -692 
Q 603 -541 603 -63 
L 603 3500 
z
M 603 4863 
L 1178 4863 
L 1178 4134 
L 603 4134 
L 603 4863 
z
" transform="scale(0.015625)"/>
     </defs>
     <use xlink:href="#DejaVuSans-62"/>
     <use xlink:href="#DejaVuSans-62" x="63.476562"/>
     <use xlink:href="#DejaVuSans-6f" x="126.953125"/>
     <use xlink:href="#DejaVuSans-62" x="188.134766"/>
     <use xlink:href="#DejaVuSans-2d" x="251.611328"/>
     <use xlink:href="#DejaVuSans-62" x="287.695312"/>
     <use xlink:href="#DejaVuSans-69" x="351.171875"/>
     <use xlink:href="#DejaVuSans-6f" x="378.955078"/>
     <use xlink:href="#DejaVuSans-62" x="440.136719"/>
     <use xlink:href="#DejaVuSans-6a" x="503.613281"/>
     <use xlink:href="#DejaVuSans-20" x="531.396484"/>
     <use xlink:href="#DejaVuSans-66" x="563.183594"/>
     <use xlink:href="#DejaVuSans-32" x="598.388672"/>
     <use xlink:href="#DejaVuSans-30" x="662.011719"/>
     <use xlink:href="#DejaVuSans-2c" x="725.634766"/>
     <use xlink:href="#DejaVuSans-20" x="757.421875"/>
     <use xlink:href="#DejaVuSans-66" x="789.208984"/>
     <use xlink:href="#DejaVuSans-32" x="824.414062"/>
     <use xlink:href="#DejaVuSans-31" x="888.037109"/>
     <use xlink:href="#DejaVuSans-2c" x="951.660156"/>
     <use xlink:href="#DejaVuSans-20" x="983.447266"/>
     <use xlink:href="#DejaVuSans-66" x="1015.234375"/>
     <use xlink:href="#DejaVuSans-32" x="1050.439453"/>
     <use xlink:href="#DejaVuSans-38" x="1114.0625"/>
    </g>
    <!-- 58 targets: 1..-1.0e-4 -->
    <g transform="translate(60.632064 29.004495)scale(0.102 -0.102)">
     <defs>
      <path id="DejaVuSans-3a" d="M 750 794 
L 1409 794 
L 1409 0 
L 750 0 
L 750 794 
z
M 750 3309 
L 1409 3309 
L 1409 2516 
L 750 2516 
L 750 3309 
z
" transform="scale(0.015625)"/>
     </defs>
     <use xlink:href="#DejaVuSans-35"/>
     <use xlink:href="#DejaVuSans-38" x="63.623047"/>
     <use xlink:href="#DejaVuSans-20" x="127.246094"/>
     <use xlink:href="#DejaVuSans-74" x="159.033203"/>
     <use xlink:href="#DejaVuSans-61" x="198.242188"/>
     <use xlink:href="#DejaVuSans-72" x="259.521484"/>
     <use xlink:href="#DejaVuSans-67" x="298.884766"/>
     <use xlink:href="#DejaVuSans-65" x="362.361328"/>
     <use xlink:href="#DejaVuSans-74" x="423.884766"/>
     <use xlink:href="#DejaVuSans-73" x="463.09375"/>
     <use xlink:href="#DejaVuSans-3a" x="515.193359"/>
     <use xlink:href="#DejaVuSans-20" x="548.884766"/>
     <use xlink:href="#DejaVuSans-31" x="580.671875"/>
     <use xlink:href="#DejaVuSans-2e" x="644.294922"/>
     <use xlink:href="#DejaVuSans-2e" x="676.082031"/>
     <use xlink:href="#DejaVuSans-2d" x="707.869141"/>
     <use xlink:href="#DejaVuSans-31" x="743.953125"/>
     <use xlink:href="#DejaVuSans-2e" x="807.576172"/>
     <use xlink:href="#DejaVuSans-30" x="839.363281"/>
     <use xlink:href="#DejaVuSans-65" x="902.986328"/>
     <use xlink:href="#DejaVuSans-2d" x="964.509766"/>
     <use xlink:href="#DejaVuSans-34" x="1000.59375"/>
    </g>
    <!-- 10 instances -->
    <g transform="translate(60.632064 40.426264)scale(0.102 -0.102)">
     <use xlink:href="#DejaVuSans-31"/>
     <use xlink:href="#DejaVuSans-30" x="63.623047"/>
     <use xlink:href="#DejaVuSans-20" x="127.246094"/>
     <use xlink:href="#DejaVuSans-69" x="159.033203"/>
     <use xlink:href="#DejaVuSans-6e" x="186.816406"/>
     <use xlink:href="#DejaVuSans-73" x="250.195312"/>
     <use xlink:href="#DejaVuSans-74" x="302.294922"/>
     <use xlink:href="#DejaVuSans-61" x="341.503906"/>
     <use xlink:href="#DejaVuSans-6e" x="402.783203"/>
     <use xlink:href="#DejaVuSans-63" x="466.162109"/>
     <use xlink:href="#DejaVuSans-65" x="521.142578"/>
     <use xlink:href="#DejaVuSans-73" x="582.666016"/>
    </g>
   </g>
   <g id="text_20">
    <!-- v2.6, hv-hash=ff0e71e8cd978373 -->
    <g style="fill: #808080" transform="translate(123.707887 293.943992)scale(0.1 -0.1)">
     <defs>
      <path id="DejaVuSans-68" d="M 3513 2113 
L 3513 0 
L 2938 0 
L 2938 2094 
Q 2938 2591 2744 2837 
Q 2550 3084 2163 3084 
Q 1697 3084 1428 2787 
Q 1159 2491 1159 1978 
L 1159 0 
L 581 0 
L 581 4863 
L 1159 4863 
L 1159 2956 
Q 1366 3272 1645 3428 
Q 1925 3584 2291 3584 
Q 2894 3584 3203 3211 
Q 3513 2838 3513 2113 
z
" transform="scale(0.015625)"/>
      <path id="DejaVuSans-3d" d="M 678 2906 
L 4684 2906 
L 4684 2381 
L 678 2381 
L 678 2906 
z
M 678 1631 
L 4684 1631 
L 4684 1100 
L 678 1100 
L 678 1631 
z
" transform="scale(0.015625)"/>
      <path id="DejaVuSans-37" d="M 525 4666 
L 3525 4666 
L 3525 4397 
L 1831 0 
L 1172 0 
L 2766 4134 
L 525 4134 
L 525 4666 
z
" transform="scale(0.015625)"/>
      <path id="DejaVuSans-39" d="M 703 97 
L 703 672 
Q 941 559 1184 500 
Q 1428 441 1663 441 
Q 2288 441 2617 861 
Q 2947 1281 2994 2138 
Q 2813 1869 2534 1725 
Q 2256 1581 1919 1581 
Q 1219 1581 811 2004 
Q 403 2428 403 3163 
Q 403 3881 828 4315 
Q 1253 4750 1959 4750 
Q 2769 4750 3195 4129 
Q 3622 3509 3622 2328 
Q 3622 1225 3098 567 
Q 2575 -91 1691 -91 
Q 1453 -91 1209 -44 
Q 966 3 703 97 
z
M 1959 2075 
Q 2384 2075 2632 2365 
Q 2881 2656 2881 3163 
Q 2881 3666 2632 3958 
Q 2384 4250 1959 4250 
Q 1534 4250 1286 3958 
Q 1038 3666 1038 3163 
Q 1038 2656 1286 2365 
Q 1534 2075 1959 2075 
z
" transform="scale(0.015625)"/>
     </defs>
     <use xlink:href="#DejaVuSans-76"/>
     <use xlink:href="#DejaVuSans-32" x="59.179688"/>
     <use xlink:href="#DejaVuSans-2e" x="122.802734"/>
     <use xlink:href="#DejaVuSans-36" x="154.589844"/>
     <use xlink:href="#DejaVuSans-2c" x="218.212891"/>
     <use xlink:href="#DejaVuSans-20" x="250"/>
     <use xlink:href="#DejaVuSans-68" x="281.787109"/>
     <use xlink:href="#DejaVuSans-76" x="345.166016"/>
     <use xlink:href="#DejaVuSans-2d" x="401.720703"/>
     <use xlink:href="#DejaVuSans-68" x="437.804688"/>
     <use xlink:href="#DejaVuSans-61" x="501.183594"/>
     <use xlink:href="#DejaVuSans-73" x="562.462891"/>
     <use xlink:href="#DejaVuSans-68" x="614.5625"/>
     <use xlink:href="#DejaVuSans-3d" x="677.941406"/>
     <use xlink:href="#DejaVuSans-66" x="761.730469"/>
     <use xlink:href="#DejaVuSans-66" x="796.935547"/>
     <use xlink:href="#DejaVuSans-30" x="832.140625"/>
     <use xlink:href="#DejaVuSans-65" x="895.763672"/>
     <use xlink:href="#DejaVuSans-37" x="957.287109"/>
     <use xlink:href="#DejaVuSans-31" x="1020.910156"/>
     <use xlink:href="#DejaVuSans-65" x="1084.533203"/>
     <use xlink:href="#DejaVuSans-38" x="1146.056641"/>
     <use xlink:href="#DejaVuSans-63" x="1209.679688"/>
     <use xlink:href="#DejaVuSans-64" x="1264.660156"/>
     <use xlink:href="#DejaVuSans-39" x="1328.136719"/>
     <use xlink:href="#DejaVuSans-37" x="1391.759766"/>
     <use xlink:href="#DejaVuSans-38" x="1455.382812"/>
     <use xlink:href="#DejaVuSans-33" x="1519.005859"/>
     <use xlink:href="#DejaVuSans-37" x="1582.628906"/>
     <use xlink:href="#DejaVuSans-33" x="1646.251953"/>
    </g>
   </g>
  </g>
 </g>
 <defs>
  <clipPath id="p8f28f0dd5c">
   <rect x="57.6" y="6.912" width="303.2064" height="292.032"/>
  </clipPath>
 </defs>
</svg>
