<?xml version="1.0" encoding="utf-8" standalone="no"?>
<!DOCTYPE svg PUBLIC "-//W3C//DTD SVG 1.1//EN"
  "http://www.w3.org/Graphics/SVG/1.1/DTD/svg11.dtd">
<svg xmlns:xlink="http://www.w3.org/1999/xlink" width="460.8pt" height="345.6pt" viewBox="0 0 460.8 345.6" xmlns="http://www.w3.org/2000/svg" version="1.1">
 <metadata>
  <rdf:RDF xmlns:dc="http://purl.org/dc/elements/1.1/" xmlns:cc="http://creativecommons.org/ns#" xmlns:rdf="http://www.w3.org/1999/02/22-rdf-syntax-ns#">
   <cc:Work>
    <dc:type rdf:resource="http://purl.org/dc/dcmitype/StillImage"/>
    <dc:date>2022-06-19T17:22:31.343811</dc:date>
    <dc:format>image/svg+xml</dc:format>
    <dc:creator>
     <cc:Agent>
      <dc:title>Matplotlib v3.5.2, https://matplotlib.org/</dc:title>
     </cc:Agent>
    </dc:creator>
   </cc:Work>
  </rdf:RDF>
 </metadata>
 <defs>
  <style type="text/css">*{stroke-linejoin: round; stroke-linecap: butt}</style>
 </defs>
 <g id="figure_1">
  <g id="patch_1">
   <path d="M 0 345.6 
L 460.8 345.6 
L 460.8 0 
L 0 0 
z
" style="fill: #ffffff"/>
  </g>
  <g id="axes_1">
   <g id="patch_2">
    <path d="M 57.6 298.944 
L 360.8064 298.944 
L 360.8064 6.912 
L 57.6 6.912 
z
" style="fill: #ffffff"/>
   </g>
   <g id="matplotlib.axis_1">
    <g id="xtick_1">
     <g id="line2d_1">
      <path d="M 57.6 298.944 
L 57.6 6.912 
" clip-path="url(#pecbbd68cab)" style="fill: none; stroke: #b0b0b0; stroke-width: 0.8; stroke-linecap: square"/>
     </g>
     <g id="line2d_2">
      <defs>
       <path id="mc5b829b6c6" d="M 0 0 
L 0 3.5 
" style="stroke: #000000; stroke-width: 0.8"/>
      </defs>
      <g>
       <use xlink:href="#mc5b829b6c6" x="57.6" y="298.944" style="stroke: #000000; stroke-width: 0.8"/>
      </g>
     </g>
     <g id="text_1">
      <!-- 0 -->
      <g transform="translate(52.191875 318.861344)scale(0.17 -0.17)">
       <defs>
        <path id="DejaVuSans-30" d="M 2034 4250 
Q 1547 4250 1301 3770 
Q 1056 3291 1056 2328 
Q 1056 1369 1301 889 
Q 1547 409 2034 409 
Q 2525 409 2770 889 
Q 3016 1369 3016 2328 
Q 3016 3291 2770 3770 
Q 2525 4250 2034 4250 
z
M 2034 4750 
Q 2819 4750 3233 4129 
Q 3647 3509 3647 2328 
Q 3647 1150 3233 529 
Q 2819 -91 2034 -91 
Q 1250 -91 836 529 
Q 422 1150 422 2328 
Q 422 3509 836 4129 
Q 1250 4750 2034 4750 
z
" transform="scale(0.015625)"/>
       </defs>
       <use xlink:href="#DejaVuSans-30"/>
      </g>
     </g>
    </g>
    <g id="xtick_2">
     <g id="line2d_3">
      <path d="M 144.2304 298.944 
L 144.2304 6.912 
" clip-path="url(#pecbbd68cab)" style="fill: none; stroke: #b0b0b0; stroke-width: 0.8; stroke-linecap: square"/>
     </g>
     <g id="line2d_4">
      <g>
       <use xlink:href="#mc5b829b6c6" x="144.2304" y="298.944" style="stroke: #000000; stroke-width: 0.8"/>
      </g>
     </g>
     <g id="text_2">
      <!-- 2 -->
      <g transform="translate(138.822275 318.861344)scale(0.17 -0.17)">
       <defs>
        <path id="DejaVuSans-32" d="M 1228 531 
L 3431 531 
L 3431 0 
L 469 0 
L 469 531 
Q 828 903 1448 1529 
Q 2069 2156 2228 2338 
Q 2531 2678 2651 2914 
Q 2772 3150 2772 3378 
Q 2772 3750 2511 3984 
Q 2250 4219 1831 4219 
Q 1534 4219 1204 4116 
Q 875 4013 500 3803 
L 500 4441 
Q 881 4594 1212 4672 
Q 1544 4750 1819 4750 
Q 2544 4750 2975 4387 
Q 3406 4025 3406 3419 
Q 3406 3131 3298 2873 
Q 3191 2616 2906 2266 
Q 2828 2175 2409 1742 
Q 1991 1309 1228 531 
z
" transform="scale(0.015625)"/>
       </defs>
       <use xlink:href="#DejaVuSans-32"/>
      </g>
     </g>
    </g>
    <g id="xtick_3">
     <g id="line2d_5">
      <path d="M 230.8608 298.944 
L 230.8608 6.912 
" clip-path="url(#pecbbd68cab)" style="fill: none; stroke: #b0b0b0; stroke-width: 0.8; stroke-linecap: square"/>
     </g>
     <g id="line2d_6">
      <g>
       <use xlink:href="#mc5b829b6c6" x="230.8608" y="298.944" style="stroke: #000000; stroke-width: 0.8"/>
      </g>
     </g>
     <g id="text_3">
      <!-- 4 -->
      <g transform="translate(225.452675 318.861344)scale(0.17 -0.17)">
       <defs>
        <path id="DejaVuSans-34" d="M 2419 4116 
L 825 1625 
L 2419 1625 
L 2419 4116 
z
M 2253 4666 
L 3047 4666 
L 3047 1625 
L 3713 1625 
L 3713 1100 
L 3047 1100 
L 3047 0 
L 2419 0 
L 2419 1100 
L 313 1100 
L 313 1709 
L 2253 4666 
z
" transform="scale(0.015625)"/>
       </defs>
       <use xlink:href="#DejaVuSans-34"/>
      </g>
     </g>
    </g>
    <g id="xtick_4">
     <g id="line2d_7">
      <path d="M 317.4912 298.944 
L 317.4912 6.912 
" clip-path="url(#pecbbd68cab)" style="fill: none; stroke: #b0b0b0; stroke-width: 0.8; stroke-linecap: square"/>
     </g>
     <g id="line2d_8">
      <g>
       <use xlink:href="#mc5b829b6c6" x="317.4912" y="298.944" style="stroke: #000000; stroke-width: 0.8"/>
      </g>
     </g>
     <g id="text_4">
      <!-- 6 -->
      <g transform="translate(312.083075 318.861344)scale(0.17 -0.17)">
       <defs>
        <path id="DejaVuSans-36" d="M 2113 2584 
Q 1688 2584 1439 2293 
Q 1191 2003 1191 1497 
Q 1191 994 1439 701 
Q 1688 409 2113 409 
Q 2538 409 2786 701 
Q 3034 994 3034 1497 
Q 3034 2003 2786 2293 
Q 2538 2584 2113 2584 
z
M 3366 4563 
L 3366 3988 
Q 3128 4100 2886 4159 
Q 2644 4219 2406 4219 
Q 1781 4219 1451 3797 
Q 1122 3375 1075 2522 
Q 1259 2794 1537 2939 
Q 1816 3084 2150 3084 
Q 2853 3084 3261 2657 
Q 3669 2231 3669 1497 
Q 3669 778 3244 343 
Q 2819 -91 2113 -91 
Q 1303 -91 875 529 
Q 447 1150 447 2328 
Q 447 3434 972 4092 
Q 1497 4750 2381 4750 
Q 2619 4750 2861 4703 
Q 3103 4656 3366 4563 
z
" transform="scale(0.015625)"/>
       </defs>
       <use xlink:href="#DejaVuSans-36"/>
      </g>
     </g>
    </g>
    <g id="xtick_5">
     <g id="line2d_9">
      <path d="M 100.9152 298.944 
L 100.9152 6.912 
" clip-path="url(#pecbbd68cab)" style="fill: none; stroke: #b0b0b0; stroke-width: 0.8; stroke-linecap: square"/>
     </g>
     <g id="line2d_10">
      <defs>
       <path id="mae1e394a2c" d="M 0 0 
L 0 2 
" style="stroke: #000000; stroke-width: 0.6"/>
      </defs>
      <g>
       <use xlink:href="#mae1e394a2c" x="100.9152" y="298.944" style="stroke: #000000; stroke-width: 0.6"/>
      </g>
     </g>
    </g>
    <g id="xtick_6">
     <g id="line2d_11">
      <path d="M 187.5456 298.944 
L 187.5456 6.912 
" clip-path="url(#pecbbd68cab)" style="fill: none; stroke: #b0b0b0; stroke-width: 0.8; stroke-linecap: square"/>
     </g>
     <g id="line2d_12">
      <g>
       <use xlink:href="#mae1e394a2c" x="187.5456" y="298.944" style="stroke: #000000; stroke-width: 0.6"/>
      </g>
     </g>
    </g>
    <g id="xtick_7">
     <g id="line2d_13">
      <path d="M 274.176 298.944 
L 274.176 6.912 
" clip-path="url(#pecbbd68cab)" style="fill: none; stroke: #b0b0b0; stroke-width: 0.8; stroke-linecap: square"/>
     </g>
     <g id="line2d_14">
      <g>
       <use xlink:href="#mae1e394a2c" x="274.176" y="298.944" style="stroke: #000000; stroke-width: 0.6"/>
      </g>
     </g>
    </g>
    <g id="xtick_8">
     <g id="line2d_15">
      <path d="M 360.8064 298.944 
L 360.8064 6.912 
" clip-path="url(#pecbbd68cab)" style="fill: none; stroke: #b0b0b0; stroke-width: 0.8; stroke-linecap: square"/>
     </g>
     <g id="line2d_16">
      <g>
       <use xlink:href="#mae1e394a2c" x="360.8064" y="298.944" style="stroke: #000000; stroke-width: 0.6"/>
      </g>
     </g>
    </g>
    <g id="text_5">
     <!-- log10(# f-evals / dimension) -->
     <g transform="translate(88.823278 339.314156)scale(0.17 -0.17)">
      <defs>
       <path id="DejaVuSans-6c" d="M 603 4863 
L 1178 4863 
L 1178 0 
L 603 0 
L 603 4863 
z
" transform="scale(0.015625)"/>
       <path id="DejaVuSans-6f" d="M 1959 3097 
Q 1497 3097 1228 2736 
Q 959 2375 959 1747 
Q 959 1119 1226 758 
Q 1494 397 1959 397 
Q 2419 397 2687 759 
Q 2956 1122 2956 1747 
Q 2956 2369 2687 2733 
Q 2419 3097 1959 3097 
z
M 1959 3584 
Q 2709 3584 3137 3096 
Q 3566 2609 3566 1747 
Q 3566 888 3137 398 
Q 2709 -91 1959 -91 
Q 1206 -91 779 398 
Q 353 888 353 1747 
Q 353 2609 779 3096 
Q 1206 3584 1959 3584 
z
" transform="scale(0.015625)"/>
       <path id="DejaVuSans-67" d="M 2906 1791 
Q 2906 2416 2648 2759 
Q 2391 3103 1925 3103 
Q 1463 3103 1205 2759 
Q 947 2416 947 1791 
Q 947 1169 1205 825 
Q 1463 481 1925 481 
Q 2391 481 2648 825 
Q 2906 1169 2906 1791 
z
M 3481 434 
Q 3481 -459 3084 -895 
Q 2688 -1331 1869 -1331 
Q 1566 -1331 1297 -1286 
Q 1028 -1241 775 -1147 
L 775 -588 
Q 1028 -725 1275 -790 
Q 1522 -856 1778 -856 
Q 2344 -856 2625 -561 
Q 2906 -266 2906 331 
L 2906 616 
Q 2728 306 2450 153 
Q 2172 0 1784 0 
Q 1141 0 747 490 
Q 353 981 353 1791 
Q 353 2603 747 3093 
Q 1141 3584 1784 3584 
Q 2172 3584 2450 3431 
Q 2728 3278 2906 2969 
L 2906 3500 
L 3481 3500 
L 3481 434 
z
" transform="scale(0.015625)"/>
       <path id="DejaVuSans-31" d="M 794 531 
L 1825 531 
L 1825 4091 
L 703 3866 
L 703 4441 
L 1819 4666 
L 2450 4666 
L 2450 531 
L 3481 531 
L 3481 0 
L 794 0 
L 794 531 
z
" transform="scale(0.015625)"/>
       <path id="DejaVuSans-28" d="M 1984 4856 
Q 1566 4138 1362 3434 
Q 1159 2731 1159 2009 
Q 1159 1288 1364 580 
Q 1569 -128 1984 -844 
L 1484 -844 
Q 1016 -109 783 600 
Q 550 1309 550 2009 
Q 550 2706 781 3412 
Q 1013 4119 1484 4856 
L 1984 4856 
z
" transform="scale(0.015625)"/>
       <path id="DejaVuSans-23" d="M 3272 2816 
L 2363 2816 
L 2100 1772 
L 3016 1772 
L 3272 2816 
z
M 2803 4594 
L 2478 3297 
L 3391 3297 
L 3719 4594 
L 4219 4594 
L 3897 3297 
L 4872 3297 
L 4872 2816 
L 3775 2816 
L 3519 1772 
L 4513 1772 
L 4513 1294 
L 3397 1294 
L 3072 0 
L 2572 0 
L 2894 1294 
L 1978 1294 
L 1656 0 
L 1153 0 
L 1478 1294 
L 494 1294 
L 494 1772 
L 1594 1772 
L 1856 2816 
L 850 2816 
L 850 3297 
L 1978 3297 
L 2297 4594 
L 2803 4594 
z
" transform="scale(0.015625)"/>
       <path id="DejaVuSans-20" transform="scale(0.015625)"/>
       <path id="DejaVuSans-66" d="M 2375 4863 
L 2375 4384 
L 1825 4384 
Q 1516 4384 1395 4259 
Q 1275 4134 1275 3809 
L 1275 3500 
L 2222 3500 
L 2222 3053 
L 1275 3053 
L 1275 0 
L 697 0 
L 697 3053 
L 147 3053 
L 147 3500 
L 697 3500 
L 697 3744 
Q 697 4328 969 4595 
Q 1241 4863 1831 4863 
L 2375 4863 
z
" transform="scale(0.015625)"/>
       <path id="DejaVuSans-2d" d="M 313 2009 
L 1997 2009 
L 1997 1497 
L 313 1497 
L 313 2009 
z
" transform="scale(0.015625)"/>
       <path id="DejaVuSans-65" d="M 3597 1894 
L 3597 1613 
L 953 1613 
Q 991 1019 1311 708 
Q 1631 397 2203 397 
Q 2534 397 2845 478 
Q 3156 559 3463 722 
L 3463 178 
Q 3153 47 2828 -22 
Q 2503 -91 2169 -91 
Q 1331 -91 842 396 
Q 353 884 353 1716 
Q 353 2575 817 3079 
Q 1281 3584 2069 3584 
Q 2775 3584 3186 3129 
Q 3597 2675 3597 1894 
z
M 3022 2063 
Q 3016 2534 2758 2815 
Q 2500 3097 2075 3097 
Q 1594 3097 1305 2825 
Q 1016 2553 972 2059 
L 3022 2063 
z
" transform="scale(0.015625)"/>
       <path id="DejaVuSans-76" d="M 191 3500 
L 800 3500 
L 1894 563 
L 2988 3500 
L 3597 3500 
L 2284 0 
L 1503 0 
L 191 3500 
z
" transform="scale(0.015625)"/>
       <path id="DejaVuSans-61" d="M 2194 1759 
Q 1497 1759 1228 1600 
Q 959 1441 959 1056 
Q 959 750 1161 570 
Q 1363 391 1709 391 
Q 2188 391 2477 730 
Q 2766 1069 2766 1631 
L 2766 1759 
L 2194 1759 
z
M 3341 1997 
L 3341 0 
L 2766 0 
L 2766 531 
Q 2569 213 2275 61 
Q 1981 -91 1556 -91 
Q 1019 -91 701 211 
Q 384 513 384 1019 
Q 384 1609 779 1909 
Q 1175 2209 1959 2209 
L 2766 2209 
L 2766 2266 
Q 2766 2663 2505 2880 
Q 2244 3097 1772 3097 
Q 1472 3097 1187 3025 
Q 903 2953 641 2809 
L 641 3341 
Q 956 3463 1253 3523 
Q 1550 3584 1831 3584 
Q 2591 3584 2966 3190 
Q 3341 2797 3341 1997 
z
" transform="scale(0.015625)"/>
       <path id="DejaVuSans-73" d="M 2834 3397 
L 2834 2853 
Q 2591 2978 2328 3040 
Q 2066 3103 1784 3103 
Q 1356 3103 1142 2972 
Q 928 2841 928 2578 
Q 928 2378 1081 2264 
Q 1234 2150 1697 2047 
L 1894 2003 
Q 2506 1872 2764 1633 
Q 3022 1394 3022 966 
Q 3022 478 2636 193 
Q 2250 -91 1575 -91 
Q 1294 -91 989 -36 
Q 684 19 347 128 
L 347 722 
Q 666 556 975 473 
Q 1284 391 1588 391 
Q 1994 391 2212 530 
Q 2431 669 2431 922 
Q 2431 1156 2273 1281 
Q 2116 1406 1581 1522 
L 1381 1569 
Q 847 1681 609 1914 
Q 372 2147 372 2553 
Q 372 3047 722 3315 
Q 1072 3584 1716 3584 
Q 2034 3584 2315 3537 
Q 2597 3491 2834 3397 
z
" transform="scale(0.015625)"/>
       <path id="DejaVuSans-2f" d="M 1625 4666 
L 2156 4666 
L 531 -594 
L 0 -594 
L 1625 4666 
z
" transform="scale(0.015625)"/>
       <path id="DejaVuSans-64" d="M 2906 2969 
L 2906 4863 
L 3481 4863 
L 3481 0 
L 2906 0 
L 2906 525 
Q 2725 213 2448 61 
Q 2172 -91 1784 -91 
Q 1150 -91 751 415 
Q 353 922 353 1747 
Q 353 2572 751 3078 
Q 1150 3584 1784 3584 
Q 2172 3584 2448 3432 
Q 2725 3281 2906 2969 
z
M 947 1747 
Q 947 1113 1208 752 
Q 1469 391 1925 391 
Q 2381 391 2643 752 
Q 2906 1113 2906 1747 
Q 2906 2381 2643 2742 
Q 2381 3103 1925 3103 
Q 1469 3103 1208 2742 
Q 947 2381 947 1747 
z
" transform="scale(0.015625)"/>
       <path id="DejaVuSans-69" d="M 603 3500 
L 1178 3500 
L 1178 0 
L 603 0 
L 603 3500 
z
M 603 4863 
L 1178 4863 
L 1178 4134 
L 603 4134 
L 603 4863 
z
" transform="scale(0.015625)"/>
       <path id="DejaVuSans-6d" d="M 3328 2828 
Q 3544 3216 3844 3400 
Q 4144 3584 4550 3584 
Q 5097 3584 5394 3201 
Q 5691 2819 5691 2113 
L 5691 0 
L 5113 0 
L 5113 2094 
Q 5113 2597 4934 2840 
Q 4756 3084 4391 3084 
Q 3944 3084 3684 2787 
Q 3425 2491 3425 1978 
L 3425 0 
L 2847 0 
L 2847 2094 
Q 2847 2600 2669 2842 
Q 2491 3084 2119 3084 
Q 1678 3084 1418 2786 
Q 1159 2488 1159 1978 
L 1159 0 
L 581 0 
L 581 3500 
L 1159 3500 
L 1159 2956 
Q 1356 3278 1631 3431 
Q 1906 3584 2284 3584 
Q 2666 3584 2933 3390 
Q 3200 3197 3328 2828 
z
" transform="scale(0.015625)"/>
       <path id="DejaVuSans-6e" d="M 3513 2113 
L 3513 0 
L 2938 0 
L 2938 2094 
Q 2938 2591 2744 2837 
Q 2550 3084 2163 3084 
Q 1697 3084 1428 2787 
Q 1159 2491 1159 1978 
L 1159 0 
L 581 0 
L 581 3500 
L 1159 3500 
L 1159 2956 
Q 1366 3272 1645 3428 
Q 1925 3584 2291 3584 
Q 2894 3584 3203 3211 
Q 3513 2838 3513 2113 
z
" transform="scale(0.015625)"/>
       <path id="DejaVuSans-29" d="M 513 4856 
L 1013 4856 
Q 1481 4119 1714 3412 
Q 1947 2706 1947 2009 
Q 1947 1309 1714 600 
Q 1481 -109 1013 -844 
L 513 -844 
Q 928 -128 1133 580 
Q 1338 1288 1338 2009 
Q 1338 2731 1133 3434 
Q 928 4138 513 4856 
z
" transform="scale(0.015625)"/>
      </defs>
      <use xlink:href="#DejaVuSans-6c"/>
      <use xlink:href="#DejaVuSans-6f" x="27.783203"/>
      <use xlink:href="#DejaVuSans-67" x="88.964844"/>
      <use xlink:href="#DejaVuSans-31" x="152.441406"/>
      <use xlink:href="#DejaVuSans-30" x="216.064453"/>
      <use xlink:href="#DejaVuSans-28" x="279.6875"/>
      <use xlink:href="#DejaVuSans-23" x="318.701172"/>
      <use xlink:href="#DejaVuSans-20" x="402.490234"/>
      <use xlink:href="#DejaVuSans-66" x="434.277344"/>
      <use xlink:href="#DejaVuSans-2d" x="463.982422"/>
      <use xlink:href="#DejaVuSans-65" x="500.066406"/>
      <use xlink:href="#DejaVuSans-76" x="561.589844"/>
      <use xlink:href="#DejaVuSans-61" x="620.769531"/>
      <use xlink:href="#DejaVuSans-6c" x="682.048828"/>
      <use xlink:href="#DejaVuSans-73" x="709.832031"/>
      <use xlink:href="#DejaVuSans-20" x="761.931641"/>
      <use xlink:href="#DejaVuSans-2f" x="793.71875"/>
      <use xlink:href="#DejaVuSans-20" x="827.410156"/>
      <use xlink:href="#DejaVuSans-64" x="859.197266"/>
      <use xlink:href="#DejaVuSans-69" x="922.673828"/>
      <use xlink:href="#DejaVuSans-6d" x="950.457031"/>
      <use xlink:href="#DejaVuSans-65" x="1047.869141"/>
      <use xlink:href="#DejaVuSans-6e" x="1109.392578"/>
      <use xlink:href="#DejaVuSans-73" x="1172.771484"/>
      <use xlink:href="#DejaVuSans-69" x="1224.871094"/>
      <use xlink:href="#DejaVuSans-6f" x="1252.654297"/>
      <use xlink:href="#DejaVuSans-6e" x="1313.835938"/>
      <use xlink:href="#DejaVuSans-29" x="1377.214844"/>
     </g>
    </g>
   </g>
   <g id="matplotlib.axis_2">
    <g id="ytick_1">
     <g id="line2d_17">
      <path d="M 57.6 298.944 
L 360.8064 298.944 
" clip-path="url(#pecbbd68cab)" style="fill: none; stroke: #b0b0b0; stroke-width: 0.8; stroke-linecap: square"/>
     </g>
     <g id="line2d_18">
      <defs>
       <path id="mae4db89aa7" d="M 0 0 
L -3.5 0 
" style="stroke: #000000; stroke-width: 0.8"/>
      </defs>
      <g>
       <use xlink:href="#mae4db89aa7" x="57.6" y="298.944" style="stroke: #000000; stroke-width: 0.8"/>
      </g>
     </g>
     <g id="text_6">
      <!-- 0.0 -->
      <g transform="translate(25.155 305.02275)scale(0.16 -0.16)">
       <defs>
        <path id="DejaVuSans-2e" d="M 684 794 
L 1344 794 
L 1344 0 
L 684 0 
L 684 794 
z
" transform="scale(0.015625)"/>
       </defs>
       <use xlink:href="#DejaVuSans-30"/>
       <use xlink:href="#DejaVuSans-2e" x="63.623047"/>
       <use xlink:href="#DejaVuSans-30" x="95.410156"/>
      </g>
     </g>
    </g>
    <g id="ytick_2">
     <g id="line2d_19">
      <path d="M 57.6 240.5376 
L 360.8064 240.5376 
" clip-path="url(#pecbbd68cab)" style="fill: none; stroke: #b0b0b0; stroke-width: 0.8; stroke-linecap: square"/>
     </g>
     <g id="line2d_20">
      <g>
       <use xlink:href="#mae4db89aa7" x="57.6" y="240.5376" style="stroke: #000000; stroke-width: 0.8"/>
      </g>
     </g>
     <g id="text_7">
      <!-- 0.2 -->
      <g transform="translate(25.155 246.61635)scale(0.16 -0.16)">
       <use xlink:href="#DejaVuSans-30"/>
       <use xlink:href="#DejaVuSans-2e" x="63.623047"/>
       <use xlink:href="#DejaVuSans-32" x="95.410156"/>
      </g>
     </g>
    </g>
    <g id="ytick_3">
     <g id="line2d_21">
      <path d="M 57.6 182.1312 
L 360.8064 182.1312 
" clip-path="url(#pecbbd68cab)" style="fill: none; stroke: #b0b0b0; stroke-width: 0.8; stroke-linecap: square"/>
     </g>
     <g id="line2d_22">
      <g>
       <use xlink:href="#mae4db89aa7" x="57.6" y="182.1312" style="stroke: #000000; stroke-width: 0.8"/>
      </g>
     </g>
     <g id="text_8">
      <!-- 0.4 -->
      <g transform="translate(25.155 188.20995)scale(0.16 -0.16)">
       <use xlink:href="#DejaVuSans-30"/>
       <use xlink:href="#DejaVuSans-2e" x="63.623047"/>
       <use xlink:href="#DejaVuSans-34" x="95.410156"/>
      </g>
     </g>
    </g>
    <g id="ytick_4">
     <g id="line2d_23">
      <path d="M 57.6 123.7248 
L 360.8064 123.7248 
" clip-path="url(#pecbbd68cab)" style="fill: none; stroke: #b0b0b0; stroke-width: 0.8; stroke-linecap: square"/>
     </g>
     <g id="line2d_24">
      <g>
       <use xlink:href="#mae4db89aa7" x="57.6" y="123.7248" style="stroke: #000000; stroke-width: 0.8"/>
      </g>
     </g>
     <g id="text_9">
      <!-- 0.6 -->
      <g transform="translate(25.155 129.80355)scale(0.16 -0.16)">
       <use xlink:href="#DejaVuSans-30"/>
       <use xlink:href="#DejaVuSans-2e" x="63.623047"/>
       <use xlink:href="#DejaVuSans-36" x="95.410156"/>
      </g>
     </g>
    </g>
    <g id="ytick_5">
     <g id="line2d_25">
      <path d="M 57.6 65.3184 
L 360.8064 65.3184 
" clip-path="url(#pecbbd68cab)" style="fill: none; stroke: #b0b0b0; stroke-width: 0.8; stroke-linecap: square"/>
     </g>
     <g id="line2d_26">
      <g>
       <use xlink:href="#mae4db89aa7" x="57.6" y="65.3184" style="stroke: #000000; stroke-width: 0.8"/>
      </g>
     </g>
     <g id="text_10">
      <!-- 0.8 -->
      <g transform="translate(25.155 71.39715)scale(0.16 -0.16)">
       <defs>
        <path id="DejaVuSans-38" d="M 2034 2216 
Q 1584 2216 1326 1975 
Q 1069 1734 1069 1313 
Q 1069 891 1326 650 
Q 1584 409 2034 409 
Q 2484 409 2743 651 
Q 3003 894 3003 1313 
Q 3003 1734 2745 1975 
Q 2488 2216 2034 2216 
z
M 1403 2484 
Q 997 2584 770 2862 
Q 544 3141 544 3541 
Q 544 4100 942 4425 
Q 1341 4750 2034 4750 
Q 2731 4750 3128 4425 
Q 3525 4100 3525 3541 
Q 3525 3141 3298 2862 
Q 3072 2584 2669 2484 
Q 3125 2378 3379 2068 
Q 3634 1759 3634 1313 
Q 3634 634 3220 271 
Q 2806 -91 2034 -91 
Q 1263 -91 848 271 
Q 434 634 434 1313 
Q 434 1759 690 2068 
Q 947 2378 1403 2484 
z
M 1172 3481 
Q 1172 3119 1398 2916 
Q 1625 2713 2034 2713 
Q 2441 2713 2670 2916 
Q 2900 3119 2900 3481 
Q 2900 3844 2670 4047 
Q 2441 4250 2034 4250 
Q 1625 4250 1398 4047 
Q 1172 3844 1172 3481 
z
" transform="scale(0.015625)"/>
       </defs>
       <use xlink:href="#DejaVuSans-30"/>
       <use xlink:href="#DejaVuSans-2e" x="63.623047"/>
       <use xlink:href="#DejaVuSans-38" x="95.410156"/>
      </g>
     </g>
    </g>
    <g id="ytick_6">
     <g id="line2d_27">
      <path d="M 57.6 6.912 
L 360.8064 6.912 
" clip-path="url(#pecbbd68cab)" style="fill: none; stroke: #b0b0b0; stroke-width: 0.8; stroke-linecap: square"/>
     </g>
     <g id="line2d_28">
      <g>
       <use xlink:href="#mae4db89aa7" x="57.6" y="6.912" style="stroke: #000000; stroke-width: 0.8"/>
      </g>
     </g>
     <g id="text_11">
      <!-- 1.0 -->
      <g transform="translate(25.155 12.99075)scale(0.16 -0.16)">
       <use xlink:href="#DejaVuSans-31"/>
       <use xlink:href="#DejaVuSans-2e" x="63.623047"/>
       <use xlink:href="#DejaVuSans-30" x="95.410156"/>
      </g>
     </g>
    </g>
    <g id="text_12">
     <!-- Fraction of function,target pairs -->
     <g transform="translate(17.619531 287.313)rotate(-90)scale(0.17 -0.17)">
      <defs>
       <path id="DejaVuSans-46" d="M 628 4666 
L 3309 4666 
L 3309 4134 
L 1259 4134 
L 1259 2759 
L 3109 2759 
L 3109 2228 
L 1259 2228 
L 1259 0 
L 628 0 
L 628 4666 
z
" transform="scale(0.015625)"/>
       <path id="DejaVuSans-72" d="M 2631 2963 
Q 2534 3019 2420 3045 
Q 2306 3072 2169 3072 
Q 1681 3072 1420 2755 
Q 1159 2438 1159 1844 
L 1159 0 
L 581 0 
L 581 3500 
L 1159 3500 
L 1159 2956 
Q 1341 3275 1631 3429 
Q 1922 3584 2338 3584 
Q 2397 3584 2469 3576 
Q 2541 3569 2628 3553 
L 2631 2963 
z
" transform="scale(0.015625)"/>
       <path id="DejaVuSans-63" d="M 3122 3366 
L 3122 2828 
Q 2878 2963 2633 3030 
Q 2388 3097 2138 3097 
Q 1578 3097 1268 2742 
Q 959 2388 959 1747 
Q 959 1106 1268 751 
Q 1578 397 2138 397 
Q 2388 397 2633 464 
Q 2878 531 3122 666 
L 3122 134 
Q 2881 22 2623 -34 
Q 2366 -91 2075 -91 
Q 1284 -91 818 406 
Q 353 903 353 1747 
Q 353 2603 823 3093 
Q 1294 3584 2113 3584 
Q 2378 3584 2631 3529 
Q 2884 3475 3122 3366 
z
" transform="scale(0.015625)"/>
       <path id="DejaVuSans-74" d="M 1172 4494 
L 1172 3500 
L 2356 3500 
L 2356 3053 
L 1172 3053 
L 1172 1153 
Q 1172 725 1289 603 
Q 1406 481 1766 481 
L 2356 481 
L 2356 0 
L 1766 0 
Q 1100 0 847 248 
Q 594 497 594 1153 
L 594 3053 
L 172 3053 
L 172 3500 
L 594 3500 
L 594 4494 
L 1172 4494 
z
" transform="scale(0.015625)"/>
       <path id="DejaVuSans-75" d="M 544 1381 
L 544 3500 
L 1119 3500 
L 1119 1403 
Q 1119 906 1312 657 
Q 1506 409 1894 409 
Q 2359 409 2629 706 
Q 2900 1003 2900 1516 
L 2900 3500 
L 3475 3500 
L 3475 0 
L 2900 0 
L 2900 538 
Q 2691 219 2414 64 
Q 2138 -91 1772 -91 
Q 1169 -91 856 284 
Q 544 659 544 1381 
z
M 1991 3584 
L 1991 3584 
z
" transform="scale(0.015625)"/>
       <path id="DejaVuSans-2c" d="M 750 794 
L 1409 794 
L 1409 256 
L 897 -744 
L 494 -744 
L 750 256 
L 750 794 
z
" transform="scale(0.015625)"/>
       <path id="DejaVuSans-70" d="M 1159 525 
L 1159 -1331 
L 581 -1331 
L 581 3500 
L 1159 3500 
L 1159 2969 
Q 1341 3281 1617 3432 
Q 1894 3584 2278 3584 
Q 2916 3584 3314 3078 
Q 3713 2572 3713 1747 
Q 3713 922 3314 415 
Q 2916 -91 2278 -91 
Q 1894 -91 1617 61 
Q 1341 213 1159 525 
z
M 3116 1747 
Q 3116 2381 2855 2742 
Q 2594 3103 2138 3103 
Q 1681 3103 1420 2742 
Q 1159 2381 1159 1747 
Q 1159 1113 1420 752 
Q 1681 391 2138 391 
Q 2594 391 2855 752 
Q 3116 1113 3116 1747 
z
" transform="scale(0.015625)"/>
      </defs>
      <use xlink:href="#DejaVuSans-46"/>
      <use xlink:href="#DejaVuSans-72" x="50.269531"/>
      <use xlink:href="#DejaVuSans-61" x="91.382812"/>
      <use xlink:href="#DejaVuSans-63" x="152.662109"/>
      <use xlink:href="#DejaVuSans-74" x="207.642578"/>
      <use xlink:href="#DejaVuSans-69" x="246.851562"/>
      <use xlink:href="#DejaVuSans-6f" x="274.634766"/>
      <use xlink:href="#DejaVuSans-6e" x="335.816406"/>
      <use xlink:href="#DejaVuSans-20" x="399.195312"/>
      <use xlink:href="#DejaVuSans-6f" x="430.982422"/>
      <use xlink:href="#DejaVuSans-66" x="492.164062"/>
      <use xlink:href="#DejaVuSans-20" x="527.369141"/>
      <use xlink:href="#DejaVuSans-66" x="559.15625"/>
      <use xlink:href="#DejaVuSans-75" x="594.361328"/>
      <use xlink:href="#DejaVuSans-6e" x="657.740234"/>
      <use xlink:href="#DejaVuSans-63" x="721.119141"/>
      <use xlink:href="#DejaVuSans-74" x="776.099609"/>
      <use xlink:href="#DejaVuSans-69" x="815.308594"/>
      <use xlink:href="#DejaVuSans-6f" x="843.091797"/>
      <use xlink:href="#DejaVuSans-6e" x="904.273438"/>
      <use xlink:href="#DejaVuSans-2c" x="967.652344"/>
      <use xlink:href="#DejaVuSans-74" x="999.439453"/>
      <use xlink:href="#DejaVuSans-61" x="1038.648438"/>
      <use xlink:href="#DejaVuSans-72" x="1099.927734"/>
      <use xlink:href="#DejaVuSans-67" x="1139.291016"/>
      <use xlink:href="#DejaVuSans-65" x="1202.767578"/>
      <use xlink:href="#DejaVuSans-74" x="1264.291016"/>
      <use xlink:href="#DejaVuSans-20" x="1303.5"/>
      <use xlink:href="#DejaVuSans-70" x="1335.287109"/>
      <use xlink:href="#DejaVuSans-61" x="1398.763672"/>
      <use xlink:href="#DejaVuSans-69" x="1460.042969"/>
      <use xlink:href="#DejaVuSans-72" x="1487.826172"/>
      <use xlink:href="#DejaVuSans-73" x="1528.939453"/>
     </g>
    </g>
   </g>
   <g id="line2d_29">
    <defs>
     <path id="m0d93338254" d="M 0 1.5 
C 0.397805 1.5 0.77937 1.341951 1.06066 1.06066 
C 1.341951 0.77937 1.5 0.397805 1.5 0 
C 1.5 -0.397805 1.341951 -0.77937 1.06066 -1.06066 
C 0.77937 -1.341951 0.397805 -1.5 0 -1.5 
C -0.397805 -1.5 -0.77937 -1.341951 -1.06066 -1.06066 
C -1.341951 -0.77937 -1.5 -0.397805 -1.5 0 
C -1.5 0.397805 -1.341951 0.77937 -1.06066 1.06066 
C -0.77937 1.341951 -0.397805 1.5 0 1.5 
z
" style="stroke: #00bfbf"/>
    </defs>
    <g>
     <use xlink:href="#m0d93338254" x="205.025425" y="191.949517" style="fill: #00bfbf; stroke: #00bfbf"/>
     <use xlink:href="#m0d93338254" x="205.025425" y="191.949517" style="fill: #00bfbf; stroke: #00bfbf"/>
    </g>
   </g>
   <g id="line2d_30">
    <path d="M 44.560826 298.944 
L 44.560826 294.034841 
L 65.227428 294.034841 
L 65.227428 293.531338 
L 70.639174 293.531338 
L 70.639174 292.020828 
L 74.836851 292.020828 
L 74.836851 291.769076 
L 78.266603 291.769076 
L 78.266603 291.265572 
L 83.678349 291.265572 
L 83.678349 291.139697 
L 87.876026 291.139697 
L 87.876026 291.013821 
L 91.305777 291.013821 
L 91.305777 290.762069 
L 92.811505 290.762069 
L 92.811505 290.636193 
L 94.205591 290.636193 
L 94.205591 289.125683 
L 95.503454 289.125683 
L 95.503454 286.356414 
L 96.717523 286.356414 
L 96.717523 285.475283 
L 97.857967 285.475283 
L 97.857967 284.845903 
L 98.933205 284.845903 
L 98.933205 283.838897 
L 99.950294 283.838897 
L 99.950294 282.957766 
L 100.9152 282.957766 
L 100.9152 282.580138 
L 102.708132 282.580138 
L 102.708132 282.454262 
L 104.344952 282.454262 
L 104.344952 282.20251 
L 106.560633 282.20251 
L 106.560633 280.692 
L 107.244765 280.692 
L 107.244765 280.566124 
L 108.542628 280.566124 
L 108.542628 280.062621 
L 109.159456 280.062621 
L 109.159456 279.307366 
L 109.756698 279.307366 
L 109.756698 277.167476 
L 110.335561 277.167476 
L 110.335561 276.915724 
L 111.442442 276.915724 
L 111.442442 276.160469 
L 111.97238 276.160469 
L 111.97238 275.656966 
L 112.487797 275.656966 
L 112.487797 274.90171 
L 113.478107 274.90171 
L 113.478107 273.139448 
L 113.954374 273.139448 
L 113.954374 272.887697 
L 115.314838 272.887697 
L 115.314838 272.761821 
L 116.170056 272.761821 
L 116.170056 272.635945 
L 116.988079 272.635945 
L 116.988079 272.384193 
L 119.944983 272.384193 
L 119.944983 269.866676 
L 121.265635 269.866676 
L 121.265635 269.614924 
L 121.892744 269.614924 
L 121.892744 269.489048 
L 122.19863 269.489048 
L 122.19863 269.363172 
L 123.657621 269.363172 
L 123.657621 268.859669 
L 124.210942 268.859669 
L 124.210942 268.607917 
L 124.748451 268.607917 
L 124.748451 268.356166 
L 125.271028 268.356166 
L 125.271028 267.223283 
L 125.526971 267.223283 
L 125.526971 267.097407 
L 126.517282 267.097407 
L 126.517282 266.468028 
L 126.993549 266.468028 
L 126.993549 265.838648 
L 127.227236 265.838648 
L 127.227236 265.712772 
L 127.911368 265.712772 
L 127.911368 265.461021 
L 128.786481 265.461021 
L 128.786481 264.705766 
L 129.209231 264.705766 
L 129.209231 264.57989 
L 130.226319 264.57989 
L 130.226319 263.572883 
L 130.4233 263.572883 
L 130.4233 262.062372 
L 130.618241 262.062372 
L 130.618241 260.803614 
L 131.191226 260.803614 
L 131.191226 260.677738 
L 131.929028 260.677738 
L 131.929028 260.30011 
L 132.812362 260.30011 
L 132.812362 259.796607 
L 134.77709 259.796607 
L 134.77709 259.544855 
L 135.687504 259.544855 
L 135.687504 258.915476 
L 136.126705 258.915476 
L 136.126705 258.663724 
L 136.97549 258.663724 
L 136.97549 258.537848 
L 137.38594 258.537848 
L 137.38594 258.286097 
L 138.050729 258.286097 
L 138.050729 257.782593 
L 138.438609 257.782593 
L 138.438609 257.656717 
L 139.796097 257.656717 
L 139.796097 257.404966 
L 140.26641 257.404966 
L 140.26641 257.153214 
L 140.838234 257.153214 
L 140.838234 256.901462 
L 141.393187 256.901462 
L 141.50224 256.523834 
L 141.610664 256.523834 
L 141.610664 255.894455 
L 142.038218 255.894455 
L 142.038218 255.768579 
L 142.352625 255.768579 
L 142.45627 255.390952 
L 143.364242 255.390952 
L 143.364242 255.013324 
L 143.657415 255.013324 
L 143.657415 254.761572 
L 144.324223 254.761572 
L 144.324223 252.118179 
L 144.510478 252.118179 
L 144.510478 249.97829 
L 144.786447 249.97829 
L 144.786447 249.474786 
L 145.326529 249.474786 
L 145.326529 248.341903 
L 145.503164 248.341903 
L 145.503164 248.216028 
L 145.678157 248.216028 
L 145.678157 248.090152 
L 145.851536 248.090152 
L 145.851536 247.8384 
L 146.023332 247.8384 
L 146.023332 247.586648 
L 146.362288 247.586648 
L 146.362288 247.334897 
L 146.529503 247.334897 
L 146.529503 247.083145 
L 146.695245 247.083145 
L 146.695245 246.957269 
L 146.941151 246.957269 
L 146.941151 246.831393 
L 147.103321 246.831393 
L 147.103321 246.705517 
L 147.343984 246.705517 
L 147.343984 246.076138 
L 147.893838 246.076138 
L 147.893838 245.69851 
L 148.124658 245.69851 
L 148.124658 245.572634 
L 148.726679 245.572634 
L 148.726679 244.943255 
L 148.874221 244.943255 
L 148.874221 244.691503 
L 149.875833 244.691503 
L 149.875833 244.439752 
L 150.014665 244.439752 
L 150.014665 244.188 
L 151.089903 244.188 
L 151.089903 243.936248 
L 151.349377 243.936248 
L 151.349377 243.180993 
L 151.857828 243.180993 
L 151.857828 243.055117 
L 152.953957 243.055117 
L 152.953957 242.551614 
L 153.189104 242.551614 
L 153.189104 242.173986 
L 153.650761 242.173986 
L 153.707679 241.041103 
L 153.821002 241.041103 
L 153.821002 240.915228 
L 154.212341 240.915228 
L 154.212341 239.782345 
L 154.432362 239.782345 
L 154.541415 239.530593 
L 154.757642 239.530593 
L 154.757642 239.278841 
L 156.205398 239.278841 
L 156.255099 238.901214 
L 157.175281 238.901214 
L 157.175281 238.775338 
L 157.779907 238.775338 
L 157.779907 238.271834 
L 157.916719 238.271834 
L 157.916719 238.145959 
L 158.58624 238.145959 
L 158.58624 238.020083 
L 159.14782 238.020083 
L 159.232748 237.642455 
L 159.816746 237.642455 
L 159.816746 237.390703 
L 160.020999 237.390703 
L 160.020999 237.013076 
L 161.163832 237.013076 
L 161.202028 236.761324 
L 161.354042 236.761324 
L 161.354042 236.509572 
L 162.023298 236.509572 
L 162.023298 236.257821 
L 162.277267 236.257821 
L 162.31327 235.37669 
L 162.456597 235.37669 
L 162.456597 235.124938 
L 162.810208 235.124938 
L 162.880139 234.243807 
L 163.328465 234.243807 
L 163.362513 233.614428 
L 163.498092 233.614428 
L 163.498092 233.488552 
L 163.699647 233.488552 
L 163.699647 233.362676 
L 163.832826 233.362676 
L 163.832826 233.110924 
L 163.997986 233.110924 
L 163.997986 232.733297 
L 164.580835 232.733297 
L 164.580835 232.481545 
L 165.021997 232.481545 
L 165.021997 232.229793 
L 165.17708 232.229793 
L 165.17708 231.978041 
L 165.695002 231.978041 
L 165.695002 231.852166 
L 166.228279 231.852166 
L 166.228279 231.600414 
L 166.8036 231.600414 
L 166.8036 231.474538 
L 167.361848 231.474538 
L 167.361848 231.09691 
L 167.580589 231.09691 
L 167.580589 230.845159 
L 168.378936 230.845159 
L 168.404973 229.334648 
L 168.534619 229.334648 
L 168.534619 228.957021 
L 168.994082 228.957021 
L 168.994082 228.831145 
L 169.343842 228.831145 
L 169.343842 228.705269 
L 170.00055 228.705269 
L 170.00055 228.327641 
L 170.238073 228.327641 
L 170.238073 228.201766 
L 170.449309 228.201766 
L 170.449309 227.950014 
L 170.6582 227.950014 
L 170.681267 227.572386 
L 170.93316 227.572386 
L 170.93316 227.320634 
L 171.248949 227.320634 
L 171.248949 227.068883 
L 171.47131 227.068883 
L 171.515469 226.817131 
L 171.951446 226.817131 
L 172.037442 225.558372 
L 172.670177 225.558372 
L 172.752956 225.180745 
L 172.85592 225.180745 
L 172.896949 224.803117 
L 172.99913 224.803117 
L 172.99913 224.677241 
L 173.422332 224.677241 
L 173.48202 224.047862 
L 173.60083 224.047862 
L 173.60083 223.921986 
L 173.797195 223.921986 
L 173.797195 223.670234 
L 174.145567 223.670234 
L 174.145567 223.418483 
L 174.355328 223.418483 
L 174.355328 223.292607 
L 174.525228 223.292607 
L 174.618958 222.663228 
L 174.860492 222.663228 
L 174.860492 222.537352 
L 175.15357 222.537352 
L 175.15357 222.2856 
L 175.954182 222.2856 
L 176.041072 221.782097 
L 176.093013 221.782097 
L 176.093013 221.530345 
L 176.33353 221.530345 
L 176.33353 221.404469 
L 176.469599 221.404469 
L 176.469599 221.026841 
L 176.971271 221.026841 
L 176.971271 220.900966 
L 177.1192 220.900966 
L 177.1192 220.649214 
L 177.379346 220.649214 
L 177.379346 218.761076 
L 177.667774 218.761076 
L 177.667774 218.383448 
L 177.889089 218.383448 
L 177.920494 218.005821 
L 178.123358 218.005821 
L 178.123358 217.879945 
L 179.135545 217.879945 
L 179.135545 217.754069 
L 179.470823 217.754069 
L 179.470823 217.502317 
L 179.913468 217.502317 
L 179.997952 216.872938 
L 180.55168 216.872938 
L 180.55168 216.747062 
L 180.674054 216.747062 
L 180.674054 216.49531 
L 180.889661 216.49531 
L 180.969881 215.488303 
L 181.208509 215.488303 
L 181.208509 215.236552 
L 181.894052 215.236552 
L 181.894052 214.9848 
L 182.058457 214.9848 
L 182.058457 214.607172 
L 182.750681 214.607172 
L 182.750681 214.481297 
L 183.003836 214.481297 
L 183.003836 214.355421 
L 183.66272 214.355421 
L 183.66272 214.103669 
L 183.90397 214.103669 
L 183.938184 213.600166 
L 184.565667 213.600166 
L 184.565667 212.970786 
L 185.033667 212.970786 
L 185.033667 212.84491 
L 185.204877 212.84491 
L 185.204877 212.719034 
L 185.458805 212.719034 
L 185.479812 212.341407 
L 185.688599 212.341407 
L 185.79213 211.837903 
L 185.884824 211.837903 
L 185.936123 211.3344 
L 186.271237 211.3344 
L 186.271237 211.082648 
L 186.718797 211.082648 
L 186.718797 210.705021 
L 186.953212 210.705021 
L 187.021036 210.075641 
L 187.289914 210.075641 
L 187.289914 209.949766 
L 187.441851 209.949766 
L 187.441851 209.82389 
L 188.02845 209.82389 
L 188.037615 209.446262 
L 188.346604 209.446262 
L 188.346604 209.19451 
L 188.853493 209.19451 
L 188.853493 208.942759 
L 189.235643 208.942759 
L 189.235643 208.816883 
L 190.059884 208.816883 
L 190.059884 208.691007 
L 190.691041 208.691007 
L 190.786289 208.187503 
L 190.825834 208.187503 
L 190.825834 208.061628 
L 191.045763 208.061628 
L 191.045763 207.684 
L 191.1858 207.684 
L 191.1858 207.432248 
L 191.34787 207.432248 
L 191.439858 206.802869 
L 191.825866 206.802869 
L 191.863287 206.425241 
L 192.174719 206.425241 
L 192.174719 206.17349 
L 192.299324 206.17349 
L 192.379512 205.292359 
L 192.481079 205.292359 
L 192.495544 203.530097 
L 192.603677 203.530097 
L 192.603677 203.152469 
L 192.768284 203.152469 
L 192.768284 203.026593 
L 192.881949 203.026593 
L 192.881949 202.900717 
L 193.0301 202.900717 
L 193.0301 202.774841 
L 193.329865 202.774841 
L 193.343691 202.397214 
L 193.522523 202.397214 
L 193.522523 202.271338 
L 193.962302 202.271338 
L 194.029057 201.767834 
L 194.58711 201.767834 
L 194.58711 201.264331 
L 195.551693 201.264331 
L 195.551693 201.138455 
L 195.88066 201.138455 
L 195.88066 201.012579 
L 196.150471 201.012579 
L 196.150471 200.760828 
L 196.851604 200.760828 
L 196.851604 200.509076 
L 197.310514 200.509076 
L 197.310514 200.3832 
L 197.845738 200.3832 
L 197.845738 200.005572 
L 197.959632 200.005572 
L 198.00284 199.502069 
L 198.083588 199.502069 
L 198.083588 199.376193 
L 198.206732 199.376193 
L 198.206732 199.124441 
L 198.820977 199.124441 
L 198.820977 198.998566 
L 199.624818 198.998566 
L 199.718617 198.746814 
L 199.94379 198.746814 
L 199.972963 198.369186 
L 200.262229 198.369186 
L 200.262229 198.24331 
L 200.864852 198.24331 
L 200.864852 197.991559 
L 201.07679 197.991559 
L 201.154514 197.236303 
L 201.245545 197.236303 
L 201.245545 196.858676 
L 201.45775 196.858676 
L 201.551797 196.355172 
L 201.645376 196.355172 
L 201.663148 195.096414 
L 201.9933 195.096414 
L 201.9933 194.970538 
L 202.850554 194.970538 
L 202.908832 194.59291 
L 203.033111 194.59291 
L 203.033111 194.341159 
L 203.409191 194.341159 
L 203.409191 193.963531 
L 203.654466 193.963531 
L 203.654466 193.585903 
L 204.271423 193.585903 
L 204.271423 193.460028 
L 204.616177 193.460028 
L 204.616177 193.0824 
L 204.831298 193.0824 
L 204.831298 192.830648 
L 204.973357 192.830648 
L 205.025425 191.949517 
L 360.8064 191.949517 
L 360.8064 191.949517 
" style="fill: none; stroke: #00bfbf; stroke-width: 1.5; stroke-linecap: square"/>
   </g>
   <g id="line2d_31">
    <defs>
     <path id="md32bb828b6" d="M -6 0 
L 6 0 
M 0 6 
L 0 -6 
" style="stroke: #00bfbf; stroke-width: 1.5"/>
    </defs>
    <g>
     <use xlink:href="#md32bb828b6" x="135.687504" y="259.544855" style="fill-opacity: 0; stroke: #00bfbf; stroke-width: 1.5"/>
     <use xlink:href="#md32bb828b6" x="170.238073" y="228.327641" style="fill-opacity: 0; stroke: #00bfbf; stroke-width: 1.5"/>
     <use xlink:href="#md32bb828b6" x="205.025425" y="192.201269" style="fill-opacity: 0; stroke: #00bfbf; stroke-width: 1.5"/>
     <use xlink:href="#md32bb828b6" x="205.025425" y="191.949517" style="fill-opacity: 0; stroke: #00bfbf; stroke-width: 1.5"/>
     <use xlink:href="#md32bb828b6" x="205.025425" y="191.949517" style="fill-opacity: 0; stroke: #00bfbf; stroke-width: 1.5"/>
     <use xlink:href="#md32bb828b6" x="360.8064" y="191.949517" style="fill-opacity: 0; stroke: #00bfbf; stroke-width: 1.5"/>
    </g>
   </g>
   <g id="line2d_32">
    <path style="fill: none; stroke: #00bfbf; stroke-width: 1.5; stroke-linecap: square"/>
    <g/>
   </g>
   <g id="line2d_33">
    <path d="M 205.158657 191.949517 
" clip-path="url(#pecbbd68cab)" style="fill: none; stroke: #00bfbf; stroke-width: 1.5; stroke-linecap: square"/>
    <defs>
     <path id="m4233cb4c62" d="M -12 12 
L 12 -12 
M -12 -12 
L 12 12 
" style="stroke: #00bfbf"/>
    </defs>
    <g clip-path="url(#pecbbd68cab)">
     <use xlink:href="#m4233cb4c62" x="205.158657" y="191.949517" style="fill: #00bfbf; stroke: #00bfbf"/>
    </g>
   </g>
   <g id="line2d_34">
    <defs>
     <path id="m1a9bca5fe4" d="M 0 1.5 
C 0.397805 1.5 0.77937 1.341951 1.06066 1.06066 
C 1.341951 0.77937 1.5 0.397805 1.5 0 
C 1.5 -0.397805 1.341951 -0.77937 1.06066 -1.06066 
C 0.77937 -1.341951 0.397805 -1.5 0 -1.5 
C -0.397805 -1.5 -0.77937 -1.341951 -1.06066 -1.06066 
C -1.341951 -0.77937 -1.5 -0.397805 -1.5 0 
C -1.5 0.397805 -1.341951 0.77937 -1.06066 1.06066 
C -0.77937 1.341951 -0.397805 1.5 0 1.5 
z
" style="stroke: #008000"/>
    </defs>
    <g>
     <use xlink:href="#m1a9bca5fe4" x="197.494315" y="222.663228" style="fill: #008000; stroke: #008000"/>
     <use xlink:href="#m1a9bca5fe4" x="197.494315" y="222.663228" style="fill: #008000; stroke: #008000"/>
    </g>
   </g>
   <g id="line2d_35">
    <path d="M 36.933397 298.944 
L 36.933397 294.538345 
L 49.972572 294.538345 
L 49.972572 294.286593 
L 57.6 294.286593 
L 57.6 294.034841 
L 63.011746 294.034841 
L 63.011746 292.650207 
L 76.050921 292.650207 
L 76.050921 292.398455 
L 78.266603 292.398455 
L 78.266603 292.272579 
L 82.04153 292.272579 
L 82.04153 291.894952 
L 85.184077 291.894952 
L 85.184077 291.769076 
L 93.287772 291.769076 
L 93.287772 291.6432 
L 98.223251 291.6432 
L 98.223251 289.377434 
L 105.36204 289.377434 
L 105.36204 288.999807 
L 107.68741 288.999807 
L 107.68741 288.873931 
L 108.119879 288.873931 
L 108.119879 288.496303 
L 108.956085 288.496303 
L 108.956085 288.244552 
L 109.360651 288.244552 
L 109.360651 287.9928 
L 110.897141 287.9928 
L 110.897141 287.489297 
L 111.262425 287.489297 
L 111.262425 287.111669 
L 111.97238 287.111669 
L 111.97238 286.859917 
L 112.317555 286.859917 
L 112.317555 286.608166 
L 114.571202 286.608166 
L 114.571202 286.48229 
L 115.168444 286.48229 
L 115.168444 286.230538 
L 115.460102 286.230538 
L 115.460102 285.978786 
L 116.583514 285.978786 
L 116.583514 285.349407 
L 117.121023 285.349407 
L 117.121023 284.971779 
L 117.899543 284.971779 
L 117.899543 284.720028 
L 119.599808 284.720028 
L 119.599808 284.3424 
L 120.726585 284.3424 
L 120.726585 284.216524 
L 121.159053 284.216524 
L 121.159053 284.090648 
L 122.399825 284.090648 
L 122.399825 283.713021 
L 124.481616 283.713021 
L 124.481616 283.209517 
L 125.184934 283.209517 
L 125.184934 282.957766 
L 126.028642 282.957766 
L 126.028642 282.706014 
L 126.993549 282.706014 
L 126.993549 282.580138 
L 128.928456 282.580138 
L 128.928456 282.454262 
L 129.348062 282.454262 
L 129.348062 282.076634 
L 130.682774 282.076634 
L 130.682774 281.195503 
L 130.811181 281.195503 
L 130.811181 280.817876 
L 133.434756 280.817876 
L 133.434756 280.692 
L 134.198228 280.692 
L 134.198228 280.440248 
L 135.136394 280.440248 
L 135.136394 280.062621 
L 136.222928 280.062621 
L 136.222928 279.433241 
L 136.413909 279.433241 
L 136.413909 279.307366 
L 136.790153 279.307366 
L 136.790153 278.929738 
L 137.430998 278.929738 
L 137.430998 278.803862 
L 138.224108 278.803862 
L 138.310202 277.545103 
L 138.481218 277.545103 
L 138.566146 276.286345 
L 138.650692 276.286345 
L 138.650692 276.160469 
L 138.818654 276.160469 
L 138.818654 275.027586 
L 138.985129 275.027586 
L 138.985129 274.90171 
L 139.636676 274.90171 
L 139.636676 274.775834 
L 139.954178 274.775834 
L 139.954178 274.649959 
L 140.110942 274.649959 
L 140.110942 274.398207 
L 140.649551 274.398207 
L 140.649551 274.146455 
L 141.246793 274.146455 
L 141.246793 273.894703 
L 141.465959 273.894703 
L 141.465959 273.768828 
L 142.248405 273.768828 
L 142.248405 273.642952 
L 142.525051 273.642952 
L 142.525051 273.3912 
L 142.865233 273.3912 
L 142.865233 273.139448 
L 143.066428 273.139448 
L 143.066428 273.013572 
L 143.199372 273.013572 
L 143.199372 272.635945 
L 143.977892 272.635945 
L 143.977892 272.510069 
L 144.2304 272.510069 
L 144.2304 272.384193 
L 144.355394 272.384193 
L 144.417581 271.125434 
L 144.602918 271.125434 
L 144.602918 270.873683 
L 144.725469 270.873683 
L 144.786447 270.621931 
L 145.0284 270.621931 
L 145.0284 270.496055 
L 146.023332 270.496055 
L 146.023332 270.244303 
L 146.529503 270.244303 
L 146.64016 269.7408 
L 147.183884 269.7408 
L 147.183884 269.363172 
L 147.502732 269.363172 
L 147.502732 269.111421 
L 148.022421 269.111421 
L 148.022421 268.985545 
L 148.726679 268.985545 
L 148.825169 268.733793 
L 149.262102 268.733793 
L 149.262102 268.607917 
L 149.922224 268.607917 
L 150.014665 267.726786 
L 150.060715 267.726786 
L 150.106653 266.845655 
L 150.693856 266.845655 
L 150.738275 266.216276 
L 150.8268 266.216276 
L 150.914911 264.957517 
L 151.046307 264.957517 
L 151.089903 264.076386 
L 151.220087 264.076386 
L 151.220087 263.95051 
L 151.477784 263.95051 
L 151.477784 263.321131 
L 151.94125 263.321131 
L 151.94125 263.195255 
L 152.065693 263.195255 
L 152.065693 262.943503 
L 152.352898 262.943503 
L 152.393571 262.44 
L 152.993353 262.44 
L 152.993353 262.314124 
L 153.726614 262.314124 
L 153.726614 262.188248 
L 154.138425 262.188248 
L 154.24919 261.936497 
L 154.829169 261.936497 
L 154.935952 261.558869 
L 155.495444 261.558869 
L 155.495444 261.307117 
L 155.938089 261.307117 
L 155.938089 260.677738 
L 156.304668 260.677738 
L 156.403417 260.174234 
L 157.703468 260.174234 
L 157.703468 259.796607 
L 157.916719 259.796607 
L 157.916719 259.293103 
L 158.127579 259.293103 
L 158.127579 259.167228 
L 158.483644 259.167228 
L 158.571617 258.663724 
L 158.688279 258.663724 
L 158.688279 258.286097 
L 158.948151 258.286097 
L 158.948151 258.034345 
L 159.457367 258.034345 
L 159.457367 257.656717 
L 159.651731 257.656717 
L 159.651731 257.404966 
L 159.816746 257.404966 
L 159.816746 257.27909 
L 160.223059 257.27909 
L 160.223059 257.153214 
L 160.4627 257.153214 
L 160.568234 255.768579 
L 160.646999 255.768579 
L 160.646999 255.642703 
L 160.777545 255.642703 
L 160.803545 254.635697 
L 160.984551 254.635697 
L 161.010268 254.258069 
L 161.265517 254.258069 
L 161.265517 253.880441 
L 161.442152 253.880441 
L 161.517348 252.873434 
L 162.891769 252.873434 
L 162.891769 252.621683 
L 163.122872 252.621683 
L 163.145827 251.362924 
L 163.260183 251.362924 
L 163.260183 251.237048 
L 163.373849 251.237048 
L 163.373849 250.985297 
L 163.73303 250.985297 
L 163.777449 250.607669 
L 164.194282 250.607669 
L 164.215967 249.97829 
L 164.495618 249.97829 
L 164.495618 249.852414 
L 164.623299 249.852414 
L 164.623299 249.600662 
L 165.042749 249.600662 
L 165.042749 249.34891 
L 165.51383 249.34891 
L 165.614697 248.845407 
L 165.854592 248.845407 
L 165.854592 248.719531 
L 166.130658 248.719531 
L 166.228279 248.341903 
L 166.364103 248.341903 
L 166.364103 248.216028 
L 166.556452 248.216028 
L 166.556452 247.964276 
L 166.841337 247.964276 
L 166.841337 247.712524 
L 167.066179 247.712524 
L 167.066179 247.334897 
L 167.325142 247.334897 
L 167.325142 247.209021 
L 167.544308 247.209021 
L 167.598703 246.831393 
L 167.742992 246.831393 
L 167.742992 246.705517 
L 168.430973 246.705517 
L 168.430973 246.453766 
L 169.111393 246.453766 
L 169.211366 246.202014 
L 169.310811 246.202014 
L 169.310811 245.950262 
L 169.606029 245.950262 
L 169.606029 245.824386 
L 170.635104 245.824386 
L 170.635104 245.69851 
L 170.757955 245.69851 
L 170.757955 245.572634 
L 171.001277 245.572634 
L 171.106748 244.691503 
L 171.944262 244.691503 
L 171.944262 244.565628 
L 172.243656 244.565628 
L 172.243656 244.313876 
L 172.828518 244.313876 
L 172.828518 244.188 
L 173.141258 244.188 
L 173.141258 243.432745 
L 173.315751 243.432745 
L 173.315751 243.306869 
L 174.681186 243.306869 
L 174.73082 242.929241 
L 175.123253 242.929241 
L 175.123253 242.803366 
L 175.388379 242.803366 
L 175.388379 242.67749 
L 175.531433 242.67749 
L 175.531433 242.425738 
L 176.069946 242.425738 
L 176.069946 242.173986 
L 176.469599 242.173986 
L 176.514738 241.922234 
L 176.716533 241.922234 
L 176.716533 241.670483 
L 176.883057 241.670483 
L 176.883057 241.544607 
L 177.004244 241.544607 
L 177.059073 241.292855 
L 177.255141 241.292855 
L 177.255141 240.915228 
L 177.588098 240.915228 
L 177.662473 240.411724 
L 178.318938 240.411724 
L 178.38028 240.159972 
L 178.573221 240.159972 
L 178.573221 239.908221 
L 179.081538 239.908221 
L 179.081538 239.530593 
L 179.499697 239.530593 
L 179.499697 239.278841 
L 180.142567 239.278841 
L 180.142567 239.02709 
L 180.519823 239.02709 
L 180.52893 238.649462 
L 180.655974 238.649462 
L 180.655974 238.271834 
L 180.916439 238.271834 
L 180.978773 237.768331 
L 181.058615 237.768331 
L 181.058615 237.516579 
L 181.348502 237.516579 
L 181.348502 237.390703 
L 181.770864 237.390703 
L 181.770864 237.138952 
L 182.325173 237.138952 
L 182.325173 237.013076 
L 182.481765 237.013076 
L 182.481765 236.761324 
L 182.604477 236.761324 
L 182.604477 236.635448 
L 182.943869 236.635448 
L 182.943869 236.257821 
L 183.14302 236.257821 
L 183.14302 236.006069 
L 183.418335 236.006069 
L 183.527342 235.502566 
L 183.64344 235.502566 
L 183.735804 234.873186 
L 184.123372 234.873186 
L 184.123372 234.74731 
L 184.642651 234.74731 
L 184.722964 234.117931 
L 184.853651 234.117931 
L 184.853651 233.992055 
L 185.91562 233.992055 
L 185.91562 233.866179 
L 186.0858 233.866179 
L 186.0858 233.740303 
L 186.692569 233.740303 
L 186.692569 233.362676 
L 186.84288 233.362676 
L 186.84288 232.985048 
L 187.030705 232.985048 
L 187.030705 232.859172 
L 187.171953 232.859172 
L 187.171953 232.481545 
L 187.331185 232.481545 
L 187.331185 232.355669 
L 187.533055 232.355669 
L 187.608201 231.852166 
L 187.997867 231.852166 
L 187.997867 231.474538 
L 188.355616 231.474538 
L 188.355616 231.09691 
L 189.010767 231.09691 
L 189.010767 230.845159 
L 189.160983 230.845159 
L 189.247103 230.341655 
L 189.621418 230.341655 
L 189.621418 230.089903 
L 189.761282 230.089903 
L 189.761282 229.964028 
L 189.938803 229.964028 
L 189.938803 229.5864 
L 190.283477 229.5864 
L 190.283477 229.208772 
L 190.434661 229.208772 
L 190.434661 228.831145 
L 191.337621 228.831145 
L 191.378582 228.327641 
L 191.597235 228.327641 
L 191.597235 228.07589 
L 191.753307 228.07589 
L 191.753307 227.950014 
L 191.932941 227.950014 
L 191.932941 227.824138 
L 192.06655 227.824138 
L 192.06655 227.44651 
L 192.321227 227.44651 
L 192.321227 227.194759 
L 192.548487 227.194759 
L 192.548487 226.943007 
L 193.088568 226.943007 
L 193.111905 226.691255 
L 193.527086 226.691255 
L 193.586306 226.313628 
L 193.735803 226.313628 
L 193.735803 226.061876 
L 194.026836 226.061876 
L 194.026836 225.936 
L 194.199319 225.936 
L 194.256463 225.558372 
L 194.370235 225.558372 
L 194.370235 225.306621 
L 194.907805 225.306621 
L 194.907805 225.054869 
L 195.210614 225.054869 
L 195.210614 224.928993 
L 195.48397 224.928993 
L 195.48397 224.803117 
L 195.676239 224.803117 
L 195.73719 224.173738 
L 196.035026 224.173738 
L 196.035026 224.047862 
L 196.194076 224.047862 
L 196.304617 223.418483 
L 196.512092 223.418483 
L 196.601421 223.166731 
L 197.087179 223.166731 
L 197.098503 222.789103 
L 197.494315 222.789103 
L 197.494315 222.663228 
L 360.8064 222.663228 
L 360.8064 222.663228 
" style="fill: none; stroke: #008000; stroke-width: 1.5; stroke-linecap: square"/>
   </g>
   <g id="line2d_36">
    <defs>
     <path id="m67ea643e7b" d="M -0 6 
L 6 -6 
L -6 -6 
z
" style="stroke: #008000; stroke-width: 1.5; stroke-linejoin: miter"/>
    </defs>
    <g>
     <use xlink:href="#m67ea643e7b" x="128.928456" y="282.580138" style="fill-opacity: 0; stroke: #008000; stroke-width: 1.5; stroke-linejoin: miter"/>
     <use xlink:href="#m67ea643e7b" x="169.111393" y="246.32789" style="fill-opacity: 0; stroke: #008000; stroke-width: 1.5; stroke-linejoin: miter"/>
     <use xlink:href="#m67ea643e7b" x="197.494315" y="222.789103" style="fill-opacity: 0; stroke: #008000; stroke-width: 1.5; stroke-linejoin: miter"/>
     <use xlink:href="#m67ea643e7b" x="197.494315" y="222.663228" style="fill-opacity: 0; stroke: #008000; stroke-width: 1.5; stroke-linejoin: miter"/>
     <use xlink:href="#m67ea643e7b" x="197.494315" y="222.663228" style="fill-opacity: 0; stroke: #008000; stroke-width: 1.5; stroke-linejoin: miter"/>
     <use xlink:href="#m67ea643e7b" x="360.8064" y="222.663228" style="fill-opacity: 0; stroke: #008000; stroke-width: 1.5; stroke-linejoin: miter"/>
    </g>
   </g>
   <g id="line2d_37">
    <path style="fill: none; stroke: #008000; stroke-width: 1.5; stroke-linecap: square"/>
    <g/>
   </g>
   <g id="line2d_38">
    <path d="M 197.531229 222.663228 
" clip-path="url(#pecbbd68cab)" style="fill: none; stroke: #008000; stroke-width: 1.5; stroke-linecap: square"/>
    <defs>
     <path id="mf2d21824b8" d="M -12 12 
L 12 -12 
M -12 -12 
L 12 12 
" style="stroke: #008000"/>
    </defs>
    <g clip-path="url(#pecbbd68cab)">
     <use xlink:href="#mf2d21824b8" x="197.531229" y="222.663228" style="fill: #008000; stroke: #008000"/>
    </g>
   </g>
   <g id="line2d_39">
    <defs>
     <path id="m74186239e9" d="M 0 1.5 
C 0.397805 1.5 0.77937 1.341951 1.06066 1.06066 
C 1.341951 0.77937 1.5 0.397805 1.5 0 
C 1.5 -0.397805 1.341951 -0.77937 1.06066 -1.06066 
C 0.77937 -1.341951 0.397805 -1.5 0 -1.5 
C -0.397805 -1.5 -0.77937 -1.341951 -1.06066 -1.06066 
C -1.341951 -0.77937 -1.5 -0.397805 -1.5 0 
C -1.5 0.397805 -1.341951 0.77937 -1.06066 1.06066 
C -0.77937 1.341951 -0.397805 1.5 0 1.5 
z
" style="stroke: #0000ff"/>
    </defs>
    <g>
     <use xlink:href="#m74186239e9" x="187.918118" y="257.656717" style="fill: #0000ff; stroke: #0000ff"/>
     <use xlink:href="#m74186239e9" x="187.918118" y="257.656717" style="fill: #0000ff; stroke: #0000ff"/>
    </g>
   </g>
   <g id="line2d_40">
    <path d="M 27.323974 298.944 
L 27.323974 293.78309 
L 47.990577 293.78309 
L 47.990577 293.657214 
L 53.402323 293.657214 
L 53.402323 293.531338 
L 63.929565 293.531338 
L 63.929565 293.405462 
L 75.574654 293.405462 
L 75.574654 293.279586 
L 79.480672 293.279586 
L 79.480672 293.15371 
L 102.362957 293.15371 
L 102.362957 292.650207 
L 104.961779 292.650207 
L 104.961779 292.146703 
L 120.682786 292.146703 
L 120.682786 292.020828 
L 122.439807 292.020828 
L 122.439807 291.894952 
L 131.040128 291.894952 
L 131.040128 291.769076 
L 134.993495 291.769076 
L 134.993495 291.6432 
L 135.776169 291.6432 
L 135.776169 291.517324 
L 135.952253 291.517324 
L 135.952253 291.139697 
L 137.787626 291.139697 
L 137.787626 291.013821 
L 137.945929 291.013821 
L 138.050729 290.762069 
L 139.313723 290.762069 
L 139.313723 290.636193 
L 140.26641 290.636193 
L 140.26641 290.510317 
L 140.49723 290.510317 
L 140.49723 290.384441 
L 140.679868 290.384441 
L 140.679868 290.258566 
L 141.128852 290.258566 
L 141.128852 288.873931 
L 141.393187 288.873931 
L 141.48048 288.622179 
L 142.331827 288.622179 
L 142.331827 288.496303 
L 143.773417 288.496303 
L 143.773417 288.370428 
L 144.895711 288.370428 
L 144.895711 288.244552 
L 145.040416 288.244552 
L 145.148219 287.9928 
L 145.397382 287.9928 
L 145.397382 287.866924 
L 145.851536 287.866924 
L 145.851536 287.363421 
L 147.785146 287.363421 
L 147.878349 286.985793 
L 148.094045 286.985793 
L 148.094045 286.859917 
L 148.367783 286.859917 
L 148.367783 286.734041 
L 148.518156 286.734041 
L 148.518156 286.608166 
L 148.667336 286.608166 
L 148.667336 286.356414 
L 148.874221 286.356414 
L 148.874221 286.230538 
L 149.107908 286.230538 
L 149.107908 286.104662 
L 149.367382 286.104662 
L 149.367382 285.85291 
L 150.906118 285.85291 
L 150.906118 285.727034 
L 151.168122 285.727034 
L 151.168122 285.475283 
L 152.106991 285.475283 
L 152.106991 285.349407 
L 153.071898 285.349407 
L 153.071898 285.223531 
L 153.259079 285.223531 
L 153.305585 284.845903 
L 153.375128 284.845903 
L 153.421349 284.3424 
L 155.598521 284.3424 
L 155.598521 284.216524 
L 155.802997 284.216524 
L 155.843627 283.964772 
L 156.225294 283.964772 
L 156.225294 283.838897 
L 156.88953 283.838897 
L 156.88953 283.335393 
L 157.438121 283.335393 
L 157.438121 283.209517 
L 157.770751 283.209517 
L 157.807349 282.580138 
L 158.25892 282.580138 
L 158.276759 282.20251 
L 158.418868 282.20251 
L 158.418868 281.950759 
L 158.577468 281.950759 
L 158.577468 281.573131 
L 158.752135 281.573131 
L 158.752135 281.321379 
L 159.164837 281.321379 
L 159.164837 281.069628 
L 159.63515 281.069628 
L 159.63515 280.692 
L 160.761927 280.692 
L 160.761927 280.062621 
L 160.994842 280.062621 
L 161.041081 279.055614 
L 162.088932 279.055614 
L 162.088932 278.803862 
L 162.406556 278.803862 
L 162.406556 278.55211 
L 162.676617 278.55211 
L 162.676617 278.426234 
L 162.789177 278.426234 
L 162.789177 278.300359 
L 163.666204 278.300359 
L 163.73303 277.796855 
L 163.839461 277.796855 
L 163.839461 277.670979 
L 165.428682 277.670979 
L 165.428682 277.419228 
L 165.64686 277.419228 
L 165.64686 277.293352 
L 166.216591 277.293352 
L 166.216591 277.167476 
L 166.344759 277.167476 
L 166.39115 276.789848 
L 167.317792 276.789848 
L 167.317792 276.663972 
L 167.460596 276.663972 
L 167.460596 275.279338 
L 167.678199 275.279338 
L 167.699821 275.027586 
L 168.127132 275.027586 
L 168.137692 274.272331 
L 168.337202 274.272331 
L 168.337202 274.146455 
L 168.760648 274.146455 
L 168.760648 274.020579 
L 168.882801 274.020579 
L 168.882801 273.768828 
L 169.373521 273.768828 
L 169.373521 273.3912 
L 170.072123 273.3912 
L 170.072123 273.265324 
L 170.430628 273.265324 
L 170.49593 271.754814 
L 171.289169 271.754814 
L 171.289169 271.628938 
L 171.634182 271.628938 
L 171.634182 270.873683 
L 172.314244 270.873683 
L 172.390182 270.118428 
L 172.549496 270.118428 
L 172.549496 269.992552 
L 172.707472 269.992552 
L 172.707472 269.866676 
L 172.88875 269.866676 
L 172.88875 269.614924 
L 173.141258 269.614924 
L 173.189742 269.363172 
L 174.087951 269.363172 
L 174.087951 269.111421 
L 174.782796 269.111421 
L 174.819834 268.859669 
L 175.65218 268.859669 
L 175.65218 268.356166 
L 175.793249 268.356166 
L 175.793249 268.23029 
L 176.812187 268.23029 
L 176.898524 267.852662 
L 177.961242 267.852662 
L 178.011273 267.349159 
L 178.129566 267.349159 
L 178.129566 267.223283 
L 178.265613 267.223283 
L 178.265613 266.971531 
L 178.419027 266.971531 
L 178.510479 265.964524 
L 179.103159 265.964524 
L 179.103159 265.712772 
L 179.290807 265.712772 
L 179.314132 265.335145 
L 179.453477 265.335145 
L 179.453477 265.083393 
L 180.000761 265.083393 
L 180.000761 264.957517 
L 180.218626 264.957517 
L 180.218626 264.831641 
L 180.733593 264.831641 
L 180.733593 264.705766 
L 180.911087 264.705766 
L 180.911087 264.202262 
L 181.250616 264.202262 
L 181.250616 263.698759 
L 181.438943 263.698759 
L 181.542759 263.195255 
L 181.779386 263.195255 
L 181.860998 262.943503 
L 181.982756 262.943503 
L 182.002973 262.691752 
L 182.213946 262.691752 
L 182.323518 261.810621 
L 183.201566 261.810621 
L 183.29612 261.307117 
L 183.314974 261.307117 
L 183.314974 261.055366 
L 183.52579 261.055366 
L 183.52579 260.803614 
L 183.835357 260.803614 
L 183.835357 260.551862 
L 184.274698 260.551862 
L 184.274698 260.425986 
L 185.315334 260.425986 
L 185.395644 260.048359 
L 185.488208 260.048359 
L 185.488208 259.796607 
L 185.890987 259.796607 
L 185.890987 259.418979 
L 186.111533 259.418979 
L 186.216807 259.167228 
L 186.497342 259.167228 
L 186.497342 259.041352 
L 186.624207 259.041352 
L 186.624207 258.915476 
L 187.466425 258.915476 
L 187.571918 258.034345 
L 187.78486 258.034345 
L 187.78486 257.908469 
L 187.918118 257.908469 
L 187.918118 257.656717 
L 360.8064 257.656717 
L 360.8064 257.656717 
" style="fill: none; stroke: #0000ff; stroke-width: 1.5; stroke-linecap: square"/>
   </g>
   <g id="line2d_41">
    <defs>
     <path id="mc769b9721c" d="M 0 -6 
L -1.347084 -1.854102 
L -5.706339 -1.854102 
L -2.179628 0.708204 
L -3.526712 4.854102 
L -0 2.291796 
L 3.526712 4.854102 
L 2.179628 0.708204 
L 5.706339 -1.854102 
L 1.347084 -1.854102 
z
" style="stroke: #0000ff; stroke-width: 1.5; stroke-linejoin: bevel"/>
    </defs>
    <g>
     <use xlink:href="#mc769b9721c" x="141.48048" y="288.622179" style="fill-opacity: 0; stroke: #0000ff; stroke-width: 1.5; stroke-linejoin: bevel"/>
     <use xlink:href="#mc769b9721c" x="186.624207" y="258.915476" style="fill-opacity: 0; stroke: #0000ff; stroke-width: 1.5; stroke-linejoin: bevel"/>
     <use xlink:href="#mc769b9721c" x="187.918118" y="257.656717" style="fill-opacity: 0; stroke: #0000ff; stroke-width: 1.5; stroke-linejoin: bevel"/>
     <use xlink:href="#mc769b9721c" x="187.918118" y="257.656717" style="fill-opacity: 0; stroke: #0000ff; stroke-width: 1.5; stroke-linejoin: bevel"/>
     <use xlink:href="#mc769b9721c" x="187.918118" y="257.656717" style="fill-opacity: 0; stroke: #0000ff; stroke-width: 1.5; stroke-linejoin: bevel"/>
     <use xlink:href="#mc769b9721c" x="360.8064" y="257.656717" style="fill-opacity: 0; stroke: #0000ff; stroke-width: 1.5; stroke-linejoin: bevel"/>
    </g>
   </g>
   <g id="line2d_42">
    <path style="fill: none; stroke: #0000ff; stroke-width: 1.5; stroke-linecap: square"/>
    <g/>
   </g>
   <g id="line2d_43">
    <path d="M 187.921806 257.656717 
" clip-path="url(#pecbbd68cab)" style="fill: none; stroke: #0000ff; stroke-width: 1.5; stroke-linecap: square"/>
    <defs>
     <path id="m52b220355d" d="M -12 12 
L 12 -12 
M -12 -12 
L 12 12 
" style="stroke: #0000ff"/>
    </defs>
    <g clip-path="url(#pecbbd68cab)">
     <use xlink:href="#m52b220355d" x="187.921806" y="257.656717" style="fill: #0000ff; stroke: #0000ff"/>
    </g>
   </g>
   <g id="line2d_44">
    <defs>
     <path id="md38f04ca17" d="M 0 1.5 
C 0.397805 1.5 0.77937 1.341951 1.06066 1.06066 
C 1.341951 0.77937 1.5 0.397805 1.5 0 
C 1.5 -0.397805 1.341951 -0.77937 1.06066 -1.06066 
C 0.77937 -1.341951 0.397805 -1.5 0 -1.5 
C -0.397805 -1.5 -0.77937 -1.341951 -1.06066 -1.06066 
C -1.341951 -0.77937 -1.5 -0.397805 -1.5 0 
C -1.5 0.397805 -1.341951 0.77937 -1.06066 1.06066 
C -0.77937 1.341951 -0.397805 1.5 0 1.5 
z
" style="stroke: #000000"/>
    </defs>
    <g>
     <use xlink:href="#md38f04ca17" x="173.624503" y="286.230538" style="stroke: #000000"/>
     <use xlink:href="#md38f04ca17" x="173.624503" y="286.230538" style="stroke: #000000"/>
    </g>
   </g>
   <g id="line2d_45">
    <path d="M 14.2848 298.944 
L 14.2848 288.748055 
L 100.535156 288.748055 
L 100.535156 288.622179 
L 122.795872 288.622179 
L 122.795872 288.496303 
L 131.303758 288.496303 
L 131.303758 288.370428 
L 142.538777 288.370428 
L 142.538777 288.118676 
L 144.768174 288.118676 
L 144.768174 287.866924 
L 150.747146 287.866924 
L 150.747146 287.741048 
L 153.060137 287.741048 
L 153.060137 287.615172 
L 155.203786 287.615172 
L 155.203786 287.489297 
L 158.347948 287.489297 
L 158.347948 287.363421 
L 164.915805 287.363421 
L 164.915805 287.237545 
L 168.021211 287.237545 
L 168.021211 287.111669 
L 168.394562 287.111669 
L 168.394562 286.985793 
L 168.867575 286.985793 
L 168.867575 286.734041 
L 171.413749 286.734041 
L 171.413749 286.608166 
L 172.415427 286.608166 
L 172.415427 286.48229 
L 172.545321 286.48229 
L 172.545321 286.356414 
L 173.624503 286.356414 
L 173.624503 286.230538 
L 360.8064 286.230538 
" style="fill: none; stroke: #000000; stroke-width: 1.5; stroke-linecap: square"/>
   </g>
   <g id="line2d_46">
    <defs>
     <path id="m7a6345d274" d="M 0 6 
C 1.591219 6 3.117479 5.367802 4.242641 4.242641 
C 5.367802 3.117479 6 1.591219 6 0 
C 6 -1.591219 5.367802 -3.117479 4.242641 -4.242641 
C 3.117479 -5.367802 1.591219 -6 0 -6 
C -1.591219 -6 -3.117479 -5.367802 -4.242641 -4.242641 
C -5.367802 -3.117479 -6 -1.591219 -6 0 
C -6 1.591219 -5.367802 3.117479 -4.242641 4.242641 
C -3.117479 5.367802 -1.591219 6 0 6 
z
" style="stroke: #000000; stroke-width: 1.5"/>
    </defs>
    <g>
     <use xlink:href="#m7a6345d274" x="100.535156" y="288.748055" style="fill-opacity: 0; stroke: #000000; stroke-width: 1.5"/>
     <use xlink:href="#m7a6345d274" x="173.624503" y="286.356414" style="fill-opacity: 0; stroke: #000000; stroke-width: 1.5"/>
     <use xlink:href="#m7a6345d274" x="173.624503" y="286.230538" style="fill-opacity: 0; stroke: #000000; stroke-width: 1.5"/>
     <use xlink:href="#m7a6345d274" x="173.624503" y="286.230538" style="fill-opacity: 0; stroke: #000000; stroke-width: 1.5"/>
     <use xlink:href="#m7a6345d274" x="173.624503" y="286.230538" style="fill-opacity: 0; stroke: #000000; stroke-width: 1.5"/>
     <use xlink:href="#m7a6345d274" x="360.8064" y="286.230538" style="fill-opacity: 0; stroke: #000000; stroke-width: 1.5"/>
    </g>
   </g>
   <g id="line2d_47">
    <path style="fill: none; stroke: #000000; stroke-width: 1.5; stroke-linecap: square"/>
    <g/>
   </g>
   <g id="line2d_48">
    <path d="M 174.882632 286.230538 
" clip-path="url(#pecbbd68cab)" style="fill: none; stroke: #000000; stroke-width: 1.5; stroke-linecap: square"/>
    <defs>
     <path id="mb081ee9315" d="M -12 12 
L 12 -12 
M -12 -12 
L 12 12 
" style="stroke: #000000"/>
    </defs>
    <g clip-path="url(#pecbbd68cab)">
     <use xlink:href="#mb081ee9315" x="174.882632" y="286.230538" style="stroke: #000000"/>
    </g>
   </g>
   <g id="line2d_49">
    <defs>
     <path id="mea5953daa7" d="M 0 1.5 
C 0.397805 1.5 0.77937 1.341951 1.06066 1.06066 
C 1.341951 0.77937 1.5 0.397805 1.5 0 
C 1.5 -0.397805 1.341951 -0.77937 1.06066 -1.06066 
C 0.77937 -1.341951 0.397805 -1.5 0 -1.5 
C -0.397805 -1.5 -0.77937 -1.341951 -1.06066 -1.06066 
C -1.341951 -0.77937 -1.5 -0.397805 -1.5 0 
C -1.5 0.397805 -1.341951 0.77937 -1.06066 1.06066 
C -0.77937 1.341951 -0.397805 1.5 0 1.5 
z
" style="stroke: #ff0000"/>
    </defs>
    <g>
     <use xlink:href="#mea5953daa7" x="1.245626" y="287.866924" style="fill: #ff0000; stroke: #ff0000"/>
     <use xlink:href="#mea5953daa7" x="1.245626" y="287.866924" style="fill: #ff0000; stroke: #ff0000"/>
    </g>
   </g>
   <g id="line2d_50">
    <path d="M 1.245626 298.944 
L 1.245626 287.866924 
L 360.8064 287.866924 
" style="fill: none; stroke: #ff0000; stroke-width: 1.5; stroke-linecap: square"/>
   </g>
   <g id="line2d_51">
    <defs>
     <path id="mc885269a32" d="M -6 6 
L 6 6 
L 6 -6 
L -6 -6 
z
" style="stroke: #ff0000; stroke-width: 1.5; stroke-linejoin: miter"/>
    </defs>
    <g>
     <use xlink:href="#mc885269a32" x="360.8064" y="287.866924" style="fill-opacity: 0; stroke: #ff0000; stroke-width: 1.5; stroke-linejoin: miter"/>
    </g>
   </g>
   <g id="line2d_52">
    <path style="fill: none; stroke: #ff0000; stroke-width: 1.5; stroke-linecap: square"/>
    <g/>
   </g>
   <g id="line2d_53">
    <path d="M 161.843457 287.866924 
" clip-path="url(#pecbbd68cab)" style="fill: none; stroke: #ff0000; stroke-width: 1.5; stroke-linecap: square"/>
    <defs>
     <path id="m61c4a92cbd" d="M -12 12 
L 12 -12 
M -12 -12 
L 12 12 
" style="stroke: #ff0000"/>
    </defs>
    <g clip-path="url(#pecbbd68cab)">
     <use xlink:href="#m61c4a92cbd" x="161.843457" y="287.866924" style="fill: #ff0000; stroke: #ff0000"/>
    </g>
   </g>
   <g id="line2d_54">
    <defs>
     <path id="m57912cc51d" d="M 0 1.5 
C 0.397805 1.5 0.77937 1.341951 1.06066 1.06066 
C 1.341951 0.77937 1.5 0.397805 1.5 0 
C 1.5 -0.397805 1.341951 -0.77937 1.06066 -1.06066 
C 0.77937 -1.341951 0.397805 -1.5 0 -1.5 
C -0.397805 -1.5 -0.77937 -1.341951 -1.06066 -1.06066 
C -1.341951 -0.77937 -1.5 -0.397805 -1.5 0 
C -1.5 0.397805 -1.341951 0.77937 -1.06066 1.06066 
C -0.77937 1.341951 -0.397805 1.5 0 1.5 
z
" style="stroke: #bf00bf"/>
    </defs>
    <g/>
   </g>
   <g id="line2d_55">
    <path d="M -1 286.104662 
L 360.8064 286.104662 
" style="fill: none; stroke: #bf00bf; stroke-width: 1.5; stroke-linecap: square"/>
   </g>
   <g id="line2d_56">
    <defs>
     <path id="m23aa1cc2ee" d="M 0 8.485281 
L 8.485281 0 
L 0 -8.485281 
L -8.485281 0 
z
" style="stroke: #bf00bf; stroke-width: 1.5; stroke-linejoin: miter"/>
    </defs>
    <g>
     <use xlink:href="#m23aa1cc2ee" x="360.8064" y="286.104662" style="fill-opacity: 0; stroke: #bf00bf; stroke-width: 1.5; stroke-linejoin: miter"/>
    </g>
   </g>
   <g id="line2d_57">
    <path style="fill: none; stroke: #bf00bf; stroke-width: 1.5; stroke-linecap: square"/>
    <g/>
   </g>
   <g id="line2d_58">
    <path d="M 148.804283 286.104662 
" clip-path="url(#pecbbd68cab)" style="fill: none; stroke: #bf00bf; stroke-width: 1.5; stroke-linecap: square"/>
    <defs>
     <path id="mf53c513f35" d="M -12 12 
L 12 -12 
M -12 -12 
L 12 12 
" style="stroke: #bf00bf"/>
    </defs>
    <g clip-path="url(#pecbbd68cab)">
     <use xlink:href="#mf53c513f35" x="148.804283" y="286.104662" style="fill: #bf00bf; stroke: #bf00bf"/>
    </g>
   </g>
   <g id="line2d_59">
    <path d="M 360.8064 287.866924 
L 380.514816 293.10336 
" style="fill: none; stroke: #ff0000; stroke-width: 1.5; stroke-linecap: square"/>
    <g>
     <use xlink:href="#mc885269a32" x="360.8064" y="287.866924" style="fill-opacity: 0; stroke: #ff0000; stroke-width: 1.5; stroke-linejoin: miter"/>
     <use xlink:href="#mc885269a32" x="380.514816" y="293.10336" style="fill-opacity: 0; stroke: #ff0000; stroke-width: 1.5; stroke-linejoin: miter"/>
    </g>
   </g>
   <g id="line2d_60">
    <path d="M 360.8064 286.230538 
L 380.514816 237.033216 
" style="fill: none; stroke: #000000; stroke-width: 1.5; stroke-linecap: square"/>
    <g>
     <use xlink:href="#m7a6345d274" x="360.8064" y="286.230538" style="fill-opacity: 0; stroke: #000000; stroke-width: 1.5"/>
     <use xlink:href="#m7a6345d274" x="380.514816" y="237.033216" style="fill-opacity: 0; stroke: #000000; stroke-width: 1.5"/>
    </g>
   </g>
   <g id="line2d_61">
    <path d="M 360.8064 286.104662 
L 380.514816 180.963072 
" style="fill: none; stroke: #bf00bf; stroke-width: 1.5; stroke-linecap: square"/>
    <g>
     <use xlink:href="#m23aa1cc2ee" x="360.8064" y="286.104662" style="fill-opacity: 0; stroke: #bf00bf; stroke-width: 1.5; stroke-linejoin: miter"/>
     <use xlink:href="#m23aa1cc2ee" x="380.514816" y="180.963072" style="fill-opacity: 0; stroke: #bf00bf; stroke-width: 1.5; stroke-linejoin: miter"/>
    </g>
   </g>
   <g id="line2d_62">
    <path d="M 360.8064 257.656717 
L 380.514816 124.892928 
" style="fill: none; stroke: #0000ff; stroke-width: 1.5; stroke-linecap: square"/>
    <g>
     <use xlink:href="#mc769b9721c" x="360.8064" y="257.656717" style="fill-opacity: 0; stroke: #0000ff; stroke-width: 1.5; stroke-linejoin: bevel"/>
     <use xlink:href="#mc769b9721c" x="380.514816" y="124.892928" style="fill-opacity: 0; stroke: #0000ff; stroke-width: 1.5; stroke-linejoin: bevel"/>
    </g>
   </g>
   <g id="line2d_63">
    <path d="M 360.8064 222.663228 
L 380.514816 68.822784 
" style="fill: none; stroke: #008000; stroke-width: 1.5; stroke-linecap: square"/>
    <g>
     <use xlink:href="#m67ea643e7b" x="360.8064" y="222.663228" style="fill-opacity: 0; stroke: #008000; stroke-width: 1.5; stroke-linejoin: miter"/>
     <use xlink:href="#m67ea643e7b" x="380.514816" y="68.822784" style="fill-opacity: 0; stroke: #008000; stroke-width: 1.5; stroke-linejoin: miter"/>
    </g>
   </g>
   <g id="line2d_64">
    <path d="M 360.8064 191.949517 
L 380.514816 12.75264 
" style="fill: none; stroke: #00bfbf; stroke-width: 1.5; stroke-linecap: square"/>
    <g>
     <use xlink:href="#md32bb828b6" x="360.8064" y="191.949517" style="fill-opacity: 0; stroke: #00bfbf; stroke-width: 1.5"/>
     <use xlink:href="#md32bb828b6" x="380.514816" y="12.75264" style="fill-opacity: 0; stroke: #00bfbf; stroke-width: 1.5"/>
    </g>
   </g>
   <g id="line2d_65">
    <path d="M 360.8064 298.944 
L 360.8064 6.912 
" style="fill: none; stroke: #000000; stroke-width: 1.5; stroke-linecap: square"/>
   </g>
   <g id="patch_3">
    <path d="M 57.6 298.944 
L 360.8064 298.944 
" style="fill: none; stroke: #000000; stroke-width: 0.8; stroke-linejoin: miter; stroke-linecap: square"/>
   </g>
   <g id="patch_4">
    <path d="M 57.6 6.912 
L 360.8064 6.912 
" style="fill: none; stroke: #000000; stroke-width: 0.8; stroke-linejoin: miter; stroke-linecap: square"/>
   </g>
   <g id="text_13">
    <!-- 20-D -->
    <g transform="translate(386.578944 296.966485)scale(0.14 -0.14)">
     <defs>
      <path id="DejaVuSans-44" d="M 1259 4147 
L 1259 519 
L 2022 519 
Q 2988 519 3436 956 
Q 3884 1394 3884 2338 
Q 3884 3275 3436 3711 
Q 2988 4147 2022 4147 
L 1259 4147 
z
M 628 4666 
L 1925 4666 
Q 3281 4666 3915 4102 
Q 4550 3538 4550 2338 
Q 4550 1131 3912 565 
Q 3275 0 1925 0 
L 628 0 
L 628 4666 
z
" transform="scale(0.015625)"/>
     </defs>
     <use xlink:href="#DejaVuSans-32"/>
     <use xlink:href="#DejaVuSans-30" x="63.623047"/>
     <use xlink:href="#DejaVuSans-2d" x="127.246094"/>
     <use xlink:href="#DejaVuSans-44" x="163.330078"/>
    </g>
   </g>
   <g id="text_14">
    <!-- 10-D -->
    <g transform="translate(386.578944 240.896341)scale(0.14 -0.14)">
     <use xlink:href="#DejaVuSans-31"/>
     <use xlink:href="#DejaVuSans-30" x="63.623047"/>
     <use xlink:href="#DejaVuSans-2d" x="127.246094"/>
     <use xlink:href="#DejaVuSans-44" x="163.330078"/>
    </g>
   </g>
   <g id="text_15">
    <!-- 40-D -->
    <g transform="translate(386.578944 184.826197)scale(0.14 -0.14)">
     <use xlink:href="#DejaVuSans-34"/>
     <use xlink:href="#DejaVuSans-30" x="63.623047"/>
     <use xlink:href="#DejaVuSans-2d" x="127.246094"/>
     <use xlink:href="#DejaVuSans-44" x="163.330078"/>
    </g>
   </g>
   <g id="text_16">
    <!-- 5-D -->
    <g transform="translate(386.578944 128.756053)scale(0.14 -0.14)">
     <defs>
      <path id="DejaVuSans-35" d="M 691 4666 
L 3169 4666 
L 3169 4134 
L 1269 4134 
L 1269 2991 
Q 1406 3038 1543 3061 
Q 1681 3084 1819 3084 
Q 2600 3084 3056 2656 
Q 3513 2228 3513 1497 
Q 3513 744 3044 326 
Q 2575 -91 1722 -91 
Q 1428 -91 1123 -41 
Q 819 9 494 109 
L 494 744 
Q 775 591 1075 516 
Q 1375 441 1709 441 
Q 2250 441 2565 725 
Q 2881 1009 2881 1497 
Q 2881 1984 2565 2268 
Q 2250 2553 1709 2553 
Q 1456 2553 1204 2497 
Q 953 2441 691 2322 
L 691 4666 
z
" transform="scale(0.015625)"/>
     </defs>
     <use xlink:href="#DejaVuSans-35"/>
     <use xlink:href="#DejaVuSans-2d" x="63.623047"/>
     <use xlink:href="#DejaVuSans-44" x="99.707031"/>
    </g>
   </g>
   <g id="text_17">
    <!-- 3-D -->
    <g transform="translate(386.578944 72.685909)scale(0.14 -0.14)">
     <defs>
      <path id="DejaVuSans-33" d="M 2597 2516 
Q 3050 2419 3304 2112 
Q 3559 1806 3559 1356 
Q 3559 666 3084 287 
Q 2609 -91 1734 -91 
Q 1441 -91 1130 -33 
Q 819 25 488 141 
L 488 750 
Q 750 597 1062 519 
Q 1375 441 1716 441 
Q 2309 441 2620 675 
Q 2931 909 2931 1356 
Q 2931 1769 2642 2001 
Q 2353 2234 1838 2234 
L 1294 2234 
L 1294 2753 
L 1863 2753 
Q 2328 2753 2575 2939 
Q 2822 3125 2822 3475 
Q 2822 3834 2567 4026 
Q 2313 4219 1838 4219 
Q 1578 4219 1281 4162 
Q 984 4106 628 3988 
L 628 4550 
Q 988 4650 1302 4700 
Q 1616 4750 1894 4750 
Q 2613 4750 3031 4423 
Q 3450 4097 3450 3541 
Q 3450 3153 3228 2886 
Q 3006 2619 2597 2516 
z
" transform="scale(0.015625)"/>
     </defs>
     <use xlink:href="#DejaVuSans-33"/>
     <use xlink:href="#DejaVuSans-2d" x="63.623047"/>
     <use xlink:href="#DejaVuSans-44" x="99.707031"/>
    </g>
   </g>
   <g id="text_18">
    <!-- 2-D -->
    <g transform="translate(386.578944 16.615765)scale(0.14 -0.14)">
     <use xlink:href="#DejaVuSans-32"/>
     <use xlink:href="#DejaVuSans-2d" x="63.623047"/>
     <use xlink:href="#DejaVuSans-44" x="99.707031"/>
    </g>
   </g>
   <g id="text_19">
    <!-- bbob-biobj f26, f27, f33, f34 -->
    <g transform="translate(60.632064 17.582726)scale(0.102 -0.102)">
     <defs>
      <path id="DejaVuSans-62" d="M 3116 1747 
Q 3116 2381 2855 2742 
Q 2594 3103 2138 3103 
Q 1681 3103 1420 2742 
Q 1159 2381 1159 1747 
Q 1159 1113 1420 752 
Q 1681 391 2138 391 
Q 2594 391 2855 752 
Q 3116 1113 3116 1747 
z
M 1159 2969 
Q 1341 3281 1617 3432 
Q 1894 3584 2278 3584 
Q 2916 3584 3314 3078 
Q 3713 2572 3713 1747 
Q 3713 922 3314 415 
Q 2916 -91 2278 -91 
Q 1894 -91 1617 61 
Q 1341 213 1159 525 
L 1159 0 
L 581 0 
L 581 4863 
L 1159 4863 
L 1159 2969 
z
" transform="scale(0.015625)"/>
      <path id="DejaVuSans-6a" d="M 603 3500 
L 1178 3500 
L 1178 -63 
Q 1178 -731 923 -1031 
Q 669 -1331 103 -1331 
L -116 -1331 
L -116 -844 
L 38 -844 
Q 366 -844 484 -692 
Q 603 -541 603 -63 
L 603 3500 
z
M 603 4863 
L 1178 4863 
L 1178 4134 
L 603 4134 
L 603 4863 
z
" transform="scale(0.015625)"/>
      <path id="DejaVuSans-37" d="M 525 4666 
L 3525 4666 
L 3525 4397 
L 1831 0 
L 1172 0 
L 2766 4134 
L 525 4134 
L 525 4666 
z
" transform="scale(0.015625)"/>
     </defs>
     <use xlink:href="#DejaVuSans-62"/>
     <use xlink:href="#DejaVuSans-62" x="63.476562"/>
     <use xlink:href="#DejaVuSans-6f" x="126.953125"/>
     <use xlink:href="#DejaVuSans-62" x="188.134766"/>
     <use xlink:href="#DejaVuSans-2d" x="251.611328"/>
     <use xlink:href="#DejaVuSans-62" x="287.695312"/>
     <use xlink:href="#DejaVuSans-69" x="351.171875"/>
     <use xlink:href="#DejaVuSans-6f" x="378.955078"/>
     <use xlink:href="#DejaVuSans-62" x="440.136719"/>
     <use xlink:href="#DejaVuSans-6a" x="503.613281"/>
     <use xlink:href="#DejaVuSans-20" x="531.396484"/>
     <use xlink:href="#DejaVuSans-66" x="563.183594"/>
     <use xlink:href="#DejaVuSans-32" x="598.388672"/>
     <use xlink:href="#DejaVuSans-36" x="662.011719"/>
     <use xlink:href="#DejaVuSans-2c" x="725.634766"/>
     <use xlink:href="#DejaVuSans-20" x="757.421875"/>
     <use xlink:href="#DejaVuSans-66" x="789.208984"/>
     <use xlink:href="#DejaVuSans-32" x="824.414062"/>
     <use xlink:href="#DejaVuSans-37" x="888.037109"/>
     <use xlink:href="#DejaVuSans-2c" x="951.660156"/>
     <use xlink:href="#DejaVuSans-20" x="983.447266"/>
     <use xlink:href="#DejaVuSans-66" x="1015.234375"/>
     <use xlink:href="#DejaVuSans-33" x="1050.439453"/>
     <use xlink:href="#DejaVuSans-33" x="1114.0625"/>
     <use xlink:href="#DejaVuSans-2c" x="1177.685547"/>
     <use xlink:href="#DejaVuSans-20" x="1209.472656"/>
     <use xlink:href="#DejaVuSans-66" x="1241.259766"/>
     <use xlink:href="#DejaVuSans-33" x="1276.464844"/>
     <use xlink:href="#DejaVuSans-34" x="1340.087891"/>
    </g>
    <!-- 58 targets: 1..-1.0e-4 -->
    <g transform="translate(60.632064 29.004495)scale(0.102 -0.102)">
     <defs>
      <path id="DejaVuSans-3a" d="M 750 794 
L 1409 794 
L 1409 0 
L 750 0 
L 750 794 
z
M 750 3309 
L 1409 3309 
L 1409 2516 
L 750 2516 
L 750 3309 
z
" transform="scale(0.015625)"/>
     </defs>
     <use xlink:href="#DejaVuSans-35"/>
     <use xlink:href="#DejaVuSans-38" x="63.623047"/>
     <use xlink:href="#DejaVuSans-20" x="127.246094"/>
     <use xlink:href="#DejaVuSans-74" x="159.033203"/>
     <use xlink:href="#DejaVuSans-61" x="198.242188"/>
     <use xlink:href="#DejaVuSans-72" x="259.521484"/>
     <use xlink:href="#DejaVuSans-67" x="298.884766"/>
     <use xlink:href="#DejaVuSans-65" x="362.361328"/>
     <use xlink:href="#DejaVuSans-74" x="423.884766"/>
     <use xlink:href="#DejaVuSans-73" x="463.09375"/>
     <use xlink:href="#DejaVuSans-3a" x="515.193359"/>
     <use xlink:href="#DejaVuSans-20" x="548.884766"/>
     <use xlink:href="#DejaVuSans-31" x="580.671875"/>
     <use xlink:href="#DejaVuSans-2e" x="644.294922"/>
     <use xlink:href="#DejaVuSans-2e" x="676.082031"/>
     <use xlink:href="#DejaVuSans-2d" x="707.869141"/>
     <use xlink:href="#DejaVuSans-31" x="743.953125"/>
     <use xlink:href="#DejaVuSans-2e" x="807.576172"/>
     <use xlink:href="#DejaVuSans-30" x="839.363281"/>
     <use xlink:href="#DejaVuSans-65" x="902.986328"/>
     <use xlink:href="#DejaVuSans-2d" x="964.509766"/>
     <use xlink:href="#DejaVuSans-34" x="1000.59375"/>
    </g>
    <!-- 10 instances -->
    <g transform="translate(60.632064 40.426264)scale(0.102 -0.102)">
     <use xlink:href="#DejaVuSans-31"/>
     <use xlink:href="#DejaVuSans-30" x="63.623047"/>
     <use xlink:href="#DejaVuSans-20" x="127.246094"/>
     <use xlink:href="#DejaVuSans-69" x="159.033203"/>
     <use xlink:href="#DejaVuSans-6e" x="186.816406"/>
     <use xlink:href="#DejaVuSans-73" x="250.195312"/>
     <use xlink:href="#DejaVuSans-74" x="302.294922"/>
     <use xlink:href="#DejaVuSans-61" x="341.503906"/>
     <use xlink:href="#DejaVuSans-6e" x="402.783203"/>
     <use xlink:href="#DejaVuSans-63" x="466.162109"/>
     <use xlink:href="#DejaVuSans-65" x="521.142578"/>
     <use xlink:href="#DejaVuSans-73" x="582.666016"/>
    </g>
   </g>
   <g id="text_20">
    <!-- v2.6, hv-hash=ff0e71e8cd978373 -->
    <g style="fill: #808080" transform="translate(123.707887 293.943992)scale(0.1 -0.1)">
     <defs>
      <path id="DejaVuSans-68" d="M 3513 2113 
L 3513 0 
L 2938 0 
L 2938 2094 
Q 2938 2591 2744 2837 
Q 2550 3084 2163 3084 
Q 1697 3084 1428 2787 
Q 1159 2491 1159 1978 
L 1159 0 
L 581 0 
L 581 4863 
L 1159 4863 
L 1159 2956 
Q 1366 3272 1645 3428 
Q 1925 3584 2291 3584 
Q 2894 3584 3203 3211 
Q 3513 2838 3513 2113 
z
" transform="scale(0.015625)"/>
      <path id="DejaVuSans-3d" d="M 678 2906 
L 4684 2906 
L 4684 2381 
L 678 2381 
L 678 2906 
z
M 678 1631 
L 4684 1631 
L 4684 1100 
L 678 1100 
L 678 1631 
z
" transform="scale(0.015625)"/>
      <path id="DejaVuSans-39" d="M 703 97 
L 703 672 
Q 941 559 1184 500 
Q 1428 441 1663 441 
Q 2288 441 2617 861 
Q 2947 1281 2994 2138 
Q 2813 1869 2534 1725 
Q 2256 1581 1919 1581 
Q 1219 1581 811 2004 
Q 403 2428 403 3163 
Q 403 3881 828 4315 
Q 1253 4750 1959 4750 
Q 2769 4750 3195 4129 
Q 3622 3509 3622 2328 
Q 3622 1225 3098 567 
Q 2575 -91 1691 -91 
Q 1453 -91 1209 -44 
Q 966 3 703 97 
z
M 1959 2075 
Q 2384 2075 2632 2365 
Q 2881 2656 2881 3163 
Q 2881 3666 2632 3958 
Q 2384 4250 1959 4250 
Q 1534 4250 1286 3958 
Q 1038 3666 1038 3163 
Q 1038 2656 1286 2365 
Q 1534 2075 1959 2075 
z
" transform="scale(0.015625)"/>
     </defs>
     <use xlink:href="#DejaVuSans-76"/>
     <use xlink:href="#DejaVuSans-32" x="59.179688"/>
     <use xlink:href="#DejaVuSans-2e" x="122.802734"/>
     <use xlink:href="#DejaVuSans-36" x="154.589844"/>
     <use xlink:href="#DejaVuSans-2c" x="218.212891"/>
     <use xlink:href="#DejaVuSans-20" x="250"/>
     <use xlink:href="#DejaVuSans-68" x="281.787109"/>
     <use xlink:href="#DejaVuSans-76" x="345.166016"/>
     <use xlink:href="#DejaVuSans-2d" x="401.720703"/>
     <use xlink:href="#DejaVuSans-68" x="437.804688"/>
     <use xlink:href="#DejaVuSans-61" x="501.183594"/>
     <use xlink:href="#DejaVuSans-73" x="562.462891"/>
     <use xlink:href="#DejaVuSans-68" x="614.5625"/>
     <use xlink:href="#DejaVuSans-3d" x="677.941406"/>
     <use xlink:href="#DejaVuSans-66" x="761.730469"/>
     <use xlink:href="#DejaVuSans-66" x="796.935547"/>
     <use xlink:href="#DejaVuSans-30" x="832.140625"/>
     <use xlink:href="#DejaVuSans-65" x="895.763672"/>
     <use xlink:href="#DejaVuSans-37" x="957.287109"/>
     <use xlink:href="#DejaVuSans-31" x="1020.910156"/>
     <use xlink:href="#DejaVuSans-65" x="1084.533203"/>
     <use xlink:href="#DejaVuSans-38" x="1146.056641"/>
     <use xlink:href="#DejaVuSans-63" x="1209.679688"/>
     <use xlink:href="#DejaVuSans-64" x="1264.660156"/>
     <use xlink:href="#DejaVuSans-39" x="1328.136719"/>
     <use xlink:href="#DejaVuSans-37" x="1391.759766"/>
     <use xlink:href="#DejaVuSans-38" x="1455.382812"/>
     <use xlink:href="#DejaVuSans-33" x="1519.005859"/>
     <use xlink:href="#DejaVuSans-37" x="1582.628906"/>
     <use xlink:href="#DejaVuSans-33" x="1646.251953"/>
    </g>
   </g>
  </g>
 </g>
 <defs>
  <clipPath id="pecbbd68cab">
   <rect x="57.6" y="6.912" width="303.2064" height="292.032"/>
  </clipPath>
 </defs>
</svg>
