<?xml version="1.0" encoding="utf-8" standalone="no"?>
<!DOCTYPE svg PUBLIC "-//W3C//DTD SVG 1.1//EN"
  "http://www.w3.org/Graphics/SVG/1.1/DTD/svg11.dtd">
<svg xmlns:xlink="http://www.w3.org/1999/xlink" width="460.8pt" height="345.6pt" viewBox="0 0 460.8 345.6" xmlns="http://www.w3.org/2000/svg" version="1.1">
 <metadata>
  <rdf:RDF xmlns:dc="http://purl.org/dc/elements/1.1/" xmlns:cc="http://creativecommons.org/ns#" xmlns:rdf="http://www.w3.org/1999/02/22-rdf-syntax-ns#">
   <cc:Work>
    <dc:type rdf:resource="http://purl.org/dc/dcmitype/StillImage"/>
    <dc:date>2022-06-19T17:22:30.661468</dc:date>
    <dc:format>image/svg+xml</dc:format>
    <dc:creator>
     <cc:Agent>
      <dc:title>Matplotlib v3.5.2, https://matplotlib.org/</dc:title>
     </cc:Agent>
    </dc:creator>
   </cc:Work>
  </rdf:RDF>
 </metadata>
 <defs>
  <style type="text/css">*{stroke-linejoin: round; stroke-linecap: butt}</style>
 </defs>
 <g id="figure_1">
  <g id="patch_1">
   <path d="M 0 345.6 
L 460.8 345.6 
L 460.8 0 
L 0 0 
z
" style="fill: #ffffff"/>
  </g>
  <g id="axes_1">
   <g id="patch_2">
    <path d="M 57.6 298.944 
L 360.8064 298.944 
L 360.8064 6.912 
L 57.6 6.912 
z
" style="fill: #ffffff"/>
   </g>
   <g id="matplotlib.axis_1">
    <g id="xtick_1">
     <g id="line2d_1">
      <path d="M 57.6 298.944 
L 57.6 6.912 
" clip-path="url(#pb609a63e8e)" style="fill: none; stroke: #b0b0b0; stroke-width: 0.8; stroke-linecap: square"/>
     </g>
     <g id="line2d_2">
      <defs>
       <path id="mfc094f6310" d="M 0 0 
L 0 3.5 
" style="stroke: #000000; stroke-width: 0.8"/>
      </defs>
      <g>
       <use xlink:href="#mfc094f6310" x="57.6" y="298.944" style="stroke: #000000; stroke-width: 0.8"/>
      </g>
     </g>
     <g id="text_1">
      <!-- 0 -->
      <g transform="translate(52.191875 318.861344)scale(0.17 -0.17)">
       <defs>
        <path id="DejaVuSans-30" d="M 2034 4250 
Q 1547 4250 1301 3770 
Q 1056 3291 1056 2328 
Q 1056 1369 1301 889 
Q 1547 409 2034 409 
Q 2525 409 2770 889 
Q 3016 1369 3016 2328 
Q 3016 3291 2770 3770 
Q 2525 4250 2034 4250 
z
M 2034 4750 
Q 2819 4750 3233 4129 
Q 3647 3509 3647 2328 
Q 3647 1150 3233 529 
Q 2819 -91 2034 -91 
Q 1250 -91 836 529 
Q 422 1150 422 2328 
Q 422 3509 836 4129 
Q 1250 4750 2034 4750 
z
" transform="scale(0.015625)"/>
       </defs>
       <use xlink:href="#DejaVuSans-30"/>
      </g>
     </g>
    </g>
    <g id="xtick_2">
     <g id="line2d_3">
      <path d="M 144.2304 298.944 
L 144.2304 6.912 
" clip-path="url(#pb609a63e8e)" style="fill: none; stroke: #b0b0b0; stroke-width: 0.8; stroke-linecap: square"/>
     </g>
     <g id="line2d_4">
      <g>
       <use xlink:href="#mfc094f6310" x="144.2304" y="298.944" style="stroke: #000000; stroke-width: 0.8"/>
      </g>
     </g>
     <g id="text_2">
      <!-- 2 -->
      <g transform="translate(138.822275 318.861344)scale(0.17 -0.17)">
       <defs>
        <path id="DejaVuSans-32" d="M 1228 531 
L 3431 531 
L 3431 0 
L 469 0 
L 469 531 
Q 828 903 1448 1529 
Q 2069 2156 2228 2338 
Q 2531 2678 2651 2914 
Q 2772 3150 2772 3378 
Q 2772 3750 2511 3984 
Q 2250 4219 1831 4219 
Q 1534 4219 1204 4116 
Q 875 4013 500 3803 
L 500 4441 
Q 881 4594 1212 4672 
Q 1544 4750 1819 4750 
Q 2544 4750 2975 4387 
Q 3406 4025 3406 3419 
Q 3406 3131 3298 2873 
Q 3191 2616 2906 2266 
Q 2828 2175 2409 1742 
Q 1991 1309 1228 531 
z
" transform="scale(0.015625)"/>
       </defs>
       <use xlink:href="#DejaVuSans-32"/>
      </g>
     </g>
    </g>
    <g id="xtick_3">
     <g id="line2d_5">
      <path d="M 230.8608 298.944 
L 230.8608 6.912 
" clip-path="url(#pb609a63e8e)" style="fill: none; stroke: #b0b0b0; stroke-width: 0.8; stroke-linecap: square"/>
     </g>
     <g id="line2d_6">
      <g>
       <use xlink:href="#mfc094f6310" x="230.8608" y="298.944" style="stroke: #000000; stroke-width: 0.8"/>
      </g>
     </g>
     <g id="text_3">
      <!-- 4 -->
      <g transform="translate(225.452675 318.861344)scale(0.17 -0.17)">
       <defs>
        <path id="DejaVuSans-34" d="M 2419 4116 
L 825 1625 
L 2419 1625 
L 2419 4116 
z
M 2253 4666 
L 3047 4666 
L 3047 1625 
L 3713 1625 
L 3713 1100 
L 3047 1100 
L 3047 0 
L 2419 0 
L 2419 1100 
L 313 1100 
L 313 1709 
L 2253 4666 
z
" transform="scale(0.015625)"/>
       </defs>
       <use xlink:href="#DejaVuSans-34"/>
      </g>
     </g>
    </g>
    <g id="xtick_4">
     <g id="line2d_7">
      <path d="M 317.4912 298.944 
L 317.4912 6.912 
" clip-path="url(#pb609a63e8e)" style="fill: none; stroke: #b0b0b0; stroke-width: 0.8; stroke-linecap: square"/>
     </g>
     <g id="line2d_8">
      <g>
       <use xlink:href="#mfc094f6310" x="317.4912" y="298.944" style="stroke: #000000; stroke-width: 0.8"/>
      </g>
     </g>
     <g id="text_4">
      <!-- 6 -->
      <g transform="translate(312.083075 318.861344)scale(0.17 -0.17)">
       <defs>
        <path id="DejaVuSans-36" d="M 2113 2584 
Q 1688 2584 1439 2293 
Q 1191 2003 1191 1497 
Q 1191 994 1439 701 
Q 1688 409 2113 409 
Q 2538 409 2786 701 
Q 3034 994 3034 1497 
Q 3034 2003 2786 2293 
Q 2538 2584 2113 2584 
z
M 3366 4563 
L 3366 3988 
Q 3128 4100 2886 4159 
Q 2644 4219 2406 4219 
Q 1781 4219 1451 3797 
Q 1122 3375 1075 2522 
Q 1259 2794 1537 2939 
Q 1816 3084 2150 3084 
Q 2853 3084 3261 2657 
Q 3669 2231 3669 1497 
Q 3669 778 3244 343 
Q 2819 -91 2113 -91 
Q 1303 -91 875 529 
Q 447 1150 447 2328 
Q 447 3434 972 4092 
Q 1497 4750 2381 4750 
Q 2619 4750 2861 4703 
Q 3103 4656 3366 4563 
z
" transform="scale(0.015625)"/>
       </defs>
       <use xlink:href="#DejaVuSans-36"/>
      </g>
     </g>
    </g>
    <g id="xtick_5">
     <g id="line2d_9">
      <path d="M 100.9152 298.944 
L 100.9152 6.912 
" clip-path="url(#pb609a63e8e)" style="fill: none; stroke: #b0b0b0; stroke-width: 0.8; stroke-linecap: square"/>
     </g>
     <g id="line2d_10">
      <defs>
       <path id="m3b5f46d2e2" d="M 0 0 
L 0 2 
" style="stroke: #000000; stroke-width: 0.6"/>
      </defs>
      <g>
       <use xlink:href="#m3b5f46d2e2" x="100.9152" y="298.944" style="stroke: #000000; stroke-width: 0.6"/>
      </g>
     </g>
    </g>
    <g id="xtick_6">
     <g id="line2d_11">
      <path d="M 187.5456 298.944 
L 187.5456 6.912 
" clip-path="url(#pb609a63e8e)" style="fill: none; stroke: #b0b0b0; stroke-width: 0.8; stroke-linecap: square"/>
     </g>
     <g id="line2d_12">
      <g>
       <use xlink:href="#m3b5f46d2e2" x="187.5456" y="298.944" style="stroke: #000000; stroke-width: 0.6"/>
      </g>
     </g>
    </g>
    <g id="xtick_7">
     <g id="line2d_13">
      <path d="M 274.176 298.944 
L 274.176 6.912 
" clip-path="url(#pb609a63e8e)" style="fill: none; stroke: #b0b0b0; stroke-width: 0.8; stroke-linecap: square"/>
     </g>
     <g id="line2d_14">
      <g>
       <use xlink:href="#m3b5f46d2e2" x="274.176" y="298.944" style="stroke: #000000; stroke-width: 0.6"/>
      </g>
     </g>
    </g>
    <g id="xtick_8">
     <g id="line2d_15">
      <path d="M 360.8064 298.944 
L 360.8064 6.912 
" clip-path="url(#pb609a63e8e)" style="fill: none; stroke: #b0b0b0; stroke-width: 0.8; stroke-linecap: square"/>
     </g>
     <g id="line2d_16">
      <g>
       <use xlink:href="#m3b5f46d2e2" x="360.8064" y="298.944" style="stroke: #000000; stroke-width: 0.6"/>
      </g>
     </g>
    </g>
    <g id="text_5">
     <!-- log10(# f-evals / dimension) -->
     <g transform="translate(88.823278 339.314156)scale(0.17 -0.17)">
      <defs>
       <path id="DejaVuSans-6c" d="M 603 4863 
L 1178 4863 
L 1178 0 
L 603 0 
L 603 4863 
z
" transform="scale(0.015625)"/>
       <path id="DejaVuSans-6f" d="M 1959 3097 
Q 1497 3097 1228 2736 
Q 959 2375 959 1747 
Q 959 1119 1226 758 
Q 1494 397 1959 397 
Q 2419 397 2687 759 
Q 2956 1122 2956 1747 
Q 2956 2369 2687 2733 
Q 2419 3097 1959 3097 
z
M 1959 3584 
Q 2709 3584 3137 3096 
Q 3566 2609 3566 1747 
Q 3566 888 3137 398 
Q 2709 -91 1959 -91 
Q 1206 -91 779 398 
Q 353 888 353 1747 
Q 353 2609 779 3096 
Q 1206 3584 1959 3584 
z
" transform="scale(0.015625)"/>
       <path id="DejaVuSans-67" d="M 2906 1791 
Q 2906 2416 2648 2759 
Q 2391 3103 1925 3103 
Q 1463 3103 1205 2759 
Q 947 2416 947 1791 
Q 947 1169 1205 825 
Q 1463 481 1925 481 
Q 2391 481 2648 825 
Q 2906 1169 2906 1791 
z
M 3481 434 
Q 3481 -459 3084 -895 
Q 2688 -1331 1869 -1331 
Q 1566 -1331 1297 -1286 
Q 1028 -1241 775 -1147 
L 775 -588 
Q 1028 -725 1275 -790 
Q 1522 -856 1778 -856 
Q 2344 -856 2625 -561 
Q 2906 -266 2906 331 
L 2906 616 
Q 2728 306 2450 153 
Q 2172 0 1784 0 
Q 1141 0 747 490 
Q 353 981 353 1791 
Q 353 2603 747 3093 
Q 1141 3584 1784 3584 
Q 2172 3584 2450 3431 
Q 2728 3278 2906 2969 
L 2906 3500 
L 3481 3500 
L 3481 434 
z
" transform="scale(0.015625)"/>
       <path id="DejaVuSans-31" d="M 794 531 
L 1825 531 
L 1825 4091 
L 703 3866 
L 703 4441 
L 1819 4666 
L 2450 4666 
L 2450 531 
L 3481 531 
L 3481 0 
L 794 0 
L 794 531 
z
" transform="scale(0.015625)"/>
       <path id="DejaVuSans-28" d="M 1984 4856 
Q 1566 4138 1362 3434 
Q 1159 2731 1159 2009 
Q 1159 1288 1364 580 
Q 1569 -128 1984 -844 
L 1484 -844 
Q 1016 -109 783 600 
Q 550 1309 550 2009 
Q 550 2706 781 3412 
Q 1013 4119 1484 4856 
L 1984 4856 
z
" transform="scale(0.015625)"/>
       <path id="DejaVuSans-23" d="M 3272 2816 
L 2363 2816 
L 2100 1772 
L 3016 1772 
L 3272 2816 
z
M 2803 4594 
L 2478 3297 
L 3391 3297 
L 3719 4594 
L 4219 4594 
L 3897 3297 
L 4872 3297 
L 4872 2816 
L 3775 2816 
L 3519 1772 
L 4513 1772 
L 4513 1294 
L 3397 1294 
L 3072 0 
L 2572 0 
L 2894 1294 
L 1978 1294 
L 1656 0 
L 1153 0 
L 1478 1294 
L 494 1294 
L 494 1772 
L 1594 1772 
L 1856 2816 
L 850 2816 
L 850 3297 
L 1978 3297 
L 2297 4594 
L 2803 4594 
z
" transform="scale(0.015625)"/>
       <path id="DejaVuSans-20" transform="scale(0.015625)"/>
       <path id="DejaVuSans-66" d="M 2375 4863 
L 2375 4384 
L 1825 4384 
Q 1516 4384 1395 4259 
Q 1275 4134 1275 3809 
L 1275 3500 
L 2222 3500 
L 2222 3053 
L 1275 3053 
L 1275 0 
L 697 0 
L 697 3053 
L 147 3053 
L 147 3500 
L 697 3500 
L 697 3744 
Q 697 4328 969 4595 
Q 1241 4863 1831 4863 
L 2375 4863 
z
" transform="scale(0.015625)"/>
       <path id="DejaVuSans-2d" d="M 313 2009 
L 1997 2009 
L 1997 1497 
L 313 1497 
L 313 2009 
z
" transform="scale(0.015625)"/>
       <path id="DejaVuSans-65" d="M 3597 1894 
L 3597 1613 
L 953 1613 
Q 991 1019 1311 708 
Q 1631 397 2203 397 
Q 2534 397 2845 478 
Q 3156 559 3463 722 
L 3463 178 
Q 3153 47 2828 -22 
Q 2503 -91 2169 -91 
Q 1331 -91 842 396 
Q 353 884 353 1716 
Q 353 2575 817 3079 
Q 1281 3584 2069 3584 
Q 2775 3584 3186 3129 
Q 3597 2675 3597 1894 
z
M 3022 2063 
Q 3016 2534 2758 2815 
Q 2500 3097 2075 3097 
Q 1594 3097 1305 2825 
Q 1016 2553 972 2059 
L 3022 2063 
z
" transform="scale(0.015625)"/>
       <path id="DejaVuSans-76" d="M 191 3500 
L 800 3500 
L 1894 563 
L 2988 3500 
L 3597 3500 
L 2284 0 
L 1503 0 
L 191 3500 
z
" transform="scale(0.015625)"/>
       <path id="DejaVuSans-61" d="M 2194 1759 
Q 1497 1759 1228 1600 
Q 959 1441 959 1056 
Q 959 750 1161 570 
Q 1363 391 1709 391 
Q 2188 391 2477 730 
Q 2766 1069 2766 1631 
L 2766 1759 
L 2194 1759 
z
M 3341 1997 
L 3341 0 
L 2766 0 
L 2766 531 
Q 2569 213 2275 61 
Q 1981 -91 1556 -91 
Q 1019 -91 701 211 
Q 384 513 384 1019 
Q 384 1609 779 1909 
Q 1175 2209 1959 2209 
L 2766 2209 
L 2766 2266 
Q 2766 2663 2505 2880 
Q 2244 3097 1772 3097 
Q 1472 3097 1187 3025 
Q 903 2953 641 2809 
L 641 3341 
Q 956 3463 1253 3523 
Q 1550 3584 1831 3584 
Q 2591 3584 2966 3190 
Q 3341 2797 3341 1997 
z
" transform="scale(0.015625)"/>
       <path id="DejaVuSans-73" d="M 2834 3397 
L 2834 2853 
Q 2591 2978 2328 3040 
Q 2066 3103 1784 3103 
Q 1356 3103 1142 2972 
Q 928 2841 928 2578 
Q 928 2378 1081 2264 
Q 1234 2150 1697 2047 
L 1894 2003 
Q 2506 1872 2764 1633 
Q 3022 1394 3022 966 
Q 3022 478 2636 193 
Q 2250 -91 1575 -91 
Q 1294 -91 989 -36 
Q 684 19 347 128 
L 347 722 
Q 666 556 975 473 
Q 1284 391 1588 391 
Q 1994 391 2212 530 
Q 2431 669 2431 922 
Q 2431 1156 2273 1281 
Q 2116 1406 1581 1522 
L 1381 1569 
Q 847 1681 609 1914 
Q 372 2147 372 2553 
Q 372 3047 722 3315 
Q 1072 3584 1716 3584 
Q 2034 3584 2315 3537 
Q 2597 3491 2834 3397 
z
" transform="scale(0.015625)"/>
       <path id="DejaVuSans-2f" d="M 1625 4666 
L 2156 4666 
L 531 -594 
L 0 -594 
L 1625 4666 
z
" transform="scale(0.015625)"/>
       <path id="DejaVuSans-64" d="M 2906 2969 
L 2906 4863 
L 3481 4863 
L 3481 0 
L 2906 0 
L 2906 525 
Q 2725 213 2448 61 
Q 2172 -91 1784 -91 
Q 1150 -91 751 415 
Q 353 922 353 1747 
Q 353 2572 751 3078 
Q 1150 3584 1784 3584 
Q 2172 3584 2448 3432 
Q 2725 3281 2906 2969 
z
M 947 1747 
Q 947 1113 1208 752 
Q 1469 391 1925 391 
Q 2381 391 2643 752 
Q 2906 1113 2906 1747 
Q 2906 2381 2643 2742 
Q 2381 3103 1925 3103 
Q 1469 3103 1208 2742 
Q 947 2381 947 1747 
z
" transform="scale(0.015625)"/>
       <path id="DejaVuSans-69" d="M 603 3500 
L 1178 3500 
L 1178 0 
L 603 0 
L 603 3500 
z
M 603 4863 
L 1178 4863 
L 1178 4134 
L 603 4134 
L 603 4863 
z
" transform="scale(0.015625)"/>
       <path id="DejaVuSans-6d" d="M 3328 2828 
Q 3544 3216 3844 3400 
Q 4144 3584 4550 3584 
Q 5097 3584 5394 3201 
Q 5691 2819 5691 2113 
L 5691 0 
L 5113 0 
L 5113 2094 
Q 5113 2597 4934 2840 
Q 4756 3084 4391 3084 
Q 3944 3084 3684 2787 
Q 3425 2491 3425 1978 
L 3425 0 
L 2847 0 
L 2847 2094 
Q 2847 2600 2669 2842 
Q 2491 3084 2119 3084 
Q 1678 3084 1418 2786 
Q 1159 2488 1159 1978 
L 1159 0 
L 581 0 
L 581 3500 
L 1159 3500 
L 1159 2956 
Q 1356 3278 1631 3431 
Q 1906 3584 2284 3584 
Q 2666 3584 2933 3390 
Q 3200 3197 3328 2828 
z
" transform="scale(0.015625)"/>
       <path id="DejaVuSans-6e" d="M 3513 2113 
L 3513 0 
L 2938 0 
L 2938 2094 
Q 2938 2591 2744 2837 
Q 2550 3084 2163 3084 
Q 1697 3084 1428 2787 
Q 1159 2491 1159 1978 
L 1159 0 
L 581 0 
L 581 3500 
L 1159 3500 
L 1159 2956 
Q 1366 3272 1645 3428 
Q 1925 3584 2291 3584 
Q 2894 3584 3203 3211 
Q 3513 2838 3513 2113 
z
" transform="scale(0.015625)"/>
       <path id="DejaVuSans-29" d="M 513 4856 
L 1013 4856 
Q 1481 4119 1714 3412 
Q 1947 2706 1947 2009 
Q 1947 1309 1714 600 
Q 1481 -109 1013 -844 
L 513 -844 
Q 928 -128 1133 580 
Q 1338 1288 1338 2009 
Q 1338 2731 1133 3434 
Q 928 4138 513 4856 
z
" transform="scale(0.015625)"/>
      </defs>
      <use xlink:href="#DejaVuSans-6c"/>
      <use xlink:href="#DejaVuSans-6f" x="27.783203"/>
      <use xlink:href="#DejaVuSans-67" x="88.964844"/>
      <use xlink:href="#DejaVuSans-31" x="152.441406"/>
      <use xlink:href="#DejaVuSans-30" x="216.064453"/>
      <use xlink:href="#DejaVuSans-28" x="279.6875"/>
      <use xlink:href="#DejaVuSans-23" x="318.701172"/>
      <use xlink:href="#DejaVuSans-20" x="402.490234"/>
      <use xlink:href="#DejaVuSans-66" x="434.277344"/>
      <use xlink:href="#DejaVuSans-2d" x="463.982422"/>
      <use xlink:href="#DejaVuSans-65" x="500.066406"/>
      <use xlink:href="#DejaVuSans-76" x="561.589844"/>
      <use xlink:href="#DejaVuSans-61" x="620.769531"/>
      <use xlink:href="#DejaVuSans-6c" x="682.048828"/>
      <use xlink:href="#DejaVuSans-73" x="709.832031"/>
      <use xlink:href="#DejaVuSans-20" x="761.931641"/>
      <use xlink:href="#DejaVuSans-2f" x="793.71875"/>
      <use xlink:href="#DejaVuSans-20" x="827.410156"/>
      <use xlink:href="#DejaVuSans-64" x="859.197266"/>
      <use xlink:href="#DejaVuSans-69" x="922.673828"/>
      <use xlink:href="#DejaVuSans-6d" x="950.457031"/>
      <use xlink:href="#DejaVuSans-65" x="1047.869141"/>
      <use xlink:href="#DejaVuSans-6e" x="1109.392578"/>
      <use xlink:href="#DejaVuSans-73" x="1172.771484"/>
      <use xlink:href="#DejaVuSans-69" x="1224.871094"/>
      <use xlink:href="#DejaVuSans-6f" x="1252.654297"/>
      <use xlink:href="#DejaVuSans-6e" x="1313.835938"/>
      <use xlink:href="#DejaVuSans-29" x="1377.214844"/>
     </g>
    </g>
   </g>
   <g id="matplotlib.axis_2">
    <g id="ytick_1">
     <g id="line2d_17">
      <path d="M 57.6 298.944 
L 360.8064 298.944 
" clip-path="url(#pb609a63e8e)" style="fill: none; stroke: #b0b0b0; stroke-width: 0.8; stroke-linecap: square"/>
     </g>
     <g id="line2d_18">
      <defs>
       <path id="m6599c03e2a" d="M 0 0 
L -3.5 0 
" style="stroke: #000000; stroke-width: 0.8"/>
      </defs>
      <g>
       <use xlink:href="#m6599c03e2a" x="57.6" y="298.944" style="stroke: #000000; stroke-width: 0.8"/>
      </g>
     </g>
     <g id="text_6">
      <!-- 0.0 -->
      <g transform="translate(25.155 305.02275)scale(0.16 -0.16)">
       <defs>
        <path id="DejaVuSans-2e" d="M 684 794 
L 1344 794 
L 1344 0 
L 684 0 
L 684 794 
z
" transform="scale(0.015625)"/>
       </defs>
       <use xlink:href="#DejaVuSans-30"/>
       <use xlink:href="#DejaVuSans-2e" x="63.623047"/>
       <use xlink:href="#DejaVuSans-30" x="95.410156"/>
      </g>
     </g>
    </g>
    <g id="ytick_2">
     <g id="line2d_19">
      <path d="M 57.6 240.5376 
L 360.8064 240.5376 
" clip-path="url(#pb609a63e8e)" style="fill: none; stroke: #b0b0b0; stroke-width: 0.8; stroke-linecap: square"/>
     </g>
     <g id="line2d_20">
      <g>
       <use xlink:href="#m6599c03e2a" x="57.6" y="240.5376" style="stroke: #000000; stroke-width: 0.8"/>
      </g>
     </g>
     <g id="text_7">
      <!-- 0.2 -->
      <g transform="translate(25.155 246.61635)scale(0.16 -0.16)">
       <use xlink:href="#DejaVuSans-30"/>
       <use xlink:href="#DejaVuSans-2e" x="63.623047"/>
       <use xlink:href="#DejaVuSans-32" x="95.410156"/>
      </g>
     </g>
    </g>
    <g id="ytick_3">
     <g id="line2d_21">
      <path d="M 57.6 182.1312 
L 360.8064 182.1312 
" clip-path="url(#pb609a63e8e)" style="fill: none; stroke: #b0b0b0; stroke-width: 0.8; stroke-linecap: square"/>
     </g>
     <g id="line2d_22">
      <g>
       <use xlink:href="#m6599c03e2a" x="57.6" y="182.1312" style="stroke: #000000; stroke-width: 0.8"/>
      </g>
     </g>
     <g id="text_8">
      <!-- 0.4 -->
      <g transform="translate(25.155 188.20995)scale(0.16 -0.16)">
       <use xlink:href="#DejaVuSans-30"/>
       <use xlink:href="#DejaVuSans-2e" x="63.623047"/>
       <use xlink:href="#DejaVuSans-34" x="95.410156"/>
      </g>
     </g>
    </g>
    <g id="ytick_4">
     <g id="line2d_23">
      <path d="M 57.6 123.7248 
L 360.8064 123.7248 
" clip-path="url(#pb609a63e8e)" style="fill: none; stroke: #b0b0b0; stroke-width: 0.8; stroke-linecap: square"/>
     </g>
     <g id="line2d_24">
      <g>
       <use xlink:href="#m6599c03e2a" x="57.6" y="123.7248" style="stroke: #000000; stroke-width: 0.8"/>
      </g>
     </g>
     <g id="text_9">
      <!-- 0.6 -->
      <g transform="translate(25.155 129.80355)scale(0.16 -0.16)">
       <use xlink:href="#DejaVuSans-30"/>
       <use xlink:href="#DejaVuSans-2e" x="63.623047"/>
       <use xlink:href="#DejaVuSans-36" x="95.410156"/>
      </g>
     </g>
    </g>
    <g id="ytick_5">
     <g id="line2d_25">
      <path d="M 57.6 65.3184 
L 360.8064 65.3184 
" clip-path="url(#pb609a63e8e)" style="fill: none; stroke: #b0b0b0; stroke-width: 0.8; stroke-linecap: square"/>
     </g>
     <g id="line2d_26">
      <g>
       <use xlink:href="#m6599c03e2a" x="57.6" y="65.3184" style="stroke: #000000; stroke-width: 0.8"/>
      </g>
     </g>
     <g id="text_10">
      <!-- 0.8 -->
      <g transform="translate(25.155 71.39715)scale(0.16 -0.16)">
       <defs>
        <path id="DejaVuSans-38" d="M 2034 2216 
Q 1584 2216 1326 1975 
Q 1069 1734 1069 1313 
Q 1069 891 1326 650 
Q 1584 409 2034 409 
Q 2484 409 2743 651 
Q 3003 894 3003 1313 
Q 3003 1734 2745 1975 
Q 2488 2216 2034 2216 
z
M 1403 2484 
Q 997 2584 770 2862 
Q 544 3141 544 3541 
Q 544 4100 942 4425 
Q 1341 4750 2034 4750 
Q 2731 4750 3128 4425 
Q 3525 4100 3525 3541 
Q 3525 3141 3298 2862 
Q 3072 2584 2669 2484 
Q 3125 2378 3379 2068 
Q 3634 1759 3634 1313 
Q 3634 634 3220 271 
Q 2806 -91 2034 -91 
Q 1263 -91 848 271 
Q 434 634 434 1313 
Q 434 1759 690 2068 
Q 947 2378 1403 2484 
z
M 1172 3481 
Q 1172 3119 1398 2916 
Q 1625 2713 2034 2713 
Q 2441 2713 2670 2916 
Q 2900 3119 2900 3481 
Q 2900 3844 2670 4047 
Q 2441 4250 2034 4250 
Q 1625 4250 1398 4047 
Q 1172 3844 1172 3481 
z
" transform="scale(0.015625)"/>
       </defs>
       <use xlink:href="#DejaVuSans-30"/>
       <use xlink:href="#DejaVuSans-2e" x="63.623047"/>
       <use xlink:href="#DejaVuSans-38" x="95.410156"/>
      </g>
     </g>
    </g>
    <g id="ytick_6">
     <g id="line2d_27">
      <path d="M 57.6 6.912 
L 360.8064 6.912 
" clip-path="url(#pb609a63e8e)" style="fill: none; stroke: #b0b0b0; stroke-width: 0.8; stroke-linecap: square"/>
     </g>
     <g id="line2d_28">
      <g>
       <use xlink:href="#m6599c03e2a" x="57.6" y="6.912" style="stroke: #000000; stroke-width: 0.8"/>
      </g>
     </g>
     <g id="text_11">
      <!-- 1.0 -->
      <g transform="translate(25.155 12.99075)scale(0.16 -0.16)">
       <use xlink:href="#DejaVuSans-31"/>
       <use xlink:href="#DejaVuSans-2e" x="63.623047"/>
       <use xlink:href="#DejaVuSans-30" x="95.410156"/>
      </g>
     </g>
    </g>
    <g id="text_12">
     <!-- Fraction of function,target pairs -->
     <g transform="translate(17.619531 287.313)rotate(-90)scale(0.17 -0.17)">
      <defs>
       <path id="DejaVuSans-46" d="M 628 4666 
L 3309 4666 
L 3309 4134 
L 1259 4134 
L 1259 2759 
L 3109 2759 
L 3109 2228 
L 1259 2228 
L 1259 0 
L 628 0 
L 628 4666 
z
" transform="scale(0.015625)"/>
       <path id="DejaVuSans-72" d="M 2631 2963 
Q 2534 3019 2420 3045 
Q 2306 3072 2169 3072 
Q 1681 3072 1420 2755 
Q 1159 2438 1159 1844 
L 1159 0 
L 581 0 
L 581 3500 
L 1159 3500 
L 1159 2956 
Q 1341 3275 1631 3429 
Q 1922 3584 2338 3584 
Q 2397 3584 2469 3576 
Q 2541 3569 2628 3553 
L 2631 2963 
z
" transform="scale(0.015625)"/>
       <path id="DejaVuSans-63" d="M 3122 3366 
L 3122 2828 
Q 2878 2963 2633 3030 
Q 2388 3097 2138 3097 
Q 1578 3097 1268 2742 
Q 959 2388 959 1747 
Q 959 1106 1268 751 
Q 1578 397 2138 397 
Q 2388 397 2633 464 
Q 2878 531 3122 666 
L 3122 134 
Q 2881 22 2623 -34 
Q 2366 -91 2075 -91 
Q 1284 -91 818 406 
Q 353 903 353 1747 
Q 353 2603 823 3093 
Q 1294 3584 2113 3584 
Q 2378 3584 2631 3529 
Q 2884 3475 3122 3366 
z
" transform="scale(0.015625)"/>
       <path id="DejaVuSans-74" d="M 1172 4494 
L 1172 3500 
L 2356 3500 
L 2356 3053 
L 1172 3053 
L 1172 1153 
Q 1172 725 1289 603 
Q 1406 481 1766 481 
L 2356 481 
L 2356 0 
L 1766 0 
Q 1100 0 847 248 
Q 594 497 594 1153 
L 594 3053 
L 172 3053 
L 172 3500 
L 594 3500 
L 594 4494 
L 1172 4494 
z
" transform="scale(0.015625)"/>
       <path id="DejaVuSans-75" d="M 544 1381 
L 544 3500 
L 1119 3500 
L 1119 1403 
Q 1119 906 1312 657 
Q 1506 409 1894 409 
Q 2359 409 2629 706 
Q 2900 1003 2900 1516 
L 2900 3500 
L 3475 3500 
L 3475 0 
L 2900 0 
L 2900 538 
Q 2691 219 2414 64 
Q 2138 -91 1772 -91 
Q 1169 -91 856 284 
Q 544 659 544 1381 
z
M 1991 3584 
L 1991 3584 
z
" transform="scale(0.015625)"/>
       <path id="DejaVuSans-2c" d="M 750 794 
L 1409 794 
L 1409 256 
L 897 -744 
L 494 -744 
L 750 256 
L 750 794 
z
" transform="scale(0.015625)"/>
       <path id="DejaVuSans-70" d="M 1159 525 
L 1159 -1331 
L 581 -1331 
L 581 3500 
L 1159 3500 
L 1159 2969 
Q 1341 3281 1617 3432 
Q 1894 3584 2278 3584 
Q 2916 3584 3314 3078 
Q 3713 2572 3713 1747 
Q 3713 922 3314 415 
Q 2916 -91 2278 -91 
Q 1894 -91 1617 61 
Q 1341 213 1159 525 
z
M 3116 1747 
Q 3116 2381 2855 2742 
Q 2594 3103 2138 3103 
Q 1681 3103 1420 2742 
Q 1159 2381 1159 1747 
Q 1159 1113 1420 752 
Q 1681 391 2138 391 
Q 2594 391 2855 752 
Q 3116 1113 3116 1747 
z
" transform="scale(0.015625)"/>
      </defs>
      <use xlink:href="#DejaVuSans-46"/>
      <use xlink:href="#DejaVuSans-72" x="50.269531"/>
      <use xlink:href="#DejaVuSans-61" x="91.382812"/>
      <use xlink:href="#DejaVuSans-63" x="152.662109"/>
      <use xlink:href="#DejaVuSans-74" x="207.642578"/>
      <use xlink:href="#DejaVuSans-69" x="246.851562"/>
      <use xlink:href="#DejaVuSans-6f" x="274.634766"/>
      <use xlink:href="#DejaVuSans-6e" x="335.816406"/>
      <use xlink:href="#DejaVuSans-20" x="399.195312"/>
      <use xlink:href="#DejaVuSans-6f" x="430.982422"/>
      <use xlink:href="#DejaVuSans-66" x="492.164062"/>
      <use xlink:href="#DejaVuSans-20" x="527.369141"/>
      <use xlink:href="#DejaVuSans-66" x="559.15625"/>
      <use xlink:href="#DejaVuSans-75" x="594.361328"/>
      <use xlink:href="#DejaVuSans-6e" x="657.740234"/>
      <use xlink:href="#DejaVuSans-63" x="721.119141"/>
      <use xlink:href="#DejaVuSans-74" x="776.099609"/>
      <use xlink:href="#DejaVuSans-69" x="815.308594"/>
      <use xlink:href="#DejaVuSans-6f" x="843.091797"/>
      <use xlink:href="#DejaVuSans-6e" x="904.273438"/>
      <use xlink:href="#DejaVuSans-2c" x="967.652344"/>
      <use xlink:href="#DejaVuSans-74" x="999.439453"/>
      <use xlink:href="#DejaVuSans-61" x="1038.648438"/>
      <use xlink:href="#DejaVuSans-72" x="1099.927734"/>
      <use xlink:href="#DejaVuSans-67" x="1139.291016"/>
      <use xlink:href="#DejaVuSans-65" x="1202.767578"/>
      <use xlink:href="#DejaVuSans-74" x="1264.291016"/>
      <use xlink:href="#DejaVuSans-20" x="1303.5"/>
      <use xlink:href="#DejaVuSans-70" x="1335.287109"/>
      <use xlink:href="#DejaVuSans-61" x="1398.763672"/>
      <use xlink:href="#DejaVuSans-69" x="1460.042969"/>
      <use xlink:href="#DejaVuSans-72" x="1487.826172"/>
      <use xlink:href="#DejaVuSans-73" x="1528.939453"/>
     </g>
    </g>
   </g>
   <g id="line2d_29">
    <defs>
     <path id="m6098e021e4" d="M 0 1.5 
C 0.397805 1.5 0.77937 1.341951 1.06066 1.06066 
C 1.341951 0.77937 1.5 0.397805 1.5 0 
C 1.5 -0.397805 1.341951 -0.77937 1.06066 -1.06066 
C 0.77937 -1.341951 0.397805 -1.5 0 -1.5 
C -0.397805 -1.5 -0.77937 -1.341951 -1.06066 -1.06066 
C -1.341951 -0.77937 -1.5 -0.397805 -1.5 0 
C -1.5 0.397805 -1.341951 0.77937 -1.06066 1.06066 
C -0.77937 1.341951 -0.397805 1.5 0 1.5 
z
" style="stroke: #00bfbf"/>
    </defs>
    <g>
     <use xlink:href="#m6098e021e4" x="205.092159" y="197.110428" style="fill: #00bfbf; stroke: #00bfbf"/>
     <use xlink:href="#m6098e021e4" x="205.092159" y="197.110428" style="fill: #00bfbf; stroke: #00bfbf"/>
    </g>
   </g>
   <g id="line2d_30">
    <path d="M 44.560826 298.944 
L 44.560826 288.622179 
L 57.6 288.622179 
L 57.6 286.859917 
L 65.227428 286.859917 
L 65.227428 286.608166 
L 70.639174 286.608166 
L 70.639174 285.727034 
L 78.266603 285.727034 
L 78.266603 284.845903 
L 81.166416 284.845903 
L 81.166416 284.594152 
L 83.678349 284.594152 
L 83.678349 283.587145 
L 85.894031 283.587145 
L 85.894031 281.573131 
L 87.876026 281.573131 
L 87.876026 281.447255 
L 89.668958 281.447255 
L 89.668958 280.188497 
L 91.305777 280.188497 
L 91.305777 280.062621 
L 92.811505 280.062621 
L 92.811505 279.936745 
L 94.205591 279.936745 
L 94.205591 278.677986 
L 96.717523 278.677986 
L 96.717523 278.300359 
L 98.933205 278.300359 
L 98.933205 277.293352 
L 99.950294 277.293352 
L 99.950294 276.538097 
L 100.9152 276.538097 
L 100.9152 276.286345 
L 102.708132 276.286345 
L 102.708132 275.782841 
L 103.544339 275.782841 
L 103.544339 275.53109 
L 106.560633 275.53109 
L 106.560633 275.027586 
L 107.244765 275.027586 
L 107.244765 273.3912 
L 108.542628 273.3912 
L 108.542628 273.139448 
L 111.442442 273.139448 
L 111.442442 273.013572 
L 111.97238 273.013572 
L 111.97238 272.510069 
L 112.487797 272.510069 
L 112.487797 272.384193 
L 112.989468 272.384193 
L 112.989468 272.132441 
L 113.478107 272.132441 
L 113.478107 271.377186 
L 114.418881 271.377186 
L 114.418881 270.747807 
L 114.872193 270.747807 
L 114.872193 269.992552 
L 115.314838 269.992552 
L 115.314838 268.482041 
L 115.747307 268.482041 
L 115.747307 267.726786 
L 116.988079 267.726786 
L 116.988079 267.223283 
L 117.772007 267.223283 
L 117.772007 267.097407 
L 119.24818 267.097407 
L 119.24818 266.0904 
L 119.944983 266.0904 
L 119.944983 265.461021 
L 120.28394 265.461021 
L 120.28394 265.209269 
L 120.944062 265.209269 
L 120.944062 264.957517 
L 121.265635 264.957517 
L 121.265635 264.328138 
L 121.892744 264.328138 
L 121.892744 263.824634 
L 122.499621 263.824634 
L 122.499621 263.447007 
L 124.210942 263.447007 
L 124.210942 263.069379 
L 125.011554 263.069379 
L 125.011554 262.565876 
L 125.271028 262.565876 
L 125.271028 262.44 
L 125.526971 262.44 
L 125.526971 261.558869 
L 126.028642 261.558869 
L 126.028642 261.181241 
L 126.274549 261.181241 
L 126.274549 260.92949 
L 126.756923 260.92949 
L 126.756923 260.677738 
L 126.993549 260.677738 
L 126.993549 260.048359 
L 127.227236 260.048359 
L 127.227236 259.796607 
L 127.458055 259.796607 
L 127.458055 259.670731 
L 127.911368 259.670731 
L 127.911368 259.544855 
L 128.133992 259.544855 
L 128.133992 259.293103 
L 128.354013 259.293103 
L 128.354013 258.915476 
L 128.786481 258.915476 
L 128.786481 258.7896 
L 129.417095 258.7896 
L 129.417095 258.537848 
L 130.027253 258.537848 
L 130.027253 258.411972 
L 130.226319 258.411972 
L 130.226319 257.656717 
L 130.618241 257.656717 
L 130.618241 257.530841 
L 130.811181 257.530841 
L 130.811181 257.27909 
L 131.002163 257.27909 
L 131.002163 257.027338 
L 131.563744 257.027338 
L 131.563744 256.901462 
L 131.747272 256.901462 
L 131.747272 256.397959 
L 132.287354 256.397959 
L 132.287354 256.272083 
L 133.983236 256.272083 
L 133.983236 256.020331 
L 134.304809 256.020331 
L 134.304809 255.768579 
L 134.620977 255.768579 
L 134.620977 255.390952 
L 135.085483 255.390952 
L 135.085483 255.265076 
L 135.687504 255.265076 
L 135.687504 255.1392 
L 136.413909 255.1392 
L 136.413909 255.013324 
L 138.050729 255.013324 
L 138.050729 254.887448 
L 138.310202 254.887448 
L 138.310202 254.509821 
L 138.818654 254.509821 
L 138.818654 254.383945 
L 139.435481 254.383945 
L 139.435481 254.258069 
L 139.914782 254.258069 
L 139.914782 253.376938 
L 140.14993 253.376938 
L 140.14993 253.125186 
L 140.26641 253.125186 
L 140.26641 252.747559 
L 140.950542 252.747559 
L 140.950542 252.495807 
L 141.062184 252.495807 
L 141.173167 252.244055 
L 141.283499 252.244055 
L 141.393187 251.362924 
L 141.50224 251.362924 
L 141.50224 251.111172 
L 141.718467 251.111172 
L 141.718467 250.481793 
L 141.932237 250.481793 
L 141.932237 250.104166 
L 142.763822 250.104166 
L 142.865233 249.852414 
L 143.166224 249.852414 
L 143.166224 249.726538 
L 143.364242 249.726538 
L 143.462475 249.34891 
L 144.041338 249.34891 
L 144.041338 249.223034 
L 144.786447 249.223034 
L 144.786447 248.719531 
L 144.968202 248.719531 
L 144.968202 247.964276 
L 145.148219 247.964276 
L 145.148219 247.712524 
L 145.326529 247.712524 
L 145.326529 247.460772 
L 145.503164 247.460772 
L 145.503164 247.334897 
L 145.765046 247.334897 
L 145.851536 246.957269 
L 146.777571 246.957269 
L 146.777571 246.831393 
L 146.941151 246.831393 
L 147.022411 246.202014 
L 147.183884 246.202014 
L 147.264104 245.950262 
L 147.502732 245.950262 
L 147.502732 245.824386 
L 147.73837 245.824386 
L 147.73837 245.320883 
L 148.048032 245.320883 
L 148.124658 244.943255 
L 149.453084 244.943255 
L 149.453084 244.691503 
L 149.875833 244.691503 
L 149.875833 244.439752 
L 150.62703 244.439752 
L 150.62703 244.062124 
L 151.220087 244.062124 
L 151.220087 243.810372 
L 151.982822 243.810372 
L 151.982822 243.558621 
L 152.291722 243.558621 
L 152.291722 242.929241 
L 152.474656 242.929241 
L 152.474656 242.67749 
L 152.595631 242.67749 
L 152.655828 242.173986 
L 152.715833 242.173986 
L 152.715833 242.04811 
L 152.894708 242.04811 
L 152.894708 241.796359 
L 153.071898 241.796359 
L 153.071898 241.670483 
L 153.189104 241.670483 
L 153.247435 241.292855 
L 154.267588 241.292855 
L 154.322673 240.915228 
L 154.757642 240.915228 
L 154.757642 240.663476 
L 155.13016 240.663476 
L 155.18278 240.285848 
L 155.598521 240.285848 
L 155.598521 239.782345 
L 155.802997 239.782345 
L 155.802997 239.656469 
L 155.954908 239.656469 
L 156.055505 239.152966 
L 156.304668 239.152966 
L 156.304668 238.901214 
L 156.88953 238.901214 
L 156.985263 238.523586 
L 157.222487 238.523586 
L 157.222487 238.271834 
L 157.456756 238.271834 
L 157.503261 238.020083 
L 158.276759 238.020083 
L 158.276759 237.390703 
L 158.58624 237.390703 
L 158.673735 236.8872 
L 158.933807 236.8872 
L 158.933807 236.761324 
L 159.232748 236.761324 
L 159.232748 236.635448 
L 159.443406 236.635448 
L 159.443406 236.257821 
L 159.651731 236.257821 
L 159.734419 235.754317 
L 160.18282 235.754317 
L 160.18282 235.502566 
L 160.816532 235.502566 
L 160.816532 235.37669 
L 161.010268 235.37669 
L 161.010268 235.124938 
L 161.125559 235.124938 
L 161.125559 234.999062 
L 161.654432 234.999062 
L 161.654432 234.369683 
L 161.802848 234.369683 
L 161.913396 233.866179 
L 162.05979 233.866179 
L 162.168843 233.110924 
L 162.349204 233.110924 
L 162.349204 232.985048 
L 162.492258 232.985048 
L 162.59884 232.229793 
L 162.810208 232.229793 
L 162.810208 232.103917 
L 163.22595 232.103917 
L 163.22595 231.978041 
L 163.498092 231.978041 
L 163.59914 231.09691 
L 163.865975 231.09691 
L 163.932096 230.593407 
L 164.324018 230.593407 
L 164.324018 230.467531 
L 164.484939 230.467531 
L 164.484939 230.341655 
L 164.834193 230.341655 
L 164.865624 229.964028 
L 164.990826 229.964028 
L 165.053116 229.5864 
L 165.844657 229.5864 
L 165.844657 229.460524 
L 166.081656 229.460524 
L 166.140442 229.082897 
L 166.199045 229.082897 
L 166.199045 228.831145 
L 166.661411 228.831145 
L 166.718416 228.579393 
L 166.860176 228.579393 
L 166.944723 228.327641 
L 167.028891 228.327641 
L 167.056864 227.950014 
L 167.334325 227.950014 
L 167.334325 227.698262 
L 167.471536 227.698262 
L 167.498859 227.194759 
L 167.877265 227.194759 
L 167.877265 227.068883 
L 168.142969 227.068883 
L 168.195663 226.439503 
L 168.274427 226.439503 
L 168.274427 226.187752 
L 168.508761 226.187752 
L 168.508761 226.061876 
L 168.637696 226.061876 
L 168.637696 225.936 
L 168.765753 225.936 
L 168.765753 225.810124 
L 169.784185 225.810124 
L 169.784185 225.558372 
L 169.952684 225.558372 
L 169.976632 225.180745 
L 170.072123 225.180745 
L 170.072123 224.803117 
L 170.28522 224.803117 
L 170.28522 224.677241 
L 170.519197 224.677241 
L 170.519197 224.299614 
L 170.796182 224.299614 
L 170.796182 224.047862 
L 170.93316 224.047862 
L 170.93316 223.921986 
L 171.091717 223.921986 
L 171.091717 223.670234 
L 171.248949 223.670234 
L 171.248949 223.292607 
L 171.71291 223.292607 
L 171.71291 223.166731 
L 171.9083 223.166731 
L 171.9083 223.040855 
L 172.62865 223.040855 
L 172.649425 222.537352 
L 173.161475 222.537352 
L 173.161475 222.2856 
L 173.816719 222.2856 
L 173.816719 222.159724 
L 174.030158 222.159724 
L 174.126381 221.530345 
L 174.145567 221.530345 
L 174.145567 221.278593 
L 174.878944 221.278593 
L 174.878944 221.152717 
L 175.477915 221.152717 
L 175.549238 220.900966 
L 175.831859 220.900966 
L 175.831859 220.77509 
L 176.075715 220.77509 
L 176.144812 220.397462 
L 176.36764 220.397462 
L 176.36764 220.271586 
L 176.57101 220.271586 
L 176.57101 220.019834 
L 176.772205 220.019834 
L 176.772205 219.768083 
L 176.888582 219.768083 
L 176.888582 219.012828 
L 177.151915 219.012828 
L 177.168252 218.761076 
L 177.363192 218.761076 
L 177.379346 218.257572 
L 177.524113 218.257572 
L 177.524113 217.879945 
L 178.09229 217.879945 
L 178.169864 217.502317 
L 178.431246 217.502317 
L 178.537828 216.998814 
L 178.628705 216.998814 
L 178.719145 216.621186 
L 179.383934 216.621186 
L 179.383934 216.369434 
L 179.57169 216.369434 
L 179.57169 216.117683 
L 179.969833 216.117683 
L 179.969833 215.991807 
L 180.221402 215.991807 
L 180.318334 214.858924 
L 180.646928 214.858924 
L 180.646928 214.733048 
L 181.116069 214.733048 
L 181.116069 214.355421 
L 181.35286 214.355421 
L 181.35286 214.229545 
L 181.470148 214.229545 
L 181.470148 214.103669 
L 181.612513 214.103669 
L 181.664017 213.726041 
L 181.868631 213.726041 
L 181.868631 213.600166 
L 182.221437 213.600166 
L 182.221437 213.348414 
L 182.579998 213.348414 
L 182.579998 213.096662 
L 183.312619 213.096662 
L 183.312619 212.970786 
L 183.511809 212.970786 
L 183.511809 212.719034 
L 183.651154 212.719034 
L 183.651154 212.593159 
L 183.983705 212.593159 
L 183.983705 212.467283 
L 184.108322 212.467283 
L 184.108322 212.215531 
L 184.686501 212.215531 
L 184.686501 212.089655 
L 184.87173 212.089655 
L 184.87173 211.963779 
L 185.044414 211.963779 
L 185.044414 211.712028 
L 185.194222 211.712028 
L 185.194222 211.586152 
L 185.395644 211.586152 
L 185.395644 211.3344 
L 185.626206 211.3344 
L 185.626206 211.082648 
L 185.823079 211.082648 
L 185.823079 210.830897 
L 186.481424 210.830897 
L 186.481424 210.453269 
L 186.767875 210.453269 
L 186.767875 210.201517 
L 187.203908 210.201517 
L 187.203908 209.82389 
L 187.555003 209.82389 
L 187.555003 209.698014 
L 187.825678 209.698014 
L 187.853458 209.446262 
L 188.472374 209.446262 
L 188.472374 209.320386 
L 188.853493 209.320386 
L 188.853493 209.068634 
L 189.010767 209.068634 
L 189.010767 208.942759 
L 189.175363 208.942759 
L 189.175363 208.691007 
L 189.381237 208.691007 
L 189.466358 208.187503 
L 189.567996 208.187503 
L 189.567996 207.935752 
L 190.531213 207.935752 
L 190.619286 207.432248 
L 190.706949 207.432248 
L 190.706949 207.180497 
L 190.825834 207.180497 
L 190.825834 207.054621 
L 191.432209 207.054621 
L 191.432209 206.928745 
L 191.818373 206.928745 
L 191.818373 206.802869 
L 192.401323 206.802869 
L 192.481079 206.551117 
L 192.825202 206.551117 
L 192.825202 206.299366 
L 193.086233 206.299366 
L 193.128223 205.921738 
L 193.204963 205.921738 
L 193.204963 205.795862 
L 193.329865 205.795862 
L 193.440197 205.418234 
L 193.631734 205.418234 
L 193.631734 205.292359 
L 194.359325 205.292359 
L 194.359325 205.166483 
L 194.786584 205.166483 
L 194.786584 205.040607 
L 194.977631 205.040607 
L 194.977631 204.914731 
L 195.204355 204.914731 
L 195.260611 204.662979 
L 195.551693 204.662979 
L 195.551693 204.0336 
L 196.019047 204.0336 
L 196.120683 203.655972 
L 196.782655 203.655972 
L 196.782655 203.530097 
L 197.427686 203.530097 
L 197.427686 203.404221 
L 197.643373 203.404221 
L 197.753029 202.648966 
L 197.867485 202.648966 
L 197.872918 202.145462 
L 198.163991 202.145462 
L 198.163991 201.89371 
L 198.302547 201.89371 
L 198.382021 201.138455 
L 198.74334 201.138455 
L 198.74334 201.012579 
L 199.219607 201.012579 
L 199.305378 200.760828 
L 200.523537 200.760828 
L 200.523537 200.509076 
L 201.231919 200.509076 
L 201.263699 200.131448 
L 201.45326 200.131448 
L 201.45326 199.879697 
L 201.813535 199.879697 
L 201.813535 199.753821 
L 202.188644 199.753821 
L 202.188644 199.502069 
L 202.403342 199.502069 
L 202.403342 199.376193 
L 202.750225 199.376193 
L 202.750225 199.124441 
L 202.917143 199.124441 
L 202.917143 198.998566 
L 203.23435 198.998566 
L 203.328072 198.620938 
L 203.530218 198.620938 
L 203.530218 198.369186 
L 203.80566 198.369186 
L 203.80566 198.117434 
L 204.178411 198.117434 
L 204.18618 197.865683 
L 204.475208 197.865683 
L 204.566768 197.362179 
L 204.820037 197.362179 
L 204.820037 197.236303 
L 205.092159 197.236303 
L 205.092159 197.110428 
L 360.8064 197.110428 
L 360.8064 197.110428 
" style="fill: none; stroke: #00bfbf; stroke-width: 1.5; stroke-linecap: square"/>
   </g>
   <g id="line2d_31">
    <defs>
     <path id="m0bc4d9f0ce" d="M -6 0 
L 6 0 
M 0 6 
L 0 -6 
" style="stroke: #00bfbf; stroke-width: 1.5"/>
    </defs>
    <g>
     <use xlink:href="#m0bc4d9f0ce" x="139.435481" y="254.258069" style="fill-opacity: 0; stroke: #00bfbf; stroke-width: 1.5"/>
     <use xlink:href="#m0bc4d9f0ce" x="176.57101" y="220.019834" style="fill-opacity: 0; stroke: #00bfbf; stroke-width: 1.5"/>
     <use xlink:href="#m0bc4d9f0ce" x="205.092159" y="197.236303" style="fill-opacity: 0; stroke: #00bfbf; stroke-width: 1.5"/>
     <use xlink:href="#m0bc4d9f0ce" x="205.092159" y="197.110428" style="fill-opacity: 0; stroke: #00bfbf; stroke-width: 1.5"/>
     <use xlink:href="#m0bc4d9f0ce" x="360.8064" y="197.110428" style="fill-opacity: 0; stroke: #00bfbf; stroke-width: 1.5"/>
    </g>
   </g>
   <g id="line2d_32">
    <path style="fill: none; stroke: #00bfbf; stroke-width: 1.5; stroke-linecap: square"/>
    <g/>
   </g>
   <g id="line2d_33">
    <path d="M 205.158657 197.110428 
" clip-path="url(#pb609a63e8e)" style="fill: none; stroke: #00bfbf; stroke-width: 1.5; stroke-linecap: square"/>
    <defs>
     <path id="m0ef671c590" d="M -12 12 
L 12 -12 
M -12 -12 
L 12 12 
" style="stroke: #00bfbf"/>
    </defs>
    <g clip-path="url(#pb609a63e8e)">
     <use xlink:href="#m0ef671c590" x="205.158657" y="197.110428" style="fill: #00bfbf; stroke: #00bfbf"/>
    </g>
   </g>
   <g id="line2d_34">
    <defs>
     <path id="m0e028f6471" d="M 0 1.5 
C 0.397805 1.5 0.77937 1.341951 1.06066 1.06066 
C 1.341951 0.77937 1.5 0.397805 1.5 0 
C 1.5 -0.397805 1.341951 -0.77937 1.06066 -1.06066 
C 0.77937 -1.341951 0.397805 -1.5 0 -1.5 
C -0.397805 -1.5 -0.77937 -1.341951 -1.06066 -1.06066 
C -1.341951 -0.77937 -1.5 -0.397805 -1.5 0 
C -1.5 0.397805 -1.341951 0.77937 -1.06066 1.06066 
C -0.77937 1.341951 -0.397805 1.5 0 1.5 
z
" style="stroke: #008000"/>
    </defs>
    <g>
     <use xlink:href="#m0e028f6471" x="197.520163" y="227.698262" style="fill: #008000; stroke: #008000"/>
     <use xlink:href="#m0e028f6471" x="197.520163" y="227.698262" style="fill: #008000; stroke: #008000"/>
    </g>
   </g>
   <g id="line2d_35">
    <path d="M 36.933397 298.944 
L 36.933397 284.090648 
L 49.972572 284.090648 
L 49.972572 283.083641 
L 57.6 283.083641 
L 57.6 282.83189 
L 63.011746 282.83189 
L 63.011746 282.706014 
L 67.209423 282.706014 
L 67.209423 282.328386 
L 76.050921 282.328386 
L 76.050921 282.20251 
L 80.248597 282.20251 
L 80.248597 282.076634 
L 82.04153 282.076634 
L 82.04153 281.573131 
L 83.678349 281.573131 
L 83.678349 281.447255 
L 85.184077 281.447255 
L 85.184077 281.195503 
L 87.876026 281.195503 
L 87.876026 280.943752 
L 89.090095 280.943752 
L 89.090095 280.817876 
L 90.230539 280.817876 
L 90.230539 280.188497 
L 91.305777 280.188497 
L 91.305777 279.810869 
L 92.322865 279.810869 
L 92.322865 279.684993 
L 94.205591 279.684993 
L 94.205591 279.559117 
L 96.717523 279.559117 
L 96.717523 279.307366 
L 97.485448 279.307366 
L 97.485448 279.18149 
L 99.617337 279.18149 
L 99.617337 279.055614 
L 100.9152 279.055614 
L 100.9152 278.803862 
L 101.532027 278.803862 
L 101.532027 278.677986 
L 104.344952 278.677986 
L 104.344952 278.426234 
L 104.860369 278.426234 
L 104.860369 278.300359 
L 105.850679 278.300359 
L 105.850679 278.174483 
L 106.326946 278.174483 
L 106.326946 277.922731 
L 107.244765 277.922731 
L 107.244765 277.419228 
L 108.119879 277.419228 
L 108.119879 277.293352 
L 110.144579 277.293352 
L 110.144579 276.915724 
L 110.897141 276.915724 
L 110.897141 276.538097 
L 111.262425 276.538097 
L 111.262425 276.286345 
L 113.954374 276.286345 
L 113.954374 276.160469 
L 114.265316 276.160469 
L 114.265316 276.034593 
L 116.854188 276.034593 
L 116.854188 275.782841 
L 118.401214 275.782841 
L 118.401214 275.656966 
L 118.64712 275.656966 
L 118.64712 275.405214 
L 118.889854 275.405214 
L 118.889854 275.279338 
L 119.129494 275.279338 
L 119.129494 275.153462 
L 119.366121 275.153462 
L 119.366121 275.027586 
L 119.830627 275.027586 
L 119.830627 274.90171 
L 120.058649 274.90171 
L 120.058649 274.649959 
L 120.726585 274.649959 
L 120.726585 274.524083 
L 121.789667 274.524083 
L 121.789667 274.272331 
L 121.99526 274.272331 
L 121.99526 274.146455 
L 124.3016 274.146455 
L 124.3016 273.894703 
L 124.836562 273.894703 
L 124.836562 273.517076 
L 125.184934 273.517076 
L 125.184934 273.139448 
L 125.35673 273.139448 
L 125.35673 272.635945 
L 125.862901 272.635945 
L 125.862901 272.258317 
L 126.355808 272.258317 
L 126.355808 272.132441 
L 126.993549 272.132441 
L 126.993549 271.88069 
L 127.304491 271.88069 
L 127.304491 271.628938 
L 128.643427 271.628938 
L 128.643427 271.503062 
L 129.209231 271.503062 
L 129.209231 271.377186 
L 129.893363 271.377186 
L 129.893363 271.25131 
L 130.553485 271.25131 
L 130.553485 271.125434 
L 131.31622 271.125434 
L 131.31622 270.621931 
L 132.405295 270.621931 
L 132.405295 270.496055 
L 132.984158 270.496055 
L 132.984158 270.244303 
L 133.983236 270.244303 
L 133.983236 269.866676 
L 134.725196 269.866676 
L 134.725196 269.7408 
L 135.438999 269.7408 
L 135.538796 269.237297 
L 135.835047 269.237297 
L 135.835047 268.859669 
L 136.126705 268.859669 
L 136.126705 268.733793 
L 136.508678 268.733793 
L 136.508678 268.607917 
L 137.159019 268.607917 
L 137.250116 268.104414 
L 137.520791 268.104414 
L 137.520791 267.852662 
L 137.699101 267.852662 
L 137.699101 267.726786 
L 138.050729 267.726786 
L 138.050729 267.60091 
L 138.650692 267.60091 
L 138.650692 267.097407 
L 138.985129 267.097407 
L 139.067817 266.593903 
L 139.394983 266.593903 
L 139.394983 266.468028 
L 139.556456 266.468028 
L 139.556456 266.216276 
L 140.573544 266.216276 
L 140.573544 266.0904 
L 140.725251 266.0904 
L 140.725251 265.712772 
L 141.465959 265.712772 
L 141.465959 265.586897 
L 143.786262 265.586897 
L 143.786262 265.461021 
L 144.479563 265.461021 
L 144.541342 264.57989 
L 144.602918 264.57989 
L 144.602918 264.328138 
L 144.847227 264.328138 
L 144.847227 264.076386 
L 145.207843 264.076386 
L 145.207843 263.95051 
L 145.385592 263.95051 
L 145.44447 263.572883 
L 145.503164 263.572883 
L 145.503164 263.447007 
L 145.678157 263.447007 
L 145.678157 263.069379 
L 145.908976 263.069379 
L 145.908976 262.943503 
L 146.080251 262.943503 
L 146.080251 262.817628 
L 146.64016 262.817628 
L 146.64016 262.565876 
L 146.968277 262.565876 
L 146.968277 262.188248 
L 147.237402 262.188248 
L 147.343984 261.936497 
L 147.397049 261.936497 
L 147.397049 261.810621 
L 147.555352 261.810621 
L 147.660152 261.181241 
L 147.764371 261.181241 
L 147.816265 260.92949 
L 147.919625 260.92949 
L 147.919625 260.677738 
L 148.923146 260.677738 
L 148.923146 260.30011 
L 149.165879 260.30011 
L 149.165879 260.174234 
L 149.453084 260.174234 
L 149.547853 259.670731 
L 149.875833 259.670731 
L 149.922224 259.293103 
L 150.198193 259.293103 
L 150.198193 259.167228 
L 150.649331 259.167228 
L 150.693856 258.915476 
L 150.914911 258.915476 
L 150.914911 258.7896 
L 151.220087 258.7896 
L 151.220087 258.663724 
L 151.392277 258.663724 
L 151.435079 258.286097 
L 152.106991 258.286097 
L 152.106991 258.034345 
L 152.835271 258.034345 
L 152.835271 257.908469 
L 153.150116 257.908469 
L 153.150116 257.782593 
L 153.612719 257.782593 
L 153.612719 257.656717 
L 154.101358 257.656717 
L 154.138425 257.404966 
L 154.39587 257.404966 
L 154.39587 257.27909 
L 154.577625 257.27909 
L 154.685842 256.775586 
L 155.460959 256.775586 
L 155.460959 256.397959 
L 155.666927 256.397959 
L 155.666927 256.272083 
L 156.072219 256.272083 
L 156.072219 255.768579 
L 157.017067 255.768579 
L 157.017067 255.642703 
L 157.269574 255.642703 
L 157.269574 255.516828 
L 157.946987 255.516828 
L 157.946987 255.390952 
L 158.15751 255.390952 
L 158.187393 255.013324 
L 158.454228 255.013324 
L 158.513014 254.761572 
L 158.571617 254.761572 
L 158.571617 254.509821 
L 159.062507 254.509821 
L 159.062507 254.258069 
L 159.679334 254.258069 
L 159.706897 253.880441 
L 160.276577 253.880441 
L 160.303279 253.62869 
L 160.541906 253.62869 
L 160.541906 253.502814 
L 160.725435 253.502814 
L 160.725435 253.376938 
L 160.933013 253.376938 
L 160.933013 253.125186 
L 161.467251 253.125186 
L 161.517348 252.747559 
L 162.253227 252.747559 
L 162.253227 252.621683 
L 162.39701 252.621683 
L 162.420867 251.740552 
L 162.798527 251.740552 
L 162.798527 251.4888 
L 163.076878 251.4888 
L 163.122872 250.733545 
L 163.237368 250.733545 
L 163.237368 250.607669 
L 163.643876 250.607669 
L 163.643876 250.481793 
L 163.843882 250.481793 
L 163.843882 250.355917 
L 164.129077 250.355917 
L 164.129077 250.104166 
L 165.042749 250.104166 
L 165.104867 249.726538 
L 165.41242 249.726538 
L 165.41242 249.474786 
L 166.169767 249.474786 
L 166.169767 249.34891 
L 167.01022 249.34891 
L 167.028891 249.097159 
L 167.251516 249.097159 
L 167.251516 248.971283 
L 167.416772 248.971283 
L 167.507957 248.467779 
L 168.309328 248.467779 
L 168.396298 248.216028 
L 168.723164 248.216028 
L 168.723164 248.090152 
L 169.128092 248.090152 
L 169.161446 247.586648 
L 169.343842 247.586648 
L 169.426169 247.209021 
L 169.573454 247.209021 
L 169.573454 247.083145 
L 169.912702 247.083145 
L 169.944694 246.705517 
L 170.056241 246.705517 
L 170.072123 246.32789 
L 170.665892 246.32789 
L 170.757955 246.076138 
L 171.552189 246.076138 
L 171.625414 245.320883 
L 171.68379 245.320883 
L 171.756506 244.943255 
L 172.496541 244.943255 
L 172.496541 244.817379 
L 172.937888 244.817379 
L 173.005923 244.439752 
L 173.369117 244.439752 
L 173.369117 244.313876 
L 173.673069 244.313876 
L 173.673069 244.062124 
L 173.790682 244.062124 
L 173.790682 243.936248 
L 173.907565 243.936248 
L 173.959281 243.684497 
L 174.139174 243.684497 
L 174.228479 243.306869 
L 174.506426 243.306869 
L 174.506426 243.180993 
L 174.743209 243.180993 
L 174.780325 242.929241 
L 174.964813 242.929241 
L 174.964813 242.803366 
L 175.316441 242.803366 
L 175.352444 242.425738 
L 175.495771 242.425738 
L 175.507666 242.173986 
L 175.942567 242.173986 
L 175.954182 241.670483 
L 176.287954 241.670483 
L 176.287954 241.544607 
L 176.938239 241.544607 
L 176.938239 241.292855 
L 177.481335 241.292855 
L 177.481335 241.041103 
L 177.620009 241.041103 
L 177.620009 240.915228 
L 177.789293 240.915228 
L 177.841883 240.663476 
L 178.502368 240.663476 
L 178.502368 240.411724 
L 179.795498 240.411724 
L 179.795498 240.285848 
L 180.382678 240.285848 
L 180.483348 239.656469 
L 180.773181 239.656469 
L 180.773181 239.404717 
L 180.978773 239.404717 
L 181.005425 238.901214 
L 181.339783 238.901214 
L 181.339783 238.775338 
L 181.821936 238.775338 
L 181.821936 238.649462 
L 181.949013 238.649462 
L 181.949013 238.39771 
L 182.407753 238.39771 
L 182.407753 238.271834 
L 182.911809 238.271834 
L 182.911809 238.020083 
L 183.103358 238.020083 
L 183.206305 237.642455 
L 183.292976 237.642455 
L 183.292976 237.516579 
L 183.705066 237.516579 
L 183.789475 237.013076 
L 184.235859 237.013076 
L 184.273206 236.635448 
L 184.686501 236.635448 
L 184.752084 236.131945 
L 184.925864 236.131945 
L 184.96906 235.754317 
L 185.098054 235.754317 
L 185.098054 235.628441 
L 185.367504 235.628441 
L 185.367504 235.37669 
L 185.888248 235.37669 
L 185.888248 235.124938 
L 186.187174 235.124938 
L 186.234295 234.621434 
L 186.401629 234.621434 
L 186.401629 234.369683 
L 187.745194 234.369683 
L 187.745194 234.243807 
L 187.918118 234.243807 
L 187.918118 234.117931 
L 188.307504 234.117931 
L 188.307504 233.992055 
L 188.935207 233.992055 
L 189.016566 233.362676 
L 189.057115 233.362676 
L 189.057115 233.110924 
L 189.960876 233.110924 
L 189.960876 232.859172 
L 190.299733 232.859172 
L 190.375412 232.607421 
L 190.611297 232.607421 
L 190.611297 232.355669 
L 191.178047 232.355669 
L 191.193549 231.978041 
L 191.667879 231.978041 
L 191.763332 231.474538 
L 191.977583 231.474538 
L 191.977583 231.348662 
L 192.437618 231.348662 
L 192.500363 230.845159 
L 192.990238 230.845159 
L 192.990238 230.719283 
L 193.362112 230.719283 
L 193.362112 230.467531 
L 193.536209 230.467531 
L 193.536209 230.215779 
L 193.686103 230.215779 
L 193.686103 229.964028 
L 194.102215 229.964028 
L 194.102215 229.712276 
L 195.072431 229.712276 
L 195.106023 229.334648 
L 195.189742 229.334648 
L 195.189742 229.208772 
L 195.910831 229.208772 
L 195.910831 228.957021 
L 196.027038 228.957021 
L 196.05897 228.453517 
L 196.201994 228.453517 
L 196.201994 228.201766 
L 196.686472 228.201766 
L 196.686472 227.950014 
L 197.072069 227.950014 
L 197.072069 227.824138 
L 197.520163 227.824138 
L 197.520163 227.698262 
L 360.8064 227.698262 
L 360.8064 227.698262 
" style="fill: none; stroke: #008000; stroke-width: 1.5; stroke-linecap: square"/>
   </g>
   <g id="line2d_36">
    <defs>
     <path id="mfd8681af68" d="M -0 6 
L 6 -6 
L -6 -6 
z
" style="stroke: #008000; stroke-width: 1.5; stroke-linejoin: miter"/>
    </defs>
    <g>
     <use xlink:href="#mfd8681af68" x="105.850679" y="278.300359" style="fill-opacity: 0; stroke: #008000; stroke-width: 1.5; stroke-linejoin: miter"/>
     <use xlink:href="#mfd8681af68" x="163.643876" y="250.607669" style="fill-opacity: 0; stroke: #008000; stroke-width: 1.5; stroke-linejoin: miter"/>
     <use xlink:href="#mfd8681af68" x="197.520163" y="227.824138" style="fill-opacity: 0; stroke: #008000; stroke-width: 1.5; stroke-linejoin: miter"/>
     <use xlink:href="#mfd8681af68" x="197.520163" y="227.698262" style="fill-opacity: 0; stroke: #008000; stroke-width: 1.5; stroke-linejoin: miter"/>
     <use xlink:href="#mfd8681af68" x="197.520163" y="227.698262" style="fill-opacity: 0; stroke: #008000; stroke-width: 1.5; stroke-linejoin: miter"/>
     <use xlink:href="#mfd8681af68" x="360.8064" y="227.698262" style="fill-opacity: 0; stroke: #008000; stroke-width: 1.5; stroke-linejoin: miter"/>
    </g>
   </g>
   <g id="line2d_37">
    <path style="fill: none; stroke: #008000; stroke-width: 1.5; stroke-linecap: square"/>
    <g/>
   </g>
   <g id="line2d_38">
    <path d="M 197.531229 227.698262 
" clip-path="url(#pb609a63e8e)" style="fill: none; stroke: #008000; stroke-width: 1.5; stroke-linecap: square"/>
    <defs>
     <path id="m6151159ba9" d="M -12 12 
L 12 -12 
M -12 -12 
L 12 12 
" style="stroke: #008000"/>
    </defs>
    <g clip-path="url(#pb609a63e8e)">
     <use xlink:href="#m6151159ba9" x="197.531229" y="227.698262" style="fill: #008000; stroke: #008000"/>
    </g>
   </g>
   <g id="line2d_39">
    <defs>
     <path id="m2e049dc311" d="M 0 1.5 
C 0.397805 1.5 0.77937 1.341951 1.06066 1.06066 
C 1.341951 0.77937 1.5 0.397805 1.5 0 
C 1.5 -0.397805 1.341951 -0.77937 1.06066 -1.06066 
C 0.77937 -1.341951 0.397805 -1.5 0 -1.5 
C -0.397805 -1.5 -0.77937 -1.341951 -1.06066 -1.06066 
C -1.341951 -0.77937 -1.5 -0.397805 -1.5 0 
C -1.5 0.397805 -1.341951 0.77937 -1.06066 1.06066 
C -0.77937 1.341951 -0.397805 1.5 0 1.5 
z
" style="stroke: #0000ff"/>
    </defs>
    <g>
     <use xlink:href="#m2e049dc311" x="187.918118" y="258.286097" style="fill: #0000ff; stroke: #0000ff"/>
     <use xlink:href="#m2e049dc311" x="187.918118" y="258.286097" style="fill: #0000ff; stroke: #0000ff"/>
    </g>
   </g>
   <g id="line2d_40">
    <path d="M 27.323974 298.944 
L 27.323974 286.104662 
L 63.929565 286.104662 
L 63.929565 285.978786 
L 66.441498 285.978786 
L 66.441498 285.85291 
L 68.65718 285.85291 
L 68.65718 285.349407 
L 70.639174 285.349407 
L 70.639174 285.097655 
L 74.068926 285.097655 
L 74.068926 284.971779 
L 78.266603 284.971779 
L 78.266603 284.720028 
L 88.613828 284.720028 
L 88.613828 284.594152 
L 94.735529 284.594152 
L 94.735529 284.468276 
L 95.250946 284.468276 
L 95.250946 284.216524 
L 95.752617 284.216524 
L 95.752617 283.838897 
L 98.510456 283.838897 
L 98.510456 283.713021 
L 103.707211 283.713021 
L 103.707211 283.587145 
L 104.028784 283.587145 
L 104.028784 283.461269 
L 105.559021 283.461269 
L 105.559021 283.335393 
L 106.699465 283.335393 
L 106.699465 283.209517 
L 108.034177 283.209517 
L 108.034177 282.957766 
L 108.542628 282.957766 
L 108.542628 282.83189 
L 111.334639 282.83189 
L 111.334639 282.580138 
L 113.381389 282.580138 
L 113.381389 282.328386 
L 119.876453 282.328386 
L 119.876453 282.20251 
L 120.41783 282.20251 
L 120.41783 282.076634 
L 122.439807 282.076634 
L 122.439807 281.950759 
L 125.729248 281.950759 
L 125.729248 281.824883 
L 126.420564 281.824883 
L 126.420564 281.699007 
L 127.273627 281.699007 
L 127.273627 281.573131 
L 127.821575 281.573131 
L 127.821575 281.447255 
L 128.000734 281.447255 
L 128.089678 280.943752 
L 129.041269 280.943752 
L 129.041269 280.692 
L 129.458394 280.692 
L 129.458394 280.566124 
L 130.887807 280.566124 
L 130.887807 280.440248 
L 132.001241 280.440248 
L 132.001241 280.314372 
L 134.808158 280.314372 
L 134.87014 280.062621 
L 135.054871 280.062621 
L 135.054871 279.810869 
L 135.237805 279.810869 
L 135.298389 279.433241 
L 137.412988 279.433241 
L 137.412988 279.307366 
L 138.36167 279.307366 
L 138.36167 279.18149 
L 138.667556 279.18149 
L 138.667556 279.055614 
L 139.985636 279.055614 
L 139.985636 278.803862 
L 140.126547 278.803862 
L 140.126547 278.677986 
L 140.405242 278.677986 
L 140.405242 278.55211 
L 141.084433 278.55211 
L 141.084433 278.426234 
L 141.48048 278.426234 
L 141.48048 278.300359 
L 146.595975 278.300359 
L 146.595975 278.174483 
L 147.660152 278.174483 
L 147.660152 278.048607 
L 148.001907 278.048607 
L 148.001907 277.922731 
L 148.962194 277.922731 
L 148.962194 277.796855 
L 149.281288 277.796855 
L 149.281288 277.670979 
L 150.72052 277.670979 
L 150.8268 277.293352 
L 150.879716 277.293352 
L 150.879716 277.167476 
L 151.063758 277.167476 
L 151.063758 277.0416 
L 153.048369 277.0416 
L 153.142309 276.538097 
L 153.398253 276.538097 
L 153.398253 276.160469 
L 154.234459 276.160469 
L 154.344662 275.908717 
L 155.412574 275.908717 
L 155.412574 275.782841 
L 156.125604 275.782841 
L 156.125604 275.656966 
L 156.521235 275.656966 
L 156.521235 275.53109 
L 156.966156 275.53109 
L 156.966156 275.405214 
L 157.363398 275.405214 
L 157.363398 275.279338 
L 157.493969 275.279338 
L 157.493969 275.153462 
L 157.770751 275.153462 
L 157.770751 275.027586 
L 158.043518 275.027586 
L 158.043518 274.90171 
L 158.647529 274.90171 
L 158.647529 274.775834 
L 159.113741 274.775834 
L 159.198823 274.398207 
L 160.061585 274.398207 
L 160.077795 273.894703 
L 160.746296 273.894703 
L 160.746296 273.768828 
L 161.482294 273.768828 
L 161.527352 273.517076 
L 162.17609 273.517076 
L 162.262846 273.139448 
L 162.306075 273.139448 
L 162.306075 273.013572 
L 162.873158 273.013572 
L 162.873158 272.887697 
L 163.410077 272.887697 
L 163.410077 272.761821 
L 163.625994 272.761821 
L 163.719684 272.510069 
L 163.95848 272.510069 
L 163.95848 272.384193 
L 164.246284 272.384193 
L 164.349858 272.132441 
L 164.720604 272.132441 
L 164.720604 271.754814 
L 165.109001 271.754814 
L 165.109001 271.628938 
L 165.634805 271.628938 
L 165.634805 271.125434 
L 165.981296 271.125434 
L 165.981296 270.873683 
L 166.158043 270.873683 
L 166.158043 270.747807 
L 166.379563 270.747807 
L 166.47206 270.244303 
L 166.995269 270.244303 
L 166.995269 270.118428 
L 167.383837 270.118428 
L 167.383837 269.992552 
L 167.999955 269.992552 
L 167.999955 269.866676 
L 168.378936 269.866676 
L 168.378936 269.614924 
L 168.575917 269.614924 
L 168.575917 269.489048 
L 169.134768 269.489048 
L 169.164778 269.111421 
L 170.764077 269.111421 
L 170.828233 268.733793 
L 171.378239 268.733793 
L 171.378239 268.607917 
L 171.590302 268.607917 
L 171.634182 268.356166 
L 171.843395 268.356166 
L 171.843395 268.23029 
L 172.254968 268.23029 
L 172.314244 267.852662 
L 172.381759 267.852662 
L 172.490958 267.475034 
L 172.541145 267.475034 
L 172.557844 267.223283 
L 172.864133 267.223283 
L 172.864133 267.097407 
L 173.027642 267.097407 
L 173.027642 266.971531 
L 173.350456 266.971531 
L 173.406384 266.593903 
L 173.7385 266.593903 
L 173.7385 266.468028 
L 174.324962 266.468028 
L 174.324962 266.342152 
L 174.446132 266.342152 
L 174.446132 266.216276 
L 174.656319 266.216276 
L 174.663783 265.964524 
L 174.974602 265.964524 
L 174.996608 265.586897 
L 175.200767 265.586897 
L 175.200767 265.335145 
L 175.352444 265.335145 
L 175.352444 265.209269 
L 176.175823 265.209269 
L 176.182707 264.831641 
L 176.388076 264.831641 
L 176.462819 264.454014 
L 176.516992 264.454014 
L 176.516992 264.328138 
L 177.822968 264.328138 
L 177.822968 264.076386 
L 177.961242 264.076386 
L 177.961242 263.95051 
L 179.138486 263.95051 
L 179.138486 263.824634 
L 179.296641 263.824634 
L 179.407144 263.447007 
L 179.603279 263.447007 
L 179.614753 263.069379 
L 180.603446 263.069379 
L 180.603446 262.943503 
L 180.980551 262.943503 
L 181.049761 262.691752 
L 181.092225 262.691752 
L 181.092225 262.565876 
L 181.485731 262.565876 
L 181.485731 262.44 
L 181.942258 262.44 
L 182.013073 262.062372 
L 182.318551 262.062372 
L 182.417638 261.558869 
L 182.526034 261.558869 
L 182.570198 261.307117 
L 183.068386 261.307117 
L 183.10177 260.92949 
L 183.25363 260.92949 
L 183.25363 260.803614 
L 183.404274 260.803614 
L 183.404274 260.677738 
L 184.040451 260.677738 
L 184.139912 260.425986 
L 184.404079 260.425986 
L 184.404079 260.30011 
L 184.804387 260.30011 
L 184.804387 260.174234 
L 184.98631 260.174234 
L 185.042265 259.796607 
L 185.102338 259.796607 
L 185.102338 259.670731 
L 186.021993 259.670731 
L 186.021993 259.544855 
L 186.393631 259.544855 
L 186.469476 259.041352 
L 186.541048 259.041352 
L 186.541048 258.915476 
L 186.79726 258.915476 
L 186.816825 258.537848 
L 187.303258 258.537848 
L 187.303258 258.411972 
L 187.918118 258.411972 
L 187.918118 258.286097 
L 360.8064 258.286097 
L 360.8064 258.286097 
" style="fill: none; stroke: #0000ff; stroke-width: 1.5; stroke-linecap: square"/>
   </g>
   <g id="line2d_41">
    <defs>
     <path id="mf0087eb616" d="M 0 -6 
L -1.347084 -1.854102 
L -5.706339 -1.854102 
L -2.179628 0.708204 
L -3.526712 4.854102 
L -0 2.291796 
L 3.526712 4.854102 
L 2.179628 0.708204 
L 5.706339 -1.854102 
L 1.347084 -1.854102 
z
" style="stroke: #0000ff; stroke-width: 1.5; stroke-linejoin: bevel"/>
    </defs>
    <g>
     <use xlink:href="#mf0087eb616" x="106.699465" y="283.209517" style="fill-opacity: 0; stroke: #0000ff; stroke-width: 1.5; stroke-linejoin: bevel"/>
     <use xlink:href="#mf0087eb616" x="187.918118" y="258.411972" style="fill-opacity: 0; stroke: #0000ff; stroke-width: 1.5; stroke-linejoin: bevel"/>
     <use xlink:href="#mf0087eb616" x="187.918118" y="258.411972" style="fill-opacity: 0; stroke: #0000ff; stroke-width: 1.5; stroke-linejoin: bevel"/>
     <use xlink:href="#mf0087eb616" x="187.918118" y="258.286097" style="fill-opacity: 0; stroke: #0000ff; stroke-width: 1.5; stroke-linejoin: bevel"/>
     <use xlink:href="#mf0087eb616" x="187.918118" y="258.286097" style="fill-opacity: 0; stroke: #0000ff; stroke-width: 1.5; stroke-linejoin: bevel"/>
     <use xlink:href="#mf0087eb616" x="360.8064" y="258.286097" style="fill-opacity: 0; stroke: #0000ff; stroke-width: 1.5; stroke-linejoin: bevel"/>
    </g>
   </g>
   <g id="line2d_42">
    <path style="fill: none; stroke: #0000ff; stroke-width: 1.5; stroke-linecap: square"/>
    <g/>
   </g>
   <g id="line2d_43">
    <path d="M 187.921806 258.286097 
" clip-path="url(#pb609a63e8e)" style="fill: none; stroke: #0000ff; stroke-width: 1.5; stroke-linecap: square"/>
    <defs>
     <path id="me053772e9c" d="M -12 12 
L 12 -12 
M -12 -12 
L 12 12 
" style="stroke: #0000ff"/>
    </defs>
    <g clip-path="url(#pb609a63e8e)">
     <use xlink:href="#me053772e9c" x="187.921806" y="258.286097" style="fill: #0000ff; stroke: #0000ff"/>
    </g>
   </g>
   <g id="line2d_44">
    <defs>
     <path id="me4d4286b91" d="M 0 1.5 
C 0.397805 1.5 0.77937 1.341951 1.06066 1.06066 
C 1.341951 0.77937 1.5 0.397805 1.5 0 
C 1.5 -0.397805 1.341951 -0.77937 1.06066 -1.06066 
C 0.77937 -1.341951 0.397805 -1.5 0 -1.5 
C -0.397805 -1.5 -0.77937 -1.341951 -1.06066 -1.06066 
C -1.341951 -0.77937 -1.5 -0.397805 -1.5 0 
C -1.5 0.397805 -1.341951 0.77937 -1.06066 1.06066 
C -0.77937 1.341951 -0.397805 1.5 0 1.5 
z
" style="stroke: #000000"/>
    </defs>
    <g>
     <use xlink:href="#me4d4286b91" x="174.782796" y="283.587145" style="stroke: #000000"/>
     <use xlink:href="#me4d4286b91" x="174.782796" y="283.587145" style="stroke: #000000"/>
    </g>
   </g>
   <g id="line2d_45">
    <path d="M 14.2848 298.944 
L 14.2848 288.622179 
L 55.618005 288.622179 
L 55.618005 288.118676 
L 88.972154 288.118676 
L 88.972154 287.9928 
L 114.510421 287.9928 
L 114.510421 287.866924 
L 121.830966 287.866924 
L 121.830966 287.741048 
L 125.373824 287.741048 
L 125.373824 287.615172 
L 132.46399 287.615172 
L 132.46399 287.489297 
L 140.679868 287.489297 
L 140.679868 287.363421 
L 141.283499 287.363421 
L 141.283499 287.237545 
L 144.380294 287.237545 
L 144.380294 287.111669 
L 146.529503 287.111669 
L 146.529503 286.985793 
L 152.328451 286.985793 
L 152.328451 286.859917 
L 152.365109 286.859917 
L 152.365109 286.734041 
L 153.177416 286.734041 
L 153.177416 286.608166 
L 154.000911 286.608166 
L 154.000911 286.48229 
L 161.482294 286.48229 
L 161.482294 286.356414 
L 162.277267 286.356414 
L 162.277267 286.104662 
L 163.632702 286.104662 
L 163.632702 285.978786 
L 163.692963 285.978786 
L 163.692963 285.85291 
L 164.815309 285.85291 
L 164.815309 285.727034 
L 164.9471 285.727034 
L 164.9471 285.601159 
L 165.1152 285.601159 
L 165.1152 285.475283 
L 165.838694 285.475283 
L 165.838694 285.349407 
L 167.118257 285.349407 
L 167.118257 285.223531 
L 167.38933 285.223531 
L 167.38933 285.097655 
L 168.857418 285.097655 
L 168.857418 284.971779 
L 169.009206 284.971779 
L 169.009206 284.845903 
L 169.730915 284.845903 
L 169.730915 284.720028 
L 170.256946 284.720028 
L 170.256946 284.594152 
L 170.791599 284.594152 
L 170.791599 284.468276 
L 171.830387 284.468276 
L 171.830387 284.3424 
L 171.938512 284.3424 
L 171.938512 284.216524 
L 172.114503 284.216524 
L 172.114503 284.090648 
L 173.808912 284.090648 
L 173.808912 283.964772 
L 173.925682 283.964772 
L 173.925682 283.838897 
L 174.513949 283.838897 
L 174.513949 283.713021 
L 174.782796 283.713021 
L 174.782796 283.587145 
L 360.8064 283.587145 
" style="fill: none; stroke: #000000; stroke-width: 1.5; stroke-linecap: square"/>
   </g>
   <g id="line2d_46">
    <defs>
     <path id="m9ff91484e3" d="M 0 6 
C 1.591219 6 3.117479 5.367802 4.242641 4.242641 
C 5.367802 3.117479 6 1.591219 6 0 
C 6 -1.591219 5.367802 -3.117479 4.242641 -4.242641 
C 3.117479 -5.367802 1.591219 -6 0 -6 
C -1.591219 -6 -3.117479 -5.367802 -4.242641 -4.242641 
C -5.367802 -3.117479 -6 -1.591219 -6 0 
C -6 1.591219 -5.367802 3.117479 -4.242641 4.242641 
C -3.117479 5.367802 -1.591219 6 0 6 
z
" style="stroke: #000000; stroke-width: 1.5"/>
    </defs>
    <g>
     <use xlink:href="#m9ff91484e3" x="125.373824" y="287.615172" style="fill-opacity: 0; stroke: #000000; stroke-width: 1.5"/>
     <use xlink:href="#m9ff91484e3" x="174.782796" y="283.713021" style="fill-opacity: 0; stroke: #000000; stroke-width: 1.5"/>
     <use xlink:href="#m9ff91484e3" x="174.782796" y="283.587145" style="fill-opacity: 0; stroke: #000000; stroke-width: 1.5"/>
     <use xlink:href="#m9ff91484e3" x="174.782796" y="283.587145" style="fill-opacity: 0; stroke: #000000; stroke-width: 1.5"/>
     <use xlink:href="#m9ff91484e3" x="360.8064" y="283.587145" style="fill-opacity: 0; stroke: #000000; stroke-width: 1.5"/>
    </g>
   </g>
   <g id="line2d_47">
    <path style="fill: none; stroke: #000000; stroke-width: 1.5; stroke-linecap: square"/>
    <g/>
   </g>
   <g id="line2d_48">
    <path d="M 174.882632 283.587145 
" clip-path="url(#pb609a63e8e)" style="fill: none; stroke: #000000; stroke-width: 1.5; stroke-linecap: square"/>
    <defs>
     <path id="ma83154b3b5" d="M -12 12 
L 12 -12 
M -12 -12 
L 12 12 
" style="stroke: #000000"/>
    </defs>
    <g clip-path="url(#pb609a63e8e)">
     <use xlink:href="#ma83154b3b5" x="174.882632" y="283.587145" style="stroke: #000000"/>
    </g>
   </g>
   <g id="line2d_49">
    <defs>
     <path id="m7038880bcc" d="M 0 1.5 
C 0.397805 1.5 0.77937 1.341951 1.06066 1.06066 
C 1.341951 0.77937 1.5 0.397805 1.5 0 
C 1.5 -0.397805 1.341951 -0.77937 1.06066 -1.06066 
C 0.77937 -1.341951 0.397805 -1.5 0 -1.5 
C -0.397805 -1.5 -0.77937 -1.341951 -1.06066 -1.06066 
C -1.341951 -0.77937 -1.5 -0.397805 -1.5 0 
C -1.5 0.397805 -1.341951 0.77937 -1.06066 1.06066 
C -0.77937 1.341951 -0.397805 1.5 0 1.5 
z
" style="stroke: #ff0000"/>
    </defs>
    <g>
     <use xlink:href="#m7038880bcc" x="1.245626" y="287.489297" style="fill: #ff0000; stroke: #ff0000"/>
     <use xlink:href="#m7038880bcc" x="1.245626" y="287.489297" style="fill: #ff0000; stroke: #ff0000"/>
    </g>
   </g>
   <g id="line2d_50">
    <path d="M 1.245626 298.944 
L 1.245626 287.489297 
L 360.8064 287.489297 
" style="fill: none; stroke: #ff0000; stroke-width: 1.5; stroke-linecap: square"/>
   </g>
   <g id="line2d_51">
    <defs>
     <path id="m1a71e5e0d0" d="M -6 6 
L 6 6 
L 6 -6 
L -6 -6 
z
" style="stroke: #ff0000; stroke-width: 1.5; stroke-linejoin: miter"/>
    </defs>
    <g>
     <use xlink:href="#m1a71e5e0d0" x="360.8064" y="287.489297" style="fill-opacity: 0; stroke: #ff0000; stroke-width: 1.5; stroke-linejoin: miter"/>
    </g>
   </g>
   <g id="line2d_52">
    <path style="fill: none; stroke: #ff0000; stroke-width: 1.5; stroke-linecap: square"/>
    <g/>
   </g>
   <g id="line2d_53">
    <path d="M 161.843457 287.489297 
" clip-path="url(#pb609a63e8e)" style="fill: none; stroke: #ff0000; stroke-width: 1.5; stroke-linecap: square"/>
    <defs>
     <path id="m92da07bafb" d="M -12 12 
L 12 -12 
M -12 -12 
L 12 12 
" style="stroke: #ff0000"/>
    </defs>
    <g clip-path="url(#pb609a63e8e)">
     <use xlink:href="#m92da07bafb" x="161.843457" y="287.489297" style="fill: #ff0000; stroke: #ff0000"/>
    </g>
   </g>
   <g id="line2d_54">
    <defs>
     <path id="m89aa838e1c" d="M 0 1.5 
C 0.397805 1.5 0.77937 1.341951 1.06066 1.06066 
C 1.341951 0.77937 1.5 0.397805 1.5 0 
C 1.5 -0.397805 1.341951 -0.77937 1.06066 -1.06066 
C 0.77937 -1.341951 0.397805 -1.5 0 -1.5 
C -0.397805 -1.5 -0.77937 -1.341951 -1.06066 -1.06066 
C -1.341951 -0.77937 -1.5 -0.397805 -1.5 0 
C -1.5 0.397805 -1.341951 0.77937 -1.06066 1.06066 
C -0.77937 1.341951 -0.397805 1.5 0 1.5 
z
" style="stroke: #bf00bf"/>
    </defs>
    <g/>
   </g>
   <g id="line2d_55">
    <path d="M -1 286.356414 
L 360.8064 286.356414 
" style="fill: none; stroke: #bf00bf; stroke-width: 1.5; stroke-linecap: square"/>
   </g>
   <g id="line2d_56">
    <defs>
     <path id="m333024baa7" d="M 0 8.485281 
L 8.485281 0 
L 0 -8.485281 
L -8.485281 0 
z
" style="stroke: #bf00bf; stroke-width: 1.5; stroke-linejoin: miter"/>
    </defs>
    <g>
     <use xlink:href="#m333024baa7" x="360.8064" y="286.356414" style="fill-opacity: 0; stroke: #bf00bf; stroke-width: 1.5; stroke-linejoin: miter"/>
    </g>
   </g>
   <g id="line2d_57">
    <path style="fill: none; stroke: #bf00bf; stroke-width: 1.5; stroke-linecap: square"/>
    <g/>
   </g>
   <g id="line2d_58">
    <path d="M 148.804283 286.356414 
" clip-path="url(#pb609a63e8e)" style="fill: none; stroke: #bf00bf; stroke-width: 1.5; stroke-linecap: square"/>
    <defs>
     <path id="m95e42f53c8" d="M -12 12 
L 12 -12 
M -12 -12 
L 12 12 
" style="stroke: #bf00bf"/>
    </defs>
    <g clip-path="url(#pb609a63e8e)">
     <use xlink:href="#m95e42f53c8" x="148.804283" y="286.356414" style="fill: #bf00bf; stroke: #bf00bf"/>
    </g>
   </g>
   <g id="line2d_59">
    <path d="M 360.8064 287.489297 
L 380.514816 293.10336 
" style="fill: none; stroke: #ff0000; stroke-width: 1.5; stroke-linecap: square"/>
    <g>
     <use xlink:href="#m1a71e5e0d0" x="360.8064" y="287.489297" style="fill-opacity: 0; stroke: #ff0000; stroke-width: 1.5; stroke-linejoin: miter"/>
     <use xlink:href="#m1a71e5e0d0" x="380.514816" y="293.10336" style="fill-opacity: 0; stroke: #ff0000; stroke-width: 1.5; stroke-linejoin: miter"/>
    </g>
   </g>
   <g id="line2d_60">
    <path d="M 360.8064 286.356414 
L 380.514816 237.033216 
" style="fill: none; stroke: #bf00bf; stroke-width: 1.5; stroke-linecap: square"/>
    <g>
     <use xlink:href="#m333024baa7" x="360.8064" y="286.356414" style="fill-opacity: 0; stroke: #bf00bf; stroke-width: 1.5; stroke-linejoin: miter"/>
     <use xlink:href="#m333024baa7" x="380.514816" y="237.033216" style="fill-opacity: 0; stroke: #bf00bf; stroke-width: 1.5; stroke-linejoin: miter"/>
    </g>
   </g>
   <g id="line2d_61">
    <path d="M 360.8064 283.587145 
L 380.514816 180.963072 
" style="fill: none; stroke: #000000; stroke-width: 1.5; stroke-linecap: square"/>
    <g>
     <use xlink:href="#m9ff91484e3" x="360.8064" y="283.587145" style="fill-opacity: 0; stroke: #000000; stroke-width: 1.5"/>
     <use xlink:href="#m9ff91484e3" x="380.514816" y="180.963072" style="fill-opacity: 0; stroke: #000000; stroke-width: 1.5"/>
    </g>
   </g>
   <g id="line2d_62">
    <path d="M 360.8064 258.286097 
L 380.514816 124.892928 
" style="fill: none; stroke: #0000ff; stroke-width: 1.5; stroke-linecap: square"/>
    <g>
     <use xlink:href="#mf0087eb616" x="360.8064" y="258.286097" style="fill-opacity: 0; stroke: #0000ff; stroke-width: 1.5; stroke-linejoin: bevel"/>
     <use xlink:href="#mf0087eb616" x="380.514816" y="124.892928" style="fill-opacity: 0; stroke: #0000ff; stroke-width: 1.5; stroke-linejoin: bevel"/>
    </g>
   </g>
   <g id="line2d_63">
    <path d="M 360.8064 227.698262 
L 380.514816 68.822784 
" style="fill: none; stroke: #008000; stroke-width: 1.5; stroke-linecap: square"/>
    <g>
     <use xlink:href="#mfd8681af68" x="360.8064" y="227.698262" style="fill-opacity: 0; stroke: #008000; stroke-width: 1.5; stroke-linejoin: miter"/>
     <use xlink:href="#mfd8681af68" x="380.514816" y="68.822784" style="fill-opacity: 0; stroke: #008000; stroke-width: 1.5; stroke-linejoin: miter"/>
    </g>
   </g>
   <g id="line2d_64">
    <path d="M 360.8064 197.110428 
L 380.514816 12.75264 
" style="fill: none; stroke: #00bfbf; stroke-width: 1.5; stroke-linecap: square"/>
    <g>
     <use xlink:href="#m0bc4d9f0ce" x="360.8064" y="197.110428" style="fill-opacity: 0; stroke: #00bfbf; stroke-width: 1.5"/>
     <use xlink:href="#m0bc4d9f0ce" x="380.514816" y="12.75264" style="fill-opacity: 0; stroke: #00bfbf; stroke-width: 1.5"/>
    </g>
   </g>
   <g id="line2d_65">
    <path d="M 360.8064 298.944 
L 360.8064 6.912 
" style="fill: none; stroke: #000000; stroke-width: 1.5; stroke-linecap: square"/>
   </g>
   <g id="patch_3">
    <path d="M 57.6 298.944 
L 360.8064 298.944 
" style="fill: none; stroke: #000000; stroke-width: 0.8; stroke-linejoin: miter; stroke-linecap: square"/>
   </g>
   <g id="patch_4">
    <path d="M 57.6 6.912 
L 360.8064 6.912 
" style="fill: none; stroke: #000000; stroke-width: 0.8; stroke-linejoin: miter; stroke-linecap: square"/>
   </g>
   <g id="text_13">
    <!-- 20-D -->
    <g transform="translate(386.578944 296.966485)scale(0.14 -0.14)">
     <defs>
      <path id="DejaVuSans-44" d="M 1259 4147 
L 1259 519 
L 2022 519 
Q 2988 519 3436 956 
Q 3884 1394 3884 2338 
Q 3884 3275 3436 3711 
Q 2988 4147 2022 4147 
L 1259 4147 
z
M 628 4666 
L 1925 4666 
Q 3281 4666 3915 4102 
Q 4550 3538 4550 2338 
Q 4550 1131 3912 565 
Q 3275 0 1925 0 
L 628 0 
L 628 4666 
z
" transform="scale(0.015625)"/>
     </defs>
     <use xlink:href="#DejaVuSans-32"/>
     <use xlink:href="#DejaVuSans-30" x="63.623047"/>
     <use xlink:href="#DejaVuSans-2d" x="127.246094"/>
     <use xlink:href="#DejaVuSans-44" x="163.330078"/>
    </g>
   </g>
   <g id="text_14">
    <!-- 40-D -->
    <g transform="translate(386.578944 240.896341)scale(0.14 -0.14)">
     <use xlink:href="#DejaVuSans-34"/>
     <use xlink:href="#DejaVuSans-30" x="63.623047"/>
     <use xlink:href="#DejaVuSans-2d" x="127.246094"/>
     <use xlink:href="#DejaVuSans-44" x="163.330078"/>
    </g>
   </g>
   <g id="text_15">
    <!-- 10-D -->
    <g transform="translate(386.578944 184.826197)scale(0.14 -0.14)">
     <use xlink:href="#DejaVuSans-31"/>
     <use xlink:href="#DejaVuSans-30" x="63.623047"/>
     <use xlink:href="#DejaVuSans-2d" x="127.246094"/>
     <use xlink:href="#DejaVuSans-44" x="163.330078"/>
    </g>
   </g>
   <g id="text_16">
    <!-- 5-D -->
    <g transform="translate(386.578944 128.756053)scale(0.14 -0.14)">
     <defs>
      <path id="DejaVuSans-35" d="M 691 4666 
L 3169 4666 
L 3169 4134 
L 1269 4134 
L 1269 2991 
Q 1406 3038 1543 3061 
Q 1681 3084 1819 3084 
Q 2600 3084 3056 2656 
Q 3513 2228 3513 1497 
Q 3513 744 3044 326 
Q 2575 -91 1722 -91 
Q 1428 -91 1123 -41 
Q 819 9 494 109 
L 494 744 
Q 775 591 1075 516 
Q 1375 441 1709 441 
Q 2250 441 2565 725 
Q 2881 1009 2881 1497 
Q 2881 1984 2565 2268 
Q 2250 2553 1709 2553 
Q 1456 2553 1204 2497 
Q 953 2441 691 2322 
L 691 4666 
z
" transform="scale(0.015625)"/>
     </defs>
     <use xlink:href="#DejaVuSans-35"/>
     <use xlink:href="#DejaVuSans-2d" x="63.623047"/>
     <use xlink:href="#DejaVuSans-44" x="99.707031"/>
    </g>
   </g>
   <g id="text_17">
    <!-- 3-D -->
    <g transform="translate(386.578944 72.685909)scale(0.14 -0.14)">
     <defs>
      <path id="DejaVuSans-33" d="M 2597 2516 
Q 3050 2419 3304 2112 
Q 3559 1806 3559 1356 
Q 3559 666 3084 287 
Q 2609 -91 1734 -91 
Q 1441 -91 1130 -33 
Q 819 25 488 141 
L 488 750 
Q 750 597 1062 519 
Q 1375 441 1716 441 
Q 2309 441 2620 675 
Q 2931 909 2931 1356 
Q 2931 1769 2642 2001 
Q 2353 2234 1838 2234 
L 1294 2234 
L 1294 2753 
L 1863 2753 
Q 2328 2753 2575 2939 
Q 2822 3125 2822 3475 
Q 2822 3834 2567 4026 
Q 2313 4219 1838 4219 
Q 1578 4219 1281 4162 
Q 984 4106 628 3988 
L 628 4550 
Q 988 4650 1302 4700 
Q 1616 4750 1894 4750 
Q 2613 4750 3031 4423 
Q 3450 4097 3450 3541 
Q 3450 3153 3228 2886 
Q 3006 2619 2597 2516 
z
" transform="scale(0.015625)"/>
     </defs>
     <use xlink:href="#DejaVuSans-33"/>
     <use xlink:href="#DejaVuSans-2d" x="63.623047"/>
     <use xlink:href="#DejaVuSans-44" x="99.707031"/>
    </g>
   </g>
   <g id="text_18">
    <!-- 2-D -->
    <g transform="translate(386.578944 16.615765)scale(0.14 -0.14)">
     <use xlink:href="#DejaVuSans-32"/>
     <use xlink:href="#DejaVuSans-2d" x="63.623047"/>
     <use xlink:href="#DejaVuSans-44" x="99.707031"/>
    </g>
   </g>
   <g id="text_19">
    <!-- bbob-biobj f22, f23, f29, f30 -->
    <g transform="translate(60.632064 17.582726)scale(0.102 -0.102)">
     <defs>
      <path id="DejaVuSans-62" d="M 3116 1747 
Q 3116 2381 2855 2742 
Q 2594 3103 2138 3103 
Q 1681 3103 1420 2742 
Q 1159 2381 1159 1747 
Q 1159 1113 1420 752 
Q 1681 391 2138 391 
Q 2594 391 2855 752 
Q 3116 1113 3116 1747 
z
M 1159 2969 
Q 1341 3281 1617 3432 
Q 1894 3584 2278 3584 
Q 2916 3584 3314 3078 
Q 3713 2572 3713 1747 
Q 3713 922 3314 415 
Q 2916 -91 2278 -91 
Q 1894 -91 1617 61 
Q 1341 213 1159 525 
L 1159 0 
L 581 0 
L 581 4863 
L 1159 4863 
L 1159 2969 
z
" transform="scale(0.015625)"/>
      <path id="DejaVuSans-6a" d="M 603 3500 
L 1178 3500 
L 1178 -63 
Q 1178 -731 923 -1031 
Q 669 -1331 103 -1331 
L -116 -1331 
L -116 -844 
L 38 -844 
Q 366 -844 484 -692 
Q 603 -541 603 -63 
L 603 3500 
z
M 603 4863 
L 1178 4863 
L 1178 4134 
L 603 4134 
L 603 4863 
z
" transform="scale(0.015625)"/>
      <path id="DejaVuSans-39" d="M 703 97 
L 703 672 
Q 941 559 1184 500 
Q 1428 441 1663 441 
Q 2288 441 2617 861 
Q 2947 1281 2994 2138 
Q 2813 1869 2534 1725 
Q 2256 1581 1919 1581 
Q 1219 1581 811 2004 
Q 403 2428 403 3163 
Q 403 3881 828 4315 
Q 1253 4750 1959 4750 
Q 2769 4750 3195 4129 
Q 3622 3509 3622 2328 
Q 3622 1225 3098 567 
Q 2575 -91 1691 -91 
Q 1453 -91 1209 -44 
Q 966 3 703 97 
z
M 1959 2075 
Q 2384 2075 2632 2365 
Q 2881 2656 2881 3163 
Q 2881 3666 2632 3958 
Q 2384 4250 1959 4250 
Q 1534 4250 1286 3958 
Q 1038 3666 1038 3163 
Q 1038 2656 1286 2365 
Q 1534 2075 1959 2075 
z
" transform="scale(0.015625)"/>
     </defs>
     <use xlink:href="#DejaVuSans-62"/>
     <use xlink:href="#DejaVuSans-62" x="63.476562"/>
     <use xlink:href="#DejaVuSans-6f" x="126.953125"/>
     <use xlink:href="#DejaVuSans-62" x="188.134766"/>
     <use xlink:href="#DejaVuSans-2d" x="251.611328"/>
     <use xlink:href="#DejaVuSans-62" x="287.695312"/>
     <use xlink:href="#DejaVuSans-69" x="351.171875"/>
     <use xlink:href="#DejaVuSans-6f" x="378.955078"/>
     <use xlink:href="#DejaVuSans-62" x="440.136719"/>
     <use xlink:href="#DejaVuSans-6a" x="503.613281"/>
     <use xlink:href="#DejaVuSans-20" x="531.396484"/>
     <use xlink:href="#DejaVuSans-66" x="563.183594"/>
     <use xlink:href="#DejaVuSans-32" x="598.388672"/>
     <use xlink:href="#DejaVuSans-32" x="662.011719"/>
     <use xlink:href="#DejaVuSans-2c" x="725.634766"/>
     <use xlink:href="#DejaVuSans-20" x="757.421875"/>
     <use xlink:href="#DejaVuSans-66" x="789.208984"/>
     <use xlink:href="#DejaVuSans-32" x="824.414062"/>
     <use xlink:href="#DejaVuSans-33" x="888.037109"/>
     <use xlink:href="#DejaVuSans-2c" x="951.660156"/>
     <use xlink:href="#DejaVuSans-20" x="983.447266"/>
     <use xlink:href="#DejaVuSans-66" x="1015.234375"/>
     <use xlink:href="#DejaVuSans-32" x="1050.439453"/>
     <use xlink:href="#DejaVuSans-39" x="1114.0625"/>
     <use xlink:href="#DejaVuSans-2c" x="1177.685547"/>
     <use xlink:href="#DejaVuSans-20" x="1209.472656"/>
     <use xlink:href="#DejaVuSans-66" x="1241.259766"/>
     <use xlink:href="#DejaVuSans-33" x="1276.464844"/>
     <use xlink:href="#DejaVuSans-30" x="1340.087891"/>
    </g>
    <!-- 58 targets: 1..-1.0e-4 -->
    <g transform="translate(60.632064 29.004495)scale(0.102 -0.102)">
     <defs>
      <path id="DejaVuSans-3a" d="M 750 794 
L 1409 794 
L 1409 0 
L 750 0 
L 750 794 
z
M 750 3309 
L 1409 3309 
L 1409 2516 
L 750 2516 
L 750 3309 
z
" transform="scale(0.015625)"/>
     </defs>
     <use xlink:href="#DejaVuSans-35"/>
     <use xlink:href="#DejaVuSans-38" x="63.623047"/>
     <use xlink:href="#DejaVuSans-20" x="127.246094"/>
     <use xlink:href="#DejaVuSans-74" x="159.033203"/>
     <use xlink:href="#DejaVuSans-61" x="198.242188"/>
     <use xlink:href="#DejaVuSans-72" x="259.521484"/>
     <use xlink:href="#DejaVuSans-67" x="298.884766"/>
     <use xlink:href="#DejaVuSans-65" x="362.361328"/>
     <use xlink:href="#DejaVuSans-74" x="423.884766"/>
     <use xlink:href="#DejaVuSans-73" x="463.09375"/>
     <use xlink:href="#DejaVuSans-3a" x="515.193359"/>
     <use xlink:href="#DejaVuSans-20" x="548.884766"/>
     <use xlink:href="#DejaVuSans-31" x="580.671875"/>
     <use xlink:href="#DejaVuSans-2e" x="644.294922"/>
     <use xlink:href="#DejaVuSans-2e" x="676.082031"/>
     <use xlink:href="#DejaVuSans-2d" x="707.869141"/>
     <use xlink:href="#DejaVuSans-31" x="743.953125"/>
     <use xlink:href="#DejaVuSans-2e" x="807.576172"/>
     <use xlink:href="#DejaVuSans-30" x="839.363281"/>
     <use xlink:href="#DejaVuSans-65" x="902.986328"/>
     <use xlink:href="#DejaVuSans-2d" x="964.509766"/>
     <use xlink:href="#DejaVuSans-34" x="1000.59375"/>
    </g>
    <!-- 10 instances -->
    <g transform="translate(60.632064 40.426264)scale(0.102 -0.102)">
     <use xlink:href="#DejaVuSans-31"/>
     <use xlink:href="#DejaVuSans-30" x="63.623047"/>
     <use xlink:href="#DejaVuSans-20" x="127.246094"/>
     <use xlink:href="#DejaVuSans-69" x="159.033203"/>
     <use xlink:href="#DejaVuSans-6e" x="186.816406"/>
     <use xlink:href="#DejaVuSans-73" x="250.195312"/>
     <use xlink:href="#DejaVuSans-74" x="302.294922"/>
     <use xlink:href="#DejaVuSans-61" x="341.503906"/>
     <use xlink:href="#DejaVuSans-6e" x="402.783203"/>
     <use xlink:href="#DejaVuSans-63" x="466.162109"/>
     <use xlink:href="#DejaVuSans-65" x="521.142578"/>
     <use xlink:href="#DejaVuSans-73" x="582.666016"/>
    </g>
   </g>
   <g id="text_20">
    <!-- v2.6, hv-hash=ff0e71e8cd978373 -->
    <g style="fill: #808080" transform="translate(123.707887 293.943992)scale(0.1 -0.1)">
     <defs>
      <path id="DejaVuSans-68" d="M 3513 2113 
L 3513 0 
L 2938 0 
L 2938 2094 
Q 2938 2591 2744 2837 
Q 2550 3084 2163 3084 
Q 1697 3084 1428 2787 
Q 1159 2491 1159 1978 
L 1159 0 
L 581 0 
L 581 4863 
L 1159 4863 
L 1159 2956 
Q 1366 3272 1645 3428 
Q 1925 3584 2291 3584 
Q 2894 3584 3203 3211 
Q 3513 2838 3513 2113 
z
" transform="scale(0.015625)"/>
      <path id="DejaVuSans-3d" d="M 678 2906 
L 4684 2906 
L 4684 2381 
L 678 2381 
L 678 2906 
z
M 678 1631 
L 4684 1631 
L 4684 1100 
L 678 1100 
L 678 1631 
z
" transform="scale(0.015625)"/>
      <path id="DejaVuSans-37" d="M 525 4666 
L 3525 4666 
L 3525 4397 
L 1831 0 
L 1172 0 
L 2766 4134 
L 525 4134 
L 525 4666 
z
" transform="scale(0.015625)"/>
     </defs>
     <use xlink:href="#DejaVuSans-76"/>
     <use xlink:href="#DejaVuSans-32" x="59.179688"/>
     <use xlink:href="#DejaVuSans-2e" x="122.802734"/>
     <use xlink:href="#DejaVuSans-36" x="154.589844"/>
     <use xlink:href="#DejaVuSans-2c" x="218.212891"/>
     <use xlink:href="#DejaVuSans-20" x="250"/>
     <use xlink:href="#DejaVuSans-68" x="281.787109"/>
     <use xlink:href="#DejaVuSans-76" x="345.166016"/>
     <use xlink:href="#DejaVuSans-2d" x="401.720703"/>
     <use xlink:href="#DejaVuSans-68" x="437.804688"/>
     <use xlink:href="#DejaVuSans-61" x="501.183594"/>
     <use xlink:href="#DejaVuSans-73" x="562.462891"/>
     <use xlink:href="#DejaVuSans-68" x="614.5625"/>
     <use xlink:href="#DejaVuSans-3d" x="677.941406"/>
     <use xlink:href="#DejaVuSans-66" x="761.730469"/>
     <use xlink:href="#DejaVuSans-66" x="796.935547"/>
     <use xlink:href="#DejaVuSans-30" x="832.140625"/>
     <use xlink:href="#DejaVuSans-65" x="895.763672"/>
     <use xlink:href="#DejaVuSans-37" x="957.287109"/>
     <use xlink:href="#DejaVuSans-31" x="1020.910156"/>
     <use xlink:href="#DejaVuSans-65" x="1084.533203"/>
     <use xlink:href="#DejaVuSans-38" x="1146.056641"/>
     <use xlink:href="#DejaVuSans-63" x="1209.679688"/>
     <use xlink:href="#DejaVuSans-64" x="1264.660156"/>
     <use xlink:href="#DejaVuSans-39" x="1328.136719"/>
     <use xlink:href="#DejaVuSans-37" x="1391.759766"/>
     <use xlink:href="#DejaVuSans-38" x="1455.382812"/>
     <use xlink:href="#DejaVuSans-33" x="1519.005859"/>
     <use xlink:href="#DejaVuSans-37" x="1582.628906"/>
     <use xlink:href="#DejaVuSans-33" x="1646.251953"/>
    </g>
   </g>
  </g>
 </g>
 <defs>
  <clipPath id="pb609a63e8e">
   <rect x="57.6" y="6.912" width="303.2064" height="292.032"/>
  </clipPath>
 </defs>
</svg>
