<?xml version="1.0" encoding="utf-8" standalone="no"?>
<!DOCTYPE svg PUBLIC "-//W3C//DTD SVG 1.1//EN"
  "http://www.w3.org/Graphics/SVG/1.1/DTD/svg11.dtd">
<svg xmlns:xlink="http://www.w3.org/1999/xlink" width="460.8pt" height="345.6pt" viewBox="0 0 460.8 345.6" xmlns="http://www.w3.org/2000/svg" version="1.1">
 <metadata>
  <rdf:RDF xmlns:dc="http://purl.org/dc/elements/1.1/" xmlns:cc="http://creativecommons.org/ns#" xmlns:rdf="http://www.w3.org/1999/02/22-rdf-syntax-ns#">
   <cc:Work>
    <dc:type rdf:resource="http://purl.org/dc/dcmitype/StillImage"/>
    <dc:date>2022-06-19T17:22:31.019355</dc:date>
    <dc:format>image/svg+xml</dc:format>
    <dc:creator>
     <cc:Agent>
      <dc:title>Matplotlib v3.5.2, https://matplotlib.org/</dc:title>
     </cc:Agent>
    </dc:creator>
   </cc:Work>
  </rdf:RDF>
 </metadata>
 <defs>
  <style type="text/css">*{stroke-linejoin: round; stroke-linecap: butt}</style>
 </defs>
 <g id="figure_1">
  <g id="patch_1">
   <path d="M 0 345.6 
L 460.8 345.6 
L 460.8 0 
L 0 0 
z
" style="fill: #ffffff"/>
  </g>
  <g id="axes_1">
   <g id="patch_2">
    <path d="M 57.6 298.944 
L 360.8064 298.944 
L 360.8064 6.912 
L 57.6 6.912 
z
" style="fill: #ffffff"/>
   </g>
   <g id="matplotlib.axis_1">
    <g id="xtick_1">
     <g id="line2d_1">
      <path d="M 57.6 298.944 
L 57.6 6.912 
" clip-path="url(#pcac8d77de0)" style="fill: none; stroke: #b0b0b0; stroke-width: 0.8; stroke-linecap: square"/>
     </g>
     <g id="line2d_2">
      <defs>
       <path id="ma5ef15eeb4" d="M 0 0 
L 0 3.5 
" style="stroke: #000000; stroke-width: 0.8"/>
      </defs>
      <g>
       <use xlink:href="#ma5ef15eeb4" x="57.6" y="298.944" style="stroke: #000000; stroke-width: 0.8"/>
      </g>
     </g>
     <g id="text_1">
      <!-- 0 -->
      <g transform="translate(52.191875 318.861344)scale(0.17 -0.17)">
       <defs>
        <path id="DejaVuSans-30" d="M 2034 4250 
Q 1547 4250 1301 3770 
Q 1056 3291 1056 2328 
Q 1056 1369 1301 889 
Q 1547 409 2034 409 
Q 2525 409 2770 889 
Q 3016 1369 3016 2328 
Q 3016 3291 2770 3770 
Q 2525 4250 2034 4250 
z
M 2034 4750 
Q 2819 4750 3233 4129 
Q 3647 3509 3647 2328 
Q 3647 1150 3233 529 
Q 2819 -91 2034 -91 
Q 1250 -91 836 529 
Q 422 1150 422 2328 
Q 422 3509 836 4129 
Q 1250 4750 2034 4750 
z
" transform="scale(0.015625)"/>
       </defs>
       <use xlink:href="#DejaVuSans-30"/>
      </g>
     </g>
    </g>
    <g id="xtick_2">
     <g id="line2d_3">
      <path d="M 144.2304 298.944 
L 144.2304 6.912 
" clip-path="url(#pcac8d77de0)" style="fill: none; stroke: #b0b0b0; stroke-width: 0.8; stroke-linecap: square"/>
     </g>
     <g id="line2d_4">
      <g>
       <use xlink:href="#ma5ef15eeb4" x="144.2304" y="298.944" style="stroke: #000000; stroke-width: 0.8"/>
      </g>
     </g>
     <g id="text_2">
      <!-- 2 -->
      <g transform="translate(138.822275 318.861344)scale(0.17 -0.17)">
       <defs>
        <path id="DejaVuSans-32" d="M 1228 531 
L 3431 531 
L 3431 0 
L 469 0 
L 469 531 
Q 828 903 1448 1529 
Q 2069 2156 2228 2338 
Q 2531 2678 2651 2914 
Q 2772 3150 2772 3378 
Q 2772 3750 2511 3984 
Q 2250 4219 1831 4219 
Q 1534 4219 1204 4116 
Q 875 4013 500 3803 
L 500 4441 
Q 881 4594 1212 4672 
Q 1544 4750 1819 4750 
Q 2544 4750 2975 4387 
Q 3406 4025 3406 3419 
Q 3406 3131 3298 2873 
Q 3191 2616 2906 2266 
Q 2828 2175 2409 1742 
Q 1991 1309 1228 531 
z
" transform="scale(0.015625)"/>
       </defs>
       <use xlink:href="#DejaVuSans-32"/>
      </g>
     </g>
    </g>
    <g id="xtick_3">
     <g id="line2d_5">
      <path d="M 230.8608 298.944 
L 230.8608 6.912 
" clip-path="url(#pcac8d77de0)" style="fill: none; stroke: #b0b0b0; stroke-width: 0.8; stroke-linecap: square"/>
     </g>
     <g id="line2d_6">
      <g>
       <use xlink:href="#ma5ef15eeb4" x="230.8608" y="298.944" style="stroke: #000000; stroke-width: 0.8"/>
      </g>
     </g>
     <g id="text_3">
      <!-- 4 -->
      <g transform="translate(225.452675 318.861344)scale(0.17 -0.17)">
       <defs>
        <path id="DejaVuSans-34" d="M 2419 4116 
L 825 1625 
L 2419 1625 
L 2419 4116 
z
M 2253 4666 
L 3047 4666 
L 3047 1625 
L 3713 1625 
L 3713 1100 
L 3047 1100 
L 3047 0 
L 2419 0 
L 2419 1100 
L 313 1100 
L 313 1709 
L 2253 4666 
z
" transform="scale(0.015625)"/>
       </defs>
       <use xlink:href="#DejaVuSans-34"/>
      </g>
     </g>
    </g>
    <g id="xtick_4">
     <g id="line2d_7">
      <path d="M 317.4912 298.944 
L 317.4912 6.912 
" clip-path="url(#pcac8d77de0)" style="fill: none; stroke: #b0b0b0; stroke-width: 0.8; stroke-linecap: square"/>
     </g>
     <g id="line2d_8">
      <g>
       <use xlink:href="#ma5ef15eeb4" x="317.4912" y="298.944" style="stroke: #000000; stroke-width: 0.8"/>
      </g>
     </g>
     <g id="text_4">
      <!-- 6 -->
      <g transform="translate(312.083075 318.861344)scale(0.17 -0.17)">
       <defs>
        <path id="DejaVuSans-36" d="M 2113 2584 
Q 1688 2584 1439 2293 
Q 1191 2003 1191 1497 
Q 1191 994 1439 701 
Q 1688 409 2113 409 
Q 2538 409 2786 701 
Q 3034 994 3034 1497 
Q 3034 2003 2786 2293 
Q 2538 2584 2113 2584 
z
M 3366 4563 
L 3366 3988 
Q 3128 4100 2886 4159 
Q 2644 4219 2406 4219 
Q 1781 4219 1451 3797 
Q 1122 3375 1075 2522 
Q 1259 2794 1537 2939 
Q 1816 3084 2150 3084 
Q 2853 3084 3261 2657 
Q 3669 2231 3669 1497 
Q 3669 778 3244 343 
Q 2819 -91 2113 -91 
Q 1303 -91 875 529 
Q 447 1150 447 2328 
Q 447 3434 972 4092 
Q 1497 4750 2381 4750 
Q 2619 4750 2861 4703 
Q 3103 4656 3366 4563 
z
" transform="scale(0.015625)"/>
       </defs>
       <use xlink:href="#DejaVuSans-36"/>
      </g>
     </g>
    </g>
    <g id="xtick_5">
     <g id="line2d_9">
      <path d="M 100.9152 298.944 
L 100.9152 6.912 
" clip-path="url(#pcac8d77de0)" style="fill: none; stroke: #b0b0b0; stroke-width: 0.8; stroke-linecap: square"/>
     </g>
     <g id="line2d_10">
      <defs>
       <path id="mc38c9322ea" d="M 0 0 
L 0 2 
" style="stroke: #000000; stroke-width: 0.6"/>
      </defs>
      <g>
       <use xlink:href="#mc38c9322ea" x="100.9152" y="298.944" style="stroke: #000000; stroke-width: 0.6"/>
      </g>
     </g>
    </g>
    <g id="xtick_6">
     <g id="line2d_11">
      <path d="M 187.5456 298.944 
L 187.5456 6.912 
" clip-path="url(#pcac8d77de0)" style="fill: none; stroke: #b0b0b0; stroke-width: 0.8; stroke-linecap: square"/>
     </g>
     <g id="line2d_12">
      <g>
       <use xlink:href="#mc38c9322ea" x="187.5456" y="298.944" style="stroke: #000000; stroke-width: 0.6"/>
      </g>
     </g>
    </g>
    <g id="xtick_7">
     <g id="line2d_13">
      <path d="M 274.176 298.944 
L 274.176 6.912 
" clip-path="url(#pcac8d77de0)" style="fill: none; stroke: #b0b0b0; stroke-width: 0.8; stroke-linecap: square"/>
     </g>
     <g id="line2d_14">
      <g>
       <use xlink:href="#mc38c9322ea" x="274.176" y="298.944" style="stroke: #000000; stroke-width: 0.6"/>
      </g>
     </g>
    </g>
    <g id="xtick_8">
     <g id="line2d_15">
      <path d="M 360.8064 298.944 
L 360.8064 6.912 
" clip-path="url(#pcac8d77de0)" style="fill: none; stroke: #b0b0b0; stroke-width: 0.8; stroke-linecap: square"/>
     </g>
     <g id="line2d_16">
      <g>
       <use xlink:href="#mc38c9322ea" x="360.8064" y="298.944" style="stroke: #000000; stroke-width: 0.6"/>
      </g>
     </g>
    </g>
    <g id="text_5">
     <!-- log10(# f-evals / dimension) -->
     <g transform="translate(88.823278 339.314156)scale(0.17 -0.17)">
      <defs>
       <path id="DejaVuSans-6c" d="M 603 4863 
L 1178 4863 
L 1178 0 
L 603 0 
L 603 4863 
z
" transform="scale(0.015625)"/>
       <path id="DejaVuSans-6f" d="M 1959 3097 
Q 1497 3097 1228 2736 
Q 959 2375 959 1747 
Q 959 1119 1226 758 
Q 1494 397 1959 397 
Q 2419 397 2687 759 
Q 2956 1122 2956 1747 
Q 2956 2369 2687 2733 
Q 2419 3097 1959 3097 
z
M 1959 3584 
Q 2709 3584 3137 3096 
Q 3566 2609 3566 1747 
Q 3566 888 3137 398 
Q 2709 -91 1959 -91 
Q 1206 -91 779 398 
Q 353 888 353 1747 
Q 353 2609 779 3096 
Q 1206 3584 1959 3584 
z
" transform="scale(0.015625)"/>
       <path id="DejaVuSans-67" d="M 2906 1791 
Q 2906 2416 2648 2759 
Q 2391 3103 1925 3103 
Q 1463 3103 1205 2759 
Q 947 2416 947 1791 
Q 947 1169 1205 825 
Q 1463 481 1925 481 
Q 2391 481 2648 825 
Q 2906 1169 2906 1791 
z
M 3481 434 
Q 3481 -459 3084 -895 
Q 2688 -1331 1869 -1331 
Q 1566 -1331 1297 -1286 
Q 1028 -1241 775 -1147 
L 775 -588 
Q 1028 -725 1275 -790 
Q 1522 -856 1778 -856 
Q 2344 -856 2625 -561 
Q 2906 -266 2906 331 
L 2906 616 
Q 2728 306 2450 153 
Q 2172 0 1784 0 
Q 1141 0 747 490 
Q 353 981 353 1791 
Q 353 2603 747 3093 
Q 1141 3584 1784 3584 
Q 2172 3584 2450 3431 
Q 2728 3278 2906 2969 
L 2906 3500 
L 3481 3500 
L 3481 434 
z
" transform="scale(0.015625)"/>
       <path id="DejaVuSans-31" d="M 794 531 
L 1825 531 
L 1825 4091 
L 703 3866 
L 703 4441 
L 1819 4666 
L 2450 4666 
L 2450 531 
L 3481 531 
L 3481 0 
L 794 0 
L 794 531 
z
" transform="scale(0.015625)"/>
       <path id="DejaVuSans-28" d="M 1984 4856 
Q 1566 4138 1362 3434 
Q 1159 2731 1159 2009 
Q 1159 1288 1364 580 
Q 1569 -128 1984 -844 
L 1484 -844 
Q 1016 -109 783 600 
Q 550 1309 550 2009 
Q 550 2706 781 3412 
Q 1013 4119 1484 4856 
L 1984 4856 
z
" transform="scale(0.015625)"/>
       <path id="DejaVuSans-23" d="M 3272 2816 
L 2363 2816 
L 2100 1772 
L 3016 1772 
L 3272 2816 
z
M 2803 4594 
L 2478 3297 
L 3391 3297 
L 3719 4594 
L 4219 4594 
L 3897 3297 
L 4872 3297 
L 4872 2816 
L 3775 2816 
L 3519 1772 
L 4513 1772 
L 4513 1294 
L 3397 1294 
L 3072 0 
L 2572 0 
L 2894 1294 
L 1978 1294 
L 1656 0 
L 1153 0 
L 1478 1294 
L 494 1294 
L 494 1772 
L 1594 1772 
L 1856 2816 
L 850 2816 
L 850 3297 
L 1978 3297 
L 2297 4594 
L 2803 4594 
z
" transform="scale(0.015625)"/>
       <path id="DejaVuSans-20" transform="scale(0.015625)"/>
       <path id="DejaVuSans-66" d="M 2375 4863 
L 2375 4384 
L 1825 4384 
Q 1516 4384 1395 4259 
Q 1275 4134 1275 3809 
L 1275 3500 
L 2222 3500 
L 2222 3053 
L 1275 3053 
L 1275 0 
L 697 0 
L 697 3053 
L 147 3053 
L 147 3500 
L 697 3500 
L 697 3744 
Q 697 4328 969 4595 
Q 1241 4863 1831 4863 
L 2375 4863 
z
" transform="scale(0.015625)"/>
       <path id="DejaVuSans-2d" d="M 313 2009 
L 1997 2009 
L 1997 1497 
L 313 1497 
L 313 2009 
z
" transform="scale(0.015625)"/>
       <path id="DejaVuSans-65" d="M 3597 1894 
L 3597 1613 
L 953 1613 
Q 991 1019 1311 708 
Q 1631 397 2203 397 
Q 2534 397 2845 478 
Q 3156 559 3463 722 
L 3463 178 
Q 3153 47 2828 -22 
Q 2503 -91 2169 -91 
Q 1331 -91 842 396 
Q 353 884 353 1716 
Q 353 2575 817 3079 
Q 1281 3584 2069 3584 
Q 2775 3584 3186 3129 
Q 3597 2675 3597 1894 
z
M 3022 2063 
Q 3016 2534 2758 2815 
Q 2500 3097 2075 3097 
Q 1594 3097 1305 2825 
Q 1016 2553 972 2059 
L 3022 2063 
z
" transform="scale(0.015625)"/>
       <path id="DejaVuSans-76" d="M 191 3500 
L 800 3500 
L 1894 563 
L 2988 3500 
L 3597 3500 
L 2284 0 
L 1503 0 
L 191 3500 
z
" transform="scale(0.015625)"/>
       <path id="DejaVuSans-61" d="M 2194 1759 
Q 1497 1759 1228 1600 
Q 959 1441 959 1056 
Q 959 750 1161 570 
Q 1363 391 1709 391 
Q 2188 391 2477 730 
Q 2766 1069 2766 1631 
L 2766 1759 
L 2194 1759 
z
M 3341 1997 
L 3341 0 
L 2766 0 
L 2766 531 
Q 2569 213 2275 61 
Q 1981 -91 1556 -91 
Q 1019 -91 701 211 
Q 384 513 384 1019 
Q 384 1609 779 1909 
Q 1175 2209 1959 2209 
L 2766 2209 
L 2766 2266 
Q 2766 2663 2505 2880 
Q 2244 3097 1772 3097 
Q 1472 3097 1187 3025 
Q 903 2953 641 2809 
L 641 3341 
Q 956 3463 1253 3523 
Q 1550 3584 1831 3584 
Q 2591 3584 2966 3190 
Q 3341 2797 3341 1997 
z
" transform="scale(0.015625)"/>
       <path id="DejaVuSans-73" d="M 2834 3397 
L 2834 2853 
Q 2591 2978 2328 3040 
Q 2066 3103 1784 3103 
Q 1356 3103 1142 2972 
Q 928 2841 928 2578 
Q 928 2378 1081 2264 
Q 1234 2150 1697 2047 
L 1894 2003 
Q 2506 1872 2764 1633 
Q 3022 1394 3022 966 
Q 3022 478 2636 193 
Q 2250 -91 1575 -91 
Q 1294 -91 989 -36 
Q 684 19 347 128 
L 347 722 
Q 666 556 975 473 
Q 1284 391 1588 391 
Q 1994 391 2212 530 
Q 2431 669 2431 922 
Q 2431 1156 2273 1281 
Q 2116 1406 1581 1522 
L 1381 1569 
Q 847 1681 609 1914 
Q 372 2147 372 2553 
Q 372 3047 722 3315 
Q 1072 3584 1716 3584 
Q 2034 3584 2315 3537 
Q 2597 3491 2834 3397 
z
" transform="scale(0.015625)"/>
       <path id="DejaVuSans-2f" d="M 1625 4666 
L 2156 4666 
L 531 -594 
L 0 -594 
L 1625 4666 
z
" transform="scale(0.015625)"/>
       <path id="DejaVuSans-64" d="M 2906 2969 
L 2906 4863 
L 3481 4863 
L 3481 0 
L 2906 0 
L 2906 525 
Q 2725 213 2448 61 
Q 2172 -91 1784 -91 
Q 1150 -91 751 415 
Q 353 922 353 1747 
Q 353 2572 751 3078 
Q 1150 3584 1784 3584 
Q 2172 3584 2448 3432 
Q 2725 3281 2906 2969 
z
M 947 1747 
Q 947 1113 1208 752 
Q 1469 391 1925 391 
Q 2381 391 2643 752 
Q 2906 1113 2906 1747 
Q 2906 2381 2643 2742 
Q 2381 3103 1925 3103 
Q 1469 3103 1208 2742 
Q 947 2381 947 1747 
z
" transform="scale(0.015625)"/>
       <path id="DejaVuSans-69" d="M 603 3500 
L 1178 3500 
L 1178 0 
L 603 0 
L 603 3500 
z
M 603 4863 
L 1178 4863 
L 1178 4134 
L 603 4134 
L 603 4863 
z
" transform="scale(0.015625)"/>
       <path id="DejaVuSans-6d" d="M 3328 2828 
Q 3544 3216 3844 3400 
Q 4144 3584 4550 3584 
Q 5097 3584 5394 3201 
Q 5691 2819 5691 2113 
L 5691 0 
L 5113 0 
L 5113 2094 
Q 5113 2597 4934 2840 
Q 4756 3084 4391 3084 
Q 3944 3084 3684 2787 
Q 3425 2491 3425 1978 
L 3425 0 
L 2847 0 
L 2847 2094 
Q 2847 2600 2669 2842 
Q 2491 3084 2119 3084 
Q 1678 3084 1418 2786 
Q 1159 2488 1159 1978 
L 1159 0 
L 581 0 
L 581 3500 
L 1159 3500 
L 1159 2956 
Q 1356 3278 1631 3431 
Q 1906 3584 2284 3584 
Q 2666 3584 2933 3390 
Q 3200 3197 3328 2828 
z
" transform="scale(0.015625)"/>
       <path id="DejaVuSans-6e" d="M 3513 2113 
L 3513 0 
L 2938 0 
L 2938 2094 
Q 2938 2591 2744 2837 
Q 2550 3084 2163 3084 
Q 1697 3084 1428 2787 
Q 1159 2491 1159 1978 
L 1159 0 
L 581 0 
L 581 3500 
L 1159 3500 
L 1159 2956 
Q 1366 3272 1645 3428 
Q 1925 3584 2291 3584 
Q 2894 3584 3203 3211 
Q 3513 2838 3513 2113 
z
" transform="scale(0.015625)"/>
       <path id="DejaVuSans-29" d="M 513 4856 
L 1013 4856 
Q 1481 4119 1714 3412 
Q 1947 2706 1947 2009 
Q 1947 1309 1714 600 
Q 1481 -109 1013 -844 
L 513 -844 
Q 928 -128 1133 580 
Q 1338 1288 1338 2009 
Q 1338 2731 1133 3434 
Q 928 4138 513 4856 
z
" transform="scale(0.015625)"/>
      </defs>
      <use xlink:href="#DejaVuSans-6c"/>
      <use xlink:href="#DejaVuSans-6f" x="27.783203"/>
      <use xlink:href="#DejaVuSans-67" x="88.964844"/>
      <use xlink:href="#DejaVuSans-31" x="152.441406"/>
      <use xlink:href="#DejaVuSans-30" x="216.064453"/>
      <use xlink:href="#DejaVuSans-28" x="279.6875"/>
      <use xlink:href="#DejaVuSans-23" x="318.701172"/>
      <use xlink:href="#DejaVuSans-20" x="402.490234"/>
      <use xlink:href="#DejaVuSans-66" x="434.277344"/>
      <use xlink:href="#DejaVuSans-2d" x="463.982422"/>
      <use xlink:href="#DejaVuSans-65" x="500.066406"/>
      <use xlink:href="#DejaVuSans-76" x="561.589844"/>
      <use xlink:href="#DejaVuSans-61" x="620.769531"/>
      <use xlink:href="#DejaVuSans-6c" x="682.048828"/>
      <use xlink:href="#DejaVuSans-73" x="709.832031"/>
      <use xlink:href="#DejaVuSans-20" x="761.931641"/>
      <use xlink:href="#DejaVuSans-2f" x="793.71875"/>
      <use xlink:href="#DejaVuSans-20" x="827.410156"/>
      <use xlink:href="#DejaVuSans-64" x="859.197266"/>
      <use xlink:href="#DejaVuSans-69" x="922.673828"/>
      <use xlink:href="#DejaVuSans-6d" x="950.457031"/>
      <use xlink:href="#DejaVuSans-65" x="1047.869141"/>
      <use xlink:href="#DejaVuSans-6e" x="1109.392578"/>
      <use xlink:href="#DejaVuSans-73" x="1172.771484"/>
      <use xlink:href="#DejaVuSans-69" x="1224.871094"/>
      <use xlink:href="#DejaVuSans-6f" x="1252.654297"/>
      <use xlink:href="#DejaVuSans-6e" x="1313.835938"/>
      <use xlink:href="#DejaVuSans-29" x="1377.214844"/>
     </g>
    </g>
   </g>
   <g id="matplotlib.axis_2">
    <g id="ytick_1">
     <g id="line2d_17">
      <path d="M 57.6 298.944 
L 360.8064 298.944 
" clip-path="url(#pcac8d77de0)" style="fill: none; stroke: #b0b0b0; stroke-width: 0.8; stroke-linecap: square"/>
     </g>
     <g id="line2d_18">
      <defs>
       <path id="ma7bb89b142" d="M 0 0 
L -3.5 0 
" style="stroke: #000000; stroke-width: 0.8"/>
      </defs>
      <g>
       <use xlink:href="#ma7bb89b142" x="57.6" y="298.944" style="stroke: #000000; stroke-width: 0.8"/>
      </g>
     </g>
     <g id="text_6">
      <!-- 0.0 -->
      <g transform="translate(25.155 305.02275)scale(0.16 -0.16)">
       <defs>
        <path id="DejaVuSans-2e" d="M 684 794 
L 1344 794 
L 1344 0 
L 684 0 
L 684 794 
z
" transform="scale(0.015625)"/>
       </defs>
       <use xlink:href="#DejaVuSans-30"/>
       <use xlink:href="#DejaVuSans-2e" x="63.623047"/>
       <use xlink:href="#DejaVuSans-30" x="95.410156"/>
      </g>
     </g>
    </g>
    <g id="ytick_2">
     <g id="line2d_19">
      <path d="M 57.6 240.5376 
L 360.8064 240.5376 
" clip-path="url(#pcac8d77de0)" style="fill: none; stroke: #b0b0b0; stroke-width: 0.8; stroke-linecap: square"/>
     </g>
     <g id="line2d_20">
      <g>
       <use xlink:href="#ma7bb89b142" x="57.6" y="240.5376" style="stroke: #000000; stroke-width: 0.8"/>
      </g>
     </g>
     <g id="text_7">
      <!-- 0.2 -->
      <g transform="translate(25.155 246.61635)scale(0.16 -0.16)">
       <use xlink:href="#DejaVuSans-30"/>
       <use xlink:href="#DejaVuSans-2e" x="63.623047"/>
       <use xlink:href="#DejaVuSans-32" x="95.410156"/>
      </g>
     </g>
    </g>
    <g id="ytick_3">
     <g id="line2d_21">
      <path d="M 57.6 182.1312 
L 360.8064 182.1312 
" clip-path="url(#pcac8d77de0)" style="fill: none; stroke: #b0b0b0; stroke-width: 0.8; stroke-linecap: square"/>
     </g>
     <g id="line2d_22">
      <g>
       <use xlink:href="#ma7bb89b142" x="57.6" y="182.1312" style="stroke: #000000; stroke-width: 0.8"/>
      </g>
     </g>
     <g id="text_8">
      <!-- 0.4 -->
      <g transform="translate(25.155 188.20995)scale(0.16 -0.16)">
       <use xlink:href="#DejaVuSans-30"/>
       <use xlink:href="#DejaVuSans-2e" x="63.623047"/>
       <use xlink:href="#DejaVuSans-34" x="95.410156"/>
      </g>
     </g>
    </g>
    <g id="ytick_4">
     <g id="line2d_23">
      <path d="M 57.6 123.7248 
L 360.8064 123.7248 
" clip-path="url(#pcac8d77de0)" style="fill: none; stroke: #b0b0b0; stroke-width: 0.8; stroke-linecap: square"/>
     </g>
     <g id="line2d_24">
      <g>
       <use xlink:href="#ma7bb89b142" x="57.6" y="123.7248" style="stroke: #000000; stroke-width: 0.8"/>
      </g>
     </g>
     <g id="text_9">
      <!-- 0.6 -->
      <g transform="translate(25.155 129.80355)scale(0.16 -0.16)">
       <use xlink:href="#DejaVuSans-30"/>
       <use xlink:href="#DejaVuSans-2e" x="63.623047"/>
       <use xlink:href="#DejaVuSans-36" x="95.410156"/>
      </g>
     </g>
    </g>
    <g id="ytick_5">
     <g id="line2d_25">
      <path d="M 57.6 65.3184 
L 360.8064 65.3184 
" clip-path="url(#pcac8d77de0)" style="fill: none; stroke: #b0b0b0; stroke-width: 0.8; stroke-linecap: square"/>
     </g>
     <g id="line2d_26">
      <g>
       <use xlink:href="#ma7bb89b142" x="57.6" y="65.3184" style="stroke: #000000; stroke-width: 0.8"/>
      </g>
     </g>
     <g id="text_10">
      <!-- 0.8 -->
      <g transform="translate(25.155 71.39715)scale(0.16 -0.16)">
       <defs>
        <path id="DejaVuSans-38" d="M 2034 2216 
Q 1584 2216 1326 1975 
Q 1069 1734 1069 1313 
Q 1069 891 1326 650 
Q 1584 409 2034 409 
Q 2484 409 2743 651 
Q 3003 894 3003 1313 
Q 3003 1734 2745 1975 
Q 2488 2216 2034 2216 
z
M 1403 2484 
Q 997 2584 770 2862 
Q 544 3141 544 3541 
Q 544 4100 942 4425 
Q 1341 4750 2034 4750 
Q 2731 4750 3128 4425 
Q 3525 4100 3525 3541 
Q 3525 3141 3298 2862 
Q 3072 2584 2669 2484 
Q 3125 2378 3379 2068 
Q 3634 1759 3634 1313 
Q 3634 634 3220 271 
Q 2806 -91 2034 -91 
Q 1263 -91 848 271 
Q 434 634 434 1313 
Q 434 1759 690 2068 
Q 947 2378 1403 2484 
z
M 1172 3481 
Q 1172 3119 1398 2916 
Q 1625 2713 2034 2713 
Q 2441 2713 2670 2916 
Q 2900 3119 2900 3481 
Q 2900 3844 2670 4047 
Q 2441 4250 2034 4250 
Q 1625 4250 1398 4047 
Q 1172 3844 1172 3481 
z
" transform="scale(0.015625)"/>
       </defs>
       <use xlink:href="#DejaVuSans-30"/>
       <use xlink:href="#DejaVuSans-2e" x="63.623047"/>
       <use xlink:href="#DejaVuSans-38" x="95.410156"/>
      </g>
     </g>
    </g>
    <g id="ytick_6">
     <g id="line2d_27">
      <path d="M 57.6 6.912 
L 360.8064 6.912 
" clip-path="url(#pcac8d77de0)" style="fill: none; stroke: #b0b0b0; stroke-width: 0.8; stroke-linecap: square"/>
     </g>
     <g id="line2d_28">
      <g>
       <use xlink:href="#ma7bb89b142" x="57.6" y="6.912" style="stroke: #000000; stroke-width: 0.8"/>
      </g>
     </g>
     <g id="text_11">
      <!-- 1.0 -->
      <g transform="translate(25.155 12.99075)scale(0.16 -0.16)">
       <use xlink:href="#DejaVuSans-31"/>
       <use xlink:href="#DejaVuSans-2e" x="63.623047"/>
       <use xlink:href="#DejaVuSans-30" x="95.410156"/>
      </g>
     </g>
    </g>
    <g id="text_12">
     <!-- Fraction of function,target pairs -->
     <g transform="translate(17.619531 287.313)rotate(-90)scale(0.17 -0.17)">
      <defs>
       <path id="DejaVuSans-46" d="M 628 4666 
L 3309 4666 
L 3309 4134 
L 1259 4134 
L 1259 2759 
L 3109 2759 
L 3109 2228 
L 1259 2228 
L 1259 0 
L 628 0 
L 628 4666 
z
" transform="scale(0.015625)"/>
       <path id="DejaVuSans-72" d="M 2631 2963 
Q 2534 3019 2420 3045 
Q 2306 3072 2169 3072 
Q 1681 3072 1420 2755 
Q 1159 2438 1159 1844 
L 1159 0 
L 581 0 
L 581 3500 
L 1159 3500 
L 1159 2956 
Q 1341 3275 1631 3429 
Q 1922 3584 2338 3584 
Q 2397 3584 2469 3576 
Q 2541 3569 2628 3553 
L 2631 2963 
z
" transform="scale(0.015625)"/>
       <path id="DejaVuSans-63" d="M 3122 3366 
L 3122 2828 
Q 2878 2963 2633 3030 
Q 2388 3097 2138 3097 
Q 1578 3097 1268 2742 
Q 959 2388 959 1747 
Q 959 1106 1268 751 
Q 1578 397 2138 397 
Q 2388 397 2633 464 
Q 2878 531 3122 666 
L 3122 134 
Q 2881 22 2623 -34 
Q 2366 -91 2075 -91 
Q 1284 -91 818 406 
Q 353 903 353 1747 
Q 353 2603 823 3093 
Q 1294 3584 2113 3584 
Q 2378 3584 2631 3529 
Q 2884 3475 3122 3366 
z
" transform="scale(0.015625)"/>
       <path id="DejaVuSans-74" d="M 1172 4494 
L 1172 3500 
L 2356 3500 
L 2356 3053 
L 1172 3053 
L 1172 1153 
Q 1172 725 1289 603 
Q 1406 481 1766 481 
L 2356 481 
L 2356 0 
L 1766 0 
Q 1100 0 847 248 
Q 594 497 594 1153 
L 594 3053 
L 172 3053 
L 172 3500 
L 594 3500 
L 594 4494 
L 1172 4494 
z
" transform="scale(0.015625)"/>
       <path id="DejaVuSans-75" d="M 544 1381 
L 544 3500 
L 1119 3500 
L 1119 1403 
Q 1119 906 1312 657 
Q 1506 409 1894 409 
Q 2359 409 2629 706 
Q 2900 1003 2900 1516 
L 2900 3500 
L 3475 3500 
L 3475 0 
L 2900 0 
L 2900 538 
Q 2691 219 2414 64 
Q 2138 -91 1772 -91 
Q 1169 -91 856 284 
Q 544 659 544 1381 
z
M 1991 3584 
L 1991 3584 
z
" transform="scale(0.015625)"/>
       <path id="DejaVuSans-2c" d="M 750 794 
L 1409 794 
L 1409 256 
L 897 -744 
L 494 -744 
L 750 256 
L 750 794 
z
" transform="scale(0.015625)"/>
       <path id="DejaVuSans-70" d="M 1159 525 
L 1159 -1331 
L 581 -1331 
L 581 3500 
L 1159 3500 
L 1159 2969 
Q 1341 3281 1617 3432 
Q 1894 3584 2278 3584 
Q 2916 3584 3314 3078 
Q 3713 2572 3713 1747 
Q 3713 922 3314 415 
Q 2916 -91 2278 -91 
Q 1894 -91 1617 61 
Q 1341 213 1159 525 
z
M 3116 1747 
Q 3116 2381 2855 2742 
Q 2594 3103 2138 3103 
Q 1681 3103 1420 2742 
Q 1159 2381 1159 1747 
Q 1159 1113 1420 752 
Q 1681 391 2138 391 
Q 2594 391 2855 752 
Q 3116 1113 3116 1747 
z
" transform="scale(0.015625)"/>
      </defs>
      <use xlink:href="#DejaVuSans-46"/>
      <use xlink:href="#DejaVuSans-72" x="50.269531"/>
      <use xlink:href="#DejaVuSans-61" x="91.382812"/>
      <use xlink:href="#DejaVuSans-63" x="152.662109"/>
      <use xlink:href="#DejaVuSans-74" x="207.642578"/>
      <use xlink:href="#DejaVuSans-69" x="246.851562"/>
      <use xlink:href="#DejaVuSans-6f" x="274.634766"/>
      <use xlink:href="#DejaVuSans-6e" x="335.816406"/>
      <use xlink:href="#DejaVuSans-20" x="399.195312"/>
      <use xlink:href="#DejaVuSans-6f" x="430.982422"/>
      <use xlink:href="#DejaVuSans-66" x="492.164062"/>
      <use xlink:href="#DejaVuSans-20" x="527.369141"/>
      <use xlink:href="#DejaVuSans-66" x="559.15625"/>
      <use xlink:href="#DejaVuSans-75" x="594.361328"/>
      <use xlink:href="#DejaVuSans-6e" x="657.740234"/>
      <use xlink:href="#DejaVuSans-63" x="721.119141"/>
      <use xlink:href="#DejaVuSans-74" x="776.099609"/>
      <use xlink:href="#DejaVuSans-69" x="815.308594"/>
      <use xlink:href="#DejaVuSans-6f" x="843.091797"/>
      <use xlink:href="#DejaVuSans-6e" x="904.273438"/>
      <use xlink:href="#DejaVuSans-2c" x="967.652344"/>
      <use xlink:href="#DejaVuSans-74" x="999.439453"/>
      <use xlink:href="#DejaVuSans-61" x="1038.648438"/>
      <use xlink:href="#DejaVuSans-72" x="1099.927734"/>
      <use xlink:href="#DejaVuSans-67" x="1139.291016"/>
      <use xlink:href="#DejaVuSans-65" x="1202.767578"/>
      <use xlink:href="#DejaVuSans-74" x="1264.291016"/>
      <use xlink:href="#DejaVuSans-20" x="1303.5"/>
      <use xlink:href="#DejaVuSans-70" x="1335.287109"/>
      <use xlink:href="#DejaVuSans-61" x="1398.763672"/>
      <use xlink:href="#DejaVuSans-69" x="1460.042969"/>
      <use xlink:href="#DejaVuSans-72" x="1487.826172"/>
      <use xlink:href="#DejaVuSans-73" x="1528.939453"/>
     </g>
    </g>
   </g>
   <g id="line2d_29">
    <defs>
     <path id="mda54001bb4" d="M 0 1.5 
C 0.397805 1.5 0.77937 1.341951 1.06066 1.06066 
C 1.341951 0.77937 1.5 0.397805 1.5 0 
C 1.5 -0.397805 1.341951 -0.77937 1.06066 -1.06066 
C 0.77937 -1.341951 0.397805 -1.5 0 -1.5 
C -0.397805 -1.5 -0.77937 -1.341951 -1.06066 -1.06066 
C -1.341951 -0.77937 -1.5 -0.397805 -1.5 0 
C -1.5 0.397805 -1.341951 0.77937 -1.06066 1.06066 
C -0.77937 1.341951 -0.397805 1.5 0 1.5 
z
" style="stroke: #00bfbf"/>
    </defs>
    <g>
     <use xlink:href="#mda54001bb4" x="204.463732" y="219.642207" style="fill: #00bfbf; stroke: #00bfbf"/>
     <use xlink:href="#mda54001bb4" x="204.463732" y="219.642207" style="fill: #00bfbf; stroke: #00bfbf"/>
    </g>
   </g>
   <g id="line2d_30">
    <path d="M 44.560826 298.944 
L 44.560826 292.650207 
L 57.6 292.650207 
L 57.6 291.894952 
L 65.227428 291.894952 
L 65.227428 291.139697 
L 70.639174 291.139697 
L 70.639174 289.880938 
L 74.836851 289.880938 
L 74.836851 289.755062 
L 78.266603 289.755062 
L 78.266603 288.748055 
L 81.166416 288.748055 
L 81.166416 287.111669 
L 83.678349 287.111669 
L 83.678349 286.230538 
L 87.876026 286.230538 
L 87.876026 286.104662 
L 91.305777 286.104662 
L 91.305777 285.85291 
L 92.811505 285.85291 
L 92.811505 285.727034 
L 94.205591 285.727034 
L 94.205591 285.601159 
L 95.503454 285.601159 
L 95.503454 285.475283 
L 97.857967 285.475283 
L 97.857967 285.223531 
L 99.950294 285.223531 
L 99.950294 284.971779 
L 100.9152 284.971779 
L 100.9152 284.594152 
L 102.708132 284.594152 
L 102.708132 283.838897 
L 105.112877 283.838897 
L 105.112877 283.587145 
L 105.850679 283.587145 
L 105.850679 283.083641 
L 107.244765 283.083641 
L 107.244765 282.328386 
L 109.159456 282.328386 
L 109.159456 281.950759 
L 110.897141 281.950759 
L 110.897141 281.573131 
L 111.442442 281.573131 
L 111.442442 280.943752 
L 112.989468 280.943752 
L 112.989468 280.314372 
L 113.478107 280.314372 
L 113.478107 280.062621 
L 114.872193 280.062621 
L 114.872193 279.810869 
L 115.314838 279.810869 
L 115.314838 279.684993 
L 115.747307 279.684993 
L 115.747307 279.18149 
L 117.384126 279.18149 
L 117.384126 278.300359 
L 118.152051 278.300359 
L 118.152051 277.796855 
L 119.24818 277.796855 
L 119.24818 277.670979 
L 119.944983 277.670979 
L 119.944983 277.167476 
L 120.28394 277.167476 
L 120.28394 277.0416 
L 121.265635 277.0416 
L 121.265635 276.915724 
L 121.892744 276.915724 
L 121.892744 276.663972 
L 122.19863 276.663972 
L 122.19863 276.412221 
L 122.499621 276.412221 
L 122.499621 276.160469 
L 124.748451 276.160469 
L 124.748451 275.53109 
L 125.011554 275.53109 
L 125.011554 275.279338 
L 125.526971 275.279338 
L 125.526971 274.90171 
L 126.028642 274.90171 
L 126.028642 274.524083 
L 126.517282 274.524083 
L 126.517282 274.272331 
L 128.133992 274.272331 
L 128.133992 273.517076 
L 128.57149 273.517076 
L 128.57149 273.3912 
L 128.786481 273.3912 
L 128.786481 272.258317 
L 129.622688 272.258317 
L 129.622688 271.25131 
L 130.226319 271.25131 
L 130.226319 270.621931 
L 131.191226 270.621931 
L 131.191226 270.496055 
L 131.378407 270.496055 
L 131.378407 270.370179 
L 131.747272 270.370179 
L 131.747272 269.992552 
L 133.323114 269.992552 
L 133.323114 269.7408 
L 134.14471 269.7408 
L 134.14471 269.489048 
L 134.304809 269.489048 
L 134.304809 269.363172 
L 135.085483 269.363172 
L 135.085483 269.237297 
L 135.538796 269.237297 
L 135.538796 269.111421 
L 136.696795 269.111421 
L 136.696795 268.607917 
L 137.654681 268.607917 
L 137.654681 268.482041 
L 137.919637 268.482041 
L 137.919637 268.356166 
L 138.050729 268.356166 
L 138.050729 268.23029 
L 139.191172 268.23029 
L 139.191172 268.104414 
L 139.914782 268.104414 
L 139.914782 267.978538 
L 140.14993 267.978538 
L 140.14993 267.852662 
L 141.393187 267.852662 
L 141.393187 267.349159 
L 141.610664 267.349159 
L 141.610664 267.223283 
L 142.352625 267.223283 
L 142.45627 266.593903 
L 142.661862 266.593903 
L 142.661862 266.342152 
L 142.966099 266.342152 
L 142.966099 266.216276 
L 143.166224 266.216276 
L 143.166224 265.964524 
L 143.364242 265.964524 
L 143.364242 265.712772 
L 144.136106 265.712772 
L 144.136106 265.586897 
L 144.417581 265.586897 
L 144.417581 265.461021 
L 144.968202 265.461021 
L 144.968202 265.209269 
L 145.148219 265.209269 
L 145.148219 264.957517 
L 146.612557 264.957517 
L 146.695245 264.705766 
L 147.022411 264.705766 
L 147.022411 264.57989 
L 147.343984 264.57989 
L 147.343984 264.328138 
L 147.502732 264.328138 
L 147.502732 264.076386 
L 147.816265 264.076386 
L 147.816265 263.95051 
L 148.124658 263.95051 
L 148.200973 263.572883 
L 148.947561 263.572883 
L 149.020615 263.321131 
L 150.425115 263.321131 
L 150.425115 262.817628 
L 150.62703 262.817628 
L 150.62703 262.691752 
L 151.41369 262.691752 
L 151.41369 262.565876 
L 152.230346 262.565876 
L 152.291722 262.062372 
L 152.53524 262.062372 
L 152.53524 261.684745 
L 153.189104 261.684745 
L 153.189104 261.558869 
L 153.363556 261.558869 
L 153.363556 261.432993 
L 153.764426 261.432993 
L 153.764426 261.181241 
L 155.802997 261.181241 
L 155.802997 261.055366 
L 156.793307 261.055366 
L 156.793307 260.803614 
L 157.222487 260.803614 
L 157.222487 260.30011 
L 157.916719 260.30011 
L 157.916719 260.174234 
L 158.276759 260.174234 
L 158.276759 260.048359 
L 158.454228 260.048359 
L 158.454228 259.922483 
L 158.673735 259.922483 
L 158.673735 259.796607 
L 158.804221 259.796607 
L 158.804221 259.670731 
L 159.527013 259.670731 
L 159.527013 259.418979 
L 159.651731 259.418979 
L 159.651731 259.167228 
L 160.020999 259.167228 
L 160.020999 259.041352 
L 160.142495 259.041352 
L 160.142495 258.915476 
L 160.660094 258.915476 
L 160.660094 258.7896 
L 160.933013 258.7896 
L 160.97168 258.160221 
L 161.125559 258.160221 
L 161.202028 257.782593 
L 161.42959 257.782593 
L 161.42959 257.656717 
L 161.802848 257.656717 
L 161.839769 257.27909 
L 162.168843 257.27909 
L 162.168843 256.901462 
L 162.949812 256.901462 
L 162.949812 256.775586 
L 163.328465 256.775586 
L 163.430425 256.523834 
L 163.73303 256.523834 
L 163.73303 256.272083 
L 163.997986 256.272083 
L 163.997986 255.768579 
L 164.802709 255.768579 
L 164.802709 255.390952 
L 164.959603 255.390952 
L 164.959603 255.265076 
L 165.269521 255.265076 
L 165.269521 255.013324 
L 165.392072 255.013324 
L 165.392072 254.887448 
L 165.695002 254.887448 
L 165.695002 254.761572 
L 166.022686 254.761572 
L 166.052194 254.383945 
L 166.199045 254.383945 
L 166.228279 253.880441 
L 166.661411 253.880441 
L 166.661411 253.62869 
L 167.850487 253.62869 
L 167.930707 253.251062 
L 168.456938 253.251062 
L 168.456938 252.99931 
L 168.943582 252.99931 
L 168.943582 252.747559 
L 169.856584 252.747559 
L 169.856584 252.621683 
L 170.143423 252.621683 
L 170.143423 252.495807 
L 170.37916 252.495807 
L 170.37916 252.369931 
L 171.046551 252.369931 
L 171.046551 252.118179 
L 171.159263 252.118179 
L 171.159263 251.992303 
L 171.360458 251.992303 
L 171.47131 251.614676 
L 171.669213 251.614676 
L 171.73472 251.111172 
L 171.972982 251.111172 
L 172.058879 249.97829 
L 172.3986 249.97829 
L 172.440637 249.34891 
L 172.524431 249.34891 
L 172.524431 249.097159 
L 172.937888 249.097159 
L 172.937888 248.971283 
L 173.080478 248.971283 
L 173.080478 248.593655 
L 173.362455 248.593655 
L 173.362455 248.216028 
L 173.972187 248.216028 
L 174.030158 247.964276 
L 174.126381 247.964276 
L 174.126381 247.460772 
L 174.842022 247.460772 
L 174.915793 246.831393 
L 175.655719 246.831393 
L 175.691079 246.453766 
L 175.919314 246.453766 
L 175.919314 246.32789 
L 176.093013 246.32789 
L 176.093013 246.202014 
L 176.265124 246.202014 
L 176.265124 245.950262 
L 176.604692 245.950262 
L 176.655103 245.572634 
L 176.738821 245.572634 
L 176.838794 244.565628 
L 176.971271 244.565628 
L 176.971271 244.439752 
L 177.873367 244.439752 
L 177.873367 244.313876 
L 178.061171 244.313876 
L 178.061171 244.062124 
L 178.231693 244.062124 
L 178.231693 243.684497 
L 178.537828 243.684497 
L 178.537828 243.558621 
L 178.943362 243.558621 
L 178.973057 243.055117 
L 179.383934 243.055117 
L 179.383934 242.929241 
L 179.771814 242.929241 
L 179.771814 242.551614 
L 179.927575 242.551614 
L 179.927575 242.425738 
L 180.082057 242.425738 
L 180.082057 242.173986 
L 180.23528 242.173986 
L 180.345937 241.544607 
L 180.483348 241.544607 
L 180.483348 241.292855 
L 181.247987 241.292855 
L 181.247987 241.166979 
L 181.41811 241.166979 
L 181.41811 240.915228 
L 181.547935 240.915228 
L 181.547935 240.789352 
L 181.766602 240.789352 
L 181.779386 240.285848 
L 182.033257 240.285848 
L 182.033257 240.159972 
L 182.333448 240.159972 
L 182.333448 239.908221 
L 182.46945 239.908221 
L 182.46945 239.782345 
L 182.702072 239.782345 
L 182.702072 239.656469 
L 182.967879 239.656469 
L 183.015807 239.278841 
L 183.182598 239.278841 
L 183.182598 239.152966 
L 183.535105 239.152966 
L 183.546742 238.649462 
L 183.949574 238.649462 
L 183.983705 238.39771 
L 184.609696 238.39771 
L 184.653623 237.894207 
L 184.773895 237.894207 
L 184.773895 237.768331 
L 185.226169 237.768331 
L 185.226169 237.642455 
L 186.281299 237.642455 
L 186.281299 237.516579 
L 186.471468 237.516579 
L 186.471468 237.264828 
L 186.933788 237.264828 
L 187.021036 236.509572 
L 187.385018 236.509572 
L 187.403982 235.880193 
L 187.59257 235.880193 
L 187.59257 235.628441 
L 187.945762 235.628441 
L 187.991745 235.124938 
L 188.22906 235.124938 
L 188.310515 234.117931 
L 188.436526 234.117931 
L 188.436526 233.866179 
L 188.739083 233.866179 
L 188.739083 233.740303 
L 188.993357 233.740303 
L 189.054221 233.362676 
L 189.347081 233.362676 
L 189.347081 233.2368 
L 189.727809 233.2368 
L 189.811379 232.229793 
L 190.394284 232.229793 
L 190.410445 231.978041 
L 190.539237 231.978041 
L 190.539237 231.72629 
L 190.849521 231.72629 
L 190.849521 231.474538 
L 191.508555 231.474538 
L 191.508555 231.348662 
L 192.027061 231.348662 
L 192.027061 231.09691 
L 192.14528 231.09691 
L 192.218791 230.719283 
L 192.502772 230.719283 
L 192.538872 230.215779 
L 192.62523 230.215779 
L 192.62523 230.089903 
L 192.938525 230.089903 
L 192.98789 229.838152 
L 193.253634 229.838152 
L 193.357508 229.460524 
L 193.447071 229.460524 
L 193.447071 229.208772 
L 194.39857 229.208772 
L 194.431212 228.579393 
L 194.541773 228.579393 
L 194.606506 228.201766 
L 194.939576 228.201766 
L 194.939576 227.950014 
L 195.147929 227.950014 
L 195.147929 227.698262 
L 195.372622 227.698262 
L 195.391226 227.320634 
L 195.619173 227.320634 
L 195.619173 227.194759 
L 195.820172 227.194759 
L 195.820172 227.068883 
L 196.398851 227.068883 
L 196.422337 226.565379 
L 196.539324 226.565379 
L 196.609169 226.313628 
L 196.672967 226.313628 
L 196.672967 226.061876 
L 196.834391 226.061876 
L 196.834391 225.810124 
L 197.271295 225.810124 
L 197.355237 225.306621 
L 197.405424 225.306621 
L 197.405424 225.180745 
L 197.692797 225.180745 
L 197.692797 224.928993 
L 197.823965 224.928993 
L 197.823965 224.677241 
L 198.158641 224.677241 
L 198.158641 224.551366 
L 198.675794 224.551366 
L 198.675794 224.42549 
L 198.810644 224.42549 
L 198.810644 224.173738 
L 199.000895 224.173738 
L 199.000895 223.921986 
L 199.525574 223.921986 
L 199.525574 223.670234 
L 200.390961 223.670234 
L 200.438417 223.292607 
L 200.799873 223.292607 
L 200.799873 223.166731 
L 200.943456 223.166731 
L 200.943456 223.040855 
L 201.131687 223.040855 
L 201.163637 222.663228 
L 201.272769 222.663228 
L 201.322577 222.159724 
L 201.45326 222.159724 
L 201.56073 221.530345 
L 201.711934 221.530345 
L 201.711934 221.278593 
L 201.940863 221.278593 
L 201.940863 221.026841 
L 202.480037 221.026841 
L 202.480037 220.77509 
L 202.624057 220.77509 
L 202.645144 220.271586 
L 203.356503 220.271586 
L 203.356503 220.019834 
L 203.626482 220.019834 
L 203.626482 219.893959 
L 204.463732 219.893959 
L 204.463732 219.642207 
L 360.8064 219.642207 
L 360.8064 219.642207 
" style="fill: none; stroke: #00bfbf; stroke-width: 1.5; stroke-linecap: square"/>
   </g>
   <g id="line2d_31">
    <defs>
     <path id="m1c3dc998ab" d="M -6 0 
L 6 0 
M 0 6 
L 0 -6 
" style="stroke: #00bfbf; stroke-width: 1.5"/>
    </defs>
    <g>
     <use xlink:href="#m1c3dc998ab" x="115.747307" y="279.18149" style="fill-opacity: 0; stroke: #00bfbf; stroke-width: 1.5"/>
     <use xlink:href="#m1c3dc998ab" x="162.168843" y="256.901462" style="fill-opacity: 0; stroke: #00bfbf; stroke-width: 1.5"/>
     <use xlink:href="#m1c3dc998ab" x="197.405424" y="225.180745" style="fill-opacity: 0; stroke: #00bfbf; stroke-width: 1.5"/>
     <use xlink:href="#m1c3dc998ab" x="204.463732" y="219.642207" style="fill-opacity: 0; stroke: #00bfbf; stroke-width: 1.5"/>
     <use xlink:href="#m1c3dc998ab" x="204.463732" y="219.642207" style="fill-opacity: 0; stroke: #00bfbf; stroke-width: 1.5"/>
     <use xlink:href="#m1c3dc998ab" x="360.8064" y="219.642207" style="fill-opacity: 0; stroke: #00bfbf; stroke-width: 1.5"/>
    </g>
   </g>
   <g id="line2d_32">
    <path style="fill: none; stroke: #00bfbf; stroke-width: 1.5; stroke-linecap: square"/>
    <g/>
   </g>
   <g id="line2d_33">
    <path d="M 205.158657 219.642207 
" clip-path="url(#pcac8d77de0)" style="fill: none; stroke: #00bfbf; stroke-width: 1.5; stroke-linecap: square"/>
    <defs>
     <path id="ma51398b156" d="M -12 12 
L 12 -12 
M -12 -12 
L 12 12 
" style="stroke: #00bfbf"/>
    </defs>
    <g clip-path="url(#pcac8d77de0)">
     <use xlink:href="#ma51398b156" x="205.158657" y="219.642207" style="fill: #00bfbf; stroke: #00bfbf"/>
    </g>
   </g>
   <g id="line2d_34">
    <defs>
     <path id="m88b08b59bf" d="M 0 1.5 
C 0.397805 1.5 0.77937 1.341951 1.06066 1.06066 
C 1.341951 0.77937 1.5 0.397805 1.5 0 
C 1.5 -0.397805 1.341951 -0.77937 1.06066 -1.06066 
C 0.77937 -1.341951 0.397805 -1.5 0 -1.5 
C -0.397805 -1.5 -0.77937 -1.341951 -1.06066 -1.06066 
C -1.341951 -0.77937 -1.5 -0.397805 -1.5 0 
C -1.5 0.397805 -1.341951 0.77937 -1.06066 1.06066 
C -0.77937 1.341951 -0.397805 1.5 0 1.5 
z
" style="stroke: #008000"/>
    </defs>
    <g>
     <use xlink:href="#m88b08b59bf" x="197.520163" y="242.425738" style="fill: #008000; stroke: #008000"/>
     <use xlink:href="#m88b08b59bf" x="197.520163" y="242.425738" style="fill: #008000; stroke: #008000"/>
    </g>
   </g>
   <g id="line2d_35">
    <path d="M 36.933397 298.944 
L 36.933397 287.866924 
L 49.972572 287.866924 
L 49.972572 287.489297 
L 57.6 287.489297 
L 57.6 287.237545 
L 63.011746 287.237545 
L 63.011746 286.859917 
L 67.209423 286.859917 
L 67.209423 286.104662 
L 73.538988 286.104662 
L 73.538988 285.85291 
L 76.050921 285.85291 
L 76.050921 285.475283 
L 80.248597 285.475283 
L 80.248597 285.349407 
L 82.04153 285.349407 
L 82.04153 284.971779 
L 83.678349 284.971779 
L 83.678349 284.845903 
L 90.230539 284.845903 
L 90.230539 284.3424 
L 91.305777 284.3424 
L 91.305777 284.216524 
L 94.205591 284.216524 
L 94.205591 284.090648 
L 100.277459 284.090648 
L 100.277459 283.587145 
L 102.12927 283.587145 
L 102.12927 282.706014 
L 104.344952 282.706014 
L 104.344952 282.20251 
L 106.791453 282.20251 
L 106.791453 282.076634 
L 107.244765 282.076634 
L 107.244765 281.824883 
L 109.756698 281.824883 
L 109.756698 281.573131 
L 111.97238 281.573131 
L 111.97238 281.195503 
L 112.317555 281.195503 
L 112.317555 280.943752 
L 112.989468 280.943752 
L 112.989468 280.817876 
L 113.316634 280.817876 
L 113.316634 279.936745 
L 114.571202 279.936745 
L 114.571202 279.433241 
L 115.168444 279.433241 
L 115.168444 279.18149 
L 115.460102 279.18149 
L 115.460102 279.055614 
L 118.152051 279.055614 
L 118.152051 278.929738 
L 118.401214 278.929738 
L 118.401214 278.300359 
L 118.64712 278.300359 
L 118.64712 277.922731 
L 119.366121 277.922731 
L 119.366121 277.796855 
L 120.506564 277.796855 
L 120.506564 277.670979 
L 121.99526 277.670979 
L 121.99526 277.545103 
L 123.936316 277.545103 
L 123.936316 277.419228 
L 124.119844 277.419228 
L 124.119844 277.293352 
L 124.836562 277.293352 
L 124.836562 277.167476 
L 125.011554 277.167476 
L 125.011554 276.789848 
L 127.149662 276.789848 
L 127.149662 276.412221 
L 128.060076 276.412221 
L 128.060076 276.286345 
L 128.499277 276.286345 
L 128.499277 276.160469 
L 128.928456 276.160469 
L 128.928456 276.034593 
L 129.622688 276.034593 
L 129.622688 275.908717 
L 131.440389 275.908717 
L 131.440389 275.782841 
L 132.984158 275.782841 
L 132.984158 275.153462 
L 133.874812 275.153462 
L 133.874812 275.027586 
L 134.516177 275.027586 
L 134.516177 274.90171 
L 135.638065 274.90171 
L 135.638065 274.649959 
L 136.88305 274.649959 
L 136.88305 274.272331 
L 137.067478 274.272331 
L 137.067478 273.894703 
L 137.430998 273.894703 
L 137.430998 273.768828 
L 137.787626 273.768828 
L 137.787626 273.642952 
L 138.818654 273.642952 
L 138.818654 273.265324 
L 140.188837 273.265324 
L 140.188837 273.139448 
L 140.49723 273.139448 
L 140.49723 272.887697 
L 141.538451 272.887697 
L 141.538451 272.384193 
L 142.661862 272.384193 
L 142.661862 272.258317 
L 143.786262 272.258317 
L 143.786262 272.006566 
L 144.602918 272.006566 
L 144.602918 271.88069 
L 144.847227 271.88069 
L 144.847227 271.754814 
L 145.326529 271.754814 
L 145.326529 271.628938 
L 145.44447 271.628938 
L 145.44447 271.503062 
L 145.736128 271.503062 
L 145.79392 271.25131 
L 146.193574 271.25131 
L 146.193574 270.873683 
L 146.418192 270.873683 
L 146.418192 270.747807 
L 147.076389 270.747807 
L 147.076389 270.244303 
L 147.919625 270.244303 
L 147.919625 269.992552 
L 148.775988 269.992552 
L 148.775988 269.7408 
L 149.922224 269.7408 
L 150.014665 269.111421 
L 150.060715 269.111421 
L 150.060715 268.859669 
L 150.649331 268.859669 
L 150.649331 268.482041 
L 151.089903 268.482041 
L 151.176793 268.23029 
L 151.392277 268.23029 
L 151.392277 268.104414 
L 151.562904 268.104414 
L 151.647641 267.852662 
L 152.795543 267.852662 
L 152.795543 267.726786 
L 153.305585 267.726786 
L 153.305585 267.60091 
L 154.064218 267.60091 
L 154.101358 267.349159 
L 154.17542 267.349159 
L 154.212341 266.845655 
L 154.322673 266.845655 
L 154.322673 266.719779 
L 154.541415 266.719779 
L 154.649839 266.468028 
L 154.721776 266.468028 
L 154.721776 266.216276 
L 155.006805 266.216276 
L 155.112587 265.712772 
L 155.147716 265.712772 
L 155.147716 265.586897 
L 156.403417 265.586897 
L 156.403417 265.461021 
L 156.825436 265.461021 
L 156.825436 265.209269 
L 157.332175 265.209269 
L 157.332175 265.083393 
L 157.518738 265.083393 
L 157.518738 264.57989 
L 158.15751 264.57989 
L 158.217229 263.824634 
L 158.919453 263.824634 
L 159.005416 263.321131 
L 160.223059 263.321131 
L 160.303279 262.943503 
L 160.777545 262.943503 
L 160.777545 262.817628 
L 160.9588 262.817628 
L 160.9588 262.565876 
L 162.132562 262.565876 
L 162.132562 262.44 
L 162.492258 262.44 
L 162.492258 262.188248 
L 162.775144 262.188248 
L 162.775144 262.062372 
L 162.891769 262.062372 
L 162.891769 261.810621 
L 163.099889 261.810621 
L 163.145827 261.307117 
L 163.237368 261.307117 
L 163.237368 261.181241 
L 163.777449 261.181241 
L 163.777449 261.055366 
L 164.237627 261.055366 
L 164.237627 260.92949 
L 164.729041 260.92949 
L 164.729041 260.803614 
L 165.874446 260.803614 
L 165.874446 260.677738 
L 166.670924 260.677738 
L 166.670924 260.551862 
L 166.916583 260.551862 
L 166.916583 260.30011 
L 167.453299 260.30011 
L 167.471536 260.048359 
L 167.957371 260.048359 
L 167.957371 259.922483 
L 168.134173 259.922483 
L 168.134173 259.796607 
L 168.876036 259.796607 
L 168.876036 259.670731 
L 169.508137 259.670731 
L 169.508137 259.418979 
L 169.719596 259.418979 
L 169.719596 259.167228 
L 170.024438 259.167228 
L 170.024438 258.915476 
L 170.151329 258.915476 
L 170.151329 258.7896 
L 170.650504 258.7896 
L 170.69663 258.537848 
L 171.566857 258.537848 
L 171.566857 258.160221 
L 171.915498 258.160221 
L 171.915498 257.908469 
L 172.440637 257.908469 
L 172.440637 257.782593 
L 172.649425 257.782593 
L 172.690906 257.530841 
L 173.342453 257.530841 
L 173.35579 257.027338 
L 173.790682 257.027338 
L 173.855707 256.775586 
L 174.036588 256.775586 
L 174.075124 256.397959 
L 174.190258 256.397959 
L 174.190258 256.272083 
L 174.443616 256.272083 
L 174.506426 256.020331 
L 174.594009 256.020331 
L 174.594009 255.768579 
L 174.878944 255.768579 
L 174.878944 255.642703 
L 175.232165 255.642703 
L 175.232165 255.516828 
L 175.471959 255.516828 
L 175.471959 255.390952 
L 176.104537 255.390952 
L 176.104537 255.265076 
L 176.694218 255.265076 
L 176.694218 255.1392 
L 176.860939 255.1392 
L 176.860939 255.013324 
L 177.330842 255.013324 
L 177.352415 254.635697 
L 177.492039 254.635697 
L 177.492039 254.132193 
L 177.620009 254.132193 
L 177.72599 253.502814 
L 178.308695 253.502814 
L 178.308695 253.125186 
L 179.012577 253.125186 
L 179.012577 252.99931 
L 179.179617 252.99931 
L 179.179617 252.873434 
L 180.6107 252.873434 
L 180.6107 252.621683 
L 180.800125 252.621683 
L 180.800125 252.369931 
L 181.111655 252.369931 
L 181.129302 251.866428 
L 181.313602 251.866428 
L 181.313602 251.740552 
L 181.547935 251.740552 
L 181.547935 251.4888 
L 182.117125 251.4888 
L 182.117125 251.362924 
L 182.374764 251.362924 
L 182.391266 250.859421 
L 183.25363 250.859421 
L 183.25363 250.733545 
L 183.987493 250.733545 
L 183.987493 250.607669 
L 184.198438 250.607669 
L 184.280666 250.230041 
L 184.332807 250.230041 
L 184.332807 249.852414 
L 184.466222 249.852414 
L 184.466222 249.726538 
L 184.961867 249.726538 
L 184.961867 249.600662 
L 185.133729 249.600662 
L 185.133729 249.34891 
L 185.261602 249.34891 
L 185.261602 249.223034 
L 185.640089 249.223034 
L 185.640089 248.971283 
L 186.112887 248.971283 
L 186.112887 248.845407 
L 187.60195 248.845407 
L 187.60195 248.593655 
L 188.089467 248.593655 
L 188.089467 248.467779 
L 188.27134 248.467779 
L 188.27134 248.341903 
L 188.853493 248.341903 
L 188.853493 248.090152 
L 189.126424 248.090152 
L 189.126424 247.8384 
L 189.542638 247.8384 
L 189.542638 247.209021 
L 190.059884 247.209021 
L 190.059884 246.957269 
L 190.4669 246.957269 
L 190.4669 246.831393 
L 190.685735 246.831393 
L 190.754593 246.453766 
L 190.838997 246.453766 
L 190.949206 246.202014 
L 191.157358 246.202014 
L 191.157358 246.076138 
L 191.662842 246.076138 
L 191.662842 245.824386 
L 191.923006 245.824386 
L 191.99244 245.320883 
L 192.296888 245.320883 
L 192.296888 245.069131 
L 192.687353 245.069131 
L 192.687353 244.943255 
L 192.947938 244.943255 
L 193.004317 244.439752 
L 193.631734 244.439752 
L 193.681578 244.188 
L 193.915432 244.188 
L 193.995709 243.684497 
L 194.26524 243.684497 
L 194.26524 243.558621 
L 195.757464 243.558621 
L 195.757464 243.432745 
L 196.379258 243.432745 
L 196.469219 242.929241 
L 196.96216 242.929241 
L 196.96216 242.67749 
L 197.520163 242.67749 
L 197.520163 242.425738 
L 360.8064 242.425738 
L 360.8064 242.425738 
" style="fill: none; stroke: #008000; stroke-width: 1.5; stroke-linecap: square"/>
   </g>
   <g id="line2d_36">
    <defs>
     <path id="ma1988cb82e" d="M -0 6 
L 6 -6 
L -6 -6 
z
" style="stroke: #008000; stroke-width: 1.5; stroke-linejoin: miter"/>
    </defs>
    <g>
     <use xlink:href="#ma1988cb82e" x="91.305777" y="284.3424" style="fill-opacity: 0; stroke: #008000; stroke-width: 1.5; stroke-linejoin: miter"/>
     <use xlink:href="#ma1988cb82e" x="154.721776" y="266.216276" style="fill-opacity: 0; stroke: #008000; stroke-width: 1.5; stroke-linejoin: miter"/>
     <use xlink:href="#ma1988cb82e" x="197.520163" y="242.67749" style="fill-opacity: 0; stroke: #008000; stroke-width: 1.5; stroke-linejoin: miter"/>
     <use xlink:href="#ma1988cb82e" x="197.520163" y="242.425738" style="fill-opacity: 0; stroke: #008000; stroke-width: 1.5; stroke-linejoin: miter"/>
     <use xlink:href="#ma1988cb82e" x="197.520163" y="242.425738" style="fill-opacity: 0; stroke: #008000; stroke-width: 1.5; stroke-linejoin: miter"/>
     <use xlink:href="#ma1988cb82e" x="360.8064" y="242.425738" style="fill-opacity: 0; stroke: #008000; stroke-width: 1.5; stroke-linejoin: miter"/>
    </g>
   </g>
   <g id="line2d_37">
    <path style="fill: none; stroke: #008000; stroke-width: 1.5; stroke-linecap: square"/>
    <g/>
   </g>
   <g id="line2d_38">
    <path d="M 197.531229 242.425738 
" clip-path="url(#pcac8d77de0)" style="fill: none; stroke: #008000; stroke-width: 1.5; stroke-linecap: square"/>
    <defs>
     <path id="ma3c69da727" d="M -12 12 
L 12 -12 
M -12 -12 
L 12 12 
" style="stroke: #008000"/>
    </defs>
    <g clip-path="url(#pcac8d77de0)">
     <use xlink:href="#ma3c69da727" x="197.531229" y="242.425738" style="fill: #008000; stroke: #008000"/>
    </g>
   </g>
   <g id="line2d_39">
    <defs>
     <path id="m647399a6b4" d="M 0 1.5 
C 0.397805 1.5 0.77937 1.341951 1.06066 1.06066 
C 1.341951 0.77937 1.5 0.397805 1.5 0 
C 1.5 -0.397805 1.341951 -0.77937 1.06066 -1.06066 
C 0.77937 -1.341951 0.397805 -1.5 0 -1.5 
C -0.397805 -1.5 -0.77937 -1.341951 -1.06066 -1.06066 
C -1.341951 -0.77937 -1.5 -0.397805 -1.5 0 
C -1.5 0.397805 -1.341951 0.77937 -1.06066 1.06066 
C -0.77937 1.341951 -0.397805 1.5 0 1.5 
z
" style="stroke: #0000ff"/>
    </defs>
    <g>
     <use xlink:href="#m647399a6b4" x="187.658132" y="267.097407" style="fill: #0000ff; stroke: #0000ff"/>
     <use xlink:href="#m647399a6b4" x="187.658132" y="267.097407" style="fill: #0000ff; stroke: #0000ff"/>
    </g>
   </g>
   <g id="line2d_40">
    <path d="M 27.323974 298.944 
L 27.323974 292.272579 
L 57.6 292.272579 
L 57.6 292.020828 
L 63.929565 292.020828 
L 63.929565 291.517324 
L 72.432107 291.517324 
L 72.432107 291.391448 
L 76.96874 291.391448 
L 76.96874 291.139697 
L 88.613828 291.139697 
L 88.613828 290.762069 
L 94.205591 290.762069 
L 94.205591 290.636193 
L 94.735529 290.636193 
L 94.735529 290.510317 
L 99.346662 290.510317 
L 99.346662 290.258566 
L 100.147275 290.258566 
L 100.147275 290.006814 
L 100.9152 290.006814 
L 100.9152 289.880938 
L 105.850679 289.880938 
L 105.850679 289.629186 
L 106.42077 289.629186 
L 106.42077 289.50331 
L 116.086263 289.50331 
L 116.086263 289.377434 
L 117.848632 289.377434 
L 117.848632 289.251559 
L 122.913079 289.251559 
L 122.913079 289.125683 
L 123.029559 289.125683 
L 123.029559 288.999807 
L 126.709238 288.999807 
L 126.709238 288.748055 
L 127.366067 288.748055 
L 127.458055 288.244552 
L 128.266313 288.244552 
L 128.266313 288.118676 
L 129.041269 288.118676 
L 129.125437 287.866924 
L 130.656987 287.866924 
L 130.656987 287.741048 
L 131.563744 287.741048 
L 131.563744 287.489297 
L 136.864507 287.489297 
L 136.864507 287.363421 
L 137.893309 287.363421 
L 137.893309 287.237545 
L 139.556456 287.237545 
L 139.556456 286.985793 
L 139.748412 286.985793 
L 139.748412 286.859917 
L 140.26641 286.859917 
L 140.26641 286.734041 
L 140.860749 286.734041 
L 140.860749 286.608166 
L 141.65386 286.608166 
L 141.65386 286.356414 
L 141.910969 286.356414 
L 141.910969 286.230538 
L 142.038218 286.230538 
L 142.038218 286.104662 
L 143.265494 286.104662 
L 143.265494 285.978786 
L 144.003296 285.978786 
L 144.003296 285.85291 
L 144.454795 285.85291 
L 144.491935 285.601159 
L 144.565997 285.601159 
L 144.565997 285.475283 
L 144.895711 285.475283 
L 144.895711 285.223531 
L 145.712961 285.223531 
L 145.712961 285.097655 
L 145.989098 285.097655 
L 145.989098 284.845903 
L 148.063382 284.845903 
L 148.063382 284.594152 
L 148.667336 284.594152 
L 148.667336 284.468276 
L 148.844805 284.468276 
L 148.844805 284.216524 
L 150.747146 284.216524 
L 150.747146 283.713021 
L 150.932483 283.713021 
L 150.932483 283.587145 
L 151.116012 283.587145 
L 151.116012 283.461269 
L 151.907925 283.461269 
L 151.907925 283.335393 
L 153.490466 283.335393 
L 153.490466 283.209517 
L 155.140696 283.209517 
L 155.140696 283.083641 
L 155.536743 283.083641 
L 155.598521 282.83189 
L 155.660098 282.83189 
L 155.660098 282.706014 
L 155.802997 282.706014 
L 155.802997 282.454262 
L 156.34423 282.454262 
L 156.383708 282.076634 
L 156.88953 282.076634 
L 156.88953 281.950759 
L 157.269574 281.950759 
L 157.269574 281.824883 
L 157.862113 281.824883 
L 157.862113 281.699007 
L 158.401163 281.699007 
L 158.489522 281.447255 
L 158.52475 281.447255 
L 158.630038 280.943752 
L 159.215793 280.943752 
L 159.215793 280.817876 
L 159.518669 280.817876 
L 159.552023 280.314372 
L 159.63515 280.314372 
L 159.63515 280.188497 
L 160.142495 280.188497 
L 160.142495 280.062621 
L 160.886507 280.062621 
L 160.886507 279.810869 
L 161.056469 279.810869 
L 161.148532 279.559117 
L 161.497325 279.559117 
L 161.497325 279.433241 
L 161.632069 279.433241 
L 161.721364 279.055614 
L 162.262846 279.055614 
L 162.262846 278.929738 
L 162.420867 278.929738 
L 162.420867 278.803862 
L 162.704821 278.803862 
L 162.704821 278.677986 
L 163.053839 278.677986 
L 163.053839 278.55211 
L 163.82619 278.55211 
L 163.82619 278.426234 
L 164.037409 278.426234 
L 164.037409 278.300359 
L 164.285191 278.300359 
L 164.285191 278.174483 
L 164.414303 278.174483 
L 164.414303 278.048607 
L 164.580835 278.048607 
L 164.580835 277.922731 
L 165.109001 277.922731 
L 165.109001 277.796855 
L 165.682978 277.796855 
L 165.682978 277.670979 
L 166.298254 277.670979 
L 166.298254 277.545103 
L 166.575579 277.545103 
L 166.575579 277.419228 
L 166.769573 277.419228 
L 166.769573 277.293352 
L 166.916583 277.293352 
L 166.916583 277.167476 
L 167.162782 277.167476 
L 167.240447 276.915724 
L 167.91469 276.915724 
L 167.91469 276.789848 
L 168.358081 276.789848 
L 168.358081 276.663972 
L 168.627414 276.663972 
L 168.627414 276.538097 
L 168.801454 276.538097 
L 168.801454 276.412221 
L 169.084644 276.412221 
L 169.084644 276.286345 
L 170.271088 276.286345 
L 170.271088 276.160469 
L 170.718116 276.160469 
L 170.809925 275.782841 
L 170.983137 275.782841 
L 170.983137 275.53109 
L 171.145773 275.53109 
L 171.145773 275.405214 
L 171.625414 275.405214 
L 171.625414 275.279338 
L 172.682617 275.279338 
L 172.682617 275.153462 
L 173.011355 275.153462 
L 173.011355 274.90171 
L 173.604778 274.90171 
L 173.604778 274.775834 
L 173.77765 274.775834 
L 173.77765 274.649959 
L 174.37807 274.649959 
L 174.40835 274.398207 
L 175.077078 274.398207 
L 175.178998 274.020579 
L 175.208017 274.020579 
L 175.251462 273.768828 
L 175.758081 273.768828 
L 175.758081 273.642952 
L 176.058402 273.642952 
L 176.058402 273.517076 
L 176.217092 273.517076 
L 176.217092 273.3912 
L 176.374454 273.3912 
L 176.374454 273.265324 
L 176.931626 273.265324 
L 176.958065 273.013572 
L 177.434167 273.013572 
L 177.434167 272.887697 
L 177.936177 272.887697 
L 177.936177 272.761821 
L 178.222432 272.761821 
L 178.222432 272.635945 
L 178.425138 272.635945 
L 178.510479 272.384193 
L 178.740186 272.384193 
L 178.80616 272.132441 
L 178.895753 272.132441 
L 178.949305 271.88069 
L 179.185485 271.88069 
L 179.208941 271.628938 
L 179.476602 271.628938 
L 179.574564 271.377186 
L 179.871084 271.377186 
L 179.882396 271.125434 
L 180.151859 271.125434 
L 180.151859 270.999559 
L 180.296222 270.999559 
L 180.307281 270.621931 
L 180.641498 270.621931 
L 180.641498 270.496055 
L 181.086922 270.496055 
L 181.086922 270.370179 
L 181.324079 270.370179 
L 181.428529 269.992552 
L 182.163928 269.992552 
L 182.163928 269.866676 
L 182.447262 269.866676 
L 182.491612 269.363172 
L 183.125579 269.363172 
L 183.125579 269.237297 
L 184.616292 269.237297 
L 184.686501 268.859669 
L 185.204877 268.859669 
L 185.204877 268.733793 
L 185.647027 268.733793 
L 185.647027 268.607917 
L 185.800388 268.607917 
L 185.899202 268.23029 
L 186.046455 268.23029 
L 186.091221 267.852662 
L 186.875397 267.852662 
L 186.875397 267.726786 
L 187.386916 267.726786 
L 187.386916 267.475034 
L 187.616948 267.475034 
L 187.658132 267.097407 
L 360.8064 267.097407 
L 360.8064 267.097407 
" style="fill: none; stroke: #0000ff; stroke-width: 1.5; stroke-linecap: square"/>
   </g>
   <g id="line2d_41">
    <defs>
     <path id="md8ea412d33" d="M 0 -6 
L -1.347084 -1.854102 
L -5.706339 -1.854102 
L -2.179628 0.708204 
L -3.526712 4.854102 
L -0 2.291796 
L 3.526712 4.854102 
L 2.179628 0.708204 
L 5.706339 -1.854102 
L 1.347084 -1.854102 
z
" style="stroke: #0000ff; stroke-width: 1.5; stroke-linejoin: bevel"/>
    </defs>
    <g>
     <use xlink:href="#md8ea412d33" x="63.929565" y="292.020828" style="fill-opacity: 0; stroke: #0000ff; stroke-width: 1.5; stroke-linejoin: bevel"/>
     <use xlink:href="#md8ea412d33" x="136.864507" y="287.363421" style="fill-opacity: 0; stroke: #0000ff; stroke-width: 1.5; stroke-linejoin: bevel"/>
     <use xlink:href="#md8ea412d33" x="187.658132" y="267.349159" style="fill-opacity: 0; stroke: #0000ff; stroke-width: 1.5; stroke-linejoin: bevel"/>
     <use xlink:href="#md8ea412d33" x="187.658132" y="267.097407" style="fill-opacity: 0; stroke: #0000ff; stroke-width: 1.5; stroke-linejoin: bevel"/>
     <use xlink:href="#md8ea412d33" x="187.658132" y="267.097407" style="fill-opacity: 0; stroke: #0000ff; stroke-width: 1.5; stroke-linejoin: bevel"/>
     <use xlink:href="#md8ea412d33" x="360.8064" y="267.097407" style="fill-opacity: 0; stroke: #0000ff; stroke-width: 1.5; stroke-linejoin: bevel"/>
    </g>
   </g>
   <g id="line2d_42">
    <path style="fill: none; stroke: #0000ff; stroke-width: 1.5; stroke-linecap: square"/>
    <g/>
   </g>
   <g id="line2d_43">
    <path d="M 187.921806 267.097407 
" clip-path="url(#pcac8d77de0)" style="fill: none; stroke: #0000ff; stroke-width: 1.5; stroke-linecap: square"/>
    <defs>
     <path id="m31b6953ed6" d="M -12 12 
L 12 -12 
M -12 -12 
L 12 12 
" style="stroke: #0000ff"/>
    </defs>
    <g clip-path="url(#pcac8d77de0)">
     <use xlink:href="#m31b6953ed6" x="187.921806" y="267.097407" style="fill: #0000ff; stroke: #0000ff"/>
    </g>
   </g>
   <g id="line2d_44">
    <defs>
     <path id="m29c213e55a" d="M 0 1.5 
C 0.397805 1.5 0.77937 1.341951 1.06066 1.06066 
C 1.341951 0.77937 1.5 0.397805 1.5 0 
C 1.5 -0.397805 1.341951 -0.77937 1.06066 -1.06066 
C 0.77937 -1.341951 0.397805 -1.5 0 -1.5 
C -0.397805 -1.5 -0.77937 -1.341951 -1.06066 -1.06066 
C -1.341951 -0.77937 -1.5 -0.397805 -1.5 0 
C -1.5 0.397805 -1.341951 0.77937 -1.06066 1.06066 
C -0.77937 1.341951 -0.397805 1.5 0 1.5 
z
" style="stroke: #000000"/>
    </defs>
    <g>
     <use xlink:href="#m29c213e55a" x="173.925682" y="285.727034" style="stroke: #000000"/>
     <use xlink:href="#m29c213e55a" x="173.925682" y="285.727034" style="stroke: #000000"/>
    </g>
   </g>
   <g id="line2d_45">
    <path d="M 14.2848 298.944 
L 14.2848 289.251559 
L 78.88343 289.251559 
L 78.88343 289.125683 
L 111.762192 289.125683 
L 111.762192 288.999807 
L 127.134109 288.999807 
L 127.134109 288.873931 
L 144.267986 288.873931 
L 144.267986 288.748055 
L 149.107908 288.748055 
L 149.107908 288.622179 
L 150.465671 288.622179 
L 150.465671 288.496303 
L 154.256552 288.496303 
L 154.256552 288.370428 
L 156.015331 288.370428 
L 156.015331 288.244552 
L 159.964032 288.244552 
L 159.964032 288.118676 
L 161.489811 288.118676 
L 161.489811 287.9928 
L 162.442313 287.9928 
L 162.442313 287.866924 
L 162.499383 287.866924 
L 162.499383 287.741048 
L 164.336942 287.741048 
L 164.336942 287.615172 
L 165.743021 287.615172 
L 165.743021 287.489297 
L 166.598506 287.489297 
L 166.598506 287.363421 
L 167.882616 287.363421 
L 167.882616 287.237545 
L 169.373521 287.237545 
L 169.373521 287.111669 
L 170.033985 287.111669 
L 170.033985 286.985793 
L 170.579558 286.985793 
L 170.579558 286.859917 
L 170.814504 286.859917 
L 170.814504 286.734041 
L 171.942824 286.734041 
L 171.942824 286.608166 
L 172.02886 286.608166 
L 172.02886 286.48229 
L 172.229507 286.48229 
L 172.229507 286.356414 
L 172.950152 286.356414 
L 172.950152 286.104662 
L 173.0195 286.104662 
L 173.0195 285.978786 
L 173.027642 285.978786 
L 173.027642 285.85291 
L 173.925682 285.85291 
L 173.925682 285.727034 
L 360.8064 285.727034 
" style="fill: none; stroke: #000000; stroke-width: 1.5; stroke-linecap: square"/>
   </g>
   <g id="line2d_46">
    <defs>
     <path id="m85761d4c25" d="M 0 6 
C 1.591219 6 3.117479 5.367802 4.242641 4.242641 
C 5.367802 3.117479 6 1.591219 6 0 
C 6 -1.591219 5.367802 -3.117479 4.242641 -4.242641 
C 3.117479 -5.367802 1.591219 -6 0 -6 
C -1.591219 -6 -3.117479 -5.367802 -4.242641 -4.242641 
C -5.367802 -3.117479 -6 -1.591219 -6 0 
C -6 1.591219 -5.367802 3.117479 -4.242641 4.242641 
C -3.117479 5.367802 -1.591219 6 0 6 
z
" style="stroke: #000000; stroke-width: 1.5"/>
    </defs>
    <g>
     <use xlink:href="#m85761d4c25" x="78.88343" y="289.125683" style="fill-opacity: 0; stroke: #000000; stroke-width: 1.5"/>
     <use xlink:href="#m85761d4c25" x="173.925682" y="285.85291" style="fill-opacity: 0; stroke: #000000; stroke-width: 1.5"/>
     <use xlink:href="#m85761d4c25" x="173.925682" y="285.727034" style="fill-opacity: 0; stroke: #000000; stroke-width: 1.5"/>
     <use xlink:href="#m85761d4c25" x="173.925682" y="285.727034" style="fill-opacity: 0; stroke: #000000; stroke-width: 1.5"/>
     <use xlink:href="#m85761d4c25" x="173.925682" y="285.727034" style="fill-opacity: 0; stroke: #000000; stroke-width: 1.5"/>
     <use xlink:href="#m85761d4c25" x="360.8064" y="285.727034" style="fill-opacity: 0; stroke: #000000; stroke-width: 1.5"/>
    </g>
   </g>
   <g id="line2d_47">
    <path style="fill: none; stroke: #000000; stroke-width: 1.5; stroke-linecap: square"/>
    <g/>
   </g>
   <g id="line2d_48">
    <path d="M 174.882632 285.727034 
" clip-path="url(#pcac8d77de0)" style="fill: none; stroke: #000000; stroke-width: 1.5; stroke-linecap: square"/>
    <defs>
     <path id="m101df94e29" d="M -12 12 
L 12 -12 
M -12 -12 
L 12 12 
" style="stroke: #000000"/>
    </defs>
    <g clip-path="url(#pcac8d77de0)">
     <use xlink:href="#m101df94e29" x="174.882632" y="285.727034" style="stroke: #000000"/>
    </g>
   </g>
   <g id="line2d_49">
    <defs>
     <path id="me4c2890ac0" d="M 0 1.5 
C 0.397805 1.5 0.77937 1.341951 1.06066 1.06066 
C 1.341951 0.77937 1.5 0.397805 1.5 0 
C 1.5 -0.397805 1.341951 -0.77937 1.06066 -1.06066 
C 0.77937 -1.341951 0.397805 -1.5 0 -1.5 
C -0.397805 -1.5 -0.77937 -1.341951 -1.06066 -1.06066 
C -1.341951 -0.77937 -1.5 -0.397805 -1.5 0 
C -1.5 0.397805 -1.341951 0.77937 -1.06066 1.06066 
C -0.77937 1.341951 -0.397805 1.5 0 1.5 
z
" style="stroke: #ff0000"/>
    </defs>
    <g>
     <use xlink:href="#me4c2890ac0" x="153.165721" y="289.251559" style="fill: #ff0000; stroke: #ff0000"/>
     <use xlink:href="#me4c2890ac0" x="153.165721" y="289.251559" style="fill: #ff0000; stroke: #ff0000"/>
    </g>
   </g>
   <g id="line2d_50">
    <path d="M 1.245626 298.944 
L 1.245626 289.377434 
L 153.165721 289.377434 
L 153.165721 289.251559 
L 360.8064 289.251559 
" style="fill: none; stroke: #ff0000; stroke-width: 1.5; stroke-linecap: square"/>
   </g>
   <g id="line2d_51">
    <defs>
     <path id="ma32d11fdc7" d="M -6 6 
L 6 6 
L 6 -6 
L -6 -6 
z
" style="stroke: #ff0000; stroke-width: 1.5; stroke-linejoin: miter"/>
    </defs>
    <g>
     <use xlink:href="#ma32d11fdc7" x="153.165721" y="289.377434" style="fill-opacity: 0; stroke: #ff0000; stroke-width: 1.5; stroke-linejoin: miter"/>
     <use xlink:href="#ma32d11fdc7" x="153.165721" y="289.251559" style="fill-opacity: 0; stroke: #ff0000; stroke-width: 1.5; stroke-linejoin: miter"/>
     <use xlink:href="#ma32d11fdc7" x="153.165721" y="289.251559" style="fill-opacity: 0; stroke: #ff0000; stroke-width: 1.5; stroke-linejoin: miter"/>
     <use xlink:href="#ma32d11fdc7" x="153.165721" y="289.251559" style="fill-opacity: 0; stroke: #ff0000; stroke-width: 1.5; stroke-linejoin: miter"/>
     <use xlink:href="#ma32d11fdc7" x="360.8064" y="289.251559" style="fill-opacity: 0; stroke: #ff0000; stroke-width: 1.5; stroke-linejoin: miter"/>
    </g>
   </g>
   <g id="line2d_52">
    <path style="fill: none; stroke: #ff0000; stroke-width: 1.5; stroke-linecap: square"/>
    <g/>
   </g>
   <g id="line2d_53">
    <path d="M 161.843457 289.251559 
" clip-path="url(#pcac8d77de0)" style="fill: none; stroke: #ff0000; stroke-width: 1.5; stroke-linecap: square"/>
    <defs>
     <path id="m8b44aa0c5a" d="M -12 12 
L 12 -12 
M -12 -12 
L 12 12 
" style="stroke: #ff0000"/>
    </defs>
    <g clip-path="url(#pcac8d77de0)">
     <use xlink:href="#m8b44aa0c5a" x="161.843457" y="289.251559" style="fill: #ff0000; stroke: #ff0000"/>
    </g>
   </g>
   <g id="line2d_54">
    <defs>
     <path id="m6d0d8db9e4" d="M 0 1.5 
C 0.397805 1.5 0.77937 1.341951 1.06066 1.06066 
C 1.341951 0.77937 1.5 0.397805 1.5 0 
C 1.5 -0.397805 1.341951 -0.77937 1.06066 -1.06066 
C 0.77937 -1.341951 0.397805 -1.5 0 -1.5 
C -0.397805 -1.5 -0.77937 -1.341951 -1.06066 -1.06066 
C -1.341951 -0.77937 -1.5 -0.397805 -1.5 0 
C -1.5 0.397805 -1.341951 0.77937 -1.06066 1.06066 
C -0.77937 1.341951 -0.397805 1.5 0 1.5 
z
" style="stroke: #bf00bf"/>
    </defs>
    <g/>
   </g>
   <g id="line2d_55">
    <path d="M -1 288.370428 
L 360.8064 288.370428 
" style="fill: none; stroke: #bf00bf; stroke-width: 1.5; stroke-linecap: square"/>
   </g>
   <g id="line2d_56">
    <defs>
     <path id="m7cbb7cbbc0" d="M 0 8.485281 
L 8.485281 0 
L 0 -8.485281 
L -8.485281 0 
z
" style="stroke: #bf00bf; stroke-width: 1.5; stroke-linejoin: miter"/>
    </defs>
    <g>
     <use xlink:href="#m7cbb7cbbc0" x="360.8064" y="288.370428" style="fill-opacity: 0; stroke: #bf00bf; stroke-width: 1.5; stroke-linejoin: miter"/>
    </g>
   </g>
   <g id="line2d_57">
    <path style="fill: none; stroke: #bf00bf; stroke-width: 1.5; stroke-linecap: square"/>
    <g/>
   </g>
   <g id="line2d_58">
    <path d="M 148.804283 288.370428 
" clip-path="url(#pcac8d77de0)" style="fill: none; stroke: #bf00bf; stroke-width: 1.5; stroke-linecap: square"/>
    <defs>
     <path id="mdf799676e7" d="M -12 12 
L 12 -12 
M -12 -12 
L 12 12 
" style="stroke: #bf00bf"/>
    </defs>
    <g clip-path="url(#pcac8d77de0)">
     <use xlink:href="#mdf799676e7" x="148.804283" y="288.370428" style="fill: #bf00bf; stroke: #bf00bf"/>
    </g>
   </g>
   <g id="line2d_59">
    <path d="M 360.8064 289.251559 
L 380.514816 293.10336 
" style="fill: none; stroke: #ff0000; stroke-width: 1.5; stroke-linecap: square"/>
    <g>
     <use xlink:href="#ma32d11fdc7" x="360.8064" y="289.251559" style="fill-opacity: 0; stroke: #ff0000; stroke-width: 1.5; stroke-linejoin: miter"/>
     <use xlink:href="#ma32d11fdc7" x="380.514816" y="293.10336" style="fill-opacity: 0; stroke: #ff0000; stroke-width: 1.5; stroke-linejoin: miter"/>
    </g>
   </g>
   <g id="line2d_60">
    <path d="M 360.8064 288.370428 
L 380.514816 237.033216 
" style="fill: none; stroke: #bf00bf; stroke-width: 1.5; stroke-linecap: square"/>
    <g>
     <use xlink:href="#m7cbb7cbbc0" x="360.8064" y="288.370428" style="fill-opacity: 0; stroke: #bf00bf; stroke-width: 1.5; stroke-linejoin: miter"/>
     <use xlink:href="#m7cbb7cbbc0" x="380.514816" y="237.033216" style="fill-opacity: 0; stroke: #bf00bf; stroke-width: 1.5; stroke-linejoin: miter"/>
    </g>
   </g>
   <g id="line2d_61">
    <path d="M 360.8064 285.727034 
L 380.514816 180.963072 
" style="fill: none; stroke: #000000; stroke-width: 1.5; stroke-linecap: square"/>
    <g>
     <use xlink:href="#m85761d4c25" x="360.8064" y="285.727034" style="fill-opacity: 0; stroke: #000000; stroke-width: 1.5"/>
     <use xlink:href="#m85761d4c25" x="380.514816" y="180.963072" style="fill-opacity: 0; stroke: #000000; stroke-width: 1.5"/>
    </g>
   </g>
   <g id="line2d_62">
    <path d="M 360.8064 267.097407 
L 380.514816 124.892928 
" style="fill: none; stroke: #0000ff; stroke-width: 1.5; stroke-linecap: square"/>
    <g>
     <use xlink:href="#md8ea412d33" x="360.8064" y="267.097407" style="fill-opacity: 0; stroke: #0000ff; stroke-width: 1.5; stroke-linejoin: bevel"/>
     <use xlink:href="#md8ea412d33" x="380.514816" y="124.892928" style="fill-opacity: 0; stroke: #0000ff; stroke-width: 1.5; stroke-linejoin: bevel"/>
    </g>
   </g>
   <g id="line2d_63">
    <path d="M 360.8064 242.425738 
L 380.514816 68.822784 
" style="fill: none; stroke: #008000; stroke-width: 1.5; stroke-linecap: square"/>
    <g>
     <use xlink:href="#ma1988cb82e" x="360.8064" y="242.425738" style="fill-opacity: 0; stroke: #008000; stroke-width: 1.5; stroke-linejoin: miter"/>
     <use xlink:href="#ma1988cb82e" x="380.514816" y="68.822784" style="fill-opacity: 0; stroke: #008000; stroke-width: 1.5; stroke-linejoin: miter"/>
    </g>
   </g>
   <g id="line2d_64">
    <path d="M 360.8064 219.642207 
L 380.514816 12.75264 
" style="fill: none; stroke: #00bfbf; stroke-width: 1.5; stroke-linecap: square"/>
    <g>
     <use xlink:href="#m1c3dc998ab" x="360.8064" y="219.642207" style="fill-opacity: 0; stroke: #00bfbf; stroke-width: 1.5"/>
     <use xlink:href="#m1c3dc998ab" x="380.514816" y="12.75264" style="fill-opacity: 0; stroke: #00bfbf; stroke-width: 1.5"/>
    </g>
   </g>
   <g id="line2d_65">
    <path d="M 360.8064 298.944 
L 360.8064 6.912 
" style="fill: none; stroke: #000000; stroke-width: 1.5; stroke-linecap: square"/>
   </g>
   <g id="patch_3">
    <path d="M 57.6 298.944 
L 360.8064 298.944 
" style="fill: none; stroke: #000000; stroke-width: 0.8; stroke-linejoin: miter; stroke-linecap: square"/>
   </g>
   <g id="patch_4">
    <path d="M 57.6 6.912 
L 360.8064 6.912 
" style="fill: none; stroke: #000000; stroke-width: 0.8; stroke-linejoin: miter; stroke-linecap: square"/>
   </g>
   <g id="text_13">
    <!-- 20-D -->
    <g transform="translate(386.578944 296.966485)scale(0.14 -0.14)">
     <defs>
      <path id="DejaVuSans-44" d="M 1259 4147 
L 1259 519 
L 2022 519 
Q 2988 519 3436 956 
Q 3884 1394 3884 2338 
Q 3884 3275 3436 3711 
Q 2988 4147 2022 4147 
L 1259 4147 
z
M 628 4666 
L 1925 4666 
Q 3281 4666 3915 4102 
Q 4550 3538 4550 2338 
Q 4550 1131 3912 565 
Q 3275 0 1925 0 
L 628 0 
L 628 4666 
z
" transform="scale(0.015625)"/>
     </defs>
     <use xlink:href="#DejaVuSans-32"/>
     <use xlink:href="#DejaVuSans-30" x="63.623047"/>
     <use xlink:href="#DejaVuSans-2d" x="127.246094"/>
     <use xlink:href="#DejaVuSans-44" x="163.330078"/>
    </g>
   </g>
   <g id="text_14">
    <!-- 40-D -->
    <g transform="translate(386.578944 240.896341)scale(0.14 -0.14)">
     <use xlink:href="#DejaVuSans-34"/>
     <use xlink:href="#DejaVuSans-30" x="63.623047"/>
     <use xlink:href="#DejaVuSans-2d" x="127.246094"/>
     <use xlink:href="#DejaVuSans-44" x="163.330078"/>
    </g>
   </g>
   <g id="text_15">
    <!-- 10-D -->
    <g transform="translate(386.578944 184.826197)scale(0.14 -0.14)">
     <use xlink:href="#DejaVuSans-31"/>
     <use xlink:href="#DejaVuSans-30" x="63.623047"/>
     <use xlink:href="#DejaVuSans-2d" x="127.246094"/>
     <use xlink:href="#DejaVuSans-44" x="163.330078"/>
    </g>
   </g>
   <g id="text_16">
    <!-- 5-D -->
    <g transform="translate(386.578944 128.756053)scale(0.14 -0.14)">
     <defs>
      <path id="DejaVuSans-35" d="M 691 4666 
L 3169 4666 
L 3169 4134 
L 1269 4134 
L 1269 2991 
Q 1406 3038 1543 3061 
Q 1681 3084 1819 3084 
Q 2600 3084 3056 2656 
Q 3513 2228 3513 1497 
Q 3513 744 3044 326 
Q 2575 -91 1722 -91 
Q 1428 -91 1123 -41 
Q 819 9 494 109 
L 494 744 
Q 775 591 1075 516 
Q 1375 441 1709 441 
Q 2250 441 2565 725 
Q 2881 1009 2881 1497 
Q 2881 1984 2565 2268 
Q 2250 2553 1709 2553 
Q 1456 2553 1204 2497 
Q 953 2441 691 2322 
L 691 4666 
z
" transform="scale(0.015625)"/>
     </defs>
     <use xlink:href="#DejaVuSans-35"/>
     <use xlink:href="#DejaVuSans-2d" x="63.623047"/>
     <use xlink:href="#DejaVuSans-44" x="99.707031"/>
    </g>
   </g>
   <g id="text_17">
    <!-- 3-D -->
    <g transform="translate(386.578944 72.685909)scale(0.14 -0.14)">
     <defs>
      <path id="DejaVuSans-33" d="M 2597 2516 
Q 3050 2419 3304 2112 
Q 3559 1806 3559 1356 
Q 3559 666 3084 287 
Q 2609 -91 1734 -91 
Q 1441 -91 1130 -33 
Q 819 25 488 141 
L 488 750 
Q 750 597 1062 519 
Q 1375 441 1716 441 
Q 2309 441 2620 675 
Q 2931 909 2931 1356 
Q 2931 1769 2642 2001 
Q 2353 2234 1838 2234 
L 1294 2234 
L 1294 2753 
L 1863 2753 
Q 2328 2753 2575 2939 
Q 2822 3125 2822 3475 
Q 2822 3834 2567 4026 
Q 2313 4219 1838 4219 
Q 1578 4219 1281 4162 
Q 984 4106 628 3988 
L 628 4550 
Q 988 4650 1302 4700 
Q 1616 4750 1894 4750 
Q 2613 4750 3031 4423 
Q 3450 4097 3450 3541 
Q 3450 3153 3228 2886 
Q 3006 2619 2597 2516 
z
" transform="scale(0.015625)"/>
     </defs>
     <use xlink:href="#DejaVuSans-33"/>
     <use xlink:href="#DejaVuSans-2d" x="63.623047"/>
     <use xlink:href="#DejaVuSans-44" x="99.707031"/>
    </g>
   </g>
   <g id="text_18">
    <!-- 2-D -->
    <g transform="translate(386.578944 16.615765)scale(0.14 -0.14)">
     <use xlink:href="#DejaVuSans-32"/>
     <use xlink:href="#DejaVuSans-2d" x="63.623047"/>
     <use xlink:href="#DejaVuSans-44" x="99.707031"/>
    </g>
   </g>
   <g id="text_19">
    <!-- bbob-biobj f24, f25, f31, f32 -->
    <g transform="translate(60.632064 17.582726)scale(0.102 -0.102)">
     <defs>
      <path id="DejaVuSans-62" d="M 3116 1747 
Q 3116 2381 2855 2742 
Q 2594 3103 2138 3103 
Q 1681 3103 1420 2742 
Q 1159 2381 1159 1747 
Q 1159 1113 1420 752 
Q 1681 391 2138 391 
Q 2594 391 2855 752 
Q 3116 1113 3116 1747 
z
M 1159 2969 
Q 1341 3281 1617 3432 
Q 1894 3584 2278 3584 
Q 2916 3584 3314 3078 
Q 3713 2572 3713 1747 
Q 3713 922 3314 415 
Q 2916 -91 2278 -91 
Q 1894 -91 1617 61 
Q 1341 213 1159 525 
L 1159 0 
L 581 0 
L 581 4863 
L 1159 4863 
L 1159 2969 
z
" transform="scale(0.015625)"/>
      <path id="DejaVuSans-6a" d="M 603 3500 
L 1178 3500 
L 1178 -63 
Q 1178 -731 923 -1031 
Q 669 -1331 103 -1331 
L -116 -1331 
L -116 -844 
L 38 -844 
Q 366 -844 484 -692 
Q 603 -541 603 -63 
L 603 3500 
z
M 603 4863 
L 1178 4863 
L 1178 4134 
L 603 4134 
L 603 4863 
z
" transform="scale(0.015625)"/>
     </defs>
     <use xlink:href="#DejaVuSans-62"/>
     <use xlink:href="#DejaVuSans-62" x="63.476562"/>
     <use xlink:href="#DejaVuSans-6f" x="126.953125"/>
     <use xlink:href="#DejaVuSans-62" x="188.134766"/>
     <use xlink:href="#DejaVuSans-2d" x="251.611328"/>
     <use xlink:href="#DejaVuSans-62" x="287.695312"/>
     <use xlink:href="#DejaVuSans-69" x="351.171875"/>
     <use xlink:href="#DejaVuSans-6f" x="378.955078"/>
     <use xlink:href="#DejaVuSans-62" x="440.136719"/>
     <use xlink:href="#DejaVuSans-6a" x="503.613281"/>
     <use xlink:href="#DejaVuSans-20" x="531.396484"/>
     <use xlink:href="#DejaVuSans-66" x="563.183594"/>
     <use xlink:href="#DejaVuSans-32" x="598.388672"/>
     <use xlink:href="#DejaVuSans-34" x="662.011719"/>
     <use xlink:href="#DejaVuSans-2c" x="725.634766"/>
     <use xlink:href="#DejaVuSans-20" x="757.421875"/>
     <use xlink:href="#DejaVuSans-66" x="789.208984"/>
     <use xlink:href="#DejaVuSans-32" x="824.414062"/>
     <use xlink:href="#DejaVuSans-35" x="888.037109"/>
     <use xlink:href="#DejaVuSans-2c" x="951.660156"/>
     <use xlink:href="#DejaVuSans-20" x="983.447266"/>
     <use xlink:href="#DejaVuSans-66" x="1015.234375"/>
     <use xlink:href="#DejaVuSans-33" x="1050.439453"/>
     <use xlink:href="#DejaVuSans-31" x="1114.0625"/>
     <use xlink:href="#DejaVuSans-2c" x="1177.685547"/>
     <use xlink:href="#DejaVuSans-20" x="1209.472656"/>
     <use xlink:href="#DejaVuSans-66" x="1241.259766"/>
     <use xlink:href="#DejaVuSans-33" x="1276.464844"/>
     <use xlink:href="#DejaVuSans-32" x="1340.087891"/>
    </g>
    <!-- 58 targets: 1..-1.0e-4 -->
    <g transform="translate(60.632064 29.004495)scale(0.102 -0.102)">
     <defs>
      <path id="DejaVuSans-3a" d="M 750 794 
L 1409 794 
L 1409 0 
L 750 0 
L 750 794 
z
M 750 3309 
L 1409 3309 
L 1409 2516 
L 750 2516 
L 750 3309 
z
" transform="scale(0.015625)"/>
     </defs>
     <use xlink:href="#DejaVuSans-35"/>
     <use xlink:href="#DejaVuSans-38" x="63.623047"/>
     <use xlink:href="#DejaVuSans-20" x="127.246094"/>
     <use xlink:href="#DejaVuSans-74" x="159.033203"/>
     <use xlink:href="#DejaVuSans-61" x="198.242188"/>
     <use xlink:href="#DejaVuSans-72" x="259.521484"/>
     <use xlink:href="#DejaVuSans-67" x="298.884766"/>
     <use xlink:href="#DejaVuSans-65" x="362.361328"/>
     <use xlink:href="#DejaVuSans-74" x="423.884766"/>
     <use xlink:href="#DejaVuSans-73" x="463.09375"/>
     <use xlink:href="#DejaVuSans-3a" x="515.193359"/>
     <use xlink:href="#DejaVuSans-20" x="548.884766"/>
     <use xlink:href="#DejaVuSans-31" x="580.671875"/>
     <use xlink:href="#DejaVuSans-2e" x="644.294922"/>
     <use xlink:href="#DejaVuSans-2e" x="676.082031"/>
     <use xlink:href="#DejaVuSans-2d" x="707.869141"/>
     <use xlink:href="#DejaVuSans-31" x="743.953125"/>
     <use xlink:href="#DejaVuSans-2e" x="807.576172"/>
     <use xlink:href="#DejaVuSans-30" x="839.363281"/>
     <use xlink:href="#DejaVuSans-65" x="902.986328"/>
     <use xlink:href="#DejaVuSans-2d" x="964.509766"/>
     <use xlink:href="#DejaVuSans-34" x="1000.59375"/>
    </g>
    <!-- 10 instances -->
    <g transform="translate(60.632064 40.426264)scale(0.102 -0.102)">
     <use xlink:href="#DejaVuSans-31"/>
     <use xlink:href="#DejaVuSans-30" x="63.623047"/>
     <use xlink:href="#DejaVuSans-20" x="127.246094"/>
     <use xlink:href="#DejaVuSans-69" x="159.033203"/>
     <use xlink:href="#DejaVuSans-6e" x="186.816406"/>
     <use xlink:href="#DejaVuSans-73" x="250.195312"/>
     <use xlink:href="#DejaVuSans-74" x="302.294922"/>
     <use xlink:href="#DejaVuSans-61" x="341.503906"/>
     <use xlink:href="#DejaVuSans-6e" x="402.783203"/>
     <use xlink:href="#DejaVuSans-63" x="466.162109"/>
     <use xlink:href="#DejaVuSans-65" x="521.142578"/>
     <use xlink:href="#DejaVuSans-73" x="582.666016"/>
    </g>
   </g>
   <g id="text_20">
    <!-- v2.6, hv-hash=ff0e71e8cd978373 -->
    <g style="fill: #808080" transform="translate(123.707887 293.943992)scale(0.1 -0.1)">
     <defs>
      <path id="DejaVuSans-68" d="M 3513 2113 
L 3513 0 
L 2938 0 
L 2938 2094 
Q 2938 2591 2744 2837 
Q 2550 3084 2163 3084 
Q 1697 3084 1428 2787 
Q 1159 2491 1159 1978 
L 1159 0 
L 581 0 
L 581 4863 
L 1159 4863 
L 1159 2956 
Q 1366 3272 1645 3428 
Q 1925 3584 2291 3584 
Q 2894 3584 3203 3211 
Q 3513 2838 3513 2113 
z
" transform="scale(0.015625)"/>
      <path id="DejaVuSans-3d" d="M 678 2906 
L 4684 2906 
L 4684 2381 
L 678 2381 
L 678 2906 
z
M 678 1631 
L 4684 1631 
L 4684 1100 
L 678 1100 
L 678 1631 
z
" transform="scale(0.015625)"/>
      <path id="DejaVuSans-37" d="M 525 4666 
L 3525 4666 
L 3525 4397 
L 1831 0 
L 1172 0 
L 2766 4134 
L 525 4134 
L 525 4666 
z
" transform="scale(0.015625)"/>
      <path id="DejaVuSans-39" d="M 703 97 
L 703 672 
Q 941 559 1184 500 
Q 1428 441 1663 441 
Q 2288 441 2617 861 
Q 2947 1281 2994 2138 
Q 2813 1869 2534 1725 
Q 2256 1581 1919 1581 
Q 1219 1581 811 2004 
Q 403 2428 403 3163 
Q 403 3881 828 4315 
Q 1253 4750 1959 4750 
Q 2769 4750 3195 4129 
Q 3622 3509 3622 2328 
Q 3622 1225 3098 567 
Q 2575 -91 1691 -91 
Q 1453 -91 1209 -44 
Q 966 3 703 97 
z
M 1959 2075 
Q 2384 2075 2632 2365 
Q 2881 2656 2881 3163 
Q 2881 3666 2632 3958 
Q 2384 4250 1959 4250 
Q 1534 4250 1286 3958 
Q 1038 3666 1038 3163 
Q 1038 2656 1286 2365 
Q 1534 2075 1959 2075 
z
" transform="scale(0.015625)"/>
     </defs>
     <use xlink:href="#DejaVuSans-76"/>
     <use xlink:href="#DejaVuSans-32" x="59.179688"/>
     <use xlink:href="#DejaVuSans-2e" x="122.802734"/>
     <use xlink:href="#DejaVuSans-36" x="154.589844"/>
     <use xlink:href="#DejaVuSans-2c" x="218.212891"/>
     <use xlink:href="#DejaVuSans-20" x="250"/>
     <use xlink:href="#DejaVuSans-68" x="281.787109"/>
     <use xlink:href="#DejaVuSans-76" x="345.166016"/>
     <use xlink:href="#DejaVuSans-2d" x="401.720703"/>
     <use xlink:href="#DejaVuSans-68" x="437.804688"/>
     <use xlink:href="#DejaVuSans-61" x="501.183594"/>
     <use xlink:href="#DejaVuSans-73" x="562.462891"/>
     <use xlink:href="#DejaVuSans-68" x="614.5625"/>
     <use xlink:href="#DejaVuSans-3d" x="677.941406"/>
     <use xlink:href="#DejaVuSans-66" x="761.730469"/>
     <use xlink:href="#DejaVuSans-66" x="796.935547"/>
     <use xlink:href="#DejaVuSans-30" x="832.140625"/>
     <use xlink:href="#DejaVuSans-65" x="895.763672"/>
     <use xlink:href="#DejaVuSans-37" x="957.287109"/>
     <use xlink:href="#DejaVuSans-31" x="1020.910156"/>
     <use xlink:href="#DejaVuSans-65" x="1084.533203"/>
     <use xlink:href="#DejaVuSans-38" x="1146.056641"/>
     <use xlink:href="#DejaVuSans-63" x="1209.679688"/>
     <use xlink:href="#DejaVuSans-64" x="1264.660156"/>
     <use xlink:href="#DejaVuSans-39" x="1328.136719"/>
     <use xlink:href="#DejaVuSans-37" x="1391.759766"/>
     <use xlink:href="#DejaVuSans-38" x="1455.382812"/>
     <use xlink:href="#DejaVuSans-33" x="1519.005859"/>
     <use xlink:href="#DejaVuSans-37" x="1582.628906"/>
     <use xlink:href="#DejaVuSans-33" x="1646.251953"/>
    </g>
   </g>
  </g>
 </g>
 <defs>
  <clipPath id="pcac8d77de0">
   <rect x="57.6" y="6.912" width="303.2064" height="292.032"/>
  </clipPath>
 </defs>
</svg>
