<?xml version="1.0" encoding="utf-8" standalone="no"?>
<!DOCTYPE svg PUBLIC "-//W3C//DTD SVG 1.1//EN"
  "http://www.w3.org/Graphics/SVG/1.1/DTD/svg11.dtd">
<svg xmlns:xlink="http://www.w3.org/1999/xlink" width="460.8pt" height="345.6pt" viewBox="0 0 460.8 345.6" xmlns="http://www.w3.org/2000/svg" version="1.1">
 <metadata>
  <rdf:RDF xmlns:dc="http://purl.org/dc/elements/1.1/" xmlns:cc="http://creativecommons.org/ns#" xmlns:rdf="http://www.w3.org/1999/02/22-rdf-syntax-ns#">
   <cc:Work>
    <dc:type rdf:resource="http://purl.org/dc/dcmitype/StillImage"/>
    <dc:date>2022-06-19T17:22:29.631810</dc:date>
    <dc:format>image/svg+xml</dc:format>
    <dc:creator>
     <cc:Agent>
      <dc:title>Matplotlib v3.5.2, https://matplotlib.org/</dc:title>
     </cc:Agent>
    </dc:creator>
   </cc:Work>
  </rdf:RDF>
 </metadata>
 <defs>
  <style type="text/css">*{stroke-linejoin: round; stroke-linecap: butt}</style>
 </defs>
 <g id="figure_1">
  <g id="patch_1">
   <path d="M 0 345.6 
L 460.8 345.6 
L 460.8 0 
L 0 0 
z
" style="fill: #ffffff"/>
  </g>
  <g id="axes_1">
   <g id="patch_2">
    <path d="M 57.6 298.944 
L 360.8064 298.944 
L 360.8064 6.912 
L 57.6 6.912 
z
" style="fill: #ffffff"/>
   </g>
   <g id="matplotlib.axis_1">
    <g id="xtick_1">
     <g id="line2d_1">
      <path d="M 57.6 298.944 
L 57.6 6.912 
" clip-path="url(#p85a37f3ffe)" style="fill: none; stroke: #b0b0b0; stroke-width: 0.8; stroke-linecap: square"/>
     </g>
     <g id="line2d_2">
      <defs>
       <path id="mcb0fbb7fa3" d="M 0 0 
L 0 3.5 
" style="stroke: #000000; stroke-width: 0.8"/>
      </defs>
      <g>
       <use xlink:href="#mcb0fbb7fa3" x="57.6" y="298.944" style="stroke: #000000; stroke-width: 0.8"/>
      </g>
     </g>
     <g id="text_1">
      <!-- 0 -->
      <g transform="translate(52.191875 318.861344)scale(0.17 -0.17)">
       <defs>
        <path id="DejaVuSans-30" d="M 2034 4250 
Q 1547 4250 1301 3770 
Q 1056 3291 1056 2328 
Q 1056 1369 1301 889 
Q 1547 409 2034 409 
Q 2525 409 2770 889 
Q 3016 1369 3016 2328 
Q 3016 3291 2770 3770 
Q 2525 4250 2034 4250 
z
M 2034 4750 
Q 2819 4750 3233 4129 
Q 3647 3509 3647 2328 
Q 3647 1150 3233 529 
Q 2819 -91 2034 -91 
Q 1250 -91 836 529 
Q 422 1150 422 2328 
Q 422 3509 836 4129 
Q 1250 4750 2034 4750 
z
" transform="scale(0.015625)"/>
       </defs>
       <use xlink:href="#DejaVuSans-30"/>
      </g>
     </g>
    </g>
    <g id="xtick_2">
     <g id="line2d_3">
      <path d="M 144.2304 298.944 
L 144.2304 6.912 
" clip-path="url(#p85a37f3ffe)" style="fill: none; stroke: #b0b0b0; stroke-width: 0.8; stroke-linecap: square"/>
     </g>
     <g id="line2d_4">
      <g>
       <use xlink:href="#mcb0fbb7fa3" x="144.2304" y="298.944" style="stroke: #000000; stroke-width: 0.8"/>
      </g>
     </g>
     <g id="text_2">
      <!-- 2 -->
      <g transform="translate(138.822275 318.861344)scale(0.17 -0.17)">
       <defs>
        <path id="DejaVuSans-32" d="M 1228 531 
L 3431 531 
L 3431 0 
L 469 0 
L 469 531 
Q 828 903 1448 1529 
Q 2069 2156 2228 2338 
Q 2531 2678 2651 2914 
Q 2772 3150 2772 3378 
Q 2772 3750 2511 3984 
Q 2250 4219 1831 4219 
Q 1534 4219 1204 4116 
Q 875 4013 500 3803 
L 500 4441 
Q 881 4594 1212 4672 
Q 1544 4750 1819 4750 
Q 2544 4750 2975 4387 
Q 3406 4025 3406 3419 
Q 3406 3131 3298 2873 
Q 3191 2616 2906 2266 
Q 2828 2175 2409 1742 
Q 1991 1309 1228 531 
z
" transform="scale(0.015625)"/>
       </defs>
       <use xlink:href="#DejaVuSans-32"/>
      </g>
     </g>
    </g>
    <g id="xtick_3">
     <g id="line2d_5">
      <path d="M 230.8608 298.944 
L 230.8608 6.912 
" clip-path="url(#p85a37f3ffe)" style="fill: none; stroke: #b0b0b0; stroke-width: 0.8; stroke-linecap: square"/>
     </g>
     <g id="line2d_6">
      <g>
       <use xlink:href="#mcb0fbb7fa3" x="230.8608" y="298.944" style="stroke: #000000; stroke-width: 0.8"/>
      </g>
     </g>
     <g id="text_3">
      <!-- 4 -->
      <g transform="translate(225.452675 318.861344)scale(0.17 -0.17)">
       <defs>
        <path id="DejaVuSans-34" d="M 2419 4116 
L 825 1625 
L 2419 1625 
L 2419 4116 
z
M 2253 4666 
L 3047 4666 
L 3047 1625 
L 3713 1625 
L 3713 1100 
L 3047 1100 
L 3047 0 
L 2419 0 
L 2419 1100 
L 313 1100 
L 313 1709 
L 2253 4666 
z
" transform="scale(0.015625)"/>
       </defs>
       <use xlink:href="#DejaVuSans-34"/>
      </g>
     </g>
    </g>
    <g id="xtick_4">
     <g id="line2d_7">
      <path d="M 317.4912 298.944 
L 317.4912 6.912 
" clip-path="url(#p85a37f3ffe)" style="fill: none; stroke: #b0b0b0; stroke-width: 0.8; stroke-linecap: square"/>
     </g>
     <g id="line2d_8">
      <g>
       <use xlink:href="#mcb0fbb7fa3" x="317.4912" y="298.944" style="stroke: #000000; stroke-width: 0.8"/>
      </g>
     </g>
     <g id="text_4">
      <!-- 6 -->
      <g transform="translate(312.083075 318.861344)scale(0.17 -0.17)">
       <defs>
        <path id="DejaVuSans-36" d="M 2113 2584 
Q 1688 2584 1439 2293 
Q 1191 2003 1191 1497 
Q 1191 994 1439 701 
Q 1688 409 2113 409 
Q 2538 409 2786 701 
Q 3034 994 3034 1497 
Q 3034 2003 2786 2293 
Q 2538 2584 2113 2584 
z
M 3366 4563 
L 3366 3988 
Q 3128 4100 2886 4159 
Q 2644 4219 2406 4219 
Q 1781 4219 1451 3797 
Q 1122 3375 1075 2522 
Q 1259 2794 1537 2939 
Q 1816 3084 2150 3084 
Q 2853 3084 3261 2657 
Q 3669 2231 3669 1497 
Q 3669 778 3244 343 
Q 2819 -91 2113 -91 
Q 1303 -91 875 529 
Q 447 1150 447 2328 
Q 447 3434 972 4092 
Q 1497 4750 2381 4750 
Q 2619 4750 2861 4703 
Q 3103 4656 3366 4563 
z
" transform="scale(0.015625)"/>
       </defs>
       <use xlink:href="#DejaVuSans-36"/>
      </g>
     </g>
    </g>
    <g id="xtick_5">
     <g id="line2d_9">
      <path d="M 100.9152 298.944 
L 100.9152 6.912 
" clip-path="url(#p85a37f3ffe)" style="fill: none; stroke: #b0b0b0; stroke-width: 0.8; stroke-linecap: square"/>
     </g>
     <g id="line2d_10">
      <defs>
       <path id="mef4c67e119" d="M 0 0 
L 0 2 
" style="stroke: #000000; stroke-width: 0.6"/>
      </defs>
      <g>
       <use xlink:href="#mef4c67e119" x="100.9152" y="298.944" style="stroke: #000000; stroke-width: 0.6"/>
      </g>
     </g>
    </g>
    <g id="xtick_6">
     <g id="line2d_11">
      <path d="M 187.5456 298.944 
L 187.5456 6.912 
" clip-path="url(#p85a37f3ffe)" style="fill: none; stroke: #b0b0b0; stroke-width: 0.8; stroke-linecap: square"/>
     </g>
     <g id="line2d_12">
      <g>
       <use xlink:href="#mef4c67e119" x="187.5456" y="298.944" style="stroke: #000000; stroke-width: 0.6"/>
      </g>
     </g>
    </g>
    <g id="xtick_7">
     <g id="line2d_13">
      <path d="M 274.176 298.944 
L 274.176 6.912 
" clip-path="url(#p85a37f3ffe)" style="fill: none; stroke: #b0b0b0; stroke-width: 0.8; stroke-linecap: square"/>
     </g>
     <g id="line2d_14">
      <g>
       <use xlink:href="#mef4c67e119" x="274.176" y="298.944" style="stroke: #000000; stroke-width: 0.6"/>
      </g>
     </g>
    </g>
    <g id="xtick_8">
     <g id="line2d_15">
      <path d="M 360.8064 298.944 
L 360.8064 6.912 
" clip-path="url(#p85a37f3ffe)" style="fill: none; stroke: #b0b0b0; stroke-width: 0.8; stroke-linecap: square"/>
     </g>
     <g id="line2d_16">
      <g>
       <use xlink:href="#mef4c67e119" x="360.8064" y="298.944" style="stroke: #000000; stroke-width: 0.6"/>
      </g>
     </g>
    </g>
    <g id="text_5">
     <!-- log10(# f-evals / dimension) -->
     <g transform="translate(88.823278 339.314156)scale(0.17 -0.17)">
      <defs>
       <path id="DejaVuSans-6c" d="M 603 4863 
L 1178 4863 
L 1178 0 
L 603 0 
L 603 4863 
z
" transform="scale(0.015625)"/>
       <path id="DejaVuSans-6f" d="M 1959 3097 
Q 1497 3097 1228 2736 
Q 959 2375 959 1747 
Q 959 1119 1226 758 
Q 1494 397 1959 397 
Q 2419 397 2687 759 
Q 2956 1122 2956 1747 
Q 2956 2369 2687 2733 
Q 2419 3097 1959 3097 
z
M 1959 3584 
Q 2709 3584 3137 3096 
Q 3566 2609 3566 1747 
Q 3566 888 3137 398 
Q 2709 -91 1959 -91 
Q 1206 -91 779 398 
Q 353 888 353 1747 
Q 353 2609 779 3096 
Q 1206 3584 1959 3584 
z
" transform="scale(0.015625)"/>
       <path id="DejaVuSans-67" d="M 2906 1791 
Q 2906 2416 2648 2759 
Q 2391 3103 1925 3103 
Q 1463 3103 1205 2759 
Q 947 2416 947 1791 
Q 947 1169 1205 825 
Q 1463 481 1925 481 
Q 2391 481 2648 825 
Q 2906 1169 2906 1791 
z
M 3481 434 
Q 3481 -459 3084 -895 
Q 2688 -1331 1869 -1331 
Q 1566 -1331 1297 -1286 
Q 1028 -1241 775 -1147 
L 775 -588 
Q 1028 -725 1275 -790 
Q 1522 -856 1778 -856 
Q 2344 -856 2625 -561 
Q 2906 -266 2906 331 
L 2906 616 
Q 2728 306 2450 153 
Q 2172 0 1784 0 
Q 1141 0 747 490 
Q 353 981 353 1791 
Q 353 2603 747 3093 
Q 1141 3584 1784 3584 
Q 2172 3584 2450 3431 
Q 2728 3278 2906 2969 
L 2906 3500 
L 3481 3500 
L 3481 434 
z
" transform="scale(0.015625)"/>
       <path id="DejaVuSans-31" d="M 794 531 
L 1825 531 
L 1825 4091 
L 703 3866 
L 703 4441 
L 1819 4666 
L 2450 4666 
L 2450 531 
L 3481 531 
L 3481 0 
L 794 0 
L 794 531 
z
" transform="scale(0.015625)"/>
       <path id="DejaVuSans-28" d="M 1984 4856 
Q 1566 4138 1362 3434 
Q 1159 2731 1159 2009 
Q 1159 1288 1364 580 
Q 1569 -128 1984 -844 
L 1484 -844 
Q 1016 -109 783 600 
Q 550 1309 550 2009 
Q 550 2706 781 3412 
Q 1013 4119 1484 4856 
L 1984 4856 
z
" transform="scale(0.015625)"/>
       <path id="DejaVuSans-23" d="M 3272 2816 
L 2363 2816 
L 2100 1772 
L 3016 1772 
L 3272 2816 
z
M 2803 4594 
L 2478 3297 
L 3391 3297 
L 3719 4594 
L 4219 4594 
L 3897 3297 
L 4872 3297 
L 4872 2816 
L 3775 2816 
L 3519 1772 
L 4513 1772 
L 4513 1294 
L 3397 1294 
L 3072 0 
L 2572 0 
L 2894 1294 
L 1978 1294 
L 1656 0 
L 1153 0 
L 1478 1294 
L 494 1294 
L 494 1772 
L 1594 1772 
L 1856 2816 
L 850 2816 
L 850 3297 
L 1978 3297 
L 2297 4594 
L 2803 4594 
z
" transform="scale(0.015625)"/>
       <path id="DejaVuSans-20" transform="scale(0.015625)"/>
       <path id="DejaVuSans-66" d="M 2375 4863 
L 2375 4384 
L 1825 4384 
Q 1516 4384 1395 4259 
Q 1275 4134 1275 3809 
L 1275 3500 
L 2222 3500 
L 2222 3053 
L 1275 3053 
L 1275 0 
L 697 0 
L 697 3053 
L 147 3053 
L 147 3500 
L 697 3500 
L 697 3744 
Q 697 4328 969 4595 
Q 1241 4863 1831 4863 
L 2375 4863 
z
" transform="scale(0.015625)"/>
       <path id="DejaVuSans-2d" d="M 313 2009 
L 1997 2009 
L 1997 1497 
L 313 1497 
L 313 2009 
z
" transform="scale(0.015625)"/>
       <path id="DejaVuSans-65" d="M 3597 1894 
L 3597 1613 
L 953 1613 
Q 991 1019 1311 708 
Q 1631 397 2203 397 
Q 2534 397 2845 478 
Q 3156 559 3463 722 
L 3463 178 
Q 3153 47 2828 -22 
Q 2503 -91 2169 -91 
Q 1331 -91 842 396 
Q 353 884 353 1716 
Q 353 2575 817 3079 
Q 1281 3584 2069 3584 
Q 2775 3584 3186 3129 
Q 3597 2675 3597 1894 
z
M 3022 2063 
Q 3016 2534 2758 2815 
Q 2500 3097 2075 3097 
Q 1594 3097 1305 2825 
Q 1016 2553 972 2059 
L 3022 2063 
z
" transform="scale(0.015625)"/>
       <path id="DejaVuSans-76" d="M 191 3500 
L 800 3500 
L 1894 563 
L 2988 3500 
L 3597 3500 
L 2284 0 
L 1503 0 
L 191 3500 
z
" transform="scale(0.015625)"/>
       <path id="DejaVuSans-61" d="M 2194 1759 
Q 1497 1759 1228 1600 
Q 959 1441 959 1056 
Q 959 750 1161 570 
Q 1363 391 1709 391 
Q 2188 391 2477 730 
Q 2766 1069 2766 1631 
L 2766 1759 
L 2194 1759 
z
M 3341 1997 
L 3341 0 
L 2766 0 
L 2766 531 
Q 2569 213 2275 61 
Q 1981 -91 1556 -91 
Q 1019 -91 701 211 
Q 384 513 384 1019 
Q 384 1609 779 1909 
Q 1175 2209 1959 2209 
L 2766 2209 
L 2766 2266 
Q 2766 2663 2505 2880 
Q 2244 3097 1772 3097 
Q 1472 3097 1187 3025 
Q 903 2953 641 2809 
L 641 3341 
Q 956 3463 1253 3523 
Q 1550 3584 1831 3584 
Q 2591 3584 2966 3190 
Q 3341 2797 3341 1997 
z
" transform="scale(0.015625)"/>
       <path id="DejaVuSans-73" d="M 2834 3397 
L 2834 2853 
Q 2591 2978 2328 3040 
Q 2066 3103 1784 3103 
Q 1356 3103 1142 2972 
Q 928 2841 928 2578 
Q 928 2378 1081 2264 
Q 1234 2150 1697 2047 
L 1894 2003 
Q 2506 1872 2764 1633 
Q 3022 1394 3022 966 
Q 3022 478 2636 193 
Q 2250 -91 1575 -91 
Q 1294 -91 989 -36 
Q 684 19 347 128 
L 347 722 
Q 666 556 975 473 
Q 1284 391 1588 391 
Q 1994 391 2212 530 
Q 2431 669 2431 922 
Q 2431 1156 2273 1281 
Q 2116 1406 1581 1522 
L 1381 1569 
Q 847 1681 609 1914 
Q 372 2147 372 2553 
Q 372 3047 722 3315 
Q 1072 3584 1716 3584 
Q 2034 3584 2315 3537 
Q 2597 3491 2834 3397 
z
" transform="scale(0.015625)"/>
       <path id="DejaVuSans-2f" d="M 1625 4666 
L 2156 4666 
L 531 -594 
L 0 -594 
L 1625 4666 
z
" transform="scale(0.015625)"/>
       <path id="DejaVuSans-64" d="M 2906 2969 
L 2906 4863 
L 3481 4863 
L 3481 0 
L 2906 0 
L 2906 525 
Q 2725 213 2448 61 
Q 2172 -91 1784 -91 
Q 1150 -91 751 415 
Q 353 922 353 1747 
Q 353 2572 751 3078 
Q 1150 3584 1784 3584 
Q 2172 3584 2448 3432 
Q 2725 3281 2906 2969 
z
M 947 1747 
Q 947 1113 1208 752 
Q 1469 391 1925 391 
Q 2381 391 2643 752 
Q 2906 1113 2906 1747 
Q 2906 2381 2643 2742 
Q 2381 3103 1925 3103 
Q 1469 3103 1208 2742 
Q 947 2381 947 1747 
z
" transform="scale(0.015625)"/>
       <path id="DejaVuSans-69" d="M 603 3500 
L 1178 3500 
L 1178 0 
L 603 0 
L 603 3500 
z
M 603 4863 
L 1178 4863 
L 1178 4134 
L 603 4134 
L 603 4863 
z
" transform="scale(0.015625)"/>
       <path id="DejaVuSans-6d" d="M 3328 2828 
Q 3544 3216 3844 3400 
Q 4144 3584 4550 3584 
Q 5097 3584 5394 3201 
Q 5691 2819 5691 2113 
L 5691 0 
L 5113 0 
L 5113 2094 
Q 5113 2597 4934 2840 
Q 4756 3084 4391 3084 
Q 3944 3084 3684 2787 
Q 3425 2491 3425 1978 
L 3425 0 
L 2847 0 
L 2847 2094 
Q 2847 2600 2669 2842 
Q 2491 3084 2119 3084 
Q 1678 3084 1418 2786 
Q 1159 2488 1159 1978 
L 1159 0 
L 581 0 
L 581 3500 
L 1159 3500 
L 1159 2956 
Q 1356 3278 1631 3431 
Q 1906 3584 2284 3584 
Q 2666 3584 2933 3390 
Q 3200 3197 3328 2828 
z
" transform="scale(0.015625)"/>
       <path id="DejaVuSans-6e" d="M 3513 2113 
L 3513 0 
L 2938 0 
L 2938 2094 
Q 2938 2591 2744 2837 
Q 2550 3084 2163 3084 
Q 1697 3084 1428 2787 
Q 1159 2491 1159 1978 
L 1159 0 
L 581 0 
L 581 3500 
L 1159 3500 
L 1159 2956 
Q 1366 3272 1645 3428 
Q 1925 3584 2291 3584 
Q 2894 3584 3203 3211 
Q 3513 2838 3513 2113 
z
" transform="scale(0.015625)"/>
       <path id="DejaVuSans-29" d="M 513 4856 
L 1013 4856 
Q 1481 4119 1714 3412 
Q 1947 2706 1947 2009 
Q 1947 1309 1714 600 
Q 1481 -109 1013 -844 
L 513 -844 
Q 928 -128 1133 580 
Q 1338 1288 1338 2009 
Q 1338 2731 1133 3434 
Q 928 4138 513 4856 
z
" transform="scale(0.015625)"/>
      </defs>
      <use xlink:href="#DejaVuSans-6c"/>
      <use xlink:href="#DejaVuSans-6f" x="27.783203"/>
      <use xlink:href="#DejaVuSans-67" x="88.964844"/>
      <use xlink:href="#DejaVuSans-31" x="152.441406"/>
      <use xlink:href="#DejaVuSans-30" x="216.064453"/>
      <use xlink:href="#DejaVuSans-28" x="279.6875"/>
      <use xlink:href="#DejaVuSans-23" x="318.701172"/>
      <use xlink:href="#DejaVuSans-20" x="402.490234"/>
      <use xlink:href="#DejaVuSans-66" x="434.277344"/>
      <use xlink:href="#DejaVuSans-2d" x="463.982422"/>
      <use xlink:href="#DejaVuSans-65" x="500.066406"/>
      <use xlink:href="#DejaVuSans-76" x="561.589844"/>
      <use xlink:href="#DejaVuSans-61" x="620.769531"/>
      <use xlink:href="#DejaVuSans-6c" x="682.048828"/>
      <use xlink:href="#DejaVuSans-73" x="709.832031"/>
      <use xlink:href="#DejaVuSans-20" x="761.931641"/>
      <use xlink:href="#DejaVuSans-2f" x="793.71875"/>
      <use xlink:href="#DejaVuSans-20" x="827.410156"/>
      <use xlink:href="#DejaVuSans-64" x="859.197266"/>
      <use xlink:href="#DejaVuSans-69" x="922.673828"/>
      <use xlink:href="#DejaVuSans-6d" x="950.457031"/>
      <use xlink:href="#DejaVuSans-65" x="1047.869141"/>
      <use xlink:href="#DejaVuSans-6e" x="1109.392578"/>
      <use xlink:href="#DejaVuSans-73" x="1172.771484"/>
      <use xlink:href="#DejaVuSans-69" x="1224.871094"/>
      <use xlink:href="#DejaVuSans-6f" x="1252.654297"/>
      <use xlink:href="#DejaVuSans-6e" x="1313.835938"/>
      <use xlink:href="#DejaVuSans-29" x="1377.214844"/>
     </g>
    </g>
   </g>
   <g id="matplotlib.axis_2">
    <g id="ytick_1">
     <g id="line2d_17">
      <path d="M 57.6 298.944 
L 360.8064 298.944 
" clip-path="url(#p85a37f3ffe)" style="fill: none; stroke: #b0b0b0; stroke-width: 0.8; stroke-linecap: square"/>
     </g>
     <g id="line2d_18">
      <defs>
       <path id="m61a8a794e6" d="M 0 0 
L -3.5 0 
" style="stroke: #000000; stroke-width: 0.8"/>
      </defs>
      <g>
       <use xlink:href="#m61a8a794e6" x="57.6" y="298.944" style="stroke: #000000; stroke-width: 0.8"/>
      </g>
     </g>
     <g id="text_6">
      <!-- 0.0 -->
      <g transform="translate(25.155 305.02275)scale(0.16 -0.16)">
       <defs>
        <path id="DejaVuSans-2e" d="M 684 794 
L 1344 794 
L 1344 0 
L 684 0 
L 684 794 
z
" transform="scale(0.015625)"/>
       </defs>
       <use xlink:href="#DejaVuSans-30"/>
       <use xlink:href="#DejaVuSans-2e" x="63.623047"/>
       <use xlink:href="#DejaVuSans-30" x="95.410156"/>
      </g>
     </g>
    </g>
    <g id="ytick_2">
     <g id="line2d_19">
      <path d="M 57.6 240.5376 
L 360.8064 240.5376 
" clip-path="url(#p85a37f3ffe)" style="fill: none; stroke: #b0b0b0; stroke-width: 0.8; stroke-linecap: square"/>
     </g>
     <g id="line2d_20">
      <g>
       <use xlink:href="#m61a8a794e6" x="57.6" y="240.5376" style="stroke: #000000; stroke-width: 0.8"/>
      </g>
     </g>
     <g id="text_7">
      <!-- 0.2 -->
      <g transform="translate(25.155 246.61635)scale(0.16 -0.16)">
       <use xlink:href="#DejaVuSans-30"/>
       <use xlink:href="#DejaVuSans-2e" x="63.623047"/>
       <use xlink:href="#DejaVuSans-32" x="95.410156"/>
      </g>
     </g>
    </g>
    <g id="ytick_3">
     <g id="line2d_21">
      <path d="M 57.6 182.1312 
L 360.8064 182.1312 
" clip-path="url(#p85a37f3ffe)" style="fill: none; stroke: #b0b0b0; stroke-width: 0.8; stroke-linecap: square"/>
     </g>
     <g id="line2d_22">
      <g>
       <use xlink:href="#m61a8a794e6" x="57.6" y="182.1312" style="stroke: #000000; stroke-width: 0.8"/>
      </g>
     </g>
     <g id="text_8">
      <!-- 0.4 -->
      <g transform="translate(25.155 188.20995)scale(0.16 -0.16)">
       <use xlink:href="#DejaVuSans-30"/>
       <use xlink:href="#DejaVuSans-2e" x="63.623047"/>
       <use xlink:href="#DejaVuSans-34" x="95.410156"/>
      </g>
     </g>
    </g>
    <g id="ytick_4">
     <g id="line2d_23">
      <path d="M 57.6 123.7248 
L 360.8064 123.7248 
" clip-path="url(#p85a37f3ffe)" style="fill: none; stroke: #b0b0b0; stroke-width: 0.8; stroke-linecap: square"/>
     </g>
     <g id="line2d_24">
      <g>
       <use xlink:href="#m61a8a794e6" x="57.6" y="123.7248" style="stroke: #000000; stroke-width: 0.8"/>
      </g>
     </g>
     <g id="text_9">
      <!-- 0.6 -->
      <g transform="translate(25.155 129.80355)scale(0.16 -0.16)">
       <use xlink:href="#DejaVuSans-30"/>
       <use xlink:href="#DejaVuSans-2e" x="63.623047"/>
       <use xlink:href="#DejaVuSans-36" x="95.410156"/>
      </g>
     </g>
    </g>
    <g id="ytick_5">
     <g id="line2d_25">
      <path d="M 57.6 65.3184 
L 360.8064 65.3184 
" clip-path="url(#p85a37f3ffe)" style="fill: none; stroke: #b0b0b0; stroke-width: 0.8; stroke-linecap: square"/>
     </g>
     <g id="line2d_26">
      <g>
       <use xlink:href="#m61a8a794e6" x="57.6" y="65.3184" style="stroke: #000000; stroke-width: 0.8"/>
      </g>
     </g>
     <g id="text_10">
      <!-- 0.8 -->
      <g transform="translate(25.155 71.39715)scale(0.16 -0.16)">
       <defs>
        <path id="DejaVuSans-38" d="M 2034 2216 
Q 1584 2216 1326 1975 
Q 1069 1734 1069 1313 
Q 1069 891 1326 650 
Q 1584 409 2034 409 
Q 2484 409 2743 651 
Q 3003 894 3003 1313 
Q 3003 1734 2745 1975 
Q 2488 2216 2034 2216 
z
M 1403 2484 
Q 997 2584 770 2862 
Q 544 3141 544 3541 
Q 544 4100 942 4425 
Q 1341 4750 2034 4750 
Q 2731 4750 3128 4425 
Q 3525 4100 3525 3541 
Q 3525 3141 3298 2862 
Q 3072 2584 2669 2484 
Q 3125 2378 3379 2068 
Q 3634 1759 3634 1313 
Q 3634 634 3220 271 
Q 2806 -91 2034 -91 
Q 1263 -91 848 271 
Q 434 634 434 1313 
Q 434 1759 690 2068 
Q 947 2378 1403 2484 
z
M 1172 3481 
Q 1172 3119 1398 2916 
Q 1625 2713 2034 2713 
Q 2441 2713 2670 2916 
Q 2900 3119 2900 3481 
Q 2900 3844 2670 4047 
Q 2441 4250 2034 4250 
Q 1625 4250 1398 4047 
Q 1172 3844 1172 3481 
z
" transform="scale(0.015625)"/>
       </defs>
       <use xlink:href="#DejaVuSans-30"/>
       <use xlink:href="#DejaVuSans-2e" x="63.623047"/>
       <use xlink:href="#DejaVuSans-38" x="95.410156"/>
      </g>
     </g>
    </g>
    <g id="ytick_6">
     <g id="line2d_27">
      <path d="M 57.6 6.912 
L 360.8064 6.912 
" clip-path="url(#p85a37f3ffe)" style="fill: none; stroke: #b0b0b0; stroke-width: 0.8; stroke-linecap: square"/>
     </g>
     <g id="line2d_28">
      <g>
       <use xlink:href="#m61a8a794e6" x="57.6" y="6.912" style="stroke: #000000; stroke-width: 0.8"/>
      </g>
     </g>
     <g id="text_11">
      <!-- 1.0 -->
      <g transform="translate(25.155 12.99075)scale(0.16 -0.16)">
       <use xlink:href="#DejaVuSans-31"/>
       <use xlink:href="#DejaVuSans-2e" x="63.623047"/>
       <use xlink:href="#DejaVuSans-30" x="95.410156"/>
      </g>
     </g>
    </g>
    <g id="text_12">
     <!-- Fraction of function,target pairs -->
     <g transform="translate(17.619531 287.313)rotate(-90)scale(0.17 -0.17)">
      <defs>
       <path id="DejaVuSans-46" d="M 628 4666 
L 3309 4666 
L 3309 4134 
L 1259 4134 
L 1259 2759 
L 3109 2759 
L 3109 2228 
L 1259 2228 
L 1259 0 
L 628 0 
L 628 4666 
z
" transform="scale(0.015625)"/>
       <path id="DejaVuSans-72" d="M 2631 2963 
Q 2534 3019 2420 3045 
Q 2306 3072 2169 3072 
Q 1681 3072 1420 2755 
Q 1159 2438 1159 1844 
L 1159 0 
L 581 0 
L 581 3500 
L 1159 3500 
L 1159 2956 
Q 1341 3275 1631 3429 
Q 1922 3584 2338 3584 
Q 2397 3584 2469 3576 
Q 2541 3569 2628 3553 
L 2631 2963 
z
" transform="scale(0.015625)"/>
       <path id="DejaVuSans-63" d="M 3122 3366 
L 3122 2828 
Q 2878 2963 2633 3030 
Q 2388 3097 2138 3097 
Q 1578 3097 1268 2742 
Q 959 2388 959 1747 
Q 959 1106 1268 751 
Q 1578 397 2138 397 
Q 2388 397 2633 464 
Q 2878 531 3122 666 
L 3122 134 
Q 2881 22 2623 -34 
Q 2366 -91 2075 -91 
Q 1284 -91 818 406 
Q 353 903 353 1747 
Q 353 2603 823 3093 
Q 1294 3584 2113 3584 
Q 2378 3584 2631 3529 
Q 2884 3475 3122 3366 
z
" transform="scale(0.015625)"/>
       <path id="DejaVuSans-74" d="M 1172 4494 
L 1172 3500 
L 2356 3500 
L 2356 3053 
L 1172 3053 
L 1172 1153 
Q 1172 725 1289 603 
Q 1406 481 1766 481 
L 2356 481 
L 2356 0 
L 1766 0 
Q 1100 0 847 248 
Q 594 497 594 1153 
L 594 3053 
L 172 3053 
L 172 3500 
L 594 3500 
L 594 4494 
L 1172 4494 
z
" transform="scale(0.015625)"/>
       <path id="DejaVuSans-75" d="M 544 1381 
L 544 3500 
L 1119 3500 
L 1119 1403 
Q 1119 906 1312 657 
Q 1506 409 1894 409 
Q 2359 409 2629 706 
Q 2900 1003 2900 1516 
L 2900 3500 
L 3475 3500 
L 3475 0 
L 2900 0 
L 2900 538 
Q 2691 219 2414 64 
Q 2138 -91 1772 -91 
Q 1169 -91 856 284 
Q 544 659 544 1381 
z
M 1991 3584 
L 1991 3584 
z
" transform="scale(0.015625)"/>
       <path id="DejaVuSans-2c" d="M 750 794 
L 1409 794 
L 1409 256 
L 897 -744 
L 494 -744 
L 750 256 
L 750 794 
z
" transform="scale(0.015625)"/>
       <path id="DejaVuSans-70" d="M 1159 525 
L 1159 -1331 
L 581 -1331 
L 581 3500 
L 1159 3500 
L 1159 2969 
Q 1341 3281 1617 3432 
Q 1894 3584 2278 3584 
Q 2916 3584 3314 3078 
Q 3713 2572 3713 1747 
Q 3713 922 3314 415 
Q 2916 -91 2278 -91 
Q 1894 -91 1617 61 
Q 1341 213 1159 525 
z
M 3116 1747 
Q 3116 2381 2855 2742 
Q 2594 3103 2138 3103 
Q 1681 3103 1420 2742 
Q 1159 2381 1159 1747 
Q 1159 1113 1420 752 
Q 1681 391 2138 391 
Q 2594 391 2855 752 
Q 3116 1113 3116 1747 
z
" transform="scale(0.015625)"/>
      </defs>
      <use xlink:href="#DejaVuSans-46"/>
      <use xlink:href="#DejaVuSans-72" x="50.269531"/>
      <use xlink:href="#DejaVuSans-61" x="91.382812"/>
      <use xlink:href="#DejaVuSans-63" x="152.662109"/>
      <use xlink:href="#DejaVuSans-74" x="207.642578"/>
      <use xlink:href="#DejaVuSans-69" x="246.851562"/>
      <use xlink:href="#DejaVuSans-6f" x="274.634766"/>
      <use xlink:href="#DejaVuSans-6e" x="335.816406"/>
      <use xlink:href="#DejaVuSans-20" x="399.195312"/>
      <use xlink:href="#DejaVuSans-6f" x="430.982422"/>
      <use xlink:href="#DejaVuSans-66" x="492.164062"/>
      <use xlink:href="#DejaVuSans-20" x="527.369141"/>
      <use xlink:href="#DejaVuSans-66" x="559.15625"/>
      <use xlink:href="#DejaVuSans-75" x="594.361328"/>
      <use xlink:href="#DejaVuSans-6e" x="657.740234"/>
      <use xlink:href="#DejaVuSans-63" x="721.119141"/>
      <use xlink:href="#DejaVuSans-74" x="776.099609"/>
      <use xlink:href="#DejaVuSans-69" x="815.308594"/>
      <use xlink:href="#DejaVuSans-6f" x="843.091797"/>
      <use xlink:href="#DejaVuSans-6e" x="904.273438"/>
      <use xlink:href="#DejaVuSans-2c" x="967.652344"/>
      <use xlink:href="#DejaVuSans-74" x="999.439453"/>
      <use xlink:href="#DejaVuSans-61" x="1038.648438"/>
      <use xlink:href="#DejaVuSans-72" x="1099.927734"/>
      <use xlink:href="#DejaVuSans-67" x="1139.291016"/>
      <use xlink:href="#DejaVuSans-65" x="1202.767578"/>
      <use xlink:href="#DejaVuSans-74" x="1264.291016"/>
      <use xlink:href="#DejaVuSans-20" x="1303.5"/>
      <use xlink:href="#DejaVuSans-70" x="1335.287109"/>
      <use xlink:href="#DejaVuSans-61" x="1398.763672"/>
      <use xlink:href="#DejaVuSans-69" x="1460.042969"/>
      <use xlink:href="#DejaVuSans-72" x="1487.826172"/>
      <use xlink:href="#DejaVuSans-73" x="1528.939453"/>
     </g>
    </g>
   </g>
   <g id="line2d_29">
    <defs>
     <path id="m443c1bad67" d="M 0 1.5 
C 0.397805 1.5 0.77937 1.341951 1.06066 1.06066 
C 1.341951 0.77937 1.5 0.397805 1.5 0 
C 1.5 -0.397805 1.341951 -0.77937 1.06066 -1.06066 
C 0.77937 -1.341951 0.397805 -1.5 0 -1.5 
C -0.397805 -1.5 -0.77937 -1.341951 -1.06066 -1.06066 
C -1.341951 -0.77937 -1.5 -0.397805 -1.5 0 
C -1.5 0.397805 -1.341951 0.77937 -1.06066 1.06066 
C -0.77937 1.341951 -0.397805 1.5 0 1.5 
z
" style="stroke: #00bfbf"/>
    </defs>
    <g>
     <use xlink:href="#m443c1bad67" x="204.973357" y="218.886952" style="fill: #00bfbf; stroke: #00bfbf"/>
     <use xlink:href="#m443c1bad67" x="204.973357" y="218.886952" style="fill: #00bfbf; stroke: #00bfbf"/>
    </g>
   </g>
   <g id="line2d_30">
    <path d="M 44.560826 298.944 
L 44.560826 293.657214 
L 65.227428 293.657214 
L 65.227428 293.027834 
L 70.639174 293.027834 
L 70.639174 291.6432 
L 74.836851 291.6432 
L 74.836851 291.391448 
L 78.266603 291.391448 
L 78.266603 290.384441 
L 81.166416 290.384441 
L 81.166416 289.50331 
L 83.678349 289.50331 
L 83.678349 288.622179 
L 85.894031 288.622179 
L 85.894031 288.496303 
L 87.876026 288.496303 
L 87.876026 288.370428 
L 89.668958 288.370428 
L 89.668958 287.866924 
L 91.305777 287.866924 
L 91.305777 287.111669 
L 92.811505 287.111669 
L 92.811505 286.230538 
L 95.503454 286.230538 
L 95.503454 285.978786 
L 96.717523 285.978786 
L 96.717523 285.727034 
L 97.857967 285.727034 
L 97.857967 285.223531 
L 98.933205 285.223531 
L 98.933205 284.845903 
L 100.9152 284.845903 
L 100.9152 284.720028 
L 102.708132 284.720028 
L 102.708132 284.090648 
L 103.544339 284.090648 
L 103.544339 283.335393 
L 104.344952 283.335393 
L 104.344952 283.209517 
L 105.112877 283.209517 
L 105.112877 282.706014 
L 106.560633 282.706014 
L 106.560633 281.699007 
L 107.244765 281.699007 
L 107.244765 281.447255 
L 110.335561 281.447255 
L 110.335561 280.566124 
L 111.442442 280.566124 
L 111.442442 280.188497 
L 113.478107 280.188497 
L 113.478107 279.559117 
L 116.583514 279.559117 
L 116.583514 279.433241 
L 116.988079 279.433241 
L 116.988079 279.307366 
L 118.152051 279.307366 
L 118.152051 279.18149 
L 118.524569 279.18149 
L 118.524569 278.803862 
L 119.944983 278.803862 
L 119.944983 278.300359 
L 120.616896 278.300359 
L 120.616896 276.789848 
L 120.944062 276.789848 
L 120.944062 276.034593 
L 121.265635 276.034593 
L 121.265635 275.908717 
L 122.19863 275.908717 
L 122.19863 275.656966 
L 123.08753 275.656966 
L 123.08753 275.279338 
L 124.481616 275.279338 
L 124.481616 275.153462 
L 124.748451 275.153462 
L 124.748451 275.027586 
L 125.779479 275.027586 
L 125.779479 274.90171 
L 127.227236 274.90171 
L 127.227236 274.775834 
L 127.458055 274.775834 
L 127.458055 274.649959 
L 128.354013 274.649959 
L 128.354013 274.398207 
L 128.999044 274.398207 
L 128.999044 274.272331 
L 129.622688 274.272331 
L 129.622688 274.146455 
L 129.826058 274.146455 
L 129.826058 273.894703 
L 131.191226 273.894703 
L 131.191226 273.642952 
L 131.378407 273.642952 
L 131.378407 273.517076 
L 132.287354 273.517076 
L 132.287354 273.265324 
L 132.638982 273.265324 
L 132.638982 272.887697 
L 134.620977 272.887697 
L 134.620977 272.635945 
L 134.931919 272.635945 
L 134.931919 272.510069 
L 135.538796 272.510069 
L 135.538796 272.258317 
L 137.520791 272.258317 
L 137.520791 271.503062 
L 138.438609 271.503062 
L 138.438609 271.377186 
L 138.943648 271.377186 
L 138.943648 271.25131 
L 139.067817 271.25131 
L 139.067817 270.999559 
L 139.676658 270.999559 
L 139.676658 270.621931 
L 140.838234 270.621931 
L 140.838234 270.370179 
L 141.173167 270.370179 
L 141.283499 270.118428 
L 142.865233 270.118428 
L 142.865233 269.866676 
L 143.066428 269.866676 
L 143.066428 269.7408 
L 144.417581 269.7408 
L 144.417581 269.237297 
L 144.602918 269.237297 
L 144.694906 268.733793 
L 144.968202 268.733793 
L 145.058426 268.482041 
L 145.237585 268.482041 
L 145.237585 268.23029 
L 145.415054 268.23029 
L 145.415054 267.978538 
L 145.765046 267.978538 
L 145.765046 267.852662 
L 145.93763 267.852662 
L 146.023332 267.097407 
L 146.362288 267.097407 
L 146.446082 266.719779 
L 146.777571 266.719779 
L 146.859539 266.468028 
L 147.022411 266.468028 
L 147.022411 265.838648 
L 147.502732 265.838648 
L 147.502732 265.712772 
L 147.816265 265.712772 
L 147.816265 265.461021 
L 148.874221 265.461021 
L 148.874221 265.335145 
L 149.31003 265.335145 
L 149.381693 264.957517 
L 149.806031 264.957517 
L 149.806031 264.705766 
L 150.289291 264.705766 
L 150.357325 264.454014 
L 150.492661 264.454014 
L 150.492661 264.202262 
L 151.155108 264.202262 
L 151.155108 264.076386 
L 151.982822 264.076386 
L 151.982822 262.943503 
L 152.655828 262.943503 
L 152.655828 262.314124 
L 152.775647 262.314124 
L 152.775647 261.936497 
L 152.894708 261.936497 
L 152.894708 261.684745 
L 153.421349 261.684745 
L 153.478964 261.432993 
L 153.877408 261.432993 
L 153.877408 261.307117 
L 154.04562 261.307117 
L 154.04562 261.181241 
L 154.156931 261.181241 
L 154.156931 261.055366 
L 154.486967 261.055366 
L 154.486967 260.92949 
L 154.703817 260.92949 
L 154.811312 260.677738 
L 154.86483 260.677738 
L 154.918196 259.922483 
L 155.024477 259.922483 
L 155.024477 259.796607 
L 156.005274 259.796607 
L 156.005274 259.670731 
L 156.550574 259.670731 
L 156.550574 259.544855 
L 156.937458 259.544855 
L 156.937458 259.293103 
L 157.871225 259.293103 
L 157.916719 258.286097 
L 158.052543 258.286097 
L 158.052543 258.160221 
L 158.276759 258.160221 
L 158.365703 257.782593 
L 158.542339 257.782593 
L 158.58624 257.404966 
L 158.847515 257.404966 
L 158.847515 257.153214 
L 159.019705 257.153214 
L 159.019705 257.027338 
L 159.527013 257.027338 
L 159.527013 256.901462 
L 159.693121 256.901462 
L 159.734419 256.523834 
L 160.102084 256.523834 
L 160.18282 256.020331 
L 160.541906 256.020331 
L 160.541906 255.768579 
L 161.316153 255.768579 
L 161.316153 255.642703 
L 161.467251 255.642703 
L 161.467251 255.516828 
L 161.913396 255.516828 
L 162.023298 255.1392 
L 162.456597 255.1392 
L 162.527853 254.635697 
L 162.59884 254.635697 
L 162.59884 254.383945 
L 162.880139 254.383945 
L 162.915008 254.006317 
L 163.3965 254.006317 
L 163.3965 253.754566 
L 163.699647 253.754566 
L 163.699647 253.502814 
L 164.063646 253.502814 
L 164.161708 253.251062 
L 164.612692 253.251062 
L 164.70794 252.99931 
L 165.207944 252.99931 
L 165.207944 252.873434 
L 165.51383 252.873434 
L 165.51383 252.495807 
L 165.634805 252.495807 
L 165.634805 251.992303 
L 166.286609 251.992303 
L 166.286609 251.614676 
L 166.431649 251.614676 
L 166.431649 251.362924 
L 166.718416 251.362924 
L 166.718416 251.237048 
L 167.000877 251.237048 
L 167.000877 250.985297 
L 167.140533 250.985297 
L 167.196106 250.607669 
L 167.796816 250.607669 
L 167.904005 250.104166 
L 168.037137 250.104166 
L 168.090128 249.474786 
L 168.274427 249.474786 
L 168.274427 249.34891 
L 168.482867 249.34891 
L 168.482867 249.223034 
L 168.689024 249.223034 
L 168.689024 248.971283 
L 168.816733 248.971283 
L 168.816733 248.719531 
L 169.467197 248.719531 
L 169.565302 248.341903 
L 170.024438 248.341903 
L 170.024438 248.090152 
L 170.425955 248.090152 
L 170.425955 247.712524 
L 171.293632 247.712524 
L 171.293632 247.586648 
L 171.449192 247.586648 
L 171.559524 247.209021 
L 171.82171 247.209021 
L 171.88669 246.579641 
L 172.058879 246.579641 
L 172.165703 246.202014 
L 172.208263 246.202014 
L 172.293095 245.446759 
L 172.482581 245.446759 
L 172.545321 245.069131 
L 173.242125 245.069131 
L 173.242125 244.691503 
L 173.758086 244.691503 
L 173.758086 244.565628 
L 173.894614 244.565628 
L 173.894614 244.439752 
L 174.107176 244.439752 
L 174.107176 244.313876 
L 174.449906 244.313876 
L 174.525228 244.062124 
L 174.618958 244.062124 
L 174.618958 243.810372 
L 175.726373 243.810372 
L 175.796762 243.432745 
L 175.849382 243.432745 
L 175.849382 243.055117 
L 176.075715 243.055117 
L 176.075715 242.929241 
L 176.265124 242.929241 
L 176.36764 242.425738 
L 176.401688 242.425738 
L 176.401688 242.173986 
L 176.520373 242.173986 
L 176.520373 242.04811 
L 177.45991 242.04811 
L 177.556133 241.670483 
L 178.446509 241.670483 
L 178.507438 241.166979 
L 179.842775 241.166979 
L 179.842775 240.5376 
L 180.165788 240.5376 
L 180.165788 240.411724 
L 180.835991 240.411724 
L 180.835991 240.159972 
L 180.996545 240.159972 
L 180.996545 240.034097 
L 181.116069 240.034097 
L 181.116069 239.782345 
L 181.741008 239.782345 
L 181.766602 239.404717 
L 182.14639 239.404717 
L 182.14639 239.278841 
L 182.407753 239.278841 
L 182.407753 239.152966 
L 182.787055 239.152966 
L 182.895758 238.775338 
L 183.858256 238.775338 
L 183.858256 238.523586 
L 184.029116 238.523586 
L 184.085726 238.271834 
L 185.055154 238.271834 
L 185.055154 238.020083 
L 185.448293 238.020083 
L 185.448293 237.768331 
L 185.740436 237.768331 
L 185.781803 237.390703 
L 185.864265 237.390703 
L 185.864265 237.138952 
L 186.150067 237.138952 
L 186.150067 237.013076 
L 186.50132 237.013076 
L 186.50132 236.761324 
L 186.807045 236.761324 
L 186.807045 236.509572 
L 186.991998 236.509572 
L 187.030705 236.257821 
L 187.413456 236.257821 
L 187.470203 236.006069 
L 187.853458 236.006069 
L 187.853458 235.628441 
L 188.472374 235.628441 
L 188.543867 234.873186 
L 188.61509 234.873186 
L 188.72142 234.495559 
L 188.739083 234.495559 
L 188.739083 234.243807 
L 188.958488 234.243807 
L 188.958488 234.117931 
L 189.088913 234.117931 
L 189.088913 233.992055 
L 189.364167 233.992055 
L 189.364167 233.866179 
L 189.59332 233.866179 
L 189.59332 233.740303 
L 189.819716 233.740303 
L 189.819716 233.614428 
L 190.345717 233.614428 
L 190.386198 233.2368 
L 190.579304 233.2368 
L 190.595307 232.733297 
L 190.794205 232.733297 
L 190.888934 232.229793 
L 191.014501 232.229793 
L 191.12369 231.978041 
L 191.982536 231.978041 
L 191.982536 231.852166 
L 192.321227 231.852166 
L 192.321227 231.600414 
L 192.775408 231.600414 
L 192.874865 231.09691 
L 192.903185 231.09691 
L 192.903185 230.971034 
L 193.357508 230.971034 
L 193.357508 230.719283 
L 193.515676 230.719283 
L 193.515676 230.215779 
L 193.733547 230.215779 
L 193.733547 229.964028 
L 193.888597 229.964028 
L 193.888597 229.838152 
L 194.194916 229.838152 
L 194.194916 229.5864 
L 194.515817 229.5864 
L 194.515817 229.334648 
L 194.741726 229.334648 
L 194.741726 229.208772 
L 195.059819 229.208772 
L 195.059819 228.957021 
L 195.185565 228.957021 
L 195.241878 228.453517 
L 195.322922 228.453517 
L 195.322922 228.327641 
L 195.465458 228.327641 
L 195.477801 227.698262 
L 195.729075 227.698262 
L 195.795923 227.320634 
L 196.054981 227.320634 
L 196.054981 227.194759 
L 196.363569 227.194759 
L 196.363569 227.068883 
L 196.515985 227.068883 
L 196.515985 226.943007 
L 196.690328 226.943007 
L 196.782655 226.313628 
L 196.908869 226.313628 
L 196.908869 226.187752 
L 197.38871 226.187752 
L 197.38871 225.684248 
L 197.714722 225.684248 
L 197.714722 225.558372 
L 198.067466 225.558372 
L 198.067466 225.432497 
L 198.228067 225.432497 
L 198.228067 225.306621 
L 198.545212 225.306621 
L 198.545212 225.054869 
L 198.748526 225.054869 
L 198.748526 224.928993 
L 199.133443 224.928993 
L 199.133443 224.677241 
L 199.340582 224.677241 
L 199.370705 223.921986 
L 199.48573 223.921986 
L 199.48573 223.670234 
L 199.958382 223.670234 
L 200.006941 223.418483 
L 200.603577 223.418483 
L 200.603577 223.166731 
L 201.072208 223.166731 
L 201.168197 222.789103 
L 201.53392 222.789103 
L 201.53392 222.663228 
L 202.076026 222.663228 
L 202.097736 222.2856 
L 202.52251 222.2856 
L 202.52251 222.159724 
L 202.687247 222.159724 
L 202.746033 221.404469 
L 203.103173 221.404469 
L 203.164776 220.523338 
L 203.538259 220.523338 
L 203.594449 219.893959 
L 204.100549 219.893959 
L 204.147305 219.390455 
L 204.767396 219.390455 
L 204.812525 219.138703 
L 204.973357 219.138703 
L 204.973357 218.886952 
L 360.8064 218.886952 
L 360.8064 218.886952 
" style="fill: none; stroke: #00bfbf; stroke-width: 1.5; stroke-linecap: square"/>
   </g>
   <g id="line2d_31">
    <defs>
     <path id="m0cff4e4bb0" d="M -6 0 
L 6 0 
M 0 6 
L 0 -6 
" style="stroke: #00bfbf; stroke-width: 1.5"/>
    </defs>
    <g>
     <use xlink:href="#m0cff4e4bb0" x="138.943648" y="271.25131" style="fill-opacity: 0; stroke: #00bfbf; stroke-width: 1.5"/>
     <use xlink:href="#m0cff4e4bb0" x="174.618958" y="243.810372" style="fill-opacity: 0; stroke: #00bfbf; stroke-width: 1.5"/>
     <use xlink:href="#m0cff4e4bb0" x="204.973357" y="219.138703" style="fill-opacity: 0; stroke: #00bfbf; stroke-width: 1.5"/>
     <use xlink:href="#m0cff4e4bb0" x="204.973357" y="218.886952" style="fill-opacity: 0; stroke: #00bfbf; stroke-width: 1.5"/>
     <use xlink:href="#m0cff4e4bb0" x="204.973357" y="218.886952" style="fill-opacity: 0; stroke: #00bfbf; stroke-width: 1.5"/>
     <use xlink:href="#m0cff4e4bb0" x="360.8064" y="218.886952" style="fill-opacity: 0; stroke: #00bfbf; stroke-width: 1.5"/>
    </g>
   </g>
   <g id="line2d_32">
    <path style="fill: none; stroke: #00bfbf; stroke-width: 1.5; stroke-linecap: square"/>
    <g/>
   </g>
   <g id="line2d_33">
    <path d="M 205.158657 218.886952 
" clip-path="url(#p85a37f3ffe)" style="fill: none; stroke: #00bfbf; stroke-width: 1.5; stroke-linecap: square"/>
    <defs>
     <path id="mea6e93f76b" d="M -12 12 
L 12 -12 
M -12 -12 
L 12 12 
" style="stroke: #00bfbf"/>
    </defs>
    <g clip-path="url(#p85a37f3ffe)">
     <use xlink:href="#mea6e93f76b" x="205.158657" y="218.886952" style="fill: #00bfbf; stroke: #00bfbf"/>
    </g>
   </g>
   <g id="line2d_34">
    <defs>
     <path id="mb7fcdd7547" d="M 0 1.5 
C 0.397805 1.5 0.77937 1.341951 1.06066 1.06066 
C 1.341951 0.77937 1.5 0.397805 1.5 0 
C 1.5 -0.397805 1.341951 -0.77937 1.06066 -1.06066 
C 0.77937 -1.341951 0.397805 -1.5 0 -1.5 
C -0.397805 -1.5 -0.77937 -1.341951 -1.06066 -1.06066 
C -1.341951 -0.77937 -1.5 -0.397805 -1.5 0 
C -1.5 0.397805 -1.341951 0.77937 -1.06066 1.06066 
C -0.77937 1.341951 -0.397805 1.5 0 1.5 
z
" style="stroke: #008000"/>
    </defs>
    <g>
     <use xlink:href="#mb7fcdd7547" x="196.686472" y="249.097159" style="fill: #008000; stroke: #008000"/>
     <use xlink:href="#mb7fcdd7547" x="196.686472" y="249.097159" style="fill: #008000; stroke: #008000"/>
    </g>
   </g>
   <g id="line2d_35">
    <path d="M 36.933397 298.944 
L 36.933397 289.629186 
L 57.6 289.629186 
L 57.6 289.50331 
L 63.011746 289.50331 
L 63.011746 288.873931 
L 67.209423 288.873931 
L 67.209423 288.622179 
L 70.639174 288.622179 
L 70.639174 288.496303 
L 73.538988 288.496303 
L 73.538988 287.9928 
L 82.04153 287.9928 
L 82.04153 287.866924 
L 86.578163 287.866924 
L 86.578163 287.741048 
L 87.876026 287.741048 
L 87.876026 287.237545 
L 92.322865 287.237545 
L 92.322865 287.111669 
L 93.287772 287.111669 
L 93.287772 286.859917 
L 94.205591 286.859917 
L 94.205591 286.734041 
L 97.485448 286.734041 
L 97.485448 286.356414 
L 100.277459 286.356414 
L 100.277459 286.230538 
L 102.12927 286.230538 
L 102.12927 285.85291 
L 104.860369 285.85291 
L 104.860369 285.727034 
L 106.326946 285.727034 
L 106.326946 285.601159 
L 106.791453 285.601159 
L 106.791453 285.475283 
L 109.756698 285.475283 
L 109.756698 285.097655 
L 111.97238 285.097655 
L 111.97238 284.720028 
L 112.317555 284.720028 
L 112.317555 284.468276 
L 112.989468 284.468276 
L 112.989468 284.3424 
L 114.265316 284.3424 
L 114.265316 283.838897 
L 114.872193 283.838897 
L 114.872193 283.713021 
L 115.168444 283.713021 
L 115.168444 283.587145 
L 116.308887 283.587145 
L 116.308887 283.461269 
L 116.583514 283.461269 
L 116.583514 283.083641 
L 118.889854 283.083641 
L 118.889854 282.957766 
L 119.129494 282.957766 
L 119.129494 282.83189 
L 119.599808 282.83189 
L 119.599808 282.580138 
L 120.28394 282.580138 
L 120.28394 282.328386 
L 121.789667 282.328386 
L 121.789667 282.076634 
L 122.598891 282.076634 
L 122.598891 281.950759 
L 123.374735 281.950759 
L 123.374735 281.699007 
L 124.3016 281.699007 
L 124.3016 281.573131 
L 125.695686 281.573131 
L 125.695686 281.195503 
L 126.192937 281.195503 
L 126.192937 281.069628 
L 126.993549 281.069628 
L 126.993549 280.817876 
L 128.928456 280.817876 
L 128.928456 280.692 
L 129.069367 280.692 
L 129.069367 280.440248 
L 129.209231 280.440248 
L 129.209231 280.314372 
L 132.04923 280.314372 
L 132.04923 280.188497 
L 132.168669 280.188497 
L 132.168669 279.936745 
L 132.287354 279.936745 
L 132.287354 279.559117 
L 132.754746 279.559117 
L 132.754746 279.433241 
L 133.097823 279.433241 
L 133.097823 279.18149 
L 134.091039 279.18149 
L 134.091039 279.055614 
L 134.41079 279.055614 
L 134.41079 278.929738 
L 135.034434 278.929738 
L 135.034434 278.803862 
L 136.696795 278.803862 
L 136.790153 278.55211 
L 137.250116 278.55211 
L 137.340774 278.300359 
L 137.875736 278.300359 
L 137.875736 278.174483 
L 138.050729 278.174483 
L 138.050729 277.922731 
L 138.224108 277.922731 
L 138.224108 277.796855 
L 138.481218 277.796855 
L 138.481218 277.419228 
L 138.73486 277.419228 
L 138.73486 277.293352 
L 139.313723 277.293352 
L 139.313723 277.167476 
L 139.954178 277.167476 
L 140.032723 276.915724 
L 143.331383 276.915724 
L 143.331383 276.789848 
L 144.664294 276.789848 
L 144.664294 276.663972 
L 144.786447 276.663972 
L 144.786447 276.538097 
L 145.385592 276.538097 
L 145.44447 276.286345 
L 145.678157 276.286345 
L 145.678157 275.782841 
L 145.966241 275.782841 
L 145.966241 275.656966 
L 146.080251 275.656966 
L 146.080251 275.53109 
L 146.193574 275.53109 
L 146.24998 275.279338 
L 146.306218 275.279338 
L 146.306218 275.153462 
L 146.584913 275.153462 
L 146.584913 274.649959 
L 147.237402 274.649959 
L 147.237402 274.398207 
L 147.502732 274.398207 
L 147.607824 274.146455 
L 147.712333 274.146455 
L 147.712333 273.894703 
L 148.825169 273.894703 
L 148.825169 273.768828 
L 149.73597 273.768828 
L 149.73597 273.517076 
L 150.198193 273.517076 
L 150.243797 272.761821 
L 150.515122 272.761821 
L 150.559965 272.258317 
L 151.349377 272.258317 
L 151.349377 272.132441 
L 152.715833 272.132441 
L 152.715833 272.006566 
L 153.49813 272.006566 
L 153.49813 271.754814 
L 153.688725 271.754814 
L 153.688725 271.628938 
L 153.802162 271.628938 
L 153.802162 271.503062 
L 153.989717 271.503062 
L 153.989717 271.377186 
L 154.17542 271.377186 
L 154.17542 270.999559 
L 154.541415 270.999559 
L 154.541415 270.747807 
L 155.006805 270.747807 
L 155.006805 270.621931 
L 155.18278 270.621931 
L 155.217778 270.370179 
L 155.564225 270.370179 
L 155.564225 269.992552 
L 155.701037 269.992552 
L 155.701037 269.866676 
L 156.205398 269.866676 
L 156.304668 269.614924 
L 156.436218 269.614924 
L 156.436218 269.489048 
L 157.017067 269.489048 
L 157.048816 269.111421 
L 157.394569 269.111421 
L 157.394569 268.985545 
L 157.916719 268.985545 
L 157.916719 268.859669 
L 158.127579 268.859669 
L 158.187393 268.482041 
L 158.454228 268.482041 
L 158.454228 268.356166 
L 158.948151 268.356166 
L 158.948151 268.23029 
L 160.594526 268.23029 
L 160.594526 268.104414 
L 161.163832 268.104414 
L 161.163832 267.852662 
L 161.290852 267.852662 
L 161.290852 267.60091 
L 161.592245 267.60091 
L 161.592245 267.223283 
L 161.96232 267.223283 
L 162.011118 266.971531 
L 162.657792 266.971531 
L 162.728291 266.593903 
L 162.915008 266.593903 
L 162.984551 266.216276 
L 163.122872 266.216276 
L 163.122872 266.0904 
L 163.888041 266.0904 
L 163.888041 265.964524 
L 164.194282 265.964524 
L 164.194282 265.838648 
L 164.474253 265.838648 
L 164.559567 265.586897 
L 164.750119 265.586897 
L 164.750119 265.461021 
L 165.41242 265.461021 
L 165.41242 265.335145 
L 166.169767 265.335145 
L 166.169767 265.209269 
L 166.689935 265.209269 
L 166.746854 264.831641 
L 166.954094 264.831641 
L 166.991529 264.328138 
L 167.066179 264.328138 
L 167.066179 264.202262 
L 167.343504 264.202262 
L 167.343504 264.076386 
L 167.796816 264.076386 
L 167.796816 263.824634 
L 167.992864 263.824634 
L 168.028291 263.321131 
L 168.77426 263.321131 
L 168.859111 263.069379 
L 169.128092 263.069379 
L 169.128092 262.817628 
L 169.360337 262.817628 
L 169.360337 262.691752 
L 169.784185 262.691752 
L 169.784185 262.565876 
L 170.151329 262.565876 
L 170.261661 261.684745 
L 170.418164 261.684745 
L 170.418164 261.432993 
L 170.955893 261.432993 
L 170.955893 261.181241 
L 171.211632 261.181241 
L 171.211632 261.055366 
L 171.771015 261.055366 
L 171.771015 260.92949 
L 172.370523 260.92949 
L 172.370523 260.803614 
L 172.524431 260.803614 
L 172.524431 260.677738 
L 172.814802 260.677738 
L 172.814802 260.551862 
L 173.114269 260.551862 
L 173.114269 260.30011 
L 173.35579 260.30011 
L 173.35579 260.048359 
L 173.803705 260.048359 
L 173.803705 259.922483 
L 174.393216 259.922483 
L 174.393216 259.796607 
L 174.940319 259.796607 
L 174.940319 259.670731 
L 175.755734 259.670731 
L 175.837702 259.293103 
L 176.093013 259.293103 
L 176.093013 259.041352 
L 176.230828 259.041352 
L 176.230828 258.915476 
L 177.427726 258.915476 
L 177.427726 258.663724 
L 177.556133 258.663724 
L 177.556133 258.537848 
L 178.400683 258.537848 
L 178.400683 258.411972 
L 179.140447 258.411972 
L 179.140447 258.286097 
L 179.267453 258.286097 
L 179.296641 257.782593 
L 179.983897 257.782593 
L 179.983897 257.656717 
L 180.096038 257.656717 
L 180.188981 257.27909 
L 180.800125 257.27909 
L 180.800125 257.153214 
L 181.461485 257.153214 
L 181.522042 256.775586 
L 181.711104 256.775586 
L 181.711104 256.64971 
L 182.142212 256.64971 
L 182.142212 256.397959 
L 182.333448 256.397959 
L 182.415991 256.020331 
L 182.563662 256.020331 
L 182.563662 255.768579 
L 183.371423 255.768579 
L 183.371423 255.516828 
L 183.566121 255.516828 
L 183.566121 255.265076 
L 184.347677 255.265076 
L 184.347677 255.1392 
L 184.613361 255.1392 
L 184.613361 255.013324 
L 185.083765 255.013324 
L 185.083765 254.635697 
L 185.785246 254.635697 
L 185.881399 254.006317 
L 186.017913 254.006317 
L 186.017913 253.880441 
L 186.401629 253.880441 
L 186.401629 253.754566 
L 186.600485 253.754566 
L 186.600485 253.62869 
L 188.192744 253.62869 
L 188.289431 253.125186 
L 188.373626 253.125186 
L 188.433535 252.873434 
L 188.906064 252.873434 
L 188.923555 252.621683 
L 189.576441 252.621683 
L 189.621418 252.369931 
L 191.434759 252.369931 
L 191.434759 252.244055 
L 191.582063 252.244055 
L 191.582063 252.118179 
L 191.858302 252.118179 
L 191.858302 251.992303 
L 192.036941 251.992303 
L 192.036941 251.866428 
L 192.164911 251.866428 
L 192.233459 251.4888 
L 192.306628 251.4888 
L 192.306628 251.237048 
L 192.829938 251.237048 
L 192.829938 251.111172 
L 193.339084 251.111172 
L 193.375915 250.859421 
L 193.481405 250.859421 
L 193.481405 250.733545 
L 193.785372 250.733545 
L 193.785372 250.607669 
L 194.444253 250.607669 
L 194.444253 250.355917 
L 194.890839 250.355917 
L 194.890839 250.104166 
L 195.533247 250.104166 
L 195.533247 249.97829 
L 195.651803 249.97829 
L 195.720956 249.600662 
L 196.194076 249.600662 
L 196.205951 249.223034 
L 196.686472 249.223034 
L 196.686472 249.097159 
L 360.8064 249.097159 
L 360.8064 249.097159 
" style="fill: none; stroke: #008000; stroke-width: 1.5; stroke-linecap: square"/>
   </g>
   <g id="line2d_36">
    <defs>
     <path id="ma3ef7d66f3" d="M -0 6 
L 6 -6 
L -6 -6 
z
" style="stroke: #008000; stroke-width: 1.5; stroke-linejoin: miter"/>
    </defs>
    <g>
     <use xlink:href="#ma3ef7d66f3" x="87.876026" y="287.237545" style="fill-opacity: 0; stroke: #008000; stroke-width: 1.5; stroke-linejoin: miter"/>
     <use xlink:href="#ma3ef7d66f3" x="157.048816" y="269.363172" style="fill-opacity: 0; stroke: #008000; stroke-width: 1.5; stroke-linejoin: miter"/>
     <use xlink:href="#ma3ef7d66f3" x="196.686472" y="249.223034" style="fill-opacity: 0; stroke: #008000; stroke-width: 1.5; stroke-linejoin: miter"/>
     <use xlink:href="#ma3ef7d66f3" x="196.686472" y="249.097159" style="fill-opacity: 0; stroke: #008000; stroke-width: 1.5; stroke-linejoin: miter"/>
     <use xlink:href="#ma3ef7d66f3" x="196.686472" y="249.097159" style="fill-opacity: 0; stroke: #008000; stroke-width: 1.5; stroke-linejoin: miter"/>
     <use xlink:href="#ma3ef7d66f3" x="360.8064" y="249.097159" style="fill-opacity: 0; stroke: #008000; stroke-width: 1.5; stroke-linejoin: miter"/>
    </g>
   </g>
   <g id="line2d_37">
    <path style="fill: none; stroke: #008000; stroke-width: 1.5; stroke-linecap: square"/>
    <g/>
   </g>
   <g id="line2d_38">
    <path d="M 197.531229 249.097159 
" clip-path="url(#p85a37f3ffe)" style="fill: none; stroke: #008000; stroke-width: 1.5; stroke-linecap: square"/>
    <defs>
     <path id="m642bd63ea8" d="M -12 12 
L 12 -12 
M -12 -12 
L 12 12 
" style="stroke: #008000"/>
    </defs>
    <g clip-path="url(#p85a37f3ffe)">
     <use xlink:href="#m642bd63ea8" x="197.531229" y="249.097159" style="fill: #008000; stroke: #008000"/>
    </g>
   </g>
   <g id="line2d_39">
    <defs>
     <path id="m29e7219f65" d="M 0 1.5 
C 0.397805 1.5 0.77937 1.341951 1.06066 1.06066 
C 1.341951 0.77937 1.5 0.397805 1.5 0 
C 1.5 -0.397805 1.341951 -0.77937 1.06066 -1.06066 
C 0.77937 -1.341951 0.397805 -1.5 0 -1.5 
C -0.397805 -1.5 -0.77937 -1.341951 -1.06066 -1.06066 
C -1.341951 -0.77937 -1.5 -0.397805 -1.5 0 
C -1.5 0.397805 -1.341951 0.77937 -1.06066 1.06066 
C -0.77937 1.341951 -0.397805 1.5 0 1.5 
z
" style="stroke: #0000ff"/>
    </defs>
    <g>
     <use xlink:href="#m29e7219f65" x="187.829384" y="267.223283" style="fill: #0000ff; stroke: #0000ff"/>
     <use xlink:href="#m29e7219f65" x="187.829384" y="267.223283" style="fill: #0000ff; stroke: #0000ff"/>
    </g>
   </g>
   <g id="line2d_40">
    <path d="M 27.323974 298.944 
L 27.323974 291.265572 
L 57.6 291.265572 
L 57.6 291.013821 
L 68.65718 291.013821 
L 68.65718 290.887945 
L 79.480672 290.887945 
L 79.480672 290.762069 
L 84.596168 290.762069 
L 84.596168 290.384441 
L 91.305777 290.384441 
L 91.305777 290.13269 
L 96.717523 290.13269 
L 96.717523 290.006814 
L 102.011329 290.006814 
L 102.011329 289.629186 
L 102.362957 289.629186 
L 102.362957 289.251559 
L 103.380045 289.251559 
L 103.380045 289.125683 
L 104.344952 289.125683 
L 104.344952 288.873931 
L 104.655893 288.873931 
L 104.655893 288.748055 
L 106.42077 288.748055 
L 106.42077 288.496303 
L 106.699465 288.496303 
L 106.699465 288.370428 
L 106.974091 288.370428 
L 106.974091 288.244552 
L 108.791791 288.244552 
L 108.791791 288.118676 
L 109.990385 288.118676 
L 109.990385 287.9928 
L 111.54963 287.9928 
L 111.54963 287.615172 
L 121.329295 287.615172 
L 121.329295 287.489297 
L 123.029559 287.489297 
L 123.029559 287.363421 
L 125.729248 287.363421 
L 125.729248 287.111669 
L 127.911368 287.111669 
L 127.911368 286.859917 
L 128.614685 286.859917 
L 128.614685 286.734041 
L 129.125437 286.734041 
L 129.125437 286.608166 
L 129.54072 286.608166 
L 129.54072 286.48229 
L 134.808158 286.48229 
L 134.808158 286.356414 
L 135.237805 286.356414 
L 135.237805 286.230538 
L 135.35878 286.230538 
L 135.35878 286.104662 
L 135.657857 286.104662 
L 135.717106 285.601159 
L 135.776169 285.601159 
L 135.776169 285.223531 
L 136.184497 285.223531 
L 136.184497 285.097655 
L 136.356818 285.097655 
L 136.356818 284.971779 
L 138.206842 284.971779 
L 138.206842 284.845903 
L 139.166565 284.845903 
L 139.166565 284.720028 
L 140.219905 284.720028 
L 140.219905 284.468276 
L 140.405242 284.468276 
L 140.405242 284.3424 
L 140.770526 284.3424 
L 140.770526 284.090648 
L 141.261484 284.090648 
L 141.261484 283.964772 
L 141.523975 283.964772 
L 141.523975 283.587145 
L 141.696956 283.587145 
L 141.696956 283.461269 
L 142.497568 283.461269 
L 142.497568 283.083641 
L 142.865233 283.083641 
L 142.865233 282.957766 
L 145.503164 282.957766 
L 145.503164 282.83189 
L 145.643288 282.83189 
L 145.643288 282.706014 
L 145.782376 282.706014 
L 145.816988 282.20251 
L 147.753975 282.20251 
L 147.816265 281.573131 
L 148.001907 281.573131 
L 148.001907 281.447255 
L 148.367783 281.447255 
L 148.367783 281.321379 
L 148.815343 281.321379 
L 148.815343 281.195503 
L 149.020615 281.195503 
L 149.020615 281.069628 
L 149.136916 281.069628 
L 149.136916 280.943752 
L 149.707872 280.943752 
L 149.707872 280.692 
L 150.124997 280.692 
L 150.124997 280.566124 
L 150.747146 280.566124 
L 150.747146 280.440248 
L 150.932483 280.440248 
L 150.932483 280.314372 
L 151.220087 280.314372 
L 151.220087 280.188497 
L 151.782431 280.188497 
L 151.782431 280.062621 
L 152.426047 280.062621 
L 152.426047 279.936745 
L 153.922412 279.936745 
L 153.922412 279.810869 
L 154.14583 279.810869 
L 154.14583 279.684993 
L 155.035072 279.684993 
L 155.035072 279.559117 
L 155.266666 279.559117 
L 155.266666 279.307366 
L 155.495444 279.307366 
L 155.577951 279.055614 
L 155.762279 279.055614 
L 155.762279 278.929738 
L 156.88953 278.929738 
L 156.88953 278.803862 
L 157.004352 278.803862 
L 157.004352 278.677986 
L 157.325925 278.677986 
L 157.325925 278.300359 
L 157.475372 278.300359 
L 157.475372 278.174483 
L 157.586683 278.174483 
L 157.69734 277.796855 
L 157.916719 277.796855 
L 157.916719 277.545103 
L 158.418868 277.545103 
L 158.418868 277.419228 
L 160.029123 277.419228 
L 160.029123 277.293352 
L 161.194395 277.293352 
L 161.194395 277.167476 
L 161.765853 277.167476 
L 161.765853 277.0416 
L 162.233972 277.0416 
L 162.233972 276.915724 
L 162.406556 276.915724 
L 162.406556 276.789848 
L 162.534963 276.789848 
L 162.534963 276.538097 
L 163.545315 276.538097 
L 163.545315 276.412221 
L 163.812909 276.412221 
L 163.812909 276.286345 
L 164.771172 276.286345 
L 164.771172 276.034593 
L 165.121398 276.034593 
L 165.121398 275.908717 
L 165.343147 275.908717 
L 165.343147 275.782841 
L 165.525963 275.782841 
L 165.525963 275.656966 
L 166.274957 275.656966 
L 166.356368 275.153462 
L 167.775305 275.153462 
L 167.796816 274.90171 
L 168.021211 274.90171 
L 168.105996 274.649959 
L 168.200924 274.649959 
L 168.305841 273.768828 
L 168.389355 273.768828 
L 168.389355 273.517076 
L 168.513935 273.517076 
L 168.513935 273.3912 
L 169.084644 273.3912 
L 169.084644 273.013572 
L 169.204718 273.013572 
L 169.204718 272.887697 
L 169.803519 272.887697 
L 169.803519 272.761821 
L 169.967056 272.761821 
L 169.995769 272.510069 
L 170.523847 272.510069 
L 170.523847 272.384193 
L 171.537509 272.384193 
L 171.537509 272.258317 
L 172.127316 272.258317 
L 172.127316 272.006566 
L 173.636328 272.006566 
L 173.636328 271.754814 
L 173.824523 271.754814 
L 173.840121 271.503062 
L 175.040543 271.503062 
L 175.040543 271.377186 
L 175.178998 271.377186 
L 175.178998 271.25131 
L 175.849382 271.25131 
L 175.912332 270.873683 
L 176.3267 270.873683 
L 176.3267 270.621931 
L 176.691985 270.621931 
L 176.712072 270.244303 
L 177.122474 270.244303 
L 177.122474 269.992552 
L 177.658231 269.992552 
L 177.658231 269.866676 
L 178.17296 269.866676 
L 178.17296 269.7408 
L 178.284089 269.7408 
L 178.284089 269.614924 
L 179.109051 269.614924 
L 179.167874 269.363172 
L 179.453477 269.363172 
L 179.453477 269.237297 
L 179.58031 269.237297 
L 179.58031 269.111421 
L 179.768971 269.111421 
L 179.768971 268.985545 
L 180.011995 268.985545 
L 180.011995 268.859669 
L 180.12955 268.859669 
L 180.12955 268.733793 
L 180.89502 268.733793 
L 180.89502 268.607917 
L 183.030161 268.607917 
L 183.030161 268.482041 
L 183.437067 268.482041 
L 183.437067 268.356166 
L 185.01646 268.356166 
L 185.01646 268.23029 
L 185.183561 268.23029 
L 185.183561 268.104414 
L 185.55106 268.104414 
L 185.55106 267.978538 
L 186.220844 267.978538 
L 186.220844 267.852662 
L 186.596528 267.852662 
L 186.596528 267.726786 
L 187.169394 267.726786 
L 187.207738 267.349159 
L 187.829384 267.349159 
L 187.829384 267.223283 
L 360.8064 267.223283 
L 360.8064 267.223283 
" style="fill: none; stroke: #0000ff; stroke-width: 1.5; stroke-linecap: square"/>
   </g>
   <g id="line2d_41">
    <defs>
     <path id="m37ccf792ab" d="M 0 -6 
L -1.347084 -1.854102 
L -5.706339 -1.854102 
L -2.179628 0.708204 
L -3.526712 4.854102 
L -0 2.291796 
L 3.526712 4.854102 
L 2.179628 0.708204 
L 5.706339 -1.854102 
L 1.347084 -1.854102 
z
" style="stroke: #0000ff; stroke-width: 1.5; stroke-linejoin: bevel"/>
    </defs>
    <g>
     <use xlink:href="#m37ccf792ab" x="84.596168" y="290.384441" style="fill-opacity: 0; stroke: #0000ff; stroke-width: 1.5; stroke-linejoin: bevel"/>
     <use xlink:href="#m37ccf792ab" x="158.418868" y="277.545103" style="fill-opacity: 0; stroke: #0000ff; stroke-width: 1.5; stroke-linejoin: bevel"/>
     <use xlink:href="#m37ccf792ab" x="187.829384" y="267.349159" style="fill-opacity: 0; stroke: #0000ff; stroke-width: 1.5; stroke-linejoin: bevel"/>
     <use xlink:href="#m37ccf792ab" x="187.829384" y="267.223283" style="fill-opacity: 0; stroke: #0000ff; stroke-width: 1.5; stroke-linejoin: bevel"/>
     <use xlink:href="#m37ccf792ab" x="187.829384" y="267.223283" style="fill-opacity: 0; stroke: #0000ff; stroke-width: 1.5; stroke-linejoin: bevel"/>
     <use xlink:href="#m37ccf792ab" x="360.8064" y="267.223283" style="fill-opacity: 0; stroke: #0000ff; stroke-width: 1.5; stroke-linejoin: bevel"/>
    </g>
   </g>
   <g id="line2d_42">
    <path style="fill: none; stroke: #0000ff; stroke-width: 1.5; stroke-linecap: square"/>
    <g/>
   </g>
   <g id="line2d_43">
    <path d="M 187.921806 267.223283 
" clip-path="url(#p85a37f3ffe)" style="fill: none; stroke: #0000ff; stroke-width: 1.5; stroke-linecap: square"/>
    <defs>
     <path id="m44b473031a" d="M -12 12 
L 12 -12 
M -12 -12 
L 12 12 
" style="stroke: #0000ff"/>
    </defs>
    <g clip-path="url(#p85a37f3ffe)">
     <use xlink:href="#m44b473031a" x="187.921806" y="267.223283" style="fill: #0000ff; stroke: #0000ff"/>
    </g>
   </g>
   <g id="line2d_44">
    <defs>
     <path id="mb9bd6252ba" d="M 0 1.5 
C 0.397805 1.5 0.77937 1.341951 1.06066 1.06066 
C 1.341951 0.77937 1.5 0.397805 1.5 0 
C 1.5 -0.397805 1.341951 -0.77937 1.06066 -1.06066 
C 0.77937 -1.341951 0.397805 -1.5 0 -1.5 
C -0.397805 -1.5 -0.77937 -1.341951 -1.06066 -1.06066 
C -1.341951 -0.77937 -1.5 -0.397805 -1.5 0 
C -1.5 0.397805 -1.341951 0.77937 -1.06066 1.06066 
C -0.77937 1.341951 -0.397805 1.5 0 1.5 
z
" style="stroke: #000000"/>
    </defs>
    <g>
     <use xlink:href="#mb9bd6252ba" x="173.141258" y="286.48229" style="stroke: #000000"/>
     <use xlink:href="#mb9bd6252ba" x="173.141258" y="286.48229" style="stroke: #000000"/>
    </g>
   </g>
   <g id="line2d_45">
    <path d="M 14.2848 298.944 
L 14.2848 291.139697 
L 70.639174 291.139697 
L 70.639174 291.013821 
L 127.5952 291.013821 
L 127.5952 290.887945 
L 128.829186 290.887945 
L 128.829186 290.762069 
L 131.489828 290.762069 
L 131.489828 290.636193 
L 137.919637 290.636193 
L 137.919637 290.384441 
L 142.682299 290.384441 
L 142.682299 290.258566 
L 142.824734 290.258566 
L 142.824734 290.13269 
L 146.711739 290.13269 
L 146.711739 290.006814 
L 154.486967 290.006814 
L 154.486967 289.880938 
L 155.066821 289.880938 
L 155.066821 289.755062 
L 155.277126 289.755062 
L 155.277126 289.50331 
L 155.433326 289.50331 
L 155.433326 289.377434 
L 155.526427 289.377434 
L 155.526427 289.251559 
L 157.834751 289.251559 
L 157.834751 289.125683 
L 160.271232 289.125683 
L 160.271232 288.999807 
L 161.51985 288.999807 
L 161.51985 288.873931 
L 162.711865 288.873931 
L 162.711865 288.748055 
L 163.632702 288.748055 
L 163.632702 288.622179 
L 165.053116 288.622179 
L 165.053116 288.370428 
L 165.652884 288.370428 
L 165.652884 288.118676 
L 165.886348 288.118676 
L 165.886348 287.9928 
L 166.661411 287.9928 
L 166.661411 287.866924 
L 166.707029 287.866924 
L 166.707029 287.741048 
L 168.342424 287.741048 
L 168.342424 287.615172 
L 168.52428 287.615172 
L 168.52428 287.489297 
L 168.632555 287.489297 
L 168.632555 287.363421 
L 168.647973 287.363421 
L 168.647973 287.237545 
L 169.368578 287.237545 
L 169.368578 287.111669 
L 171.664838 287.111669 
L 171.664838 286.985793 
L 171.682333 286.985793 
L 171.682333 286.859917 
L 171.752151 286.859917 
L 171.752151 286.734041 
L 172.288863 286.734041 
L 172.288863 286.608166 
L 173.141258 286.608166 
L 173.141258 286.48229 
L 360.8064 286.48229 
" style="fill: none; stroke: #000000; stroke-width: 1.5; stroke-linecap: square"/>
   </g>
   <g id="line2d_46">
    <defs>
     <path id="m68e5ac4010" d="M 0 6 
C 1.591219 6 3.117479 5.367802 4.242641 4.242641 
C 5.367802 3.117479 6 1.591219 6 0 
C 6 -1.591219 5.367802 -3.117479 4.242641 -4.242641 
C 3.117479 -5.367802 1.591219 -6 0 -6 
C -1.591219 -6 -3.117479 -5.367802 -4.242641 -4.242641 
C -5.367802 -3.117479 -6 -1.591219 -6 0 
C -6 1.591219 -5.367802 3.117479 -4.242641 4.242641 
C -3.117479 5.367802 -1.591219 6 0 6 
z
" style="stroke: #000000; stroke-width: 1.5"/>
    </defs>
    <g>
     <use xlink:href="#m68e5ac4010" x="70.639174" y="291.013821" style="fill-opacity: 0; stroke: #000000; stroke-width: 1.5"/>
     <use xlink:href="#m68e5ac4010" x="169.368578" y="287.111669" style="fill-opacity: 0; stroke: #000000; stroke-width: 1.5"/>
     <use xlink:href="#m68e5ac4010" x="173.141258" y="286.608166" style="fill-opacity: 0; stroke: #000000; stroke-width: 1.5"/>
     <use xlink:href="#m68e5ac4010" x="173.141258" y="286.48229" style="fill-opacity: 0; stroke: #000000; stroke-width: 1.5"/>
     <use xlink:href="#m68e5ac4010" x="173.141258" y="286.48229" style="fill-opacity: 0; stroke: #000000; stroke-width: 1.5"/>
     <use xlink:href="#m68e5ac4010" x="360.8064" y="286.48229" style="fill-opacity: 0; stroke: #000000; stroke-width: 1.5"/>
    </g>
   </g>
   <g id="line2d_47">
    <path style="fill: none; stroke: #000000; stroke-width: 1.5; stroke-linecap: square"/>
    <g/>
   </g>
   <g id="line2d_48">
    <path d="M 174.882632 286.48229 
" clip-path="url(#p85a37f3ffe)" style="fill: none; stroke: #000000; stroke-width: 1.5; stroke-linecap: square"/>
    <defs>
     <path id="m28627467eb" d="M -12 12 
L 12 -12 
M -12 -12 
L 12 12 
" style="stroke: #000000"/>
    </defs>
    <g clip-path="url(#p85a37f3ffe)">
     <use xlink:href="#m28627467eb" x="174.882632" y="286.48229" style="stroke: #000000"/>
    </g>
   </g>
   <g id="line2d_49">
    <defs>
     <path id="mbac92ee1eb" d="M 0 1.5 
C 0.397805 1.5 0.77937 1.341951 1.06066 1.06066 
C 1.341951 0.77937 1.5 0.397805 1.5 0 
C 1.5 -0.397805 1.341951 -0.77937 1.06066 -1.06066 
C 0.77937 -1.341951 0.397805 -1.5 0 -1.5 
C -0.397805 -1.5 -0.77937 -1.341951 -1.06066 -1.06066 
C -1.341951 -0.77937 -1.5 -0.397805 -1.5 0 
C -1.5 0.397805 -1.341951 0.77937 -1.06066 1.06066 
C -0.77937 1.341951 -0.397805 1.5 0 1.5 
z
" style="stroke: #ff0000"/>
    </defs>
    <g>
     <use xlink:href="#mbac92ee1eb" x="154.245509" y="289.880938" style="fill: #ff0000; stroke: #ff0000"/>
     <use xlink:href="#mbac92ee1eb" x="154.245509" y="289.880938" style="fill: #ff0000; stroke: #ff0000"/>
    </g>
   </g>
   <g id="line2d_50">
    <path d="M 1.245626 298.944 
L 1.245626 290.13269 
L 154.245509 290.13269 
L 154.245509 289.880938 
L 360.8064 289.880938 
" style="fill: none; stroke: #ff0000; stroke-width: 1.5; stroke-linecap: square"/>
   </g>
   <g id="line2d_51">
    <defs>
     <path id="m865624406e" d="M -6 6 
L 6 6 
L 6 -6 
L -6 -6 
z
" style="stroke: #ff0000; stroke-width: 1.5; stroke-linejoin: miter"/>
    </defs>
    <g>
     <use xlink:href="#m865624406e" x="154.245509" y="290.13269" style="fill-opacity: 0; stroke: #ff0000; stroke-width: 1.5; stroke-linejoin: miter"/>
     <use xlink:href="#m865624406e" x="154.245509" y="290.13269" style="fill-opacity: 0; stroke: #ff0000; stroke-width: 1.5; stroke-linejoin: miter"/>
     <use xlink:href="#m865624406e" x="154.245509" y="289.880938" style="fill-opacity: 0; stroke: #ff0000; stroke-width: 1.5; stroke-linejoin: miter"/>
     <use xlink:href="#m865624406e" x="154.245509" y="289.880938" style="fill-opacity: 0; stroke: #ff0000; stroke-width: 1.5; stroke-linejoin: miter"/>
     <use xlink:href="#m865624406e" x="360.8064" y="289.880938" style="fill-opacity: 0; stroke: #ff0000; stroke-width: 1.5; stroke-linejoin: miter"/>
    </g>
   </g>
   <g id="line2d_52">
    <path style="fill: none; stroke: #ff0000; stroke-width: 1.5; stroke-linecap: square"/>
    <g/>
   </g>
   <g id="line2d_53">
    <path d="M 161.843457 289.880938 
" clip-path="url(#p85a37f3ffe)" style="fill: none; stroke: #ff0000; stroke-width: 1.5; stroke-linecap: square"/>
    <defs>
     <path id="m1c83d4e060" d="M -12 12 
L 12 -12 
M -12 -12 
L 12 12 
" style="stroke: #ff0000"/>
    </defs>
    <g clip-path="url(#p85a37f3ffe)">
     <use xlink:href="#m1c83d4e060" x="161.843457" y="289.880938" style="fill: #ff0000; stroke: #ff0000"/>
    </g>
   </g>
   <g id="line2d_54">
    <defs>
     <path id="m03e99d362d" d="M 0 1.5 
C 0.397805 1.5 0.77937 1.341951 1.06066 1.06066 
C 1.341951 0.77937 1.5 0.397805 1.5 0 
C 1.5 -0.397805 1.341951 -0.77937 1.06066 -1.06066 
C 0.77937 -1.341951 0.397805 -1.5 0 -1.5 
C -0.397805 -1.5 -0.77937 -1.341951 -1.06066 -1.06066 
C -1.341951 -0.77937 -1.5 -0.397805 -1.5 0 
C -1.5 0.397805 -1.341951 0.77937 -1.06066 1.06066 
C -0.77937 1.341951 -0.397805 1.5 0 1.5 
z
" style="stroke: #bf00bf"/>
    </defs>
    <g/>
   </g>
   <g id="line2d_55">
    <path d="M -1 289.377434 
L 360.8064 289.377434 
" style="fill: none; stroke: #bf00bf; stroke-width: 1.5; stroke-linecap: square"/>
   </g>
   <g id="line2d_56">
    <defs>
     <path id="m4462bfd621" d="M 0 8.485281 
L 8.485281 0 
L 0 -8.485281 
L -8.485281 0 
z
" style="stroke: #bf00bf; stroke-width: 1.5; stroke-linejoin: miter"/>
    </defs>
    <g>
     <use xlink:href="#m4462bfd621" x="360.8064" y="289.377434" style="fill-opacity: 0; stroke: #bf00bf; stroke-width: 1.5; stroke-linejoin: miter"/>
    </g>
   </g>
   <g id="line2d_57">
    <path style="fill: none; stroke: #bf00bf; stroke-width: 1.5; stroke-linecap: square"/>
    <g/>
   </g>
   <g id="line2d_58">
    <path d="M 148.804283 289.377434 
" clip-path="url(#p85a37f3ffe)" style="fill: none; stroke: #bf00bf; stroke-width: 1.5; stroke-linecap: square"/>
    <defs>
     <path id="m70d69ba465" d="M -12 12 
L 12 -12 
M -12 -12 
L 12 12 
" style="stroke: #bf00bf"/>
    </defs>
    <g clip-path="url(#p85a37f3ffe)">
     <use xlink:href="#m70d69ba465" x="148.804283" y="289.377434" style="fill: #bf00bf; stroke: #bf00bf"/>
    </g>
   </g>
   <g id="line2d_59">
    <path d="M 360.8064 289.880938 
L 380.514816 293.10336 
" style="fill: none; stroke: #ff0000; stroke-width: 1.5; stroke-linecap: square"/>
    <g>
     <use xlink:href="#m865624406e" x="360.8064" y="289.880938" style="fill-opacity: 0; stroke: #ff0000; stroke-width: 1.5; stroke-linejoin: miter"/>
     <use xlink:href="#m865624406e" x="380.514816" y="293.10336" style="fill-opacity: 0; stroke: #ff0000; stroke-width: 1.5; stroke-linejoin: miter"/>
    </g>
   </g>
   <g id="line2d_60">
    <path d="M 360.8064 289.377434 
L 380.514816 237.033216 
" style="fill: none; stroke: #bf00bf; stroke-width: 1.5; stroke-linecap: square"/>
    <g>
     <use xlink:href="#m4462bfd621" x="360.8064" y="289.377434" style="fill-opacity: 0; stroke: #bf00bf; stroke-width: 1.5; stroke-linejoin: miter"/>
     <use xlink:href="#m4462bfd621" x="380.514816" y="237.033216" style="fill-opacity: 0; stroke: #bf00bf; stroke-width: 1.5; stroke-linejoin: miter"/>
    </g>
   </g>
   <g id="line2d_61">
    <path d="M 360.8064 286.48229 
L 380.514816 180.963072 
" style="fill: none; stroke: #000000; stroke-width: 1.5; stroke-linecap: square"/>
    <g>
     <use xlink:href="#m68e5ac4010" x="360.8064" y="286.48229" style="fill-opacity: 0; stroke: #000000; stroke-width: 1.5"/>
     <use xlink:href="#m68e5ac4010" x="380.514816" y="180.963072" style="fill-opacity: 0; stroke: #000000; stroke-width: 1.5"/>
    </g>
   </g>
   <g id="line2d_62">
    <path d="M 360.8064 267.223283 
L 380.514816 124.892928 
" style="fill: none; stroke: #0000ff; stroke-width: 1.5; stroke-linecap: square"/>
    <g>
     <use xlink:href="#m37ccf792ab" x="360.8064" y="267.223283" style="fill-opacity: 0; stroke: #0000ff; stroke-width: 1.5; stroke-linejoin: bevel"/>
     <use xlink:href="#m37ccf792ab" x="380.514816" y="124.892928" style="fill-opacity: 0; stroke: #0000ff; stroke-width: 1.5; stroke-linejoin: bevel"/>
    </g>
   </g>
   <g id="line2d_63">
    <path d="M 360.8064 249.097159 
L 380.514816 68.822784 
" style="fill: none; stroke: #008000; stroke-width: 1.5; stroke-linecap: square"/>
    <g>
     <use xlink:href="#ma3ef7d66f3" x="360.8064" y="249.097159" style="fill-opacity: 0; stroke: #008000; stroke-width: 1.5; stroke-linejoin: miter"/>
     <use xlink:href="#ma3ef7d66f3" x="380.514816" y="68.822784" style="fill-opacity: 0; stroke: #008000; stroke-width: 1.5; stroke-linejoin: miter"/>
    </g>
   </g>
   <g id="line2d_64">
    <path d="M 360.8064 218.886952 
L 380.514816 12.75264 
" style="fill: none; stroke: #00bfbf; stroke-width: 1.5; stroke-linecap: square"/>
    <g>
     <use xlink:href="#m0cff4e4bb0" x="360.8064" y="218.886952" style="fill-opacity: 0; stroke: #00bfbf; stroke-width: 1.5"/>
     <use xlink:href="#m0cff4e4bb0" x="380.514816" y="12.75264" style="fill-opacity: 0; stroke: #00bfbf; stroke-width: 1.5"/>
    </g>
   </g>
   <g id="line2d_65">
    <path d="M 360.8064 298.944 
L 360.8064 6.912 
" style="fill: none; stroke: #000000; stroke-width: 1.5; stroke-linecap: square"/>
   </g>
   <g id="patch_3">
    <path d="M 57.6 298.944 
L 360.8064 298.944 
" style="fill: none; stroke: #000000; stroke-width: 0.8; stroke-linejoin: miter; stroke-linecap: square"/>
   </g>
   <g id="patch_4">
    <path d="M 57.6 6.912 
L 360.8064 6.912 
" style="fill: none; stroke: #000000; stroke-width: 0.8; stroke-linejoin: miter; stroke-linecap: square"/>
   </g>
   <g id="text_13">
    <!-- 20-D -->
    <g transform="translate(386.578944 296.966485)scale(0.14 -0.14)">
     <defs>
      <path id="DejaVuSans-44" d="M 1259 4147 
L 1259 519 
L 2022 519 
Q 2988 519 3436 956 
Q 3884 1394 3884 2338 
Q 3884 3275 3436 3711 
Q 2988 4147 2022 4147 
L 1259 4147 
z
M 628 4666 
L 1925 4666 
Q 3281 4666 3915 4102 
Q 4550 3538 4550 2338 
Q 4550 1131 3912 565 
Q 3275 0 1925 0 
L 628 0 
L 628 4666 
z
" transform="scale(0.015625)"/>
     </defs>
     <use xlink:href="#DejaVuSans-32"/>
     <use xlink:href="#DejaVuSans-30" x="63.623047"/>
     <use xlink:href="#DejaVuSans-2d" x="127.246094"/>
     <use xlink:href="#DejaVuSans-44" x="163.330078"/>
    </g>
   </g>
   <g id="text_14">
    <!-- 40-D -->
    <g transform="translate(386.578944 240.896341)scale(0.14 -0.14)">
     <use xlink:href="#DejaVuSans-34"/>
     <use xlink:href="#DejaVuSans-30" x="63.623047"/>
     <use xlink:href="#DejaVuSans-2d" x="127.246094"/>
     <use xlink:href="#DejaVuSans-44" x="163.330078"/>
    </g>
   </g>
   <g id="text_15">
    <!-- 10-D -->
    <g transform="translate(386.578944 184.826197)scale(0.14 -0.14)">
     <use xlink:href="#DejaVuSans-31"/>
     <use xlink:href="#DejaVuSans-30" x="63.623047"/>
     <use xlink:href="#DejaVuSans-2d" x="127.246094"/>
     <use xlink:href="#DejaVuSans-44" x="163.330078"/>
    </g>
   </g>
   <g id="text_16">
    <!-- 5-D -->
    <g transform="translate(386.578944 128.756053)scale(0.14 -0.14)">
     <defs>
      <path id="DejaVuSans-35" d="M 691 4666 
L 3169 4666 
L 3169 4134 
L 1269 4134 
L 1269 2991 
Q 1406 3038 1543 3061 
Q 1681 3084 1819 3084 
Q 2600 3084 3056 2656 
Q 3513 2228 3513 1497 
Q 3513 744 3044 326 
Q 2575 -91 1722 -91 
Q 1428 -91 1123 -41 
Q 819 9 494 109 
L 494 744 
Q 775 591 1075 516 
Q 1375 441 1709 441 
Q 2250 441 2565 725 
Q 2881 1009 2881 1497 
Q 2881 1984 2565 2268 
Q 2250 2553 1709 2553 
Q 1456 2553 1204 2497 
Q 953 2441 691 2322 
L 691 4666 
z
" transform="scale(0.015625)"/>
     </defs>
     <use xlink:href="#DejaVuSans-35"/>
     <use xlink:href="#DejaVuSans-2d" x="63.623047"/>
     <use xlink:href="#DejaVuSans-44" x="99.707031"/>
    </g>
   </g>
   <g id="text_17">
    <!-- 3-D -->
    <g transform="translate(386.578944 72.685909)scale(0.14 -0.14)">
     <defs>
      <path id="DejaVuSans-33" d="M 2597 2516 
Q 3050 2419 3304 2112 
Q 3559 1806 3559 1356 
Q 3559 666 3084 287 
Q 2609 -91 1734 -91 
Q 1441 -91 1130 -33 
Q 819 25 488 141 
L 488 750 
Q 750 597 1062 519 
Q 1375 441 1716 441 
Q 2309 441 2620 675 
Q 2931 909 2931 1356 
Q 2931 1769 2642 2001 
Q 2353 2234 1838 2234 
L 1294 2234 
L 1294 2753 
L 1863 2753 
Q 2328 2753 2575 2939 
Q 2822 3125 2822 3475 
Q 2822 3834 2567 4026 
Q 2313 4219 1838 4219 
Q 1578 4219 1281 4162 
Q 984 4106 628 3988 
L 628 4550 
Q 988 4650 1302 4700 
Q 1616 4750 1894 4750 
Q 2613 4750 3031 4423 
Q 3450 4097 3450 3541 
Q 3450 3153 3228 2886 
Q 3006 2619 2597 2516 
z
" transform="scale(0.015625)"/>
     </defs>
     <use xlink:href="#DejaVuSans-33"/>
     <use xlink:href="#DejaVuSans-2d" x="63.623047"/>
     <use xlink:href="#DejaVuSans-44" x="99.707031"/>
    </g>
   </g>
   <g id="text_18">
    <!-- 2-D -->
    <g transform="translate(386.578944 16.615765)scale(0.14 -0.14)">
     <use xlink:href="#DejaVuSans-32"/>
     <use xlink:href="#DejaVuSans-2d" x="63.623047"/>
     <use xlink:href="#DejaVuSans-44" x="99.707031"/>
    </g>
   </g>
   <g id="text_19">
    <!-- bbob-biobj f7, f8, f16, f17 -->
    <g transform="translate(60.632064 17.582726)scale(0.102 -0.102)">
     <defs>
      <path id="DejaVuSans-62" d="M 3116 1747 
Q 3116 2381 2855 2742 
Q 2594 3103 2138 3103 
Q 1681 3103 1420 2742 
Q 1159 2381 1159 1747 
Q 1159 1113 1420 752 
Q 1681 391 2138 391 
Q 2594 391 2855 752 
Q 3116 1113 3116 1747 
z
M 1159 2969 
Q 1341 3281 1617 3432 
Q 1894 3584 2278 3584 
Q 2916 3584 3314 3078 
Q 3713 2572 3713 1747 
Q 3713 922 3314 415 
Q 2916 -91 2278 -91 
Q 1894 -91 1617 61 
Q 1341 213 1159 525 
L 1159 0 
L 581 0 
L 581 4863 
L 1159 4863 
L 1159 2969 
z
" transform="scale(0.015625)"/>
      <path id="DejaVuSans-6a" d="M 603 3500 
L 1178 3500 
L 1178 -63 
Q 1178 -731 923 -1031 
Q 669 -1331 103 -1331 
L -116 -1331 
L -116 -844 
L 38 -844 
Q 366 -844 484 -692 
Q 603 -541 603 -63 
L 603 3500 
z
M 603 4863 
L 1178 4863 
L 1178 4134 
L 603 4134 
L 603 4863 
z
" transform="scale(0.015625)"/>
      <path id="DejaVuSans-37" d="M 525 4666 
L 3525 4666 
L 3525 4397 
L 1831 0 
L 1172 0 
L 2766 4134 
L 525 4134 
L 525 4666 
z
" transform="scale(0.015625)"/>
     </defs>
     <use xlink:href="#DejaVuSans-62"/>
     <use xlink:href="#DejaVuSans-62" x="63.476562"/>
     <use xlink:href="#DejaVuSans-6f" x="126.953125"/>
     <use xlink:href="#DejaVuSans-62" x="188.134766"/>
     <use xlink:href="#DejaVuSans-2d" x="251.611328"/>
     <use xlink:href="#DejaVuSans-62" x="287.695312"/>
     <use xlink:href="#DejaVuSans-69" x="351.171875"/>
     <use xlink:href="#DejaVuSans-6f" x="378.955078"/>
     <use xlink:href="#DejaVuSans-62" x="440.136719"/>
     <use xlink:href="#DejaVuSans-6a" x="503.613281"/>
     <use xlink:href="#DejaVuSans-20" x="531.396484"/>
     <use xlink:href="#DejaVuSans-66" x="563.183594"/>
     <use xlink:href="#DejaVuSans-37" x="598.388672"/>
     <use xlink:href="#DejaVuSans-2c" x="662.011719"/>
     <use xlink:href="#DejaVuSans-20" x="693.798828"/>
     <use xlink:href="#DejaVuSans-66" x="725.585938"/>
     <use xlink:href="#DejaVuSans-38" x="760.791016"/>
     <use xlink:href="#DejaVuSans-2c" x="824.414062"/>
     <use xlink:href="#DejaVuSans-20" x="856.201172"/>
     <use xlink:href="#DejaVuSans-66" x="887.988281"/>
     <use xlink:href="#DejaVuSans-31" x="923.193359"/>
     <use xlink:href="#DejaVuSans-36" x="986.816406"/>
     <use xlink:href="#DejaVuSans-2c" x="1050.439453"/>
     <use xlink:href="#DejaVuSans-20" x="1082.226562"/>
     <use xlink:href="#DejaVuSans-66" x="1114.013672"/>
     <use xlink:href="#DejaVuSans-31" x="1149.21875"/>
     <use xlink:href="#DejaVuSans-37" x="1212.841797"/>
    </g>
    <!-- 58 targets: 1..-1.0e-4 -->
    <g transform="translate(60.632064 29.004495)scale(0.102 -0.102)">
     <defs>
      <path id="DejaVuSans-3a" d="M 750 794 
L 1409 794 
L 1409 0 
L 750 0 
L 750 794 
z
M 750 3309 
L 1409 3309 
L 1409 2516 
L 750 2516 
L 750 3309 
z
" transform="scale(0.015625)"/>
     </defs>
     <use xlink:href="#DejaVuSans-35"/>
     <use xlink:href="#DejaVuSans-38" x="63.623047"/>
     <use xlink:href="#DejaVuSans-20" x="127.246094"/>
     <use xlink:href="#DejaVuSans-74" x="159.033203"/>
     <use xlink:href="#DejaVuSans-61" x="198.242188"/>
     <use xlink:href="#DejaVuSans-72" x="259.521484"/>
     <use xlink:href="#DejaVuSans-67" x="298.884766"/>
     <use xlink:href="#DejaVuSans-65" x="362.361328"/>
     <use xlink:href="#DejaVuSans-74" x="423.884766"/>
     <use xlink:href="#DejaVuSans-73" x="463.09375"/>
     <use xlink:href="#DejaVuSans-3a" x="515.193359"/>
     <use xlink:href="#DejaVuSans-20" x="548.884766"/>
     <use xlink:href="#DejaVuSans-31" x="580.671875"/>
     <use xlink:href="#DejaVuSans-2e" x="644.294922"/>
     <use xlink:href="#DejaVuSans-2e" x="676.082031"/>
     <use xlink:href="#DejaVuSans-2d" x="707.869141"/>
     <use xlink:href="#DejaVuSans-31" x="743.953125"/>
     <use xlink:href="#DejaVuSans-2e" x="807.576172"/>
     <use xlink:href="#DejaVuSans-30" x="839.363281"/>
     <use xlink:href="#DejaVuSans-65" x="902.986328"/>
     <use xlink:href="#DejaVuSans-2d" x="964.509766"/>
     <use xlink:href="#DejaVuSans-34" x="1000.59375"/>
    </g>
    <!-- 10 instances -->
    <g transform="translate(60.632064 40.426264)scale(0.102 -0.102)">
     <use xlink:href="#DejaVuSans-31"/>
     <use xlink:href="#DejaVuSans-30" x="63.623047"/>
     <use xlink:href="#DejaVuSans-20" x="127.246094"/>
     <use xlink:href="#DejaVuSans-69" x="159.033203"/>
     <use xlink:href="#DejaVuSans-6e" x="186.816406"/>
     <use xlink:href="#DejaVuSans-73" x="250.195312"/>
     <use xlink:href="#DejaVuSans-74" x="302.294922"/>
     <use xlink:href="#DejaVuSans-61" x="341.503906"/>
     <use xlink:href="#DejaVuSans-6e" x="402.783203"/>
     <use xlink:href="#DejaVuSans-63" x="466.162109"/>
     <use xlink:href="#DejaVuSans-65" x="521.142578"/>
     <use xlink:href="#DejaVuSans-73" x="582.666016"/>
    </g>
   </g>
   <g id="text_20">
    <!-- v2.6, hv-hash=ff0e71e8cd978373 -->
    <g style="fill: #808080" transform="translate(123.707887 293.943992)scale(0.1 -0.1)">
     <defs>
      <path id="DejaVuSans-68" d="M 3513 2113 
L 3513 0 
L 2938 0 
L 2938 2094 
Q 2938 2591 2744 2837 
Q 2550 3084 2163 3084 
Q 1697 3084 1428 2787 
Q 1159 2491 1159 1978 
L 1159 0 
L 581 0 
L 581 4863 
L 1159 4863 
L 1159 2956 
Q 1366 3272 1645 3428 
Q 1925 3584 2291 3584 
Q 2894 3584 3203 3211 
Q 3513 2838 3513 2113 
z
" transform="scale(0.015625)"/>
      <path id="DejaVuSans-3d" d="M 678 2906 
L 4684 2906 
L 4684 2381 
L 678 2381 
L 678 2906 
z
M 678 1631 
L 4684 1631 
L 4684 1100 
L 678 1100 
L 678 1631 
z
" transform="scale(0.015625)"/>
      <path id="DejaVuSans-39" d="M 703 97 
L 703 672 
Q 941 559 1184 500 
Q 1428 441 1663 441 
Q 2288 441 2617 861 
Q 2947 1281 2994 2138 
Q 2813 1869 2534 1725 
Q 2256 1581 1919 1581 
Q 1219 1581 811 2004 
Q 403 2428 403 3163 
Q 403 3881 828 4315 
Q 1253 4750 1959 4750 
Q 2769 4750 3195 4129 
Q 3622 3509 3622 2328 
Q 3622 1225 3098 567 
Q 2575 -91 1691 -91 
Q 1453 -91 1209 -44 
Q 966 3 703 97 
z
M 1959 2075 
Q 2384 2075 2632 2365 
Q 2881 2656 2881 3163 
Q 2881 3666 2632 3958 
Q 2384 4250 1959 4250 
Q 1534 4250 1286 3958 
Q 1038 3666 1038 3163 
Q 1038 2656 1286 2365 
Q 1534 2075 1959 2075 
z
" transform="scale(0.015625)"/>
     </defs>
     <use xlink:href="#DejaVuSans-76"/>
     <use xlink:href="#DejaVuSans-32" x="59.179688"/>
     <use xlink:href="#DejaVuSans-2e" x="122.802734"/>
     <use xlink:href="#DejaVuSans-36" x="154.589844"/>
     <use xlink:href="#DejaVuSans-2c" x="218.212891"/>
     <use xlink:href="#DejaVuSans-20" x="250"/>
     <use xlink:href="#DejaVuSans-68" x="281.787109"/>
     <use xlink:href="#DejaVuSans-76" x="345.166016"/>
     <use xlink:href="#DejaVuSans-2d" x="401.720703"/>
     <use xlink:href="#DejaVuSans-68" x="437.804688"/>
     <use xlink:href="#DejaVuSans-61" x="501.183594"/>
     <use xlink:href="#DejaVuSans-73" x="562.462891"/>
     <use xlink:href="#DejaVuSans-68" x="614.5625"/>
     <use xlink:href="#DejaVuSans-3d" x="677.941406"/>
     <use xlink:href="#DejaVuSans-66" x="761.730469"/>
     <use xlink:href="#DejaVuSans-66" x="796.935547"/>
     <use xlink:href="#DejaVuSans-30" x="832.140625"/>
     <use xlink:href="#DejaVuSans-65" x="895.763672"/>
     <use xlink:href="#DejaVuSans-37" x="957.287109"/>
     <use xlink:href="#DejaVuSans-31" x="1020.910156"/>
     <use xlink:href="#DejaVuSans-65" x="1084.533203"/>
     <use xlink:href="#DejaVuSans-38" x="1146.056641"/>
     <use xlink:href="#DejaVuSans-63" x="1209.679688"/>
     <use xlink:href="#DejaVuSans-64" x="1264.660156"/>
     <use xlink:href="#DejaVuSans-39" x="1328.136719"/>
     <use xlink:href="#DejaVuSans-37" x="1391.759766"/>
     <use xlink:href="#DejaVuSans-38" x="1455.382812"/>
     <use xlink:href="#DejaVuSans-33" x="1519.005859"/>
     <use xlink:href="#DejaVuSans-37" x="1582.628906"/>
     <use xlink:href="#DejaVuSans-33" x="1646.251953"/>
    </g>
   </g>
  </g>
 </g>
 <defs>
  <clipPath id="p85a37f3ffe">
   <rect x="57.6" y="6.912" width="303.2064" height="292.032"/>
  </clipPath>
 </defs>
</svg>
