<?xml version="1.0" encoding="utf-8" standalone="no"?>
<!DOCTYPE svg PUBLIC "-//W3C//DTD SVG 1.1//EN"
  "http://www.w3.org/Graphics/SVG/1.1/DTD/svg11.dtd">
<svg xmlns:xlink="http://www.w3.org/1999/xlink" width="460.8pt" height="345.6pt" viewBox="0 0 460.8 345.6" xmlns="http://www.w3.org/2000/svg" version="1.1">
 <metadata>
  <rdf:RDF xmlns:dc="http://purl.org/dc/elements/1.1/" xmlns:cc="http://creativecommons.org/ns#" xmlns:rdf="http://www.w3.org/1999/02/22-rdf-syntax-ns#">
   <cc:Work>
    <dc:type rdf:resource="http://purl.org/dc/dcmitype/StillImage"/>
    <dc:date>2022-06-19T17:22:33.074498</dc:date>
    <dc:format>image/svg+xml</dc:format>
    <dc:creator>
     <cc:Agent>
      <dc:title>Matplotlib v3.5.2, https://matplotlib.org/</dc:title>
     </cc:Agent>
    </dc:creator>
   </cc:Work>
  </rdf:RDF>
 </metadata>
 <defs>
  <style type="text/css">*{stroke-linejoin: round; stroke-linecap: butt}</style>
 </defs>
 <g id="figure_1">
  <g id="patch_1">
   <path d="M 0 345.6 
L 460.8 345.6 
L 460.8 0 
L 0 0 
z
" style="fill: #ffffff"/>
  </g>
  <g id="axes_1">
   <g id="patch_2">
    <path d="M 57.6 298.944 
L 360.8064 298.944 
L 360.8064 6.912 
L 57.6 6.912 
z
" style="fill: #ffffff"/>
   </g>
   <g id="matplotlib.axis_1">
    <g id="xtick_1">
     <g id="line2d_1">
      <path d="M 57.6 298.944 
L 57.6 6.912 
" clip-path="url(#pf8a21102a2)" style="fill: none; stroke: #b0b0b0; stroke-width: 0.8; stroke-linecap: square"/>
     </g>
     <g id="line2d_2">
      <defs>
       <path id="mcf7f852fb2" d="M 0 0 
L 0 3.5 
" style="stroke: #000000; stroke-width: 0.8"/>
      </defs>
      <g>
       <use xlink:href="#mcf7f852fb2" x="57.6" y="298.944" style="stroke: #000000; stroke-width: 0.8"/>
      </g>
     </g>
     <g id="text_1">
      <!-- 0 -->
      <g transform="translate(52.191875 318.861344)scale(0.17 -0.17)">
       <defs>
        <path id="DejaVuSans-30" d="M 2034 4250 
Q 1547 4250 1301 3770 
Q 1056 3291 1056 2328 
Q 1056 1369 1301 889 
Q 1547 409 2034 409 
Q 2525 409 2770 889 
Q 3016 1369 3016 2328 
Q 3016 3291 2770 3770 
Q 2525 4250 2034 4250 
z
M 2034 4750 
Q 2819 4750 3233 4129 
Q 3647 3509 3647 2328 
Q 3647 1150 3233 529 
Q 2819 -91 2034 -91 
Q 1250 -91 836 529 
Q 422 1150 422 2328 
Q 422 3509 836 4129 
Q 1250 4750 2034 4750 
z
" transform="scale(0.015625)"/>
       </defs>
       <use xlink:href="#DejaVuSans-30"/>
      </g>
     </g>
    </g>
    <g id="xtick_2">
     <g id="line2d_3">
      <path d="M 144.2304 298.944 
L 144.2304 6.912 
" clip-path="url(#pf8a21102a2)" style="fill: none; stroke: #b0b0b0; stroke-width: 0.8; stroke-linecap: square"/>
     </g>
     <g id="line2d_4">
      <g>
       <use xlink:href="#mcf7f852fb2" x="144.2304" y="298.944" style="stroke: #000000; stroke-width: 0.8"/>
      </g>
     </g>
     <g id="text_2">
      <!-- 2 -->
      <g transform="translate(138.822275 318.861344)scale(0.17 -0.17)">
       <defs>
        <path id="DejaVuSans-32" d="M 1228 531 
L 3431 531 
L 3431 0 
L 469 0 
L 469 531 
Q 828 903 1448 1529 
Q 2069 2156 2228 2338 
Q 2531 2678 2651 2914 
Q 2772 3150 2772 3378 
Q 2772 3750 2511 3984 
Q 2250 4219 1831 4219 
Q 1534 4219 1204 4116 
Q 875 4013 500 3803 
L 500 4441 
Q 881 4594 1212 4672 
Q 1544 4750 1819 4750 
Q 2544 4750 2975 4387 
Q 3406 4025 3406 3419 
Q 3406 3131 3298 2873 
Q 3191 2616 2906 2266 
Q 2828 2175 2409 1742 
Q 1991 1309 1228 531 
z
" transform="scale(0.015625)"/>
       </defs>
       <use xlink:href="#DejaVuSans-32"/>
      </g>
     </g>
    </g>
    <g id="xtick_3">
     <g id="line2d_5">
      <path d="M 230.8608 298.944 
L 230.8608 6.912 
" clip-path="url(#pf8a21102a2)" style="fill: none; stroke: #b0b0b0; stroke-width: 0.8; stroke-linecap: square"/>
     </g>
     <g id="line2d_6">
      <g>
       <use xlink:href="#mcf7f852fb2" x="230.8608" y="298.944" style="stroke: #000000; stroke-width: 0.8"/>
      </g>
     </g>
     <g id="text_3">
      <!-- 4 -->
      <g transform="translate(225.452675 318.861344)scale(0.17 -0.17)">
       <defs>
        <path id="DejaVuSans-34" d="M 2419 4116 
L 825 1625 
L 2419 1625 
L 2419 4116 
z
M 2253 4666 
L 3047 4666 
L 3047 1625 
L 3713 1625 
L 3713 1100 
L 3047 1100 
L 3047 0 
L 2419 0 
L 2419 1100 
L 313 1100 
L 313 1709 
L 2253 4666 
z
" transform="scale(0.015625)"/>
       </defs>
       <use xlink:href="#DejaVuSans-34"/>
      </g>
     </g>
    </g>
    <g id="xtick_4">
     <g id="line2d_7">
      <path d="M 317.4912 298.944 
L 317.4912 6.912 
" clip-path="url(#pf8a21102a2)" style="fill: none; stroke: #b0b0b0; stroke-width: 0.8; stroke-linecap: square"/>
     </g>
     <g id="line2d_8">
      <g>
       <use xlink:href="#mcf7f852fb2" x="317.4912" y="298.944" style="stroke: #000000; stroke-width: 0.8"/>
      </g>
     </g>
     <g id="text_4">
      <!-- 6 -->
      <g transform="translate(312.083075 318.861344)scale(0.17 -0.17)">
       <defs>
        <path id="DejaVuSans-36" d="M 2113 2584 
Q 1688 2584 1439 2293 
Q 1191 2003 1191 1497 
Q 1191 994 1439 701 
Q 1688 409 2113 409 
Q 2538 409 2786 701 
Q 3034 994 3034 1497 
Q 3034 2003 2786 2293 
Q 2538 2584 2113 2584 
z
M 3366 4563 
L 3366 3988 
Q 3128 4100 2886 4159 
Q 2644 4219 2406 4219 
Q 1781 4219 1451 3797 
Q 1122 3375 1075 2522 
Q 1259 2794 1537 2939 
Q 1816 3084 2150 3084 
Q 2853 3084 3261 2657 
Q 3669 2231 3669 1497 
Q 3669 778 3244 343 
Q 2819 -91 2113 -91 
Q 1303 -91 875 529 
Q 447 1150 447 2328 
Q 447 3434 972 4092 
Q 1497 4750 2381 4750 
Q 2619 4750 2861 4703 
Q 3103 4656 3366 4563 
z
" transform="scale(0.015625)"/>
       </defs>
       <use xlink:href="#DejaVuSans-36"/>
      </g>
     </g>
    </g>
    <g id="xtick_5">
     <g id="line2d_9">
      <path d="M 100.9152 298.944 
L 100.9152 6.912 
" clip-path="url(#pf8a21102a2)" style="fill: none; stroke: #b0b0b0; stroke-width: 0.8; stroke-linecap: square"/>
     </g>
     <g id="line2d_10">
      <defs>
       <path id="m5d6300d993" d="M 0 0 
L 0 2 
" style="stroke: #000000; stroke-width: 0.6"/>
      </defs>
      <g>
       <use xlink:href="#m5d6300d993" x="100.9152" y="298.944" style="stroke: #000000; stroke-width: 0.6"/>
      </g>
     </g>
    </g>
    <g id="xtick_6">
     <g id="line2d_11">
      <path d="M 187.5456 298.944 
L 187.5456 6.912 
" clip-path="url(#pf8a21102a2)" style="fill: none; stroke: #b0b0b0; stroke-width: 0.8; stroke-linecap: square"/>
     </g>
     <g id="line2d_12">
      <g>
       <use xlink:href="#m5d6300d993" x="187.5456" y="298.944" style="stroke: #000000; stroke-width: 0.6"/>
      </g>
     </g>
    </g>
    <g id="xtick_7">
     <g id="line2d_13">
      <path d="M 274.176 298.944 
L 274.176 6.912 
" clip-path="url(#pf8a21102a2)" style="fill: none; stroke: #b0b0b0; stroke-width: 0.8; stroke-linecap: square"/>
     </g>
     <g id="line2d_14">
      <g>
       <use xlink:href="#m5d6300d993" x="274.176" y="298.944" style="stroke: #000000; stroke-width: 0.6"/>
      </g>
     </g>
    </g>
    <g id="xtick_8">
     <g id="line2d_15">
      <path d="M 360.8064 298.944 
L 360.8064 6.912 
" clip-path="url(#pf8a21102a2)" style="fill: none; stroke: #b0b0b0; stroke-width: 0.8; stroke-linecap: square"/>
     </g>
     <g id="line2d_16">
      <g>
       <use xlink:href="#m5d6300d993" x="360.8064" y="298.944" style="stroke: #000000; stroke-width: 0.6"/>
      </g>
     </g>
    </g>
    <g id="text_5">
     <!-- log10(# f-evals / dimension) -->
     <g transform="translate(88.823278 339.314156)scale(0.17 -0.17)">
      <defs>
       <path id="DejaVuSans-6c" d="M 603 4863 
L 1178 4863 
L 1178 0 
L 603 0 
L 603 4863 
z
" transform="scale(0.015625)"/>
       <path id="DejaVuSans-6f" d="M 1959 3097 
Q 1497 3097 1228 2736 
Q 959 2375 959 1747 
Q 959 1119 1226 758 
Q 1494 397 1959 397 
Q 2419 397 2687 759 
Q 2956 1122 2956 1747 
Q 2956 2369 2687 2733 
Q 2419 3097 1959 3097 
z
M 1959 3584 
Q 2709 3584 3137 3096 
Q 3566 2609 3566 1747 
Q 3566 888 3137 398 
Q 2709 -91 1959 -91 
Q 1206 -91 779 398 
Q 353 888 353 1747 
Q 353 2609 779 3096 
Q 1206 3584 1959 3584 
z
" transform="scale(0.015625)"/>
       <path id="DejaVuSans-67" d="M 2906 1791 
Q 2906 2416 2648 2759 
Q 2391 3103 1925 3103 
Q 1463 3103 1205 2759 
Q 947 2416 947 1791 
Q 947 1169 1205 825 
Q 1463 481 1925 481 
Q 2391 481 2648 825 
Q 2906 1169 2906 1791 
z
M 3481 434 
Q 3481 -459 3084 -895 
Q 2688 -1331 1869 -1331 
Q 1566 -1331 1297 -1286 
Q 1028 -1241 775 -1147 
L 775 -588 
Q 1028 -725 1275 -790 
Q 1522 -856 1778 -856 
Q 2344 -856 2625 -561 
Q 2906 -266 2906 331 
L 2906 616 
Q 2728 306 2450 153 
Q 2172 0 1784 0 
Q 1141 0 747 490 
Q 353 981 353 1791 
Q 353 2603 747 3093 
Q 1141 3584 1784 3584 
Q 2172 3584 2450 3431 
Q 2728 3278 2906 2969 
L 2906 3500 
L 3481 3500 
L 3481 434 
z
" transform="scale(0.015625)"/>
       <path id="DejaVuSans-31" d="M 794 531 
L 1825 531 
L 1825 4091 
L 703 3866 
L 703 4441 
L 1819 4666 
L 2450 4666 
L 2450 531 
L 3481 531 
L 3481 0 
L 794 0 
L 794 531 
z
" transform="scale(0.015625)"/>
       <path id="DejaVuSans-28" d="M 1984 4856 
Q 1566 4138 1362 3434 
Q 1159 2731 1159 2009 
Q 1159 1288 1364 580 
Q 1569 -128 1984 -844 
L 1484 -844 
Q 1016 -109 783 600 
Q 550 1309 550 2009 
Q 550 2706 781 3412 
Q 1013 4119 1484 4856 
L 1984 4856 
z
" transform="scale(0.015625)"/>
       <path id="DejaVuSans-23" d="M 3272 2816 
L 2363 2816 
L 2100 1772 
L 3016 1772 
L 3272 2816 
z
M 2803 4594 
L 2478 3297 
L 3391 3297 
L 3719 4594 
L 4219 4594 
L 3897 3297 
L 4872 3297 
L 4872 2816 
L 3775 2816 
L 3519 1772 
L 4513 1772 
L 4513 1294 
L 3397 1294 
L 3072 0 
L 2572 0 
L 2894 1294 
L 1978 1294 
L 1656 0 
L 1153 0 
L 1478 1294 
L 494 1294 
L 494 1772 
L 1594 1772 
L 1856 2816 
L 850 2816 
L 850 3297 
L 1978 3297 
L 2297 4594 
L 2803 4594 
z
" transform="scale(0.015625)"/>
       <path id="DejaVuSans-20" transform="scale(0.015625)"/>
       <path id="DejaVuSans-66" d="M 2375 4863 
L 2375 4384 
L 1825 4384 
Q 1516 4384 1395 4259 
Q 1275 4134 1275 3809 
L 1275 3500 
L 2222 3500 
L 2222 3053 
L 1275 3053 
L 1275 0 
L 697 0 
L 697 3053 
L 147 3053 
L 147 3500 
L 697 3500 
L 697 3744 
Q 697 4328 969 4595 
Q 1241 4863 1831 4863 
L 2375 4863 
z
" transform="scale(0.015625)"/>
       <path id="DejaVuSans-2d" d="M 313 2009 
L 1997 2009 
L 1997 1497 
L 313 1497 
L 313 2009 
z
" transform="scale(0.015625)"/>
       <path id="DejaVuSans-65" d="M 3597 1894 
L 3597 1613 
L 953 1613 
Q 991 1019 1311 708 
Q 1631 397 2203 397 
Q 2534 397 2845 478 
Q 3156 559 3463 722 
L 3463 178 
Q 3153 47 2828 -22 
Q 2503 -91 2169 -91 
Q 1331 -91 842 396 
Q 353 884 353 1716 
Q 353 2575 817 3079 
Q 1281 3584 2069 3584 
Q 2775 3584 3186 3129 
Q 3597 2675 3597 1894 
z
M 3022 2063 
Q 3016 2534 2758 2815 
Q 2500 3097 2075 3097 
Q 1594 3097 1305 2825 
Q 1016 2553 972 2059 
L 3022 2063 
z
" transform="scale(0.015625)"/>
       <path id="DejaVuSans-76" d="M 191 3500 
L 800 3500 
L 1894 563 
L 2988 3500 
L 3597 3500 
L 2284 0 
L 1503 0 
L 191 3500 
z
" transform="scale(0.015625)"/>
       <path id="DejaVuSans-61" d="M 2194 1759 
Q 1497 1759 1228 1600 
Q 959 1441 959 1056 
Q 959 750 1161 570 
Q 1363 391 1709 391 
Q 2188 391 2477 730 
Q 2766 1069 2766 1631 
L 2766 1759 
L 2194 1759 
z
M 3341 1997 
L 3341 0 
L 2766 0 
L 2766 531 
Q 2569 213 2275 61 
Q 1981 -91 1556 -91 
Q 1019 -91 701 211 
Q 384 513 384 1019 
Q 384 1609 779 1909 
Q 1175 2209 1959 2209 
L 2766 2209 
L 2766 2266 
Q 2766 2663 2505 2880 
Q 2244 3097 1772 3097 
Q 1472 3097 1187 3025 
Q 903 2953 641 2809 
L 641 3341 
Q 956 3463 1253 3523 
Q 1550 3584 1831 3584 
Q 2591 3584 2966 3190 
Q 3341 2797 3341 1997 
z
" transform="scale(0.015625)"/>
       <path id="DejaVuSans-73" d="M 2834 3397 
L 2834 2853 
Q 2591 2978 2328 3040 
Q 2066 3103 1784 3103 
Q 1356 3103 1142 2972 
Q 928 2841 928 2578 
Q 928 2378 1081 2264 
Q 1234 2150 1697 2047 
L 1894 2003 
Q 2506 1872 2764 1633 
Q 3022 1394 3022 966 
Q 3022 478 2636 193 
Q 2250 -91 1575 -91 
Q 1294 -91 989 -36 
Q 684 19 347 128 
L 347 722 
Q 666 556 975 473 
Q 1284 391 1588 391 
Q 1994 391 2212 530 
Q 2431 669 2431 922 
Q 2431 1156 2273 1281 
Q 2116 1406 1581 1522 
L 1381 1569 
Q 847 1681 609 1914 
Q 372 2147 372 2553 
Q 372 3047 722 3315 
Q 1072 3584 1716 3584 
Q 2034 3584 2315 3537 
Q 2597 3491 2834 3397 
z
" transform="scale(0.015625)"/>
       <path id="DejaVuSans-2f" d="M 1625 4666 
L 2156 4666 
L 531 -594 
L 0 -594 
L 1625 4666 
z
" transform="scale(0.015625)"/>
       <path id="DejaVuSans-64" d="M 2906 2969 
L 2906 4863 
L 3481 4863 
L 3481 0 
L 2906 0 
L 2906 525 
Q 2725 213 2448 61 
Q 2172 -91 1784 -91 
Q 1150 -91 751 415 
Q 353 922 353 1747 
Q 353 2572 751 3078 
Q 1150 3584 1784 3584 
Q 2172 3584 2448 3432 
Q 2725 3281 2906 2969 
z
M 947 1747 
Q 947 1113 1208 752 
Q 1469 391 1925 391 
Q 2381 391 2643 752 
Q 2906 1113 2906 1747 
Q 2906 2381 2643 2742 
Q 2381 3103 1925 3103 
Q 1469 3103 1208 2742 
Q 947 2381 947 1747 
z
" transform="scale(0.015625)"/>
       <path id="DejaVuSans-69" d="M 603 3500 
L 1178 3500 
L 1178 0 
L 603 0 
L 603 3500 
z
M 603 4863 
L 1178 4863 
L 1178 4134 
L 603 4134 
L 603 4863 
z
" transform="scale(0.015625)"/>
       <path id="DejaVuSans-6d" d="M 3328 2828 
Q 3544 3216 3844 3400 
Q 4144 3584 4550 3584 
Q 5097 3584 5394 3201 
Q 5691 2819 5691 2113 
L 5691 0 
L 5113 0 
L 5113 2094 
Q 5113 2597 4934 2840 
Q 4756 3084 4391 3084 
Q 3944 3084 3684 2787 
Q 3425 2491 3425 1978 
L 3425 0 
L 2847 0 
L 2847 2094 
Q 2847 2600 2669 2842 
Q 2491 3084 2119 3084 
Q 1678 3084 1418 2786 
Q 1159 2488 1159 1978 
L 1159 0 
L 581 0 
L 581 3500 
L 1159 3500 
L 1159 2956 
Q 1356 3278 1631 3431 
Q 1906 3584 2284 3584 
Q 2666 3584 2933 3390 
Q 3200 3197 3328 2828 
z
" transform="scale(0.015625)"/>
       <path id="DejaVuSans-6e" d="M 3513 2113 
L 3513 0 
L 2938 0 
L 2938 2094 
Q 2938 2591 2744 2837 
Q 2550 3084 2163 3084 
Q 1697 3084 1428 2787 
Q 1159 2491 1159 1978 
L 1159 0 
L 581 0 
L 581 3500 
L 1159 3500 
L 1159 2956 
Q 1366 3272 1645 3428 
Q 1925 3584 2291 3584 
Q 2894 3584 3203 3211 
Q 3513 2838 3513 2113 
z
" transform="scale(0.015625)"/>
       <path id="DejaVuSans-29" d="M 513 4856 
L 1013 4856 
Q 1481 4119 1714 3412 
Q 1947 2706 1947 2009 
Q 1947 1309 1714 600 
Q 1481 -109 1013 -844 
L 513 -844 
Q 928 -128 1133 580 
Q 1338 1288 1338 2009 
Q 1338 2731 1133 3434 
Q 928 4138 513 4856 
z
" transform="scale(0.015625)"/>
      </defs>
      <use xlink:href="#DejaVuSans-6c"/>
      <use xlink:href="#DejaVuSans-6f" x="27.783203"/>
      <use xlink:href="#DejaVuSans-67" x="88.964844"/>
      <use xlink:href="#DejaVuSans-31" x="152.441406"/>
      <use xlink:href="#DejaVuSans-30" x="216.064453"/>
      <use xlink:href="#DejaVuSans-28" x="279.6875"/>
      <use xlink:href="#DejaVuSans-23" x="318.701172"/>
      <use xlink:href="#DejaVuSans-20" x="402.490234"/>
      <use xlink:href="#DejaVuSans-66" x="434.277344"/>
      <use xlink:href="#DejaVuSans-2d" x="463.982422"/>
      <use xlink:href="#DejaVuSans-65" x="500.066406"/>
      <use xlink:href="#DejaVuSans-76" x="561.589844"/>
      <use xlink:href="#DejaVuSans-61" x="620.769531"/>
      <use xlink:href="#DejaVuSans-6c" x="682.048828"/>
      <use xlink:href="#DejaVuSans-73" x="709.832031"/>
      <use xlink:href="#DejaVuSans-20" x="761.931641"/>
      <use xlink:href="#DejaVuSans-2f" x="793.71875"/>
      <use xlink:href="#DejaVuSans-20" x="827.410156"/>
      <use xlink:href="#DejaVuSans-64" x="859.197266"/>
      <use xlink:href="#DejaVuSans-69" x="922.673828"/>
      <use xlink:href="#DejaVuSans-6d" x="950.457031"/>
      <use xlink:href="#DejaVuSans-65" x="1047.869141"/>
      <use xlink:href="#DejaVuSans-6e" x="1109.392578"/>
      <use xlink:href="#DejaVuSans-73" x="1172.771484"/>
      <use xlink:href="#DejaVuSans-69" x="1224.871094"/>
      <use xlink:href="#DejaVuSans-6f" x="1252.654297"/>
      <use xlink:href="#DejaVuSans-6e" x="1313.835938"/>
      <use xlink:href="#DejaVuSans-29" x="1377.214844"/>
     </g>
    </g>
   </g>
   <g id="matplotlib.axis_2">
    <g id="ytick_1">
     <g id="line2d_17">
      <path d="M 57.6 298.944 
L 360.8064 298.944 
" clip-path="url(#pf8a21102a2)" style="fill: none; stroke: #b0b0b0; stroke-width: 0.8; stroke-linecap: square"/>
     </g>
     <g id="line2d_18">
      <defs>
       <path id="m9887718bcb" d="M 0 0 
L -3.5 0 
" style="stroke: #000000; stroke-width: 0.8"/>
      </defs>
      <g>
       <use xlink:href="#m9887718bcb" x="57.6" y="298.944" style="stroke: #000000; stroke-width: 0.8"/>
      </g>
     </g>
     <g id="text_6">
      <!-- 0.0 -->
      <g transform="translate(25.155 305.02275)scale(0.16 -0.16)">
       <defs>
        <path id="DejaVuSans-2e" d="M 684 794 
L 1344 794 
L 1344 0 
L 684 0 
L 684 794 
z
" transform="scale(0.015625)"/>
       </defs>
       <use xlink:href="#DejaVuSans-30"/>
       <use xlink:href="#DejaVuSans-2e" x="63.623047"/>
       <use xlink:href="#DejaVuSans-30" x="95.410156"/>
      </g>
     </g>
    </g>
    <g id="ytick_2">
     <g id="line2d_19">
      <path d="M 57.6 240.5376 
L 360.8064 240.5376 
" clip-path="url(#pf8a21102a2)" style="fill: none; stroke: #b0b0b0; stroke-width: 0.8; stroke-linecap: square"/>
     </g>
     <g id="line2d_20">
      <g>
       <use xlink:href="#m9887718bcb" x="57.6" y="240.5376" style="stroke: #000000; stroke-width: 0.8"/>
      </g>
     </g>
     <g id="text_7">
      <!-- 0.2 -->
      <g transform="translate(25.155 246.61635)scale(0.16 -0.16)">
       <use xlink:href="#DejaVuSans-30"/>
       <use xlink:href="#DejaVuSans-2e" x="63.623047"/>
       <use xlink:href="#DejaVuSans-32" x="95.410156"/>
      </g>
     </g>
    </g>
    <g id="ytick_3">
     <g id="line2d_21">
      <path d="M 57.6 182.1312 
L 360.8064 182.1312 
" clip-path="url(#pf8a21102a2)" style="fill: none; stroke: #b0b0b0; stroke-width: 0.8; stroke-linecap: square"/>
     </g>
     <g id="line2d_22">
      <g>
       <use xlink:href="#m9887718bcb" x="57.6" y="182.1312" style="stroke: #000000; stroke-width: 0.8"/>
      </g>
     </g>
     <g id="text_8">
      <!-- 0.4 -->
      <g transform="translate(25.155 188.20995)scale(0.16 -0.16)">
       <use xlink:href="#DejaVuSans-30"/>
       <use xlink:href="#DejaVuSans-2e" x="63.623047"/>
       <use xlink:href="#DejaVuSans-34" x="95.410156"/>
      </g>
     </g>
    </g>
    <g id="ytick_4">
     <g id="line2d_23">
      <path d="M 57.6 123.7248 
L 360.8064 123.7248 
" clip-path="url(#pf8a21102a2)" style="fill: none; stroke: #b0b0b0; stroke-width: 0.8; stroke-linecap: square"/>
     </g>
     <g id="line2d_24">
      <g>
       <use xlink:href="#m9887718bcb" x="57.6" y="123.7248" style="stroke: #000000; stroke-width: 0.8"/>
      </g>
     </g>
     <g id="text_9">
      <!-- 0.6 -->
      <g transform="translate(25.155 129.80355)scale(0.16 -0.16)">
       <use xlink:href="#DejaVuSans-30"/>
       <use xlink:href="#DejaVuSans-2e" x="63.623047"/>
       <use xlink:href="#DejaVuSans-36" x="95.410156"/>
      </g>
     </g>
    </g>
    <g id="ytick_5">
     <g id="line2d_25">
      <path d="M 57.6 65.3184 
L 360.8064 65.3184 
" clip-path="url(#pf8a21102a2)" style="fill: none; stroke: #b0b0b0; stroke-width: 0.8; stroke-linecap: square"/>
     </g>
     <g id="line2d_26">
      <g>
       <use xlink:href="#m9887718bcb" x="57.6" y="65.3184" style="stroke: #000000; stroke-width: 0.8"/>
      </g>
     </g>
     <g id="text_10">
      <!-- 0.8 -->
      <g transform="translate(25.155 71.39715)scale(0.16 -0.16)">
       <defs>
        <path id="DejaVuSans-38" d="M 2034 2216 
Q 1584 2216 1326 1975 
Q 1069 1734 1069 1313 
Q 1069 891 1326 650 
Q 1584 409 2034 409 
Q 2484 409 2743 651 
Q 3003 894 3003 1313 
Q 3003 1734 2745 1975 
Q 2488 2216 2034 2216 
z
M 1403 2484 
Q 997 2584 770 2862 
Q 544 3141 544 3541 
Q 544 4100 942 4425 
Q 1341 4750 2034 4750 
Q 2731 4750 3128 4425 
Q 3525 4100 3525 3541 
Q 3525 3141 3298 2862 
Q 3072 2584 2669 2484 
Q 3125 2378 3379 2068 
Q 3634 1759 3634 1313 
Q 3634 634 3220 271 
Q 2806 -91 2034 -91 
Q 1263 -91 848 271 
Q 434 634 434 1313 
Q 434 1759 690 2068 
Q 947 2378 1403 2484 
z
M 1172 3481 
Q 1172 3119 1398 2916 
Q 1625 2713 2034 2713 
Q 2441 2713 2670 2916 
Q 2900 3119 2900 3481 
Q 2900 3844 2670 4047 
Q 2441 4250 2034 4250 
Q 1625 4250 1398 4047 
Q 1172 3844 1172 3481 
z
" transform="scale(0.015625)"/>
       </defs>
       <use xlink:href="#DejaVuSans-30"/>
       <use xlink:href="#DejaVuSans-2e" x="63.623047"/>
       <use xlink:href="#DejaVuSans-38" x="95.410156"/>
      </g>
     </g>
    </g>
    <g id="ytick_6">
     <g id="line2d_27">
      <path d="M 57.6 6.912 
L 360.8064 6.912 
" clip-path="url(#pf8a21102a2)" style="fill: none; stroke: #b0b0b0; stroke-width: 0.8; stroke-linecap: square"/>
     </g>
     <g id="line2d_28">
      <g>
       <use xlink:href="#m9887718bcb" x="57.6" y="6.912" style="stroke: #000000; stroke-width: 0.8"/>
      </g>
     </g>
     <g id="text_11">
      <!-- 1.0 -->
      <g transform="translate(25.155 12.99075)scale(0.16 -0.16)">
       <use xlink:href="#DejaVuSans-31"/>
       <use xlink:href="#DejaVuSans-2e" x="63.623047"/>
       <use xlink:href="#DejaVuSans-30" x="95.410156"/>
      </g>
     </g>
    </g>
    <g id="text_12">
     <!-- Fraction of function,target pairs -->
     <g transform="translate(17.619531 287.313)rotate(-90)scale(0.17 -0.17)">
      <defs>
       <path id="DejaVuSans-46" d="M 628 4666 
L 3309 4666 
L 3309 4134 
L 1259 4134 
L 1259 2759 
L 3109 2759 
L 3109 2228 
L 1259 2228 
L 1259 0 
L 628 0 
L 628 4666 
z
" transform="scale(0.015625)"/>
       <path id="DejaVuSans-72" d="M 2631 2963 
Q 2534 3019 2420 3045 
Q 2306 3072 2169 3072 
Q 1681 3072 1420 2755 
Q 1159 2438 1159 1844 
L 1159 0 
L 581 0 
L 581 3500 
L 1159 3500 
L 1159 2956 
Q 1341 3275 1631 3429 
Q 1922 3584 2338 3584 
Q 2397 3584 2469 3576 
Q 2541 3569 2628 3553 
L 2631 2963 
z
" transform="scale(0.015625)"/>
       <path id="DejaVuSans-63" d="M 3122 3366 
L 3122 2828 
Q 2878 2963 2633 3030 
Q 2388 3097 2138 3097 
Q 1578 3097 1268 2742 
Q 959 2388 959 1747 
Q 959 1106 1268 751 
Q 1578 397 2138 397 
Q 2388 397 2633 464 
Q 2878 531 3122 666 
L 3122 134 
Q 2881 22 2623 -34 
Q 2366 -91 2075 -91 
Q 1284 -91 818 406 
Q 353 903 353 1747 
Q 353 2603 823 3093 
Q 1294 3584 2113 3584 
Q 2378 3584 2631 3529 
Q 2884 3475 3122 3366 
z
" transform="scale(0.015625)"/>
       <path id="DejaVuSans-74" d="M 1172 4494 
L 1172 3500 
L 2356 3500 
L 2356 3053 
L 1172 3053 
L 1172 1153 
Q 1172 725 1289 603 
Q 1406 481 1766 481 
L 2356 481 
L 2356 0 
L 1766 0 
Q 1100 0 847 248 
Q 594 497 594 1153 
L 594 3053 
L 172 3053 
L 172 3500 
L 594 3500 
L 594 4494 
L 1172 4494 
z
" transform="scale(0.015625)"/>
       <path id="DejaVuSans-75" d="M 544 1381 
L 544 3500 
L 1119 3500 
L 1119 1403 
Q 1119 906 1312 657 
Q 1506 409 1894 409 
Q 2359 409 2629 706 
Q 2900 1003 2900 1516 
L 2900 3500 
L 3475 3500 
L 3475 0 
L 2900 0 
L 2900 538 
Q 2691 219 2414 64 
Q 2138 -91 1772 -91 
Q 1169 -91 856 284 
Q 544 659 544 1381 
z
M 1991 3584 
L 1991 3584 
z
" transform="scale(0.015625)"/>
       <path id="DejaVuSans-2c" d="M 750 794 
L 1409 794 
L 1409 256 
L 897 -744 
L 494 -744 
L 750 256 
L 750 794 
z
" transform="scale(0.015625)"/>
       <path id="DejaVuSans-70" d="M 1159 525 
L 1159 -1331 
L 581 -1331 
L 581 3500 
L 1159 3500 
L 1159 2969 
Q 1341 3281 1617 3432 
Q 1894 3584 2278 3584 
Q 2916 3584 3314 3078 
Q 3713 2572 3713 1747 
Q 3713 922 3314 415 
Q 2916 -91 2278 -91 
Q 1894 -91 1617 61 
Q 1341 213 1159 525 
z
M 3116 1747 
Q 3116 2381 2855 2742 
Q 2594 3103 2138 3103 
Q 1681 3103 1420 2742 
Q 1159 2381 1159 1747 
Q 1159 1113 1420 752 
Q 1681 391 2138 391 
Q 2594 391 2855 752 
Q 3116 1113 3116 1747 
z
" transform="scale(0.015625)"/>
      </defs>
      <use xlink:href="#DejaVuSans-46"/>
      <use xlink:href="#DejaVuSans-72" x="50.269531"/>
      <use xlink:href="#DejaVuSans-61" x="91.382812"/>
      <use xlink:href="#DejaVuSans-63" x="152.662109"/>
      <use xlink:href="#DejaVuSans-74" x="207.642578"/>
      <use xlink:href="#DejaVuSans-69" x="246.851562"/>
      <use xlink:href="#DejaVuSans-6f" x="274.634766"/>
      <use xlink:href="#DejaVuSans-6e" x="335.816406"/>
      <use xlink:href="#DejaVuSans-20" x="399.195312"/>
      <use xlink:href="#DejaVuSans-6f" x="430.982422"/>
      <use xlink:href="#DejaVuSans-66" x="492.164062"/>
      <use xlink:href="#DejaVuSans-20" x="527.369141"/>
      <use xlink:href="#DejaVuSans-66" x="559.15625"/>
      <use xlink:href="#DejaVuSans-75" x="594.361328"/>
      <use xlink:href="#DejaVuSans-6e" x="657.740234"/>
      <use xlink:href="#DejaVuSans-63" x="721.119141"/>
      <use xlink:href="#DejaVuSans-74" x="776.099609"/>
      <use xlink:href="#DejaVuSans-69" x="815.308594"/>
      <use xlink:href="#DejaVuSans-6f" x="843.091797"/>
      <use xlink:href="#DejaVuSans-6e" x="904.273438"/>
      <use xlink:href="#DejaVuSans-2c" x="967.652344"/>
      <use xlink:href="#DejaVuSans-74" x="999.439453"/>
      <use xlink:href="#DejaVuSans-61" x="1038.648438"/>
      <use xlink:href="#DejaVuSans-72" x="1099.927734"/>
      <use xlink:href="#DejaVuSans-67" x="1139.291016"/>
      <use xlink:href="#DejaVuSans-65" x="1202.767578"/>
      <use xlink:href="#DejaVuSans-74" x="1264.291016"/>
      <use xlink:href="#DejaVuSans-20" x="1303.5"/>
      <use xlink:href="#DejaVuSans-70" x="1335.287109"/>
      <use xlink:href="#DejaVuSans-61" x="1398.763672"/>
      <use xlink:href="#DejaVuSans-69" x="1460.042969"/>
      <use xlink:href="#DejaVuSans-72" x="1487.826172"/>
      <use xlink:href="#DejaVuSans-73" x="1528.939453"/>
     </g>
    </g>
   </g>
   <g id="line2d_29">
    <defs>
     <path id="m72e324f2af" d="M 0 1.5 
C 0.397805 1.5 0.77937 1.341951 1.06066 1.06066 
C 1.341951 0.77937 1.5 0.397805 1.5 0 
C 1.5 -0.397805 1.341951 -0.77937 1.06066 -1.06066 
C 0.77937 -1.341951 0.397805 -1.5 0 -1.5 
C -0.397805 -1.5 -0.77937 -1.341951 -1.06066 -1.06066 
C -1.341951 -0.77937 -1.5 -0.397805 -1.5 0 
C -1.5 0.397805 -1.341951 0.77937 -1.06066 1.06066 
C -0.77937 1.341951 -0.397805 1.5 0 1.5 
z
" style="stroke: #00bfbf"/>
    </defs>
    <g>
     <use xlink:href="#m72e324f2af" x="204.977081" y="217.879945" style="fill: #00bfbf; stroke: #00bfbf"/>
     <use xlink:href="#m72e324f2af" x="204.977081" y="217.879945" style="fill: #00bfbf; stroke: #00bfbf"/>
    </g>
   </g>
   <g id="line2d_30">
    <path d="M 44.560826 298.944 
L 44.560826 292.524331 
L 57.6 292.524331 
L 57.6 291.769076 
L 65.227428 291.769076 
L 65.227428 291.6432 
L 70.639174 291.6432 
L 70.639174 290.636193 
L 74.836851 290.636193 
L 74.836851 290.510317 
L 78.266603 290.510317 
L 78.266603 290.13269 
L 81.166416 290.13269 
L 81.166416 290.006814 
L 83.678349 290.006814 
L 83.678349 289.125683 
L 85.894031 289.125683 
L 85.894031 288.496303 
L 87.876026 288.496303 
L 87.876026 288.244552 
L 89.668958 288.244552 
L 89.668958 287.489297 
L 91.305777 287.489297 
L 91.305777 287.237545 
L 92.811505 287.237545 
L 92.811505 286.985793 
L 95.503454 286.985793 
L 95.503454 286.48229 
L 97.857967 286.48229 
L 97.857967 285.978786 
L 98.933205 285.978786 
L 98.933205 285.475283 
L 99.950294 285.475283 
L 99.950294 285.349407 
L 101.833019 285.349407 
L 101.833019 284.216524 
L 102.708132 284.216524 
L 102.708132 284.090648 
L 104.344952 284.090648 
L 104.344952 283.461269 
L 105.112877 283.461269 
L 105.112877 282.328386 
L 106.560633 282.328386 
L 106.560633 281.321379 
L 108.542628 281.321379 
L 108.542628 281.069628 
L 110.335561 281.069628 
L 110.335561 280.062621 
L 111.442442 280.062621 
L 111.442442 279.810869 
L 111.97238 279.810869 
L 111.97238 279.684993 
L 112.487797 279.684993 
L 112.487797 279.433241 
L 113.478107 279.433241 
L 113.478107 279.055614 
L 113.954374 279.055614 
L 113.954374 278.677986 
L 114.872193 278.677986 
L 114.872193 278.426234 
L 115.747307 278.426234 
L 115.747307 278.300359 
L 116.170056 278.300359 
L 116.170056 278.048607 
L 116.988079 278.048607 
L 116.988079 277.922731 
L 117.772007 277.922731 
L 117.772007 277.796855 
L 118.524569 277.796855 
L 118.524569 277.0416 
L 118.889854 277.0416 
L 118.889854 276.915724 
L 120.944062 276.915724 
L 120.944062 276.663972 
L 121.265635 276.663972 
L 121.265635 276.412221 
L 121.581803 276.412221 
L 121.581803 276.286345 
L 121.892744 276.286345 
L 121.892744 275.53109 
L 122.19863 275.53109 
L 122.19863 274.524083 
L 122.499621 274.524083 
L 122.499621 274.146455 
L 122.795872 274.146455 
L 122.795872 274.020579 
L 123.657621 274.020579 
L 123.657621 273.894703 
L 123.936316 273.894703 
L 123.936316 273.768828 
L 124.210942 273.768828 
L 124.210942 273.517076 
L 124.481616 273.517076 
L 124.481616 273.3912 
L 124.748451 273.3912 
L 124.748451 273.139448 
L 126.993549 273.139448 
L 126.993549 273.013572 
L 128.57149 273.013572 
L 128.57149 272.510069 
L 130.226319 272.510069 
L 130.226319 271.628938 
L 130.811181 271.628938 
L 130.811181 271.25131 
L 131.191226 271.25131 
L 131.191226 271.125434 
L 131.378407 271.125434 
L 131.378407 270.747807 
L 131.563744 270.747807 
L 131.563744 270.621931 
L 132.46399 270.621931 
L 132.46399 270.370179 
L 132.812362 270.370179 
L 132.812362 270.118428 
L 132.984158 270.118428 
L 132.984158 269.992552 
L 133.323114 269.992552 
L 133.323114 269.237297 
L 133.656071 269.237297 
L 133.656071 268.985545 
L 133.820365 268.985545 
L 133.820365 268.859669 
L 134.931919 268.859669 
L 134.931919 268.607917 
L 135.085483 268.607917 
L 135.085483 268.482041 
L 137.38594 268.482041 
L 137.38594 268.356166 
L 138.566146 268.356166 
L 138.566146 268.23029 
L 139.067817 268.23029 
L 139.067817 267.978538 
L 139.796097 267.978538 
L 139.796097 267.60091 
L 140.49723 267.60091 
L 140.49723 267.349159 
L 140.725251 267.349159 
L 140.725251 267.097407 
L 141.173167 267.097407 
L 141.173167 266.971531 
L 141.610664 266.971531 
L 141.610664 266.593903 
L 144.041338 266.593903 
L 144.041338 266.0904 
L 144.602918 266.0904 
L 144.602918 265.712772 
L 146.023332 265.712772 
L 146.023332 265.586897 
L 146.612557 265.586897 
L 146.612557 265.335145 
L 146.941151 265.335145 
L 147.022411 264.328138 
L 147.581606 264.328138 
L 147.581606 264.076386 
L 147.893838 264.076386 
L 147.893838 263.824634 
L 148.124658 263.824634 
L 148.124658 263.698759 
L 148.726679 263.698759 
L 148.726679 263.447007 
L 149.238092 263.447007 
L 149.238092 263.195255 
L 149.524205 263.195255 
L 149.524205 262.943503 
L 149.73597 262.943503 
L 149.73597 262.565876 
L 150.221009 262.565876 
L 150.221009 262.44 
L 150.559965 262.44 
L 150.559965 262.314124 
L 150.8268 262.314124 
L 150.8268 262.062372 
L 151.349377 262.062372 
L 151.349377 261.810621 
L 152.230346 261.810621 
L 152.230346 261.432993 
L 152.474656 261.432993 
L 152.53524 260.677738 
L 152.715833 260.677738 
L 152.775647 260.425986 
L 153.01302 260.425986 
L 153.01302 259.922483 
L 153.593669 259.922483 
L 153.593669 259.796607 
L 153.821002 259.796607 
L 153.821002 257.153214 
L 154.377597 257.153214 
L 154.377597 257.027338 
L 154.86483 257.027338 
L 154.86483 256.901462 
L 155.235253 256.901462 
L 155.235253 256.775586 
L 155.598521 256.775586 
L 155.649849 255.768579 
L 156.255099 255.768579 
L 156.255099 255.642703 
L 157.363398 255.642703 
L 157.363398 255.516828 
L 157.779907 255.516828 
L 157.871225 254.635697 
L 157.962102 254.635697 
L 158.052543 254.383945 
L 158.276759 254.383945 
L 158.276759 254.132193 
L 158.717331 254.132193 
L 158.717331 253.754566 
L 159.019705 253.754566 
L 159.019705 253.62869 
L 159.317295 253.62869 
L 159.359426 253.376938 
L 159.527013 253.376938 
L 159.61025 252.244055 
L 159.693121 252.244055 
L 159.693121 252.118179 
L 159.898714 252.118179 
L 159.898714 251.992303 
L 160.660094 251.992303 
L 160.660094 251.866428 
L 160.894266 251.866428 
L 160.894266 251.740552 
L 161.202028 251.740552 
L 161.202028 251.4888 
L 161.504837 251.4888 
L 161.542347 251.111172 
L 161.728786 251.111172 
L 161.802848 250.607669 
L 162.38507 250.607669 
L 162.38507 250.481793 
L 162.59884 250.481793 
L 162.59884 250.230041 
L 162.984551 250.230041 
L 163.019227 249.726538 
L 163.191653 249.726538 
L 163.191653 249.474786 
L 164.70794 249.474786 
L 164.70794 249.34891 
L 164.897003 249.34891 
L 164.897003 249.223034 
L 165.238758 249.223034 
L 165.238758 248.971283 
L 165.392072 248.971283 
L 165.392072 248.719531 
L 165.755007 248.719531 
L 165.755007 248.467779 
L 165.874446 248.467779 
L 165.874446 248.090152 
L 166.972821 248.090152 
L 166.972821 247.712524 
L 167.334325 247.712524 
L 167.334325 247.586648 
L 167.769923 247.586648 
L 167.823671 247.334897 
L 168.090128 247.334897 
L 168.090128 247.083145 
L 168.508761 247.083145 
L 168.534619 246.705517 
L 168.637696 246.705517 
L 168.637696 246.453766 
L 169.219673 246.453766 
L 169.219673 246.32789 
L 169.467197 246.32789 
L 169.565302 246.076138 
L 169.784185 246.076138 
L 169.784185 245.69851 
L 170.024438 245.69851 
L 170.024438 245.572634 
L 170.261661 245.572634 
L 170.308749 244.943255 
L 170.819081 244.943255 
L 170.819081 244.439752 
L 171.069148 244.439752 
L 171.069148 244.188 
L 171.181725 244.188 
L 171.181725 244.062124 
L 171.427048 244.062124 
L 171.537509 243.432745 
L 171.843395 243.432745 
L 171.929885 242.929241 
L 172.058879 242.929241 
L 172.123046 242.551614 
L 172.229507 242.551614 
L 172.229507 242.299862 
L 172.587032 242.299862 
L 172.670177 241.670483 
L 172.794209 241.670483 
L 172.835373 240.5376 
L 173.342453 240.5376 
L 173.342453 240.411724 
L 173.797195 240.411724 
L 173.797195 240.159972 
L 173.952824 240.159972 
L 173.952824 240.034097 
L 174.468765 240.034097 
L 174.468765 239.782345 
L 174.581522 239.782345 
L 174.674972 239.404717 
L 174.73082 239.404717 
L 174.786503 238.39771 
L 175.37042 238.39771 
L 175.37042 238.271834 
L 175.655719 238.271834 
L 175.655719 238.020083 
L 175.971592 238.020083 
L 175.971592 237.894207 
L 176.350592 237.894207 
L 176.350592 237.516579 
L 176.62151 237.516579 
L 176.705378 237.138952 
L 177.524113 237.138952 
L 177.620009 236.761324 
L 178.704102 236.761324 
L 178.704102 236.635448 
L 178.83906 236.635448 
L 178.928497 236.383697 
L 179.091369 236.383697 
L 179.091369 236.131945 
L 179.941672 236.131945 
L 179.941672 235.880193 
L 180.221402 235.880193 
L 180.276853 235.37669 
L 180.633351 235.37669 
L 180.633351 235.124938 
L 181.023172 235.124938 
L 181.023172 234.873186 
L 181.300497 234.873186 
L 181.300497 234.621434 
L 181.868631 234.621434 
L 181.90675 234.117931 
L 182.579998 234.117931 
L 182.579998 233.866179 
L 182.738541 233.866179 
L 182.787055 233.614428 
L 183.639581 233.614428 
L 183.639581 233.362676 
L 183.892552 233.362676 
L 183.892552 233.2368 
L 184.466222 233.2368 
L 184.543614 232.733297 
L 185.553151 232.733297 
L 185.647027 231.978041 
L 185.688599 231.978041 
L 185.688599 231.72629 
L 185.823079 231.72629 
L 185.823079 231.600414 
L 185.936123 231.600414 
L 185.936123 231.348662 
L 186.708966 231.348662 
L 186.708966 231.222786 
L 187.441851 231.222786 
L 187.441851 230.719283 
L 188.119902 230.719283 
L 188.119902 230.467531 
L 189.080246 230.467531 
L 189.14947 230.089903 
L 189.278582 230.089903 
L 189.278582 229.712276 
L 189.702666 229.712276 
L 189.702666 229.5864 
L 190.305149 229.5864 
L 190.305149 229.460524 
L 190.667153 229.460524 
L 190.667153 229.334648 
L 191.340184 229.334648 
L 191.416903 228.957021 
L 191.743277 228.957021 
L 191.743277 228.705269 
L 191.915552 228.705269 
L 191.915552 228.579393 
L 192.437618 228.579393 
L 192.546084 228.07589 
L 193.17012 228.07589 
L 193.17012 227.572386 
L 193.309105 227.572386 
L 193.309105 227.44651 
L 193.828077 227.44651 
L 193.881882 227.068883 
L 194.405103 227.068883 
L 194.431212 226.565379 
L 194.683894 226.565379 
L 194.683894 226.439503 
L 195.241878 226.439503 
L 195.27309 226.061876 
L 195.668098 226.061876 
L 195.668098 225.936 
L 195.892734 225.936 
L 195.983044 224.928993 
L 196.019047 224.928993 
L 196.043011 224.551366 
L 196.434068 224.551366 
L 196.480921 223.670234 
L 197.096617 223.670234 
L 197.192608 223.166731 
L 197.377559 223.166731 
L 197.47768 222.537352 
L 198.297237 222.537352 
L 198.297237 222.2856 
L 198.545212 222.2856 
L 198.545212 221.907972 
L 198.784786 221.907972 
L 198.784786 221.782097 
L 199.062187 221.782097 
L 199.062187 221.656221 
L 199.340582 221.656221 
L 199.340582 221.530345 
L 199.609965 221.530345 
L 199.708765 220.900966 
L 199.982677 220.900966 
L 200.079544 220.649214 
L 200.098858 220.649214 
L 200.19513 220.397462 
L 200.495207 220.397462 
L 200.575366 220.019834 
L 200.608274 220.019834 
L 200.678598 219.516331 
L 200.98954 219.516331 
L 200.98954 219.390455 
L 201.218282 219.390455 
L 201.236462 219.012828 
L 202.119421 219.012828 
L 202.145409 218.509324 
L 202.407611 218.509324 
L 202.407611 218.383448 
L 203.722256 218.383448 
L 203.817545 218.131697 
L 204.774925 218.131697 
L 204.774925 218.005821 
L 204.977081 218.005821 
L 204.977081 217.879945 
L 360.8064 217.879945 
L 360.8064 217.879945 
" style="fill: none; stroke: #00bfbf; stroke-width: 1.5; stroke-linecap: square"/>
   </g>
   <g id="line2d_31">
    <defs>
     <path id="mb92cee404d" d="M -6 0 
L 6 0 
M 0 6 
L 0 -6 
" style="stroke: #00bfbf; stroke-width: 1.5"/>
    </defs>
    <g>
     <use xlink:href="#mb92cee404d" x="126.993549" y="273.013572" style="fill-opacity: 0; stroke: #00bfbf; stroke-width: 1.5"/>
     <use xlink:href="#mb92cee404d" x="163.191653" y="249.474786" style="fill-opacity: 0; stroke: #00bfbf; stroke-width: 1.5"/>
     <use xlink:href="#mb92cee404d" x="202.407611" y="218.509324" style="fill-opacity: 0; stroke: #00bfbf; stroke-width: 1.5"/>
     <use xlink:href="#mb92cee404d" x="204.977081" y="217.879945" style="fill-opacity: 0; stroke: #00bfbf; stroke-width: 1.5"/>
     <use xlink:href="#mb92cee404d" x="204.977081" y="217.879945" style="fill-opacity: 0; stroke: #00bfbf; stroke-width: 1.5"/>
     <use xlink:href="#mb92cee404d" x="360.8064" y="217.879945" style="fill-opacity: 0; stroke: #00bfbf; stroke-width: 1.5"/>
    </g>
   </g>
   <g id="line2d_32">
    <path style="fill: none; stroke: #00bfbf; stroke-width: 1.5; stroke-linecap: square"/>
    <g/>
   </g>
   <g id="line2d_33">
    <path d="M 205.158657 217.879945 
" clip-path="url(#pf8a21102a2)" style="fill: none; stroke: #00bfbf; stroke-width: 1.5; stroke-linecap: square"/>
    <defs>
     <path id="mb6fc9557aa" d="M -12 12 
L 12 -12 
M -12 -12 
L 12 12 
" style="stroke: #00bfbf"/>
    </defs>
    <g clip-path="url(#pf8a21102a2)">
     <use xlink:href="#mb6fc9557aa" x="205.158657" y="217.879945" style="fill: #00bfbf; stroke: #00bfbf"/>
    </g>
   </g>
   <g id="line2d_34">
    <defs>
     <path id="m86f1842c01" d="M 0 1.5 
C 0.397805 1.5 0.77937 1.341951 1.06066 1.06066 
C 1.341951 0.77937 1.5 0.397805 1.5 0 
C 1.5 -0.397805 1.341951 -0.77937 1.06066 -1.06066 
C 0.77937 -1.341951 0.397805 -1.5 0 -1.5 
C -0.397805 -1.5 -0.77937 -1.341951 -1.06066 -1.06066 
C -1.341951 -0.77937 -1.5 -0.397805 -1.5 0 
C -1.5 0.397805 -1.341951 0.77937 -1.06066 1.06066 
C -0.77937 1.341951 -0.397805 1.5 0 1.5 
z
" style="stroke: #008000"/>
    </defs>
    <g>
     <use xlink:href="#m86f1842c01" x="197.263815" y="250.355917" style="fill: #008000; stroke: #008000"/>
     <use xlink:href="#m86f1842c01" x="197.263815" y="250.355917" style="fill: #008000; stroke: #008000"/>
    </g>
   </g>
   <g id="line2d_35">
    <path d="M 36.933397 298.944 
L 36.933397 292.650207 
L 70.639174 292.650207 
L 70.639174 292.524331 
L 76.050921 292.524331 
L 76.050921 292.398455 
L 78.266603 292.398455 
L 78.266603 292.272579 
L 80.248597 292.272579 
L 80.248597 292.020828 
L 83.678349 292.020828 
L 83.678349 291.6432 
L 86.578163 291.6432 
L 86.578163 291.517324 
L 89.090095 291.517324 
L 89.090095 291.265572 
L 94.205591 291.265572 
L 94.205591 290.636193 
L 95.916911 290.636193 
L 95.916911 290.384441 
L 97.485448 290.384441 
L 97.485448 290.258566 
L 100.277459 290.258566 
L 100.277459 289.629186 
L 102.12927 289.629186 
L 102.12927 289.50331 
L 104.344952 289.50331 
L 104.344952 289.377434 
L 104.860369 289.377434 
L 104.860369 289.251559 
L 105.850679 289.251559 
L 105.850679 288.999807 
L 108.542628 288.999807 
L 108.542628 288.873931 
L 110.897141 288.873931 
L 110.897141 288.748055 
L 113.638206 288.748055 
L 113.638206 288.496303 
L 114.265316 288.496303 
L 114.265316 288.244552 
L 117.121023 288.244552 
L 117.121023 287.866924 
L 117.6436 287.866924 
L 117.6436 287.741048 
L 117.899543 287.741048 
L 117.899543 287.489297 
L 118.401214 287.489297 
L 118.401214 287.237545 
L 120.28394 287.237545 
L 120.28394 286.734041 
L 121.789667 286.734041 
L 121.789667 286.48229 
L 122.399825 286.48229 
L 122.399825 286.230538 
L 123.183753 286.230538 
L 123.183753 285.85291 
L 124.3016 285.85291 
L 124.3016 285.475283 
L 124.836562 285.475283 
L 124.836562 285.349407 
L 125.011554 285.349407 
L 125.011554 284.720028 
L 126.028642 284.720028 
L 126.028642 284.594152 
L 126.192937 284.594152 
L 126.192937 284.468276 
L 126.355808 284.468276 
L 126.355808 284.216524 
L 126.993549 284.216524 
L 126.993549 283.713021 
L 127.149662 283.713021 
L 127.149662 283.587145 
L 127.304491 283.587145 
L 127.304491 283.335393 
L 128.060076 283.335393 
L 128.060076 283.209517 
L 128.354013 283.209517 
L 128.354013 282.957766 
L 129.348062 282.957766 
L 129.348062 282.83189 
L 129.622688 282.83189 
L 129.622688 282.706014 
L 129.758512 282.706014 
L 129.758512 282.580138 
L 130.4233 282.580138 
L 130.4233 282.454262 
L 131.808053 282.454262 
L 131.808053 282.076634 
L 132.168669 282.076634 
L 132.168669 281.699007 
L 132.522502 281.699007 
L 132.522502 280.943752 
L 132.754746 280.943752 
L 132.754746 280.817876 
L 133.983236 280.817876 
L 133.983236 280.692 
L 134.620977 280.692 
L 134.620977 280.566124 
L 134.931919 280.566124 
L 134.931919 280.440248 
L 135.538796 280.440248 
L 135.538796 280.314372 
L 136.790153 280.314372 
L 136.790153 280.188497 
L 136.97549 280.188497 
L 137.067478 279.810869 
L 137.787626 279.810869 
L 137.875736 279.559117 
L 138.137618 279.559117 
L 138.137618 278.55211 
L 138.310202 278.55211 
L 138.310202 278.174483 
L 138.566146 278.174483 
L 138.650692 277.419228 
L 139.556456 277.419228 
L 139.556456 276.789848 
L 139.875304 276.789848 
L 139.875304 276.663972 
L 140.26641 276.663972 
L 140.26641 276.412221 
L 140.875745 276.412221 
L 140.875745 276.286345 
L 141.246793 276.286345 
L 141.246793 276.160469 
L 142.593581 276.160469 
L 142.593581 276.034593 
L 143.066428 276.034593 
L 143.066428 275.908717 
L 143.52768 275.908717 
L 143.592659 275.656966 
L 144.355394 275.656966 
L 144.355394 275.53109 
L 144.541342 275.53109 
L 144.541342 275.405214 
L 144.847227 275.405214 
L 144.847227 275.279338 
L 145.503164 275.279338 
L 145.503164 275.027586 
L 145.736128 275.027586 
L 145.79392 274.775834 
L 146.080251 274.775834 
L 146.080251 274.649959 
L 146.695245 274.649959 
L 146.695245 274.524083 
L 146.968277 274.524083 
L 147.022411 274.020579 
L 147.343984 274.020579 
L 147.343984 273.768828 
L 149.214052 273.768828 
L 149.214052 273.517076 
L 150.060715 273.517076 
L 150.060715 273.3912 
L 150.379949 273.3912 
L 150.379949 273.265324 
L 150.515122 273.265324 
L 150.515122 273.139448 
L 150.78259 273.139448 
L 150.78259 273.013572 
L 150.958812 273.013572 
L 151.00261 272.761821 
L 151.133398 272.761821 
L 151.133398 272.635945 
L 151.435079 272.635945 
L 151.435079 272.384193 
L 152.515067 272.384193 
L 152.555392 272.132441 
L 154.359307 272.132441 
L 154.359307 272.006566 
L 154.86483 272.006566 
L 154.86483 271.88069 
L 155.077392 271.88069 
L 155.112587 271.377186 
L 155.564225 271.377186 
L 155.564225 271.125434 
L 156.304668 271.125434 
L 156.304668 270.999559 
L 156.728884 270.999559 
L 156.728884 270.873683 
L 156.88953 270.873683 
L 156.88953 270.621931 
L 157.175281 270.621931 
L 157.175281 270.496055 
L 157.363398 270.496055 
L 157.363398 270.244303 
L 158.395258 270.244303 
L 158.395258 270.118428 
L 159.090988 270.118428 
L 159.090988 269.992552 
L 159.816746 269.992552 
L 159.871431 269.489048 
L 160.223059 269.489048 
L 160.329943 268.985545 
L 160.4627 268.985545 
L 160.515541 268.733793 
L 160.855439 268.733793 
L 160.855439 268.607917 
L 161.138325 268.607917 
L 161.138325 268.482041 
L 162.205054 268.482041 
L 162.205054 268.23029 
L 162.444694 268.23029 
L 162.444694 268.104414 
L 162.610645 268.104414 
L 162.610645 267.726786 
L 163.282972 267.726786 
L 163.282972 267.60091 
L 163.419123 267.60091 
L 163.419123 267.475034 
L 163.688506 267.475034 
L 163.688506 267.349159 
L 164.041785 267.349159 
L 164.041785 267.097407 
L 164.259262 267.097407 
L 164.259262 266.971531 
L 164.834193 266.971531 
L 164.834193 266.845655 
L 165.187374 266.845655 
L 165.187374 266.593903 
L 165.854592 266.593903 
L 165.854592 266.468028 
L 166.012839 266.468028 
L 166.012839 266.0904 
L 166.344759 266.0904 
L 166.344759 265.838648 
L 166.575579 265.838648 
L 166.575579 265.712772 
L 166.954094 265.712772 
L 166.954094 265.461021 
L 167.066179 265.461021 
L 167.066179 265.209269 
L 167.251516 265.209269 
L 167.251516 265.083393 
L 167.489756 265.083393 
L 167.489756 264.957517 
L 168.344164 264.957517 
L 168.344164 264.831641 
L 168.569041 264.831641 
L 168.569041 264.705766 
L 168.859111 264.705766 
L 168.859111 264.57989 
L 169.294273 264.57989 
L 169.294273 264.202262 
L 169.524487 264.202262 
L 169.557146 263.698759 
L 170.103845 263.698759 
L 170.103845 263.447007 
L 170.27737 263.447007 
L 170.27737 263.321131 
L 170.542436 263.321131 
L 170.573376 262.943503 
L 171.698355 262.943503 
L 171.756506 262.691752 
L 172.28604 262.691752 
L 172.384567 262.314124 
L 173.659955 262.314124 
L 173.659955 262.188248 
L 173.881654 262.188248 
L 173.881654 262.062372 
L 174.164733 262.062372 
L 174.164733 261.810621 
L 174.903518 261.810621 
L 174.903518 261.684745 
L 175.062472 261.684745 
L 175.062472 261.432993 
L 175.304425 261.432993 
L 175.304425 261.307117 
L 175.448117 261.307117 
L 175.448117 260.92949 
L 175.861055 260.92949 
L 175.861055 260.803614 
L 176.069946 260.803614 
L 176.069946 260.677738 
L 176.838794 260.677738 
L 176.838794 260.551862 
L 177.341632 260.551862 
L 177.384728 260.30011 
L 177.577449 260.30011 
L 177.577449 260.048359 
L 177.998778 260.048359 
L 177.998778 259.796607 
L 178.410877 259.796607 
L 178.410877 259.544855 
L 178.542888 259.544855 
L 178.542888 259.418979 
L 178.992827 259.418979 
L 178.992827 259.293103 
L 179.247969 259.293103 
L 179.247969 259.167228 
L 180.105353 259.167228 
L 180.105353 259.041352 
L 180.23528 259.041352 
L 180.23528 258.915476 
L 180.455946 258.915476 
L 180.556226 258.663724 
L 180.898592 258.663724 
L 180.898592 258.537848 
L 181.269884 258.537848 
L 181.374636 258.034345 
L 181.444147 258.034345 
L 181.522042 257.530841 
L 181.745276 257.530841 
L 181.745276 257.404966 
L 181.864391 257.404966 
L 181.864391 256.901462 
L 182.267151 256.901462 
L 182.283747 256.397959 
L 182.571832 256.397959 
L 182.571832 256.146207 
L 183.135094 256.146207 
L 183.135094 256.020331 
L 183.457339 256.020331 
L 183.558372 255.642703 
L 184.063102 255.642703 
L 184.063102 255.516828 
L 184.317924 255.516828 
L 184.332807 255.265076 
L 184.620688 255.265076 
L 184.730249 254.635697 
L 185.472812 254.635697 
L 185.472812 254.509821 
L 185.785246 254.509821 
L 185.785246 254.383945 
L 186.267881 254.383945 
L 186.267881 254.132193 
L 186.784206 254.132193 
L 186.784206 254.006317 
L 187.875036 254.006317 
L 187.942692 253.62869 
L 188.216963 253.62869 
L 188.216963 253.502814 
L 189.423846 253.502814 
L 189.423846 252.99931 
L 189.660685 252.99931 
L 189.660685 252.873434 
L 190.185641 252.873434 
L 190.185641 252.747559 
L 190.396979 252.747559 
L 190.461531 252.495807 
L 190.701648 252.495807 
L 190.765164 252.244055 
L 190.875805 252.244055 
L 190.928264 251.740552 
L 191.011894 251.740552 
L 191.011894 251.614676 
L 194.300303 251.614676 
L 194.300303 251.4888 
L 194.703191 251.4888 
L 194.703191 251.237048 
L 195.467515 251.237048 
L 195.467515 251.111172 
L 196.027038 251.111172 
L 196.07093 250.733545 
L 196.225726 250.733545 
L 196.225726 250.607669 
L 196.643995 250.607669 
L 196.643995 250.481793 
L 197.263815 250.481793 
L 197.263815 250.355917 
L 360.8064 250.355917 
L 360.8064 250.355917 
" style="fill: none; stroke: #008000; stroke-width: 1.5; stroke-linecap: square"/>
   </g>
   <g id="line2d_36">
    <defs>
     <path id="ma69dd806a0" d="M -0 6 
L 6 -6 
L -6 -6 
z
" style="stroke: #008000; stroke-width: 1.5; stroke-linejoin: miter"/>
    </defs>
    <g>
     <use xlink:href="#ma69dd806a0" x="89.090095" y="291.517324" style="fill-opacity: 0; stroke: #008000; stroke-width: 1.5; stroke-linejoin: miter"/>
     <use xlink:href="#ma69dd806a0" x="167.251516" y="265.209269" style="fill-opacity: 0; stroke: #008000; stroke-width: 1.5; stroke-linejoin: miter"/>
     <use xlink:href="#ma69dd806a0" x="197.263815" y="250.481793" style="fill-opacity: 0; stroke: #008000; stroke-width: 1.5; stroke-linejoin: miter"/>
     <use xlink:href="#ma69dd806a0" x="197.263815" y="250.355917" style="fill-opacity: 0; stroke: #008000; stroke-width: 1.5; stroke-linejoin: miter"/>
     <use xlink:href="#ma69dd806a0" x="197.263815" y="250.355917" style="fill-opacity: 0; stroke: #008000; stroke-width: 1.5; stroke-linejoin: miter"/>
     <use xlink:href="#ma69dd806a0" x="360.8064" y="250.355917" style="fill-opacity: 0; stroke: #008000; stroke-width: 1.5; stroke-linejoin: miter"/>
    </g>
   </g>
   <g id="line2d_37">
    <path style="fill: none; stroke: #008000; stroke-width: 1.5; stroke-linecap: square"/>
    <g/>
   </g>
   <g id="line2d_38">
    <path d="M 197.531229 250.355917 
" clip-path="url(#pf8a21102a2)" style="fill: none; stroke: #008000; stroke-width: 1.5; stroke-linecap: square"/>
    <defs>
     <path id="m587b2b12fc" d="M -12 12 
L 12 -12 
M -12 -12 
L 12 12 
" style="stroke: #008000"/>
    </defs>
    <g clip-path="url(#pf8a21102a2)">
     <use xlink:href="#m587b2b12fc" x="197.531229" y="250.355917" style="fill: #008000; stroke: #008000"/>
    </g>
   </g>
   <g id="line2d_39">
    <defs>
     <path id="m09fddce7b5" d="M 0 1.5 
C 0.397805 1.5 0.77937 1.341951 1.06066 1.06066 
C 1.341951 0.77937 1.5 0.397805 1.5 0 
C 1.5 -0.397805 1.341951 -0.77937 1.06066 -1.06066 
C 0.77937 -1.341951 0.397805 -1.5 0 -1.5 
C -0.397805 -1.5 -0.77937 -1.341951 -1.06066 -1.06066 
C -1.341951 -0.77937 -1.5 -0.397805 -1.5 0 
C -1.5 0.397805 -1.341951 0.77937 -1.06066 1.06066 
C -0.77937 1.341951 -0.397805 1.5 0 1.5 
z
" style="stroke: #0000ff"/>
    </defs>
    <g>
     <use xlink:href="#m09fddce7b5" x="187.242181" y="269.111421" style="fill: #0000ff; stroke: #0000ff"/>
     <use xlink:href="#m09fddce7b5" x="187.242181" y="269.111421" style="fill: #0000ff; stroke: #0000ff"/>
    </g>
   </g>
   <g id="line2d_40">
    <path d="M 27.323974 298.944 
L 27.323974 292.901959 
L 57.6 292.901959 
L 57.6 292.650207 
L 63.929565 292.650207 
L 63.929565 292.524331 
L 75.574654 292.524331 
L 75.574654 292.398455 
L 87.876026 292.398455 
L 87.876026 292.272579 
L 94.205591 292.272579 
L 94.205591 292.146703 
L 94.735529 292.146703 
L 94.735529 292.020828 
L 97.18203 292.020828 
L 97.18203 291.894952 
L 100.9152 291.894952 
L 100.9152 291.769076 
L 107.774703 291.769076 
L 107.774703 291.6432 
L 108.542628 291.6432 
L 108.542628 291.517324 
L 111.334639 291.517324 
L 111.334639 291.391448 
L 114.510421 291.391448 
L 114.510421 291.265572 
L 115.227139 291.265572 
L 115.227139 291.139697 
L 116.086263 291.139697 
L 116.086263 290.887945 
L 117.226706 290.887945 
L 117.226706 290.762069 
L 119.876453 290.762069 
L 119.876453 290.636193 
L 123.260379 290.636193 
L 123.260379 290.510317 
L 123.713691 290.510317 
L 123.713691 290.384441 
L 124.156336 290.384441 
L 124.156336 290.258566 
L 124.481616 290.258566 
L 124.481616 290.13269 
L 127.458055 290.13269 
L 127.458055 290.006814 
L 127.911368 290.006814 
L 127.911368 289.880938 
L 128.089678 289.880938 
L 128.178203 289.377434 
L 129.041269 289.377434 
L 129.041269 289.125683 
L 130.964122 289.125683 
L 130.964122 288.999807 
L 131.266322 288.999807 
L 131.266322 288.873931 
L 131.63737 288.873931 
L 131.63737 288.748055 
L 135.237805 288.748055 
L 135.237805 288.370428 
L 135.35878 288.370428 
L 135.35878 288.244552 
L 136.696795 288.244552 
L 136.696795 288.118676 
L 138.258593 288.118676 
L 138.258593 287.9928 
L 140.126547 287.9928 
L 140.173284 287.489297 
L 140.58877 287.489297 
L 140.58877 287.363421 
L 141.739954 287.363421 
L 141.739954 287.237545 
L 142.122575 287.237545 
L 142.122575 287.111669 
L 142.620923 287.111669 
L 142.620923 286.985793 
L 143.225848 286.985793 
L 143.225848 286.734041 
L 143.965177 286.734041 
L 143.965177 286.608166 
L 144.565997 286.608166 
L 144.565997 286.48229 
L 144.71325 286.48229 
L 144.71325 286.230538 
L 144.931992 286.230538 
L 144.931992 286.104662 
L 145.643288 286.104662 
L 145.643288 285.85291 
L 147.785146 285.85291 
L 147.785146 285.475283 
L 148.001907 285.475283 
L 148.001907 285.349407 
L 149.79204 285.349407 
L 149.79204 284.971779 
L 150.179921 284.971779 
L 150.179921 284.845903 
L 150.506141 284.845903 
L 150.506141 284.720028 
L 150.985103 284.720028 
L 151.037576 284.468276 
L 151.426526 284.468276 
L 151.426526 284.3424 
L 152.279463 284.3424 
L 152.279463 284.216524 
L 153.189104 284.216524 
L 153.189104 284.090648 
L 153.375128 284.090648 
L 153.375128 283.964772 
L 153.967309 283.964772 
L 153.967309 283.713021 
L 154.234459 283.713021 
L 154.234459 283.209517 
L 154.366625 283.209517 
L 154.366625 283.083641 
L 154.971412 283.083641 
L 154.971412 282.957766 
L 155.391799 282.957766 
L 155.391799 282.83189 
L 155.598521 282.83189 
L 155.598521 282.706014 
L 155.884169 282.706014 
L 155.884169 282.454262 
L 156.105602 282.454262 
L 156.105602 282.328386 
L 156.403417 282.328386 
L 156.403417 282.20251 
L 156.8511 282.20251 
L 156.8511 282.076634 
L 157.325925 282.076634 
L 157.325925 281.950759 
L 157.53111 281.950759 
L 157.53111 281.824883 
L 157.660526 281.824883 
L 157.660526 281.699007 
L 158.2053 281.699007 
L 158.2053 281.573131 
L 158.365703 281.573131 
L 158.365703 281.447255 
L 158.682463 281.447255 
L 158.682463 281.321379 
L 159.14782 281.321379 
L 159.14782 281.195503 
L 159.418251 281.195503 
L 159.468527 280.817876 
L 159.618554 280.817876 
L 159.618554 280.692 
L 160.142495 280.692 
L 160.142495 280.440248 
L 160.933013 280.440248 
L 161.041081 280.188497 
L 161.117894 280.188497 
L 161.117894 279.810869 
L 161.97209 279.810869 
L 161.97209 279.684993 
L 162.262846 279.684993 
L 162.363559 279.433241 
L 162.377902 279.433241 
L 162.377902 279.307366 
L 162.789177 279.307366 
L 162.789177 278.929738 
L 162.956765 278.929738 
L 163.067666 278.677986 
L 163.773012 278.677986 
L 163.773012 278.55211 
L 163.932096 278.55211 
L 163.932096 278.426234 
L 164.336942 278.426234 
L 164.336942 278.300359 
L 164.682588 278.300359 
L 164.682588 278.174483 
L 164.984586 278.174483 
L 164.984586 278.048607 
L 165.257222 278.048607 
L 165.257222 277.922731 
L 166.344759 277.922731 
L 166.344759 277.796855 
L 166.678531 277.796855 
L 166.678531 277.670979 
L 167.051272 277.670979 
L 167.051272 277.545103 
L 167.656552 277.545103 
L 167.678199 277.293352 
L 168.295375 277.293352 
L 168.3163 276.915724 
L 168.451748 276.915724 
L 168.451748 276.789848 
L 168.852337 276.789848 
L 168.923343 276.412221 
L 168.983993 276.412221 
L 169.024318 276.160469 
L 169.511408 276.160469 
L 169.511408 276.034593 
L 170.355719 276.034593 
L 170.411929 275.782841 
L 170.708911 275.782841 
L 170.708911 275.656966 
L 171.449192 275.656966 
L 171.537509 275.405214 
L 171.921254 275.405214 
L 171.921254 275.279338 
L 172.591198 275.279338 
L 172.591198 275.153462 
L 172.864133 275.153462 
L 172.864133 275.027586 
L 173.987664 275.027586 
L 174.026299 274.775834 
L 174.279322 274.775834 
L 174.294547 274.524083 
L 175.273147 274.524083 
L 175.359637 274.272331 
L 175.567027 274.272331 
L 175.567027 273.894703 
L 176.14826 273.894703 
L 176.14826 273.768828 
L 176.285672 273.768828 
L 176.360823 273.3912 
L 176.792206 273.3912 
L 176.792206 273.265324 
L 177.369655 273.265324 
L 177.447043 272.887697 
L 177.568925 272.887697 
L 177.568925 272.635945 
L 178.166767 272.635945 
L 178.191527 272.384193 
L 178.467857 272.384193 
L 178.467857 272.258317 
L 179.983897 272.258317 
L 179.983897 272.132441 
L 180.151859 272.132441 
L 180.151859 272.006566 
L 180.428504 272.006566 
L 180.538033 271.628938 
L 180.722781 271.628938 
L 180.722781 271.503062 
L 181.213777 271.503062 
L 181.213777 271.377186 
L 181.568624 271.377186 
L 181.568624 271.25131 
L 181.789607 271.25131 
L 181.855908 270.999559 
L 182.173942 270.999559 
L 182.173942 270.873683 
L 182.358249 270.873683 
L 182.358249 270.747807 
L 182.977474 270.747807 
L 182.977474 270.621931 
L 183.333809 270.621931 
L 183.333809 270.496055 
L 183.446426 270.496055 
L 183.446426 270.370179 
L 183.711218 270.370179 
L 183.711218 270.244303 
L 184.090247 270.244303 
L 184.090247 270.118428 
L 184.554643 270.118428 
L 184.554643 269.992552 
L 184.873899 269.992552 
L 184.873899 269.866676 
L 185.597018 269.866676 
L 185.597018 269.7408 
L 185.907413 269.7408 
L 185.907413 269.614924 
L 186.127768 269.614924 
L 186.127768 269.489048 
L 186.659734 269.489048 
L 186.659734 269.363172 
L 186.929901 269.363172 
L 186.929901 269.237297 
L 187.242181 269.237297 
L 187.242181 269.111421 
L 360.8064 269.111421 
L 360.8064 269.111421 
" style="fill: none; stroke: #0000ff; stroke-width: 1.5; stroke-linecap: square"/>
   </g>
   <g id="line2d_41">
    <defs>
     <path id="m3cb7dc1707" d="M 0 -6 
L -1.347084 -1.854102 
L -5.706339 -1.854102 
L -2.179628 0.708204 
L -3.526712 4.854102 
L -0 2.291796 
L 3.526712 4.854102 
L 2.179628 0.708204 
L 5.706339 -1.854102 
L 1.347084 -1.854102 
z
" style="stroke: #0000ff; stroke-width: 1.5; stroke-linejoin: bevel"/>
    </defs>
    <g>
     <use xlink:href="#m3cb7dc1707" x="143.225848" y="286.985793" style="fill-opacity: 0; stroke: #0000ff; stroke-width: 1.5; stroke-linejoin: bevel"/>
     <use xlink:href="#m3cb7dc1707" x="187.242181" y="269.237297" style="fill-opacity: 0; stroke: #0000ff; stroke-width: 1.5; stroke-linejoin: bevel"/>
     <use xlink:href="#m3cb7dc1707" x="187.242181" y="269.111421" style="fill-opacity: 0; stroke: #0000ff; stroke-width: 1.5; stroke-linejoin: bevel"/>
     <use xlink:href="#m3cb7dc1707" x="187.242181" y="269.111421" style="fill-opacity: 0; stroke: #0000ff; stroke-width: 1.5; stroke-linejoin: bevel"/>
     <use xlink:href="#m3cb7dc1707" x="360.8064" y="269.111421" style="fill-opacity: 0; stroke: #0000ff; stroke-width: 1.5; stroke-linejoin: bevel"/>
    </g>
   </g>
   <g id="line2d_42">
    <path style="fill: none; stroke: #0000ff; stroke-width: 1.5; stroke-linecap: square"/>
    <g/>
   </g>
   <g id="line2d_43">
    <path d="M 187.921806 269.111421 
" clip-path="url(#pf8a21102a2)" style="fill: none; stroke: #0000ff; stroke-width: 1.5; stroke-linecap: square"/>
    <defs>
     <path id="m06320bbd49" d="M -12 12 
L 12 -12 
M -12 -12 
L 12 12 
" style="stroke: #0000ff"/>
    </defs>
    <g clip-path="url(#pf8a21102a2)">
     <use xlink:href="#m06320bbd49" x="187.921806" y="269.111421" style="fill: #0000ff; stroke: #0000ff"/>
    </g>
   </g>
   <g id="line2d_44">
    <defs>
     <path id="ma00a68994e" d="M 0 1.5 
C 0.397805 1.5 0.77937 1.341951 1.06066 1.06066 
C 1.341951 0.77937 1.5 0.397805 1.5 0 
C 1.5 -0.397805 1.341951 -0.77937 1.06066 -1.06066 
C 0.77937 -1.341951 0.397805 -1.5 0 -1.5 
C -0.397805 -1.5 -0.77937 -1.341951 -1.06066 -1.06066 
C -1.341951 -0.77937 -1.5 -0.397805 -1.5 0 
C -1.5 0.397805 -1.341951 0.77937 -1.06066 1.06066 
C -0.77937 1.341951 -0.397805 1.5 0 1.5 
z
" style="stroke: #000000"/>
    </defs>
    <g>
     <use xlink:href="#ma00a68994e" x="173.362455" y="286.608166" style="stroke: #000000"/>
     <use xlink:href="#ma00a68994e" x="173.362455" y="286.608166" style="stroke: #000000"/>
    </g>
   </g>
   <g id="line2d_45">
    <path d="M 14.2848 298.944 
L 14.2848 290.13269 
L 131.153565 290.13269 
L 131.153565 290.006814 
L 146.27812 290.006814 
L 146.27812 289.880938 
L 147.924778 289.880938 
L 147.924778 289.629186 
L 153.095398 289.629186 
L 153.095398 289.50331 
L 153.866141 289.50331 
L 153.866141 289.377434 
L 154.366625 289.377434 
L 154.366625 289.251559 
L 155.391799 289.251559 
L 155.391799 289.125683 
L 155.464411 289.125683 
L 155.464411 288.999807 
L 159.742668 288.999807 
L 159.742668 288.873931 
L 162.79619 288.873931 
L 162.79619 288.748055 
L 163.005365 288.748055 
L 163.005365 288.622179 
L 163.96507 288.622179 
L 163.96507 288.496303 
L 166.163906 288.496303 
L 166.163906 288.370428 
L 167.613182 288.370428 
L 167.613182 288.244552 
L 167.94671 288.244552 
L 167.94671 288.118676 
L 168.973898 288.118676 
L 168.973898 287.9928 
L 169.074603 287.9928 
L 169.074603 287.866924 
L 169.496683 287.866924 
L 169.496683 287.741048 
L 170.9104 287.741048 
L 170.9104 287.615172 
L 171.289169 287.615172 
L 171.289169 287.489297 
L 171.699811 287.489297 
L 171.699811 287.363421 
L 172.114503 287.363421 
L 172.114503 287.237545 
L 172.127316 287.237545 
L 172.127316 287.111669 
L 172.186995 287.111669 
L 172.186995 286.985793 
L 172.335368 286.985793 
L 172.335368 286.859917 
L 173.173594 286.859917 
L 173.173594 286.734041 
L 173.362455 286.734041 
L 173.362455 286.608166 
L 360.8064 286.608166 
" style="fill: none; stroke: #000000; stroke-width: 1.5; stroke-linecap: square"/>
   </g>
   <g id="line2d_46">
    <defs>
     <path id="mfe443767e9" d="M 0 6 
C 1.591219 6 3.117479 5.367802 4.242641 4.242641 
C 5.367802 3.117479 6 1.591219 6 0 
C 6 -1.591219 5.367802 -3.117479 4.242641 -4.242641 
C 3.117479 -5.367802 1.591219 -6 0 -6 
C -1.591219 -6 -3.117479 -5.367802 -4.242641 -4.242641 
C -5.367802 -3.117479 -6 -1.591219 -6 0 
C -6 1.591219 -5.367802 3.117479 -4.242641 4.242641 
C -3.117479 5.367802 -1.591219 6 0 6 
z
" style="stroke: #000000; stroke-width: 1.5"/>
    </defs>
    <g>
     <use xlink:href="#mfe443767e9" x="173.362455" y="286.734041" style="fill-opacity: 0; stroke: #000000; stroke-width: 1.5"/>
     <use xlink:href="#mfe443767e9" x="173.362455" y="286.734041" style="fill-opacity: 0; stroke: #000000; stroke-width: 1.5"/>
     <use xlink:href="#mfe443767e9" x="173.362455" y="286.608166" style="fill-opacity: 0; stroke: #000000; stroke-width: 1.5"/>
     <use xlink:href="#mfe443767e9" x="173.362455" y="286.608166" style="fill-opacity: 0; stroke: #000000; stroke-width: 1.5"/>
     <use xlink:href="#mfe443767e9" x="360.8064" y="286.608166" style="fill-opacity: 0; stroke: #000000; stroke-width: 1.5"/>
    </g>
   </g>
   <g id="line2d_47">
    <path style="fill: none; stroke: #000000; stroke-width: 1.5; stroke-linecap: square"/>
    <g/>
   </g>
   <g id="line2d_48">
    <path d="M 174.882632 286.608166 
" clip-path="url(#pf8a21102a2)" style="fill: none; stroke: #000000; stroke-width: 1.5; stroke-linecap: square"/>
    <defs>
     <path id="m85b3e0b457" d="M -12 12 
L 12 -12 
M -12 -12 
L 12 12 
" style="stroke: #000000"/>
    </defs>
    <g clip-path="url(#pf8a21102a2)">
     <use xlink:href="#m85b3e0b457" x="174.882632" y="286.608166" style="stroke: #000000"/>
    </g>
   </g>
   <g id="line2d_49">
    <defs>
     <path id="meda48b0486" d="M 0 1.5 
C 0.397805 1.5 0.77937 1.341951 1.06066 1.06066 
C 1.341951 0.77937 1.5 0.397805 1.5 0 
C 1.5 -0.397805 1.341951 -0.77937 1.06066 -1.06066 
C 0.77937 -1.341951 0.397805 -1.5 0 -1.5 
C -0.397805 -1.5 -0.77937 -1.341951 -1.06066 -1.06066 
C -1.341951 -0.77937 -1.5 -0.397805 -1.5 0 
C -1.5 0.397805 -1.341951 0.77937 -1.06066 1.06066 
C -0.77937 1.341951 -0.397805 1.5 0 1.5 
z
" style="stroke: #ff0000"/>
    </defs>
    <g>
     <use xlink:href="#meda48b0486" x="1.245626" y="288.873931" style="fill: #ff0000; stroke: #ff0000"/>
     <use xlink:href="#meda48b0486" x="1.245626" y="288.873931" style="fill: #ff0000; stroke: #ff0000"/>
    </g>
   </g>
   <g id="line2d_50">
    <path d="M 1.245626 298.944 
L 1.245626 288.873931 
L 360.8064 288.873931 
" style="fill: none; stroke: #ff0000; stroke-width: 1.5; stroke-linecap: square"/>
   </g>
   <g id="line2d_51">
    <defs>
     <path id="m94bc728c98" d="M -6 6 
L 6 6 
L 6 -6 
L -6 -6 
z
" style="stroke: #ff0000; stroke-width: 1.5; stroke-linejoin: miter"/>
    </defs>
    <g>
     <use xlink:href="#m94bc728c98" x="360.8064" y="288.873931" style="fill-opacity: 0; stroke: #ff0000; stroke-width: 1.5; stroke-linejoin: miter"/>
    </g>
   </g>
   <g id="line2d_52">
    <path style="fill: none; stroke: #ff0000; stroke-width: 1.5; stroke-linecap: square"/>
    <g/>
   </g>
   <g id="line2d_53">
    <path d="M 161.843457 288.873931 
" clip-path="url(#pf8a21102a2)" style="fill: none; stroke: #ff0000; stroke-width: 1.5; stroke-linecap: square"/>
    <defs>
     <path id="m51090d1d92" d="M -12 12 
L 12 -12 
M -12 -12 
L 12 12 
" style="stroke: #ff0000"/>
    </defs>
    <g clip-path="url(#pf8a21102a2)">
     <use xlink:href="#m51090d1d92" x="161.843457" y="288.873931" style="fill: #ff0000; stroke: #ff0000"/>
    </g>
   </g>
   <g id="line2d_54">
    <defs>
     <path id="m9ae1ae8cc3" d="M 0 1.5 
C 0.397805 1.5 0.77937 1.341951 1.06066 1.06066 
C 1.341951 0.77937 1.5 0.397805 1.5 0 
C 1.5 -0.397805 1.341951 -0.77937 1.06066 -1.06066 
C 0.77937 -1.341951 0.397805 -1.5 0 -1.5 
C -0.397805 -1.5 -0.77937 -1.341951 -1.06066 -1.06066 
C -1.341951 -0.77937 -1.5 -0.397805 -1.5 0 
C -1.5 0.397805 -1.341951 0.77937 -1.06066 1.06066 
C -0.77937 1.341951 -0.397805 1.5 0 1.5 
z
" style="stroke: #bf00bf"/>
    </defs>
    <g/>
   </g>
   <g id="line2d_55">
    <path d="M -1 287.615172 
L 360.8064 287.615172 
" style="fill: none; stroke: #bf00bf; stroke-width: 1.5; stroke-linecap: square"/>
   </g>
   <g id="line2d_56">
    <defs>
     <path id="m9f50ed732b" d="M 0 8.485281 
L 8.485281 0 
L 0 -8.485281 
L -8.485281 0 
z
" style="stroke: #bf00bf; stroke-width: 1.5; stroke-linejoin: miter"/>
    </defs>
    <g>
     <use xlink:href="#m9f50ed732b" x="360.8064" y="287.615172" style="fill-opacity: 0; stroke: #bf00bf; stroke-width: 1.5; stroke-linejoin: miter"/>
    </g>
   </g>
   <g id="line2d_57">
    <path style="fill: none; stroke: #bf00bf; stroke-width: 1.5; stroke-linecap: square"/>
    <g/>
   </g>
   <g id="line2d_58">
    <path d="M 148.804283 287.615172 
" clip-path="url(#pf8a21102a2)" style="fill: none; stroke: #bf00bf; stroke-width: 1.5; stroke-linecap: square"/>
    <defs>
     <path id="mabe01bb154" d="M -12 12 
L 12 -12 
M -12 -12 
L 12 12 
" style="stroke: #bf00bf"/>
    </defs>
    <g clip-path="url(#pf8a21102a2)">
     <use xlink:href="#mabe01bb154" x="148.804283" y="287.615172" style="fill: #bf00bf; stroke: #bf00bf"/>
    </g>
   </g>
   <g id="line2d_59">
    <path d="M 360.8064 288.873931 
L 380.514816 293.10336 
" style="fill: none; stroke: #ff0000; stroke-width: 1.5; stroke-linecap: square"/>
    <g>
     <use xlink:href="#m94bc728c98" x="360.8064" y="288.873931" style="fill-opacity: 0; stroke: #ff0000; stroke-width: 1.5; stroke-linejoin: miter"/>
     <use xlink:href="#m94bc728c98" x="380.514816" y="293.10336" style="fill-opacity: 0; stroke: #ff0000; stroke-width: 1.5; stroke-linejoin: miter"/>
    </g>
   </g>
   <g id="line2d_60">
    <path d="M 360.8064 287.615172 
L 380.514816 237.033216 
" style="fill: none; stroke: #bf00bf; stroke-width: 1.5; stroke-linecap: square"/>
    <g>
     <use xlink:href="#m9f50ed732b" x="360.8064" y="287.615172" style="fill-opacity: 0; stroke: #bf00bf; stroke-width: 1.5; stroke-linejoin: miter"/>
     <use xlink:href="#m9f50ed732b" x="380.514816" y="237.033216" style="fill-opacity: 0; stroke: #bf00bf; stroke-width: 1.5; stroke-linejoin: miter"/>
    </g>
   </g>
   <g id="line2d_61">
    <path d="M 360.8064 286.608166 
L 380.514816 180.963072 
" style="fill: none; stroke: #000000; stroke-width: 1.5; stroke-linecap: square"/>
    <g>
     <use xlink:href="#mfe443767e9" x="360.8064" y="286.608166" style="fill-opacity: 0; stroke: #000000; stroke-width: 1.5"/>
     <use xlink:href="#mfe443767e9" x="380.514816" y="180.963072" style="fill-opacity: 0; stroke: #000000; stroke-width: 1.5"/>
    </g>
   </g>
   <g id="line2d_62">
    <path d="M 360.8064 269.111421 
L 380.514816 124.892928 
" style="fill: none; stroke: #0000ff; stroke-width: 1.5; stroke-linecap: square"/>
    <g>
     <use xlink:href="#m3cb7dc1707" x="360.8064" y="269.111421" style="fill-opacity: 0; stroke: #0000ff; stroke-width: 1.5; stroke-linejoin: bevel"/>
     <use xlink:href="#m3cb7dc1707" x="380.514816" y="124.892928" style="fill-opacity: 0; stroke: #0000ff; stroke-width: 1.5; stroke-linejoin: bevel"/>
    </g>
   </g>
   <g id="line2d_63">
    <path d="M 360.8064 250.355917 
L 380.514816 68.822784 
" style="fill: none; stroke: #008000; stroke-width: 1.5; stroke-linecap: square"/>
    <g>
     <use xlink:href="#ma69dd806a0" x="360.8064" y="250.355917" style="fill-opacity: 0; stroke: #008000; stroke-width: 1.5; stroke-linejoin: miter"/>
     <use xlink:href="#ma69dd806a0" x="380.514816" y="68.822784" style="fill-opacity: 0; stroke: #008000; stroke-width: 1.5; stroke-linejoin: miter"/>
    </g>
   </g>
   <g id="line2d_64">
    <path d="M 360.8064 217.879945 
L 380.514816 12.75264 
" style="fill: none; stroke: #00bfbf; stroke-width: 1.5; stroke-linecap: square"/>
    <g>
     <use xlink:href="#mb92cee404d" x="360.8064" y="217.879945" style="fill-opacity: 0; stroke: #00bfbf; stroke-width: 1.5"/>
     <use xlink:href="#mb92cee404d" x="380.514816" y="12.75264" style="fill-opacity: 0; stroke: #00bfbf; stroke-width: 1.5"/>
    </g>
   </g>
   <g id="line2d_65">
    <path d="M 360.8064 298.944 
L 360.8064 6.912 
" style="fill: none; stroke: #000000; stroke-width: 1.5; stroke-linecap: square"/>
   </g>
   <g id="patch_3">
    <path d="M 57.6 298.944 
L 360.8064 298.944 
" style="fill: none; stroke: #000000; stroke-width: 0.8; stroke-linejoin: miter; stroke-linecap: square"/>
   </g>
   <g id="patch_4">
    <path d="M 57.6 6.912 
L 360.8064 6.912 
" style="fill: none; stroke: #000000; stroke-width: 0.8; stroke-linejoin: miter; stroke-linecap: square"/>
   </g>
   <g id="text_13">
    <!-- 20-D -->
    <g transform="translate(386.578944 296.966485)scale(0.14 -0.14)">
     <defs>
      <path id="DejaVuSans-44" d="M 1259 4147 
L 1259 519 
L 2022 519 
Q 2988 519 3436 956 
Q 3884 1394 3884 2338 
Q 3884 3275 3436 3711 
Q 2988 4147 2022 4147 
L 1259 4147 
z
M 628 4666 
L 1925 4666 
Q 3281 4666 3915 4102 
Q 4550 3538 4550 2338 
Q 4550 1131 3912 565 
Q 3275 0 1925 0 
L 628 0 
L 628 4666 
z
" transform="scale(0.015625)"/>
     </defs>
     <use xlink:href="#DejaVuSans-32"/>
     <use xlink:href="#DejaVuSans-30" x="63.623047"/>
     <use xlink:href="#DejaVuSans-2d" x="127.246094"/>
     <use xlink:href="#DejaVuSans-44" x="163.330078"/>
    </g>
   </g>
   <g id="text_14">
    <!-- 40-D -->
    <g transform="translate(386.578944 240.896341)scale(0.14 -0.14)">
     <use xlink:href="#DejaVuSans-34"/>
     <use xlink:href="#DejaVuSans-30" x="63.623047"/>
     <use xlink:href="#DejaVuSans-2d" x="127.246094"/>
     <use xlink:href="#DejaVuSans-44" x="163.330078"/>
    </g>
   </g>
   <g id="text_15">
    <!-- 10-D -->
    <g transform="translate(386.578944 184.826197)scale(0.14 -0.14)">
     <use xlink:href="#DejaVuSans-31"/>
     <use xlink:href="#DejaVuSans-30" x="63.623047"/>
     <use xlink:href="#DejaVuSans-2d" x="127.246094"/>
     <use xlink:href="#DejaVuSans-44" x="163.330078"/>
    </g>
   </g>
   <g id="text_16">
    <!-- 5-D -->
    <g transform="translate(386.578944 128.756053)scale(0.14 -0.14)">
     <defs>
      <path id="DejaVuSans-35" d="M 691 4666 
L 3169 4666 
L 3169 4134 
L 1269 4134 
L 1269 2991 
Q 1406 3038 1543 3061 
Q 1681 3084 1819 3084 
Q 2600 3084 3056 2656 
Q 3513 2228 3513 1497 
Q 3513 744 3044 326 
Q 2575 -91 1722 -91 
Q 1428 -91 1123 -41 
Q 819 9 494 109 
L 494 744 
Q 775 591 1075 516 
Q 1375 441 1709 441 
Q 2250 441 2565 725 
Q 2881 1009 2881 1497 
Q 2881 1984 2565 2268 
Q 2250 2553 1709 2553 
Q 1456 2553 1204 2497 
Q 953 2441 691 2322 
L 691 4666 
z
" transform="scale(0.015625)"/>
     </defs>
     <use xlink:href="#DejaVuSans-35"/>
     <use xlink:href="#DejaVuSans-2d" x="63.623047"/>
     <use xlink:href="#DejaVuSans-44" x="99.707031"/>
    </g>
   </g>
   <g id="text_17">
    <!-- 3-D -->
    <g transform="translate(386.578944 72.685909)scale(0.14 -0.14)">
     <defs>
      <path id="DejaVuSans-33" d="M 2597 2516 
Q 3050 2419 3304 2112 
Q 3559 1806 3559 1356 
Q 3559 666 3084 287 
Q 2609 -91 1734 -91 
Q 1441 -91 1130 -33 
Q 819 25 488 141 
L 488 750 
Q 750 597 1062 519 
Q 1375 441 1716 441 
Q 2309 441 2620 675 
Q 2931 909 2931 1356 
Q 2931 1769 2642 2001 
Q 2353 2234 1838 2234 
L 1294 2234 
L 1294 2753 
L 1863 2753 
Q 2328 2753 2575 2939 
Q 2822 3125 2822 3475 
Q 2822 3834 2567 4026 
Q 2313 4219 1838 4219 
Q 1578 4219 1281 4162 
Q 984 4106 628 3988 
L 628 4550 
Q 988 4650 1302 4700 
Q 1616 4750 1894 4750 
Q 2613 4750 3031 4423 
Q 3450 4097 3450 3541 
Q 3450 3153 3228 2886 
Q 3006 2619 2597 2516 
z
" transform="scale(0.015625)"/>
     </defs>
     <use xlink:href="#DejaVuSans-33"/>
     <use xlink:href="#DejaVuSans-2d" x="63.623047"/>
     <use xlink:href="#DejaVuSans-44" x="99.707031"/>
    </g>
   </g>
   <g id="text_18">
    <!-- 2-D -->
    <g transform="translate(386.578944 16.615765)scale(0.14 -0.14)">
     <use xlink:href="#DejaVuSans-32"/>
     <use xlink:href="#DejaVuSans-2d" x="63.623047"/>
     <use xlink:href="#DejaVuSans-44" x="99.707031"/>
    </g>
   </g>
   <g id="text_19">
    <!-- bbob-biobj f48, f49, f51, f52 -->
    <g transform="translate(60.632064 17.582726)scale(0.102 -0.102)">
     <defs>
      <path id="DejaVuSans-62" d="M 3116 1747 
Q 3116 2381 2855 2742 
Q 2594 3103 2138 3103 
Q 1681 3103 1420 2742 
Q 1159 2381 1159 1747 
Q 1159 1113 1420 752 
Q 1681 391 2138 391 
Q 2594 391 2855 752 
Q 3116 1113 3116 1747 
z
M 1159 2969 
Q 1341 3281 1617 3432 
Q 1894 3584 2278 3584 
Q 2916 3584 3314 3078 
Q 3713 2572 3713 1747 
Q 3713 922 3314 415 
Q 2916 -91 2278 -91 
Q 1894 -91 1617 61 
Q 1341 213 1159 525 
L 1159 0 
L 581 0 
L 581 4863 
L 1159 4863 
L 1159 2969 
z
" transform="scale(0.015625)"/>
      <path id="DejaVuSans-6a" d="M 603 3500 
L 1178 3500 
L 1178 -63 
Q 1178 -731 923 -1031 
Q 669 -1331 103 -1331 
L -116 -1331 
L -116 -844 
L 38 -844 
Q 366 -844 484 -692 
Q 603 -541 603 -63 
L 603 3500 
z
M 603 4863 
L 1178 4863 
L 1178 4134 
L 603 4134 
L 603 4863 
z
" transform="scale(0.015625)"/>
      <path id="DejaVuSans-39" d="M 703 97 
L 703 672 
Q 941 559 1184 500 
Q 1428 441 1663 441 
Q 2288 441 2617 861 
Q 2947 1281 2994 2138 
Q 2813 1869 2534 1725 
Q 2256 1581 1919 1581 
Q 1219 1581 811 2004 
Q 403 2428 403 3163 
Q 403 3881 828 4315 
Q 1253 4750 1959 4750 
Q 2769 4750 3195 4129 
Q 3622 3509 3622 2328 
Q 3622 1225 3098 567 
Q 2575 -91 1691 -91 
Q 1453 -91 1209 -44 
Q 966 3 703 97 
z
M 1959 2075 
Q 2384 2075 2632 2365 
Q 2881 2656 2881 3163 
Q 2881 3666 2632 3958 
Q 2384 4250 1959 4250 
Q 1534 4250 1286 3958 
Q 1038 3666 1038 3163 
Q 1038 2656 1286 2365 
Q 1534 2075 1959 2075 
z
" transform="scale(0.015625)"/>
     </defs>
     <use xlink:href="#DejaVuSans-62"/>
     <use xlink:href="#DejaVuSans-62" x="63.476562"/>
     <use xlink:href="#DejaVuSans-6f" x="126.953125"/>
     <use xlink:href="#DejaVuSans-62" x="188.134766"/>
     <use xlink:href="#DejaVuSans-2d" x="251.611328"/>
     <use xlink:href="#DejaVuSans-62" x="287.695312"/>
     <use xlink:href="#DejaVuSans-69" x="351.171875"/>
     <use xlink:href="#DejaVuSans-6f" x="378.955078"/>
     <use xlink:href="#DejaVuSans-62" x="440.136719"/>
     <use xlink:href="#DejaVuSans-6a" x="503.613281"/>
     <use xlink:href="#DejaVuSans-20" x="531.396484"/>
     <use xlink:href="#DejaVuSans-66" x="563.183594"/>
     <use xlink:href="#DejaVuSans-34" x="598.388672"/>
     <use xlink:href="#DejaVuSans-38" x="662.011719"/>
     <use xlink:href="#DejaVuSans-2c" x="725.634766"/>
     <use xlink:href="#DejaVuSans-20" x="757.421875"/>
     <use xlink:href="#DejaVuSans-66" x="789.208984"/>
     <use xlink:href="#DejaVuSans-34" x="824.414062"/>
     <use xlink:href="#DejaVuSans-39" x="888.037109"/>
     <use xlink:href="#DejaVuSans-2c" x="951.660156"/>
     <use xlink:href="#DejaVuSans-20" x="983.447266"/>
     <use xlink:href="#DejaVuSans-66" x="1015.234375"/>
     <use xlink:href="#DejaVuSans-35" x="1050.439453"/>
     <use xlink:href="#DejaVuSans-31" x="1114.0625"/>
     <use xlink:href="#DejaVuSans-2c" x="1177.685547"/>
     <use xlink:href="#DejaVuSans-20" x="1209.472656"/>
     <use xlink:href="#DejaVuSans-66" x="1241.259766"/>
     <use xlink:href="#DejaVuSans-35" x="1276.464844"/>
     <use xlink:href="#DejaVuSans-32" x="1340.087891"/>
    </g>
    <!-- 58 targets: 1..-1.0e-4 -->
    <g transform="translate(60.632064 29.004495)scale(0.102 -0.102)">
     <defs>
      <path id="DejaVuSans-3a" d="M 750 794 
L 1409 794 
L 1409 0 
L 750 0 
L 750 794 
z
M 750 3309 
L 1409 3309 
L 1409 2516 
L 750 2516 
L 750 3309 
z
" transform="scale(0.015625)"/>
     </defs>
     <use xlink:href="#DejaVuSans-35"/>
     <use xlink:href="#DejaVuSans-38" x="63.623047"/>
     <use xlink:href="#DejaVuSans-20" x="127.246094"/>
     <use xlink:href="#DejaVuSans-74" x="159.033203"/>
     <use xlink:href="#DejaVuSans-61" x="198.242188"/>
     <use xlink:href="#DejaVuSans-72" x="259.521484"/>
     <use xlink:href="#DejaVuSans-67" x="298.884766"/>
     <use xlink:href="#DejaVuSans-65" x="362.361328"/>
     <use xlink:href="#DejaVuSans-74" x="423.884766"/>
     <use xlink:href="#DejaVuSans-73" x="463.09375"/>
     <use xlink:href="#DejaVuSans-3a" x="515.193359"/>
     <use xlink:href="#DejaVuSans-20" x="548.884766"/>
     <use xlink:href="#DejaVuSans-31" x="580.671875"/>
     <use xlink:href="#DejaVuSans-2e" x="644.294922"/>
     <use xlink:href="#DejaVuSans-2e" x="676.082031"/>
     <use xlink:href="#DejaVuSans-2d" x="707.869141"/>
     <use xlink:href="#DejaVuSans-31" x="743.953125"/>
     <use xlink:href="#DejaVuSans-2e" x="807.576172"/>
     <use xlink:href="#DejaVuSans-30" x="839.363281"/>
     <use xlink:href="#DejaVuSans-65" x="902.986328"/>
     <use xlink:href="#DejaVuSans-2d" x="964.509766"/>
     <use xlink:href="#DejaVuSans-34" x="1000.59375"/>
    </g>
    <!-- 10 instances -->
    <g transform="translate(60.632064 40.426264)scale(0.102 -0.102)">
     <use xlink:href="#DejaVuSans-31"/>
     <use xlink:href="#DejaVuSans-30" x="63.623047"/>
     <use xlink:href="#DejaVuSans-20" x="127.246094"/>
     <use xlink:href="#DejaVuSans-69" x="159.033203"/>
     <use xlink:href="#DejaVuSans-6e" x="186.816406"/>
     <use xlink:href="#DejaVuSans-73" x="250.195312"/>
     <use xlink:href="#DejaVuSans-74" x="302.294922"/>
     <use xlink:href="#DejaVuSans-61" x="341.503906"/>
     <use xlink:href="#DejaVuSans-6e" x="402.783203"/>
     <use xlink:href="#DejaVuSans-63" x="466.162109"/>
     <use xlink:href="#DejaVuSans-65" x="521.142578"/>
     <use xlink:href="#DejaVuSans-73" x="582.666016"/>
    </g>
   </g>
   <g id="text_20">
    <!-- v2.6, hv-hash=ff0e71e8cd978373 -->
    <g style="fill: #808080" transform="translate(123.707887 293.943992)scale(0.1 -0.1)">
     <defs>
      <path id="DejaVuSans-68" d="M 3513 2113 
L 3513 0 
L 2938 0 
L 2938 2094 
Q 2938 2591 2744 2837 
Q 2550 3084 2163 3084 
Q 1697 3084 1428 2787 
Q 1159 2491 1159 1978 
L 1159 0 
L 581 0 
L 581 4863 
L 1159 4863 
L 1159 2956 
Q 1366 3272 1645 3428 
Q 1925 3584 2291 3584 
Q 2894 3584 3203 3211 
Q 3513 2838 3513 2113 
z
" transform="scale(0.015625)"/>
      <path id="DejaVuSans-3d" d="M 678 2906 
L 4684 2906 
L 4684 2381 
L 678 2381 
L 678 2906 
z
M 678 1631 
L 4684 1631 
L 4684 1100 
L 678 1100 
L 678 1631 
z
" transform="scale(0.015625)"/>
      <path id="DejaVuSans-37" d="M 525 4666 
L 3525 4666 
L 3525 4397 
L 1831 0 
L 1172 0 
L 2766 4134 
L 525 4134 
L 525 4666 
z
" transform="scale(0.015625)"/>
     </defs>
     <use xlink:href="#DejaVuSans-76"/>
     <use xlink:href="#DejaVuSans-32" x="59.179688"/>
     <use xlink:href="#DejaVuSans-2e" x="122.802734"/>
     <use xlink:href="#DejaVuSans-36" x="154.589844"/>
     <use xlink:href="#DejaVuSans-2c" x="218.212891"/>
     <use xlink:href="#DejaVuSans-20" x="250"/>
     <use xlink:href="#DejaVuSans-68" x="281.787109"/>
     <use xlink:href="#DejaVuSans-76" x="345.166016"/>
     <use xlink:href="#DejaVuSans-2d" x="401.720703"/>
     <use xlink:href="#DejaVuSans-68" x="437.804688"/>
     <use xlink:href="#DejaVuSans-61" x="501.183594"/>
     <use xlink:href="#DejaVuSans-73" x="562.462891"/>
     <use xlink:href="#DejaVuSans-68" x="614.5625"/>
     <use xlink:href="#DejaVuSans-3d" x="677.941406"/>
     <use xlink:href="#DejaVuSans-66" x="761.730469"/>
     <use xlink:href="#DejaVuSans-66" x="796.935547"/>
     <use xlink:href="#DejaVuSans-30" x="832.140625"/>
     <use xlink:href="#DejaVuSans-65" x="895.763672"/>
     <use xlink:href="#DejaVuSans-37" x="957.287109"/>
     <use xlink:href="#DejaVuSans-31" x="1020.910156"/>
     <use xlink:href="#DejaVuSans-65" x="1084.533203"/>
     <use xlink:href="#DejaVuSans-38" x="1146.056641"/>
     <use xlink:href="#DejaVuSans-63" x="1209.679688"/>
     <use xlink:href="#DejaVuSans-64" x="1264.660156"/>
     <use xlink:href="#DejaVuSans-39" x="1328.136719"/>
     <use xlink:href="#DejaVuSans-37" x="1391.759766"/>
     <use xlink:href="#DejaVuSans-38" x="1455.382812"/>
     <use xlink:href="#DejaVuSans-33" x="1519.005859"/>
     <use xlink:href="#DejaVuSans-37" x="1582.628906"/>
     <use xlink:href="#DejaVuSans-33" x="1646.251953"/>
    </g>
   </g>
  </g>
 </g>
 <defs>
  <clipPath id="pf8a21102a2">
   <rect x="57.6" y="6.912" width="303.2064" height="292.032"/>
  </clipPath>
 </defs>
</svg>
