<?xml version="1.0" encoding="utf-8" standalone="no"?>
<!DOCTYPE svg PUBLIC "-//W3C//DTD SVG 1.1//EN"
  "http://www.w3.org/Graphics/SVG/1.1/DTD/svg11.dtd">
<svg xmlns:xlink="http://www.w3.org/1999/xlink" width="460.8pt" height="345.6pt" viewBox="0 0 460.8 345.6" xmlns="http://www.w3.org/2000/svg" version="1.1">
 <metadata>
  <rdf:RDF xmlns:dc="http://purl.org/dc/elements/1.1/" xmlns:cc="http://creativecommons.org/ns#" xmlns:rdf="http://www.w3.org/1999/02/22-rdf-syntax-ns#">
   <cc:Work>
    <dc:type rdf:resource="http://purl.org/dc/dcmitype/StillImage"/>
    <dc:date>2022-06-19T17:22:31.678925</dc:date>
    <dc:format>image/svg+xml</dc:format>
    <dc:creator>
     <cc:Agent>
      <dc:title>Matplotlib v3.5.2, https://matplotlib.org/</dc:title>
     </cc:Agent>
    </dc:creator>
   </cc:Work>
  </rdf:RDF>
 </metadata>
 <defs>
  <style type="text/css">*{stroke-linejoin: round; stroke-linecap: butt}</style>
 </defs>
 <g id="figure_1">
  <g id="patch_1">
   <path d="M 0 345.6 
L 460.8 345.6 
L 460.8 0 
L 0 0 
z
" style="fill: #ffffff"/>
  </g>
  <g id="axes_1">
   <g id="patch_2">
    <path d="M 57.6 298.944 
L 360.8064 298.944 
L 360.8064 6.912 
L 57.6 6.912 
z
" style="fill: #ffffff"/>
   </g>
   <g id="matplotlib.axis_1">
    <g id="xtick_1">
     <g id="line2d_1">
      <path d="M 57.6 298.944 
L 57.6 6.912 
" clip-path="url(#pa501ba3d45)" style="fill: none; stroke: #b0b0b0; stroke-width: 0.8; stroke-linecap: square"/>
     </g>
     <g id="line2d_2">
      <defs>
       <path id="mb102f8d8f6" d="M 0 0 
L 0 3.5 
" style="stroke: #000000; stroke-width: 0.8"/>
      </defs>
      <g>
       <use xlink:href="#mb102f8d8f6" x="57.6" y="298.944" style="stroke: #000000; stroke-width: 0.8"/>
      </g>
     </g>
     <g id="text_1">
      <!-- 0 -->
      <g transform="translate(52.191875 318.861344)scale(0.17 -0.17)">
       <defs>
        <path id="DejaVuSans-30" d="M 2034 4250 
Q 1547 4250 1301 3770 
Q 1056 3291 1056 2328 
Q 1056 1369 1301 889 
Q 1547 409 2034 409 
Q 2525 409 2770 889 
Q 3016 1369 3016 2328 
Q 3016 3291 2770 3770 
Q 2525 4250 2034 4250 
z
M 2034 4750 
Q 2819 4750 3233 4129 
Q 3647 3509 3647 2328 
Q 3647 1150 3233 529 
Q 2819 -91 2034 -91 
Q 1250 -91 836 529 
Q 422 1150 422 2328 
Q 422 3509 836 4129 
Q 1250 4750 2034 4750 
z
" transform="scale(0.015625)"/>
       </defs>
       <use xlink:href="#DejaVuSans-30"/>
      </g>
     </g>
    </g>
    <g id="xtick_2">
     <g id="line2d_3">
      <path d="M 144.2304 298.944 
L 144.2304 6.912 
" clip-path="url(#pa501ba3d45)" style="fill: none; stroke: #b0b0b0; stroke-width: 0.8; stroke-linecap: square"/>
     </g>
     <g id="line2d_4">
      <g>
       <use xlink:href="#mb102f8d8f6" x="144.2304" y="298.944" style="stroke: #000000; stroke-width: 0.8"/>
      </g>
     </g>
     <g id="text_2">
      <!-- 2 -->
      <g transform="translate(138.822275 318.861344)scale(0.17 -0.17)">
       <defs>
        <path id="DejaVuSans-32" d="M 1228 531 
L 3431 531 
L 3431 0 
L 469 0 
L 469 531 
Q 828 903 1448 1529 
Q 2069 2156 2228 2338 
Q 2531 2678 2651 2914 
Q 2772 3150 2772 3378 
Q 2772 3750 2511 3984 
Q 2250 4219 1831 4219 
Q 1534 4219 1204 4116 
Q 875 4013 500 3803 
L 500 4441 
Q 881 4594 1212 4672 
Q 1544 4750 1819 4750 
Q 2544 4750 2975 4387 
Q 3406 4025 3406 3419 
Q 3406 3131 3298 2873 
Q 3191 2616 2906 2266 
Q 2828 2175 2409 1742 
Q 1991 1309 1228 531 
z
" transform="scale(0.015625)"/>
       </defs>
       <use xlink:href="#DejaVuSans-32"/>
      </g>
     </g>
    </g>
    <g id="xtick_3">
     <g id="line2d_5">
      <path d="M 230.8608 298.944 
L 230.8608 6.912 
" clip-path="url(#pa501ba3d45)" style="fill: none; stroke: #b0b0b0; stroke-width: 0.8; stroke-linecap: square"/>
     </g>
     <g id="line2d_6">
      <g>
       <use xlink:href="#mb102f8d8f6" x="230.8608" y="298.944" style="stroke: #000000; stroke-width: 0.8"/>
      </g>
     </g>
     <g id="text_3">
      <!-- 4 -->
      <g transform="translate(225.452675 318.861344)scale(0.17 -0.17)">
       <defs>
        <path id="DejaVuSans-34" d="M 2419 4116 
L 825 1625 
L 2419 1625 
L 2419 4116 
z
M 2253 4666 
L 3047 4666 
L 3047 1625 
L 3713 1625 
L 3713 1100 
L 3047 1100 
L 3047 0 
L 2419 0 
L 2419 1100 
L 313 1100 
L 313 1709 
L 2253 4666 
z
" transform="scale(0.015625)"/>
       </defs>
       <use xlink:href="#DejaVuSans-34"/>
      </g>
     </g>
    </g>
    <g id="xtick_4">
     <g id="line2d_7">
      <path d="M 317.4912 298.944 
L 317.4912 6.912 
" clip-path="url(#pa501ba3d45)" style="fill: none; stroke: #b0b0b0; stroke-width: 0.8; stroke-linecap: square"/>
     </g>
     <g id="line2d_8">
      <g>
       <use xlink:href="#mb102f8d8f6" x="317.4912" y="298.944" style="stroke: #000000; stroke-width: 0.8"/>
      </g>
     </g>
     <g id="text_4">
      <!-- 6 -->
      <g transform="translate(312.083075 318.861344)scale(0.17 -0.17)">
       <defs>
        <path id="DejaVuSans-36" d="M 2113 2584 
Q 1688 2584 1439 2293 
Q 1191 2003 1191 1497 
Q 1191 994 1439 701 
Q 1688 409 2113 409 
Q 2538 409 2786 701 
Q 3034 994 3034 1497 
Q 3034 2003 2786 2293 
Q 2538 2584 2113 2584 
z
M 3366 4563 
L 3366 3988 
Q 3128 4100 2886 4159 
Q 2644 4219 2406 4219 
Q 1781 4219 1451 3797 
Q 1122 3375 1075 2522 
Q 1259 2794 1537 2939 
Q 1816 3084 2150 3084 
Q 2853 3084 3261 2657 
Q 3669 2231 3669 1497 
Q 3669 778 3244 343 
Q 2819 -91 2113 -91 
Q 1303 -91 875 529 
Q 447 1150 447 2328 
Q 447 3434 972 4092 
Q 1497 4750 2381 4750 
Q 2619 4750 2861 4703 
Q 3103 4656 3366 4563 
z
" transform="scale(0.015625)"/>
       </defs>
       <use xlink:href="#DejaVuSans-36"/>
      </g>
     </g>
    </g>
    <g id="xtick_5">
     <g id="line2d_9">
      <path d="M 100.9152 298.944 
L 100.9152 6.912 
" clip-path="url(#pa501ba3d45)" style="fill: none; stroke: #b0b0b0; stroke-width: 0.8; stroke-linecap: square"/>
     </g>
     <g id="line2d_10">
      <defs>
       <path id="m47d02db9dc" d="M 0 0 
L 0 2 
" style="stroke: #000000; stroke-width: 0.6"/>
      </defs>
      <g>
       <use xlink:href="#m47d02db9dc" x="100.9152" y="298.944" style="stroke: #000000; stroke-width: 0.6"/>
      </g>
     </g>
    </g>
    <g id="xtick_6">
     <g id="line2d_11">
      <path d="M 187.5456 298.944 
L 187.5456 6.912 
" clip-path="url(#pa501ba3d45)" style="fill: none; stroke: #b0b0b0; stroke-width: 0.8; stroke-linecap: square"/>
     </g>
     <g id="line2d_12">
      <g>
       <use xlink:href="#m47d02db9dc" x="187.5456" y="298.944" style="stroke: #000000; stroke-width: 0.6"/>
      </g>
     </g>
    </g>
    <g id="xtick_7">
     <g id="line2d_13">
      <path d="M 274.176 298.944 
L 274.176 6.912 
" clip-path="url(#pa501ba3d45)" style="fill: none; stroke: #b0b0b0; stroke-width: 0.8; stroke-linecap: square"/>
     </g>
     <g id="line2d_14">
      <g>
       <use xlink:href="#m47d02db9dc" x="274.176" y="298.944" style="stroke: #000000; stroke-width: 0.6"/>
      </g>
     </g>
    </g>
    <g id="xtick_8">
     <g id="line2d_15">
      <path d="M 360.8064 298.944 
L 360.8064 6.912 
" clip-path="url(#pa501ba3d45)" style="fill: none; stroke: #b0b0b0; stroke-width: 0.8; stroke-linecap: square"/>
     </g>
     <g id="line2d_16">
      <g>
       <use xlink:href="#m47d02db9dc" x="360.8064" y="298.944" style="stroke: #000000; stroke-width: 0.6"/>
      </g>
     </g>
    </g>
    <g id="text_5">
     <!-- log10(# f-evals / dimension) -->
     <g transform="translate(88.823278 339.314156)scale(0.17 -0.17)">
      <defs>
       <path id="DejaVuSans-6c" d="M 603 4863 
L 1178 4863 
L 1178 0 
L 603 0 
L 603 4863 
z
" transform="scale(0.015625)"/>
       <path id="DejaVuSans-6f" d="M 1959 3097 
Q 1497 3097 1228 2736 
Q 959 2375 959 1747 
Q 959 1119 1226 758 
Q 1494 397 1959 397 
Q 2419 397 2687 759 
Q 2956 1122 2956 1747 
Q 2956 2369 2687 2733 
Q 2419 3097 1959 3097 
z
M 1959 3584 
Q 2709 3584 3137 3096 
Q 3566 2609 3566 1747 
Q 3566 888 3137 398 
Q 2709 -91 1959 -91 
Q 1206 -91 779 398 
Q 353 888 353 1747 
Q 353 2609 779 3096 
Q 1206 3584 1959 3584 
z
" transform="scale(0.015625)"/>
       <path id="DejaVuSans-67" d="M 2906 1791 
Q 2906 2416 2648 2759 
Q 2391 3103 1925 3103 
Q 1463 3103 1205 2759 
Q 947 2416 947 1791 
Q 947 1169 1205 825 
Q 1463 481 1925 481 
Q 2391 481 2648 825 
Q 2906 1169 2906 1791 
z
M 3481 434 
Q 3481 -459 3084 -895 
Q 2688 -1331 1869 -1331 
Q 1566 -1331 1297 -1286 
Q 1028 -1241 775 -1147 
L 775 -588 
Q 1028 -725 1275 -790 
Q 1522 -856 1778 -856 
Q 2344 -856 2625 -561 
Q 2906 -266 2906 331 
L 2906 616 
Q 2728 306 2450 153 
Q 2172 0 1784 0 
Q 1141 0 747 490 
Q 353 981 353 1791 
Q 353 2603 747 3093 
Q 1141 3584 1784 3584 
Q 2172 3584 2450 3431 
Q 2728 3278 2906 2969 
L 2906 3500 
L 3481 3500 
L 3481 434 
z
" transform="scale(0.015625)"/>
       <path id="DejaVuSans-31" d="M 794 531 
L 1825 531 
L 1825 4091 
L 703 3866 
L 703 4441 
L 1819 4666 
L 2450 4666 
L 2450 531 
L 3481 531 
L 3481 0 
L 794 0 
L 794 531 
z
" transform="scale(0.015625)"/>
       <path id="DejaVuSans-28" d="M 1984 4856 
Q 1566 4138 1362 3434 
Q 1159 2731 1159 2009 
Q 1159 1288 1364 580 
Q 1569 -128 1984 -844 
L 1484 -844 
Q 1016 -109 783 600 
Q 550 1309 550 2009 
Q 550 2706 781 3412 
Q 1013 4119 1484 4856 
L 1984 4856 
z
" transform="scale(0.015625)"/>
       <path id="DejaVuSans-23" d="M 3272 2816 
L 2363 2816 
L 2100 1772 
L 3016 1772 
L 3272 2816 
z
M 2803 4594 
L 2478 3297 
L 3391 3297 
L 3719 4594 
L 4219 4594 
L 3897 3297 
L 4872 3297 
L 4872 2816 
L 3775 2816 
L 3519 1772 
L 4513 1772 
L 4513 1294 
L 3397 1294 
L 3072 0 
L 2572 0 
L 2894 1294 
L 1978 1294 
L 1656 0 
L 1153 0 
L 1478 1294 
L 494 1294 
L 494 1772 
L 1594 1772 
L 1856 2816 
L 850 2816 
L 850 3297 
L 1978 3297 
L 2297 4594 
L 2803 4594 
z
" transform="scale(0.015625)"/>
       <path id="DejaVuSans-20" transform="scale(0.015625)"/>
       <path id="DejaVuSans-66" d="M 2375 4863 
L 2375 4384 
L 1825 4384 
Q 1516 4384 1395 4259 
Q 1275 4134 1275 3809 
L 1275 3500 
L 2222 3500 
L 2222 3053 
L 1275 3053 
L 1275 0 
L 697 0 
L 697 3053 
L 147 3053 
L 147 3500 
L 697 3500 
L 697 3744 
Q 697 4328 969 4595 
Q 1241 4863 1831 4863 
L 2375 4863 
z
" transform="scale(0.015625)"/>
       <path id="DejaVuSans-2d" d="M 313 2009 
L 1997 2009 
L 1997 1497 
L 313 1497 
L 313 2009 
z
" transform="scale(0.015625)"/>
       <path id="DejaVuSans-65" d="M 3597 1894 
L 3597 1613 
L 953 1613 
Q 991 1019 1311 708 
Q 1631 397 2203 397 
Q 2534 397 2845 478 
Q 3156 559 3463 722 
L 3463 178 
Q 3153 47 2828 -22 
Q 2503 -91 2169 -91 
Q 1331 -91 842 396 
Q 353 884 353 1716 
Q 353 2575 817 3079 
Q 1281 3584 2069 3584 
Q 2775 3584 3186 3129 
Q 3597 2675 3597 1894 
z
M 3022 2063 
Q 3016 2534 2758 2815 
Q 2500 3097 2075 3097 
Q 1594 3097 1305 2825 
Q 1016 2553 972 2059 
L 3022 2063 
z
" transform="scale(0.015625)"/>
       <path id="DejaVuSans-76" d="M 191 3500 
L 800 3500 
L 1894 563 
L 2988 3500 
L 3597 3500 
L 2284 0 
L 1503 0 
L 191 3500 
z
" transform="scale(0.015625)"/>
       <path id="DejaVuSans-61" d="M 2194 1759 
Q 1497 1759 1228 1600 
Q 959 1441 959 1056 
Q 959 750 1161 570 
Q 1363 391 1709 391 
Q 2188 391 2477 730 
Q 2766 1069 2766 1631 
L 2766 1759 
L 2194 1759 
z
M 3341 1997 
L 3341 0 
L 2766 0 
L 2766 531 
Q 2569 213 2275 61 
Q 1981 -91 1556 -91 
Q 1019 -91 701 211 
Q 384 513 384 1019 
Q 384 1609 779 1909 
Q 1175 2209 1959 2209 
L 2766 2209 
L 2766 2266 
Q 2766 2663 2505 2880 
Q 2244 3097 1772 3097 
Q 1472 3097 1187 3025 
Q 903 2953 641 2809 
L 641 3341 
Q 956 3463 1253 3523 
Q 1550 3584 1831 3584 
Q 2591 3584 2966 3190 
Q 3341 2797 3341 1997 
z
" transform="scale(0.015625)"/>
       <path id="DejaVuSans-73" d="M 2834 3397 
L 2834 2853 
Q 2591 2978 2328 3040 
Q 2066 3103 1784 3103 
Q 1356 3103 1142 2972 
Q 928 2841 928 2578 
Q 928 2378 1081 2264 
Q 1234 2150 1697 2047 
L 1894 2003 
Q 2506 1872 2764 1633 
Q 3022 1394 3022 966 
Q 3022 478 2636 193 
Q 2250 -91 1575 -91 
Q 1294 -91 989 -36 
Q 684 19 347 128 
L 347 722 
Q 666 556 975 473 
Q 1284 391 1588 391 
Q 1994 391 2212 530 
Q 2431 669 2431 922 
Q 2431 1156 2273 1281 
Q 2116 1406 1581 1522 
L 1381 1569 
Q 847 1681 609 1914 
Q 372 2147 372 2553 
Q 372 3047 722 3315 
Q 1072 3584 1716 3584 
Q 2034 3584 2315 3537 
Q 2597 3491 2834 3397 
z
" transform="scale(0.015625)"/>
       <path id="DejaVuSans-2f" d="M 1625 4666 
L 2156 4666 
L 531 -594 
L 0 -594 
L 1625 4666 
z
" transform="scale(0.015625)"/>
       <path id="DejaVuSans-64" d="M 2906 2969 
L 2906 4863 
L 3481 4863 
L 3481 0 
L 2906 0 
L 2906 525 
Q 2725 213 2448 61 
Q 2172 -91 1784 -91 
Q 1150 -91 751 415 
Q 353 922 353 1747 
Q 353 2572 751 3078 
Q 1150 3584 1784 3584 
Q 2172 3584 2448 3432 
Q 2725 3281 2906 2969 
z
M 947 1747 
Q 947 1113 1208 752 
Q 1469 391 1925 391 
Q 2381 391 2643 752 
Q 2906 1113 2906 1747 
Q 2906 2381 2643 2742 
Q 2381 3103 1925 3103 
Q 1469 3103 1208 2742 
Q 947 2381 947 1747 
z
" transform="scale(0.015625)"/>
       <path id="DejaVuSans-69" d="M 603 3500 
L 1178 3500 
L 1178 0 
L 603 0 
L 603 3500 
z
M 603 4863 
L 1178 4863 
L 1178 4134 
L 603 4134 
L 603 4863 
z
" transform="scale(0.015625)"/>
       <path id="DejaVuSans-6d" d="M 3328 2828 
Q 3544 3216 3844 3400 
Q 4144 3584 4550 3584 
Q 5097 3584 5394 3201 
Q 5691 2819 5691 2113 
L 5691 0 
L 5113 0 
L 5113 2094 
Q 5113 2597 4934 2840 
Q 4756 3084 4391 3084 
Q 3944 3084 3684 2787 
Q 3425 2491 3425 1978 
L 3425 0 
L 2847 0 
L 2847 2094 
Q 2847 2600 2669 2842 
Q 2491 3084 2119 3084 
Q 1678 3084 1418 2786 
Q 1159 2488 1159 1978 
L 1159 0 
L 581 0 
L 581 3500 
L 1159 3500 
L 1159 2956 
Q 1356 3278 1631 3431 
Q 1906 3584 2284 3584 
Q 2666 3584 2933 3390 
Q 3200 3197 3328 2828 
z
" transform="scale(0.015625)"/>
       <path id="DejaVuSans-6e" d="M 3513 2113 
L 3513 0 
L 2938 0 
L 2938 2094 
Q 2938 2591 2744 2837 
Q 2550 3084 2163 3084 
Q 1697 3084 1428 2787 
Q 1159 2491 1159 1978 
L 1159 0 
L 581 0 
L 581 3500 
L 1159 3500 
L 1159 2956 
Q 1366 3272 1645 3428 
Q 1925 3584 2291 3584 
Q 2894 3584 3203 3211 
Q 3513 2838 3513 2113 
z
" transform="scale(0.015625)"/>
       <path id="DejaVuSans-29" d="M 513 4856 
L 1013 4856 
Q 1481 4119 1714 3412 
Q 1947 2706 1947 2009 
Q 1947 1309 1714 600 
Q 1481 -109 1013 -844 
L 513 -844 
Q 928 -128 1133 580 
Q 1338 1288 1338 2009 
Q 1338 2731 1133 3434 
Q 928 4138 513 4856 
z
" transform="scale(0.015625)"/>
      </defs>
      <use xlink:href="#DejaVuSans-6c"/>
      <use xlink:href="#DejaVuSans-6f" x="27.783203"/>
      <use xlink:href="#DejaVuSans-67" x="88.964844"/>
      <use xlink:href="#DejaVuSans-31" x="152.441406"/>
      <use xlink:href="#DejaVuSans-30" x="216.064453"/>
      <use xlink:href="#DejaVuSans-28" x="279.6875"/>
      <use xlink:href="#DejaVuSans-23" x="318.701172"/>
      <use xlink:href="#DejaVuSans-20" x="402.490234"/>
      <use xlink:href="#DejaVuSans-66" x="434.277344"/>
      <use xlink:href="#DejaVuSans-2d" x="463.982422"/>
      <use xlink:href="#DejaVuSans-65" x="500.066406"/>
      <use xlink:href="#DejaVuSans-76" x="561.589844"/>
      <use xlink:href="#DejaVuSans-61" x="620.769531"/>
      <use xlink:href="#DejaVuSans-6c" x="682.048828"/>
      <use xlink:href="#DejaVuSans-73" x="709.832031"/>
      <use xlink:href="#DejaVuSans-20" x="761.931641"/>
      <use xlink:href="#DejaVuSans-2f" x="793.71875"/>
      <use xlink:href="#DejaVuSans-20" x="827.410156"/>
      <use xlink:href="#DejaVuSans-64" x="859.197266"/>
      <use xlink:href="#DejaVuSans-69" x="922.673828"/>
      <use xlink:href="#DejaVuSans-6d" x="950.457031"/>
      <use xlink:href="#DejaVuSans-65" x="1047.869141"/>
      <use xlink:href="#DejaVuSans-6e" x="1109.392578"/>
      <use xlink:href="#DejaVuSans-73" x="1172.771484"/>
      <use xlink:href="#DejaVuSans-69" x="1224.871094"/>
      <use xlink:href="#DejaVuSans-6f" x="1252.654297"/>
      <use xlink:href="#DejaVuSans-6e" x="1313.835938"/>
      <use xlink:href="#DejaVuSans-29" x="1377.214844"/>
     </g>
    </g>
   </g>
   <g id="matplotlib.axis_2">
    <g id="ytick_1">
     <g id="line2d_17">
      <path d="M 57.6 298.944 
L 360.8064 298.944 
" clip-path="url(#pa501ba3d45)" style="fill: none; stroke: #b0b0b0; stroke-width: 0.8; stroke-linecap: square"/>
     </g>
     <g id="line2d_18">
      <defs>
       <path id="m4727516360" d="M 0 0 
L -3.5 0 
" style="stroke: #000000; stroke-width: 0.8"/>
      </defs>
      <g>
       <use xlink:href="#m4727516360" x="57.6" y="298.944" style="stroke: #000000; stroke-width: 0.8"/>
      </g>
     </g>
     <g id="text_6">
      <!-- 0.0 -->
      <g transform="translate(25.155 305.02275)scale(0.16 -0.16)">
       <defs>
        <path id="DejaVuSans-2e" d="M 684 794 
L 1344 794 
L 1344 0 
L 684 0 
L 684 794 
z
" transform="scale(0.015625)"/>
       </defs>
       <use xlink:href="#DejaVuSans-30"/>
       <use xlink:href="#DejaVuSans-2e" x="63.623047"/>
       <use xlink:href="#DejaVuSans-30" x="95.410156"/>
      </g>
     </g>
    </g>
    <g id="ytick_2">
     <g id="line2d_19">
      <path d="M 57.6 240.5376 
L 360.8064 240.5376 
" clip-path="url(#pa501ba3d45)" style="fill: none; stroke: #b0b0b0; stroke-width: 0.8; stroke-linecap: square"/>
     </g>
     <g id="line2d_20">
      <g>
       <use xlink:href="#m4727516360" x="57.6" y="240.5376" style="stroke: #000000; stroke-width: 0.8"/>
      </g>
     </g>
     <g id="text_7">
      <!-- 0.2 -->
      <g transform="translate(25.155 246.61635)scale(0.16 -0.16)">
       <use xlink:href="#DejaVuSans-30"/>
       <use xlink:href="#DejaVuSans-2e" x="63.623047"/>
       <use xlink:href="#DejaVuSans-32" x="95.410156"/>
      </g>
     </g>
    </g>
    <g id="ytick_3">
     <g id="line2d_21">
      <path d="M 57.6 182.1312 
L 360.8064 182.1312 
" clip-path="url(#pa501ba3d45)" style="fill: none; stroke: #b0b0b0; stroke-width: 0.8; stroke-linecap: square"/>
     </g>
     <g id="line2d_22">
      <g>
       <use xlink:href="#m4727516360" x="57.6" y="182.1312" style="stroke: #000000; stroke-width: 0.8"/>
      </g>
     </g>
     <g id="text_8">
      <!-- 0.4 -->
      <g transform="translate(25.155 188.20995)scale(0.16 -0.16)">
       <use xlink:href="#DejaVuSans-30"/>
       <use xlink:href="#DejaVuSans-2e" x="63.623047"/>
       <use xlink:href="#DejaVuSans-34" x="95.410156"/>
      </g>
     </g>
    </g>
    <g id="ytick_4">
     <g id="line2d_23">
      <path d="M 57.6 123.7248 
L 360.8064 123.7248 
" clip-path="url(#pa501ba3d45)" style="fill: none; stroke: #b0b0b0; stroke-width: 0.8; stroke-linecap: square"/>
     </g>
     <g id="line2d_24">
      <g>
       <use xlink:href="#m4727516360" x="57.6" y="123.7248" style="stroke: #000000; stroke-width: 0.8"/>
      </g>
     </g>
     <g id="text_9">
      <!-- 0.6 -->
      <g transform="translate(25.155 129.80355)scale(0.16 -0.16)">
       <use xlink:href="#DejaVuSans-30"/>
       <use xlink:href="#DejaVuSans-2e" x="63.623047"/>
       <use xlink:href="#DejaVuSans-36" x="95.410156"/>
      </g>
     </g>
    </g>
    <g id="ytick_5">
     <g id="line2d_25">
      <path d="M 57.6 65.3184 
L 360.8064 65.3184 
" clip-path="url(#pa501ba3d45)" style="fill: none; stroke: #b0b0b0; stroke-width: 0.8; stroke-linecap: square"/>
     </g>
     <g id="line2d_26">
      <g>
       <use xlink:href="#m4727516360" x="57.6" y="65.3184" style="stroke: #000000; stroke-width: 0.8"/>
      </g>
     </g>
     <g id="text_10">
      <!-- 0.8 -->
      <g transform="translate(25.155 71.39715)scale(0.16 -0.16)">
       <defs>
        <path id="DejaVuSans-38" d="M 2034 2216 
Q 1584 2216 1326 1975 
Q 1069 1734 1069 1313 
Q 1069 891 1326 650 
Q 1584 409 2034 409 
Q 2484 409 2743 651 
Q 3003 894 3003 1313 
Q 3003 1734 2745 1975 
Q 2488 2216 2034 2216 
z
M 1403 2484 
Q 997 2584 770 2862 
Q 544 3141 544 3541 
Q 544 4100 942 4425 
Q 1341 4750 2034 4750 
Q 2731 4750 3128 4425 
Q 3525 4100 3525 3541 
Q 3525 3141 3298 2862 
Q 3072 2584 2669 2484 
Q 3125 2378 3379 2068 
Q 3634 1759 3634 1313 
Q 3634 634 3220 271 
Q 2806 -91 2034 -91 
Q 1263 -91 848 271 
Q 434 634 434 1313 
Q 434 1759 690 2068 
Q 947 2378 1403 2484 
z
M 1172 3481 
Q 1172 3119 1398 2916 
Q 1625 2713 2034 2713 
Q 2441 2713 2670 2916 
Q 2900 3119 2900 3481 
Q 2900 3844 2670 4047 
Q 2441 4250 2034 4250 
Q 1625 4250 1398 4047 
Q 1172 3844 1172 3481 
z
" transform="scale(0.015625)"/>
       </defs>
       <use xlink:href="#DejaVuSans-30"/>
       <use xlink:href="#DejaVuSans-2e" x="63.623047"/>
       <use xlink:href="#DejaVuSans-38" x="95.410156"/>
      </g>
     </g>
    </g>
    <g id="ytick_6">
     <g id="line2d_27">
      <path d="M 57.6 6.912 
L 360.8064 6.912 
" clip-path="url(#pa501ba3d45)" style="fill: none; stroke: #b0b0b0; stroke-width: 0.8; stroke-linecap: square"/>
     </g>
     <g id="line2d_28">
      <g>
       <use xlink:href="#m4727516360" x="57.6" y="6.912" style="stroke: #000000; stroke-width: 0.8"/>
      </g>
     </g>
     <g id="text_11">
      <!-- 1.0 -->
      <g transform="translate(25.155 12.99075)scale(0.16 -0.16)">
       <use xlink:href="#DejaVuSans-31"/>
       <use xlink:href="#DejaVuSans-2e" x="63.623047"/>
       <use xlink:href="#DejaVuSans-30" x="95.410156"/>
      </g>
     </g>
    </g>
    <g id="text_12">
     <!-- Fraction of function,target pairs -->
     <g transform="translate(17.619531 287.313)rotate(-90)scale(0.17 -0.17)">
      <defs>
       <path id="DejaVuSans-46" d="M 628 4666 
L 3309 4666 
L 3309 4134 
L 1259 4134 
L 1259 2759 
L 3109 2759 
L 3109 2228 
L 1259 2228 
L 1259 0 
L 628 0 
L 628 4666 
z
" transform="scale(0.015625)"/>
       <path id="DejaVuSans-72" d="M 2631 2963 
Q 2534 3019 2420 3045 
Q 2306 3072 2169 3072 
Q 1681 3072 1420 2755 
Q 1159 2438 1159 1844 
L 1159 0 
L 581 0 
L 581 3500 
L 1159 3500 
L 1159 2956 
Q 1341 3275 1631 3429 
Q 1922 3584 2338 3584 
Q 2397 3584 2469 3576 
Q 2541 3569 2628 3553 
L 2631 2963 
z
" transform="scale(0.015625)"/>
       <path id="DejaVuSans-63" d="M 3122 3366 
L 3122 2828 
Q 2878 2963 2633 3030 
Q 2388 3097 2138 3097 
Q 1578 3097 1268 2742 
Q 959 2388 959 1747 
Q 959 1106 1268 751 
Q 1578 397 2138 397 
Q 2388 397 2633 464 
Q 2878 531 3122 666 
L 3122 134 
Q 2881 22 2623 -34 
Q 2366 -91 2075 -91 
Q 1284 -91 818 406 
Q 353 903 353 1747 
Q 353 2603 823 3093 
Q 1294 3584 2113 3584 
Q 2378 3584 2631 3529 
Q 2884 3475 3122 3366 
z
" transform="scale(0.015625)"/>
       <path id="DejaVuSans-74" d="M 1172 4494 
L 1172 3500 
L 2356 3500 
L 2356 3053 
L 1172 3053 
L 1172 1153 
Q 1172 725 1289 603 
Q 1406 481 1766 481 
L 2356 481 
L 2356 0 
L 1766 0 
Q 1100 0 847 248 
Q 594 497 594 1153 
L 594 3053 
L 172 3053 
L 172 3500 
L 594 3500 
L 594 4494 
L 1172 4494 
z
" transform="scale(0.015625)"/>
       <path id="DejaVuSans-75" d="M 544 1381 
L 544 3500 
L 1119 3500 
L 1119 1403 
Q 1119 906 1312 657 
Q 1506 409 1894 409 
Q 2359 409 2629 706 
Q 2900 1003 2900 1516 
L 2900 3500 
L 3475 3500 
L 3475 0 
L 2900 0 
L 2900 538 
Q 2691 219 2414 64 
Q 2138 -91 1772 -91 
Q 1169 -91 856 284 
Q 544 659 544 1381 
z
M 1991 3584 
L 1991 3584 
z
" transform="scale(0.015625)"/>
       <path id="DejaVuSans-2c" d="M 750 794 
L 1409 794 
L 1409 256 
L 897 -744 
L 494 -744 
L 750 256 
L 750 794 
z
" transform="scale(0.015625)"/>
       <path id="DejaVuSans-70" d="M 1159 525 
L 1159 -1331 
L 581 -1331 
L 581 3500 
L 1159 3500 
L 1159 2969 
Q 1341 3281 1617 3432 
Q 1894 3584 2278 3584 
Q 2916 3584 3314 3078 
Q 3713 2572 3713 1747 
Q 3713 922 3314 415 
Q 2916 -91 2278 -91 
Q 1894 -91 1617 61 
Q 1341 213 1159 525 
z
M 3116 1747 
Q 3116 2381 2855 2742 
Q 2594 3103 2138 3103 
Q 1681 3103 1420 2742 
Q 1159 2381 1159 1747 
Q 1159 1113 1420 752 
Q 1681 391 2138 391 
Q 2594 391 2855 752 
Q 3116 1113 3116 1747 
z
" transform="scale(0.015625)"/>
      </defs>
      <use xlink:href="#DejaVuSans-46"/>
      <use xlink:href="#DejaVuSans-72" x="50.269531"/>
      <use xlink:href="#DejaVuSans-61" x="91.382812"/>
      <use xlink:href="#DejaVuSans-63" x="152.662109"/>
      <use xlink:href="#DejaVuSans-74" x="207.642578"/>
      <use xlink:href="#DejaVuSans-69" x="246.851562"/>
      <use xlink:href="#DejaVuSans-6f" x="274.634766"/>
      <use xlink:href="#DejaVuSans-6e" x="335.816406"/>
      <use xlink:href="#DejaVuSans-20" x="399.195312"/>
      <use xlink:href="#DejaVuSans-6f" x="430.982422"/>
      <use xlink:href="#DejaVuSans-66" x="492.164062"/>
      <use xlink:href="#DejaVuSans-20" x="527.369141"/>
      <use xlink:href="#DejaVuSans-66" x="559.15625"/>
      <use xlink:href="#DejaVuSans-75" x="594.361328"/>
      <use xlink:href="#DejaVuSans-6e" x="657.740234"/>
      <use xlink:href="#DejaVuSans-63" x="721.119141"/>
      <use xlink:href="#DejaVuSans-74" x="776.099609"/>
      <use xlink:href="#DejaVuSans-69" x="815.308594"/>
      <use xlink:href="#DejaVuSans-6f" x="843.091797"/>
      <use xlink:href="#DejaVuSans-6e" x="904.273438"/>
      <use xlink:href="#DejaVuSans-2c" x="967.652344"/>
      <use xlink:href="#DejaVuSans-74" x="999.439453"/>
      <use xlink:href="#DejaVuSans-61" x="1038.648438"/>
      <use xlink:href="#DejaVuSans-72" x="1099.927734"/>
      <use xlink:href="#DejaVuSans-67" x="1139.291016"/>
      <use xlink:href="#DejaVuSans-65" x="1202.767578"/>
      <use xlink:href="#DejaVuSans-74" x="1264.291016"/>
      <use xlink:href="#DejaVuSans-20" x="1303.5"/>
      <use xlink:href="#DejaVuSans-70" x="1335.287109"/>
      <use xlink:href="#DejaVuSans-61" x="1398.763672"/>
      <use xlink:href="#DejaVuSans-69" x="1460.042969"/>
      <use xlink:href="#DejaVuSans-72" x="1487.826172"/>
      <use xlink:href="#DejaVuSans-73" x="1528.939453"/>
     </g>
    </g>
   </g>
   <g id="line2d_29">
    <defs>
     <path id="me4c6588658" d="M 0 1.5 
C 0.397805 1.5 0.77937 1.341951 1.06066 1.06066 
C 1.341951 0.77937 1.5 0.397805 1.5 0 
C 1.5 -0.397805 1.341951 -0.77937 1.06066 -1.06066 
C 0.77937 -1.341951 0.397805 -1.5 0 -1.5 
C -0.397805 -1.5 -0.77937 -1.341951 -1.06066 -1.06066 
C -1.341951 -0.77937 -1.5 -0.397805 -1.5 0 
C -1.5 0.397805 -1.341951 0.77937 -1.06066 1.06066 
C -0.77937 1.341951 -0.397805 1.5 0 1.5 
z
" style="stroke: #00bfbf"/>
    </defs>
    <g>
     <use xlink:href="#me4c6588658" x="204.991969" y="208.145545" style="fill: #00bfbf; stroke: #00bfbf"/>
     <use xlink:href="#me4c6588658" x="204.991969" y="208.145545" style="fill: #00bfbf; stroke: #00bfbf"/>
    </g>
   </g>
   <g id="line2d_30">
    <path d="M 44.560826 298.944 
L 44.560826 285.517241 
L 57.6 285.517241 
L 57.6 285.013738 
L 65.227428 285.013738 
L 65.227428 284.845903 
L 70.639174 284.845903 
L 70.639174 283.838897 
L 74.836851 283.838897 
L 74.836851 283.335393 
L 78.266603 283.335393 
L 78.266603 281.992717 
L 81.166416 281.992717 
L 81.166416 281.321379 
L 83.678349 281.321379 
L 83.678349 281.153545 
L 87.876026 281.153545 
L 87.876026 280.817876 
L 91.305777 280.817876 
L 91.305777 280.314372 
L 92.811505 280.314372 
L 92.811505 279.643034 
L 96.717523 279.643034 
L 96.717523 279.4752 
L 97.857967 279.4752 
L 97.857967 279.307366 
L 98.933205 279.307366 
L 98.933205 279.139531 
L 100.9152 279.139531 
L 100.9152 278.803862 
L 101.833019 278.803862 
L 101.833019 278.468193 
L 103.544339 278.468193 
L 103.544339 278.132524 
L 105.850679 278.132524 
L 105.850679 277.96469 
L 106.560633 277.96469 
L 106.560633 277.293352 
L 107.244765 277.293352 
L 107.244765 275.950676 
L 109.159456 275.950676 
L 109.159456 275.279338 
L 111.442442 275.279338 
L 111.442442 274.775834 
L 113.954374 274.775834 
L 113.954374 274.440166 
L 114.418881 274.440166 
L 114.418881 274.272331 
L 115.314838 274.272331 
L 115.314838 273.936662 
L 115.747307 273.936662 
L 115.747307 273.768828 
L 116.988079 273.768828 
L 116.988079 272.258317 
L 117.384126 272.258317 
L 117.384126 272.090483 
L 118.152051 272.090483 
L 118.152051 271.754814 
L 118.524569 271.754814 
L 118.524569 271.419145 
L 118.889854 271.419145 
L 118.889854 271.25131 
L 119.24818 271.25131 
L 119.24818 270.915641 
L 120.616896 270.915641 
L 120.616896 270.579972 
L 121.265635 270.579972 
L 121.265635 269.405131 
L 121.581803 269.405131 
L 121.581803 269.069462 
L 121.892744 269.069462 
L 121.892744 268.398124 
L 122.19863 268.398124 
L 122.19863 268.23029 
L 124.481616 268.23029 
L 124.481616 268.062455 
L 124.748451 268.062455 
L 124.748451 267.726786 
L 125.271028 267.726786 
L 125.271028 267.558952 
L 127.227236 267.558952 
L 127.227236 266.38411 
L 127.911368 266.38411 
L 127.911368 266.216276 
L 128.133992 266.216276 
L 128.133992 266.048441 
L 128.57149 266.048441 
L 128.57149 264.8736 
L 128.786481 264.8736 
L 128.786481 264.370097 
L 131.191226 264.370097 
L 131.191226 264.202262 
L 135.388902 264.202262 
L 135.388902 264.034428 
L 135.981441 264.034428 
L 135.981441 263.866593 
L 136.126705 263.866593 
L 136.126705 263.36309 
L 137.787626 263.36309 
L 137.787626 262.859586 
L 139.435481 262.859586 
L 139.435481 262.691752 
L 140.032723 262.691752 
L 140.032723 262.523917 
L 140.611586 262.523917 
L 140.611586 262.356083 
L 140.838234 262.356083 
L 140.838234 262.020414 
L 141.718467 262.020414 
L 141.718467 261.852579 
L 142.45627 261.852579 
L 142.45627 261.51691 
L 143.066428 261.51691 
L 143.066428 261.181241 
L 143.462475 261.181241 
L 143.560197 260.845572 
L 143.657415 260.845572 
L 143.657415 260.509903 
L 145.237585 260.509903 
L 145.237585 260.342069 
L 145.415054 260.342069 
L 145.503164 259.670731 
L 145.590864 259.670731 
L 145.590864 259.502897 
L 146.108646 259.502897 
L 146.108646 258.831559 
L 146.612557 258.831559 
L 146.612557 258.663724 
L 147.022411 258.663724 
L 147.022411 258.49589 
L 147.183884 258.49589 
L 147.183884 258.160221 
L 147.73837 258.160221 
L 147.73837 257.824552 
L 149.093387 257.824552 
L 149.093387 257.656717 
L 150.425115 257.656717 
L 150.425115 257.488883 
L 151.284843 257.488883 
L 151.284843 257.153214 
L 151.477784 257.153214 
L 151.477784 256.985379 
L 151.668766 256.985379 
L 151.668766 256.817545 
L 152.230346 256.817545 
L 152.291722 255.642703 
L 152.474656 255.642703 
L 152.474656 254.803531 
L 152.595631 254.803531 
L 152.595631 254.300028 
L 153.071898 254.300028 
L 153.071898 253.964359 
L 153.189104 253.964359 
L 153.189104 253.796524 
L 153.363556 253.796524 
L 153.363556 253.460855 
L 153.536404 253.460855 
L 153.536404 253.293021 
L 153.650761 253.293021 
L 153.650761 252.957352 
L 154.101358 252.957352 
L 154.101358 252.621683 
L 154.432362 252.621683 
L 154.541415 251.78251 
L 154.649839 251.78251 
L 154.649839 251.614676 
L 155.024477 251.614676 
L 155.024477 251.446841 
L 155.235253 251.446841 
L 155.28758 250.607669 
L 156.005274 250.607669 
L 156.005274 250.272 
L 156.696589 250.272 
L 156.696589 249.936331 
L 157.316545 249.936331 
L 157.316545 249.768497 
L 157.456756 249.768497 
L 157.456756 249.600662 
L 157.595929 249.600662 
L 157.688143 248.929324 
L 157.871225 248.929324 
L 157.962102 248.090152 
L 158.321284 248.090152 
L 158.321284 247.922317 
L 158.542339 247.922317 
L 158.542339 247.754483 
L 159.485256 247.754483 
L 159.485256 247.586648 
L 159.775628 247.586648 
L 159.775628 247.418814 
L 160.303279 247.418814 
L 160.303279 247.250979 
L 160.422971 247.250979 
L 160.4627 246.91531 
L 160.777545 246.91531 
L 160.855439 246.243972 
L 161.579783 246.243972 
L 161.579783 246.076138 
L 162.096211 246.076138 
L 162.168843 245.572634 
L 162.241195 245.572634 
L 162.241195 245.236966 
L 162.880139 245.236966 
L 162.880139 245.069131 
L 163.122872 245.069131 
L 163.122872 244.733462 
L 163.59914 244.733462 
L 163.59914 244.565628 
L 163.73303 244.565628 
L 163.73303 243.726455 
L 164.063646 243.726455 
L 164.129077 243.222952 
L 164.356312 243.222952 
L 164.356312 242.887283 
L 164.70794 242.887283 
L 164.739583 242.551614 
L 164.928329 242.551614 
L 165.021997 241.712441 
L 165.146166 241.712441 
L 165.146166 241.208938 
L 165.422585 241.208938 
L 165.422585 241.041103 
L 165.544147 241.041103 
L 165.544147 240.705434 
L 165.725029 240.705434 
L 165.725029 240.5376 
L 167.444174 240.5376 
L 167.553385 240.201931 
L 168.274427 240.201931 
L 168.274427 239.866262 
L 168.430973 239.866262 
L 168.430973 239.362759 
L 168.637696 239.362759 
L 168.637696 239.194924 
L 168.842171 239.194924 
L 168.842171 239.02709 
L 169.467197 239.02709 
L 169.467197 238.859255 
L 169.662898 238.859255 
L 169.662898 238.523586 
L 169.904695 238.523586 
L 169.928705 238.020083 
L 171.515469 238.020083 
L 171.581513 237.18091 
L 171.647326 237.18091 
L 171.647326 237.013076 
L 172.015979 237.013076 
L 172.015979 236.845241 
L 172.186995 236.845241 
L 172.186995 236.509572 
L 172.690906 236.509572 
L 172.711612 235.838234 
L 172.876446 235.838234 
L 172.958324 235.502566 
L 173.201843 235.502566 
L 173.201843 235.334731 
L 173.7385 235.334731 
L 173.77765 234.663393 
L 174.049442 234.663393 
L 174.145567 233.824221 
L 174.487605 233.824221 
L 174.487605 233.488552 
L 174.656319 233.488552 
L 174.7494 232.985048 
L 174.786503 232.985048 
L 174.786503 232.649379 
L 175.460042 232.649379 
L 175.460042 232.481545 
L 175.971592 232.481545 
L 175.971592 232.145876 
L 176.888582 232.145876 
L 176.888582 231.810207 
L 177.651866 231.810207 
L 177.651866 231.642372 
L 177.841883 231.642372 
L 177.841883 231.138869 
L 178.446509 231.138869 
L 178.446509 230.8032 
L 178.643809 230.8032 
L 178.643809 230.635366 
L 179.091369 230.635366 
L 179.091369 230.467531 
L 179.771814 230.467531 
L 179.771814 230.131862 
L 180.082057 230.131862 
L 180.082057 229.796193 
L 180.943179 229.796193 
L 180.943179 229.460524 
L 181.155741 229.460524 
L 181.155741 229.29269 
L 181.868631 229.29269 
L 181.868631 228.957021 
L 182.121308 228.957021 
L 182.121308 228.453517 
L 182.506372 228.453517 
L 182.506372 228.117848 
L 182.628923 228.117848 
L 182.628923 227.782179 
L 183.027769 227.782179 
L 183.111297 227.110841 
L 183.430044 227.110841 
L 183.430044 226.943007 
L 184.11961 226.943007 
L 184.11961 226.607338 
L 184.532577 226.607338 
L 184.532577 226.271669 
L 184.752084 226.271669 
L 184.806563 225.768166 
L 185.342847 225.768166 
L 185.342847 225.600331 
L 185.636619 225.600331 
L 185.636619 225.432497 
L 186.431592 225.432497 
L 186.431592 225.096828 
L 186.689288 225.096828 
L 186.689288 224.928993 
L 187.059683 224.928993 
L 187.098251 224.42549 
L 187.356538 224.42549 
L 187.385018 223.921986 
L 187.890434 223.921986 
L 187.945762 223.418483 
L 189.11489 223.418483 
L 189.11489 223.082814 
L 189.440862 223.082814 
L 189.457863 222.57931 
L 189.694277 222.57931 
L 189.769641 222.075807 
L 190.068111 222.075807 
L 190.068111 221.907972 
L 190.746661 221.907972 
L 190.817932 221.236634 
L 191.147005 221.236634 
L 191.201295 220.733131 
L 191.840843 220.733131 
L 191.945352 220.229628 
L 192.335815 220.229628 
L 192.335815 220.061793 
L 192.931463 220.061793 
L 193.037126 219.55829 
L 193.801117 219.55829 
L 193.801117 219.222621 
L 194.128748 219.222621 
L 194.128748 219.054786 
L 194.541773 219.054786 
L 194.593578 218.551283 
L 194.875981 218.551283 
L 194.914164 218.047779 
L 194.990298 218.047779 
L 194.990298 217.879945 
L 195.223125 217.879945 
L 195.223125 217.71211 
L 195.808051 217.71211 
L 195.808051 217.544276 
L 196.416468 217.544276 
L 196.480921 217.208607 
L 197.011509 217.208607 
L 197.028561 216.872938 
L 197.153142 216.872938 
L 197.153142 216.537269 
L 198.019017 216.537269 
L 198.019017 216.2016 
L 198.360861 216.2016 
L 198.450628 215.530262 
L 198.831305 215.530262 
L 198.831305 215.194593 
L 199.006011 215.194593 
L 199.113112 214.69109 
L 199.340582 214.69109 
L 199.39076 213.851917 
L 199.480743 213.851917 
L 199.480743 213.516248 
L 200.161491 213.516248 
L 200.161491 213.348414 
L 200.514099 213.348414 
L 200.514099 213.180579 
L 200.767299 213.180579 
L 200.767299 213.012745 
L 201.502593 213.012745 
L 201.502593 212.677076 
L 201.654264 212.677076 
L 201.654264 212.341407 
L 202.010746 212.341407 
L 202.062988 211.837903 
L 202.783727 211.837903 
L 202.783727 210.663062 
L 202.958642 210.663062 
L 202.958642 210.327393 
L 203.107286 210.327393 
L 203.123729 209.991724 
L 203.372731 209.991724 
L 203.372731 209.82389 
L 203.598456 209.82389 
L 203.606467 209.152552 
L 204.158976 209.152552 
L 204.158976 208.816883 
L 204.669242 208.816883 
L 204.669242 208.481214 
L 204.947269 208.481214 
L 204.991969 208.145545 
L 360.8064 208.145545 
L 360.8064 208.145545 
" style="fill: none; stroke: #00bfbf; stroke-width: 1.5; stroke-linecap: square"/>
   </g>
   <g id="line2d_31">
    <defs>
     <path id="m3da9297a6a" d="M -6 0 
L 6 0 
M 0 6 
L 0 -6 
" style="stroke: #00bfbf; stroke-width: 1.5"/>
    </defs>
    <g>
     <use xlink:href="#m3da9297a6a" x="78.266603" y="283.335393" style="fill-opacity: 0; stroke: #00bfbf; stroke-width: 1.5"/>
     <use xlink:href="#m3da9297a6a" x="142.45627" y="261.51691" style="fill-opacity: 0; stroke: #00bfbf; stroke-width: 1.5"/>
     <use xlink:href="#m3da9297a6a" x="181.868631" y="229.29269" style="fill-opacity: 0; stroke: #00bfbf; stroke-width: 1.5"/>
     <use xlink:href="#m3da9297a6a" x="204.991969" y="208.313379" style="fill-opacity: 0; stroke: #00bfbf; stroke-width: 1.5"/>
     <use xlink:href="#m3da9297a6a" x="204.991969" y="208.145545" style="fill-opacity: 0; stroke: #00bfbf; stroke-width: 1.5"/>
     <use xlink:href="#m3da9297a6a" x="360.8064" y="208.145545" style="fill-opacity: 0; stroke: #00bfbf; stroke-width: 1.5"/>
    </g>
   </g>
   <g id="line2d_32">
    <path style="fill: none; stroke: #00bfbf; stroke-width: 1.5; stroke-linecap: square"/>
    <g/>
   </g>
   <g id="line2d_33">
    <path d="M 205.158657 208.145545 
" clip-path="url(#pa501ba3d45)" style="fill: none; stroke: #00bfbf; stroke-width: 1.5; stroke-linecap: square"/>
    <defs>
     <path id="m585d9ebcb0" d="M -12 12 
L 12 -12 
M -12 -12 
L 12 12 
" style="stroke: #00bfbf"/>
    </defs>
    <g clip-path="url(#pa501ba3d45)">
     <use xlink:href="#m585d9ebcb0" x="205.158657" y="208.145545" style="fill: #00bfbf; stroke: #00bfbf"/>
    </g>
   </g>
   <g id="line2d_34">
    <defs>
     <path id="m226f0da780" d="M 0 1.5 
C 0.397805 1.5 0.77937 1.341951 1.06066 1.06066 
C 1.341951 0.77937 1.5 0.397805 1.5 0 
C 1.5 -0.397805 1.341951 -0.77937 1.06066 -1.06066 
C 0.77937 -1.341951 0.397805 -1.5 0 -1.5 
C -0.397805 -1.5 -0.77937 -1.341951 -1.06066 -1.06066 
C -1.341951 -0.77937 -1.5 -0.397805 -1.5 0 
C -1.5 0.397805 -1.341951 0.77937 -1.06066 1.06066 
C -0.77937 1.341951 -0.397805 1.5 0 1.5 
z
" style="stroke: #008000"/>
    </defs>
    <g>
     <use xlink:href="#m226f0da780" x="197.49801" y="236.677407" style="fill: #008000; stroke: #008000"/>
     <use xlink:href="#m226f0da780" x="197.49801" y="236.677407" style="fill: #008000; stroke: #008000"/>
    </g>
   </g>
   <g id="line2d_35">
    <path d="M 36.933397 298.944 
L 36.933397 287.363421 
L 49.972572 287.363421 
L 49.972572 287.195586 
L 67.209423 287.195586 
L 67.209423 287.027752 
L 70.639174 287.027752 
L 70.639174 286.692083 
L 78.266603 286.692083 
L 78.266603 286.524248 
L 89.090095 286.524248 
L 89.090095 286.188579 
L 92.322865 286.188579 
L 92.322865 286.020745 
L 95.080704 286.020745 
L 95.080704 284.678069 
L 95.916911 284.678069 
L 95.916911 284.3424 
L 96.717523 284.3424 
L 96.717523 284.174566 
L 98.223251 284.174566 
L 98.223251 283.503228 
L 100.9152 283.503228 
L 100.9152 283.167559 
L 102.12927 283.167559 
L 102.12927 282.999724 
L 102.708132 282.999724 
L 102.708132 282.83189 
L 103.815014 282.83189 
L 103.815014 282.664055 
L 105.36204 282.664055 
L 105.36204 282.496221 
L 105.850679 282.496221 
L 105.850679 282.328386 
L 108.542628 282.328386 
L 108.542628 282.160552 
L 110.144579 282.160552 
L 110.144579 281.992717 
L 110.897141 281.992717 
L 110.897141 281.824883 
L 111.262425 281.824883 
L 111.262425 281.657048 
L 111.620752 281.657048 
L 111.620752 281.321379 
L 111.97238 281.321379 
L 111.97238 281.153545 
L 112.656511 281.153545 
L 112.656511 280.650041 
L 112.989468 280.650041 
L 112.989468 280.314372 
L 113.638206 280.314372 
L 113.638206 279.978703 
L 113.954374 279.978703 
L 113.954374 279.810869 
L 116.583514 279.810869 
L 116.583514 279.643034 
L 117.899543 279.643034 
L 117.899543 279.307366 
L 118.152051 279.307366 
L 118.152051 279.139531 
L 119.599808 279.139531 
L 119.599808 278.971697 
L 121.371615 278.971697 
L 121.371615 278.636028 
L 122.990812 278.636028 
L 122.990812 278.300359 
L 125.695686 278.300359 
L 125.695686 277.96469 
L 127.610376 277.96469 
L 127.610376 277.796855 
L 128.060076 277.796855 
L 128.060076 277.629021 
L 128.643427 277.629021 
L 128.643427 277.461186 
L 130.553485 277.461186 
L 130.553485 277.293352 
L 130.938718 277.293352 
L 130.938718 277.125517 
L 131.686295 277.125517 
L 131.686295 276.957683 
L 131.929028 276.957683 
L 131.929028 276.622014 
L 132.869802 276.622014 
L 132.869802 276.454179 
L 135.438999 276.454179 
L 135.438999 276.286345 
L 135.736814 276.286345 
L 135.736814 276.11851 
L 136.97549 276.11851 
L 137.067478 275.615007 
L 137.875736 275.615007 
L 137.875736 275.279338 
L 138.566146 275.279338 
L 138.650692 274.775834 
L 139.150143 274.775834 
L 139.232111 274.440166 
L 139.796097 274.440166 
L 139.796097 274.272331 
L 140.26641 274.272331 
L 140.343665 273.768828 
L 140.649551 273.768828 
L 140.649551 273.600993 
L 141.025043 273.600993 
L 141.025043 273.265324 
L 141.393187 273.265324 
L 141.393187 272.929655 
L 143.133017 272.929655 
L 143.133017 272.761821 
L 143.331383 272.761821 
L 143.331383 272.090483 
L 143.462475 272.090483 
L 143.52768 271.419145 
L 144.2304 271.419145 
L 144.2304 271.25131 
L 144.479563 271.25131 
L 144.541342 270.747807 
L 145.678157 270.747807 
L 145.678157 270.579972 
L 145.79392 270.579972 
L 145.79392 270.412138 
L 146.750169 270.412138 
L 146.804934 269.908634 
L 146.913986 269.908634 
L 146.913986 269.7408 
L 147.343984 269.7408 
L 147.343984 269.572966 
L 147.712333 269.572966 
L 147.712333 269.069462 
L 149.31003 269.069462 
L 149.31003 268.901628 
L 149.829328 268.901628 
L 149.829328 268.733793 
L 152.024303 268.733793 
L 152.024303 268.398124 
L 152.1482 268.398124 
L 152.1482 268.23029 
L 152.393571 268.23029 
L 152.393571 268.062455 
L 152.675851 268.062455 
L 152.75573 267.726786 
L 153.228011 267.726786 
L 153.228011 267.391117 
L 153.344252 267.391117 
L 153.344252 267.223283 
L 154.24919 267.223283 
L 154.24919 267.055448 
L 154.757642 267.055448 
L 154.86483 266.551945 
L 155.357123 266.551945 
L 155.357123 266.216276 
L 155.564225 266.216276 
L 155.564225 266.048441 
L 156.072219 266.048441 
L 156.072219 265.880607 
L 156.664239 265.880607 
L 156.761123 265.377103 
L 156.921495 265.377103 
L 156.921495 265.209269 
L 157.112155 265.209269 
L 157.112155 265.041434 
L 157.332175 265.041434 
L 157.332175 264.8736 
L 158.365703 264.8736 
L 158.365703 264.705766 
L 159.596403 264.705766 
L 159.624087 264.202262 
L 159.761902 264.202262 
L 159.871431 263.36309 
L 160.088594 263.36309 
L 160.088594 263.195255 
L 160.276577 263.195255 
L 160.276577 263.027421 
L 160.409709 263.027421 
L 160.409709 262.523917 
L 160.907191 262.523917 
L 160.907191 262.356083 
L 161.087207 262.356083 
L 161.087207 262.188248 
L 161.666845 262.188248 
L 161.765853 261.852579 
L 162.610645 261.852579 
L 162.610645 261.684745 
L 162.751732 261.684745 
L 162.798527 261.181241 
L 162.961399 261.181241 
L 162.961399 260.845572 
L 163.419123 260.845572 
L 163.419123 260.677738 
L 163.554297 260.677738 
L 163.554297 260.509903 
L 163.73303 260.509903 
L 163.73303 260.342069 
L 163.932096 260.342069 
L 163.932096 260.174234 
L 164.259262 260.174234 
L 164.259262 259.838566 
L 164.623299 259.838566 
L 164.623299 259.670731 
L 164.980424 259.670731 
L 164.980424 259.335062 
L 165.104867 259.335062 
L 165.207944 258.831559 
L 165.228492 258.831559 
L 165.228492 258.663724 
L 165.432746 258.663724 
L 165.432746 258.328055 
L 165.614697 258.328055 
L 165.614697 257.992386 
L 166.012839 257.992386 
L 166.012839 257.824552 
L 166.267186 257.824552 
L 166.267186 257.488883 
L 166.784704 257.488883 
L 166.784704 257.321048 
L 167.01022 257.321048 
L 167.01022 257.153214 
L 167.670986 257.153214 
L 167.778892 256.481876 
L 168.842171 256.481876 
L 168.842171 256.314041 
L 169.458999 256.314041 
L 169.540824 255.810538 
L 170.008516 255.810538 
L 170.008516 255.642703 
L 170.182919 255.642703 
L 170.230204 255.307034 
L 170.511445 255.307034 
L 170.588827 254.971366 
L 171.046551 254.971366 
L 171.046551 254.803531 
L 171.566857 254.803531 
L 171.566857 254.467862 
L 172.300147 254.467862 
L 172.300147 254.300028 
L 172.965131 254.300028 
L 172.965131 253.964359 
L 173.10076 253.964359 
L 173.10076 253.62869 
L 173.342453 253.62869 
L 173.342453 253.460855 
L 173.7385 253.460855 
L 173.7385 253.293021 
L 174.805028 253.293021 
L 174.866645 252.789517 
L 175.340451 252.789517 
L 175.424244 252.286014 
L 175.638014 252.286014 
L 175.638014 251.950345 
L 175.802616 251.950345 
L 175.802616 251.614676 
L 176.116053 251.614676 
L 176.207929 251.279007 
L 176.705378 251.279007 
L 176.705378 251.111172 
L 177.04812 251.111172 
L 177.04812 250.775503 
L 177.179135 250.775503 
L 177.276801 250.439834 
L 177.341632 250.439834 
L 177.341632 250.272 
L 177.470626 250.272 
L 177.481335 249.936331 
L 177.641253 249.936331 
L 177.72599 249.432828 
L 178.081923 249.432828 
L 178.081923 249.264993 
L 178.492224 249.264993 
L 178.573221 248.929324 
L 178.893767 248.929324 
L 178.893767 248.76149 
L 179.470823 248.76149 
L 179.470823 248.593655 
L 180.086719 248.593655 
L 180.142567 248.257986 
L 180.791148 248.257986 
L 180.791148 248.090152 
L 181.049761 248.090152 
L 181.049761 247.922317 
L 181.357217 247.922317 
L 181.357217 247.586648 
L 181.50476 247.586648 
L 181.50476 247.418814 
L 181.830435 247.418814 
L 181.830435 247.083145 
L 182.083622 247.083145 
L 182.175611 246.579641 
L 182.358249 246.579641 
L 182.358249 246.411807 
L 182.693959 246.411807 
L 182.693959 246.076138 
L 182.959879 246.076138 
L 182.959879 245.908303 
L 184.265742 245.908303 
L 184.325367 245.236966 
L 184.407043 245.236966 
L 184.407043 245.069131 
L 185.140856 245.069131 
L 185.183561 244.229959 
L 185.402672 244.229959 
L 185.402672 244.062124 
L 185.799012 244.062124 
L 185.799012 243.89429 
L 186.207383 243.89429 
L 186.207383 243.726455 
L 187.558137 243.726455 
L 187.558137 243.390786 
L 188.331576 243.390786 
L 188.331576 243.055117 
L 188.612127 243.055117 
L 188.612127 242.719448 
L 189.039748 242.719448 
L 189.039748 242.551614 
L 189.503124 242.551614 
L 189.503124 242.383779 
L 189.777996 242.383779 
L 189.777996 242.215945 
L 190.380806 242.215945 
L 190.445414 241.880276 
L 190.78101 241.880276 
L 190.78101 241.544607 
L 190.928264 241.544607 
L 190.928264 241.208938 
L 191.063975 241.208938 
L 191.063975 241.041103 
L 191.516173 241.041103 
L 191.516173 240.873269 
L 192.277394 240.873269 
L 192.330954 240.369766 
L 192.567702 240.369766 
L 192.567702 240.201931 
L 192.820466 240.201931 
L 192.853597 239.698428 
L 193.540769 239.698428 
L 193.554442 239.362759 
L 193.937766 239.362759 
L 193.937766 239.02709 
L 194.387677 239.02709 
L 194.465968 238.523586 
L 194.797249 238.523586 
L 194.797249 238.187917 
L 195.438686 238.187917 
L 195.438686 237.852248 
L 196.253375 237.852248 
L 196.253375 237.516579 
L 196.441885 237.516579 
L 196.441885 237.348745 
L 196.905057 237.348745 
L 196.912681 237.013076 
L 197.420268 237.013076 
L 197.49801 236.677407 
L 360.8064 236.677407 
L 360.8064 236.677407 
" style="fill: none; stroke: #008000; stroke-width: 1.5; stroke-linecap: square"/>
   </g>
   <g id="line2d_36">
    <defs>
     <path id="m7c92a37bec" d="M -0 6 
L 6 -6 
L -6 -6 
z
" style="stroke: #008000; stroke-width: 1.5; stroke-linejoin: miter"/>
    </defs>
    <g>
     <use xlink:href="#m7c92a37bec" x="96.717523" y="284.174566" style="fill-opacity: 0; stroke: #008000; stroke-width: 1.5; stroke-linejoin: miter"/>
     <use xlink:href="#m7c92a37bec" x="160.409709" y="262.523917" style="fill-opacity: 0; stroke: #008000; stroke-width: 1.5; stroke-linejoin: miter"/>
     <use xlink:href="#m7c92a37bec" x="197.49801" y="236.845241" style="fill-opacity: 0; stroke: #008000; stroke-width: 1.5; stroke-linejoin: miter"/>
     <use xlink:href="#m7c92a37bec" x="197.49801" y="236.677407" style="fill-opacity: 0; stroke: #008000; stroke-width: 1.5; stroke-linejoin: miter"/>
     <use xlink:href="#m7c92a37bec" x="197.49801" y="236.677407" style="fill-opacity: 0; stroke: #008000; stroke-width: 1.5; stroke-linejoin: miter"/>
     <use xlink:href="#m7c92a37bec" x="360.8064" y="236.677407" style="fill-opacity: 0; stroke: #008000; stroke-width: 1.5; stroke-linejoin: miter"/>
    </g>
   </g>
   <g id="line2d_37">
    <path style="fill: none; stroke: #008000; stroke-width: 1.5; stroke-linecap: square"/>
    <g/>
   </g>
   <g id="line2d_38">
    <path d="M 197.531229 236.677407 
" clip-path="url(#pa501ba3d45)" style="fill: none; stroke: #008000; stroke-width: 1.5; stroke-linecap: square"/>
    <defs>
     <path id="me04ef87741" d="M -12 12 
L 12 -12 
M -12 -12 
L 12 12 
" style="stroke: #008000"/>
    </defs>
    <g clip-path="url(#pa501ba3d45)">
     <use xlink:href="#me04ef87741" x="197.531229" y="236.677407" style="fill: #008000; stroke: #008000"/>
    </g>
   </g>
   <g id="line2d_39">
    <defs>
     <path id="m3b77ef4c9a" d="M 0 1.5 
C 0.397805 1.5 0.77937 1.341951 1.06066 1.06066 
C 1.341951 0.77937 1.5 0.397805 1.5 0 
C 1.5 -0.397805 1.341951 -0.77937 1.06066 -1.06066 
C 0.77937 -1.341951 0.397805 -1.5 0 -1.5 
C -0.397805 -1.5 -0.77937 -1.341951 -1.06066 -1.06066 
C -1.341951 -0.77937 -1.5 -0.397805 -1.5 0 
C -1.5 0.397805 -1.341951 0.77937 -1.06066 1.06066 
C -0.77937 1.341951 -0.397805 1.5 0 1.5 
z
" style="stroke: #0000ff"/>
    </defs>
    <g>
     <use xlink:href="#m3b77ef4c9a" x="186.844181" y="262.859586" style="fill: #0000ff; stroke: #0000ff"/>
     <use xlink:href="#m3b77ef4c9a" x="186.844181" y="262.859586" style="fill: #0000ff; stroke: #0000ff"/>
    </g>
   </g>
   <g id="line2d_40">
    <path d="M 27.323974 298.944 
L 27.323974 287.027752 
L 47.990577 287.027752 
L 47.990577 286.859917 
L 84.596168 286.859917 
L 84.596168 286.692083 
L 88.613828 286.692083 
L 88.613828 286.524248 
L 90.668036 286.524248 
L 90.668036 286.356414 
L 91.305777 286.356414 
L 91.305777 286.020745 
L 95.250946 286.020745 
L 95.250946 285.85291 
L 99.751228 285.85291 
L 99.751228 285.685076 
L 102.708132 285.685076 
L 102.708132 285.517241 
L 107.244765 285.517241 
L 107.244765 285.349407 
L 112.180244 285.349407 
L 112.180244 285.181572 
L 112.589207 285.181572 
L 112.589207 284.845903 
L 118.450653 284.845903 
L 118.450653 284.678069 
L 124.801367 284.678069 
L 124.801367 284.174566 
L 126.899255 284.174566 
L 126.899255 283.838897 
L 127.911368 283.838897 
L 127.911368 283.671062 
L 128.089678 283.671062 
L 128.178203 282.999724 
L 128.354013 282.999724 
L 128.354013 282.664055 
L 129.947033 282.664055 
L 129.947033 282.496221 
L 130.186674 282.496221 
L 130.186674 281.992717 
L 134.87014 281.992717 
L 134.87014 281.489214 
L 134.993495 281.489214 
L 134.993495 281.153545 
L 135.35878 281.153545 
L 135.35878 280.98571 
L 141.217377 280.98571 
L 141.217377 280.817876 
L 141.825656 280.817876 
L 141.825656 280.482207 
L 142.290162 280.482207 
L 142.290162 280.146538 
L 142.45627 280.146538 
L 142.45627 279.978703 
L 144.602918 279.978703 
L 144.602918 279.810869 
L 145.148219 279.810869 
L 145.148219 279.643034 
L 146.193574 279.643034 
L 146.193574 279.4752 
L 146.395851 279.4752 
L 146.395851 279.307366 
L 146.529503 279.307366 
L 146.529503 278.971697 
L 147.940229 278.971697 
L 147.940229 278.636028 
L 148.903591 278.636028 
L 148.903591 278.468193 
L 149.281288 278.468193 
L 149.281288 278.300359 
L 149.538397 278.300359 
L 149.538397 277.96469 
L 150.693856 277.96469 
L 150.693856 277.796855 
L 151.782431 277.796855 
L 151.782431 277.629021 
L 153.118868 277.629021 
L 153.118868 277.461186 
L 153.375128 277.461186 
L 153.375128 277.293352 
L 153.58223 277.293352 
L 153.58223 277.125517 
L 154.628204 277.125517 
L 154.628204 276.789848 
L 154.928852 276.789848 
L 154.928852 276.622014 
L 155.28758 276.622014 
L 155.329337 275.950676 
L 156.065535 275.950676 
L 156.065535 275.782841 
L 156.383708 275.782841 
L 156.383708 275.615007 
L 157.099504 275.615007 
L 157.099504 275.447172 
L 157.475372 275.447172 
L 157.475372 275.279338 
L 157.898535 275.279338 
L 157.898535 275.111503 
L 159.468527 275.111503 
L 159.552023 274.775834 
L 159.865969 274.775834 
L 159.865969 274.608 
L 161.721364 274.608 
L 161.765853 273.768828 
L 162.789177 273.768828 
L 162.845206 273.433159 
L 163.109086 273.433159 
L 163.136649 272.929655 
L 163.342092 272.929655 
L 163.342092 272.761821 
L 163.905675 272.761821 
L 163.905675 272.426152 
L 165.330896 272.426152 
L 165.330896 272.258317 
L 165.586508 272.258317 
L 165.586508 271.922648 
L 166.146311 271.922648 
L 166.146311 271.754814 
L 166.518139 271.754814 
L 166.518139 271.586979 
L 167.207201 271.586979 
L 167.306762 271.25131 
L 167.54794 271.25131 
L 167.54794 271.083476 
L 167.818303 271.083476 
L 167.818303 270.747807 
L 168.211442 270.747807 
L 168.211442 270.579972 
L 168.740211 270.579972 
L 168.740211 270.412138 
L 169.333939 270.412138 
L 169.432739 270.076469 
L 169.452437 270.076469 
L 169.452437 269.908634 
L 170.718116 269.908634 
L 170.718116 269.7408 
L 171.298095 269.7408 
L 171.307016 269.405131 
L 172.195505 269.405131 
L 172.305787 268.901628 
L 172.457426 268.901628 
L 172.457426 268.733793 
L 173.879061 268.733793 
L 173.879061 268.565959 
L 174.671243 268.565959 
L 174.671243 268.398124 
L 175.106254 268.398124 
L 175.106254 268.23029 
L 175.417077 268.23029 
L 175.417077 268.062455 
L 176.016783 268.062455 
L 176.016783 267.894621 
L 176.21022 267.894621 
L 176.292516 267.558952 
L 176.651746 267.558952 
L 176.725451 267.223283 
L 177.272471 267.223283 
L 177.272471 267.055448 
L 177.498458 267.055448 
L 177.498458 266.887614 
L 178.901711 266.887614 
L 178.901711 266.551945 
L 179.067766 266.551945 
L 179.103159 266.216276 
L 179.290807 266.216276 
L 179.290807 266.048441 
L 179.871084 266.048441 
L 179.871084 265.712772 
L 180.006379 265.712772 
L 180.051262 265.377103 
L 182.188953 265.377103 
L 182.188953 265.209269 
L 182.633809 265.209269 
L 182.731253 264.705766 
L 183.347923 264.705766 
L 183.347923 264.537931 
L 184.283649 264.537931 
L 184.283649 264.202262 
L 185.007851 264.202262 
L 185.007851 264.034428 
L 185.433566 264.034428 
L 185.433566 263.866593 
L 185.890987 263.866593 
L 185.890987 263.530924 
L 186.148041 263.530924 
L 186.148041 263.36309 
L 186.405627 263.36309 
L 186.405627 263.195255 
L 186.828554 263.195255 
L 186.844181 262.859586 
L 360.8064 262.859586 
L 360.8064 262.859586 
" style="fill: none; stroke: #0000ff; stroke-width: 1.5; stroke-linecap: square"/>
   </g>
   <g id="line2d_41">
    <defs>
     <path id="m3118bb9653" d="M 0 -6 
L -1.347084 -1.854102 
L -5.706339 -1.854102 
L -2.179628 0.708204 
L -3.526712 4.854102 
L -0 2.291796 
L 3.526712 4.854102 
L 2.179628 0.708204 
L 5.706339 -1.854102 
L 1.347084 -1.854102 
z
" style="stroke: #0000ff; stroke-width: 1.5; stroke-linejoin: bevel"/>
    </defs>
    <g>
     <use xlink:href="#m3118bb9653" x="162.845206" y="273.433159" style="fill-opacity: 0; stroke: #0000ff; stroke-width: 1.5; stroke-linejoin: bevel"/>
     <use xlink:href="#m3118bb9653" x="186.844181" y="263.027421" style="fill-opacity: 0; stroke: #0000ff; stroke-width: 1.5; stroke-linejoin: bevel"/>
     <use xlink:href="#m3118bb9653" x="186.844181" y="262.859586" style="fill-opacity: 0; stroke: #0000ff; stroke-width: 1.5; stroke-linejoin: bevel"/>
     <use xlink:href="#m3118bb9653" x="186.844181" y="262.859586" style="fill-opacity: 0; stroke: #0000ff; stroke-width: 1.5; stroke-linejoin: bevel"/>
     <use xlink:href="#m3118bb9653" x="360.8064" y="262.859586" style="fill-opacity: 0; stroke: #0000ff; stroke-width: 1.5; stroke-linejoin: bevel"/>
    </g>
   </g>
   <g id="line2d_42">
    <path style="fill: none; stroke: #0000ff; stroke-width: 1.5; stroke-linecap: square"/>
    <g/>
   </g>
   <g id="line2d_43">
    <path d="M 187.921806 262.859586 
" clip-path="url(#pa501ba3d45)" style="fill: none; stroke: #0000ff; stroke-width: 1.5; stroke-linecap: square"/>
    <defs>
     <path id="madef36b062" d="M -12 12 
L 12 -12 
M -12 -12 
L 12 12 
" style="stroke: #0000ff"/>
    </defs>
    <g clip-path="url(#pa501ba3d45)">
     <use xlink:href="#madef36b062" x="187.921806" y="262.859586" style="fill: #0000ff; stroke: #0000ff"/>
    </g>
   </g>
   <g id="line2d_44">
    <defs>
     <path id="m7552296f26" d="M 0 1.5 
C 0.397805 1.5 0.77937 1.341951 1.06066 1.06066 
C 1.341951 0.77937 1.5 0.397805 1.5 0 
C 1.5 -0.397805 1.341951 -0.77937 1.06066 -1.06066 
C 0.77937 -1.341951 0.397805 -1.5 0 -1.5 
C -0.397805 -1.5 -0.77937 -1.341951 -1.06066 -1.06066 
C -1.341951 -0.77937 -1.5 -0.397805 -1.5 0 
C -1.5 0.397805 -1.341951 0.77937 -1.06066 1.06066 
C -0.77937 1.341951 -0.397805 1.5 0 1.5 
z
" style="stroke: #000000"/>
    </defs>
    <g>
     <use xlink:href="#m7552296f26" x="173.60083" y="283.503228" style="stroke: #000000"/>
     <use xlink:href="#m7552296f26" x="173.60083" y="283.503228" style="stroke: #000000"/>
    </g>
   </g>
   <g id="line2d_45">
    <path d="M 14.2848 298.944 
L 14.2848 286.524248 
L 62.535479 286.524248 
L 62.535479 286.356414 
L 87.495981 286.356414 
L 87.495981 286.188579 
L 141.349389 286.188579 
L 141.349389 286.020745 
L 154.134722 286.020745 
L 154.134722 285.85291 
L 156.667477 285.85291 
L 156.667477 285.685076 
L 159.939564 285.685076 
L 159.939564 285.517241 
L 159.996606 285.517241 
L 159.996606 285.349407 
L 160.644379 285.349407 
L 160.644379 285.181572 
L 163.686277 285.181572 
L 163.686277 285.013738 
L 166.362169 285.013738 
L 166.362169 284.845903 
L 167.38933 284.845903 
L 167.38933 284.510234 
L 170.83738 284.510234 
L 170.83738 284.3424 
L 170.846523 284.3424 
L 170.846523 284.174566 
L 172.432238 284.174566 
L 172.432238 284.006731 
L 172.99913 284.006731 
L 172.99913 283.838897 
L 173.039848 283.838897 
L 173.039848 283.671062 
L 173.60083 283.671062 
L 173.60083 283.503228 
L 360.8064 283.503228 
" style="fill: none; stroke: #000000; stroke-width: 1.5; stroke-linecap: square"/>
   </g>
   <g id="line2d_46">
    <defs>
     <path id="m5624811fb8" d="M 0 6 
C 1.591219 6 3.117479 5.367802 4.242641 4.242641 
C 5.367802 3.117479 6 1.591219 6 0 
C 6 -1.591219 5.367802 -3.117479 4.242641 -4.242641 
C 3.117479 -5.367802 1.591219 -6 0 -6 
C -1.591219 -6 -3.117479 -5.367802 -4.242641 -4.242641 
C -5.367802 -3.117479 -6 -1.591219 -6 0 
C -6 1.591219 -5.367802 3.117479 -4.242641 4.242641 
C -3.117479 5.367802 -1.591219 6 0 6 
z
" style="stroke: #000000; stroke-width: 1.5"/>
    </defs>
    <g>
     <use xlink:href="#m5624811fb8" x="87.495981" y="286.356414" style="fill-opacity: 0; stroke: #000000; stroke-width: 1.5"/>
     <use xlink:href="#m5624811fb8" x="173.60083" y="283.671062" style="fill-opacity: 0; stroke: #000000; stroke-width: 1.5"/>
     <use xlink:href="#m5624811fb8" x="173.60083" y="283.503228" style="fill-opacity: 0; stroke: #000000; stroke-width: 1.5"/>
     <use xlink:href="#m5624811fb8" x="173.60083" y="283.503228" style="fill-opacity: 0; stroke: #000000; stroke-width: 1.5"/>
     <use xlink:href="#m5624811fb8" x="360.8064" y="283.503228" style="fill-opacity: 0; stroke: #000000; stroke-width: 1.5"/>
    </g>
   </g>
   <g id="line2d_47">
    <path style="fill: none; stroke: #000000; stroke-width: 1.5; stroke-linecap: square"/>
    <g/>
   </g>
   <g id="line2d_48">
    <path d="M 174.882632 283.503228 
" clip-path="url(#pa501ba3d45)" style="fill: none; stroke: #000000; stroke-width: 1.5; stroke-linecap: square"/>
    <defs>
     <path id="m2de5a9206a" d="M -12 12 
L 12 -12 
M -12 -12 
L 12 12 
" style="stroke: #000000"/>
    </defs>
    <g clip-path="url(#pa501ba3d45)">
     <use xlink:href="#m2de5a9206a" x="174.882632" y="283.503228" style="stroke: #000000"/>
    </g>
   </g>
   <g id="line2d_49">
    <defs>
     <path id="m79581afa0f" d="M 0 1.5 
C 0.397805 1.5 0.77937 1.341951 1.06066 1.06066 
C 1.341951 0.77937 1.5 0.397805 1.5 0 
C 1.5 -0.397805 1.341951 -0.77937 1.06066 -1.06066 
C 0.77937 -1.341951 0.397805 -1.5 0 -1.5 
C -0.397805 -1.5 -0.77937 -1.341951 -1.06066 -1.06066 
C -1.341951 -0.77937 -1.5 -0.397805 -1.5 0 
C -1.5 0.397805 -1.341951 0.77937 -1.06066 1.06066 
C -0.77937 1.341951 -0.397805 1.5 0 1.5 
z
" style="stroke: #ff0000"/>
    </defs>
    <g>
     <use xlink:href="#m79581afa0f" x="1.245626" y="285.349407" style="fill: #ff0000; stroke: #ff0000"/>
     <use xlink:href="#m79581afa0f" x="1.245626" y="285.349407" style="fill: #ff0000; stroke: #ff0000"/>
    </g>
   </g>
   <g id="line2d_50">
    <path d="M 1.245626 298.944 
L 1.245626 285.349407 
L 360.8064 285.349407 
" style="fill: none; stroke: #ff0000; stroke-width: 1.5; stroke-linecap: square"/>
   </g>
   <g id="line2d_51">
    <defs>
     <path id="m4cea416050" d="M -6 6 
L 6 6 
L 6 -6 
L -6 -6 
z
" style="stroke: #ff0000; stroke-width: 1.5; stroke-linejoin: miter"/>
    </defs>
    <g>
     <use xlink:href="#m4cea416050" x="360.8064" y="285.349407" style="fill-opacity: 0; stroke: #ff0000; stroke-width: 1.5; stroke-linejoin: miter"/>
    </g>
   </g>
   <g id="line2d_52">
    <path style="fill: none; stroke: #ff0000; stroke-width: 1.5; stroke-linecap: square"/>
    <g/>
   </g>
   <g id="line2d_53">
    <path d="M 161.843457 285.349407 
" clip-path="url(#pa501ba3d45)" style="fill: none; stroke: #ff0000; stroke-width: 1.5; stroke-linecap: square"/>
    <defs>
     <path id="m38f1e167b9" d="M -12 12 
L 12 -12 
M -12 -12 
L 12 12 
" style="stroke: #ff0000"/>
    </defs>
    <g clip-path="url(#pa501ba3d45)">
     <use xlink:href="#m38f1e167b9" x="161.843457" y="285.349407" style="fill: #ff0000; stroke: #ff0000"/>
    </g>
   </g>
   <g id="line2d_54">
    <defs>
     <path id="mb62005af7b" d="M 0 1.5 
C 0.397805 1.5 0.77937 1.341951 1.06066 1.06066 
C 1.341951 0.77937 1.5 0.397805 1.5 0 
C 1.5 -0.397805 1.341951 -0.77937 1.06066 -1.06066 
C 0.77937 -1.341951 0.397805 -1.5 0 -1.5 
C -0.397805 -1.5 -0.77937 -1.341951 -1.06066 -1.06066 
C -1.341951 -0.77937 -1.5 -0.397805 -1.5 0 
C -1.5 0.397805 -1.341951 0.77937 -1.06066 1.06066 
C -0.77937 1.341951 -0.397805 1.5 0 1.5 
z
" style="stroke: #bf00bf"/>
    </defs>
    <g/>
   </g>
   <g id="line2d_55">
    <path d="M -1 285.85291 
L 360.8064 285.85291 
" style="fill: none; stroke: #bf00bf; stroke-width: 1.5; stroke-linecap: square"/>
   </g>
   <g id="line2d_56">
    <defs>
     <path id="m2613934c21" d="M 0 8.485281 
L 8.485281 0 
L 0 -8.485281 
L -8.485281 0 
z
" style="stroke: #bf00bf; stroke-width: 1.5; stroke-linejoin: miter"/>
    </defs>
    <g>
     <use xlink:href="#m2613934c21" x="360.8064" y="285.85291" style="fill-opacity: 0; stroke: #bf00bf; stroke-width: 1.5; stroke-linejoin: miter"/>
    </g>
   </g>
   <g id="line2d_57">
    <path style="fill: none; stroke: #bf00bf; stroke-width: 1.5; stroke-linecap: square"/>
    <g/>
   </g>
   <g id="line2d_58">
    <path d="M 148.804283 285.85291 
" clip-path="url(#pa501ba3d45)" style="fill: none; stroke: #bf00bf; stroke-width: 1.5; stroke-linecap: square"/>
    <defs>
     <path id="ma46c75db9b" d="M -12 12 
L 12 -12 
M -12 -12 
L 12 12 
" style="stroke: #bf00bf"/>
    </defs>
    <g clip-path="url(#pa501ba3d45)">
     <use xlink:href="#ma46c75db9b" x="148.804283" y="285.85291" style="fill: #bf00bf; stroke: #bf00bf"/>
    </g>
   </g>
   <g id="line2d_59">
    <path d="M 360.8064 285.85291 
L 380.514816 293.10336 
" style="fill: none; stroke: #bf00bf; stroke-width: 1.5; stroke-linecap: square"/>
    <g>
     <use xlink:href="#m2613934c21" x="360.8064" y="285.85291" style="fill-opacity: 0; stroke: #bf00bf; stroke-width: 1.5; stroke-linejoin: miter"/>
     <use xlink:href="#m2613934c21" x="380.514816" y="293.10336" style="fill-opacity: 0; stroke: #bf00bf; stroke-width: 1.5; stroke-linejoin: miter"/>
    </g>
   </g>
   <g id="line2d_60">
    <path d="M 360.8064 285.349407 
L 380.514816 237.033216 
" style="fill: none; stroke: #ff0000; stroke-width: 1.5; stroke-linecap: square"/>
    <g>
     <use xlink:href="#m4cea416050" x="360.8064" y="285.349407" style="fill-opacity: 0; stroke: #ff0000; stroke-width: 1.5; stroke-linejoin: miter"/>
     <use xlink:href="#m4cea416050" x="380.514816" y="237.033216" style="fill-opacity: 0; stroke: #ff0000; stroke-width: 1.5; stroke-linejoin: miter"/>
    </g>
   </g>
   <g id="line2d_61">
    <path d="M 360.8064 283.503228 
L 380.514816 180.963072 
" style="fill: none; stroke: #000000; stroke-width: 1.5; stroke-linecap: square"/>
    <g>
     <use xlink:href="#m5624811fb8" x="360.8064" y="283.503228" style="fill-opacity: 0; stroke: #000000; stroke-width: 1.5"/>
     <use xlink:href="#m5624811fb8" x="380.514816" y="180.963072" style="fill-opacity: 0; stroke: #000000; stroke-width: 1.5"/>
    </g>
   </g>
   <g id="line2d_62">
    <path d="M 360.8064 262.859586 
L 380.514816 124.892928 
" style="fill: none; stroke: #0000ff; stroke-width: 1.5; stroke-linecap: square"/>
    <g>
     <use xlink:href="#m3118bb9653" x="360.8064" y="262.859586" style="fill-opacity: 0; stroke: #0000ff; stroke-width: 1.5; stroke-linejoin: bevel"/>
     <use xlink:href="#m3118bb9653" x="380.514816" y="124.892928" style="fill-opacity: 0; stroke: #0000ff; stroke-width: 1.5; stroke-linejoin: bevel"/>
    </g>
   </g>
   <g id="line2d_63">
    <path d="M 360.8064 236.677407 
L 380.514816 68.822784 
" style="fill: none; stroke: #008000; stroke-width: 1.5; stroke-linecap: square"/>
    <g>
     <use xlink:href="#m7c92a37bec" x="360.8064" y="236.677407" style="fill-opacity: 0; stroke: #008000; stroke-width: 1.5; stroke-linejoin: miter"/>
     <use xlink:href="#m7c92a37bec" x="380.514816" y="68.822784" style="fill-opacity: 0; stroke: #008000; stroke-width: 1.5; stroke-linejoin: miter"/>
    </g>
   </g>
   <g id="line2d_64">
    <path d="M 360.8064 208.145545 
L 380.514816 12.75264 
" style="fill: none; stroke: #00bfbf; stroke-width: 1.5; stroke-linecap: square"/>
    <g>
     <use xlink:href="#m3da9297a6a" x="360.8064" y="208.145545" style="fill-opacity: 0; stroke: #00bfbf; stroke-width: 1.5"/>
     <use xlink:href="#m3da9297a6a" x="380.514816" y="12.75264" style="fill-opacity: 0; stroke: #00bfbf; stroke-width: 1.5"/>
    </g>
   </g>
   <g id="line2d_65">
    <path d="M 360.8064 298.944 
L 360.8064 6.912 
" style="fill: none; stroke: #000000; stroke-width: 1.5; stroke-linecap: square"/>
   </g>
   <g id="patch_3">
    <path d="M 57.6 298.944 
L 360.8064 298.944 
" style="fill: none; stroke: #000000; stroke-width: 0.8; stroke-linejoin: miter; stroke-linecap: square"/>
   </g>
   <g id="patch_4">
    <path d="M 57.6 6.912 
L 360.8064 6.912 
" style="fill: none; stroke: #000000; stroke-width: 0.8; stroke-linejoin: miter; stroke-linecap: square"/>
   </g>
   <g id="text_13">
    <!-- 40-D -->
    <g transform="translate(386.578944 296.966485)scale(0.14 -0.14)">
     <defs>
      <path id="DejaVuSans-44" d="M 1259 4147 
L 1259 519 
L 2022 519 
Q 2988 519 3436 956 
Q 3884 1394 3884 2338 
Q 3884 3275 3436 3711 
Q 2988 4147 2022 4147 
L 1259 4147 
z
M 628 4666 
L 1925 4666 
Q 3281 4666 3915 4102 
Q 4550 3538 4550 2338 
Q 4550 1131 3912 565 
Q 3275 0 1925 0 
L 628 0 
L 628 4666 
z
" transform="scale(0.015625)"/>
     </defs>
     <use xlink:href="#DejaVuSans-34"/>
     <use xlink:href="#DejaVuSans-30" x="63.623047"/>
     <use xlink:href="#DejaVuSans-2d" x="127.246094"/>
     <use xlink:href="#DejaVuSans-44" x="163.330078"/>
    </g>
   </g>
   <g id="text_14">
    <!-- 20-D -->
    <g transform="translate(386.578944 240.896341)scale(0.14 -0.14)">
     <use xlink:href="#DejaVuSans-32"/>
     <use xlink:href="#DejaVuSans-30" x="63.623047"/>
     <use xlink:href="#DejaVuSans-2d" x="127.246094"/>
     <use xlink:href="#DejaVuSans-44" x="163.330078"/>
    </g>
   </g>
   <g id="text_15">
    <!-- 10-D -->
    <g transform="translate(386.578944 184.826197)scale(0.14 -0.14)">
     <use xlink:href="#DejaVuSans-31"/>
     <use xlink:href="#DejaVuSans-30" x="63.623047"/>
     <use xlink:href="#DejaVuSans-2d" x="127.246094"/>
     <use xlink:href="#DejaVuSans-44" x="163.330078"/>
    </g>
   </g>
   <g id="text_16">
    <!-- 5-D -->
    <g transform="translate(386.578944 128.756053)scale(0.14 -0.14)">
     <defs>
      <path id="DejaVuSans-35" d="M 691 4666 
L 3169 4666 
L 3169 4134 
L 1269 4134 
L 1269 2991 
Q 1406 3038 1543 3061 
Q 1681 3084 1819 3084 
Q 2600 3084 3056 2656 
Q 3513 2228 3513 1497 
Q 3513 744 3044 326 
Q 2575 -91 1722 -91 
Q 1428 -91 1123 -41 
Q 819 9 494 109 
L 494 744 
Q 775 591 1075 516 
Q 1375 441 1709 441 
Q 2250 441 2565 725 
Q 2881 1009 2881 1497 
Q 2881 1984 2565 2268 
Q 2250 2553 1709 2553 
Q 1456 2553 1204 2497 
Q 953 2441 691 2322 
L 691 4666 
z
" transform="scale(0.015625)"/>
     </defs>
     <use xlink:href="#DejaVuSans-35"/>
     <use xlink:href="#DejaVuSans-2d" x="63.623047"/>
     <use xlink:href="#DejaVuSans-44" x="99.707031"/>
    </g>
   </g>
   <g id="text_17">
    <!-- 3-D -->
    <g transform="translate(386.578944 72.685909)scale(0.14 -0.14)">
     <defs>
      <path id="DejaVuSans-33" d="M 2597 2516 
Q 3050 2419 3304 2112 
Q 3559 1806 3559 1356 
Q 3559 666 3084 287 
Q 2609 -91 1734 -91 
Q 1441 -91 1130 -33 
Q 819 25 488 141 
L 488 750 
Q 750 597 1062 519 
Q 1375 441 1716 441 
Q 2309 441 2620 675 
Q 2931 909 2931 1356 
Q 2931 1769 2642 2001 
Q 2353 2234 1838 2234 
L 1294 2234 
L 1294 2753 
L 1863 2753 
Q 2328 2753 2575 2939 
Q 2822 3125 2822 3475 
Q 2822 3834 2567 4026 
Q 2313 4219 1838 4219 
Q 1578 4219 1281 4162 
Q 984 4106 628 3988 
L 628 4550 
Q 988 4650 1302 4700 
Q 1616 4750 1894 4750 
Q 2613 4750 3031 4423 
Q 3450 4097 3450 3541 
Q 3450 3153 3228 2886 
Q 3006 2619 2597 2516 
z
" transform="scale(0.015625)"/>
     </defs>
     <use xlink:href="#DejaVuSans-33"/>
     <use xlink:href="#DejaVuSans-2d" x="63.623047"/>
     <use xlink:href="#DejaVuSans-44" x="99.707031"/>
    </g>
   </g>
   <g id="text_18">
    <!-- 2-D -->
    <g transform="translate(386.578944 16.615765)scale(0.14 -0.14)">
     <use xlink:href="#DejaVuSans-32"/>
     <use xlink:href="#DejaVuSans-2d" x="63.623047"/>
     <use xlink:href="#DejaVuSans-44" x="99.707031"/>
    </g>
   </g>
   <g id="text_19">
    <!-- bbob-biobj f35, f36, f41 -->
    <g transform="translate(60.632064 17.582726)scale(0.102 -0.102)">
     <defs>
      <path id="DejaVuSans-62" d="M 3116 1747 
Q 3116 2381 2855 2742 
Q 2594 3103 2138 3103 
Q 1681 3103 1420 2742 
Q 1159 2381 1159 1747 
Q 1159 1113 1420 752 
Q 1681 391 2138 391 
Q 2594 391 2855 752 
Q 3116 1113 3116 1747 
z
M 1159 2969 
Q 1341 3281 1617 3432 
Q 1894 3584 2278 3584 
Q 2916 3584 3314 3078 
Q 3713 2572 3713 1747 
Q 3713 922 3314 415 
Q 2916 -91 2278 -91 
Q 1894 -91 1617 61 
Q 1341 213 1159 525 
L 1159 0 
L 581 0 
L 581 4863 
L 1159 4863 
L 1159 2969 
z
" transform="scale(0.015625)"/>
      <path id="DejaVuSans-6a" d="M 603 3500 
L 1178 3500 
L 1178 -63 
Q 1178 -731 923 -1031 
Q 669 -1331 103 -1331 
L -116 -1331 
L -116 -844 
L 38 -844 
Q 366 -844 484 -692 
Q 603 -541 603 -63 
L 603 3500 
z
M 603 4863 
L 1178 4863 
L 1178 4134 
L 603 4134 
L 603 4863 
z
" transform="scale(0.015625)"/>
     </defs>
     <use xlink:href="#DejaVuSans-62"/>
     <use xlink:href="#DejaVuSans-62" x="63.476562"/>
     <use xlink:href="#DejaVuSans-6f" x="126.953125"/>
     <use xlink:href="#DejaVuSans-62" x="188.134766"/>
     <use xlink:href="#DejaVuSans-2d" x="251.611328"/>
     <use xlink:href="#DejaVuSans-62" x="287.695312"/>
     <use xlink:href="#DejaVuSans-69" x="351.171875"/>
     <use xlink:href="#DejaVuSans-6f" x="378.955078"/>
     <use xlink:href="#DejaVuSans-62" x="440.136719"/>
     <use xlink:href="#DejaVuSans-6a" x="503.613281"/>
     <use xlink:href="#DejaVuSans-20" x="531.396484"/>
     <use xlink:href="#DejaVuSans-66" x="563.183594"/>
     <use xlink:href="#DejaVuSans-33" x="598.388672"/>
     <use xlink:href="#DejaVuSans-35" x="662.011719"/>
     <use xlink:href="#DejaVuSans-2c" x="725.634766"/>
     <use xlink:href="#DejaVuSans-20" x="757.421875"/>
     <use xlink:href="#DejaVuSans-66" x="789.208984"/>
     <use xlink:href="#DejaVuSans-33" x="824.414062"/>
     <use xlink:href="#DejaVuSans-36" x="888.037109"/>
     <use xlink:href="#DejaVuSans-2c" x="951.660156"/>
     <use xlink:href="#DejaVuSans-20" x="983.447266"/>
     <use xlink:href="#DejaVuSans-66" x="1015.234375"/>
     <use xlink:href="#DejaVuSans-34" x="1050.439453"/>
     <use xlink:href="#DejaVuSans-31" x="1114.0625"/>
    </g>
    <!-- 58 targets: 1..-1.0e-4 -->
    <g transform="translate(60.632064 29.004495)scale(0.102 -0.102)">
     <defs>
      <path id="DejaVuSans-3a" d="M 750 794 
L 1409 794 
L 1409 0 
L 750 0 
L 750 794 
z
M 750 3309 
L 1409 3309 
L 1409 2516 
L 750 2516 
L 750 3309 
z
" transform="scale(0.015625)"/>
     </defs>
     <use xlink:href="#DejaVuSans-35"/>
     <use xlink:href="#DejaVuSans-38" x="63.623047"/>
     <use xlink:href="#DejaVuSans-20" x="127.246094"/>
     <use xlink:href="#DejaVuSans-74" x="159.033203"/>
     <use xlink:href="#DejaVuSans-61" x="198.242188"/>
     <use xlink:href="#DejaVuSans-72" x="259.521484"/>
     <use xlink:href="#DejaVuSans-67" x="298.884766"/>
     <use xlink:href="#DejaVuSans-65" x="362.361328"/>
     <use xlink:href="#DejaVuSans-74" x="423.884766"/>
     <use xlink:href="#DejaVuSans-73" x="463.09375"/>
     <use xlink:href="#DejaVuSans-3a" x="515.193359"/>
     <use xlink:href="#DejaVuSans-20" x="548.884766"/>
     <use xlink:href="#DejaVuSans-31" x="580.671875"/>
     <use xlink:href="#DejaVuSans-2e" x="644.294922"/>
     <use xlink:href="#DejaVuSans-2e" x="676.082031"/>
     <use xlink:href="#DejaVuSans-2d" x="707.869141"/>
     <use xlink:href="#DejaVuSans-31" x="743.953125"/>
     <use xlink:href="#DejaVuSans-2e" x="807.576172"/>
     <use xlink:href="#DejaVuSans-30" x="839.363281"/>
     <use xlink:href="#DejaVuSans-65" x="902.986328"/>
     <use xlink:href="#DejaVuSans-2d" x="964.509766"/>
     <use xlink:href="#DejaVuSans-34" x="1000.59375"/>
    </g>
    <!-- 10 instances -->
    <g transform="translate(60.632064 40.426264)scale(0.102 -0.102)">
     <use xlink:href="#DejaVuSans-31"/>
     <use xlink:href="#DejaVuSans-30" x="63.623047"/>
     <use xlink:href="#DejaVuSans-20" x="127.246094"/>
     <use xlink:href="#DejaVuSans-69" x="159.033203"/>
     <use xlink:href="#DejaVuSans-6e" x="186.816406"/>
     <use xlink:href="#DejaVuSans-73" x="250.195312"/>
     <use xlink:href="#DejaVuSans-74" x="302.294922"/>
     <use xlink:href="#DejaVuSans-61" x="341.503906"/>
     <use xlink:href="#DejaVuSans-6e" x="402.783203"/>
     <use xlink:href="#DejaVuSans-63" x="466.162109"/>
     <use xlink:href="#DejaVuSans-65" x="521.142578"/>
     <use xlink:href="#DejaVuSans-73" x="582.666016"/>
    </g>
   </g>
   <g id="text_20">
    <!-- v2.6, hv-hash=ff0e71e8cd978373 -->
    <g style="fill: #808080" transform="translate(123.707887 293.943992)scale(0.1 -0.1)">
     <defs>
      <path id="DejaVuSans-68" d="M 3513 2113 
L 3513 0 
L 2938 0 
L 2938 2094 
Q 2938 2591 2744 2837 
Q 2550 3084 2163 3084 
Q 1697 3084 1428 2787 
Q 1159 2491 1159 1978 
L 1159 0 
L 581 0 
L 581 4863 
L 1159 4863 
L 1159 2956 
Q 1366 3272 1645 3428 
Q 1925 3584 2291 3584 
Q 2894 3584 3203 3211 
Q 3513 2838 3513 2113 
z
" transform="scale(0.015625)"/>
      <path id="DejaVuSans-3d" d="M 678 2906 
L 4684 2906 
L 4684 2381 
L 678 2381 
L 678 2906 
z
M 678 1631 
L 4684 1631 
L 4684 1100 
L 678 1100 
L 678 1631 
z
" transform="scale(0.015625)"/>
      <path id="DejaVuSans-37" d="M 525 4666 
L 3525 4666 
L 3525 4397 
L 1831 0 
L 1172 0 
L 2766 4134 
L 525 4134 
L 525 4666 
z
" transform="scale(0.015625)"/>
      <path id="DejaVuSans-39" d="M 703 97 
L 703 672 
Q 941 559 1184 500 
Q 1428 441 1663 441 
Q 2288 441 2617 861 
Q 2947 1281 2994 2138 
Q 2813 1869 2534 1725 
Q 2256 1581 1919 1581 
Q 1219 1581 811 2004 
Q 403 2428 403 3163 
Q 403 3881 828 4315 
Q 1253 4750 1959 4750 
Q 2769 4750 3195 4129 
Q 3622 3509 3622 2328 
Q 3622 1225 3098 567 
Q 2575 -91 1691 -91 
Q 1453 -91 1209 -44 
Q 966 3 703 97 
z
M 1959 2075 
Q 2384 2075 2632 2365 
Q 2881 2656 2881 3163 
Q 2881 3666 2632 3958 
Q 2384 4250 1959 4250 
Q 1534 4250 1286 3958 
Q 1038 3666 1038 3163 
Q 1038 2656 1286 2365 
Q 1534 2075 1959 2075 
z
" transform="scale(0.015625)"/>
     </defs>
     <use xlink:href="#DejaVuSans-76"/>
     <use xlink:href="#DejaVuSans-32" x="59.179688"/>
     <use xlink:href="#DejaVuSans-2e" x="122.802734"/>
     <use xlink:href="#DejaVuSans-36" x="154.589844"/>
     <use xlink:href="#DejaVuSans-2c" x="218.212891"/>
     <use xlink:href="#DejaVuSans-20" x="250"/>
     <use xlink:href="#DejaVuSans-68" x="281.787109"/>
     <use xlink:href="#DejaVuSans-76" x="345.166016"/>
     <use xlink:href="#DejaVuSans-2d" x="401.720703"/>
     <use xlink:href="#DejaVuSans-68" x="437.804688"/>
     <use xlink:href="#DejaVuSans-61" x="501.183594"/>
     <use xlink:href="#DejaVuSans-73" x="562.462891"/>
     <use xlink:href="#DejaVuSans-68" x="614.5625"/>
     <use xlink:href="#DejaVuSans-3d" x="677.941406"/>
     <use xlink:href="#DejaVuSans-66" x="761.730469"/>
     <use xlink:href="#DejaVuSans-66" x="796.935547"/>
     <use xlink:href="#DejaVuSans-30" x="832.140625"/>
     <use xlink:href="#DejaVuSans-65" x="895.763672"/>
     <use xlink:href="#DejaVuSans-37" x="957.287109"/>
     <use xlink:href="#DejaVuSans-31" x="1020.910156"/>
     <use xlink:href="#DejaVuSans-65" x="1084.533203"/>
     <use xlink:href="#DejaVuSans-38" x="1146.056641"/>
     <use xlink:href="#DejaVuSans-63" x="1209.679688"/>
     <use xlink:href="#DejaVuSans-64" x="1264.660156"/>
     <use xlink:href="#DejaVuSans-39" x="1328.136719"/>
     <use xlink:href="#DejaVuSans-37" x="1391.759766"/>
     <use xlink:href="#DejaVuSans-38" x="1455.382812"/>
     <use xlink:href="#DejaVuSans-33" x="1519.005859"/>
     <use xlink:href="#DejaVuSans-37" x="1582.628906"/>
     <use xlink:href="#DejaVuSans-33" x="1646.251953"/>
    </g>
   </g>
  </g>
 </g>
 <defs>
  <clipPath id="pa501ba3d45">
   <rect x="57.6" y="6.912" width="303.2064" height="292.032"/>
  </clipPath>
 </defs>
</svg>
