<?xml version="1.0" encoding="utf-8" standalone="no"?>
<!DOCTYPE svg PUBLIC "-//W3C//DTD SVG 1.1//EN"
  "http://www.w3.org/Graphics/SVG/1.1/DTD/svg11.dtd">
<svg xmlns:xlink="http://www.w3.org/1999/xlink" width="460.8pt" height="345.6pt" viewBox="0 0 460.8 345.6" xmlns="http://www.w3.org/2000/svg" version="1.1">
 <metadata>
  <rdf:RDF xmlns:dc="http://purl.org/dc/elements/1.1/" xmlns:cc="http://creativecommons.org/ns#" xmlns:rdf="http://www.w3.org/1999/02/22-rdf-syntax-ns#">
   <cc:Work>
    <dc:type rdf:resource="http://purl.org/dc/dcmitype/StillImage"/>
    <dc:date>2022-06-19T17:22:20.224911</dc:date>
    <dc:format>image/svg+xml</dc:format>
    <dc:creator>
     <cc:Agent>
      <dc:title>Matplotlib v3.5.2, https://matplotlib.org/</dc:title>
     </cc:Agent>
    </dc:creator>
   </cc:Work>
  </rdf:RDF>
 </metadata>
 <defs>
  <style type="text/css">*{stroke-linejoin: round; stroke-linecap: butt}</style>
 </defs>
 <g id="figure_1">
  <g id="patch_1">
   <path d="M 0 345.6 
L 460.8 345.6 
L 460.8 0 
L 0 0 
z
" style="fill: #ffffff"/>
  </g>
  <g id="axes_1">
   <g id="patch_2">
    <path d="M 0 293.76 
L 460.8 293.76 
L 460.8 3.456 
L 0 3.456 
z
" style="fill: #ffffff"/>
   </g>
   <g id="matplotlib.axis_1">
    <g id="xtick_1">
     <g id="line2d_1">
      <path d="M 105.011682 293.76 
L 105.011682 3.456 
" clip-path="url(#p58c860039b)" style="fill: none; stroke: #b0b0b0; stroke-width: 0.8; stroke-linecap: square"/>
     </g>
     <g id="line2d_2">
      <defs>
       <path id="m9462964bbb" d="M 0 0 
L 0 3.5 
" style="stroke: #000000; stroke-width: 0.8"/>
      </defs>
      <g>
       <use xlink:href="#m9462964bbb" x="105.011682" y="293.76" style="stroke: #000000; stroke-width: 0.8"/>
      </g>
     </g>
     <g id="text_1">
      <!-- -6 -->
      <g transform="translate(95.04137 315.956875)scale(0.2 -0.2)">
       <defs>
        <path id="DejaVuSans-2d" d="M 313 2009 
L 1997 2009 
L 1997 1497 
L 313 1497 
L 313 2009 
z
" transform="scale(0.015625)"/>
        <path id="DejaVuSans-36" d="M 2113 2584 
Q 1688 2584 1439 2293 
Q 1191 2003 1191 1497 
Q 1191 994 1439 701 
Q 1688 409 2113 409 
Q 2538 409 2786 701 
Q 3034 994 3034 1497 
Q 3034 2003 2786 2293 
Q 2538 2584 2113 2584 
z
M 3366 4563 
L 3366 3988 
Q 3128 4100 2886 4159 
Q 2644 4219 2406 4219 
Q 1781 4219 1451 3797 
Q 1122 3375 1075 2522 
Q 1259 2794 1537 2939 
Q 1816 3084 2150 3084 
Q 2853 3084 3261 2657 
Q 3669 2231 3669 1497 
Q 3669 778 3244 343 
Q 2819 -91 2113 -91 
Q 1303 -91 875 529 
Q 447 1150 447 2328 
Q 447 3434 972 4092 
Q 1497 4750 2381 4750 
Q 2619 4750 2861 4703 
Q 3103 4656 3366 4563 
z
" transform="scale(0.015625)"/>
       </defs>
       <use xlink:href="#DejaVuSans-2d"/>
       <use xlink:href="#DejaVuSans-36" x="36.083984"/>
      </g>
     </g>
    </g>
    <g id="xtick_2">
     <g id="line2d_3">
      <path d="M 210.250753 293.76 
L 210.250753 3.456 
" clip-path="url(#p58c860039b)" style="fill: none; stroke: #b0b0b0; stroke-width: 0.8; stroke-linecap: square"/>
     </g>
     <g id="line2d_4">
      <g>
       <use xlink:href="#m9462964bbb" x="210.250753" y="293.76" style="stroke: #000000; stroke-width: 0.8"/>
      </g>
     </g>
     <g id="text_2">
      <!-- -4 -->
      <g transform="translate(200.280441 315.956875)scale(0.2 -0.2)">
       <defs>
        <path id="DejaVuSans-34" d="M 2419 4116 
L 825 1625 
L 2419 1625 
L 2419 4116 
z
M 2253 4666 
L 3047 4666 
L 3047 1625 
L 3713 1625 
L 3713 1100 
L 3047 1100 
L 3047 0 
L 2419 0 
L 2419 1100 
L 313 1100 
L 313 1709 
L 2253 4666 
z
" transform="scale(0.015625)"/>
       </defs>
       <use xlink:href="#DejaVuSans-2d"/>
       <use xlink:href="#DejaVuSans-34" x="36.083984"/>
      </g>
     </g>
    </g>
    <g id="xtick_3">
     <g id="line2d_5">
      <path d="M 315.489824 293.76 
L 315.489824 3.456 
" clip-path="url(#p58c860039b)" style="fill: none; stroke: #b0b0b0; stroke-width: 0.8; stroke-linecap: square"/>
     </g>
     <g id="line2d_6">
      <g>
       <use xlink:href="#m9462964bbb" x="315.489824" y="293.76" style="stroke: #000000; stroke-width: 0.8"/>
      </g>
     </g>
     <g id="text_3">
      <!-- -2 -->
      <g transform="translate(305.519512 315.956875)scale(0.2 -0.2)">
       <defs>
        <path id="DejaVuSans-32" d="M 1228 531 
L 3431 531 
L 3431 0 
L 469 0 
L 469 531 
Q 828 903 1448 1529 
Q 2069 2156 2228 2338 
Q 2531 2678 2651 2914 
Q 2772 3150 2772 3378 
Q 2772 3750 2511 3984 
Q 2250 4219 1831 4219 
Q 1534 4219 1204 4116 
Q 875 4013 500 3803 
L 500 4441 
Q 881 4594 1212 4672 
Q 1544 4750 1819 4750 
Q 2544 4750 2975 4387 
Q 3406 4025 3406 3419 
Q 3406 3131 3298 2873 
Q 3191 2616 2906 2266 
Q 2828 2175 2409 1742 
Q 1991 1309 1228 531 
z
" transform="scale(0.015625)"/>
       </defs>
       <use xlink:href="#DejaVuSans-2d"/>
       <use xlink:href="#DejaVuSans-32" x="36.083984"/>
      </g>
     </g>
    </g>
    <g id="xtick_4">
     <g id="line2d_7">
      <path d="M 420.728895 293.76 
L 420.728895 3.456 
" clip-path="url(#p58c860039b)" style="fill: none; stroke: #b0b0b0; stroke-width: 0.8; stroke-linecap: square"/>
     </g>
     <g id="line2d_8">
      <g>
       <use xlink:href="#m9462964bbb" x="420.728895" y="293.76" style="stroke: #000000; stroke-width: 0.8"/>
      </g>
     </g>
     <g id="text_4">
      <!-- 0 -->
      <g transform="translate(414.366395 315.956875)scale(0.2 -0.2)">
       <defs>
        <path id="DejaVuSans-30" d="M 2034 4250 
Q 1547 4250 1301 3770 
Q 1056 3291 1056 2328 
Q 1056 1369 1301 889 
Q 1547 409 2034 409 
Q 2525 409 2770 889 
Q 3016 1369 3016 2328 
Q 3016 3291 2770 3770 
Q 2525 4250 2034 4250 
z
M 2034 4750 
Q 2819 4750 3233 4129 
Q 3647 3509 3647 2328 
Q 3647 1150 3233 529 
Q 2819 -91 2034 -91 
Q 1250 -91 836 529 
Q 422 1150 422 2328 
Q 422 3509 836 4129 
Q 1250 4750 2034 4750 
z
" transform="scale(0.015625)"/>
       </defs>
       <use xlink:href="#DejaVuSans-30"/>
      </g>
     </g>
    </g>
    <g id="text_5">
     <!-- log10 of Df -->
     <g transform="translate(175.214063 339.313125)scale(0.2 -0.2)">
      <defs>
       <path id="DejaVuSans-6c" d="M 603 4863 
L 1178 4863 
L 1178 0 
L 603 0 
L 603 4863 
z
" transform="scale(0.015625)"/>
       <path id="DejaVuSans-6f" d="M 1959 3097 
Q 1497 3097 1228 2736 
Q 959 2375 959 1747 
Q 959 1119 1226 758 
Q 1494 397 1959 397 
Q 2419 397 2687 759 
Q 2956 1122 2956 1747 
Q 2956 2369 2687 2733 
Q 2419 3097 1959 3097 
z
M 1959 3584 
Q 2709 3584 3137 3096 
Q 3566 2609 3566 1747 
Q 3566 888 3137 398 
Q 2709 -91 1959 -91 
Q 1206 -91 779 398 
Q 353 888 353 1747 
Q 353 2609 779 3096 
Q 1206 3584 1959 3584 
z
" transform="scale(0.015625)"/>
       <path id="DejaVuSans-67" d="M 2906 1791 
Q 2906 2416 2648 2759 
Q 2391 3103 1925 3103 
Q 1463 3103 1205 2759 
Q 947 2416 947 1791 
Q 947 1169 1205 825 
Q 1463 481 1925 481 
Q 2391 481 2648 825 
Q 2906 1169 2906 1791 
z
M 3481 434 
Q 3481 -459 3084 -895 
Q 2688 -1331 1869 -1331 
Q 1566 -1331 1297 -1286 
Q 1028 -1241 775 -1147 
L 775 -588 
Q 1028 -725 1275 -790 
Q 1522 -856 1778 -856 
Q 2344 -856 2625 -561 
Q 2906 -266 2906 331 
L 2906 616 
Q 2728 306 2450 153 
Q 2172 0 1784 0 
Q 1141 0 747 490 
Q 353 981 353 1791 
Q 353 2603 747 3093 
Q 1141 3584 1784 3584 
Q 2172 3584 2450 3431 
Q 2728 3278 2906 2969 
L 2906 3500 
L 3481 3500 
L 3481 434 
z
" transform="scale(0.015625)"/>
       <path id="DejaVuSans-31" d="M 794 531 
L 1825 531 
L 1825 4091 
L 703 3866 
L 703 4441 
L 1819 4666 
L 2450 4666 
L 2450 531 
L 3481 531 
L 3481 0 
L 794 0 
L 794 531 
z
" transform="scale(0.015625)"/>
       <path id="DejaVuSans-20" transform="scale(0.015625)"/>
       <path id="DejaVuSans-66" d="M 2375 4863 
L 2375 4384 
L 1825 4384 
Q 1516 4384 1395 4259 
Q 1275 4134 1275 3809 
L 1275 3500 
L 2222 3500 
L 2222 3053 
L 1275 3053 
L 1275 0 
L 697 0 
L 697 3053 
L 147 3053 
L 147 3500 
L 697 3500 
L 697 3744 
Q 697 4328 969 4595 
Q 1241 4863 1831 4863 
L 2375 4863 
z
" transform="scale(0.015625)"/>
       <path id="DejaVuSans-44" d="M 1259 4147 
L 1259 519 
L 2022 519 
Q 2988 519 3436 956 
Q 3884 1394 3884 2338 
Q 3884 3275 3436 3711 
Q 2988 4147 2022 4147 
L 1259 4147 
z
M 628 4666 
L 1925 4666 
Q 3281 4666 3915 4102 
Q 4550 3538 4550 2338 
Q 4550 1131 3912 565 
Q 3275 0 1925 0 
L 628 0 
L 628 4666 
z
" transform="scale(0.015625)"/>
      </defs>
      <use xlink:href="#DejaVuSans-6c"/>
      <use xlink:href="#DejaVuSans-6f" x="27.783203"/>
      <use xlink:href="#DejaVuSans-67" x="88.964844"/>
      <use xlink:href="#DejaVuSans-31" x="152.441406"/>
      <use xlink:href="#DejaVuSans-30" x="216.064453"/>
      <use xlink:href="#DejaVuSans-20" x="279.6875"/>
      <use xlink:href="#DejaVuSans-6f" x="311.474609"/>
      <use xlink:href="#DejaVuSans-66" x="372.65625"/>
      <use xlink:href="#DejaVuSans-20" x="407.861328"/>
      <use xlink:href="#DejaVuSans-44" x="439.648438"/>
      <use xlink:href="#DejaVuSans-66" x="516.650391"/>
     </g>
    </g>
   </g>
   <g id="matplotlib.axis_2">
    <g id="ytick_1">
     <g id="line2d_9">
      <path d="M 0 293.76 
L 460.8 293.76 
" clip-path="url(#p58c860039b)" style="fill: none; stroke: #b0b0b0; stroke-width: 0.8; stroke-linecap: square"/>
     </g>
     <g id="line2d_10">
      <defs>
       <path id="m12fac644b6" d="M 0 0 
L -3.5 0 
" style="stroke: #000000; stroke-width: 0.8"/>
      </defs>
      <g>
       <use xlink:href="#m12fac644b6" x="0" y="293.76" style="stroke: #000000; stroke-width: 0.8"/>
      </g>
     </g>
    </g>
    <g id="ytick_2">
     <g id="line2d_11">
      <path d="M 0 236.274059 
L 460.8 236.274059 
" clip-path="url(#p58c860039b)" style="fill: none; stroke: #b0b0b0; stroke-width: 0.8; stroke-linecap: square"/>
     </g>
     <g id="line2d_12">
      <g>
       <use xlink:href="#m12fac644b6" x="0" y="236.274059" style="stroke: #000000; stroke-width: 0.8"/>
      </g>
     </g>
    </g>
    <g id="ytick_3">
     <g id="line2d_13">
      <path d="M 0 178.788119 
L 460.8 178.788119 
" clip-path="url(#p58c860039b)" style="fill: none; stroke: #b0b0b0; stroke-width: 0.8; stroke-linecap: square"/>
     </g>
     <g id="line2d_14">
      <g>
       <use xlink:href="#m12fac644b6" x="0" y="178.788119" style="stroke: #000000; stroke-width: 0.8"/>
      </g>
     </g>
    </g>
    <g id="ytick_4">
     <g id="line2d_15">
      <path d="M 0 121.302178 
L 460.8 121.302178 
" clip-path="url(#p58c860039b)" style="fill: none; stroke: #b0b0b0; stroke-width: 0.8; stroke-linecap: square"/>
     </g>
     <g id="line2d_16">
      <g>
       <use xlink:href="#m12fac644b6" x="0" y="121.302178" style="stroke: #000000; stroke-width: 0.8"/>
      </g>
     </g>
    </g>
    <g id="ytick_5">
     <g id="line2d_17">
      <path d="M 0 63.816238 
L 460.8 63.816238 
" clip-path="url(#p58c860039b)" style="fill: none; stroke: #b0b0b0; stroke-width: 0.8; stroke-linecap: square"/>
     </g>
     <g id="line2d_18">
      <g>
       <use xlink:href="#m12fac644b6" x="0" y="63.816238" style="stroke: #000000; stroke-width: 0.8"/>
      </g>
     </g>
    </g>
    <g id="ytick_6">
     <g id="line2d_19">
      <path d="M 0 6.330297 
L 460.8 6.330297 
" clip-path="url(#p58c860039b)" style="fill: none; stroke: #b0b0b0; stroke-width: 0.8; stroke-linecap: square"/>
     </g>
     <g id="line2d_20">
      <g>
       <use xlink:href="#m12fac644b6" x="0" y="6.330297" style="stroke: #000000; stroke-width: 0.8"/>
      </g>
     </g>
    </g>
   </g>
   <g id="line2d_21">
    <path d="M 371.676196 293.76 
L 371.676196 293.237401 
L 373.154498 293.237401 
L 373.154498 292.714801 
L 375.208359 292.714801 
L 375.208359 292.192202 
L 379.45003 292.192202 
L 379.45003 291.669602 
L 380.456539 291.669602 
L 380.456539 291.147003 
L 383.132819 291.147003 
L 383.132819 290.624403 
L 385.976016 290.624403 
L 385.976016 290.101804 
L 386.723044 290.101804 
L 386.723044 289.579204 
L 386.909007 289.579204 
L 386.909007 289.056605 
L 387.909486 289.056605 
L 387.909486 288.534005 
L 388.025518 288.534005 
L 388.025518 288.011406 
L 389.866581 288.011406 
L 389.866581 287.488806 
L 390.500174 287.488806 
L 390.500174 286.966207 
L 390.804532 286.966207 
L 390.804532 286.443608 
L 391.058591 286.443608 
L 391.076983 285.398409 
L 391.54173 285.398409 
L 391.54173 284.875809 
L 391.853491 284.875809 
L 391.853491 284.35321 
L 392.352078 284.35321 
L 392.352078 283.83061 
L 392.683882 283.83061 
L 392.683882 283.308011 
L 392.896592 283.308011 
L 392.977686 281.740212 
L 393.389399 281.740212 
L 393.389399 281.217613 
L 393.766162 281.217613 
L 393.766162 280.695014 
L 394.28775 280.695014 
L 394.28775 280.172414 
L 394.655397 280.172414 
L 394.655397 279.649815 
L 395.193603 279.649815 
L 395.193603 279.127215 
L 395.459196 279.127215 
L 395.459196 278.604616 
L 395.971596 278.604616 
L 395.971596 278.082016 
L 397.058397 278.082016 
L 397.058397 277.559417 
L 397.809001 277.559417 
L 397.842723 276.514218 
L 398.544747 276.514218 
L 398.588419 275.469019 
L 398.872855 275.469019 
L 398.872855 274.946419 
L 399.168509 274.946419 
L 399.263902 273.378621 
L 399.371961 273.378621 
L 399.371961 272.856022 
L 399.768651 272.856022 
L 399.768651 272.333422 
L 399.910198 272.333422 
L 399.910198 271.810823 
L 400.055108 271.810823 
L 400.055108 271.288223 
L 400.318129 271.288223 
L 400.318129 270.765624 
L 400.450604 270.765624 
L 400.550215 269.197825 
L 400.686748 269.197825 
L 400.788249 268.152626 
L 400.963563 268.152626 
L 400.985908 267.107428 
L 401.082633 267.107428 
L 401.082633 266.584828 
L 401.243792 266.584828 
L 401.243792 266.062229 
L 401.378001 266.062229 
L 401.467254 264.49443 
L 401.594263 264.49443 
L 401.609102 263.449231 
L 401.922043 263.449231 
L 401.922043 262.926632 
L 402.281778 262.926632 
L 402.323862 261.881433 
L 402.418351 261.881433 
L 402.418351 261.358833 
L 402.590698 261.358833 
L 402.592161 260.313635 
L 402.783343 260.313635 
L 402.873039 259.268436 
L 402.907021 259.268436 
L 403.009585 257.178038 
L 403.04237 257.178038 
L 403.070402 256.132839 
L 403.233155 256.132839 
L 403.284431 254.565041 
L 403.345139 254.565041 
L 403.412858 252.997242 
L 403.727215 252.997242 
L 403.823443 251.429444 
L 403.869157 251.429444 
L 403.96322 249.861645 
L 403.994483 249.861645 
L 404.029192 248.293847 
L 404.11901 248.293847 
L 404.226752 246.203449 
L 404.304265 246.203449 
L 404.398786 244.635651 
L 404.527539 244.635651 
L 404.612873 242.545253 
L 404.915428 242.545253 
L 404.962189 241.500054 
L 405.110629 241.500054 
L 405.110918 240.454855 
L 405.297314 240.454855 
L 405.395209 237.319258 
L 405.426878 237.319258 
L 405.483917 236.274059 
L 405.550149 236.274059 
L 405.628635 233.138463 
L 405.688147 233.138463 
L 405.764367 231.048065 
L 405.808944 231.048065 
L 405.826815 230.002866 
L 406.247658 230.002866 
L 406.332315 227.912468 
L 406.367218 227.912468 
L 406.475383 226.867269 
L 406.546674 226.867269 
L 406.546674 226.34467 
L 406.702305 226.34467 
L 406.799657 224.254272 
L 406.826088 224.254272 
L 406.85424 221.118675 
L 406.991827 221.118675 
L 407.033982 220.073476 
L 407.154609 220.073476 
L 407.260866 219.028277 
L 407.286439 219.028277 
L 407.381314 217.460479 
L 407.4277 217.460479 
L 407.518001 216.41528 
L 407.587284 216.41528 
L 407.587284 215.89268 
L 407.71121 215.89268 
L 407.761822 213.802283 
L 407.859272 213.802283 
L 407.943795 212.234484 
L 408.097932 212.234484 
L 408.125339 210.666686 
L 408.289769 210.666686 
L 408.398506 208.576288 
L 408.409261 208.576288 
L 408.51025 205.963291 
L 408.575472 205.963291 
L 408.642681 204.918092 
L 408.715823 204.918092 
L 408.762262 203.872893 
L 408.854079 203.872893 
L 408.94145 199.169498 
L 409.035408 199.169498 
L 409.109022 197.0791 
L 409.146927 197.0791 
L 409.222963 194.988702 
L 409.299528 194.988702 
L 409.31788 193.943503 
L 409.413887 193.943503 
L 409.517041 192.375705 
L 409.594474 192.375705 
L 409.664958 190.285307 
L 409.718589 190.285307 
L 409.769592 188.194909 
L 409.833562 188.194909 
L 409.892599 186.627111 
L 409.94896 186.627111 
L 410.026492 184.536713 
L 410.26658 184.536713 
L 410.298783 183.491514 
L 410.436899 183.491514 
L 410.492191 180.878517 
L 410.607148 180.878517 
L 410.662718 177.74292 
L 410.807709 177.74292 
L 410.904984 173.562124 
L 410.983613 173.562124 
L 411.035149 172.516925 
L 411.119266 172.516925 
L 411.168883 171.471726 
L 411.24926 171.471726 
L 411.358367 169.903928 
L 411.363643 169.903928 
L 411.457966 168.33613 
L 411.496705 168.33613 
L 411.598947 165.723132 
L 411.608893 165.723132 
L 411.700598 163.632734 
L 411.728281 163.632734 
L 411.801959 161.019737 
L 411.846486 161.019737 
L 411.929961 159.451939 
L 412.047851 159.451939 
L 412.133316 156.838941 
L 412.222389 156.838941 
L 412.324319 154.748544 
L 412.383468 154.748544 
L 412.442042 152.658146 
L 412.4954 152.658146 
L 412.532046 151.612947 
L 412.638025 151.612947 
L 412.733242 149.522549 
L 412.797304 149.522549 
L 412.904211 147.432151 
L 412.96277 147.432151 
L 413.028231 145.341753 
L 413.080968 145.341753 
L 413.183741 143.773955 
L 413.227032 143.773955 
L 413.308159 141.160958 
L 413.413923 141.160958 
L 413.456874 139.593159 
L 413.551487 139.593159 
L 413.6539 137.502761 
L 413.673341 137.502761 
L 413.773927 133.844565 
L 413.785172 133.844565 
L 413.870175 130.708968 
L 413.932653 130.708968 
L 414.020212 128.095971 
L 414.055077 128.095971 
L 414.15076 126.528173 
L 414.172665 126.528173 
L 414.202411 124.960374 
L 414.308188 124.960374 
L 414.418303 123.915176 
L 414.477035 123.915176 
L 414.522364 121.824778 
L 414.590243 121.824778 
L 414.590725 120.779579 
L 414.752454 120.779579 
L 414.822929 117.121383 
L 414.870973 117.121383 
L 414.938572 114.508385 
L 415.067271 114.508385 
L 415.139625 112.940587 
L 415.179338 112.940587 
L 415.281929 110.850189 
L 415.303332 110.850189 
L 415.40094 108.759791 
L 415.463165 108.759791 
L 415.538924 107.714592 
L 415.622756 107.714592 
L 415.7303 105.101595 
L 415.749976 105.101595 
L 415.826857 103.533797 
L 415.93135 103.533797 
L 416.006978 101.965998 
L 416.05674 101.965998 
L 416.16398 97.785203 
L 416.184558 97.785203 
L 416.273425 95.172205 
L 416.306435 95.172205 
L 416.34512 92.559208 
L 416.44424 92.559208 
L 416.462533 91.514009 
L 416.578888 91.514009 
L 416.666192 87.333213 
L 416.694439 87.333213 
L 416.751457 86.288014 
L 416.847212 86.288014 
L 416.893815 84.720216 
L 416.973384 84.720216 
L 417.011183 83.675017 
L 417.086208 83.675017 
L 417.118301 82.107219 
L 417.213023 82.107219 
L 417.286385 80.016821 
L 417.367027 80.016821 
L 417.466299 77.926423 
L 417.480319 77.926423 
L 417.498692 76.358625 
L 417.635154 76.358625 
L 417.635154 75.836025 
L 417.775905 75.836025 
L 417.839827 73.223028 
L 417.892199 73.223028 
L 417.979101 71.13263 
L 418.012066 71.13263 
L 418.102371 70.087431 
L 418.183578 70.087431 
L 418.292867 66.429235 
L 418.301418 66.429235 
L 418.345341 65.384036 
L 418.417717 65.384036 
L 418.462767 63.293638 
L 418.559166 63.293638 
L 418.660054 61.20324 
L 418.696043 61.20324 
L 418.803585 56.499845 
L 418.841506 56.499845 
L 418.945138 53.364248 
L 418.973174 53.364248 
L 419.042699 51.273851 
L 419.098518 51.273851 
L 419.142393 48.138254 
L 419.245285 48.138254 
L 419.332822 45.525257 
L 419.385047 45.525257 
L 419.454861 44.480058 
L 419.507359 44.480058 
L 419.51189 43.434859 
L 419.670436 43.434859 
L 419.776908 40.299262 
L 419.799611 40.299262 
L 419.90414 38.208864 
L 419.928358 38.208864 
L 419.928358 37.686265 
L 420.119473 37.686265 
L 420.17439 36.118466 
L 420.231891 36.118466 
L 420.340519 34.028068 
L 420.486048 34.028068 
L 420.587747 32.46027 
L 420.727127 32.46027 
L 420.810041 31.415071 
L 420.853285 31.415071 
L 420.853285 30.892472 
L 420.972042 30.892472 
L 420.972042 30.369872 
L 421.129376 30.369872 
L 421.21001 29.324673 
L 421.297471 29.324673 
L 421.297471 28.802074 
L 421.500462 28.802074 
L 421.584998 27.756875 
L 421.634853 27.756875 
L 421.634853 27.234275 
L 421.886404 27.234275 
L 421.886404 26.711676 
L 422.045113 26.711676 
L 422.045113 26.189077 
L 422.474818 26.189077 
L 422.474818 25.666477 
L 422.654588 25.666477 
L 422.710141 24.621278 
L 423.134108 24.621278 
L 423.196206 23.05348 
L 423.340309 23.05348 
L 423.340309 22.53088 
L 423.538123 22.53088 
L 423.538123 22.008281 
L 423.692002 22.008281 
L 423.758489 20.963082 
L 424.442177 20.963082 
L 424.442177 20.440482 
L 424.625091 20.440482 
L 424.681696 19.395284 
L 424.912427 19.395284 
L 425.011552 18.350085 
L 425.773823 18.350085 
L 425.773823 17.827485 
L 426.046308 17.827485 
L 426.08859 16.782286 
L 426.268212 16.782286 
L 426.268212 16.259687 
L 426.403345 16.259687 
L 426.408183 15.214488 
L 426.876639 15.214488 
L 426.877226 14.169289 
L 429.296569 14.169289 
L 429.355186 13.12409 
L 429.45673 13.12409 
L 429.45673 12.601491 
L 429.975996 12.601491 
L 429.975996 12.078891 
L 430.414571 12.078891 
L 430.414571 11.556292 
L 430.538473 11.556292 
L 430.538473 11.033692 
L 431.890389 11.033692 
L 431.890389 10.511093 
L 432.006314 10.511093 
L 432.006314 9.988493 
L 433.072023 9.988493 
L 433.072023 9.465894 
L 433.601424 9.465894 
L 433.601424 8.943294 
L 435.676906 8.943294 
L 435.676906 8.420695 
L 437.175246 8.420695 
L 437.175246 7.898095 
L 439.741178 7.898095 
L 439.741178 7.375496 
L 444.216204 7.375496 
L 444.216204 6.852896 
L 445.502925 6.852896 
L 445.502925 6.330297 
L 445.502925 6.330297 
L 460.8 6.330297 
L 460.8 6.330297 
" clip-path="url(#p58c860039b)" style="fill: none; stroke: #ff0000; stroke-width: 3; stroke-linecap: square"/>
   </g>
   <g id="line2d_22">
    <path d="M 373.154498 293.76 
L 373.154498 293.237401 
L 375.208359 293.237401 
L 375.208359 292.714801 
L 379.45003 292.714801 
L 379.45003 292.192202 
L 380.456539 292.192202 
L 380.456539 291.669602 
L 385.976016 291.669602 
L 385.976016 291.147003 
L 386.723044 291.147003 
L 386.723044 290.624403 
L 386.909007 290.624403 
L 386.909007 290.101804 
L 387.909486 290.101804 
L 387.909486 289.579204 
L 389.866581 289.579204 
L 389.866581 289.056605 
L 390.500174 289.056605 
L 390.500174 288.534005 
L 391.058591 288.534005 
L 391.076983 287.488806 
L 391.54173 287.488806 
L 391.54173 286.966207 
L 391.853491 286.966207 
L 391.853491 286.443608 
L 392.352078 286.443608 
L 392.352078 285.921008 
L 392.723734 285.921008 
L 392.723734 285.398409 
L 392.896592 285.398409 
L 392.977686 283.83061 
L 393.389399 283.83061 
L 393.389399 283.308011 
L 393.766162 283.308011 
L 393.766162 282.785411 
L 394.28775 282.785411 
L 394.28775 282.262812 
L 394.655397 282.262812 
L 394.655397 281.740212 
L 395.193603 281.740212 
L 395.193603 281.217613 
L 397.058397 281.217613 
L 397.058397 280.695014 
L 397.809001 280.695014 
L 397.842723 279.649815 
L 398.544747 279.649815 
L 398.544747 279.127215 
L 398.872855 279.127215 
L 398.872855 278.604616 
L 399.204529 278.604616 
L 399.264103 277.559417 
L 399.371961 277.559417 
L 399.371961 277.036817 
L 399.768651 277.036817 
L 399.768651 276.514218 
L 399.910198 276.514218 
L 399.910198 275.991618 
L 400.055108 275.991618 
L 400.055108 275.469019 
L 400.318129 275.469019 
L 400.318129 274.946419 
L 400.450604 274.946419 
L 400.550215 273.901221 
L 400.686748 273.901221 
L 400.788249 272.856022 
L 400.844974 272.856022 
L 400.844974 272.333422 
L 400.963563 272.333422 
L 400.963563 271.810823 
L 401.378001 271.810823 
L 401.467254 270.243024 
L 401.594263 270.243024 
L 401.609102 269.197825 
L 401.922043 269.197825 
L 401.922043 268.675226 
L 402.281778 268.675226 
L 402.323862 267.630027 
L 402.418351 267.630027 
L 402.418351 267.107428 
L 402.590698 267.107428 
L 402.592161 266.062229 
L 402.783343 266.062229 
L 402.873039 265.01703 
L 402.907021 265.01703 
L 403.009585 262.926632 
L 403.04237 262.926632 
L 403.070402 261.881433 
L 403.19958 261.881433 
L 403.284431 260.313635 
L 403.345139 260.313635 
L 403.412858 258.745836 
L 403.727215 258.745836 
L 403.823443 257.178038 
L 403.922973 257.178038 
L 404.029192 254.565041 
L 404.11901 254.565041 
L 404.226752 252.474643 
L 404.304265 252.474643 
L 404.398786 251.429444 
L 404.527539 251.429444 
L 404.612873 249.339046 
L 404.915428 249.339046 
L 404.962189 248.293847 
L 405.110629 248.293847 
L 405.110918 247.248648 
L 405.297314 247.248648 
L 405.395209 244.113051 
L 405.426878 244.113051 
L 405.483917 243.067852 
L 405.550149 243.067852 
L 405.628635 240.454855 
L 405.688147 240.454855 
L 405.764367 238.364457 
L 405.808944 238.364457 
L 405.826815 237.319258 
L 406.247658 237.319258 
L 406.332315 235.22886 
L 406.367218 235.22886 
L 406.475383 234.183662 
L 406.546674 234.183662 
L 406.649696 233.138463 
L 406.702305 233.138463 
L 406.799657 231.570664 
L 406.826088 231.570664 
L 406.85424 228.435068 
L 406.991827 228.435068 
L 407.049423 226.867269 
L 407.154609 226.867269 
L 407.260866 225.82207 
L 407.35366 225.82207 
L 407.4277 224.254272 
L 407.518001 224.254272 
L 407.625663 222.686473 
L 407.696285 222.686473 
L 407.761822 219.550877 
L 407.859272 219.550877 
L 407.943795 217.460479 
L 408.097932 217.460479 
L 408.192169 215.370081 
L 408.289769 215.370081 
L 408.398506 213.802283 
L 408.409261 213.802283 
L 408.51025 211.189285 
L 408.575472 211.189285 
L 408.642681 210.144086 
L 408.715823 210.144086 
L 408.762262 209.098887 
L 408.854079 209.098887 
L 408.942031 204.395492 
L 409.035408 204.395492 
L 409.109022 202.305095 
L 409.146927 202.305095 
L 409.222963 200.214697 
L 409.299528 200.214697 
L 409.31788 199.169498 
L 409.413887 199.169498 
L 409.517041 197.601699 
L 409.594474 197.601699 
L 409.664958 195.511302 
L 409.718589 195.511302 
L 409.769592 193.420904 
L 409.833562 193.420904 
L 409.892599 191.853105 
L 409.94896 191.853105 
L 410.026492 189.762707 
L 410.26658 189.762707 
L 410.298783 188.717509 
L 410.436899 188.717509 
L 410.492191 186.104511 
L 410.607148 186.104511 
L 410.662718 182.968914 
L 410.807709 182.968914 
L 410.904984 178.788119 
L 410.983613 178.788119 
L 411.035149 177.74292 
L 411.119266 177.74292 
L 411.168883 176.697721 
L 411.24926 176.697721 
L 411.358367 175.129923 
L 411.363643 175.129923 
L 411.457966 173.562124 
L 411.496705 173.562124 
L 411.598947 170.949127 
L 411.608893 170.949127 
L 411.700598 168.33613 
L 411.728281 168.33613 
L 411.801959 166.245732 
L 411.846486 166.245732 
L 411.929961 164.677933 
L 412.047851 164.677933 
L 412.133316 162.064936 
L 412.222389 162.064936 
L 412.324319 159.974538 
L 412.383468 159.974538 
L 412.442042 157.88414 
L 412.4954 157.88414 
L 412.532046 156.838941 
L 412.638025 156.838941 
L 412.733242 154.748544 
L 412.82307 154.748544 
L 412.904211 152.658146 
L 412.96277 152.658146 
L 413.042929 150.567748 
L 413.080968 150.567748 
L 413.183741 148.99995 
L 413.200287 148.99995 
L 413.308159 145.864353 
L 413.413923 145.864353 
L 413.456874 144.296554 
L 413.551487 144.296554 
L 413.6539 142.206157 
L 413.673341 142.206157 
L 413.773927 138.54796 
L 413.785172 138.54796 
L 413.870175 135.412364 
L 413.932653 135.412364 
L 414.020212 133.321966 
L 414.055077 133.321966 
L 414.105064 132.276767 
L 414.172665 132.276767 
L 414.23425 130.186369 
L 414.308188 130.186369 
L 414.418303 128.618571 
L 414.477035 128.618571 
L 414.522364 126.528173 
L 414.590243 126.528173 
L 414.590725 125.482974 
L 414.752454 125.482974 
L 414.822929 122.347377 
L 414.870973 122.347377 
L 414.938572 120.256979 
L 415.067271 120.256979 
L 415.139625 118.689181 
L 415.212007 118.689181 
L 415.303332 116.598783 
L 415.35618 116.598783 
L 415.463165 114.508385 
L 415.538924 114.508385 
L 415.649981 112.417987 
L 415.714003 112.417987 
L 415.787297 110.32759 
L 415.926559 110.32759 
L 416.006978 108.237192 
L 416.05674 108.237192 
L 416.16398 104.578995 
L 416.184558 104.578995 
L 416.273425 101.965998 
L 416.306435 101.965998 
L 416.34512 99.353001 
L 416.44424 99.353001 
L 416.515764 97.262603 
L 416.578888 97.262603 
L 416.666192 93.081807 
L 416.694439 93.081807 
L 416.751457 92.036608 
L 416.847212 92.036608 
L 416.893815 90.46881 
L 416.973384 90.46881 
L 417.067391 88.378412 
L 417.086208 88.378412 
L 417.118301 86.810614 
L 417.213023 86.810614 
L 417.316816 84.197617 
L 417.367027 84.197617 
L 417.466299 82.629818 
L 417.480319 82.629818 
L 417.498692 81.06202 
L 417.635154 81.06202 
L 417.635154 80.53942 
L 417.775905 80.53942 
L 417.839827 78.971622 
L 417.920064 78.971622 
L 418.012066 76.881224 
L 418.102371 76.881224 
L 418.204681 73.745627 
L 418.235289 73.745627 
L 418.345341 71.13263 
L 418.417717 71.13263 
L 418.462767 69.042232 
L 418.559166 69.042232 
L 418.660054 66.429235 
L 418.696043 66.429235 
L 418.803585 61.72584 
L 418.841506 61.72584 
L 418.945138 58.590243 
L 418.973174 58.590243 
L 419.042699 56.499845 
L 419.098518 56.499845 
L 419.142393 53.364248 
L 419.245285 53.364248 
L 419.332822 50.751251 
L 419.385047 50.751251 
L 419.454861 49.706052 
L 419.51189 49.706052 
L 419.620582 48.660853 
L 419.670436 48.660853 
L 419.776908 45.525257 
L 419.799611 45.525257 
L 419.90414 43.434859 
L 419.928358 43.434859 
L 419.928358 42.912259 
L 420.119473 42.912259 
L 420.17439 41.344461 
L 420.231891 41.344461 
L 420.340519 38.731464 
L 420.486048 38.731464 
L 420.587747 36.641066 
L 420.600172 36.641066 
L 420.600172 36.118466 
L 420.727127 36.118466 
L 420.810041 35.073267 
L 420.853285 35.073267 
L 420.940725 34.028068 
L 420.972042 34.028068 
L 420.972042 33.505469 
L 421.129376 33.505469 
L 421.21001 32.46027 
L 421.297471 32.46027 
L 421.297471 31.937671 
L 421.500462 31.937671 
L 421.584998 30.892472 
L 421.634853 30.892472 
L 421.667306 29.847273 
L 421.886404 29.847273 
L 421.886404 29.324673 
L 422.045113 29.324673 
L 422.045113 28.802074 
L 422.474818 28.802074 
L 422.474818 28.279474 
L 422.654588 28.279474 
L 422.710141 27.234275 
L 422.775471 27.234275 
L 422.775471 26.711676 
L 423.118675 26.711676 
L 423.148726 25.666477 
L 423.340309 25.666477 
L 423.340309 25.143878 
L 423.538123 25.143878 
L 423.538123 24.621278 
L 423.692002 24.621278 
L 423.758489 23.576079 
L 424.442177 23.576079 
L 424.442177 23.05348 
L 424.625091 23.05348 
L 424.625091 22.53088 
L 424.912427 22.53088 
L 425.011552 21.485681 
L 425.773823 21.485681 
L 425.773823 20.963082 
L 426.046308 20.963082 
L 426.046308 20.440482 
L 426.268212 20.440482 
L 426.268212 19.917883 
L 426.408183 19.917883 
L 426.408183 19.395284 
L 426.876639 19.395284 
L 426.877226 18.350085 
L 428.753331 18.350085 
L 428.753331 17.827485 
L 429.296569 17.827485 
L 429.355186 16.782286 
L 429.420714 16.782286 
L 429.45673 15.737087 
L 429.577186 15.737087 
L 429.577186 15.214488 
L 429.975996 15.214488 
L 429.975996 14.691888 
L 430.414571 14.691888 
L 430.414571 14.169289 
L 430.538473 14.169289 
L 430.538473 13.646689 
L 431.890389 13.646689 
L 431.890389 13.12409 
L 432.006314 13.12409 
L 432.006314 12.601491 
L 432.725492 12.601491 
L 432.725492 12.078891 
L 433.072023 12.078891 
L 433.072023 11.556292 
L 433.601424 11.556292 
L 433.601424 11.033692 
L 433.802199 11.033692 
L 433.802199 10.511093 
L 435.676906 10.511093 
L 435.676906 9.988493 
L 437.175246 9.988493 
L 437.175246 9.465894 
L 439.741178 9.465894 
L 439.741178 8.943294 
L 440.384478 8.943294 
L 440.384478 8.420695 
L 441.682384 8.420695 
L 441.682384 7.898095 
L 444.216204 7.898095 
L 444.216204 7.375496 
L 445.502925 7.375496 
L 445.502925 6.852896 
L 456.556009 6.852896 
L 456.556009 6.330297 
L 456.556009 6.330297 
L 460.8 6.330297 
L 460.8 6.330297 
" clip-path="url(#p58c860039b)" style="fill: none; stroke: #00bfbf; stroke-width: 1.5; stroke-linecap: square"/>
   </g>
   <g id="line2d_23">
    <path d="M 373.154498 293.76 
L 373.154498 293.237401 
L 375.208359 293.237401 
L 375.208359 292.714801 
L 379.45003 292.714801 
L 379.45003 292.192202 
L 380.456539 292.192202 
L 380.456539 291.669602 
L 385.976016 291.669602 
L 385.976016 291.147003 
L 386.723044 291.147003 
L 386.723044 290.624403 
L 386.909007 290.624403 
L 386.909007 290.101804 
L 387.909486 290.101804 
L 387.909486 289.579204 
L 389.866581 289.579204 
L 389.866581 289.056605 
L 390.500174 289.056605 
L 390.500174 288.534005 
L 390.757842 288.534005 
L 390.757842 288.011406 
L 391.058591 288.011406 
L 391.076983 286.966207 
L 391.54173 286.966207 
L 391.54173 286.443608 
L 391.853491 286.443608 
L 391.853491 285.921008 
L 392.352078 285.921008 
L 392.352078 285.398409 
L 392.896592 285.398409 
L 392.977686 283.83061 
L 393.389399 283.83061 
L 393.389399 283.308011 
L 393.766162 283.308011 
L 393.766162 282.785411 
L 394.28775 282.785411 
L 394.28775 282.262812 
L 394.655397 282.262812 
L 394.655397 281.740212 
L 395.193603 281.740212 
L 395.193603 281.217613 
L 397.058397 281.217613 
L 397.058397 280.695014 
L 397.809001 280.695014 
L 397.842723 279.649815 
L 398.544747 279.649815 
L 398.544747 279.127215 
L 398.872855 279.127215 
L 398.872855 278.604616 
L 399.204529 278.604616 
L 399.264103 277.559417 
L 399.371961 277.559417 
L 399.371961 277.036817 
L 399.768651 277.036817 
L 399.768651 276.514218 
L 399.910198 276.514218 
L 399.910198 275.991618 
L 400.055108 275.991618 
L 400.055108 275.469019 
L 400.318129 275.469019 
L 400.318129 274.946419 
L 400.450604 274.946419 
L 400.550215 273.901221 
L 400.686748 273.901221 
L 400.788249 272.856022 
L 400.844974 272.856022 
L 400.844974 272.333422 
L 400.963563 272.333422 
L 400.963563 271.810823 
L 401.378001 271.810823 
L 401.467254 270.243024 
L 401.594263 270.243024 
L 401.609102 269.197825 
L 401.922043 269.197825 
L 401.922043 268.675226 
L 402.281778 268.675226 
L 402.323862 267.630027 
L 402.418351 267.630027 
L 402.418351 267.107428 
L 402.590698 267.107428 
L 402.592161 266.062229 
L 402.783343 266.062229 
L 402.873039 265.01703 
L 402.907021 265.01703 
L 403.009585 262.926632 
L 403.04237 262.926632 
L 403.070402 261.881433 
L 403.19958 261.881433 
L 403.284431 260.313635 
L 403.345139 260.313635 
L 403.412858 258.745836 
L 403.727215 258.745836 
L 403.823443 257.178038 
L 403.922973 257.178038 
L 404.029192 254.565041 
L 404.11901 254.565041 
L 404.226752 252.474643 
L 404.304265 252.474643 
L 404.398786 251.429444 
L 404.527539 251.429444 
L 404.612873 249.339046 
L 404.915428 249.339046 
L 404.962189 248.293847 
L 405.110629 248.293847 
L 405.110918 247.248648 
L 405.297314 247.248648 
L 405.395209 244.113051 
L 405.426878 244.113051 
L 405.483917 243.067852 
L 405.550149 243.067852 
L 405.628635 240.454855 
L 405.688147 240.454855 
L 405.764367 238.364457 
L 405.808944 238.364457 
L 405.826815 237.319258 
L 406.247658 237.319258 
L 406.332315 235.22886 
L 406.367218 235.22886 
L 406.475383 234.183662 
L 406.546674 234.183662 
L 406.649696 233.138463 
L 406.702305 233.138463 
L 406.799657 231.570664 
L 406.826088 231.570664 
L 406.85424 228.435068 
L 406.991827 228.435068 
L 407.049423 226.867269 
L 407.154609 226.867269 
L 407.260866 225.82207 
L 407.35366 225.82207 
L 407.4277 224.254272 
L 407.518001 224.254272 
L 407.625663 222.686473 
L 407.696285 222.686473 
L 407.761822 219.550877 
L 407.859272 219.550877 
L 407.943795 217.460479 
L 408.097932 217.460479 
L 408.192169 215.370081 
L 408.289769 215.370081 
L 408.398506 213.802283 
L 408.409261 213.802283 
L 408.51025 211.189285 
L 408.575472 211.189285 
L 408.642681 210.144086 
L 408.715823 210.144086 
L 408.762262 209.098887 
L 408.854079 209.098887 
L 408.942031 204.395492 
L 409.035408 204.395492 
L 409.109022 202.305095 
L 409.146927 202.305095 
L 409.222963 200.214697 
L 409.299528 200.214697 
L 409.31788 199.169498 
L 409.413887 199.169498 
L 409.517041 197.601699 
L 409.594474 197.601699 
L 409.664958 195.511302 
L 409.718589 195.511302 
L 409.769592 193.420904 
L 409.833562 193.420904 
L 409.892599 191.853105 
L 409.94896 191.853105 
L 410.026492 189.762707 
L 410.26658 189.762707 
L 410.298783 188.717509 
L 410.436899 188.717509 
L 410.492191 186.104511 
L 410.607148 186.104511 
L 410.662718 182.968914 
L 410.807709 182.968914 
L 410.904984 178.788119 
L 410.983613 178.788119 
L 411.035149 177.74292 
L 411.119266 177.74292 
L 411.168883 176.697721 
L 411.24926 176.697721 
L 411.358367 175.129923 
L 411.363643 175.129923 
L 411.457966 173.562124 
L 411.496705 173.562124 
L 411.598947 170.949127 
L 411.608893 170.949127 
L 411.700598 168.33613 
L 411.728281 168.33613 
L 411.801959 166.245732 
L 411.846486 166.245732 
L 411.929961 164.677933 
L 412.047851 164.677933 
L 412.133316 162.064936 
L 412.222389 162.064936 
L 412.324319 159.974538 
L 412.383468 159.974538 
L 412.442042 157.88414 
L 412.4954 157.88414 
L 412.532046 156.838941 
L 412.638025 156.838941 
L 412.733242 154.748544 
L 412.82307 154.748544 
L 412.904211 152.658146 
L 412.96277 152.658146 
L 413.042929 150.567748 
L 413.080968 150.567748 
L 413.183741 148.99995 
L 413.200287 148.99995 
L 413.308159 145.864353 
L 413.413923 145.864353 
L 413.456874 144.296554 
L 413.551487 144.296554 
L 413.6539 142.206157 
L 413.673341 142.206157 
L 413.773927 138.54796 
L 413.785172 138.54796 
L 413.870175 135.412364 
L 413.932653 135.412364 
L 414.020212 133.321966 
L 414.055077 133.321966 
L 414.105064 132.276767 
L 414.172665 132.276767 
L 414.23425 130.186369 
L 414.308188 130.186369 
L 414.418303 128.618571 
L 414.477035 128.618571 
L 414.522364 126.528173 
L 414.590243 126.528173 
L 414.590725 125.482974 
L 414.752454 125.482974 
L 414.822929 122.347377 
L 414.870973 122.347377 
L 414.938572 120.256979 
L 415.067271 120.256979 
L 415.139625 118.689181 
L 415.212007 118.689181 
L 415.303332 116.598783 
L 415.35618 116.598783 
L 415.463165 114.508385 
L 415.538924 114.508385 
L 415.649981 112.417987 
L 415.714003 112.417987 
L 415.787297 110.32759 
L 415.926559 110.32759 
L 416.006978 108.237192 
L 416.05674 108.237192 
L 416.16398 104.578995 
L 416.184558 104.578995 
L 416.273425 101.965998 
L 416.306435 101.965998 
L 416.34512 99.353001 
L 416.44424 99.353001 
L 416.515764 97.262603 
L 416.578888 97.262603 
L 416.666192 93.081807 
L 416.694439 93.081807 
L 416.751457 92.036608 
L 416.847212 92.036608 
L 416.893815 90.46881 
L 416.973384 90.46881 
L 417.067391 88.378412 
L 417.086208 88.378412 
L 417.118301 86.810614 
L 417.213023 86.810614 
L 417.316816 84.197617 
L 417.367027 84.197617 
L 417.466299 82.629818 
L 417.480319 82.629818 
L 417.498692 81.06202 
L 417.635154 81.06202 
L 417.635154 80.53942 
L 417.775905 80.53942 
L 417.839827 78.971622 
L 417.920064 78.971622 
L 418.012066 76.881224 
L 418.102371 76.881224 
L 418.204681 73.745627 
L 418.235289 73.745627 
L 418.345341 71.13263 
L 418.417717 71.13263 
L 418.462767 69.042232 
L 418.559166 69.042232 
L 418.660054 66.429235 
L 418.696043 66.429235 
L 418.803585 61.72584 
L 418.841506 61.72584 
L 418.945138 58.590243 
L 418.973174 58.590243 
L 419.042699 56.499845 
L 419.098518 56.499845 
L 419.142393 53.364248 
L 419.245285 53.364248 
L 419.332822 50.751251 
L 419.385047 50.751251 
L 419.454861 49.706052 
L 419.51189 49.706052 
L 419.620582 48.660853 
L 419.670436 48.660853 
L 419.776908 45.525257 
L 419.799611 45.525257 
L 419.90414 43.434859 
L 419.928358 43.434859 
L 419.928358 42.912259 
L 420.119473 42.912259 
L 420.17439 41.344461 
L 420.231891 41.344461 
L 420.340519 38.731464 
L 420.486048 38.731464 
L 420.587747 36.641066 
L 420.600172 36.641066 
L 420.600172 36.118466 
L 420.727127 36.118466 
L 420.810041 35.073267 
L 420.853285 35.073267 
L 420.940725 34.028068 
L 420.972042 34.028068 
L 420.972042 33.505469 
L 421.129376 33.505469 
L 421.21001 32.46027 
L 421.297471 32.46027 
L 421.297471 31.937671 
L 421.500462 31.937671 
L 421.584998 30.892472 
L 421.634853 30.892472 
L 421.667306 29.847273 
L 421.886404 29.847273 
L 421.886404 29.324673 
L 422.045113 29.324673 
L 422.045113 28.802074 
L 422.474818 28.802074 
L 422.474818 28.279474 
L 422.654588 28.279474 
L 422.710141 27.234275 
L 422.775471 27.234275 
L 422.775471 26.711676 
L 423.118675 26.711676 
L 423.148726 25.666477 
L 423.340309 25.666477 
L 423.340309 25.143878 
L 423.538123 25.143878 
L 423.538123 24.621278 
L 423.692002 24.621278 
L 423.758489 23.576079 
L 424.442177 23.576079 
L 424.442177 23.05348 
L 424.625091 23.05348 
L 424.728094 22.008281 
L 424.912427 22.008281 
L 425.011552 20.963082 
L 425.773823 20.963082 
L 425.773823 20.440482 
L 426.046308 20.440482 
L 426.046308 19.917883 
L 426.268212 19.917883 
L 426.268212 19.395284 
L 426.408183 19.395284 
L 426.408183 18.872684 
L 426.876639 18.872684 
L 426.877226 17.827485 
L 428.753331 17.827485 
L 428.753331 17.304886 
L 429.296569 17.304886 
L 429.355186 16.259687 
L 429.420714 16.259687 
L 429.45673 15.214488 
L 429.975996 15.214488 
L 429.975996 14.691888 
L 430.414571 14.691888 
L 430.414571 14.169289 
L 430.538473 14.169289 
L 430.538473 13.646689 
L 431.890389 13.646689 
L 431.890389 13.12409 
L 432.006314 13.12409 
L 432.006314 12.601491 
L 432.725492 12.601491 
L 432.725492 12.078891 
L 433.072023 12.078891 
L 433.072023 11.556292 
L 433.601424 11.556292 
L 433.601424 11.033692 
L 433.802199 11.033692 
L 433.802199 10.511093 
L 435.676906 10.511093 
L 435.676906 9.988493 
L 437.175246 9.988493 
L 437.175246 9.465894 
L 437.595267 9.465894 
L 437.595267 8.943294 
L 439.741178 8.943294 
L 439.741178 8.420695 
L 441.682384 8.420695 
L 441.682384 7.898095 
L 444.216204 7.898095 
L 444.216204 7.375496 
L 445.502925 7.375496 
L 445.502925 6.852896 
L 456.556009 6.852896 
L 456.556009 6.330297 
L 456.556009 6.330297 
L 460.8 6.330297 
L 460.8 6.330297 
" clip-path="url(#p58c860039b)" style="fill: none; stroke: #bf00bf; stroke-width: 1.5; stroke-linecap: square"/>
   </g>
   <g id="line2d_24">
    <path d="M 373.154498 293.76 
L 373.154498 293.237401 
L 375.208359 293.237401 
L 375.208359 292.714801 
L 379.45003 292.714801 
L 379.45003 292.192202 
L 380.456539 292.192202 
L 380.456539 291.669602 
L 385.976016 291.669602 
L 385.976016 291.147003 
L 386.723044 291.147003 
L 386.723044 290.624403 
L 386.909007 290.624403 
L 386.909007 290.101804 
L 387.909486 290.101804 
L 387.909486 289.579204 
L 389.866581 289.579204 
L 389.906108 288.534005 
L 390.500174 288.534005 
L 390.500174 288.011406 
L 391.058591 288.011406 
L 391.076983 286.966207 
L 391.54173 286.966207 
L 391.54173 286.443608 
L 391.853491 286.443608 
L 391.853491 285.921008 
L 392.352078 285.921008 
L 392.352078 285.398409 
L 392.896592 285.398409 
L 392.977686 283.83061 
L 393.389399 283.83061 
L 393.389399 283.308011 
L 393.766162 283.308011 
L 393.766162 282.785411 
L 394.28775 282.785411 
L 394.28775 282.262812 
L 394.655397 282.262812 
L 394.655397 281.740212 
L 395.193603 281.740212 
L 395.193603 281.217613 
L 397.058397 281.217613 
L 397.058397 280.695014 
L 397.809001 280.695014 
L 397.842723 279.649815 
L 398.544747 279.649815 
L 398.544747 279.127215 
L 398.872855 279.127215 
L 398.872855 278.604616 
L 399.204529 278.604616 
L 399.264103 277.559417 
L 399.371961 277.559417 
L 399.371961 277.036817 
L 399.768651 277.036817 
L 399.768651 276.514218 
L 399.910198 276.514218 
L 399.910198 275.991618 
L 400.055108 275.991618 
L 400.055108 275.469019 
L 400.318129 275.469019 
L 400.318129 274.946419 
L 400.450604 274.946419 
L 400.550215 273.901221 
L 400.686748 273.901221 
L 400.788249 272.856022 
L 400.844974 272.856022 
L 400.844974 272.333422 
L 400.963563 272.333422 
L 400.963563 271.810823 
L 401.378001 271.810823 
L 401.467254 270.243024 
L 401.594263 270.243024 
L 401.609102 269.197825 
L 401.922043 269.197825 
L 401.922043 268.675226 
L 402.281778 268.675226 
L 402.323862 267.630027 
L 402.418351 267.630027 
L 402.418351 267.107428 
L 402.590698 267.107428 
L 402.592161 266.062229 
L 402.783343 266.062229 
L 402.873039 265.01703 
L 402.907021 265.01703 
L 403.009585 262.926632 
L 403.04237 262.926632 
L 403.070402 261.881433 
L 403.19958 261.881433 
L 403.284431 260.313635 
L 403.345139 260.313635 
L 403.412858 258.745836 
L 403.727215 258.745836 
L 403.823443 257.178038 
L 403.922973 257.178038 
L 404.029192 254.565041 
L 404.11901 254.565041 
L 404.226752 252.474643 
L 404.304265 252.474643 
L 404.398786 251.429444 
L 404.527539 251.429444 
L 404.612873 249.339046 
L 404.915428 249.339046 
L 404.962189 248.293847 
L 405.110629 248.293847 
L 405.110918 247.248648 
L 405.297314 247.248648 
L 405.395209 244.113051 
L 405.426878 244.113051 
L 405.483917 243.067852 
L 405.550149 243.067852 
L 405.628635 240.454855 
L 405.688147 240.454855 
L 405.764367 238.364457 
L 405.808944 238.364457 
L 405.826815 237.319258 
L 406.247658 237.319258 
L 406.332315 235.22886 
L 406.367218 235.22886 
L 406.475383 234.183662 
L 406.546674 234.183662 
L 406.649696 233.138463 
L 406.702305 233.138463 
L 406.799657 231.570664 
L 406.826088 231.570664 
L 406.85424 228.435068 
L 406.958949 228.435068 
L 407.049423 226.34467 
L 407.154609 226.34467 
L 407.260866 225.299471 
L 407.35366 225.299471 
L 407.4277 223.731672 
L 407.518001 223.731672 
L 407.625663 222.163874 
L 407.696285 222.163874 
L 407.761822 219.028277 
L 407.859272 219.028277 
L 407.943795 216.937879 
L 408.097932 216.937879 
L 408.125339 215.370081 
L 408.289769 215.370081 
L 408.398506 213.802283 
L 408.409261 213.802283 
L 408.51025 211.189285 
L 408.575472 211.189285 
L 408.642681 210.144086 
L 408.715823 210.144086 
L 408.762262 209.098887 
L 408.854079 209.098887 
L 408.942031 204.395492 
L 409.035408 204.395492 
L 409.109022 202.305095 
L 409.146927 202.305095 
L 409.222963 200.214697 
L 409.299528 200.214697 
L 409.31788 199.169498 
L 409.413887 199.169498 
L 409.517041 197.601699 
L 409.594474 197.601699 
L 409.664958 195.511302 
L 409.718589 195.511302 
L 409.769592 193.420904 
L 409.833562 193.420904 
L 409.892599 191.853105 
L 409.94896 191.853105 
L 410.026492 189.762707 
L 410.26658 189.762707 
L 410.298783 188.717509 
L 410.436899 188.717509 
L 410.492191 186.104511 
L 410.607148 186.104511 
L 410.662718 182.968914 
L 410.807709 182.968914 
L 410.904984 178.788119 
L 410.983613 178.788119 
L 411.035149 177.74292 
L 411.119266 177.74292 
L 411.168883 176.697721 
L 411.24926 176.697721 
L 411.358367 175.129923 
L 411.363643 175.129923 
L 411.457966 173.562124 
L 411.496705 173.562124 
L 411.598947 170.949127 
L 411.608893 170.949127 
L 411.700598 168.33613 
L 411.728281 168.33613 
L 411.801959 166.245732 
L 411.846486 166.245732 
L 411.929961 164.677933 
L 412.047851 164.677933 
L 412.133316 162.064936 
L 412.222389 162.064936 
L 412.324319 159.974538 
L 412.383468 159.974538 
L 412.442042 157.88414 
L 412.4954 157.88414 
L 412.532046 156.838941 
L 412.638025 156.838941 
L 412.733242 154.748544 
L 412.82307 154.748544 
L 412.904211 152.658146 
L 412.96277 152.658146 
L 413.042929 150.567748 
L 413.080968 150.567748 
L 413.183741 148.99995 
L 413.200287 148.99995 
L 413.308159 145.864353 
L 413.413923 145.864353 
L 413.456874 144.296554 
L 413.551487 144.296554 
L 413.6539 142.206157 
L 413.673341 142.206157 
L 413.773927 138.025361 
L 413.785172 138.025361 
L 413.870175 134.889764 
L 413.932653 134.889764 
L 414.020212 133.321966 
L 414.055077 133.321966 
L 414.105064 132.276767 
L 414.172665 132.276767 
L 414.23425 130.186369 
L 414.308188 130.186369 
L 414.418303 128.618571 
L 414.477035 128.618571 
L 414.522364 126.528173 
L 414.590243 126.528173 
L 414.590725 125.482974 
L 414.752454 125.482974 
L 414.822929 122.347377 
L 414.870973 122.347377 
L 414.938572 120.256979 
L 415.067271 120.256979 
L 415.139625 118.689181 
L 415.212007 118.689181 
L 415.303332 116.598783 
L 415.35618 116.598783 
L 415.463165 114.508385 
L 415.538924 114.508385 
L 415.649981 112.417987 
L 415.714003 112.417987 
L 415.787297 110.32759 
L 415.926559 110.32759 
L 416.006978 108.237192 
L 416.05674 108.237192 
L 416.16398 104.578995 
L 416.184558 104.578995 
L 416.273425 101.965998 
L 416.306435 101.965998 
L 416.34512 99.353001 
L 416.44424 99.353001 
L 416.515764 97.262603 
L 416.578888 97.262603 
L 416.666192 93.081807 
L 416.694439 93.081807 
L 416.751457 92.036608 
L 416.847212 92.036608 
L 416.893815 90.46881 
L 416.973384 90.46881 
L 417.067391 88.378412 
L 417.086208 88.378412 
L 417.118301 86.810614 
L 417.213023 86.810614 
L 417.316816 84.197617 
L 417.367027 84.197617 
L 417.466299 82.629818 
L 417.480319 82.629818 
L 417.498692 81.06202 
L 417.635154 81.06202 
L 417.635154 80.53942 
L 417.775905 80.53942 
L 417.839827 78.971622 
L 417.920064 78.971622 
L 418.012066 76.881224 
L 418.102371 76.881224 
L 418.204681 73.745627 
L 418.235289 73.745627 
L 418.345341 71.13263 
L 418.417717 71.13263 
L 418.462767 69.042232 
L 418.559166 69.042232 
L 418.660054 66.429235 
L 418.696043 66.429235 
L 418.803585 61.72584 
L 418.841506 61.72584 
L 418.945138 58.590243 
L 418.973174 58.590243 
L 419.042699 56.499845 
L 419.098518 56.499845 
L 419.142393 53.364248 
L 419.245285 53.364248 
L 419.332822 50.228652 
L 419.385047 50.228652 
L 419.454861 49.183453 
L 419.51189 49.183453 
L 419.620582 48.138254 
L 419.670436 48.138254 
L 419.776908 45.002657 
L 419.799611 45.002657 
L 419.90414 42.912259 
L 419.928358 42.912259 
L 419.928358 42.38966 
L 420.119473 42.38966 
L 420.17439 40.821861 
L 420.231891 40.821861 
L 420.340519 38.208864 
L 420.486048 38.208864 
L 420.587747 36.118466 
L 420.600172 36.118466 
L 420.600172 35.595867 
L 420.727127 35.595867 
L 420.810041 34.550668 
L 420.853285 34.550668 
L 420.940725 33.505469 
L 420.972042 33.505469 
L 420.972042 32.982869 
L 421.129376 32.982869 
L 421.21001 31.937671 
L 421.297471 31.937671 
L 421.297471 31.415071 
L 421.500462 31.415071 
L 421.584998 30.369872 
L 421.634853 30.369872 
L 421.634853 29.847273 
L 421.886404 29.847273 
L 421.886404 29.324673 
L 422.045113 29.324673 
L 422.045113 28.802074 
L 422.474818 28.802074 
L 422.474818 28.279474 
L 422.654588 28.279474 
L 422.710141 27.234275 
L 422.775471 27.234275 
L 422.775471 26.711676 
L 423.118675 26.711676 
L 423.148726 25.666477 
L 423.340309 25.666477 
L 423.340309 25.143878 
L 423.538123 25.143878 
L 423.538123 24.621278 
L 423.692002 24.621278 
L 423.758489 23.576079 
L 424.442177 23.576079 
L 424.442177 23.05348 
L 424.625091 23.05348 
L 424.728094 22.008281 
L 424.912427 22.008281 
L 425.011552 20.963082 
L 425.773823 20.963082 
L 425.773823 20.440482 
L 426.046308 20.440482 
L 426.046308 19.917883 
L 426.268212 19.917883 
L 426.268212 19.395284 
L 426.408183 19.395284 
L 426.408183 18.872684 
L 426.876639 18.872684 
L 426.877226 17.827485 
L 428.753331 17.827485 
L 428.753331 17.304886 
L 429.296569 17.304886 
L 429.355186 16.259687 
L 429.420714 16.259687 
L 429.45673 15.214488 
L 429.975996 15.214488 
L 429.975996 14.691888 
L 430.172141 14.691888 
L 430.172141 14.169289 
L 430.414571 14.169289 
L 430.414571 13.646689 
L 430.538473 13.646689 
L 430.538473 13.12409 
L 431.890389 13.12409 
L 431.890389 12.601491 
L 432.006314 12.601491 
L 432.006314 12.078891 
L 432.725492 12.078891 
L 432.725492 11.556292 
L 433.072023 11.556292 
L 433.072023 11.033692 
L 433.601424 11.033692 
L 433.601424 10.511093 
L 433.802199 10.511093 
L 433.802199 9.988493 
L 435.057642 9.988493 
L 435.057642 9.465894 
L 435.676906 9.465894 
L 435.676906 8.943294 
L 437.175246 8.943294 
L 437.175246 8.420695 
L 439.741178 8.420695 
L 439.741178 7.898095 
L 441.682384 7.898095 
L 441.682384 7.375496 
L 444.216204 7.375496 
L 444.216204 6.852896 
L 445.502925 6.852896 
L 445.502925 6.330297 
L 445.502925 6.330297 
L 460.8 6.330297 
L 460.8 6.330297 
" clip-path="url(#p58c860039b)" style="fill: none; stroke: #000000; stroke-width: 1.5; stroke-linecap: square"/>
   </g>
   <g id="line2d_25">
    <path d="M 373.154498 293.76 
L 373.154498 293.237401 
L 375.208359 293.237401 
L 375.208359 292.714801 
L 379.45003 292.714801 
L 379.45003 292.192202 
L 380.456539 292.192202 
L 380.456539 291.669602 
L 385.976016 291.669602 
L 385.976016 291.147003 
L 386.723044 291.147003 
L 386.723044 290.624403 
L 386.909007 290.624403 
L 386.909007 290.101804 
L 387.909486 290.101804 
L 387.909486 289.579204 
L 389.854527 289.579204 
L 389.866581 288.534005 
L 390.500174 288.534005 
L 390.500174 288.011406 
L 391.058591 288.011406 
L 391.076983 286.966207 
L 391.54173 286.966207 
L 391.54173 286.443608 
L 391.853491 286.443608 
L 391.853491 285.921008 
L 392.352078 285.921008 
L 392.352078 285.398409 
L 392.896592 285.398409 
L 392.977686 283.83061 
L 393.389399 283.83061 
L 393.389399 283.308011 
L 393.766162 283.308011 
L 393.766162 282.785411 
L 394.28775 282.785411 
L 394.28775 282.262812 
L 394.655397 282.262812 
L 394.655397 281.740212 
L 395.193603 281.740212 
L 395.193603 281.217613 
L 397.058397 281.217613 
L 397.058397 280.695014 
L 397.809001 280.695014 
L 397.842723 279.649815 
L 398.544747 279.649815 
L 398.544747 279.127215 
L 398.872855 279.127215 
L 398.872855 278.604616 
L 399.204529 278.604616 
L 399.264103 277.559417 
L 399.34678 277.559417 
L 399.371961 276.514218 
L 399.768651 276.514218 
L 399.768651 275.991618 
L 399.910198 275.991618 
L 399.910198 275.469019 
L 400.055108 275.469019 
L 400.055108 274.946419 
L 400.318129 274.946419 
L 400.318129 274.42382 
L 400.450604 274.42382 
L 400.550215 273.378621 
L 400.686748 273.378621 
L 400.788249 272.333422 
L 400.844974 272.333422 
L 400.844974 271.810823 
L 400.963563 271.810823 
L 400.963563 271.288223 
L 401.243792 271.288223 
L 401.243792 270.765624 
L 401.378001 270.765624 
L 401.467254 269.197825 
L 401.594263 269.197825 
L 401.609102 268.152626 
L 401.922043 268.152626 
L 401.922043 267.630027 
L 402.281778 267.630027 
L 402.323862 266.584828 
L 402.418351 266.584828 
L 402.418351 266.062229 
L 402.590698 266.062229 
L 402.592161 265.01703 
L 402.783343 265.01703 
L 402.873039 263.971831 
L 402.907021 263.971831 
L 403.009585 261.881433 
L 403.04237 261.881433 
L 403.070402 260.836234 
L 403.243165 260.836234 
L 403.345139 259.268436 
L 403.377209 259.268436 
L 403.412858 258.223237 
L 403.727215 258.223237 
L 403.823443 256.655438 
L 403.922973 256.655438 
L 404.029192 254.042441 
L 404.11901 254.042441 
L 404.226752 251.952043 
L 404.304265 251.952043 
L 404.398786 250.384245 
L 404.527539 250.384245 
L 404.612873 248.293847 
L 404.915428 248.293847 
L 404.962189 247.248648 
L 405.110629 247.248648 
L 405.110918 246.203449 
L 405.297314 246.203449 
L 405.395209 243.067852 
L 405.426878 243.067852 
L 405.483917 242.022653 
L 405.550149 242.022653 
L 405.628635 239.409656 
L 405.688147 239.409656 
L 405.764367 237.319258 
L 405.808944 237.319258 
L 405.826815 236.274059 
L 406.247658 236.274059 
L 406.332315 234.183662 
L 406.367218 234.183662 
L 406.475383 233.138463 
L 406.546674 233.138463 
L 406.649696 232.093264 
L 406.702305 232.093264 
L 406.799657 230.525465 
L 406.826088 230.525465 
L 406.85424 227.389869 
L 406.958949 227.389869 
L 407.049423 225.299471 
L 407.154609 225.299471 
L 407.260866 224.254272 
L 407.35366 224.254272 
L 407.4277 222.686473 
L 407.518001 222.686473 
L 407.625663 221.118675 
L 407.71121 221.118675 
L 407.761822 218.505678 
L 407.859272 218.505678 
L 407.943795 216.937879 
L 408.097932 216.937879 
L 408.125339 215.370081 
L 408.289769 215.370081 
L 408.398506 213.802283 
L 408.409261 213.802283 
L 408.51025 211.189285 
L 408.575472 211.189285 
L 408.642681 210.144086 
L 408.715823 210.144086 
L 408.762262 209.098887 
L 408.854079 209.098887 
L 408.942031 204.395492 
L 409.035408 204.395492 
L 409.109022 202.305095 
L 409.146927 202.305095 
L 409.222963 200.214697 
L 409.299528 200.214697 
L 409.31788 199.169498 
L 409.413887 199.169498 
L 409.517041 197.601699 
L 409.594474 197.601699 
L 409.664958 195.511302 
L 409.718589 195.511302 
L 409.769592 193.420904 
L 409.833562 193.420904 
L 409.892599 191.853105 
L 409.94896 191.853105 
L 410.026492 189.762707 
L 410.26658 189.762707 
L 410.298783 188.717509 
L 410.436899 188.717509 
L 410.492191 186.104511 
L 410.607148 186.104511 
L 410.662718 182.968914 
L 410.807709 182.968914 
L 410.904984 178.788119 
L 410.983613 178.788119 
L 411.035149 177.74292 
L 411.119266 177.74292 
L 411.168883 176.697721 
L 411.24926 176.697721 
L 411.358367 175.129923 
L 411.363643 175.129923 
L 411.457966 173.562124 
L 411.496705 173.562124 
L 411.598947 170.949127 
L 411.608893 170.949127 
L 411.700598 168.33613 
L 411.728281 168.33613 
L 411.801959 166.245732 
L 411.846486 166.245732 
L 411.929961 164.677933 
L 412.047851 164.677933 
L 412.133316 162.064936 
L 412.222389 162.064936 
L 412.324319 159.974538 
L 412.383468 159.974538 
L 412.442042 157.88414 
L 412.4954 157.88414 
L 412.532046 156.838941 
L 412.638025 156.838941 
L 412.733242 154.748544 
L 412.82307 154.748544 
L 412.904211 152.658146 
L 412.96277 152.658146 
L 413.042929 150.567748 
L 413.080968 150.567748 
L 413.183741 148.99995 
L 413.200287 148.99995 
L 413.308159 145.864353 
L 413.413923 145.864353 
L 413.456874 144.296554 
L 413.551487 144.296554 
L 413.6539 142.206157 
L 413.673341 142.206157 
L 413.773927 138.025361 
L 413.785172 138.025361 
L 413.870175 134.889764 
L 413.932653 134.889764 
L 414.020212 133.321966 
L 414.055077 133.321966 
L 414.105064 132.276767 
L 414.172665 132.276767 
L 414.23425 130.186369 
L 414.308188 130.186369 
L 414.418303 128.618571 
L 414.477035 128.618571 
L 414.522364 126.528173 
L 414.590243 126.528173 
L 414.590725 125.482974 
L 414.752454 125.482974 
L 414.822929 122.347377 
L 414.870973 122.347377 
L 414.938572 120.256979 
L 415.067271 120.256979 
L 415.139625 118.689181 
L 415.212007 118.689181 
L 415.303332 116.598783 
L 415.35618 116.598783 
L 415.463165 114.508385 
L 415.538924 114.508385 
L 415.649981 112.417987 
L 415.71272 112.417987 
L 415.787297 109.80499 
L 415.926559 109.80499 
L 416.006978 107.714592 
L 416.05674 107.714592 
L 416.16398 104.056396 
L 416.184558 104.056396 
L 416.273425 101.443399 
L 416.306435 101.443399 
L 416.34512 98.830401 
L 416.44424 98.830401 
L 416.508623 97.262603 
L 416.578888 97.262603 
L 416.666192 93.081807 
L 416.694439 93.081807 
L 416.751457 92.036608 
L 416.847212 92.036608 
L 416.893815 90.46881 
L 416.973384 90.46881 
L 417.067391 88.378412 
L 417.086208 88.378412 
L 417.118301 86.810614 
L 417.213023 86.810614 
L 417.316816 84.197617 
L 417.367027 84.197617 
L 417.466299 82.629818 
L 417.480319 82.629818 
L 417.498692 81.06202 
L 417.635154 81.06202 
L 417.635154 80.53942 
L 417.775905 80.53942 
L 417.839827 78.971622 
L 417.920064 78.971622 
L 418.012066 76.881224 
L 418.102371 76.881224 
L 418.204681 73.745627 
L 418.235289 73.745627 
L 418.345341 71.13263 
L 418.417717 71.13263 
L 418.462767 69.042232 
L 418.559166 69.042232 
L 418.660054 66.429235 
L 418.696043 66.429235 
L 418.803585 61.72584 
L 418.841506 61.72584 
L 418.945138 58.590243 
L 418.973174 58.590243 
L 419.042699 56.499845 
L 419.098518 56.499845 
L 419.142393 53.364248 
L 419.245285 53.364248 
L 419.332822 50.228652 
L 419.385047 50.228652 
L 419.454861 49.183453 
L 419.51189 49.183453 
L 419.620582 48.138254 
L 419.670436 48.138254 
L 419.776908 45.002657 
L 419.799611 45.002657 
L 419.90414 42.912259 
L 419.928358 42.912259 
L 419.928358 42.38966 
L 420.119473 42.38966 
L 420.17439 40.821861 
L 420.231891 40.821861 
L 420.340519 38.208864 
L 420.486048 38.208864 
L 420.587747 36.118466 
L 420.600172 36.118466 
L 420.667548 35.073267 
L 420.727127 35.073267 
L 420.810041 34.028068 
L 420.853285 34.028068 
L 420.853285 33.505469 
L 420.972042 33.505469 
L 420.972042 32.982869 
L 421.129376 32.982869 
L 421.21001 31.937671 
L 421.297471 31.937671 
L 421.297471 31.415071 
L 421.500462 31.415071 
L 421.584998 30.369872 
L 421.634853 30.369872 
L 421.634853 29.847273 
L 421.886404 29.847273 
L 421.886404 29.324673 
L 422.045113 29.324673 
L 422.045113 28.802074 
L 422.474818 28.802074 
L 422.474818 28.279474 
L 422.654588 28.279474 
L 422.710141 27.234275 
L 422.775471 27.234275 
L 422.775471 26.711676 
L 423.118675 26.711676 
L 423.148726 25.666477 
L 423.340309 25.666477 
L 423.340309 25.143878 
L 423.538123 25.143878 
L 423.538123 24.621278 
L 423.692002 24.621278 
L 423.758489 23.576079 
L 424.442177 23.576079 
L 424.442177 23.05348 
L 424.625091 23.05348 
L 424.728094 22.008281 
L 424.912427 22.008281 
L 425.011552 20.963082 
L 425.773823 20.963082 
L 425.773823 20.440482 
L 426.046308 20.440482 
L 426.046308 19.917883 
L 426.268212 19.917883 
L 426.268212 19.395284 
L 426.408183 19.395284 
L 426.408183 18.872684 
L 426.876639 18.872684 
L 426.877226 17.827485 
L 428.363692 17.827485 
L 428.363692 17.304886 
L 428.753331 17.304886 
L 428.753331 16.782286 
L 429.296569 16.782286 
L 429.355186 15.737087 
L 429.420714 15.737087 
L 429.45673 14.691888 
L 429.975996 14.691888 
L 429.975996 14.169289 
L 430.172141 14.169289 
L 430.172141 13.646689 
L 430.414571 13.646689 
L 430.414571 13.12409 
L 430.538473 13.12409 
L 430.538473 12.601491 
L 431.890389 12.601491 
L 431.890389 12.078891 
L 432.006314 12.078891 
L 432.006314 11.556292 
L 432.725492 11.556292 
L 432.725492 11.033692 
L 433.072023 11.033692 
L 433.072023 10.511093 
L 433.601424 10.511093 
L 433.601424 9.988493 
L 435.057642 9.988493 
L 435.057642 9.465894 
L 435.676906 9.465894 
L 435.676906 8.943294 
L 437.175246 8.943294 
L 437.175246 8.420695 
L 439.741178 8.420695 
L 439.741178 7.898095 
L 441.682384 7.898095 
L 441.682384 7.375496 
L 444.216204 7.375496 
L 444.216204 6.852896 
L 445.502925 6.852896 
L 445.502925 6.330297 
L 445.502925 6.330297 
L 460.8 6.330297 
L 460.8 6.330297 
" clip-path="url(#p58c860039b)" style="fill: none; stroke: #00bfbf; stroke-width: 1.5; stroke-linecap: square"/>
   </g>
   <g id="line2d_26">
    <path d="M 373.154498 293.76 
L 373.154498 293.237401 
L 375.208359 293.237401 
L 375.208359 292.714801 
L 378.867041 292.714801 
L 378.867041 292.192202 
L 379.45003 292.192202 
L 379.45003 291.669602 
L 380.456539 291.669602 
L 380.456539 291.147003 
L 385.976016 291.147003 
L 385.976016 290.624403 
L 386.723044 290.624403 
L 386.723044 290.101804 
L 386.909007 290.101804 
L 386.909007 289.579204 
L 387.909486 289.579204 
L 387.909486 289.056605 
L 389.866581 289.056605 
L 389.866581 288.534005 
L 390.500174 288.534005 
L 390.500174 288.011406 
L 391.058591 288.011406 
L 391.076983 286.966207 
L 391.54173 286.966207 
L 391.54173 286.443608 
L 391.853491 286.443608 
L 391.853491 285.921008 
L 392.352078 285.921008 
L 392.352078 285.398409 
L 392.896592 285.398409 
L 392.977686 283.83061 
L 393.389399 283.83061 
L 393.389399 283.308011 
L 393.766162 283.308011 
L 393.766162 282.785411 
L 394.28775 282.785411 
L 394.28775 282.262812 
L 394.655397 282.262812 
L 394.655397 281.740212 
L 395.193603 281.740212 
L 395.193603 281.217613 
L 397.058397 281.217613 
L 397.058397 280.695014 
L 397.170011 280.695014 
L 397.170011 280.172414 
L 397.809001 280.172414 
L 397.842723 279.127215 
L 398.234551 279.127215 
L 398.234551 278.604616 
L 398.544747 278.604616 
L 398.544747 278.082016 
L 398.872855 278.082016 
L 398.872855 277.559417 
L 399.141621 277.559417 
L 399.204529 276.514218 
L 399.264103 276.514218 
L 399.371961 275.469019 
L 399.768651 275.469019 
L 399.768651 274.946419 
L 399.910198 274.946419 
L 399.910198 274.42382 
L 400.055108 274.42382 
L 400.055108 273.901221 
L 400.318129 273.901221 
L 400.318129 273.378621 
L 400.450604 273.378621 
L 400.550215 272.333422 
L 400.686748 272.333422 
L 400.788249 271.288223 
L 400.844974 271.288223 
L 400.844974 270.765624 
L 400.963563 270.765624 
L 400.963563 270.243024 
L 401.243792 270.243024 
L 401.263447 269.197825 
L 401.378001 269.197825 
L 401.467254 267.630027 
L 401.594263 267.630027 
L 401.609102 266.584828 
L 401.922043 266.584828 
L 401.922043 266.062229 
L 402.281778 266.062229 
L 402.323862 265.01703 
L 402.418351 265.01703 
L 402.479306 263.971831 
L 402.590698 263.971831 
L 402.592161 262.926632 
L 402.783343 262.926632 
L 402.873039 261.881433 
L 402.907021 261.881433 
L 403.009585 259.791035 
L 403.04237 259.791035 
L 403.070402 258.745836 
L 403.243165 258.745836 
L 403.345139 257.178038 
L 403.377209 257.178038 
L 403.412858 256.132839 
L 403.727215 256.132839 
L 403.823443 254.565041 
L 403.922973 254.565041 
L 404.029192 251.429444 
L 404.11901 251.429444 
L 404.226752 249.339046 
L 404.304265 249.339046 
L 404.398786 248.293847 
L 404.527539 248.293847 
L 404.612873 246.203449 
L 404.915428 246.203449 
L 404.962189 245.15825 
L 405.110629 245.15825 
L 405.110918 244.113051 
L 405.297314 244.113051 
L 405.395209 240.977455 
L 405.426878 240.977455 
L 405.483917 239.932256 
L 405.550149 239.932256 
L 405.628635 237.319258 
L 405.688147 237.319258 
L 405.764367 235.22886 
L 405.808944 235.22886 
L 405.826815 234.183662 
L 406.247658 234.183662 
L 406.332315 232.093264 
L 406.367218 232.093264 
L 406.475383 231.048065 
L 406.546674 231.048065 
L 406.546674 230.525465 
L 406.702305 230.525465 
L 406.799657 228.435068 
L 406.826088 228.435068 
L 406.85424 225.299471 
L 406.969301 225.299471 
L 407.033982 223.209073 
L 407.154609 223.209073 
L 407.260866 222.163874 
L 407.286439 222.163874 
L 407.381314 220.596076 
L 407.4277 220.596076 
L 407.518001 219.550877 
L 407.587284 219.550877 
L 407.587284 219.028277 
L 407.71121 219.028277 
L 407.761822 216.937879 
L 407.859272 216.937879 
L 407.943795 215.370081 
L 408.097932 215.370081 
L 408.125339 213.802283 
L 408.289769 213.802283 
L 408.398506 212.234484 
L 408.409261 212.234484 
L 408.51025 209.621487 
L 408.575472 209.621487 
L 408.642681 208.576288 
L 408.715823 208.576288 
L 408.762262 207.531089 
L 408.854079 207.531089 
L 408.942031 202.827694 
L 409.035408 202.827694 
L 409.109022 200.737296 
L 409.146927 200.737296 
L 409.222963 198.646898 
L 409.299528 198.646898 
L 409.31788 197.601699 
L 409.413887 197.601699 
L 409.517041 196.033901 
L 409.594474 196.033901 
L 409.664958 193.943503 
L 409.718589 193.943503 
L 409.769592 191.853105 
L 409.833562 191.853105 
L 409.892599 190.285307 
L 409.94896 190.285307 
L 410.026492 188.194909 
L 410.26658 188.194909 
L 410.298783 187.14971 
L 410.436899 187.14971 
L 410.492191 184.536713 
L 410.607148 184.536713 
L 410.662718 181.401116 
L 410.807709 181.401116 
L 410.904984 177.22032 
L 410.983613 177.22032 
L 411.035149 176.175122 
L 411.119266 176.175122 
L 411.168883 175.129923 
L 411.24926 175.129923 
L 411.358367 173.562124 
L 411.363643 173.562124 
L 411.457966 171.994326 
L 411.479531 171.994326 
L 411.575422 169.903928 
L 411.59849 169.903928 
L 411.700598 166.245732 
L 411.728281 166.245732 
L 411.801959 164.155334 
L 411.846486 164.155334 
L 411.929961 162.587536 
L 412.047851 162.587536 
L 412.133316 159.974538 
L 412.222389 159.974538 
L 412.324319 157.88414 
L 412.383468 157.88414 
L 412.442042 155.793743 
L 412.4954 155.793743 
L 412.532046 154.748544 
L 412.638025 154.748544 
L 412.733242 152.658146 
L 412.82307 152.658146 
L 412.904211 150.567748 
L 412.96277 150.567748 
L 413.042929 148.47735 
L 413.080968 148.47735 
L 413.183741 146.909552 
L 413.200287 146.909552 
L 413.308159 143.773955 
L 413.413923 143.773955 
L 413.456874 142.206157 
L 413.551487 142.206157 
L 413.6539 140.115759 
L 413.673341 140.115759 
L 413.773927 136.457563 
L 413.785172 136.457563 
L 413.870175 133.321966 
L 413.932653 133.321966 
L 414.020212 131.754167 
L 414.055077 131.754167 
L 414.105064 130.708968 
L 414.172665 130.708968 
L 414.23425 128.618571 
L 414.308188 128.618571 
L 414.418303 127.573372 
L 414.477035 127.573372 
L 414.522364 125.482974 
L 414.590243 125.482974 
L 414.590725 124.437775 
L 414.752454 124.437775 
L 414.822929 120.779579 
L 414.870973 120.779579 
L 414.938572 118.689181 
L 415.067271 118.689181 
L 415.139625 116.598783 
L 415.212007 116.598783 
L 415.303332 114.508385 
L 415.35618 114.508385 
L 415.463165 112.417987 
L 415.538924 112.417987 
L 415.649981 110.32759 
L 415.714003 110.32759 
L 415.787297 108.237192 
L 415.926559 108.237192 
L 416.006978 106.146794 
L 416.05674 106.146794 
L 416.16398 102.488598 
L 416.184558 102.488598 
L 416.273425 99.8756 
L 416.306435 99.8756 
L 416.34512 97.262603 
L 416.44424 97.262603 
L 416.508623 95.694805 
L 416.578888 95.694805 
L 416.666192 90.99141 
L 416.694439 90.99141 
L 416.751457 89.946211 
L 416.847212 89.946211 
L 416.893815 88.378412 
L 416.973384 88.378412 
L 417.067391 86.810614 
L 417.086208 86.810614 
L 417.118301 85.242815 
L 417.213023 85.242815 
L 417.286385 83.152418 
L 417.367027 83.152418 
L 417.466299 81.584619 
L 417.480319 81.584619 
L 417.498692 80.016821 
L 417.635154 80.016821 
L 417.635154 79.494221 
L 417.775905 79.494221 
L 417.839827 77.926423 
L 417.920064 77.926423 
L 418.012066 75.836025 
L 418.102371 75.836025 
L 418.204681 72.700428 
L 418.235289 72.700428 
L 418.345341 70.087431 
L 418.417717 70.087431 
L 418.462767 67.997033 
L 418.559166 67.997033 
L 418.660054 65.384036 
L 418.696043 65.384036 
L 418.803585 60.680641 
L 418.841506 60.680641 
L 418.945138 57.545044 
L 418.973174 57.545044 
L 419.042699 55.454646 
L 419.098518 55.454646 
L 419.142393 52.31905 
L 419.245285 52.31905 
L 419.332822 49.183453 
L 419.385047 49.183453 
L 419.454861 48.138254 
L 419.51189 48.138254 
L 419.620582 47.093055 
L 419.670436 47.093055 
L 419.776908 43.957458 
L 419.799611 43.957458 
L 419.90414 41.86706 
L 419.928358 41.86706 
L 419.928358 41.344461 
L 420.119473 41.344461 
L 420.17439 39.776662 
L 420.231891 39.776662 
L 420.340519 37.163665 
L 420.486048 37.163665 
L 420.587747 34.550668 
L 420.600172 34.550668 
L 420.600172 34.028068 
L 420.727127 34.028068 
L 420.810041 32.982869 
L 420.853285 32.982869 
L 420.853285 32.46027 
L 420.972042 32.46027 
L 420.972042 31.937671 
L 421.129376 31.937671 
L 421.21001 30.892472 
L 421.297471 30.892472 
L 421.297471 30.369872 
L 421.500462 30.369872 
L 421.584998 29.324673 
L 421.634853 29.324673 
L 421.634853 28.802074 
L 421.886404 28.802074 
L 421.931419 27.756875 
L 422.045113 27.756875 
L 422.045113 27.234275 
L 422.474818 27.234275 
L 422.474818 26.711676 
L 422.654588 26.711676 
L 422.710141 25.666477 
L 423.118675 25.666477 
L 423.148726 24.621278 
L 423.340309 24.621278 
L 423.340309 24.098679 
L 423.538123 24.098679 
L 423.538123 23.576079 
L 423.692002 23.576079 
L 423.758489 22.53088 
L 424.442177 22.53088 
L 424.442177 22.008281 
L 424.625091 22.008281 
L 424.625091 21.485681 
L 424.912427 21.485681 
L 425.011552 20.440482 
L 425.773823 20.440482 
L 425.773823 19.917883 
L 426.046308 19.917883 
L 426.08859 18.872684 
L 426.268212 18.872684 
L 426.268212 18.350085 
L 426.408183 18.350085 
L 426.408183 17.827485 
L 426.876639 17.827485 
L 426.877226 16.782286 
L 428.103011 16.782286 
L 428.103011 16.259687 
L 428.363692 16.259687 
L 428.363692 15.737087 
L 429.296569 15.737087 
L 429.355186 14.691888 
L 429.420714 14.691888 
L 429.45673 13.646689 
L 429.975996 13.646689 
L 429.975996 13.12409 
L 430.172141 13.12409 
L 430.172141 12.601491 
L 430.414571 12.601491 
L 430.414571 12.078891 
L 430.538473 12.078891 
L 430.538473 11.556292 
L 431.890389 11.556292 
L 431.890389 11.033692 
L 432.006314 11.033692 
L 432.006314 10.511093 
L 433.072023 10.511093 
L 433.072023 9.988493 
L 433.601424 9.988493 
L 433.601424 9.465894 
L 435.676906 9.465894 
L 435.676906 8.943294 
L 437.175246 8.943294 
L 437.175246 8.420695 
L 439.741178 8.420695 
L 439.741178 7.898095 
L 441.682384 7.898095 
L 441.682384 7.375496 
L 444.216204 7.375496 
L 444.216204 6.852896 
L 445.502925 6.852896 
L 445.502925 6.330297 
L 445.502925 6.330297 
L 460.8 6.330297 
L 460.8 6.330297 
" clip-path="url(#p58c860039b)" style="fill: none; stroke: #bf00bf; stroke-width: 1.5; stroke-linecap: square"/>
   </g>
   <g id="patch_3">
    <path d="M 0 293.76 
L 0 3.456 
" style="fill: none; stroke: #000000; stroke-width: 0.8; stroke-linejoin: miter; stroke-linecap: square"/>
   </g>
   <g id="patch_4">
    <path d="M 460.8 293.76 
L 460.8 3.456 
" style="fill: none; stroke: #000000; stroke-width: 0.8; stroke-linejoin: miter; stroke-linecap: square"/>
   </g>
   <g id="patch_5">
    <path d="M 0 293.76 
L 460.8 293.76 
" style="fill: none; stroke: #000000; stroke-width: 0.8; stroke-linejoin: miter; stroke-linecap: square"/>
   </g>
   <g id="patch_6">
    <path d="M 0 3.456 
L 460.8 3.456 
" style="fill: none; stroke: #000000; stroke-width: 0.8; stroke-linejoin: miter; stroke-linecap: square"/>
   </g>
   <g id="text_6">
    <!-- {f1-f55}, 20-D -->
    <g transform="translate(305.884 287.95392)scale(0.2 -0.2)">
     <defs>
      <path id="DejaVuSans-7b" d="M 3272 -594 
L 3272 -1044 
L 3078 -1044 
Q 2300 -1044 2036 -812 
Q 1772 -581 1772 109 
L 1772 856 
Q 1772 1328 1603 1509 
Q 1434 1691 991 1691 
L 800 1691 
L 800 2138 
L 991 2138 
Q 1438 2138 1605 2317 
Q 1772 2497 1772 2963 
L 1772 3713 
Q 1772 4403 2036 4633 
Q 2300 4863 3078 4863 
L 3272 4863 
L 3272 4416 
L 3059 4416 
Q 2619 4416 2484 4278 
Q 2350 4141 2350 3700 
L 2350 2925 
Q 2350 2434 2208 2212 
Q 2066 1991 1722 1913 
Q 2069 1828 2209 1606 
Q 2350 1384 2350 897 
L 2350 122 
Q 2350 -319 2484 -456 
Q 2619 -594 3059 -594 
L 3272 -594 
z
" transform="scale(0.015625)"/>
      <path id="DejaVuSans-35" d="M 691 4666 
L 3169 4666 
L 3169 4134 
L 1269 4134 
L 1269 2991 
Q 1406 3038 1543 3061 
Q 1681 3084 1819 3084 
Q 2600 3084 3056 2656 
Q 3513 2228 3513 1497 
Q 3513 744 3044 326 
Q 2575 -91 1722 -91 
Q 1428 -91 1123 -41 
Q 819 9 494 109 
L 494 744 
Q 775 591 1075 516 
Q 1375 441 1709 441 
Q 2250 441 2565 725 
Q 2881 1009 2881 1497 
Q 2881 1984 2565 2268 
Q 2250 2553 1709 2553 
Q 1456 2553 1204 2497 
Q 953 2441 691 2322 
L 691 4666 
z
" transform="scale(0.015625)"/>
      <path id="DejaVuSans-7d" d="M 800 -594 
L 1019 -594 
Q 1456 -594 1589 -459 
Q 1722 -325 1722 122 
L 1722 897 
Q 1722 1384 1862 1606 
Q 2003 1828 2350 1913 
Q 2003 1991 1862 2212 
Q 1722 2434 1722 2925 
L 1722 3700 
Q 1722 4144 1589 4280 
Q 1456 4416 1019 4416 
L 800 4416 
L 800 4863 
L 997 4863 
Q 1775 4863 2036 4633 
Q 2297 4403 2297 3713 
L 2297 2963 
Q 2297 2497 2465 2317 
Q 2634 2138 3078 2138 
L 3272 2138 
L 3272 1691 
L 3078 1691 
Q 2634 1691 2465 1509 
Q 2297 1328 2297 856 
L 2297 109 
Q 2297 -581 2036 -812 
Q 1775 -1044 997 -1044 
L 800 -1044 
L 800 -594 
z
" transform="scale(0.015625)"/>
      <path id="DejaVuSans-2c" d="M 750 794 
L 1409 794 
L 1409 256 
L 897 -744 
L 494 -744 
L 750 256 
L 750 794 
z
" transform="scale(0.015625)"/>
     </defs>
     <use xlink:href="#DejaVuSans-7b"/>
     <use xlink:href="#DejaVuSans-66" x="63.623047"/>
     <use xlink:href="#DejaVuSans-31" x="98.828125"/>
     <use xlink:href="#DejaVuSans-2d" x="162.451172"/>
     <use xlink:href="#DejaVuSans-66" x="198.535156"/>
     <use xlink:href="#DejaVuSans-35" x="233.740234"/>
     <use xlink:href="#DejaVuSans-35" x="297.363281"/>
     <use xlink:href="#DejaVuSans-7d" x="360.986328"/>
     <use xlink:href="#DejaVuSans-2c" x="424.609375"/>
     <use xlink:href="#DejaVuSans-20" x="456.396484"/>
     <use xlink:href="#DejaVuSans-32" x="488.183594"/>
     <use xlink:href="#DejaVuSans-30" x="551.806641"/>
     <use xlink:href="#DejaVuSans-2d" x="615.429688"/>
     <use xlink:href="#DejaVuSans-44" x="651.513672"/>
    </g>
   </g>
   <g id="text_7">
    <!-- v2.6, hv-hash=ff0e71e8cd978373 -->
    <g style="fill: #808080" transform="translate(144.904687 288.777272)scale(0.1 -0.1)">
     <defs>
      <path id="DejaVuSans-76" d="M 191 3500 
L 800 3500 
L 1894 563 
L 2988 3500 
L 3597 3500 
L 2284 0 
L 1503 0 
L 191 3500 
z
" transform="scale(0.015625)"/>
      <path id="DejaVuSans-2e" d="M 684 794 
L 1344 794 
L 1344 0 
L 684 0 
L 684 794 
z
" transform="scale(0.015625)"/>
      <path id="DejaVuSans-68" d="M 3513 2113 
L 3513 0 
L 2938 0 
L 2938 2094 
Q 2938 2591 2744 2837 
Q 2550 3084 2163 3084 
Q 1697 3084 1428 2787 
Q 1159 2491 1159 1978 
L 1159 0 
L 581 0 
L 581 4863 
L 1159 4863 
L 1159 2956 
Q 1366 3272 1645 3428 
Q 1925 3584 2291 3584 
Q 2894 3584 3203 3211 
Q 3513 2838 3513 2113 
z
" transform="scale(0.015625)"/>
      <path id="DejaVuSans-61" d="M 2194 1759 
Q 1497 1759 1228 1600 
Q 959 1441 959 1056 
Q 959 750 1161 570 
Q 1363 391 1709 391 
Q 2188 391 2477 730 
Q 2766 1069 2766 1631 
L 2766 1759 
L 2194 1759 
z
M 3341 1997 
L 3341 0 
L 2766 0 
L 2766 531 
Q 2569 213 2275 61 
Q 1981 -91 1556 -91 
Q 1019 -91 701 211 
Q 384 513 384 1019 
Q 384 1609 779 1909 
Q 1175 2209 1959 2209 
L 2766 2209 
L 2766 2266 
Q 2766 2663 2505 2880 
Q 2244 3097 1772 3097 
Q 1472 3097 1187 3025 
Q 903 2953 641 2809 
L 641 3341 
Q 956 3463 1253 3523 
Q 1550 3584 1831 3584 
Q 2591 3584 2966 3190 
Q 3341 2797 3341 1997 
z
" transform="scale(0.015625)"/>
      <path id="DejaVuSans-73" d="M 2834 3397 
L 2834 2853 
Q 2591 2978 2328 3040 
Q 2066 3103 1784 3103 
Q 1356 3103 1142 2972 
Q 928 2841 928 2578 
Q 928 2378 1081 2264 
Q 1234 2150 1697 2047 
L 1894 2003 
Q 2506 1872 2764 1633 
Q 3022 1394 3022 966 
Q 3022 478 2636 193 
Q 2250 -91 1575 -91 
Q 1294 -91 989 -36 
Q 684 19 347 128 
L 347 722 
Q 666 556 975 473 
Q 1284 391 1588 391 
Q 1994 391 2212 530 
Q 2431 669 2431 922 
Q 2431 1156 2273 1281 
Q 2116 1406 1581 1522 
L 1381 1569 
Q 847 1681 609 1914 
Q 372 2147 372 2553 
Q 372 3047 722 3315 
Q 1072 3584 1716 3584 
Q 2034 3584 2315 3537 
Q 2597 3491 2834 3397 
z
" transform="scale(0.015625)"/>
      <path id="DejaVuSans-3d" d="M 678 2906 
L 4684 2906 
L 4684 2381 
L 678 2381 
L 678 2906 
z
M 678 1631 
L 4684 1631 
L 4684 1100 
L 678 1100 
L 678 1631 
z
" transform="scale(0.015625)"/>
      <path id="DejaVuSans-65" d="M 3597 1894 
L 3597 1613 
L 953 1613 
Q 991 1019 1311 708 
Q 1631 397 2203 397 
Q 2534 397 2845 478 
Q 3156 559 3463 722 
L 3463 178 
Q 3153 47 2828 -22 
Q 2503 -91 2169 -91 
Q 1331 -91 842 396 
Q 353 884 353 1716 
Q 353 2575 817 3079 
Q 1281 3584 2069 3584 
Q 2775 3584 3186 3129 
Q 3597 2675 3597 1894 
z
M 3022 2063 
Q 3016 2534 2758 2815 
Q 2500 3097 2075 3097 
Q 1594 3097 1305 2825 
Q 1016 2553 972 2059 
L 3022 2063 
z
" transform="scale(0.015625)"/>
      <path id="DejaVuSans-37" d="M 525 4666 
L 3525 4666 
L 3525 4397 
L 1831 0 
L 1172 0 
L 2766 4134 
L 525 4134 
L 525 4666 
z
" transform="scale(0.015625)"/>
      <path id="DejaVuSans-38" d="M 2034 2216 
Q 1584 2216 1326 1975 
Q 1069 1734 1069 1313 
Q 1069 891 1326 650 
Q 1584 409 2034 409 
Q 2484 409 2743 651 
Q 3003 894 3003 1313 
Q 3003 1734 2745 1975 
Q 2488 2216 2034 2216 
z
M 1403 2484 
Q 997 2584 770 2862 
Q 544 3141 544 3541 
Q 544 4100 942 4425 
Q 1341 4750 2034 4750 
Q 2731 4750 3128 4425 
Q 3525 4100 3525 3541 
Q 3525 3141 3298 2862 
Q 3072 2584 2669 2484 
Q 3125 2378 3379 2068 
Q 3634 1759 3634 1313 
Q 3634 634 3220 271 
Q 2806 -91 2034 -91 
Q 1263 -91 848 271 
Q 434 634 434 1313 
Q 434 1759 690 2068 
Q 947 2378 1403 2484 
z
M 1172 3481 
Q 1172 3119 1398 2916 
Q 1625 2713 2034 2713 
Q 2441 2713 2670 2916 
Q 2900 3119 2900 3481 
Q 2900 3844 2670 4047 
Q 2441 4250 2034 4250 
Q 1625 4250 1398 4047 
Q 1172 3844 1172 3481 
z
" transform="scale(0.015625)"/>
      <path id="DejaVuSans-63" d="M 3122 3366 
L 3122 2828 
Q 2878 2963 2633 3030 
Q 2388 3097 2138 3097 
Q 1578 3097 1268 2742 
Q 959 2388 959 1747 
Q 959 1106 1268 751 
Q 1578 397 2138 397 
Q 2388 397 2633 464 
Q 2878 531 3122 666 
L 3122 134 
Q 2881 22 2623 -34 
Q 2366 -91 2075 -91 
Q 1284 -91 818 406 
Q 353 903 353 1747 
Q 353 2603 823 3093 
Q 1294 3584 2113 3584 
Q 2378 3584 2631 3529 
Q 2884 3475 3122 3366 
z
" transform="scale(0.015625)"/>
      <path id="DejaVuSans-64" d="M 2906 2969 
L 2906 4863 
L 3481 4863 
L 3481 0 
L 2906 0 
L 2906 525 
Q 2725 213 2448 61 
Q 2172 -91 1784 -91 
Q 1150 -91 751 415 
Q 353 922 353 1747 
Q 353 2572 751 3078 
Q 1150 3584 1784 3584 
Q 2172 3584 2448 3432 
Q 2725 3281 2906 2969 
z
M 947 1747 
Q 947 1113 1208 752 
Q 1469 391 1925 391 
Q 2381 391 2643 752 
Q 2906 1113 2906 1747 
Q 2906 2381 2643 2742 
Q 2381 3103 1925 3103 
Q 1469 3103 1208 2742 
Q 947 2381 947 1747 
z
" transform="scale(0.015625)"/>
      <path id="DejaVuSans-39" d="M 703 97 
L 703 672 
Q 941 559 1184 500 
Q 1428 441 1663 441 
Q 2288 441 2617 861 
Q 2947 1281 2994 2138 
Q 2813 1869 2534 1725 
Q 2256 1581 1919 1581 
Q 1219 1581 811 2004 
Q 403 2428 403 3163 
Q 403 3881 828 4315 
Q 1253 4750 1959 4750 
Q 2769 4750 3195 4129 
Q 3622 3509 3622 2328 
Q 3622 1225 3098 567 
Q 2575 -91 1691 -91 
Q 1453 -91 1209 -44 
Q 966 3 703 97 
z
M 1959 2075 
Q 2384 2075 2632 2365 
Q 2881 2656 2881 3163 
Q 2881 3666 2632 3958 
Q 2384 4250 1959 4250 
Q 1534 4250 1286 3958 
Q 1038 3666 1038 3163 
Q 1038 2656 1286 2365 
Q 1534 2075 1959 2075 
z
" transform="scale(0.015625)"/>
      <path id="DejaVuSans-33" d="M 2597 2516 
Q 3050 2419 3304 2112 
Q 3559 1806 3559 1356 
Q 3559 666 3084 287 
Q 2609 -91 1734 -91 
Q 1441 -91 1130 -33 
Q 819 25 488 141 
L 488 750 
Q 750 597 1062 519 
Q 1375 441 1716 441 
Q 2309 441 2620 675 
Q 2931 909 2931 1356 
Q 2931 1769 2642 2001 
Q 2353 2234 1838 2234 
L 1294 2234 
L 1294 2753 
L 1863 2753 
Q 2328 2753 2575 2939 
Q 2822 3125 2822 3475 
Q 2822 3834 2567 4026 
Q 2313 4219 1838 4219 
Q 1578 4219 1281 4162 
Q 984 4106 628 3988 
L 628 4550 
Q 988 4650 1302 4700 
Q 1616 4750 1894 4750 
Q 2613 4750 3031 4423 
Q 3450 4097 3450 3541 
Q 3450 3153 3228 2886 
Q 3006 2619 2597 2516 
z
" transform="scale(0.015625)"/>
     </defs>
     <use xlink:href="#DejaVuSans-76"/>
     <use xlink:href="#DejaVuSans-32" x="59.179688"/>
     <use xlink:href="#DejaVuSans-2e" x="122.802734"/>
     <use xlink:href="#DejaVuSans-36" x="154.589844"/>
     <use xlink:href="#DejaVuSans-2c" x="218.212891"/>
     <use xlink:href="#DejaVuSans-20" x="250"/>
     <use xlink:href="#DejaVuSans-68" x="281.787109"/>
     <use xlink:href="#DejaVuSans-76" x="345.166016"/>
     <use xlink:href="#DejaVuSans-2d" x="401.720703"/>
     <use xlink:href="#DejaVuSans-68" x="437.804688"/>
     <use xlink:href="#DejaVuSans-61" x="501.183594"/>
     <use xlink:href="#DejaVuSans-73" x="562.462891"/>
     <use xlink:href="#DejaVuSans-68" x="614.5625"/>
     <use xlink:href="#DejaVuSans-3d" x="677.941406"/>
     <use xlink:href="#DejaVuSans-66" x="761.730469"/>
     <use xlink:href="#DejaVuSans-66" x="796.935547"/>
     <use xlink:href="#DejaVuSans-30" x="832.140625"/>
     <use xlink:href="#DejaVuSans-65" x="895.763672"/>
     <use xlink:href="#DejaVuSans-37" x="957.287109"/>
     <use xlink:href="#DejaVuSans-31" x="1020.910156"/>
     <use xlink:href="#DejaVuSans-65" x="1084.533203"/>
     <use xlink:href="#DejaVuSans-38" x="1146.056641"/>
     <use xlink:href="#DejaVuSans-63" x="1209.679688"/>
     <use xlink:href="#DejaVuSans-64" x="1264.660156"/>
     <use xlink:href="#DejaVuSans-39" x="1328.136719"/>
     <use xlink:href="#DejaVuSans-37" x="1391.759766"/>
     <use xlink:href="#DejaVuSans-38" x="1455.382812"/>
     <use xlink:href="#DejaVuSans-33" x="1519.005859"/>
     <use xlink:href="#DejaVuSans-37" x="1582.628906"/>
     <use xlink:href="#DejaVuSans-33" x="1646.251953"/>
    </g>
   </g>
  </g>
 </g>
 <defs>
  <clipPath id="p58c860039b">
   <rect x="0" y="3.456" width="460.8" height="290.304"/>
  </clipPath>
 </defs>
</svg>
