<?xml version="1.0" encoding="utf-8" standalone="no"?>
<!DOCTYPE svg PUBLIC "-//W3C//DTD SVG 1.1//EN"
  "http://www.w3.org/Graphics/SVG/1.1/DTD/svg11.dtd">
<svg xmlns:xlink="http://www.w3.org/1999/xlink" width="460.8pt" height="345.6pt" viewBox="0 0 460.8 345.6" xmlns="http://www.w3.org/2000/svg" version="1.1">
 <metadata>
  <rdf:RDF xmlns:dc="http://purl.org/dc/elements/1.1/" xmlns:cc="http://creativecommons.org/ns#" xmlns:rdf="http://www.w3.org/1999/02/22-rdf-syntax-ns#">
   <cc:Work>
    <dc:type rdf:resource="http://purl.org/dc/dcmitype/StillImage"/>
    <dc:date>2022-06-19T17:22:13.426766</dc:date>
    <dc:format>image/svg+xml</dc:format>
    <dc:creator>
     <cc:Agent>
      <dc:title>Matplotlib v3.5.2, https://matplotlib.org/</dc:title>
     </cc:Agent>
    </dc:creator>
   </cc:Work>
  </rdf:RDF>
 </metadata>
 <defs>
  <style type="text/css">*{stroke-linejoin: round; stroke-linecap: butt}</style>
 </defs>
 <g id="figure_1">
  <g id="patch_1">
   <path d="M 0 345.6 
L 460.8 345.6 
L 460.8 0 
L 0 0 
z
" style="fill: #ffffff"/>
  </g>
  <g id="axes_1">
   <g id="patch_2">
    <path d="M 0 293.76 
L 460.8 293.76 
L 460.8 3.456 
L 0 3.456 
z
" style="fill: #ffffff"/>
   </g>
   <g id="matplotlib.axis_1">
    <g id="xtick_1">
     <g id="line2d_1">
      <path d="M 114.771084 293.76 
L 114.771084 3.456 
" clip-path="url(#p4fc6c85603)" style="fill: none; stroke: #b0b0b0; stroke-width: 0.8; stroke-linecap: square"/>
     </g>
     <g id="line2d_2">
      <defs>
       <path id="me257d3db18" d="M 0 0 
L 0 3.5 
" style="stroke: #000000; stroke-width: 0.8"/>
      </defs>
      <g>
       <use xlink:href="#me257d3db18" x="114.771084" y="293.76" style="stroke: #000000; stroke-width: 0.8"/>
      </g>
     </g>
     <g id="text_1">
      <!-- -5 -->
      <g transform="translate(104.800771 315.956875)scale(0.2 -0.2)">
       <defs>
        <path id="DejaVuSans-2d" d="M 313 2009 
L 1997 2009 
L 1997 1497 
L 313 1497 
L 313 2009 
z
" transform="scale(0.015625)"/>
        <path id="DejaVuSans-35" d="M 691 4666 
L 3169 4666 
L 3169 4134 
L 1269 4134 
L 1269 2991 
Q 1406 3038 1543 3061 
Q 1681 3084 1819 3084 
Q 2600 3084 3056 2656 
Q 3513 2228 3513 1497 
Q 3513 744 3044 326 
Q 2575 -91 1722 -91 
Q 1428 -91 1123 -41 
Q 819 9 494 109 
L 494 744 
Q 775 591 1075 516 
Q 1375 441 1709 441 
Q 2250 441 2565 725 
Q 2881 1009 2881 1497 
Q 2881 1984 2565 2268 
Q 2250 2553 1709 2553 
Q 1456 2553 1204 2497 
Q 953 2441 691 2322 
L 691 4666 
z
" transform="scale(0.015625)"/>
       </defs>
       <use xlink:href="#DejaVuSans-2d"/>
       <use xlink:href="#DejaVuSans-35" x="36.083984"/>
      </g>
     </g>
    </g>
    <g id="xtick_2">
     <g id="line2d_3">
      <path d="M 229.707729 293.76 
L 229.707729 3.456 
" clip-path="url(#p4fc6c85603)" style="fill: none; stroke: #b0b0b0; stroke-width: 0.8; stroke-linecap: square"/>
     </g>
     <g id="line2d_4">
      <g>
       <use xlink:href="#me257d3db18" x="229.707729" y="293.76" style="stroke: #000000; stroke-width: 0.8"/>
      </g>
     </g>
     <g id="text_2">
      <!-- -2 -->
      <g transform="translate(219.737416 315.956875)scale(0.2 -0.2)">
       <defs>
        <path id="DejaVuSans-32" d="M 1228 531 
L 3431 531 
L 3431 0 
L 469 0 
L 469 531 
Q 828 903 1448 1529 
Q 2069 2156 2228 2338 
Q 2531 2678 2651 2914 
Q 2772 3150 2772 3378 
Q 2772 3750 2511 3984 
Q 2250 4219 1831 4219 
Q 1534 4219 1204 4116 
Q 875 4013 500 3803 
L 500 4441 
Q 881 4594 1212 4672 
Q 1544 4750 1819 4750 
Q 2544 4750 2975 4387 
Q 3406 4025 3406 3419 
Q 3406 3131 3298 2873 
Q 3191 2616 2906 2266 
Q 2828 2175 2409 1742 
Q 1991 1309 1228 531 
z
" transform="scale(0.015625)"/>
       </defs>
       <use xlink:href="#DejaVuSans-2d"/>
       <use xlink:href="#DejaVuSans-32" x="36.083984"/>
      </g>
     </g>
    </g>
    <g id="xtick_3">
     <g id="line2d_5">
      <path d="M 344.644374 293.76 
L 344.644374 3.456 
" clip-path="url(#p4fc6c85603)" style="fill: none; stroke: #b0b0b0; stroke-width: 0.8; stroke-linecap: square"/>
     </g>
     <g id="line2d_6">
      <g>
       <use xlink:href="#me257d3db18" x="344.644374" y="293.76" style="stroke: #000000; stroke-width: 0.8"/>
      </g>
     </g>
     <g id="text_3">
      <!-- 1 -->
      <g transform="translate(338.281874 315.956875)scale(0.2 -0.2)">
       <defs>
        <path id="DejaVuSans-31" d="M 794 531 
L 1825 531 
L 1825 4091 
L 703 3866 
L 703 4441 
L 1819 4666 
L 2450 4666 
L 2450 531 
L 3481 531 
L 3481 0 
L 794 0 
L 794 531 
z
" transform="scale(0.015625)"/>
       </defs>
       <use xlink:href="#DejaVuSans-31"/>
      </g>
     </g>
    </g>
    <g id="xtick_4">
     <g id="line2d_7">
      <path d="M 459.581019 293.76 
L 459.581019 3.456 
" clip-path="url(#p4fc6c85603)" style="fill: none; stroke: #b0b0b0; stroke-width: 0.8; stroke-linecap: square"/>
     </g>
     <g id="line2d_8">
      <g>
       <use xlink:href="#me257d3db18" x="459.581019" y="293.76" style="stroke: #000000; stroke-width: 0.8"/>
      </g>
     </g>
     <g id="text_4">
      <!-- 4 -->
      <g transform="translate(453.218519 315.956875)scale(0.2 -0.2)">
       <defs>
        <path id="DejaVuSans-34" d="M 2419 4116 
L 825 1625 
L 2419 1625 
L 2419 4116 
z
M 2253 4666 
L 3047 4666 
L 3047 1625 
L 3713 1625 
L 3713 1100 
L 3047 1100 
L 3047 0 
L 2419 0 
L 2419 1100 
L 313 1100 
L 313 1709 
L 2253 4666 
z
" transform="scale(0.015625)"/>
       </defs>
       <use xlink:href="#DejaVuSans-34"/>
      </g>
     </g>
    </g>
    <g id="text_5">
     <!-- log10 of Df -->
     <g transform="translate(175.214063 339.313125)scale(0.2 -0.2)">
      <defs>
       <path id="DejaVuSans-6c" d="M 603 4863 
L 1178 4863 
L 1178 0 
L 603 0 
L 603 4863 
z
" transform="scale(0.015625)"/>
       <path id="DejaVuSans-6f" d="M 1959 3097 
Q 1497 3097 1228 2736 
Q 959 2375 959 1747 
Q 959 1119 1226 758 
Q 1494 397 1959 397 
Q 2419 397 2687 759 
Q 2956 1122 2956 1747 
Q 2956 2369 2687 2733 
Q 2419 3097 1959 3097 
z
M 1959 3584 
Q 2709 3584 3137 3096 
Q 3566 2609 3566 1747 
Q 3566 888 3137 398 
Q 2709 -91 1959 -91 
Q 1206 -91 779 398 
Q 353 888 353 1747 
Q 353 2609 779 3096 
Q 1206 3584 1959 3584 
z
" transform="scale(0.015625)"/>
       <path id="DejaVuSans-67" d="M 2906 1791 
Q 2906 2416 2648 2759 
Q 2391 3103 1925 3103 
Q 1463 3103 1205 2759 
Q 947 2416 947 1791 
Q 947 1169 1205 825 
Q 1463 481 1925 481 
Q 2391 481 2648 825 
Q 2906 1169 2906 1791 
z
M 3481 434 
Q 3481 -459 3084 -895 
Q 2688 -1331 1869 -1331 
Q 1566 -1331 1297 -1286 
Q 1028 -1241 775 -1147 
L 775 -588 
Q 1028 -725 1275 -790 
Q 1522 -856 1778 -856 
Q 2344 -856 2625 -561 
Q 2906 -266 2906 331 
L 2906 616 
Q 2728 306 2450 153 
Q 2172 0 1784 0 
Q 1141 0 747 490 
Q 353 981 353 1791 
Q 353 2603 747 3093 
Q 1141 3584 1784 3584 
Q 2172 3584 2450 3431 
Q 2728 3278 2906 2969 
L 2906 3500 
L 3481 3500 
L 3481 434 
z
" transform="scale(0.015625)"/>
       <path id="DejaVuSans-30" d="M 2034 4250 
Q 1547 4250 1301 3770 
Q 1056 3291 1056 2328 
Q 1056 1369 1301 889 
Q 1547 409 2034 409 
Q 2525 409 2770 889 
Q 3016 1369 3016 2328 
Q 3016 3291 2770 3770 
Q 2525 4250 2034 4250 
z
M 2034 4750 
Q 2819 4750 3233 4129 
Q 3647 3509 3647 2328 
Q 3647 1150 3233 529 
Q 2819 -91 2034 -91 
Q 1250 -91 836 529 
Q 422 1150 422 2328 
Q 422 3509 836 4129 
Q 1250 4750 2034 4750 
z
" transform="scale(0.015625)"/>
       <path id="DejaVuSans-20" transform="scale(0.015625)"/>
       <path id="DejaVuSans-66" d="M 2375 4863 
L 2375 4384 
L 1825 4384 
Q 1516 4384 1395 4259 
Q 1275 4134 1275 3809 
L 1275 3500 
L 2222 3500 
L 2222 3053 
L 1275 3053 
L 1275 0 
L 697 0 
L 697 3053 
L 147 3053 
L 147 3500 
L 697 3500 
L 697 3744 
Q 697 4328 969 4595 
Q 1241 4863 1831 4863 
L 2375 4863 
z
" transform="scale(0.015625)"/>
       <path id="DejaVuSans-44" d="M 1259 4147 
L 1259 519 
L 2022 519 
Q 2988 519 3436 956 
Q 3884 1394 3884 2338 
Q 3884 3275 3436 3711 
Q 2988 4147 2022 4147 
L 1259 4147 
z
M 628 4666 
L 1925 4666 
Q 3281 4666 3915 4102 
Q 4550 3538 4550 2338 
Q 4550 1131 3912 565 
Q 3275 0 1925 0 
L 628 0 
L 628 4666 
z
" transform="scale(0.015625)"/>
      </defs>
      <use xlink:href="#DejaVuSans-6c"/>
      <use xlink:href="#DejaVuSans-6f" x="27.783203"/>
      <use xlink:href="#DejaVuSans-67" x="88.964844"/>
      <use xlink:href="#DejaVuSans-31" x="152.441406"/>
      <use xlink:href="#DejaVuSans-30" x="216.064453"/>
      <use xlink:href="#DejaVuSans-20" x="279.6875"/>
      <use xlink:href="#DejaVuSans-6f" x="311.474609"/>
      <use xlink:href="#DejaVuSans-66" x="372.65625"/>
      <use xlink:href="#DejaVuSans-20" x="407.861328"/>
      <use xlink:href="#DejaVuSans-44" x="439.648438"/>
      <use xlink:href="#DejaVuSans-66" x="516.650391"/>
     </g>
    </g>
   </g>
   <g id="matplotlib.axis_2">
    <g id="ytick_1">
     <g id="line2d_9">
      <path d="M 0 293.76 
L 460.8 293.76 
" clip-path="url(#p4fc6c85603)" style="fill: none; stroke: #b0b0b0; stroke-width: 0.8; stroke-linecap: square"/>
     </g>
     <g id="line2d_10">
      <defs>
       <path id="m99ce6f077f" d="M 0 0 
L -3.5 0 
" style="stroke: #000000; stroke-width: 0.8"/>
      </defs>
      <g>
       <use xlink:href="#m99ce6f077f" x="0" y="293.76" style="stroke: #000000; stroke-width: 0.8"/>
      </g>
     </g>
    </g>
    <g id="ytick_2">
     <g id="line2d_11">
      <path d="M 0 236.274059 
L 460.8 236.274059 
" clip-path="url(#p4fc6c85603)" style="fill: none; stroke: #b0b0b0; stroke-width: 0.8; stroke-linecap: square"/>
     </g>
     <g id="line2d_12">
      <g>
       <use xlink:href="#m99ce6f077f" x="0" y="236.274059" style="stroke: #000000; stroke-width: 0.8"/>
      </g>
     </g>
    </g>
    <g id="ytick_3">
     <g id="line2d_13">
      <path d="M 0 178.788119 
L 460.8 178.788119 
" clip-path="url(#p4fc6c85603)" style="fill: none; stroke: #b0b0b0; stroke-width: 0.8; stroke-linecap: square"/>
     </g>
     <g id="line2d_14">
      <g>
       <use xlink:href="#m99ce6f077f" x="0" y="178.788119" style="stroke: #000000; stroke-width: 0.8"/>
      </g>
     </g>
    </g>
    <g id="ytick_4">
     <g id="line2d_15">
      <path d="M 0 121.302178 
L 460.8 121.302178 
" clip-path="url(#p4fc6c85603)" style="fill: none; stroke: #b0b0b0; stroke-width: 0.8; stroke-linecap: square"/>
     </g>
     <g id="line2d_16">
      <g>
       <use xlink:href="#m99ce6f077f" x="0" y="121.302178" style="stroke: #000000; stroke-width: 0.8"/>
      </g>
     </g>
    </g>
    <g id="ytick_5">
     <g id="line2d_17">
      <path d="M 0 63.816238 
L 460.8 63.816238 
" clip-path="url(#p4fc6c85603)" style="fill: none; stroke: #b0b0b0; stroke-width: 0.8; stroke-linecap: square"/>
     </g>
     <g id="line2d_18">
      <g>
       <use xlink:href="#m99ce6f077f" x="0" y="63.816238" style="stroke: #000000; stroke-width: 0.8"/>
      </g>
     </g>
    </g>
    <g id="ytick_6">
     <g id="line2d_19">
      <path d="M 0 6.330297 
L 460.8 6.330297 
" clip-path="url(#p4fc6c85603)" style="fill: none; stroke: #b0b0b0; stroke-width: 0.8; stroke-linecap: square"/>
     </g>
     <g id="line2d_20">
      <g>
       <use xlink:href="#m99ce6f077f" x="0" y="6.330297" style="stroke: #000000; stroke-width: 0.8"/>
      </g>
     </g>
    </g>
   </g>
   <g id="line2d_21">
    <path d="M 182.557446 293.76 
L 182.557446 286.574257 
L 200.990633 286.574257 
L 200.990633 279.388515 
L 206.264923 279.388515 
L 206.264923 272.202772 
L 206.737266 272.202772 
L 206.737266 265.01703 
L 208.198849 265.01703 
L 208.198849 257.831287 
L 214.229989 257.831287 
L 214.229989 250.645545 
L 224.573894 250.645545 
L 224.573894 243.459802 
L 225.960579 243.459802 
L 225.960579 236.274059 
L 231.317566 236.274059 
L 231.317566 229.088317 
L 247.82292 229.088317 
L 247.82292 221.902574 
L 252.312722 221.902574 
L 252.312722 214.716832 
L 253.752847 214.716832 
L 253.752847 207.531089 
L 259.829587 207.531089 
L 259.829587 200.345347 
L 261.221804 200.345347 
L 261.221804 193.159604 
L 262.474897 193.159604 
L 262.474897 185.973861 
L 264.309449 185.973861 
L 264.309449 178.788119 
L 266.049188 178.788119 
L 266.049188 171.602376 
L 267.911111 171.602376 
L 267.911111 164.416634 
L 269.383862 164.416634 
L 269.383862 157.230891 
L 269.562058 157.230891 
L 269.562058 150.045149 
L 269.968314 150.045149 
L 269.968314 142.859406 
L 270.539077 142.859406 
L 270.539077 135.673663 
L 271.423383 135.673663 
L 271.423383 128.487921 
L 271.942565 128.487921 
L 271.942565 121.302178 
L 272.063491 121.302178 
L 272.063491 114.116436 
L 272.844234 114.116436 
L 272.844234 106.930693 
L 273.417209 106.930693 
L 273.417209 99.74495 
L 277.049767 99.74495 
L 277.049767 92.559208 
L 278.427816 92.559208 
L 278.427816 85.373465 
L 278.555139 85.373465 
L 278.555139 78.187723 
L 278.631229 78.187723 
L 278.631229 71.00198 
L 279.385733 71.00198 
L 279.385733 63.816238 
L 280.763876 63.816238 
L 280.763876 56.630495 
L 282.047016 56.630495 
L 282.047016 49.444752 
L 282.450434 49.444752 
L 282.450434 42.25901 
L 283.179468 42.25901 
L 283.179468 35.073267 
L 284.841064 35.073267 
L 284.841064 27.887525 
L 295.871901 27.887525 
L 295.871901 20.701782 
L 300.739846 20.701782 
L 300.739846 13.51604 
L 302.104801 13.51604 
L 302.104801 6.330297 
L 302.104801 6.330297 
L 302.104801 6.330297 
L 460.8 6.330297 
" clip-path="url(#p4fc6c85603)" style="fill: none; stroke: #ff0000; stroke-width: 3; stroke-linecap: square"/>
   </g>
   <g id="line2d_22">
    <path d="M 286.839153 293.76 
L 286.839153 286.574257 
L 291.127661 286.574257 
L 291.127661 279.388515 
L 293.64832 279.388515 
L 293.64832 272.202772 
L 293.960122 272.202772 
L 293.960122 265.01703 
L 294.664051 265.01703 
L 294.664051 257.831287 
L 295.191383 257.831287 
L 295.191383 250.645545 
L 296.25727 250.645545 
L 296.25727 243.459802 
L 297.677698 243.459802 
L 297.677698 236.274059 
L 299.321676 236.274059 
L 299.321676 229.088317 
L 299.613337 229.088317 
L 299.613337 221.902574 
L 299.614278 221.902574 
L 299.614278 214.716832 
L 300.770245 214.716832 
L 300.770245 207.531089 
L 301.073942 207.531089 
L 301.073942 200.345347 
L 301.321835 200.345347 
L 301.321835 193.159604 
L 301.394172 193.159604 
L 301.394172 185.973861 
L 302.001918 185.973861 
L 302.001918 178.788119 
L 302.087408 178.788119 
L 302.087408 171.602376 
L 302.885515 171.602376 
L 302.885515 164.416634 
L 303.989197 164.416634 
L 303.989197 157.230891 
L 304.850649 157.230891 
L 304.850649 150.045149 
L 304.960965 150.045149 
L 304.960965 142.859406 
L 305.291993 142.859406 
L 305.291993 135.673663 
L 306.230911 135.673663 
L 306.230911 128.487921 
L 307.438881 128.487921 
L 307.438881 121.302178 
L 308.679243 121.302178 
L 308.679243 114.116436 
L 310.21585 114.116436 
L 310.21585 106.930693 
L 311.43301 106.930693 
L 311.43301 99.74495 
L 311.500055 99.74495 
L 311.500055 92.559208 
L 313.977699 92.559208 
L 313.977699 85.373465 
L 314.946217 85.373465 
L 314.946217 78.187723 
L 319.207923 78.187723 
L 319.207923 71.00198 
L 321.281438 71.00198 
L 321.281438 63.816238 
L 328.391519 63.816238 
L 328.391519 56.630495 
L 330.900828 56.630495 
L 330.900828 49.444752 
L 331.968877 49.444752 
L 331.968877 42.25901 
L 333.26164 42.25901 
L 333.26164 35.073267 
L 341.36834 35.073267 
L 341.36834 27.887525 
L 342.743886 27.887525 
L 342.743886 20.701782 
L 354.664635 20.701782 
L 354.664635 13.51604 
L 374.232296 13.51604 
L 374.232296 6.330297 
L 374.232296 6.330297 
L 374.232296 6.330297 
L 460.8 6.330297 
" clip-path="url(#p4fc6c85603)" style="fill: none; stroke: #00bfbf; stroke-width: 1.5; stroke-linecap: square"/>
   </g>
   <g id="line2d_23">
    <path d="M 286.839153 293.76 
L 286.839153 286.574257 
L 291.127661 286.574257 
L 291.127661 279.388515 
L 293.64832 279.388515 
L 293.64832 272.202772 
L 293.960122 272.202772 
L 293.960122 265.01703 
L 294.664051 265.01703 
L 294.664051 257.831287 
L 295.191383 257.831287 
L 295.191383 250.645545 
L 296.25727 250.645545 
L 296.25727 243.459802 
L 297.677698 243.459802 
L 297.677698 236.274059 
L 298.075009 236.274059 
L 298.075009 229.088317 
L 299.613337 229.088317 
L 299.613337 221.902574 
L 299.614278 221.902574 
L 299.614278 214.716832 
L 300.770245 214.716832 
L 300.770245 207.531089 
L 301.073942 207.531089 
L 301.073942 200.345347 
L 301.321835 200.345347 
L 301.321835 193.159604 
L 301.394172 193.159604 
L 301.394172 185.973861 
L 302.001918 185.973861 
L 302.001918 178.788119 
L 302.087408 178.788119 
L 302.087408 171.602376 
L 302.885515 171.602376 
L 302.885515 164.416634 
L 303.989197 164.416634 
L 303.989197 157.230891 
L 304.850649 157.230891 
L 304.850649 150.045149 
L 304.960965 150.045149 
L 304.960965 142.859406 
L 305.291993 142.859406 
L 305.291993 135.673663 
L 306.230911 135.673663 
L 306.230911 128.487921 
L 307.438881 128.487921 
L 307.438881 121.302178 
L 308.679243 121.302178 
L 308.679243 114.116436 
L 309.019692 114.116436 
L 309.019692 106.930693 
L 310.21585 106.930693 
L 310.21585 99.74495 
L 311.43301 99.74495 
L 311.43301 92.559208 
L 311.500055 92.559208 
L 311.500055 85.373465 
L 314.946217 85.373465 
L 314.946217 78.187723 
L 319.207923 78.187723 
L 319.207923 71.00198 
L 321.281438 71.00198 
L 321.281438 63.816238 
L 321.474035 63.816238 
L 321.474035 56.630495 
L 328.391519 56.630495 
L 328.391519 49.444752 
L 330.900828 49.444752 
L 330.900828 42.25901 
L 331.968877 42.25901 
L 331.968877 35.073267 
L 336.442704 35.073267 
L 336.442704 27.887525 
L 341.36834 27.887525 
L 341.36834 20.701782 
L 342.743886 20.701782 
L 342.743886 13.51604 
L 354.664635 13.51604 
L 354.664635 6.330297 
L 354.664635 6.330297 
L 354.664635 6.330297 
L 460.8 6.330297 
" clip-path="url(#p4fc6c85603)" style="fill: none; stroke: #bf00bf; stroke-width: 1.5; stroke-linecap: square"/>
   </g>
   <g id="line2d_24">
    <path d="M 280.337834 293.76 
L 280.337834 286.574257 
L 286.839153 286.574257 
L 286.839153 279.388515 
L 293.64832 279.388515 
L 293.64832 272.202772 
L 293.960122 272.202772 
L 293.960122 265.01703 
L 294.569661 265.01703 
L 294.569661 257.831287 
L 294.664051 257.831287 
L 294.664051 250.645545 
L 295.191383 250.645545 
L 295.191383 243.459802 
L 296.25727 243.459802 
L 296.25727 236.274059 
L 296.609303 236.274059 
L 296.609303 229.088317 
L 297.677698 229.088317 
L 297.677698 221.902574 
L 298.075009 221.902574 
L 298.075009 214.716832 
L 299.613337 214.716832 
L 299.613337 207.531089 
L 299.614278 207.531089 
L 299.614278 200.345347 
L 300.770245 200.345347 
L 300.770245 193.159604 
L 301.321835 193.159604 
L 301.321835 185.973861 
L 301.394172 185.973861 
L 301.394172 178.788119 
L 302.001918 178.788119 
L 302.001918 171.602376 
L 302.087408 171.602376 
L 302.087408 164.416634 
L 302.885515 164.416634 
L 302.885515 157.230891 
L 303.989197 157.230891 
L 303.989197 150.045149 
L 304.850649 150.045149 
L 304.850649 142.859406 
L 304.960965 142.859406 
L 304.960965 135.673663 
L 305.291993 135.673663 
L 305.291993 128.487921 
L 306.230911 128.487921 
L 306.230911 121.302178 
L 307.438881 121.302178 
L 307.438881 114.116436 
L 309.019692 114.116436 
L 309.019692 106.930693 
L 310.21585 106.930693 
L 310.21585 99.74495 
L 311.43301 99.74495 
L 311.43301 92.559208 
L 311.500055 92.559208 
L 311.500055 85.373465 
L 314.946217 85.373465 
L 314.946217 78.187723 
L 319.207923 78.187723 
L 319.207923 71.00198 
L 321.281438 71.00198 
L 321.281438 63.816238 
L 321.474035 63.816238 
L 321.474035 56.630495 
L 322.454147 56.630495 
L 322.454147 49.444752 
L 328.391519 49.444752 
L 328.391519 42.25901 
L 330.900828 42.25901 
L 330.900828 35.073267 
L 331.968877 35.073267 
L 331.968877 27.887525 
L 336.442704 27.887525 
L 336.442704 20.701782 
L 341.36834 20.701782 
L 341.36834 13.51604 
L 354.664635 13.51604 
L 354.664635 6.330297 
L 354.664635 6.330297 
L 354.664635 6.330297 
L 460.8 6.330297 
" clip-path="url(#p4fc6c85603)" style="fill: none; stroke: #000000; stroke-width: 1.5; stroke-linecap: square"/>
   </g>
   <g id="line2d_25">
    <path d="M 255.428117 293.76 
L 255.428117 286.574257 
L 272.851573 286.574257 
L 272.851573 279.388515 
L 280.337834 279.388515 
L 280.337834 272.202772 
L 284.955988 272.202772 
L 284.955988 265.01703 
L 290.309766 265.01703 
L 290.309766 257.831287 
L 292.276548 257.831287 
L 292.276548 250.645545 
L 292.853858 250.645545 
L 292.853858 243.459802 
L 293.64832 243.459802 
L 293.64832 236.274059 
L 293.700018 236.274059 
L 293.700018 229.088317 
L 294.569661 229.088317 
L 294.569661 221.902574 
L 294.664051 221.902574 
L 294.664051 214.716832 
L 295.191383 214.716832 
L 295.191383 207.531089 
L 296.25727 207.531089 
L 296.25727 200.345347 
L 297.677698 200.345347 
L 297.677698 193.159604 
L 299.444629 193.159604 
L 299.444629 185.973861 
L 299.552919 185.973861 
L 299.552919 178.788119 
L 299.613337 178.788119 
L 299.613337 171.602376 
L 299.614278 171.602376 
L 299.614278 164.416634 
L 300.463405 164.416634 
L 300.463405 157.230891 
L 300.770245 157.230891 
L 300.770245 150.045149 
L 301.321835 150.045149 
L 301.321835 142.859406 
L 302.001918 142.859406 
L 302.001918 135.673663 
L 302.087408 135.673663 
L 302.087408 128.487921 
L 303.530889 128.487921 
L 303.530889 121.302178 
L 303.989197 121.302178 
L 303.989197 114.116436 
L 305.291993 114.116436 
L 305.291993 106.930693 
L 306.230911 106.930693 
L 306.230911 99.74495 
L 307.438881 99.74495 
L 307.438881 92.559208 
L 307.939855 92.559208 
L 307.939855 85.373465 
L 310.21585 85.373465 
L 310.21585 78.187723 
L 311.43301 78.187723 
L 311.43301 71.00198 
L 314.946217 71.00198 
L 314.946217 63.816238 
L 321.281438 63.816238 
L 321.281438 56.630495 
L 321.474035 56.630495 
L 321.474035 49.444752 
L 321.899426 49.444752 
L 321.899426 42.25901 
L 322.454147 42.25901 
L 322.454147 35.073267 
L 325.76092 35.073267 
L 325.76092 27.887525 
L 328.391519 27.887525 
L 328.391519 20.701782 
L 336.442704 20.701782 
L 336.442704 13.51604 
L 344.926579 13.51604 
L 344.926579 6.330297 
L 344.926579 6.330297 
L 344.926579 6.330297 
L 460.8 6.330297 
" clip-path="url(#p4fc6c85603)" style="fill: none; stroke: #00bfbf; stroke-width: 1.5; stroke-linecap: square"/>
   </g>
   <g id="line2d_26">
    <path d="M 222.871266 293.76 
L 222.871266 286.574257 
L 243.081197 286.574257 
L 243.081197 279.388515 
L 256.749758 279.388515 
L 256.749758 272.202772 
L 263.896367 272.202772 
L 263.896367 265.01703 
L 264.992027 265.01703 
L 264.992027 257.831287 
L 269.934853 257.831287 
L 269.934853 250.645545 
L 271.656059 250.645545 
L 271.656059 243.459802 
L 272.318567 243.459802 
L 272.318567 236.274059 
L 278.853368 236.274059 
L 278.853368 229.088317 
L 280.730175 229.088317 
L 280.730175 221.902574 
L 282.743729 221.902574 
L 282.743729 214.716832 
L 286.805708 214.716832 
L 286.805708 207.531089 
L 287.3352 207.531089 
L 287.3352 200.345347 
L 287.678591 200.345347 
L 287.678591 193.159604 
L 290.415414 193.159604 
L 290.415414 185.973861 
L 290.877204 185.973861 
L 290.877204 178.788119 
L 291.280017 178.788119 
L 291.280017 171.602376 
L 291.638272 171.602376 
L 291.638272 164.416634 
L 291.763906 164.416634 
L 291.763906 157.230891 
L 293.64832 157.230891 
L 293.64832 150.045149 
L 293.813916 150.045149 
L 293.813916 142.859406 
L 294.664051 142.859406 
L 294.664051 135.673663 
L 295.292169 135.673663 
L 295.292169 128.487921 
L 296.198465 128.487921 
L 296.198465 121.302178 
L 296.934429 121.302178 
L 296.934429 114.116436 
L 298.731436 114.116436 
L 298.731436 106.930693 
L 298.834693 106.930693 
L 298.834693 99.74495 
L 298.871286 99.74495 
L 298.871286 92.559208 
L 298.924263 92.559208 
L 298.924263 85.373465 
L 301.923114 85.373465 
L 301.923114 78.187723 
L 301.995208 78.187723 
L 301.995208 71.00198 
L 302.208951 71.00198 
L 302.208951 63.816238 
L 306.1017 63.816238 
L 306.1017 56.630495 
L 306.230911 56.630495 
L 306.230911 49.444752 
L 307.939855 49.444752 
L 307.939855 42.25901 
L 309.820109 42.25901 
L 309.820109 35.073267 
L 316.172751 35.073267 
L 316.172751 27.887525 
L 316.75378 27.887525 
L 316.75378 20.701782 
L 320.095465 20.701782 
L 320.095465 13.51604 
L 322.187331 13.51604 
L 322.187331 6.330297 
L 322.187331 6.330297 
L 322.187331 6.330297 
L 460.8 6.330297 
" clip-path="url(#p4fc6c85603)" style="fill: none; stroke: #bf00bf; stroke-width: 1.5; stroke-linecap: square"/>
   </g>
   <g id="line2d_27">
    <path d="M 182.557446 293.76 
L 182.557446 286.574257 
L 201.049051 286.574257 
L 201.049051 279.388515 
L 206.307551 279.388515 
L 206.307551 272.202772 
L 206.737266 272.202772 
L 206.737266 265.01703 
L 208.198849 265.01703 
L 208.198849 257.831287 
L 214.229989 257.831287 
L 214.229989 250.645545 
L 224.573894 250.645545 
L 224.573894 243.459802 
L 225.960579 243.459802 
L 225.960579 236.274059 
L 231.317566 236.274059 
L 231.317566 229.088317 
L 247.82292 229.088317 
L 247.82292 221.902574 
L 252.312722 221.902574 
L 252.312722 214.716832 
L 253.815707 214.716832 
L 253.815707 207.531089 
L 259.829587 207.531089 
L 259.829587 200.345347 
L 261.221804 200.345347 
L 261.221804 193.159604 
L 262.474897 193.159604 
L 262.474897 185.973861 
L 264.325169 185.973861 
L 264.325169 178.788119 
L 266.054931 178.788119 
L 266.054931 171.602376 
L 267.911111 171.602376 
L 267.911111 164.416634 
L 269.562058 164.416634 
L 269.562058 157.230891 
L 270.539077 157.230891 
L 270.539077 150.045149 
L 271.237268 150.045149 
L 271.237268 142.859406 
L 271.423383 142.859406 
L 271.423383 135.673663 
L 271.488883 135.673663 
L 271.488883 128.487921 
L 272.063491 128.487921 
L 272.063491 121.302178 
L 272.159765 121.302178 
L 272.159765 114.116436 
L 273.417209 114.116436 
L 273.417209 106.930693 
L 277.049767 106.930693 
L 277.049767 99.74495 
L 278.427816 99.74495 
L 278.427816 92.559208 
L 278.631229 92.559208 
L 278.631229 85.373465 
L 279.207225 85.373465 
L 279.207225 78.187723 
L 280.763876 78.187723 
L 280.763876 71.00198 
L 281.891053 71.00198 
L 281.891053 63.816238 
L 282.047016 63.816238 
L 282.047016 56.630495 
L 282.450434 56.630495 
L 282.450434 49.444752 
L 282.595247 49.444752 
L 282.595247 42.25901 
L 283.179468 42.25901 
L 283.179468 35.073267 
L 284.841064 35.073267 
L 284.841064 27.887525 
L 295.871901 27.887525 
L 295.871901 20.701782 
L 300.739846 20.701782 
L 300.739846 13.51604 
L 302.104801 13.51604 
L 302.104801 6.330297 
L 302.104801 6.330297 
L 302.104801 6.330297 
L 460.8 6.330297 
" clip-path="url(#p4fc6c85603)" style="fill: none; stroke: #000000; stroke-width: 1.5; stroke-linecap: square"/>
   </g>
   <g id="patch_3">
    <path d="M 0 293.76 
L 0 3.456 
" style="fill: none; stroke: #000000; stroke-width: 0.8; stroke-linejoin: miter; stroke-linecap: square"/>
   </g>
   <g id="patch_4">
    <path d="M 460.8 293.76 
L 460.8 3.456 
" style="fill: none; stroke: #000000; stroke-width: 0.8; stroke-linejoin: miter; stroke-linecap: square"/>
   </g>
   <g id="patch_5">
    <path d="M 0 293.76 
L 460.8 293.76 
" style="fill: none; stroke: #000000; stroke-width: 0.8; stroke-linejoin: miter; stroke-linecap: square"/>
   </g>
   <g id="patch_6">
    <path d="M 0 3.456 
L 460.8 3.456 
" style="fill: none; stroke: #000000; stroke-width: 0.8; stroke-linejoin: miter; stroke-linecap: square"/>
   </g>
   <g id="text_6">
    <!-- {f3, f4, f12, f13}, 5-D -->
    <g transform="translate(235.430875 287.95392)scale(0.2 -0.2)">
     <defs>
      <path id="DejaVuSans-7b" d="M 3272 -594 
L 3272 -1044 
L 3078 -1044 
Q 2300 -1044 2036 -812 
Q 1772 -581 1772 109 
L 1772 856 
Q 1772 1328 1603 1509 
Q 1434 1691 991 1691 
L 800 1691 
L 800 2138 
L 991 2138 
Q 1438 2138 1605 2317 
Q 1772 2497 1772 2963 
L 1772 3713 
Q 1772 4403 2036 4633 
Q 2300 4863 3078 4863 
L 3272 4863 
L 3272 4416 
L 3059 4416 
Q 2619 4416 2484 4278 
Q 2350 4141 2350 3700 
L 2350 2925 
Q 2350 2434 2208 2212 
Q 2066 1991 1722 1913 
Q 2069 1828 2209 1606 
Q 2350 1384 2350 897 
L 2350 122 
Q 2350 -319 2484 -456 
Q 2619 -594 3059 -594 
L 3272 -594 
z
" transform="scale(0.015625)"/>
      <path id="DejaVuSans-33" d="M 2597 2516 
Q 3050 2419 3304 2112 
Q 3559 1806 3559 1356 
Q 3559 666 3084 287 
Q 2609 -91 1734 -91 
Q 1441 -91 1130 -33 
Q 819 25 488 141 
L 488 750 
Q 750 597 1062 519 
Q 1375 441 1716 441 
Q 2309 441 2620 675 
Q 2931 909 2931 1356 
Q 2931 1769 2642 2001 
Q 2353 2234 1838 2234 
L 1294 2234 
L 1294 2753 
L 1863 2753 
Q 2328 2753 2575 2939 
Q 2822 3125 2822 3475 
Q 2822 3834 2567 4026 
Q 2313 4219 1838 4219 
Q 1578 4219 1281 4162 
Q 984 4106 628 3988 
L 628 4550 
Q 988 4650 1302 4700 
Q 1616 4750 1894 4750 
Q 2613 4750 3031 4423 
Q 3450 4097 3450 3541 
Q 3450 3153 3228 2886 
Q 3006 2619 2597 2516 
z
" transform="scale(0.015625)"/>
      <path id="DejaVuSans-2c" d="M 750 794 
L 1409 794 
L 1409 256 
L 897 -744 
L 494 -744 
L 750 256 
L 750 794 
z
" transform="scale(0.015625)"/>
      <path id="DejaVuSans-7d" d="M 800 -594 
L 1019 -594 
Q 1456 -594 1589 -459 
Q 1722 -325 1722 122 
L 1722 897 
Q 1722 1384 1862 1606 
Q 2003 1828 2350 1913 
Q 2003 1991 1862 2212 
Q 1722 2434 1722 2925 
L 1722 3700 
Q 1722 4144 1589 4280 
Q 1456 4416 1019 4416 
L 800 4416 
L 800 4863 
L 997 4863 
Q 1775 4863 2036 4633 
Q 2297 4403 2297 3713 
L 2297 2963 
Q 2297 2497 2465 2317 
Q 2634 2138 3078 2138 
L 3272 2138 
L 3272 1691 
L 3078 1691 
Q 2634 1691 2465 1509 
Q 2297 1328 2297 856 
L 2297 109 
Q 2297 -581 2036 -812 
Q 1775 -1044 997 -1044 
L 800 -1044 
L 800 -594 
z
" transform="scale(0.015625)"/>
     </defs>
     <use xlink:href="#DejaVuSans-7b"/>
     <use xlink:href="#DejaVuSans-66" x="63.623047"/>
     <use xlink:href="#DejaVuSans-33" x="98.828125"/>
     <use xlink:href="#DejaVuSans-2c" x="162.451172"/>
     <use xlink:href="#DejaVuSans-20" x="194.238281"/>
     <use xlink:href="#DejaVuSans-66" x="226.025391"/>
     <use xlink:href="#DejaVuSans-34" x="261.230469"/>
     <use xlink:href="#DejaVuSans-2c" x="324.853516"/>
     <use xlink:href="#DejaVuSans-20" x="356.640625"/>
     <use xlink:href="#DejaVuSans-66" x="388.427734"/>
     <use xlink:href="#DejaVuSans-31" x="423.632812"/>
     <use xlink:href="#DejaVuSans-32" x="487.255859"/>
     <use xlink:href="#DejaVuSans-2c" x="550.878906"/>
     <use xlink:href="#DejaVuSans-20" x="582.666016"/>
     <use xlink:href="#DejaVuSans-66" x="614.453125"/>
     <use xlink:href="#DejaVuSans-31" x="649.658203"/>
     <use xlink:href="#DejaVuSans-33" x="713.28125"/>
     <use xlink:href="#DejaVuSans-7d" x="776.904297"/>
     <use xlink:href="#DejaVuSans-2c" x="840.527344"/>
     <use xlink:href="#DejaVuSans-20" x="872.314453"/>
     <use xlink:href="#DejaVuSans-35" x="904.101562"/>
     <use xlink:href="#DejaVuSans-2d" x="967.724609"/>
     <use xlink:href="#DejaVuSans-44" x="1003.808594"/>
    </g>
   </g>
   <g id="text_7">
    <!-- v2.6, hv-hash=ff0e71e8cd978373 -->
    <g style="fill: #808080" transform="translate(144.904687 288.777272)scale(0.1 -0.1)">
     <defs>
      <path id="DejaVuSans-76" d="M 191 3500 
L 800 3500 
L 1894 563 
L 2988 3500 
L 3597 3500 
L 2284 0 
L 1503 0 
L 191 3500 
z
" transform="scale(0.015625)"/>
      <path id="DejaVuSans-2e" d="M 684 794 
L 1344 794 
L 1344 0 
L 684 0 
L 684 794 
z
" transform="scale(0.015625)"/>
      <path id="DejaVuSans-36" d="M 2113 2584 
Q 1688 2584 1439 2293 
Q 1191 2003 1191 1497 
Q 1191 994 1439 701 
Q 1688 409 2113 409 
Q 2538 409 2786 701 
Q 3034 994 3034 1497 
Q 3034 2003 2786 2293 
Q 2538 2584 2113 2584 
z
M 3366 4563 
L 3366 3988 
Q 3128 4100 2886 4159 
Q 2644 4219 2406 4219 
Q 1781 4219 1451 3797 
Q 1122 3375 1075 2522 
Q 1259 2794 1537 2939 
Q 1816 3084 2150 3084 
Q 2853 3084 3261 2657 
Q 3669 2231 3669 1497 
Q 3669 778 3244 343 
Q 2819 -91 2113 -91 
Q 1303 -91 875 529 
Q 447 1150 447 2328 
Q 447 3434 972 4092 
Q 1497 4750 2381 4750 
Q 2619 4750 2861 4703 
Q 3103 4656 3366 4563 
z
" transform="scale(0.015625)"/>
      <path id="DejaVuSans-68" d="M 3513 2113 
L 3513 0 
L 2938 0 
L 2938 2094 
Q 2938 2591 2744 2837 
Q 2550 3084 2163 3084 
Q 1697 3084 1428 2787 
Q 1159 2491 1159 1978 
L 1159 0 
L 581 0 
L 581 4863 
L 1159 4863 
L 1159 2956 
Q 1366 3272 1645 3428 
Q 1925 3584 2291 3584 
Q 2894 3584 3203 3211 
Q 3513 2838 3513 2113 
z
" transform="scale(0.015625)"/>
      <path id="DejaVuSans-61" d="M 2194 1759 
Q 1497 1759 1228 1600 
Q 959 1441 959 1056 
Q 959 750 1161 570 
Q 1363 391 1709 391 
Q 2188 391 2477 730 
Q 2766 1069 2766 1631 
L 2766 1759 
L 2194 1759 
z
M 3341 1997 
L 3341 0 
L 2766 0 
L 2766 531 
Q 2569 213 2275 61 
Q 1981 -91 1556 -91 
Q 1019 -91 701 211 
Q 384 513 384 1019 
Q 384 1609 779 1909 
Q 1175 2209 1959 2209 
L 2766 2209 
L 2766 2266 
Q 2766 2663 2505 2880 
Q 2244 3097 1772 3097 
Q 1472 3097 1187 3025 
Q 903 2953 641 2809 
L 641 3341 
Q 956 3463 1253 3523 
Q 1550 3584 1831 3584 
Q 2591 3584 2966 3190 
Q 3341 2797 3341 1997 
z
" transform="scale(0.015625)"/>
      <path id="DejaVuSans-73" d="M 2834 3397 
L 2834 2853 
Q 2591 2978 2328 3040 
Q 2066 3103 1784 3103 
Q 1356 3103 1142 2972 
Q 928 2841 928 2578 
Q 928 2378 1081 2264 
Q 1234 2150 1697 2047 
L 1894 2003 
Q 2506 1872 2764 1633 
Q 3022 1394 3022 966 
Q 3022 478 2636 193 
Q 2250 -91 1575 -91 
Q 1294 -91 989 -36 
Q 684 19 347 128 
L 347 722 
Q 666 556 975 473 
Q 1284 391 1588 391 
Q 1994 391 2212 530 
Q 2431 669 2431 922 
Q 2431 1156 2273 1281 
Q 2116 1406 1581 1522 
L 1381 1569 
Q 847 1681 609 1914 
Q 372 2147 372 2553 
Q 372 3047 722 3315 
Q 1072 3584 1716 3584 
Q 2034 3584 2315 3537 
Q 2597 3491 2834 3397 
z
" transform="scale(0.015625)"/>
      <path id="DejaVuSans-3d" d="M 678 2906 
L 4684 2906 
L 4684 2381 
L 678 2381 
L 678 2906 
z
M 678 1631 
L 4684 1631 
L 4684 1100 
L 678 1100 
L 678 1631 
z
" transform="scale(0.015625)"/>
      <path id="DejaVuSans-65" d="M 3597 1894 
L 3597 1613 
L 953 1613 
Q 991 1019 1311 708 
Q 1631 397 2203 397 
Q 2534 397 2845 478 
Q 3156 559 3463 722 
L 3463 178 
Q 3153 47 2828 -22 
Q 2503 -91 2169 -91 
Q 1331 -91 842 396 
Q 353 884 353 1716 
Q 353 2575 817 3079 
Q 1281 3584 2069 3584 
Q 2775 3584 3186 3129 
Q 3597 2675 3597 1894 
z
M 3022 2063 
Q 3016 2534 2758 2815 
Q 2500 3097 2075 3097 
Q 1594 3097 1305 2825 
Q 1016 2553 972 2059 
L 3022 2063 
z
" transform="scale(0.015625)"/>
      <path id="DejaVuSans-37" d="M 525 4666 
L 3525 4666 
L 3525 4397 
L 1831 0 
L 1172 0 
L 2766 4134 
L 525 4134 
L 525 4666 
z
" transform="scale(0.015625)"/>
      <path id="DejaVuSans-38" d="M 2034 2216 
Q 1584 2216 1326 1975 
Q 1069 1734 1069 1313 
Q 1069 891 1326 650 
Q 1584 409 2034 409 
Q 2484 409 2743 651 
Q 3003 894 3003 1313 
Q 3003 1734 2745 1975 
Q 2488 2216 2034 2216 
z
M 1403 2484 
Q 997 2584 770 2862 
Q 544 3141 544 3541 
Q 544 4100 942 4425 
Q 1341 4750 2034 4750 
Q 2731 4750 3128 4425 
Q 3525 4100 3525 3541 
Q 3525 3141 3298 2862 
Q 3072 2584 2669 2484 
Q 3125 2378 3379 2068 
Q 3634 1759 3634 1313 
Q 3634 634 3220 271 
Q 2806 -91 2034 -91 
Q 1263 -91 848 271 
Q 434 634 434 1313 
Q 434 1759 690 2068 
Q 947 2378 1403 2484 
z
M 1172 3481 
Q 1172 3119 1398 2916 
Q 1625 2713 2034 2713 
Q 2441 2713 2670 2916 
Q 2900 3119 2900 3481 
Q 2900 3844 2670 4047 
Q 2441 4250 2034 4250 
Q 1625 4250 1398 4047 
Q 1172 3844 1172 3481 
z
" transform="scale(0.015625)"/>
      <path id="DejaVuSans-63" d="M 3122 3366 
L 3122 2828 
Q 2878 2963 2633 3030 
Q 2388 3097 2138 3097 
Q 1578 3097 1268 2742 
Q 959 2388 959 1747 
Q 959 1106 1268 751 
Q 1578 397 2138 397 
Q 2388 397 2633 464 
Q 2878 531 3122 666 
L 3122 134 
Q 2881 22 2623 -34 
Q 2366 -91 2075 -91 
Q 1284 -91 818 406 
Q 353 903 353 1747 
Q 353 2603 823 3093 
Q 1294 3584 2113 3584 
Q 2378 3584 2631 3529 
Q 2884 3475 3122 3366 
z
" transform="scale(0.015625)"/>
      <path id="DejaVuSans-64" d="M 2906 2969 
L 2906 4863 
L 3481 4863 
L 3481 0 
L 2906 0 
L 2906 525 
Q 2725 213 2448 61 
Q 2172 -91 1784 -91 
Q 1150 -91 751 415 
Q 353 922 353 1747 
Q 353 2572 751 3078 
Q 1150 3584 1784 3584 
Q 2172 3584 2448 3432 
Q 2725 3281 2906 2969 
z
M 947 1747 
Q 947 1113 1208 752 
Q 1469 391 1925 391 
Q 2381 391 2643 752 
Q 2906 1113 2906 1747 
Q 2906 2381 2643 2742 
Q 2381 3103 1925 3103 
Q 1469 3103 1208 2742 
Q 947 2381 947 1747 
z
" transform="scale(0.015625)"/>
      <path id="DejaVuSans-39" d="M 703 97 
L 703 672 
Q 941 559 1184 500 
Q 1428 441 1663 441 
Q 2288 441 2617 861 
Q 2947 1281 2994 2138 
Q 2813 1869 2534 1725 
Q 2256 1581 1919 1581 
Q 1219 1581 811 2004 
Q 403 2428 403 3163 
Q 403 3881 828 4315 
Q 1253 4750 1959 4750 
Q 2769 4750 3195 4129 
Q 3622 3509 3622 2328 
Q 3622 1225 3098 567 
Q 2575 -91 1691 -91 
Q 1453 -91 1209 -44 
Q 966 3 703 97 
z
M 1959 2075 
Q 2384 2075 2632 2365 
Q 2881 2656 2881 3163 
Q 2881 3666 2632 3958 
Q 2384 4250 1959 4250 
Q 1534 4250 1286 3958 
Q 1038 3666 1038 3163 
Q 1038 2656 1286 2365 
Q 1534 2075 1959 2075 
z
" transform="scale(0.015625)"/>
     </defs>
     <use xlink:href="#DejaVuSans-76"/>
     <use xlink:href="#DejaVuSans-32" x="59.179688"/>
     <use xlink:href="#DejaVuSans-2e" x="122.802734"/>
     <use xlink:href="#DejaVuSans-36" x="154.589844"/>
     <use xlink:href="#DejaVuSans-2c" x="218.212891"/>
     <use xlink:href="#DejaVuSans-20" x="250"/>
     <use xlink:href="#DejaVuSans-68" x="281.787109"/>
     <use xlink:href="#DejaVuSans-76" x="345.166016"/>
     <use xlink:href="#DejaVuSans-2d" x="401.720703"/>
     <use xlink:href="#DejaVuSans-68" x="437.804688"/>
     <use xlink:href="#DejaVuSans-61" x="501.183594"/>
     <use xlink:href="#DejaVuSans-73" x="562.462891"/>
     <use xlink:href="#DejaVuSans-68" x="614.5625"/>
     <use xlink:href="#DejaVuSans-3d" x="677.941406"/>
     <use xlink:href="#DejaVuSans-66" x="761.730469"/>
     <use xlink:href="#DejaVuSans-66" x="796.935547"/>
     <use xlink:href="#DejaVuSans-30" x="832.140625"/>
     <use xlink:href="#DejaVuSans-65" x="895.763672"/>
     <use xlink:href="#DejaVuSans-37" x="957.287109"/>
     <use xlink:href="#DejaVuSans-31" x="1020.910156"/>
     <use xlink:href="#DejaVuSans-65" x="1084.533203"/>
     <use xlink:href="#DejaVuSans-38" x="1146.056641"/>
     <use xlink:href="#DejaVuSans-63" x="1209.679688"/>
     <use xlink:href="#DejaVuSans-64" x="1264.660156"/>
     <use xlink:href="#DejaVuSans-39" x="1328.136719"/>
     <use xlink:href="#DejaVuSans-37" x="1391.759766"/>
     <use xlink:href="#DejaVuSans-38" x="1455.382812"/>
     <use xlink:href="#DejaVuSans-33" x="1519.005859"/>
     <use xlink:href="#DejaVuSans-37" x="1582.628906"/>
     <use xlink:href="#DejaVuSans-33" x="1646.251953"/>
    </g>
   </g>
  </g>
 </g>
 <defs>
  <clipPath id="p4fc6c85603">
   <rect x="0" y="3.456" width="460.8" height="290.304"/>
  </clipPath>
 </defs>
</svg>
